<svg width="40" height="40" fill="none" xmlns="http://www.w3.org/2000/svg"><path d="M17.875 39.365a.084.084 0 00.034-.013.229.229 0 00-.034.013z" fill="#689762"/><path d="M39.993 21.275c.002.146-.003.343-.016.539-.004.049-.006.097-.012.145a5.109 5.109 0 01-.02.139c-.015.09-.032.171-.05.24a4.3 4.3 0 00.015-.363c0-.076-.011-.118-.019-.155-.017-.075-.035-.135-.038-.425-.027.222-.03.417-.049.584-.02.167-.046.307-.097.42a4.436 4.436 0 01-.036.556 6.78 6.78 0 01-.093.466l-.105.439c-.041.147-.081.3-.117.468l.062-.425c.019-.142.029-.285.044-.427a12.99 12.99 0 00-.051.352l-.063.349a5.65 5.65 0 01-.14.621l-.023-.042c-.1.215-.192.412-.273.652-.077.243-.169.522-.258.911-.055.1-.137.283-.126.161l-.037.087-.039.081a5.513 5.513 0 00-.184.45c-.068.187-.116.363-.18.534-.124.344-.243.7-.544 1.143a9.638 9.638 0 00-.184.323c-.06.109-.126.215-.188.325l-.184.33c-.061.111-.12.223-.188.33-.13.216-.261.433-.395.644-.14.206-.289.404-.44.594l.004.02c.158-.197.314-.4.46-.604l.405-.615.097-.148.09-.148c.06-.096.118-.19.177-.28.115-.18.235-.34.34-.485l-.055.138c-.018.046-.04.09-.06.136-.158.24-.304.475-.445.704-.15.223-.291.442-.427.66-.066.109-.139.213-.209.317l-.207.312c-.07.103-.134.209-.204.31l-.214.3-.212.303c-.036.05-.07.102-.107.15l-.113.148c-.152.196-.305.395-.465.595-.166.194-.338.39-.517.59-.087.1-.185.195-.282.292-.098.098-.198.196-.3.294l-.176.163-.186.16-.381.33c-.065.056-.128.115-.195.17-.068.053-.135.108-.203.163l-.411.33c-.035.028-.069.056-.104.082l-.107.078-.215.156-.43.307c-.295.188-.586.373-.875.536.23-.158-.028-.079.36-.315.09.03.179-.046.328-.175l.27-.233a3.45 3.45 0 01.396-.287c.444-.275 1.274-.925 1.144-.913.164-.096.434-.367.5-.444-.164.11-.33.254-.496.406-.085.075-.166.157-.253.229a10.02 10.02 0 01-.26.213c-.138.096-.274.196-.41.298l-.42.296c-.14.1-.276.204-.417.302l-.424.287-.21.142-.105.07-.107.066c-.142.086-.283.17-.423.251a6.78 6.78 0 01-.823.417c-.114.067-.231.137-.354.2-.124.063-.251.125-.38.186l-.393.185c-.132.06-.27.111-.405.167-.272.11-.541.225-.813.318l-.397.147c-.13.05-.257.1-.383.142-.272.068-.505.07-.761.206-.195.034-.393.071-.588.114-.195.04-.386.091-.57.123-.184.037-.359.073-.517.107-.158.033-.299.066-.418.083l-.48.006-.383.05-.381.036-.38.038c-.125.013-.25.027-.374.032a48.87 48.87 0 01-.734.036c-.12.008-.239.005-.356.002a16.15 16.15 0 01-.348-.01l.018-.017-.328-.012c-.054-.002-.11-.002-.164-.007l-.163-.014-.033.03c-.223-.026-.574-.042-.83-.072-.23-.034-.38-.07-.292-.107-.133.027-.565-.009-.496.044-.138-.066-.379-.076-.653-.115-.206-.029-.47-.063-.756-.13l-.446-.1-.23-.054-.23-.065-.45-.132c-.145-.044-.287-.085-.417-.136a18.68 18.68 0 01-.653-.247l-.023.01c-.077-.023-.165-.052-.255-.08-.09-.029-.184-.057-.27-.086-.172-.058-.316-.116-.352-.168-.423-.076.566.267.488.302-.138-.044-.235-.054-.411-.132-.245-.095-.514-.223-.8-.346l-.218-.095-.11-.049-.108-.053a1707.27 1707.27 0 01-.65-.324l-.107-.055-.103-.059c-.136-.078-.27-.156-.396-.232-.126-.078-.248-.15-.358-.227a6.889 6.889 0 01-.3-.227c.105.061.216.127.33.197.116.067.238.132.361.201.247.136.497.288.753.411l.372.189c.121.06.237.121.353.169.228.1.434.186.6.249l-.435-.237c-.112-.047-.232-.09-.35-.147l-.363-.17-.373-.177c-.124-.062-.245-.13-.366-.196l-.358-.198c-.059-.034-.117-.065-.173-.1l-.164-.103a18.303 18.303 0 01-.583-.385c-.12-.098-.307-.243-.532-.405l-.174-.125-.091-.065-.09-.07a28.35 28.35 0 00-.377-.283 1.03 1.03 0 00-.19-.189l-.071-.058-.075-.065-.163-.135-.335-.272a2.29 2.29 0 01-.26-.232c-.254-.212-.151.003-.017.096.077.062.16.117.24.174.082.104.18.203.29.3.054.049.11.097.17.145l.09.072.094.069.397.282c.135.096.267.202.405.304.398.315.026.042.23.246-.149-.104-.299-.204-.445-.31l-.43-.328c-.291-.214-.562-.452-.84-.684l-.178-.155-.154-.145-.268-.255-.245-.226c-.08-.075-.158-.154-.244-.234-.143-.145-.15-.19-.226-.289.129.098.175.1.387.294a5.21 5.21 0 00-.516-.565c-.161-.171-.33-.349-.536-.613l.062.098-.162-.154c-.054-.051-.104-.106-.156-.16a5.613 5.613 0 01-.304-.352l-.188-.235-.172-.243c-.218-.31-.37-.534-.242-.346l-.09-.015c-.65-.91-1.124-1.831-1.55-2.66a86.37 86.37 0 00-.385-.846 72.91 72.91 0 01-.315-.78c-.053-.126-.095-.255-.138-.383a24.85 24.85 0 01-.126-.39l-.061-.198-.03-.1a18.541 18.541 0 01-.123-.528c.042.094.11.312.128.287l.062.21.071.206.144.412.072.206.036.103.04.102.164.404c.023.154.109.402.227.634.113.234.237.46.307.587-.063-.208-.173-.433-.282-.658-.027-.057-.055-.113-.081-.17a5.738 5.738 0 01-.07-.17 2.71 2.71 0 01-.106-.326 4.18 4.18 0 01-.172-.37 5.264 5.264 0 01-.128-.392 9.23 9.23 0 01-.104-.38l-.046-.178-.035-.166-.15-.3a1.17 1.17 0 00-.037-.3l-.05-.222-.052-.245c-.072-.329-.161-.653-.181-.746.01.177.08.426.138.665.03.119.058.235.077.338.022.103.04.192.037.259-.027-.088-.058-.175-.082-.263l-.071-.266-.143-.534c-.056.11.176.645.085.607a11.6 11.6 0 00-.106-.474l-.051-.21c-.016-.07-.028-.138-.042-.207a11.629 11.629 0 01-.113-.664l-.016-.128-.009-.136.034.144-.06-.582-.03-.29-.015-.145-.008-.146c.015-.031.03.085.045.16l-.096-.95c.008.213.049.535.026.642-.04-.158-.04-.45-.06-.675l.017.762-.052-.296a6.581 6.581 0 00-.031-.494l-.006-.115a3.781 3.781 0 00-.016-.198c-.025-.069-.03.145-.045.217-.01-.073-.024-.152-.02-.28.012-.248.066-.343.075-.33-.02-.3.012-.857.043-1.16l.01.152c.007-.176.011-.352.03-.527-.045-.076-.023-.33.001-.598l.018-.201c.008-.067.016-.131.021-.192a1.133 1.133 0 000-.299l.095-.337.005-.152c-.042-.03-.098.388-.146.584-.008-.571.207-1.238.285-1.722.077-.039-.091.631-.09.878.05-.26.096-.52.15-.78.024-.36.097-.56.16-.69.065-.132.117-.198.117-.297-.016.036-.033.071-.046.107.014-.098.034-.195.051-.293.053-.22.111-.447.172-.672.067-.222.143-.442.215-.652l.108-.307.119-.282c.077-.179.15-.34.215-.476l-.082.286.16-.39c.053-.126.106-.245.148-.358l-.192.296c.123-.3.244-.602.37-.902a8.24 8.24 0 01-.402.86c-.042.075-.074.145-.105.204-.025.02.013-.097.033-.166.07-.085.192-.389.289-.583l-.193.298a9.16 9.16 0 01.192-.44c.034-.07.066-.14.102-.207.037-.067.075-.132.113-.196l-.14.198c-.131.25-.248.5-.356.743-.026.06-.054.12-.077.181l-.067.182-.126.353-.116.337-.095.322c-.062.208-.12.4-.18.575-.08.22-.16.479-.24.699a6.757 6.757 0 01-.189.48l.021-.15-.159.65c-.025.11-.054.217-.076.327l-.063.33-.013-.02-.075.396-.038.198c-.012.066-.02.133-.03.2.015-.061.028-.122.044-.182l.05-.18a5 5 0 01-.017.18l-.013.176a8.222 8.222 0 01-.081.66c-.017.107-.035.213-.046.32-.05.424-.123.85-.11 1.342.01.304.005.598.02.889l.013.434c.005.144.004.288.016.432.02.288.04.579.065.876.038.295.081.598.135.911-.022.103-.071.125.031.608l-.029-.37c.033.197.083.392.127.575.021.091.042.18.058.264.019.084.034.164.041.24-.03-.097-.066-.191-.092-.288-.026-.058-.019.046-.014.105.054.185.158.459.244.733l.06.205c.021.067.04.132.056.196.03.126.048.243.044.34l-.112-.284.015.119c.07.149.134.384.203.552.09.241.236.66.334.978.111.313.17.53.06.375.14.255.215.42.288.583.076.162.143.324.26.573-.122-.32-.252-.637-.353-.964.17.322.26.545.33.764.075.218.13.433.295.702l-.103-.135c.112.192.232.405.354.626.031.055.06.111.094.165l.1.164.199.327.193.317.196.29c.126.186.24.352.336.486.214.44.684.846.755 1.086.238.245.433.478.629.69.095.107.186.213.275.32l.131.16c.043.053.09.103.135.156.183.207.362.423.568.647.106.109.217.221.335.338l.184.178c.064.06.128.124.2.182l-.022.003c.124.064.297.212.463.37.084.077.164.16.238.232.076.072.142.137.191.186.072.027-.093-.116-.139-.174l.128.082c.156.119.36.287.494.405.065.06.116.103.133.124.017.02 0 .018-.067-.02.262.153.398.24.57.363l.138.1c.05.037.105.077.17.12.128.085.287.19.495.33.07.02-.019-.077.202.055-.014.046.149.156.373.285.225.128.506.285.744.397-.096-.07-.195-.135-.287-.21.101.04.24.111.375.183a3.76 3.76 0 00.655.392l.183.085c.125.058.257.117.392.177l.204.09c.07.028.14.054.21.08l.416.159.2.076c.066.025.13.05.194.07.127.043.246.083.354.122-.063-.042-.322-.164-.046-.084l.351.12c.108.035.206.072.301.097l.521.146.25.07c.084.025.173.046.266.068l.65.157c.068.023.136.047.206.063a12.614 12.614 0 00.648.13c.3.06.62.087.978.144.098.005.161-.003.242-.005.08 0 .177 0 .346.024.165.025.101.038.079.056l.453-.01c.06-.01.152-.004.252.004.1.004.208.011.302.012.16 0 .299.024.23.04.17-.016.358-.01.565-.01.208-.003.434-.003.678-.015l.03-.033c.096-.001.2.002.311-.005l.352-.023.383-.028.2-.016c.067-.006.135-.017.204-.025l.834-.11.804-.146.172-.041.169-.045c.112-.029.223-.056.334-.082l.329-.074.162-.036.158-.042c.21-.055.417-.11.617-.168l.148-.045c.05-.015.097-.035.144-.052a6.31 6.31 0 00.28-.114l.019-.04c.173-.054.317-.103.444-.15.127-.046.236-.098.344-.145a11.636 11.636 0 01.52-.215l.104-.039.11-.044-.13.074-.133.068c.147-.053.296-.126.449-.198l.455-.218c.152-.068.292-.146.427-.207a3.14 3.14 0 01.37-.15c-.104.01.052-.07.26-.184.206-.118.468-.262.59-.35.063-.058-.417.254-.337.15.068-.052.155-.11.254-.172a7.605 7.605 0 01.234-.14l.08-.05c.214-.132.432-.258.58-.34l-.118.094.296-.188.288-.201.288-.201c.095-.069.193-.132.284-.206l.555-.43c.047-.035.093-.07.139-.107l.133-.114.267-.227c-.108.08-.23.177-.36.283-.063.054-.132.104-.202.158a133.311 133.311 0 01-.626.477c-.138.094-.27.18-.386.25.63-.437 1.284-1.018 1.786-1.431.069-.07.132-.148.197-.222.114-.102.244-.227.365-.34a6.618 6.618 0 01.309-.274l-.093.117-.096.113.1-.095.101-.102.197-.204c.124-.131.223-.244.253-.301-.09.099-.137.128-.184.164.091-.118.186-.232.273-.353.279-.316.167-.086.445-.404.3-.455-.308.345-.269.206l.413-.462.398-.493.2-.252.19-.262c.127-.176.256-.352.382-.532l.36-.556c.058-.095.121-.186.177-.283a248.461 248.461 0 00.334-.58c.055-.097.114-.193.163-.294l.306-.598c.39-.808.74-1.633 1.008-2.461.147-.41.255-.826.373-1.23.03-.1.054-.202.078-.303l.071-.302.071-.298c.024-.098.048-.196.065-.295a4.125 4.125 0 01.04-.585c.013-.11.033-.223.046-.34a231.864 231.864 0 01.082-.703c.012-.115.028-.227.03-.335a4.89 4.89 0 00-.002-.562zM.708 15.38l.063-.256.024.038-.094.387c-.022.023-.002-.095.007-.169zm-.301 1.18l.088-.458.012.02-.087.456c-.029.152-.06.304-.079.458l-.014-.016c.019-.154.052-.307.08-.46zm-.14 1.572c.011-.12.023-.25.038-.361l.014.016c-.018.11-.023.22-.034.331l-.03.332a1.91 1.91 0 01.012-.318zm.713 7.883c-.014-.043-.029-.085-.041-.128l-.036-.13-.071-.26.02.015.07.256.036.128.041.126-.02-.007zm.339.768l-.069-.214a18.824 18.824 0 00-.142-.395c-.047-.133-.103-.266-.143-.405a8.145 8.145 0 01-.227-.867c.077.233.165.526.248.825.04.15.091.296.136.44.046.141.089.278.128.402l.131.385c-.018-.048-.041-.106-.062-.171zm1.357 2.875c.04.055.096.14.105.125-.057-.144-.07-.206.004.002 0 .003-.005-.005-.004-.002.054.14.15.355.244.46-.052-.03-.233-.39-.349-.585zm2.545 3.51c-.095-.104-.118-.151-.15-.201l.283.306c-.056-.053-.138-.136-.133-.105zm9.338 5.714a5.26 5.26 0 01-.212-.05c-.086-.024-.192-.059-.34-.107.069.01.181.046.275.074.093.029.17.043.163.022l-.107-.049.759.224c-.289-.065-.412-.088-.538-.114zm11.71.106c-.144.046-.315.086-.413.13l-.118.017.398-.126c.133-.041.262-.093.393-.14.003.029-.116.072-.26.119zm3.702-1.924c-.173.102-.22.1-.331.146.391-.185.401-.278.699-.426-.01.04-.244.186-.368.28zM.01 19.172L0 19.44c.014.06.026-.042.036-.099-.005-.076-.01-.196-.026-.168zm34.443-8.715c.077.128.142.242.193.308l-.193-.308zM10.227 6.003l.21-.163a1.648 1.648 0 00-.21.163zm24.18 1.677a.857.857 0 00-.11-.14l.11.14zm-2.719-2.724l.392.314.021-.003a22.37 22.37 0 00-.392-.315l-.021.004zm-20.843.634c.14-.081.27-.163.365-.247a10.024 10.024 0 00-.597.361 8.269 8.269 0 00-.175.132 4.077 4.077 0 01.407-.247zm27.311 9.296c.036.127.087.276.096.332l-.005-.182c-.023-.015-.04-.006-.09-.15zm-5.742-7.942l.34.331.085.083.082.086.162.173-.178-.261-.007-.01.005.008c-.144-.05-.253-.233-.489-.41z" fill="#689762"/><path d="M32.852 7.288l.046.062a.39.39 0 00-.046-.062zM22.688 3.075zm-.042.009c-.013-.01.01-.013.044-.013-.088-.002-.16-.005-.044.013zM1.048 23.604c.01.13.017.24.073.436l-.027-.125c-.012-.08-.01-.111-.003-.112.006 0 .016.029.032.069.03.08.066.202.075.216a3.46 3.46 0 01-.05-.172l-.02-.086-.014-.084a1.326 1.326 0 01-.018-.28l-.12-.42c.05.28.062.43.072.558zm1.436-11.002c.01-.02.017-.04.025-.06l-.014.023-.01.037zm-.069.218c.042-.094.06-.16.076-.22a2.72 2.72 0 01-.085.196l.009.024zm4.789-6.888l.023-.026c-.029.026-.042.04-.023.026zm4.666-.776l-.01.007.003-.002.006-.005zM3.863 15.303l.032-.11-.011-.017-.032.109.011.018zm9.09-10.815l.172-.074a.902.902 0 00-.172.074zM5.229 32.235c-.025-.017.186.219.41.475l.167.193c.054.063.11.12.158.174.095.106.165.19.18.225.053.008.173.134.306.277.137.14.291.292.395.366.085.059-.013-.107-.048-.093a9.94 9.94 0 00-.27-.25c-.091-.086-.183-.178-.273-.266a8.858 8.858 0 01-.256-.262 1.89 1.89 0 01-.2-.246l-.57-.593z" fill="#689762"/><path d="M5.802 32.83a.4.4 0 00-.032-.068l-.028-.026c.017.031.036.06.06.094zM11.97 5.064c.027.003-.05.055-.103.093.102-.06.2-.127.298-.18-.049.015-.094.025-.195.087zm25.266 16.899l-.002.128c.023-.041.047-.062.071-.125a.769.769 0 00.035-.134c.01-.06.025-.137.026-.242-.018-.007-.033.056-.058.134-.024.08-.05.176-.072.24zm1.151 4.658a4.335 4.335 0 00-.325.87c.123-.302.288-.647.325-.87zm-3.824 6.691c.037-.051.087-.108.142-.167l.085-.09.086-.097a3.63 3.63 0 00.303-.363c-.116.13-.25.278-.363.41-.115.131-.217.24-.254.307zm-.552.552l-.386.38.383-.355.003-.025zm-.48.398l.38-.352.001-.023-.38.375zm-2.927 3.045c-.123.077-.256.17-.385.245-.009.026-.036.063.097 0 .102-.066.218-.135.326-.202a1.849 1.849 0 00.28-.2.5.5 0 00-.144.057 2 2 0 00-.174.1zm-.531.683a.89.89 0 00-.12.089c.125-.06.244-.128.365-.195.175-.092.401-.23.372-.245-.11.04-.274.131-.42.222a4.59 4.59 0 00-.197.13zm-1.979-.587l.351-.154.008-.02-.352.153-.007.021zm-11.006 1.532l-.005-.001h-.005.01zm.286.017c-.067-.005-.133-.016-.199-.026l-.198-.029.104.036c.03 0 .063.002.1.005.059.004.124.01.193.014zm-.434.01c-.032-.02.008-.03.09-.03h.045l-.622-.107c.22.046.367.095.488.137zm-2.143-.122l.504.148.021-.01c-.169-.048-.337-.099-.506-.148l-.02.01zm-4.757-2.433l-.223-.14-.02.005c.066.033.139.075.216.123l.118.076.124.074c.166.099.333.197.468.256l-.458-.26-.114-.064-.111-.07zm-.836-.296l.047-.005-.446-.303.4.309zM1.938 26.39c.027.08.05.162.082.24-.033-.147-.055-.299-.083-.447v.207zM1.71 14.882c.036-.118.04-.154.031-.152l-.005.012-.025.14zm-.187.231c.045-.054.19-.375.217-.382l.042-.093.047-.243c.017-.08.03-.162.051-.242l.12-.481-.106.201a5.863 5.863 0 00-.132.295 4.888 4.888 0 00-.113.337c-.068.227-.119.45-.125.608zm.258-1.413l.134-.38c.045-.126.1-.249.15-.374-.055.046-.108.16-.158.3-.044.141-.086.307-.126.454zm.001 0l-.118.335c.04-.066.08-.197.118-.336zm.213-.448a1.94 1.94 0 00-.089.237c.035-.087.068-.175.108-.258a9.55 9.55 0 01.124-.248c.084-.164.17-.326.251-.49.084-.165.175-.327.254-.5a4.59 4.59 0 00.114-.265l.106-.28c-.087.136-.16.28-.24.42l.094-.276c-.083.172-.173.37-.259.556l-.125.263a3.127 3.127 0 01-.105.218l.018.042c-.05.192-.102.3-.16.409-.03.054-.06.108-.091.172zm-.226-1.537l-.09.306.147-.428-.057.122zm.635.357c-.059.11-.105.22-.137.31-.03.094-.047.167-.056.204.074-.208.167-.408.255-.61l-.062.096zm.246-1.654c.134-.182.253-.33.352-.451.153-.306.528-.774.715-1.088l-.078.088c-.015 0 .008-.048.04-.11.03-.06.077-.129.1-.175l.107.07.078-.106-.003-.023c.106-.222.261-.335.312-.4a2.269 2.269 0 01.153-.277 5.545 5.545 0 01.466-.636c.094-.103.193-.204.293-.297l.287-.32c.05-.06.106-.117.16-.173l.153-.162c.19-.205.312-.354.21-.3.136-.146.3-.3.471-.467.174-.165.35-.348.548-.514.195-.17.391-.343.59-.503.204-.154.404-.302.594-.433.13-.05.339-.207.571-.388.117-.089.239-.185.363-.27.127-.082.255-.157.375-.211l-.214.095.119-.093c.183-.106.45-.299.556-.323-.081.057-.158.121-.237.182l.107-.048c.045-.027.082-.051.113-.072.033-.02.059-.037.082-.053.045-.033.074-.059.104-.085.059-.052.118-.105.3-.205.087-.036.194-.095.311-.163l.373-.203c.124-.068.245-.131.35-.178.051-.023.099-.041.14-.054a.356.356 0 01.108-.015c-.042.025-.086.048-.127.076.28-.128.563-.249.845-.373.11-.107-.095-.033-.37.082l-.435.184c-.14.063-.266.123-.35.152l.251-.16c-.154.043-.45.183-.78.349-.165.085-.332.185-.498.277-.165.095-.328.181-.468.265.13-.015-.335.252-.475.371l-.241.142-.235.157c-.157.107-.314.216-.472.327-.08.054-.155.114-.232.173l-.23.18-.229.182c-.076.061-.154.12-.227.186l-.445.387c-.073.064-.149.127-.222.193l-.214.2a42.22 42.22 0 01-.43.396l-.418.4.28-.308.08-.088.081-.081.127-.128c-.238.173-.432.421-.626.652l-.144.17-.143.163a1.973 1.973 0 01-.29.279l.175-.244c-.147.19-.288.375-.428.558-.139.183-.269.37-.408.554l-.212.279a20.886 20.886 0 01-.436.593l-.12.154c-.04.052-.077.108-.117.162l.07-.135c-.264.43-.515.798-.728 1.174l-.165.276c-.054.092-.11.183-.159.278-.1.19-.201.38-.304.578.139-.262.275-.484.4-.67zm8.645-8.283c-.063.04-.166.1-.135.103a.874.874 0 00-.198.064l.333-.167zm-.861.444c.131-.073.252-.145.396-.212-.12.062-.235.15-.37.235a2.7 2.7 0 01-.463.24c.168-.107.306-.19.437-.263zm-8.136 8.033l-.118.26c.103-.206.202-.413.31-.615-.068.116-.128.237-.192.355z" fill="#689762"/><path d="M4.218 8.462l-.148.257.226-.363-.078.106zm2.361 1.643c-.042.055-.09.12-.15.204l.15-.204zm-.015-4.482c-.065.082-.226.242-.192.245.192-.185.382-.372.577-.556-.13.102-.257.207-.385.31zm.408-.671l-.105.11.409-.366-.304.256zm.616 3.79c-.08.105-.153.208-.197.261.09-.04.156-.125.223-.224.034-.05.067-.102.104-.154a.984.984 0 01.126-.14.835.835 0 00-.13.107 2.262 2.262 0 00-.126.15zM7.7 4.251a3.07 3.07 0 01.431-.28c.153-.188-.294.177-.411.232.068-.103.282-.269.412-.364.032-.023.058-.04.078-.053-.03.018-.08.05-.162.105l-.431.362c-.07.06-.135.117-.19.168-.055.052-.1.1-.13.137.038-.028.094-.077.166-.13L7.7 4.25zm.503-.465a.17.17 0 00.03-.02c.003 0-.009.006-.03.02zm-.619.677l.636-.507-.418.29-.21.144c-.07.05-.14.096-.207.15-.018.035.07-.041.16-.105.09-.065.177-.125.146-.074l-.107.102zm.385 3.968l.111-.147a.765.765 0 00-.111.147zm.758-.787a.647.647 0 01.186-.183c.065-.042.136-.086.235-.185l-.085.05-.116.083-.072.055-.068.062c-.09.083-.165.163-.163.194-.042.028-.109.08-.083.034-.109.108-.345.298-.325.327.07-.066.15-.124.225-.186l.227-.182.226-.182.235-.171v-.021c-.072.05-.154.113-.23.17a1.221 1.221 0 01-.192.135zm2.031-1.534c.09-.066.188-.122.283-.181v-.02c-.094.06-.192.115-.282.18l-.001.02zm1.74-4.642c.126-.05.26-.107.332-.139l.01-.02c-.105.043-.254.096-.381.144a.95.95 0 00-.248.125.682.682 0 00.112-.038c.05-.02.11-.047.175-.072zm.33-.138v.002c.088-.04.068-.03 0-.001zm.043-.084l-.012.022.387-.164-.375.142zm-1.046 4.122c-.164.1-.307.247-.118.176.427-.265-.014-.074.118-.176zm1.011-3.835c.446-.19.208-.045.343-.079.307-.115.276-.146.413-.215a8.114 8.114 0 01-.2.066l-.204.076c-.134.05-.26.1-.352.152zm.979-.513c.161-.04.363-.091.497-.118.135-.023.201-.028.087.014a3.495 3.495 0 00-.432.166c-.104.05-.136.079 0 .054.114-.036.25-.083.399-.127l.472-.126c.161-.041.322-.084.475-.117.153-.029.296-.053.418-.07.411-.095-.244.004.292-.114.014-.022-.011-.035.17-.086.223-.049.616-.12.924-.18.078-.015.15-.025.213-.034l.158-.025c.081-.014.11-.021.053-.02a4.28 4.28 0 00-.352.02 5.792 5.792 0 00-.333.055c-.219.042-.43.094-.646.147a12.897 12.897 0 01-.842.22c-.06.012-.121.024-.183.039a6.027 6.027 0 01-.39.074l.277-.108a4.524 4.524 0 01-.545.136l-.218.038a3.148 3.148 0 00-.228.055l.163-.06c.054-.02.11-.034.165-.052l.33-.102.332-.102c.055-.017.11-.035.166-.05l.167-.044c-.198.042-.392.104-.587.158-.195.056-.391.11-.585.17-.894.293-.738.266-.417.188zm-1.612 4.191l.03-.014.022-.021c-.017.011-.037.023-.052.035z" fill="#689762"/><path d="M12.203 5.228c.132-.068.266-.131.4-.198l-.368.164-.032.034zm.115-.108l-.06.057c.042-.028.079-.054.06-.057zm1.231-1.975l-.244.158c.328-.101.246-.141.244-.158zM13.427 4.6l.013-.04c-.05.012-.097.018-.198.068-.305.167.07.008.185-.028zm-.037-.18c.107-.05.212-.107.322-.151l-.108.04-.213.111zM19.096.173a.528.528 0 01.142-.03c.06-.004.136 0 .225.013l-.149.019c.645.033.802.053 1.567.026l.213.007c.08.003.168.004.26.014.181.016.378.034.557.054.358.033.642.096.603.125l.15.004c-.095-.043-.238-.092-.153-.119L22.358.28a2.875 2.875 0 00-.166-.007 11.93 11.93 0 01-.353-.013 7.838 7.838 0 01-.354-.026c-.115-.01-.224-.027-.323-.038l.05-.047c-.076.005-.151.016-.28.006l-.018.015a3.26 3.26 0 01-.65.003c-.222-.008-.447-.02-.667-.018l.21-.083c-.903-.012-.416.042-.74.1l-.38.007.334.043c-.015.007.005-.022.075-.048z" fill="#689762"/><path d="M20.834.117L20.43.111c-.068-.001-.135-.003-.203-.003l-.203.007.228.002.227.012.454.024c-.06-.01-.158-.022-.098-.036zM19.396.044c.112-.005.198-.015.206-.034a2.558 2.558 0 00-.348.013c-.1.01-.177.03-.215.037l.178-.011.18-.005zm-2.143 3.312c.196-.047.392-.103.592-.136-.076.009-.151.015-.226.027-.14.04-.465.08-.366.11zM20.615.062l-.013.015.41-.001-.397-.014zM21.5.028l-.031.006.407.043L21.5.028zm-.036.003l-.185-.02L21.094 0c.072.02.145.035.216.059l.154-.028zm-1.37 3.181l-.375.053.334-.004.168-.003c.055 0 .111.004.167.006l-.147-.03-.147-.022zM23.22.45c.13.022.26.049.39.072L23.39.45l.145.01c.137.02.186.043.244.063.198-.05 1.1.184 1.702.369a5.54 5.54 0 01-.196-.042l-.108-.024-.113-.023c-.152-.03-.313-.064-.464-.095a5.87 5.87 0 00-.407-.072.856.856 0 00-.25 0c.092.003.2.009.318.026.118.018.247.042.383.07.136.028.28.06.427.093l.111.026.111.032.223.065c.6.165 1.179.395 1.534.508l.16.134c-.01-.097.513.016.761.083.143.057.3.169.331.192l-.015-.012-.175-.134a1.297 1.297 0 00-.215-.075l-.203-.05a2.612 2.612 0 01-.618-.242 5.474 5.474 0 00-.351-.132 17.91 17.91 0 00-.54-.169c-.19-.051-.386-.098-.578-.153a8.05 8.05 0 01-.42-.13 4.594 4.594 0 01-.136-.044c-.075-.01-.632-.113-.51-.14A1.751 1.751 0 0124.36.56l-.112-.021-.122-.02-.515-.089a2.648 2.648 0 00-.38-.047c-.079.002-.095.022-.011.069zm5.077 1.414c.004.003.005.004 0 0zM25.699.84c.177.054.357.101.52.152.162.053.311.1.435.136-.193-.061-.226-.101-.338-.151-.054-.01-.115-.027-.184-.042a6.05 6.05 0 01-.219-.054c-.153-.041-.32-.09-.478-.137-.08-.023-.156-.047-.23-.067L25 .627a1.854 1.854 0 00-.272-.05l.449.112c.166.045.344.1.523.152zm-3.283 2.328l-.096-.03c-.091.006-.219-.015-.351-.033l-.016.015c.15.019.298.041.447.062l.016-.014zm16.677 11.531l.094.295c.032.097.053.195.079.29.049.19.092.37.123.535l.066.152-.177-.769c-.015-.064-.028-.128-.046-.191l-.054-.19-.108-.38.064.356a.498.498 0 01-.041-.098z" fill="#689762"/><path d="M28.81 2.078c.007.028.004.052.268.19-.017-.027.092.02.16.047l.188.135c.072.029.178.076.162.049-.124-.06-.164-.095-.208-.128l.137.054c.066.035.136.07.195.102a.654.654 0 01.13.094c.126.13.563.462-.084.12.317.165.528.328.717.473.185.15.353.276.6.36.166.08.327.19.495.309a13.482 13.482 0 01.387.284l.066.05.065.053c.173.144.352.292.54.44l.14.112.142.116a8.7 8.7 0 00.292.229l.072.085c-.063-.01-.31-.21-.48-.336l.522.444.127.108.121.11c.08.074.16.145.238.213a1.523 1.523 0 00.283.308c.049.042.105.093.176.152.123.158-.212-.144.086.186l-.11-.094a4.778 4.778 0 01.595.621l.187.234.185.23.092.11.088.11c.116.143.233.273.351.376.03.052.085.137.036.1l.101.104a7.662 7.662 0 01.6.851c.171.307.33.605.451.855.112.11.212.305.31.503l.147.29c.045.092.093.175.144.24.122.282.26.561.378.854.122.29.256.579.364.88l.171.448.043.112.037.115.073.229c.048.152.095.305.14.458l.034.115.028.117.053.233.1.388.05.19.04.188.154.723.114.69c.018.111.04.221.053.331l.038.326c.024.216.052.426.072.635a1785.535 1785.535 0 01.061.922l.005.303.008.605.012-.808a2.29 2.29 0 00-.002-.203l-.007-.202-.014-.405.068.298-.009-.129c.003-.341.065.157.078.189-.01-.154-.014-.297-.043-.4.008-.114.02-.23.021-.344l-.066-.285c-.029-.197-.005-.236-.01-.358-.014-.098-.022-.188-.036-.27l-.037-.232-.057-.409c-.032-.268-.096-.549-.216-.997l.008.112-.07-.207-.036-.103-.04-.102-.028-.226-.04-.022c-.044-.095-.081-.239-.122-.386-.001-.07-.05-.27-.009-.215-.082-.24-.14-.41-.19-.571-.051-.162-.091-.317-.162-.522.044.088.093.174.131.264.01.209.25.517.222.729.038.108.067.22.102.33l.105.337c-.04-.118-.075-.282-.114-.411-.018-.067-.03-.133-.042-.188a.693.693 0 01-.02-.126c0-.054.027-.036.091.118l-.182-.505c.006-.069-.029-.203-.087-.377-.065-.172-.158-.383-.258-.61-.05-.113-.098-.232-.154-.348a19.032 19.032 0 01-.166-.347c-.107-.23-.195-.455-.27-.643l.045.138c-.079-.09-.17-.315-.255-.474-.115-.117.3.666.009.198a4.552 4.552 0 01-.2-.466c-.039-.108-.05-.17-.027-.187.081.118.144.188.224.358-.017-.052-.056-.148-.015-.101-.045-.061-.086-.125-.13-.188a4.678 4.678 0 01-.128-.193 8.358 8.358 0 01-.238-.405c-.039-.069-.075-.14-.115-.208l-.123-.203a10.03 10.03 0 00-.252-.4l-.046-.012.244.387c.08.13.165.256.237.39.039.107.124.292.042.206-.08-.12-.146-.233-.215-.336a9.409 9.409 0 01-.35-.571c-.051-.089-.097-.178-.15-.261-.103-.17-.203-.337-.318-.517a5.437 5.437 0 00-.417-.575l.023.005c-.117-.17-.181-.325-.26-.46a.966.966 0 00-.334-.35c.103.165.21.326.308.492a2.116 2.116 0 00-.105-.102c-.098-.116-.2-.232-.228-.294l-.155-.108c-.07-.09-.139-.181-.211-.27l-.222-.26-.223-.261c-.074-.087-.148-.175-.227-.257.072.026.33.253.206.093a1.953 1.953 0 00-.112-.092l-.072-.092-.352-.275a.773.773 0 00-.185-.21c-.084-.074-.19-.147-.295-.233-.156-.112-.485-.392-.873-.681l-.29-.227-.074-.058-.076-.054-.149-.11a20.122 20.122 0 01-.539-.408c.167.106.351.21.531.321.09.056.178.113.262.173.083.062.158.13.227.2l-.172-.168c-.058-.056-.119-.107-.178-.161.05.027.106.06.165.096.057.038.116.083.178.129.123.092.254.196.383.3l.19.154.176.153c.112.097.215.182.299.243-.113-.1-.235-.204-.273-.263l.433.253a6.3 6.3 0 00-.623-.466 6.112 6.112 0 01-.73-.536c-.136-.072-.37-.224-.41-.216-.162-.108-.297-.194-.417-.276a2.61 2.61 0 01-.343-.25c.066.034.169.092.156.064a12.478 12.478 0 00-.862-.542 9.13 9.13 0 01-.392-.24c-.056-.037-.107-.074-.152-.106a1.072 1.072 0 01-.113-.088l-.139-.055.096.069-.537-.273-.135-.068c-.045-.022-.091-.041-.137-.062l-.103-.046c.146.07.158.094.163.116zm10.69 14.88c.005.096.008.21.049.328-.024-.058-.02.042-.021.1-.026-.213-.047-.427-.086-.637.043.04.05.115.058.21zm-.42-1.89c.02.078.035.156.05.232.055.203.103.378.096.46.025.119.054.222.078.309a.566.566 0 00.09.198l.01.456-.091-.394a7.393 7.393 0 01-.052-.25c-.016-.088-.039-.179-.055-.272.012-.006.017-.025.02-.047-.03-.138-.06-.292-.095-.46l-.06-.235a3.126 3.126 0 01-.06-.232c.025.079.048.157.07.235zm-.812-2.73c.044.112.087.224.125.329-.051-.106-.1-.22-.147-.336a7.81 7.81 0 01-.269-.68c.038.107.089.23.147.363l.144.325zM30.41 2.956l.114.067.111.072.087.076c-.175-.124-.358-.235-.54-.349l.228.134z" fill="#689762"/><path d="M28.65 1.963a4.428 4.428 0 00-.173-.077l.172.077zm.708.216l-.022.006.193.138-.17-.144zm-1.777 2.657l.059-.024c-.086-.06-.107-.096-.265-.164-.006.034.178.136.206.188zm1.425-.254l-.303-.157c.125.085.226.173.303.157zm-.303-.158a.871.871 0 00-.25-.116c.083.039.168.076.25.116zm.08.228c.145.03-.024-.117-.06-.166a1.665 1.665 0 00-.121-.05c.056.04.109.087.163.13-.223-.112-.022.04.018.086zm.83.205c-.054-.026-.12-.077-.198-.124l-.237-.154c-.155-.1-.29-.177-.319-.138.227.121.269.17.312.22a.53.53 0 00.09.085c.022.018.05.038.088.06l.14.085.02-.006c-.032-.021-.064-.044-.099-.064-.133-.095-.084-.08 0-.045s.198.098.203.08zm1.497-.353l.306.222c-.039-.055-.166-.14-.282-.225l-.025.003zm-.59.967a19.981 19.981 0 00-.318-.227 6.771 6.771 0 00-.312-.188c-.046.02.02.07.127.141.053.037.12.074.183.124.063.048.129.1.187.155.185.133.314.21.43.273.113.065.21.121.334.203-.101-.078-.202-.164-.308-.244l-.323-.237zm1.094 1.033c.152.127.406.377.461.386-.1-.138-.345-.314-.505-.448a.43.43 0 01.044.062zm-.161-.173c.03.03.067.068.117.109a.678.678 0 00-.117-.109zm-.265-.207c.105.094.196.155.267.207-.025-.026-.045-.052-.043-.068l-.224-.139zm-.613.376l-.177-.142.138.152.04-.01zm4.219.228h.045c-.108-.124-.226-.328-.331-.377.315.302.154.235.286.377zm-1.945.782l-.07-.077-.073-.074a23.232 23.232 0 00-.294-.289l-.147-.14c-.05-.046-.097-.092-.149-.133l-.022.002c.06.051.115.107.172.162l.17.164.337.33.02-.005c.045.133.27.303.462.52a940.93 940.93 0 01-.406-.46zm3.511 6.6zm-1.59-3.238c.051.073.103.145.15.218l.135.222c.087.147.172.292.254.436.077.147.147.296.22.443l.106.223.053.111.048.115.193.467c.031.08.069.157.097.24l.09.25c.06.168.129.34.193.52.059.181.122.369.19.563l-.183-.587c-.069-.193-.141-.385-.211-.578.053.125.107.235.161.353.027.059.055.12.081.186l.019.055-.022-.07-.08-.22a35.913 35.913 0 01-.16-.433l-.042-.112a39.677 39.677 0 00-.047-.112l-.1-.236-.106-.255c-.036-.09-.073-.183-.12-.28l.021.006a3.767 3.767 0 00-.32-.638 1.103 1.103 0 00-.062-.08c-.06-.129-.016-.09.009-.085a5.076 5.076 0 01-.314-.594l-.048-.096-.093-.188-.084-.104c.068.1.082.146.101.192-.17-.158-.348-.526-.543-.773a2.138 2.138 0 00-.271-.432c-.108-.125-.227-.248-.359-.4-.025-.045-.072-.12-.03-.09-.047-.06-.09-.123-.141-.18l-.149-.176c.026.044.096.135.142.203.045.067.063.113-.004.06.16.225.334.407.412.455.116.17-.011.057-.017.085l.104.136.098.141c0-.028.065.051.11.101.207.376.567.799.742 1.147-.121-.169-.123-.093-.223-.21zm.35-.832c-.014-.032-.026-.063-.04-.093-.025-.014.003.031.04.092zm.007.003c.002.005 0 0 .003.004l-.005-.008.002.004z" fill="#689762"/><path d="M35.116 9.881l-.12-.171-.238-.344.251.39c.042.065.085.129.125.195l.116.2c-.025-.005-.04.006-.124-.108.07.113.2.3.275.435.005-.025.046.006.164.175.007-.1-.415-.565-.336-.596-.038-.058-.072-.12-.113-.176zm.282.599a.448.448 0 00.057.155c.013-.018-.013-.078-.056-.155zm-.744-.149a.806.806 0 00-.124-.214c-.061-.087-.132-.182-.184-.26l-.041-.005c.164.163.207.314.305.471l.044.008zm3.366 1.886l-.043-.019c.104.2.191.408.282.614-.077-.2-.149-.4-.239-.595zm-2.119.417a4.835 4.835 0 01-.068-.153c-.024-.055-.053-.111-.078-.164a.85.85 0 00-.122-.205c.084.172.176.34.248.518l.02.004zm2.474 1.344l.02.011-.117-.36c-.041-.12-.077-.242-.124-.36l-.021-.01c.047.117.085.238.124.358l.118.361zm1.271 3.146c-.008-.065-.014-.13-.024-.194l-.032-.193c-.02-.071-.047-.181-.059-.153.03.096.041.179.055.263.014.084.026.17.06.277zm-2.788-1.517l-.09-.33-.05-.118.14.448zm.877.375l.019.01-.059-.34.04.33zm.723 1.638c-.03-.242-.05-.484-.096-.723l-.018-.014c.045.239.068.481.096.723l.018.013zm1.307 2.3c.048-.253-.048-.6-.044-.808l-.01.375.033.03c.023.107.02.252.021.402z" fill="#689762"/><path d="M8 26.637L15.2 17l3.6 3.6L23 14l9 12.637H8z" stroke="#689762" stroke-miterlimit="10" stroke-linecap="round" stroke-linejoin="round"/></svg>