<svg width="67" height="66" fill="none" xmlns="http://www.w3.org/2000/svg"><path d="M.422 34.375l.001.023c.002-.013.001-.02-.001-.023zM28.61 64.982a.136.136 0 00.053-.02.338.338 0 00-.054.02z" fill="#689762"/><path d="M63.989 36.041c.003.233-.005.55-.026.862-.006.078-.01.156-.02.233a4.74 4.74 0 01-.11.605 6.9 6.9 0 00.023-.58c-.001-.122-.018-.188-.03-.248-.027-.12-.057-.215-.062-.68-.042.356-.048.667-.078.935-.033.267-.072.491-.154.672a7.15 7.15 0 01-.058.89c-.043.266-.094.51-.15.745l-.167.702c-.066.235-.13.48-.187.75l.099-.68c.03-.228.046-.457.07-.684-.03.184-.057.373-.082.563l-.1.558a9.031 9.031 0 01-.225.994l-.036-.067c-.16.345-.307.658-.437 1.044-.122.388-.27.835-.413 1.457-.088.158-.218.452-.2.258l-.06.138-.062.13a8.889 8.889 0 00-.295.72c-.108.3-.185.581-.289.855-.197.55-.389 1.12-.87 1.828-.101.17-.199.342-.294.517-.096.174-.202.345-.3.52l-.295.528c-.098.177-.193.357-.3.528-.21.346-.42.692-.633 1.03-.225.33-.462.648-.704.95l.007.034c.252-.316.502-.64.735-.967l.648-.985c.052-.08.106-.158.156-.237l.143-.236c.095-.154.19-.304.283-.447.185-.288.377-.544.544-.777l-.087.221c-.03.074-.064.145-.096.217-.253.385-.487.76-.712 1.126-.24.358-.466.709-.683 1.055-.106.176-.222.342-.334.509l-.332.499c-.11.165-.215.334-.327.495l-.341.482-.34.483c-.057.08-.112.163-.171.242l-.182.235c-.243.314-.487.633-.742.953-.267.31-.541.623-.828.942-.14.163-.296.313-.452.47-.156.155-.316.312-.48.47l-.282.26-.297.256-.61.53c-.103.088-.204.182-.312.269l-.325.261-.657.53c-.056.043-.11.089-.166.13l-.172.126-.344.249-.688.49a30.75 30.75 0 01-1.4.858c.37-.253-.044-.126.576-.504.144.048.287-.073.525-.28l.431-.372c.173-.144.38-.3.635-.46.71-.44 2.04-1.48 1.83-1.461.263-.154.695-.586.8-.71a7.315 7.315 0 00-.793.65c-.135.12-.265.25-.405.366-.14.117-.279.232-.417.341-.22.154-.438.313-.655.477-.223.157-.447.315-.67.474-.225.159-.444.326-.669.483l-.68.459-.336.227-.167.113-.17.104c-.228.138-.454.272-.677.402-.44.269-.89.48-1.317.668-.183.106-.37.218-.567.32-.198.1-.402.198-.608.297l-.628.295c-.212.096-.431.179-.648.269-.435.174-.867.36-1.3.507l-.636.236c-.208.08-.411.16-.613.227-.435.11-.808.112-1.218.33-.311.055-.629.114-.94.181-.313.065-.618.147-.913.198-.294.058-.573.117-.826.17-.253.054-.479.107-.67.133l-.767.011-.613.08-.61.057-.607.061c-.2.021-.4.044-.6.051-.397.022-.79.043-1.174.058-.192.012-.382.007-.57.003a26.13 26.13 0 01-.556-.017l.029-.025-.525-.02c-.087-.004-.175-.004-.262-.012l-.262-.022-.052.047c-.357-.04-.918-.066-1.327-.115-.369-.054-.609-.111-.47-.171-.21.043-.902-.014-.792.072-.221-.107-.606-.122-1.044-.185-.33-.046-.754-.1-1.211-.209l-.714-.16-.368-.085-.366-.104-.72-.212c-.234-.07-.46-.136-.668-.216a30.87 30.87 0 01-1.045-.397l-.036.015c-.124-.035-.264-.081-.41-.127-.144-.045-.293-.091-.43-.138-.276-.092-.506-.184-.564-.268-.676-.122.905.428.78.483-.22-.07-.376-.087-.657-.21-.392-.153-.822-.357-1.281-.555l-.347-.152-.176-.077-.173-.085-.697-.345-.345-.174c-.056-.03-.114-.057-.17-.088l-.164-.094c-.219-.125-.431-.25-.634-.372-.202-.124-.398-.24-.573-.363a11.102 11.102 0 01-.48-.363c.168.098.345.204.529.315.184.107.38.211.577.322.395.218.795.46 1.204.658l.596.301c.194.096.38.195.564.271.366.16.694.298.961.398l-.696-.378c-.18-.075-.372-.144-.56-.235l-.58-.272-.598-.284c-.198-.1-.392-.209-.586-.314l-.573-.317c-.093-.053-.187-.103-.277-.158l-.261-.166a29.42 29.42 0 01-.933-.617 19.718 19.718 0 00-.851-.647 24.244 24.244 0 00-.425-.304l-.145-.112c-.195-.15-.398-.302-.602-.453a1.654 1.654 0 00-.303-.302l-.115-.094-.12-.103-.26-.216-.537-.435-.235-.196a3.64 3.64 0 01-.18-.174c-.406-.34-.243.004-.027.152.122.1.255.187.383.279.133.165.29.324.463.48.087.078.178.155.272.232l.144.115.153.11.634.45c.216.155.428.324.648.487.637.505.042.068.367.394-.237-.165-.477-.326-.71-.496l-.689-.525c-.466-.342-.9-.723-1.342-1.094l-.287-.248-.245-.233-.43-.406-.392-.363c-.128-.119-.252-.245-.39-.375-.229-.231-.239-.304-.362-.46.206.156.28.159.619.47a8.36 8.36 0 00-.825-.905c-.258-.274-.529-.558-.857-.981l.099.157-.26-.246c-.086-.083-.166-.17-.25-.256a9 9 0 01-.486-.564l-.3-.376-.276-.388c-.35-.495-.591-.855-.387-.554l-.144-.025C5 50.438 4.242 48.964 3.56 47.64c-.217-.485-.42-.93-.615-1.354a115.86 115.86 0 01-.506-1.248c-.084-.202-.15-.408-.22-.614a39.653 39.653 0 01-.201-.623l-.098-.317-.048-.16-.04-.166a29.413 29.413 0 01-.157-.68c.068.152.177.5.205.46l.1.335c.035.11.075.22.113.33l.23.66.115.33.058.165.065.162.261.648c.038.245.174.642.363 1.013.182.374.38.737.491.94-.1-.333-.275-.693-.45-1.054-.044-.09-.088-.18-.13-.27a9.274 9.274 0 01-.111-.272 4.34 4.34 0 01-.17-.523 6.687 6.687 0 01-.276-.592 8.429 8.429 0 01-.205-.627 19.537 19.537 0 01-.24-.892l-.055-.266-.24-.48c.012-.086-.014-.262-.06-.48l-.08-.356a20.17 20.17 0 00-.083-.39c-.116-.528-.258-1.047-.29-1.195.016.284.128.681.22 1.063.048.19.093.377.125.542.035.165.062.307.059.414-.044-.14-.093-.28-.131-.421l-.115-.426-.227-.853c-.09.176.28 1.032.134.97a21.023 21.023 0 00-.25-1.095c-.026-.11-.046-.22-.068-.33a18.63 18.63 0 01-.18-1.063l-.025-.204c-.006-.07-.01-.143-.015-.218.019.077.034.154.054.23l-.097-.93-.047-.465-.023-.233-.013-.233c.024-.05.048.137.071.256l-.153-1.519c.013.34.078.856.04 1.027-.063-.254-.063-.719-.095-1.081l.028 1.22-.083-.474a10.534 10.534 0 00-.05-.79l-.01-.184a6.045 6.045 0 00-.025-.317c-.04-.11-.049.232-.073.348-.014-.118-.038-.243-.033-.447.02-.4.107-.551.122-.53-.033-.48.02-1.37.069-1.854l.016.241c.01-.281.018-.562.047-.843-.072-.122-.037-.527.002-.956l.03-.323c.01-.106.024-.21.033-.307a1.812 1.812 0 00-.002-.477l.154-.54.008-.242c-.068-.05-.157.62-.235.933-.012-.913.331-1.981.458-2.755.123-.062-.147 1.01-.147 1.405.08-.416.156-.832.241-1.247.04-.578.156-.896.257-1.106.105-.21.187-.316.187-.474a2.872 2.872 0 00-.074.172c.022-.158.055-.314.082-.47a41.5 41.5 0 01.275-1.074c.108-.357.228-.708.344-1.045l.173-.49.19-.451c.123-.287.24-.545.344-.763l-.13.458.254-.625c.087-.2.17-.39.238-.571l-.307.474c.196-.481.39-.964.592-1.445a13.19 13.19 0 01-.643 1.376c-.067.121-.118.234-.169.327-.04.031.022-.155.053-.266.114-.136.308-.621.463-.932l-.309.476c.099-.242.201-.477.307-.703.054-.112.106-.224.164-.332l.18-.312-.224.316c-.21.4-.397.8-.57 1.188-.041.098-.087.193-.123.291l-.108.29-.2.566-.186.539-.152.515c-.098.333-.193.641-.289.92-.128.35-.256.765-.382 1.118a10.25 10.25 0 01-.175.471 1.78 1.78 0 01-.128.298l.033-.242-.254 1.042c-.04.174-.087.347-.122.522l-.1.527-.022-.032-.12.634-.06.318c-.02.105-.03.212-.047.319.023-.097.044-.194.068-.29l.081-.289a12.43 12.43 0 01-.026.289l-.022.28c-.015.185-.035.364-.056.54a17.37 17.37 0 01-.073.518c-.027.17-.056.34-.074.51-.079.68-.196 1.362-.175 2.149.015.486.006.957.032 1.422l.02.694c.007.23.006.46.026.691.031.462.063.926.103 1.401.06.473.13.957.216 1.458-.034.165-.114.2.05.973l-.046-.593c.052.317.132.629.202.921.035.147.068.288.093.423.03.134.055.262.067.382-.05-.153-.107-.305-.149-.46-.04-.092-.029.074-.021.168.087.297.252.735.39 1.174.034.11.065.22.096.328.034.106.064.211.09.313.049.202.077.389.07.544l-.178-.454.023.19c.111.238.214.614.325.883.144.386.377 1.055.534 1.565.178.501.272.849.097.6.224.408.343.673.46.933.121.259.23.518.417.916-.196-.512-.404-1.019-.566-1.542.273.516.415.873.53 1.224.119.347.205.691.47 1.122l-.165-.215c.179.307.37.648.567 1 .05.088.096.178.15.265l.16.262.318.523c.105.172.21.342.31.508l.313.464c.201.296.384.563.537.778.343.702 1.095 1.353 1.209 1.736.38.393.692.765 1.005 1.103.153.172.299.343.44.513l.21.256c.07.086.145.166.217.25.292.331.58.677.909 1.035a31.497 31.497 0 00.83.826c.102.097.204.198.32.292l-.036.003c.199.104.475.34.742.592.133.125.261.257.38.373.121.114.227.218.306.297.115.043-.149-.186-.222-.278l.203.13c.251.19.578.46.79.648.106.096.188.166.214.2.027.032 0 .028-.107-.033.419.245.636.384.912.58l.22.16c.08.06.169.124.272.192l.793.529c.113.032-.03-.123.323.087-.023.075.238.25.597.457.36.205.81.456 1.19.636-.153-.113-.312-.217-.46-.338.163.066.385.179.6.294a6.136 6.136 0 001.05.626l.291.137a40.985 40.985 0 00.955.426c.11.046.224.087.336.13l.666.253.32.122c.105.04.208.08.31.112.202.068.392.133.565.195-.1-.067-.514-.262-.072-.135l.56.193c.173.056.33.116.483.155a1819.263 1819.263 0 011.233.346c.135.04.276.073.426.108l1.038.253c.11.035.22.074.332.1.112.027.224.053.338.077.228.047.46.09.7.132.477.093.99.137 1.563.23.157.008.258-.006.386-.009.128 0 .285 0 .554.039.265.04.162.06.127.088l.726-.015c.096-.016.242-.006.402.006.16.006.333.018.483.02.255 0 .478.038.369.064.27-.027.572-.015.904-.016.331-.005.694-.005 1.083-.024l.05-.053c.152-.002.32.003.497-.008l.562-.037.613-.045.32-.026c.108-.01.217-.026.326-.04l1.335-.177 1.287-.232.274-.066.27-.071c.18-.047.358-.09.535-.132l.527-.119.259-.057.254-.066c.337-.089.666-.176.986-.27l.237-.072c.079-.024.155-.055.231-.083.152-.058.301-.119.447-.182l.03-.065c.279-.085.508-.164.712-.238.203-.076.376-.159.55-.233a17.959 17.959 0 01.83-.345l.168-.061.177-.071c-.07.039-.139.08-.209.117l-.213.11c.235-.085.474-.202.718-.318l.73-.348c.241-.109.466-.234.681-.332.215-.1.415-.183.593-.24-.166.018.084-.11.416-.293.33-.188.748-.42.944-.562.1-.09-.667.407-.54.243.109-.084.25-.178.407-.276a11.023 11.023 0 01.375-.224l.128-.08c.342-.212.69-.413.929-.544l-.19.15.474-.301.46-.322.46-.322c.152-.109.31-.21.456-.328l.888-.687c.074-.058.149-.114.221-.173l.214-.182.428-.364c-.175.128-.37.284-.576.453-.101.087-.213.167-.324.253l-.336.258c-.225.173-.45.346-.666.505-.221.15-.431.288-.617.4 1.006-.698 2.053-1.628 2.856-2.29.111-.112.212-.236.317-.355.181-.163.389-.363.583-.544.097-.09.19-.176.276-.25.083-.076.156-.143.218-.188l-.148.187c-.05.062-.103.12-.155.18l.162-.15c.053-.054.107-.11.162-.164l.315-.327c.197-.21.356-.39.403-.482-.143.159-.219.206-.294.264.146-.19.299-.372.438-.566.445-.506.266-.136.712-.645.48-.73-.494.55-.43.329l.66-.74.636-.789.321-.402.304-.42c.203-.28.409-.563.61-.851l.575-.89c.095-.15.196-.297.285-.452l.267-.463.268-.465c.088-.156.181-.309.26-.47l.49-.958c.622-1.292 1.184-2.611 1.612-3.937.236-.656.409-1.32.597-1.967.05-.16.087-.324.125-.486l.114-.482.113-.477c.038-.158.077-.315.103-.473a6.615 6.615 0 01.066-.937c.02-.175.053-.355.073-.541a691.289 691.289 0 01.13-1.126c.02-.184.045-.364.05-.536a7.824 7.824 0 00-.004-.9zM1.133 26.61l.1-.41.039.06-.15.62c-.036.036-.004-.152.011-.27zm-.482 1.888l.14-.734.02.033-.14.73c-.045.243-.096.485-.125.731l-.023-.024c.03-.248.083-.491.128-.736zm-.225 2.514c.02-.193.038-.399.062-.578l.022.026c-.028.176-.037.353-.054.53l-.047.531a3.1 3.1 0 01.017-.509zm1.142 12.613c-.022-.069-.046-.136-.066-.205l-.057-.208-.114-.415.033.023.112.41.057.204.066.202-.031-.011zm.542 1.229L2 44.51a30.24 30.24 0 00-.227-.632c-.076-.213-.165-.424-.23-.647a13.062 13.062 0 01-.362-1.387c.122.373.264.842.397 1.319.063.24.146.475.217.703L2 44.51l.21.617c-.029-.078-.066-.17-.1-.274zm2.172 4.6c.063.088.154.223.168.2-.092-.23-.112-.33.006.004 0 .004-.008-.01-.006-.003.086.223.24.567.39.736-.083-.05-.373-.625-.558-.938zm4.072 5.616c-.153-.166-.189-.242-.24-.322l.452.49c-.09-.084-.22-.217-.212-.168zm14.94 9.142a8.48 8.48 0 01-.34-.08c-.136-.038-.305-.094-.544-.171.11.016.291.074.44.12.15.045.273.067.261.033l-.17-.078 1.214.359c-.462-.105-.659-.14-.86-.183zm18.737.17c-.23.073-.505.138-.661.21l-.189.024.637-.2c.212-.066.418-.15.628-.224.005.046-.185.114-.415.19zm5.922-3.079c-.276.164-.353.16-.53.235.627-.296.643-.446 1.12-.682-.016.063-.391.298-.59.447zM.016 32.677L0 33.104c.022.097.041-.068.058-.158-.01-.122-.015-.315-.042-.27zm55.101-13.945c.123.205.227.387.309.494l-.309-.494zm-38.75-7.127l.336-.261c-.134.091-.25.178-.336.261zm38.684 2.684a1.372 1.372 0 00-.176-.226l.176.226zM50.703 9.93l.628.502.034-.005c-.255-.21-.5-.402-.628-.503l-.034.006zm-33.347 1.013c.223-.129.432-.26.584-.394a16.111 16.111 0 00-.956.578c-.094.068-.186.139-.28.211.098-.067.203-.137.313-.203l.339-.192zm43.691 14.873c.057.203.138.442.153.532l-.007-.291c-.038-.025-.066-.01-.146-.24zm.148.532l.001.037c.004-.003.003-.018 0-.037zm-9.328-13.237l.545.53.136.132c.044.045.086.092.13.138l.259.277-.285-.419-.01-.014.008.012c-.23-.081-.406-.372-.783-.656z" fill="#689762"/><path d="M52.57 13.66l.074.1a.624.624 0 00-.074-.1zM36.305 6.92zm-.076.014c-.02-.016.016-.02.07-.022-.141-.003-.255-.007-.07.022zM1.685 39.767c.016.206.026.383.117.697l-.044-.2c-.019-.128-.015-.178-.005-.179.01-.001.027.046.051.11.047.127.107.324.12.346a5.565 5.565 0 01-.078-.275l-.034-.137-.022-.135a2.12 2.12 0 01-.028-.449l-.192-.67c.08.447.098.685.115.892zm2.299-17.604c.015-.033.027-.064.04-.097l-.022.037-.018.06zm-.119.347c.068-.15.097-.253.122-.35-.044.112-.09.221-.135.314l.013.037zm7.665-11.018c.014-.017.024-.025.037-.04-.046.04-.068.061-.037.04zM19 10.25l-.016.01c.006-.003.007-.002.007-.002l.01-.008zM6.182 26.485l.052-.175-.018-.029-.052.175.018.03zM20.727 9.181L21 9.063a1.442 1.442 0 00-.274.118zM8.37 53.576c-.04-.027.298.35.657.76l.268.308c.086.101.176.192.252.278.152.17.265.304.289.36.083.014.276.215.489.444.218.223.466.467.632.585.135.094-.02-.171-.078-.15a20.15 20.15 0 00-.43-.398c-.147-.139-.293-.285-.438-.427a14.026 14.026 0 01-.409-.42 3.015 3.015 0 01-.321-.392l-.91-.948z" fill="#689762"/><path d="M9.283 54.53c-.007-.03-.03-.072-.05-.11l-.046-.041c.028.049.058.095.096.15zm9.874-44.426c.043.004-.08.087-.165.149.163-.097.32-.204.477-.288-.078.022-.151.039-.312.139zm40.416 27.038l-.003.204c.036-.065.076-.099.114-.2.019-.05.038-.117.055-.213.016-.096.04-.22.042-.387-.03-.012-.053.088-.093.214-.038.127-.079.281-.115.382zm1.845 7.452c-.233.453-.468 1.125-.52 1.392.197-.484.461-1.035.52-1.392zm-6.121 10.704c.06-.082.14-.172.227-.267l.137-.145.138-.154c.185-.206.37-.412.483-.582-.184.208-.398.445-.58.657-.183.21-.346.385-.405.491zm-.883.884l-.617.608.613-.569.004-.04zm-.766.638l.609-.565v-.036l-.609.6zm-4.684 4.872c-.196.123-.409.272-.615.392-.014.042-.057.1.156 0 .163-.105.348-.216.521-.324.087-.054.171-.107.248-.16.075-.055.142-.108.2-.159a.796.796 0 00-.231.09c-.087.044-.18.099-.279.16zm-.851 1.094a1.46 1.46 0 00-.191.14c.199-.095.39-.203.583-.31.28-.148.643-.37.596-.393a4.3 4.3 0 00-.673.355 7.48 7.48 0 00-.315.208zm-3.16-.94l.563-.247.011-.033-.562.246-.012.034zm-17.617 2.449l-.007-.002h-.009l.016.002zm.464.027c-.107-.009-.213-.026-.318-.041l-.318-.047.168.057c.048.001.1.004.16.008.093.006.197.017.308.022zm-.7.017c-.052-.034.011-.05.142-.05l.073.001-.995-.17c.354.072.587.15.78.219zm-3.428-.193l.806.236.035-.018c-.27-.076-.54-.157-.81-.235l-.031.017zm-7.604-3.896l-.356-.225-.032.009c.105.052.222.12.346.197.06.04.124.08.188.12.064.042.132.08.198.12.266.158.533.316.75.41l-.733-.415-.183-.104-.178-.112zm-1.343-.47l.076-.01-.715-.485.64.494zM3.102 44.225c.044.128.08.26.132.385-.053-.237-.088-.48-.132-.717v.332zM2.734 25.81c.056-.188.064-.246.048-.243l-.008.02-.04.224z" fill="#689762"/><path d="M2.438 26.181c.071-.087.303-.601.346-.612l.068-.148.075-.388c.026-.13.047-.26.082-.388l.189-.77-.17.322c-.067.14-.139.301-.21.472a7.85 7.85 0 00-.181.539c-.11.364-.19.72-.2.973zm.414-2.261l.214-.607c.071-.203.16-.399.238-.598-.086.073-.171.257-.251.48-.071.226-.137.491-.201.725zm.001 0l-.189.537c.065-.106.128-.314.19-.537zm.335-.717a3.11 3.11 0 00-.141.38c.056-.14.108-.28.173-.414.065-.134.131-.267.198-.398.134-.262.27-.52.402-.784.134-.262.28-.521.405-.798.064-.138.125-.279.183-.425l.17-.448c-.14.218-.256.447-.383.672l.15-.44c-.134.273-.277.591-.415.888l-.2.421a4.837 4.837 0 01-.168.348l.029.068c-.08.308-.164.48-.257.654-.047.087-.095.173-.146.276zm-.365-2.458l-.143.49.234-.686-.091.196zm1.024.569a3.585 3.585 0 00-.218.498 4.502 4.502 0 00-.09.325c.12-.333.268-.653.408-.977l-.1.154zm.395-2.645c.213-.292.405-.529.562-.722.246-.49.846-1.238 1.145-1.742l-.125.142c-.023 0 .013-.078.063-.175.05-.098.123-.208.16-.281l.173.113.124-.172-.005-.035c.169-.356.419-.537.5-.64.031-.068.065-.14.106-.214a8.863 8.863 0 01.478-.729c.126-.172.261-.348.406-.518.15-.165.309-.326.469-.476l.458-.512a6.12 6.12 0 01.257-.276l.244-.26c.303-.328.5-.566.337-.48.217-.234.48-.48.754-.747.277-.264.56-.557.876-.823.312-.27.626-.548.945-.803.325-.248.646-.484.95-.694.208-.081.542-.331.913-.62.187-.143.382-.297.581-.433a4.93 4.93 0 01.6-.338l-.343.154.19-.15c.294-.17.72-.478.89-.517-.13.091-.252.194-.379.291l.172-.076c.071-.043.13-.082.18-.115a2.105 2.105 0 00.297-.222c.095-.083.189-.167.48-.327a4.42 4.42 0 00.498-.261l.597-.325c.2-.108.393-.21.559-.284.083-.037.159-.067.226-.088a.569.569 0 01.172-.023c-.068.04-.137.077-.203.12.448-.204.901-.397 1.352-.595.176-.172-.152-.054-.592.13l-.696.296c-.225.1-.425.196-.56.242l.402-.257c-.247.07-.721.295-1.25.56-.262.136-.53.296-.796.444-.263.151-.524.29-.748.422.208-.023-.536.404-.76.595l-.386.228c-.125.081-.25.166-.376.25-.25.17-.502.345-.755.522-.127.087-.248.183-.37.279l-.368.288-.367.29c-.122.098-.248.193-.364.298l-.711.618c-.118.104-.239.205-.355.31l-.343.32c-.23.214-.459.425-.69.633l-.667.641.447-.493.13-.142.128-.129.204-.205c-.381.277-.692.674-1.002 1.043l-.23.273-.229.26c-.149.17-.301.323-.464.446l.28-.39-.686.893c-.221.293-.429.593-.652.887l-.34.446a33.095 33.095 0 01-.697.948l-.19.247c-.064.084-.125.172-.189.26l.113-.216c-.424.687-.826 1.277-1.166 1.878l-.263.442c-.087.147-.177.292-.254.445-.162.302-.323.607-.487.924.222-.419.44-.774.64-1.073zM18.074 5.415c-.101.065-.267.161-.216.165-.11.02-.212.056-.317.102l.533-.267zm-1.378.71c.21-.116.402-.23.633-.339-.19.1-.376.242-.59.376a4.317 4.317 0 01-.743.385c.27-.172.491-.303.7-.422zM3.674 18.979l-.19.414c.166-.328.324-.66.497-.983-.11.185-.204.38-.307.569z" fill="#689762"/><path d="M6.745 15.54l-.237.412.36-.58-.123.168zm3.783 2.63c-.068.088-.144.19-.239.325l.239-.325zm-.026-7.174c-.103.132-.36.389-.307.393.307-.297.612-.596.923-.889-.207.162-.41.33-.616.496zm.658-1.072l-.168.176.654-.586-.487.41zm.977 6.066c-.13.166-.246.331-.317.416.144-.063.25-.2.358-.359.054-.079.107-.163.166-.246.06-.08.128-.156.202-.225a1.335 1.335 0 00-.208.173 3.634 3.634 0 00-.201.24zm.18-7.187c.267-.195.54-.385.69-.45.244-.3-.472.284-.659.373.11-.166.452-.43.66-.584.051-.036.094-.064.124-.083a6.24 6.24 0 00-.258.168l-.69.579a13 13 0 00-.305.268 2.77 2.77 0 00-.207.219c.06-.044.151-.123.265-.208l.38-.282zm.816-.745l.049-.03-.05.03zm-.999 1.084l1.018-.812-.67.463-.334.232c-.112.078-.225.154-.332.238-.029.057.111-.064.257-.166.144-.104.283-.201.233-.12l-.171.165zm.624 6.348l.178-.236c-.11.124-.157.193-.178.236zm1.21-1.26c.108-.151.194-.223.297-.291.104-.068.218-.138.376-.296l-.136.08c-.046.03-.112.077-.186.132l-.114.088a3.723 3.723 0 00-.11.099c-.142.132-.263.26-.26.31-.067.045-.174.127-.134.055-.173.172-.55.476-.52.523.114-.106.241-.198.36-.297l.364-.292.363-.291.375-.274v-.034c-.115.08-.246.182-.369.272a1.92 1.92 0 01-.306.216zm3.235-2.454c.145-.105.301-.194.453-.29v-.03c-.15.095-.307.182-.451.287l-.002.033zm2.795-7.426c.202-.082.416-.173.532-.223l.017-.033c-.17.07-.408.154-.611.232-.203.079-.366.16-.397.198.035-.005.1-.028.18-.06.08-.033.177-.076.279-.115z" fill="#689762"/><path d="M20.523 4.13l.001.001c.14-.062.108-.047 0-.001zm.067-.136l-.02.036.619-.262-.6.226zm-1.68 6.596c-.262.16-.49.395-.189.282.685-.424-.021-.12.19-.282zm1.637-6.138c.713-.303.333-.071.548-.126.492-.184.443-.234.661-.344-.101.036-.21.071-.32.106l-.326.12a4.55 4.55 0 00-.563.244zM22.1 3.63c.257-.062.58-.144.794-.188.217-.037.323-.044.14.023a3.912 3.912 0 00-.374.132 5.59 5.59 0 00-.317.134c-.166.078-.218.125-.002.086.185-.058.402-.133.64-.204l.754-.201c.259-.066.517-.135.76-.187.246-.046.474-.085.67-.112.658-.153-.39.006.468-.182.021-.035-.019-.057.27-.138.357-.078.986-.192 1.48-.287.124-.026.24-.041.34-.056l.253-.04c.13-.021.176-.034.085-.03-.193.002-.38.011-.563.029a9.273 9.273 0 00-.534.089c-.349.068-.688.15-1.033.236-.342.1-.69.2-1.062.288a10.84 10.84 0 01-.284.063c-.097.02-.195.039-.294.063a9.62 9.62 0 01-.623.119l.443-.173a7.24 7.24 0 01-.873.217l-.348.062a5.03 5.03 0 00-.364.086l.26-.094c.087-.032.176-.056.263-.084l.53-.164.53-.163c.088-.027.176-.056.265-.08l.268-.07c-.317.068-.627.166-.94.253-.312.09-.625.176-.936.271-1.43.47-1.18.426-.666.302zm-2.577 6.708c.016-.008.03-.016.047-.023l.036-.034c-.027.018-.058.038-.083.057z" fill="#689762"/><path d="M19.516 10.366c.21-.11.426-.21.638-.317l-.587.263c-.018.017-.034.036-.051.054zm.189-.175l-.096.09c.068-.044.127-.085.096-.09zm1.983-3.16l-.391.253c.525-.161.394-.225.39-.253zm-.204 2.329l.02-.065c-.079.02-.155.03-.317.109-.488.268.113.013.297-.044zm-.054-.287c.17-.082.338-.172.514-.243l-.172.066-.342.177zm9.121-6.796a.846.846 0 01.228-.048c.098-.006.217-.001.36.022l-.238.03c1.032.052 1.284.084 2.507.04l.341.012c.128.005.269.007.414.022.292.026.607.055.893.087.573.053 1.028.153.966.2l.239.006c-.153-.068-.38-.147-.245-.19l-.245-.012a4.592 4.592 0 00-.266-.01 29.235 29.235 0 01-.565-.02 12.53 12.53 0 01-.566-.042c-.183-.017-.358-.045-.517-.062l.081-.075c-.122.009-.243.025-.45.01l-.028.024a5.157 5.157 0 01-1.04.005c-.355-.013-.715-.033-1.067-.029l.336-.133c-1.444-.019-.664.067-1.184.159l-.607.012.534.07c-.025.01.008-.037.12-.078z" fill="#689762"/><path d="M33.336 2.188l-.648-.01c-.109-.002-.217-.005-.325-.004l-.324.01.364.003.363.02.727.038c-.097-.016-.253-.036-.157-.057zm-2.303-.118c.178-.008.316-.023.329-.054a4.094 4.094 0 00-.558.02c-.16.017-.283.048-.343.06l.285-.018c.099-.002.198-.004.287-.008zm-3.426 5.3c.315-.074.628-.164.948-.218-.12.015-.242.024-.362.043-.224.064-.743.128-.586.176zm5.376-5.272l-.022.025.657-.002-.635-.023zm1.419-.053l-.05.008.652.07-.602-.078zm-.052.005l-.296-.031c-.099-.008-.197-.013-.296-.019.116.032.231.056.347.094l.245-.044zm-2.195 5.089l-.6.085.535-.007.267-.004c.09 0 .179.006.268.009l-.235-.048-.235-.035zm4.997-4.418c.209.035.416.077.624.115l-.351-.118.232.017c.218.032.296.069.39.1.317-.08 1.758.295 2.722.59a8.73 8.73 0 01-.313-.066l-.172-.04-.181-.035-.742-.152c-.242-.047-.468-.093-.652-.115-.186-.018-.329-.022-.401-.002.147.006.32.015.51.042.188.03.394.069.612.113.218.044.448.095.684.15l.178.04.177.051.357.105c.959.264 1.886.632 2.455.812l.254.215c-.015-.155.822.025 1.219.132a2.877 2.877 0 01.505.289l-.28-.215a2.083 2.083 0 00-.344-.12l-.325-.081a4.185 4.185 0 01-.988-.386 8.847 8.847 0 00-.562-.21 28.64 28.64 0 00-.864-.271c-.304-.083-.618-.158-.924-.246a12.905 12.905 0 01-.674-.209 7.373 7.373 0 01-.216-.068c-.121-.018-1.012-.18-.818-.226a2.798 2.798 0 01-.288-.038l-.179-.033-.195-.031-.824-.143c-.26-.042-.483-.078-.608-.075-.126.003-.153.034-.018.11zm8.121 2.261c.005.004.006.004 0 0zm-4.155-1.637c.284.085.57.162.832.242.26.086.499.161.696.219-.309-.1-.36-.163-.54-.243-.087-.015-.185-.043-.295-.067a9.774 9.774 0 01-.35-.086 28.586 28.586 0 01-.765-.219c-.127-.037-.25-.076-.368-.107l-.33-.08a2.963 2.963 0 00-.435-.08l.718.178c.267.073.551.162.837.243zm-5.252 3.724l-.155-.048c-.145.01-.349-.024-.56-.052l-.026.023c.239.03.477.066.715.098l.026-.021zM62.544 25.52l.15.471c.05.156.086.312.127.464.078.303.147.593.197.857l.106.242-.284-1.23c-.025-.101-.045-.205-.074-.306l-.086-.303-.172-.608.102.569a.798.798 0 01-.066-.156z" fill="#689762"/><path d="M46.096 5.324c.01.045.004.084.427.304-.028-.043.148.034.255.075l.303.217c.114.046.284.12.258.077-.198-.094-.262-.152-.333-.204l.219.086c.107.057.218.113.313.164.092.056.168.108.207.15.202.21.902.74-.134.193.508.264.845.524 1.147.756.297.24.565.442.96.576.266.128.524.304.793.494a21.934 21.934 0 01.725.535l.103.085a45.355 45.355 0 001.09.882l.225.187c.151.123.307.245.468.365l.115.136c-.101-.014-.496-.334-.767-.537a4588.716 4588.716 0 001.038.883l.193.178c.129.116.256.23.38.339a2.425 2.425 0 00.453.493c.078.067.168.148.283.243.196.252-.34-.23.138.298l-.176-.15a7.643 7.643 0 01.95.993l.3.375.296.367.148.177c.048.058.093.118.14.175.186.23.373.437.562.602.047.084.135.219.057.16l.162.167c.173.197.333.423.496.652.159.231.319.468.462.709.275.49.53.969.724 1.368.178.176.338.488.496.804l.234.464a2.2 2.2 0 00.23.384c.196.452.417.9.605 1.367.196.465.41.926.584 1.407l.273.718.068.18c.021.06.04.122.06.183l.117.366c.076.245.152.49.224.734l.054.184.044.186.086.373.16.621.08.303c.02.101.042.202.063.301l.246 1.158.184 1.103c.028.179.062.355.084.53l.061.523c.039.344.083.681.115 1.014l.066.99.032.486.008.485.012.967.02-1.292a3.89 3.89 0 00-.004-.324l-.01-.323-.023-.648.108.476-.013-.206c.004-.546.103.25.124.302-.017-.247-.023-.475-.068-.64.013-.182.032-.367.033-.55l-.105-.456c-.046-.316-.01-.378-.015-.574-.024-.157-.036-.3-.06-.432l-.058-.37-.092-.654c-.05-.43-.154-.879-.345-1.595l.012.179-.113-.332-.056-.165-.065-.163-.044-.362-.063-.034c-.072-.152-.131-.383-.196-.618-.002-.112-.08-.432-.015-.344a34.277 34.277 0 01-.303-.914c-.083-.259-.147-.508-.26-.835.071.14.149.278.21.422.016.334.4.828.356 1.166.06.173.107.352.162.53l.169.537c-.064-.188-.121-.451-.183-.657-.03-.107-.049-.212-.068-.3a1.104 1.104 0 01-.03-.202c0-.086.042-.058.144.188l-.291-.807c.01-.11-.046-.325-.14-.604-.103-.276-.253-.613-.411-.976-.082-.18-.158-.37-.248-.556a25.3 25.3 0 01-.264-.556c-.172-.367-.313-.728-.434-1.029l.074.221c-.127-.145-.272-.503-.41-.759-.184-.186.482 1.067.015.318a7.29 7.29 0 01-.32-.745c-.061-.174-.08-.272-.043-.3.13.189.23.301.358.573-.027-.084-.09-.238-.023-.162-.073-.097-.138-.2-.209-.3a7.4 7.4 0 01-.205-.31 13.23 13.23 0 01-.38-.648c-.062-.11-.12-.223-.184-.332l-.197-.325a17.596 17.596 0 00-.403-.64l-.073-.02.39.62c.127.208.264.41.38.625.061.17.198.466.066.328-.127-.19-.233-.372-.344-.538a15.245 15.245 0 01-.56-.913c-.082-.142-.155-.284-.24-.417-.164-.27-.325-.54-.508-.828a8.69 8.69 0 00-.668-.919l.037.007c-.187-.272-.29-.52-.415-.737-.13-.212-.277-.4-.535-.557.165.263.335.52.492.786a3.404 3.404 0 00-.167-.164c-.157-.186-.32-.37-.366-.47l-.247-.172c-.113-.143-.222-.29-.338-.431l-.355-.418-.357-.417c-.119-.14-.236-.28-.363-.412.116.043.528.406.329.149-.059-.05-.117-.1-.179-.147l-.115-.147-.563-.44c-.054-.11-.162-.22-.296-.337-.134-.118-.304-.234-.472-.372-.25-.18-.776-.627-1.396-1.09-.153-.119-.31-.24-.466-.363l-.118-.092-.12-.087-.239-.174a29.865 29.865 0 01-.862-.655c.266.17.561.337.849.515.143.088.285.18.42.277.131.099.252.207.362.32l-.275-.27c-.093-.09-.19-.172-.285-.258.081.044.17.096.264.154.092.062.186.132.285.206.197.148.406.315.612.48l.306.248.28.244c.18.155.344.29.479.388-.18-.16-.376-.326-.438-.42l.694.404a10.074 10.074 0 00-.998-.745 9.799 9.799 0 01-1.168-.857c-.217-.115-.59-.359-.654-.347-.261-.173-.476-.31-.669-.44a4.175 4.175 0 01-.547-.4c.105.054.27.146.248.101-.414-.28-.913-.606-1.38-.866a15.96 15.96 0 01-.625-.385c-.09-.059-.171-.118-.243-.17a1.719 1.719 0 01-.182-.14l-.222-.088.154.11-.86-.436-.216-.109c-.072-.035-.146-.066-.22-.1l-.163-.073c.233.112.252.15.26.185zm17.103 23.81c.007.151.012.334.078.523-.038-.093-.032.068-.034.16-.041-.34-.074-.682-.138-1.02.07.065.081.185.094.336zm-.672-3.025c.03.125.055.25.08.37.087.326.164.605.152.736.04.19.087.356.126.495.04.138.086.246.143.316l.018.731-.147-.63a12.28 12.28 0 01-.083-.402c-.026-.14-.062-.285-.088-.434.02-.01.028-.04.031-.076-.048-.22-.096-.467-.152-.736l-.096-.374a5 5 0 01-.094-.373c.04.127.076.252.11.377zm-1.3-4.368c.07.179.139.357.2.526-.082-.17-.159-.354-.235-.538a12.624 12.624 0 01-.43-1.086c.06.17.142.366.235.58l.23.518zM48.654 6.728l.183.108.178.115.139.121c-.28-.2-.573-.377-.865-.558l.365.214z" fill="#689762"/><path d="M45.839 5.142a6.93 6.93 0 00-.276-.124l.276.124zm1.134.344l-.035.01.308.22-.273-.23zm-2.839 4.251l.094-.038c-.136-.094-.17-.153-.423-.261-.01.053.284.216.33.299zm2.273-.405l-.485-.252c.2.137.36.277.485.252zm-.491-.252a1.394 1.394 0 00-.4-.187c.133.062.268.122.4.186zm.132.363c.233.046-.038-.188-.095-.266a2.639 2.639 0 00-.195-.08c.09.065.174.139.261.209-.356-.18-.035.064.03.137zm1.337.329c-.085-.042-.192-.123-.316-.199l-.38-.247c-.248-.159-.465-.283-.51-.22.363.194.43.273.5.353.034.04.07.08.142.136.037.028.083.06.143.097l.223.135.033-.01c-.053-.034-.104-.07-.159-.102-.213-.153-.134-.129 0-.073.134.056.316.157.324.13zm2.381-.566l.49.355c-.062-.087-.265-.224-.451-.36l-.04.005zm-.938 1.549a32.133 32.133 0 00-.509-.364c-.17-.11-.338-.21-.498-.301-.074.032.031.112.203.226.085.059.191.119.292.198.102.077.207.161.3.248a6.5 6.5 0 00.687.438c.182.104.336.193.536.324-.162-.125-.324-.262-.494-.39l-.517-.379zm1.757 1.652c.244.204.65.603.739.618-.16-.221-.553-.503-.808-.716a.74.74 0 01.069.098zm-.257-.278c.049.049.108.109.187.174a1.09 1.09 0 00-.187-.174zm-.43-.33c.17.15.315.248.428.33-.04-.041-.072-.082-.068-.108l-.36-.222zm-.982.601l-.283-.226.22.242.063-.017zm6.753.363l.071.002c-.172-.2-.36-.526-.53-.605.506.483.248.377.459.603zm-3.101 1.253l-.111-.123-.117-.118a37.779 37.779 0 00-.472-.462l-.235-.225c-.079-.073-.156-.147-.238-.213l-.036.004c.096.081.185.17.276.258l.27.263.542.527.03-.006c.074.212.434.484.74.83l-.43-.488a93.236 93.236 0 01-.22-.247zm5.612 10.56l.08.26a5.574 5.574 0 00-.08-.26z" fill="#689762"/><path d="M55.627 19.394c.082.118.165.233.241.35l.215.354c.14.235.275.467.406.698.125.235.236.473.352.71l.17.355.086.179.076.184.308.746c.05.127.11.252.155.385l.145.399c.097.27.206.544.308.832.095.29.195.59.304.902l-.293-.94c-.109-.31-.225-.616-.337-.925.085.2.172.376.259.565.043.094.086.192.129.297l.03.089-.035-.113-.13-.351-.256-.694-.065-.178-.076-.18-.159-.376-.17-.41c-.058-.142-.117-.293-.192-.446l.033.01a6.046 6.046 0 00-.512-1.022 1.809 1.809 0 00-.098-.128c-.096-.206-.026-.144.013-.136a8.152 8.152 0 01-.427-.786l-.075-.165-.077-.154-.149-.3-.135-.167c.11.16.132.234.163.308-.273-.253-.556-.842-.868-1.237a3.418 3.418 0 00-.435-.691c-.173-.2-.363-.396-.574-.64-.04-.072-.115-.191-.047-.144-.076-.096-.146-.198-.227-.29l-.238-.28c.04.07.153.217.227.324.073.108.101.182-.006.096.255.361.534.653.658.73.187.27-.017.09-.026.135.055.073.113.144.166.218l.156.225c0-.044.104.082.175.162.333.602.908 1.278 1.19 1.835-.195-.27-.198-.149-.358-.335zm.57-1.332c-.022-.05-.043-.1-.066-.148-.038-.022.007.05.066.148zm.001.008l.005.005-.008-.012.003.007z" fill="#689762"/><path d="M56.19 17.81l-.19-.274-.383-.55.403.623c.066.105.135.207.199.313l.186.32c-.04-.008-.063.01-.199-.173.113.18.32.48.44.696.008-.04.075.01.262.28.011-.16-.663-.904-.537-.953-.06-.094-.115-.191-.18-.282zm.45.958a.718.718 0 00.09.249c.022-.03-.02-.125-.09-.25zm-1.19-.237c-.018-.078-.101-.203-.2-.342-.097-.14-.21-.291-.293-.418l-.066-.007c.263.262.331.502.489.754l.07.013zm5.377 3.017l-.07-.03c.168.32.308.651.453.982-.124-.319-.238-.642-.383-.952zm-3.382.666a7.918 7.918 0 01-.108-.245c-.04-.089-.086-.178-.126-.262-.083-.167-.157-.306-.195-.328.134.275.28.544.397.828l.032.007zm3.951 2.152l.032.018-.189-.578c-.064-.192-.122-.386-.198-.574l-.033-.017c.076.188.136.381.199.574l.189.577zm2.029 5.033c-.013-.103-.022-.207-.038-.31l-.05-.308c-.033-.115-.076-.291-.095-.247.048.155.066.287.087.422.024.134.042.273.096.443zm-4.453-2.429l-.144-.526-.078-.19.222.716zm1.404.603l.03.015-.093-.543.063.527zm1.166 2.619c-.047-.386-.08-.774-.153-1.156l-.03-.022c.073.382.11.77.155 1.156l.028.022zm2.084 3.679c.077-.403-.078-.958-.07-1.29l-.017.598.052.048c.038.172.032.403.035.645z" fill="#689762"/><path d="M47.333 24.416H16.667a1.917 1.917 0 00-1.917 1.917v21.083c0 1.059.858 1.917 1.917 1.917h30.666a1.917 1.917 0 001.917-1.917V26.333a1.917 1.917 0 00-1.917-1.917z" stroke="#689762" stroke-linecap="round" stroke-linejoin="round"/><path d="M18.578 24.416l2.076-5.75h7.348l2.076 5.75h-11.5zm18.208 19.167a6.708 6.708 0 100-13.417 6.708 6.708 0 000 13.417z" stroke="#689762" stroke-linecap="round" stroke-linejoin="round"/><path d="M43.5 20.584v3.833" stroke="#689762" stroke-linecap="round"/><path stroke="#689762" stroke-width="2" d="M58 0v18m9-9H49"/></svg>