<svg width="203" height="59" fill="none" xmlns="http://www.w3.org/2000/svg"><path d="M11.74 27.86V0m0 .207c-.505 2.05-2.261 6.163-5.236 6.224m5.236 2.124c-.581 1.922-2.747 5.646-6.753 5.16m6.753 3.946c-1.416 2.15-4.947 6.208-7.74 5.236M11.74.207c.507 2.05 2.262 6.163 5.237 6.224M11.74 8.555c.582 1.922 2.747 5.646 6.753 5.16m-6.753 3.946c1.416 2.15 4.948 6.208 7.74 5.236m10.512 4.963V0m0 .207c-.506 2.05-2.262 6.163-5.236 6.224m5.236 2.124c-.582 1.922-2.747 5.646-6.754 5.16m6.754 3.946c-1.417 2.15-4.948 6.208-7.74 5.236m7.74-22.69c.506 2.05 2.261 6.163 5.236 6.224m-5.236 2.124c.582 1.922 2.747 5.646 6.754 5.16m-6.754 3.946c1.417 2.15 4.948 6.208 7.74 5.236m10.511 4.963V0m0 .207c-.506 2.05-2.261 6.163-5.236 6.224m5.236 2.124c-.582 1.922-2.747 5.646-6.754 5.16m6.754 3.946c-1.416 2.15-4.948 6.208-7.74 5.236m7.74-22.69c.506 2.05 2.262 6.163 5.236 6.224m-5.236 2.124c.582 1.922 2.747 5.646 6.754 5.16m-6.754 3.946c1.417 2.15 4.948 6.208 7.74 5.236m10.512 4.963V0m-.001.207c-.505 2.05-2.26 6.163-5.236 6.224m5.236 2.124c-.581 1.922-2.747 5.646-6.753 5.16m6.753 3.946c-1.416 2.15-4.947 6.208-7.74 5.236M66.495.207C67 2.257 68.756 6.37 71.73 6.431m-5.236 2.124c.581 1.922 2.747 5.646 6.754 5.16m-6.754 3.946c1.416 2.15 4.947 6.208 7.74 5.236m10.512 4.963V0m0 .207c-.506 2.05-2.262 6.163-5.236 6.224m5.236 2.124c-.582 1.922-2.747 5.646-6.754 5.16m6.754 3.946c-1.417 2.15-4.948 6.208-7.74 5.236m7.74-22.69c.506 2.05 2.261 6.163 5.236 6.224m-5.236 2.124c.582 1.922 2.747 5.646 6.754 5.16m-6.754 3.946c1.417 2.15 4.948 6.208 7.74 5.236m10.511 4.963V0m0 .207c-.506 2.05-2.261 6.163-5.236 6.224m5.236 2.124c-.582 1.922-2.747 5.646-6.754 5.16m6.754 3.946c-1.416 2.15-4.948 6.208-7.74 5.236m7.741-22.69c.505 2.05 2.261 6.163 5.236 6.224m-5.236 2.124c.581 1.922 2.747 5.646 6.753 5.16m-6.753 3.946c1.416 2.15 4.947 6.208 7.74 5.236m10.511 4.963V0m0 .207c-.506 2.05-2.262 6.163-5.237 6.224m5.237 2.124c-.582 1.922-2.747 5.646-6.754 5.16m6.754 3.946c-1.417 2.15-4.948 6.208-7.741 5.236m7.741-22.69c.506 2.05 2.261 6.163 5.236 6.224m-5.236 2.124c.582 1.922 2.747 5.646 6.754 5.16m-6.754 3.946c1.416 2.15 4.948 6.208 7.74 5.236M139.5 27.86V0m0 .207c-.506 2.05-2.261 6.163-5.236 6.224m5.236 2.124c-.582 1.922-2.747 5.646-6.754 5.16m6.754 3.946c-1.417 2.15-4.948 6.208-7.74 5.236M139.5.207c.506 2.05 2.262 6.163 5.236 6.224M139.5 8.555c.582 1.922 2.747 5.646 6.754 5.16m-6.754 3.946c1.417 2.15 4.948 6.208 7.741 5.236m10.51 4.963V0m0 .207c-.506 2.05-2.261 6.163-5.236 6.224m5.236 2.124c-.582 1.922-2.747 5.646-6.754 5.16m6.754 3.946c-1.416 2.15-4.948 6.208-7.74 5.236m7.741-22.69c.505 2.05 2.261 6.163 5.236 6.224m-5.236 2.124c.581 1.922 2.747 5.646 6.753 5.16m-6.753 3.946c1.416 2.15 4.947 6.208 7.74 5.236m10.511 4.963V0m0 .207c-.506 2.05-2.262 6.163-5.237 6.224m5.237 2.124c-.582 1.922-2.747 5.646-6.754 5.16m6.754 3.946c-1.417 2.15-4.948 6.208-7.741 5.236m7.741-22.69c.506 2.05 2.261 6.163 5.236 6.224m-5.236 2.124c.582 1.922 2.747 5.646 6.754 5.16m-6.754 3.946c1.416 2.15 4.948 6.208 7.74 5.236m10.511 4.963V0m0 .207c-.506 2.05-2.261 6.163-5.236 6.224m5.236 2.124c-.582 1.922-2.747 5.646-6.754 5.16m6.754 3.946c-1.417 2.15-4.948 6.208-7.74 5.236m7.74-22.69c.506 2.05 2.262 6.163 5.236 6.224m-5.236 2.124c.582 1.922 2.747 5.646 6.754 5.16m-6.754 3.946c1.417 2.15 4.948 6.208 7.741 5.236M11.74 58.076v-27.86m0 .208c-.505 2.05-2.261 6.163-5.236 6.224m5.236 2.124c-.581 1.922-2.747 5.646-6.753 5.16m6.753 3.946c-1.416 2.15-4.947 6.208-7.74 5.236m7.74-22.69c.507 2.05 2.262 6.163 5.237 6.224m-5.236 2.124c.582 1.922 2.747 5.646 6.753 5.16m-6.753 3.946c1.416 2.15 4.948 6.208 7.74 5.236m10.511 4.962v-27.86m0 .208c-.506 2.05-2.262 6.163-5.236 6.224m5.236 2.124c-.582 1.922-2.747 5.646-6.754 5.16m6.754 3.946c-1.417 2.15-4.948 6.208-7.74 5.236m7.74-22.69c.506 2.05 2.261 6.163 5.236 6.224m-5.236 2.124c.582 1.922 2.747 5.646 6.754 5.16m-6.754 3.946c1.417 2.15 4.948 6.208 7.74 5.236m10.511 4.962v-27.86m0 .208c-.506 2.05-2.261 6.163-5.236 6.224m5.236 2.124c-.582 1.922-2.747 5.646-6.754 5.16m6.754 3.946c-1.416 2.15-4.948 6.208-7.74 5.236m7.74-22.69c.506 2.05 2.262 6.163 5.236 6.224m-5.236 2.124c.582 1.922 2.747 5.646 6.754 5.16m-6.754 3.946c1.417 2.15 4.948 6.208 7.74 5.236m10.512 4.962v-27.86m-.001.208c-.505 2.05-2.26 6.163-5.236 6.224m5.236 2.124c-.581 1.922-2.747 5.646-6.753 5.16m6.753 3.946c-1.416 2.15-4.947 6.208-7.74 5.236m7.741-22.69c.506 2.05 2.261 6.163 5.236 6.224m-5.236 2.124c.581 1.922 2.747 5.646 6.754 5.16m-6.754 3.946c1.416 2.15 4.947 6.208 7.74 5.236m10.511 4.962v-27.86m0 .208c-.506 2.05-2.262 6.163-5.236 6.224m5.236 2.124c-.582 1.922-2.747 5.646-6.754 5.16m6.754 3.946c-1.417 2.15-4.948 6.208-7.74 5.236m7.74-22.69c.506 2.05 2.261 6.163 5.236 6.224m-5.236 2.124c.582 1.922 2.747 5.646 6.754 5.16m-6.754 3.946c1.417 2.15 4.948 6.208 7.74 5.236m10.511 4.962v-27.86m0 .208c-.506 2.05-2.261 6.163-5.236 6.224m5.236 2.124c-.582 1.922-2.747 5.646-6.754 5.16m6.754 3.946c-1.416 2.15-4.948 6.208-7.74 5.236m7.741-22.69c.505 2.05 2.261 6.163 5.236 6.224m-5.236 2.124c.581 1.922 2.747 5.646 6.753 5.16m-6.753 3.946c1.416 2.15 4.947 6.208 7.74 5.236m10.511 4.962v-27.86m0 .208c-.506 2.05-2.262 6.163-5.237 6.224m5.237 2.124c-.582 1.922-2.747 5.646-6.754 5.16m6.754 3.946c-1.417 2.15-4.948 6.208-7.741 5.236m7.741-22.69c.506 2.05 2.261 6.163 5.236 6.224m-5.236 2.124c.582 1.922 2.747 5.646 6.754 5.16m-6.754 3.946c1.416 2.15 4.948 6.208 7.74 5.236m10.511 4.962v-27.86m0 .208c-.506 2.05-2.261 6.163-5.236 6.224m5.236 2.124c-.582 1.922-2.747 5.646-6.754 5.16m6.754 3.946c-1.417 2.15-4.948 6.208-7.74 5.236m7.74-22.69c.506 2.05 2.262 6.163 5.236 6.224m-5.236 2.124c.582 1.922 2.747 5.646 6.754 5.16m-6.754 3.946c1.417 2.15 4.948 6.208 7.741 5.236m10.51 4.962v-27.86m0 .208c-.506 2.05-2.261 6.163-5.236 6.224m5.236 2.124c-.582 1.922-2.747 5.646-6.754 5.16m6.754 3.946c-1.416 2.15-4.948 6.208-7.74 5.236m7.741-22.69c.505 2.05 2.261 6.163 5.236 6.224m-5.236 2.124c.581 1.922 2.747 5.646 6.753 5.16m-6.753 3.946c1.416 2.15 4.947 6.208 7.74 5.236m10.511 4.962v-27.86m0 .208c-.506 2.05-2.262 6.163-5.237 6.224m5.237 2.124c-.582 1.922-2.747 5.646-6.754 5.16m6.754 3.946c-1.417 2.15-4.948 6.208-7.741 5.236m7.741-22.69c.506 2.05 2.261 6.163 5.236 6.224m-5.236 2.124c.582 1.922 2.747 5.646 6.754 5.16m-6.754 3.946c1.416 2.15 4.948 6.208 7.74 5.236m10.511 4.962v-27.86m0 .208c-.506 2.05-2.261 6.163-5.236 6.224m5.236 2.124c-.582 1.922-2.747 5.646-6.754 5.16m6.754 3.946c-1.417 2.15-4.948 6.208-7.74 5.236m7.74-22.69c.506 2.05 2.262 6.163 5.236 6.224m-5.236 2.124c.582 1.922 2.747 5.646 6.754 5.16m-6.754 3.946c1.417 2.15 4.948 6.208 7.741 5.236" stroke="#99B7A2" stroke-opacity=".5" stroke-width=".554"/><path fill-rule="evenodd" clip-rule="evenodd" d="M37.4 11.629c6.818-.146 12.565 3.744 16.943 7.834 3.97 3.71 5.878 8.416 5.621 13.249-.245 4.624-2.797 8.911-6.971 12.192-4.187 3.292-9.773 4.637-15.594 5.549-7.956 1.246-16.48 3.868-23.406.56C5.966 47.18-1.477 39.942.25 32.713c1.687-7.062 13.677-8.32 21.112-12.54 5.442-3.088 9.316-8.399 16.037-8.543z" fill="#fff" fill-opacity=".5"/></svg>