<svg width="207" height="119" fill="none" xmlns="http://www.w3.org/2000/svg"><g opacity=".5"><path d="M8.465 27.86V0m0 .207c-.506 2.05-2.261 6.163-5.236 6.224m5.236 2.124c-.582 1.922-2.747 5.646-6.754 5.16m6.754 3.946c-1.417 2.15-4.948 6.208-7.74 5.236M8.465.207c.506 2.05 2.262 6.163 5.236 6.224M8.465 8.555c.582 1.922 2.747 5.646 6.754 5.16m-6.754 3.946c1.417 2.15 4.948 6.208 7.74 5.236m10.511 4.963V0m0 .207c-.506 2.05-2.261 6.163-5.236 6.224m5.236 2.124c-.581 1.922-2.747 5.646-6.754 5.16m6.754 3.946c-1.416 2.15-4.947 6.208-7.74 5.236M26.717.207c.506 2.05 2.261 6.163 5.236 6.224m-5.236 2.124c.581 1.922 2.747 5.646 6.754 5.16m-6.754 3.946c1.416 2.15 4.947 6.208 7.74 5.236m10.511 4.963V0m0 .207c-.506 2.05-2.262 6.163-5.236 6.224m5.236 2.124c-.582 1.922-2.747 5.646-6.754 5.16m6.754 3.946c-1.417 2.15-4.948 6.208-7.74 5.236m7.74-22.69c.506 2.05 2.261 6.163 5.236 6.224m-5.236 2.124c.582 1.922 2.747 5.646 6.754 5.16m-6.754 3.946c1.416 2.15 4.948 6.208 7.74 5.236M63.22 27.86V0m0 .207c-.507 2.05-2.262 6.163-5.237 6.224m5.236 2.124c-.582 1.922-2.747 5.646-6.754 5.16m6.754 3.946c-1.416 2.15-4.948 6.208-7.74 5.236M63.22.207c.505 2.05 2.26 6.163 5.235 6.224M63.22 8.555c.582 1.922 2.747 5.646 6.754 5.16m-6.754 3.946c1.417 2.15 4.948 6.208 7.74 5.236m10.51 4.963V0m0 .207c-.505 2.05-2.261 6.163-5.236 6.224m5.236 2.124c-.581 1.922-2.747 5.646-6.754 5.16m6.754 3.946c-1.416 2.15-4.947 6.208-7.74 5.236M81.47.207c.507 2.05 2.262 6.163 5.237 6.224M81.47 8.555c.581 1.922 2.747 5.646 6.754 5.16m-6.754 3.946c1.416 2.15 4.947 6.208 7.74 5.236m10.512 4.963V0m0 .207c-.506 2.05-2.261 6.163-5.236 6.224m5.236 2.124c-.582 1.922-2.747 5.646-6.754 5.16m6.754 3.946c-1.417 2.15-4.948 6.208-7.74 5.236m7.74-22.69c.506 2.05 2.261 6.163 5.236 6.224m-5.236 2.124c.582 1.922 2.747 5.646 6.754 5.16m-6.754 3.946c1.417 2.15 4.948 6.208 7.741 5.236m10.51 4.963V0m0 .207c-.506 2.05-2.261 6.163-5.236 6.224m5.236 2.124c-.582 1.922-2.747 5.646-6.754 5.16m6.754 3.946c-1.416 2.15-4.948 6.208-7.74 5.236m7.74-22.69c.506 2.05 2.262 6.163 5.237 6.224m-5.237 2.124c.582 1.922 2.748 5.646 6.754 5.16m-6.754 3.946c1.417 2.15 4.948 6.208 7.741 5.236m10.511 4.963V0m0 .207c-.506 2.05-2.262 6.163-5.237 6.224m5.237 2.124c-.582 1.922-2.748 5.646-6.754 5.16m6.754 3.946c-1.417 2.15-4.948 6.208-7.741 5.236m7.741-22.69c.506 2.05 2.261 6.163 5.236 6.224m-5.236 2.124c.582 1.922 2.747 5.646 6.754 5.16m-6.754 3.946c1.416 2.15 4.948 6.208 7.74 5.236m10.511 4.963V0m0 .207c-.506 2.05-2.261 6.163-5.236 6.224m5.236 2.124c-.582 1.922-2.747 5.646-6.754 5.16m6.754 3.946c-1.417 2.15-4.948 6.208-7.741 5.236m7.741-22.69c.506 2.05 2.262 6.163 5.236 6.224m-5.236 2.124c.582 1.922 2.747 5.646 6.754 5.16m-6.754 3.946c1.417 2.15 4.948 6.208 7.741 5.236m10.51 4.963V0m0 .207c-.506 2.05-2.261 6.163-5.236 6.224m5.236 2.124c-.582 1.922-2.747 5.646-6.754 5.16m6.754 3.946c-1.416 2.15-4.948 6.208-7.74 5.236m7.74-22.69c.506 2.05 2.262 6.163 5.237 6.224m-5.237 2.124c.582 1.922 2.748 5.646 6.754 5.16m-6.754 3.946c1.417 2.15 4.948 6.208 7.741 5.236m10.511 4.963V0m0 .207c-.506 2.05-2.262 6.163-5.237 6.224m5.237 2.124c-.582 1.922-2.748 5.646-6.754 5.16m6.754 3.946c-1.417 2.15-4.948 6.208-7.741 5.236m7.741-22.69c.506 2.05 2.261 6.163 5.236 6.224m-5.236 2.124c.582 1.922 2.747 5.646 6.754 5.16m-6.754 3.946c1.416 2.15 4.948 6.208 7.74 5.236M8.465 58.076v-27.86m0 .208c-.506 2.05-2.261 6.163-5.236 6.224m5.236 2.124c-.582 1.922-2.747 5.646-6.754 5.16m6.754 3.946c-1.417 2.15-4.948 6.208-7.74 5.236m7.74-22.69c.506 2.05 2.262 6.163 5.236 6.224m-5.236 2.124c.582 1.922 2.747 5.646 6.754 5.16m-6.754 3.946c1.417 2.15 4.948 6.208 7.74 5.236m10.512 4.962v-27.86m-.001.208c-.506 2.05-2.261 6.163-5.236 6.224m5.236 2.124c-.581 1.922-2.747 5.646-6.754 5.16m6.754 3.946c-1.416 2.15-4.947 6.208-7.74 5.236m7.741-22.69c.506 2.05 2.261 6.163 5.236 6.224m-5.236 2.124c.581 1.922 2.747 5.646 6.754 5.16m-6.754 3.946c1.416 2.15 4.947 6.208 7.74 5.236m10.511 4.962v-27.86m0 .208c-.506 2.05-2.262 6.163-5.236 6.224m5.236 2.124c-.582 1.922-2.747 5.646-6.754 5.16m6.754 3.946c-1.417 2.15-4.948 6.208-7.74 5.236m7.74-22.69c.506 2.05 2.261 6.163 5.236 6.224m-5.236 2.124c.582 1.922 2.747 5.646 6.754 5.16m-6.754 3.946c1.416 2.15 4.948 6.208 7.74 5.236m10.511 4.962v-27.86m.001.208c-.507 2.05-2.262 6.163-5.237 6.224m5.236 2.124c-.582 1.922-2.747 5.646-6.754 5.16m6.754 3.946c-1.416 2.15-4.948 6.208-7.74 5.236" stroke="#64816C" stroke-opacity=".5" stroke-width=".554"/><path d="M63.219 30.424c.506 2.05 2.261 6.163 5.236 6.224m-5.236 2.124c.582 1.922 2.747 5.646 6.754 5.16m-6.754 3.946c1.416 2.15 4.948 6.208 7.74 5.236m10.511 4.962v-27.86m0 .208c-.506 2.05-2.261 6.163-5.236 6.224m5.236 2.124c-.582 1.922-2.747 5.646-6.754 5.16m6.754 3.946c-1.416 2.15-4.948 6.208-7.74 5.236m7.74-22.69c.506 2.05 2.261 6.163 5.236 6.224m-5.236 2.124c.582 1.922 2.747 5.646 6.754 5.16m-6.754 3.946c1.416 2.15 4.948 6.208 7.74 5.236m10.51 4.962v-27.86m0 .208c-.505 2.05-2.26 6.163-5.236 6.224m5.237 2.124c-.582 1.922-2.747 5.646-6.754 5.16m6.754 3.946c-1.417 2.15-4.948 6.208-7.74 5.236m7.739-22.69c.507 2.05 2.262 6.163 5.237 6.224m-5.236 2.124c.582 1.922 2.747 5.646 6.754 5.16m-6.754 3.946c1.416 2.15 4.948 6.208 7.74 5.236m10.511 4.962v-27.86m0 .208c-.506 2.05-2.261 6.163-5.236 6.224m5.236 2.124c-.582 1.922-2.747 5.646-6.754 5.16m6.754 3.946c-1.416 2.15-4.948 6.208-7.74 5.236m7.74-22.69c.506 2.05 2.262 6.163 5.237 6.224m-5.237 2.124c.582 1.922 2.748 5.646 6.754 5.16m-6.754 3.946c1.417 2.15 4.948 6.208 7.741 5.236m10.51 4.962v-27.86m.001.208c-.506 2.05-2.262 6.163-5.236 6.224m5.236 2.124c-.582 1.922-2.747 5.646-6.754 5.16m6.754 3.946c-1.417 2.15-4.948 6.208-7.741 5.236" stroke="#64816C" stroke-opacity=".5" stroke-width=".554"/><path d="M136.223 30.424c.506 2.05 2.262 6.163 5.236 6.224m-5.236 2.124c.582 1.922 2.747 5.646 6.754 5.16m-6.754 3.946c1.417 2.15 4.948 6.208 7.741 5.236m10.51 4.962v-27.86m0 .208c-.506 2.05-2.261 6.163-5.236 6.224m5.236 2.124c-.581 1.922-2.747 5.646-6.754 5.16m6.754 3.946c-1.416 2.15-4.948 6.208-7.74 5.236m7.74-22.69c.506 2.05 2.261 6.163 5.236 6.224m-5.236 2.124c.582 1.922 2.747 5.646 6.754 5.16m-6.754 3.946c1.416 2.15 4.948 6.208 7.74 5.236m10.511 4.962v-27.86m0 .208c-.506 2.05-2.261 6.163-5.236 6.224m5.236 2.124c-.582 1.922-2.747 5.646-6.754 5.16m6.754 3.946c-1.416 2.15-4.948 6.208-7.74 5.236m7.741-22.69c.505 2.05 2.261 6.163 5.236 6.224m-5.236 2.124c.581 1.922 2.747 5.646 6.753 5.16m-6.753 3.946c1.416 2.15 4.947 6.208 7.74 5.236m10.51 4.962v-27.86m0 .208c-.506 2.05-2.261 6.163-5.236 6.224m5.236 2.124c-.582 1.922-2.747 5.646-6.754 5.16m6.754 3.946c-1.416 2.15-4.948 6.208-7.74 5.236m7.741-22.69c.505 2.05 2.261 6.163 5.236 6.224m-5.236 2.124c.581 1.922 2.747 5.646 6.753 5.16m-6.753 3.946c1.416 2.15 4.947 6.208 7.74 5.236M8.465 88.291v-27.86m0 .208c-.506 2.05-2.261 6.163-5.236 6.223m5.236 2.125c-.582 1.922-2.747 5.645-6.754 5.16m6.754 3.946c-1.417 2.15-4.948 6.207-7.74 5.236m7.74-22.69c.506 2.05 2.262 6.163 5.236 6.223m-5.236 2.125c.582 1.922 2.747 5.645 6.754 5.16m-6.754 3.946c1.417 2.15 4.948 6.207 7.74 5.236m10.512 4.962v-27.86m-.001.208c-.506 2.05-2.261 6.163-5.236 6.223m5.236 2.125c-.581 1.922-2.747 5.645-6.754 5.16m6.754 3.946c-1.416 2.15-4.947 6.207-7.74 5.236m7.741-22.69c.506 2.05 2.261 6.163 5.236 6.223m-5.236 2.125c.581 1.922 2.747 5.645 6.754 5.16m-6.754 3.946c1.416 2.15 4.947 6.207 7.74 5.236m10.511 4.962v-27.86m0 .208c-.506 2.05-2.262 6.163-5.236 6.223m5.236 2.125c-.582 1.922-2.747 5.645-6.754 5.16m6.754 3.946c-1.417 2.15-4.948 6.207-7.74 5.236m7.74-22.69c.506 2.05 2.261 6.163 5.236 6.223m-5.236 2.125c.582 1.922 2.747 5.645 6.754 5.16m-6.754 3.946c1.416 2.15 4.948 6.207 7.74 5.236m10.511 4.962v-27.86m.001.208c-.507 2.05-2.262 6.163-5.237 6.223m5.236 2.125c-.582 1.922-2.747 5.645-6.754 5.16m6.754 3.946c-1.416 2.15-4.948 6.207-7.74 5.236" stroke="#64816C" stroke-opacity=".5" stroke-width=".554"/><path d="M63.219 60.639c.506 2.05 2.261 6.163 5.236 6.223m-5.236 2.125c.582 1.922 2.747 5.645 6.754 5.16m-6.754 3.946c1.416 2.15 4.948 6.207 7.74 5.236m10.511 4.962v-27.86m0 .208c-.506 2.05-2.261 6.163-5.236 6.223m5.236 2.125c-.582 1.922-2.747 5.645-6.754 5.16m6.754 3.946c-1.416 2.15-4.948 6.207-7.74 5.236m7.74-22.69c.506 2.05 2.261 6.163 5.236 6.223m-5.236 2.125c.582 1.922 2.747 5.645 6.754 5.16m-6.754 3.946c1.416 2.15 4.948 6.207 7.74 5.236m10.51 4.962v-27.86m0 .208c-.505 2.05-2.26 6.163-5.236 6.223m5.237 2.125c-.582 1.922-2.747 5.645-6.754 5.16m6.754 3.946c-1.417 2.15-4.948 6.207-7.74 5.236m7.739-22.69c.507 2.05 2.262 6.163 5.237 6.223m-5.236 2.125c.582 1.922 2.747 5.645 6.754 5.16m-6.754 3.946c1.416 2.15 4.948 6.207 7.74 5.236m10.511 4.962v-27.86m0 .208c-.506 2.05-2.261 6.163-5.236 6.223m5.236 2.125c-.582 1.922-2.747 5.645-6.754 5.16m6.754 3.946c-1.416 2.15-4.948 6.207-7.74 5.236m7.74-22.69c.506 2.05 2.262 6.163 5.237 6.223m-5.237 2.125c.582 1.922 2.748 5.645 6.754 5.16m-6.754 3.946c1.417 2.15 4.948 6.207 7.741 5.236m10.51 4.962v-27.86m.001.208c-.506 2.05-2.262 6.163-5.236 6.223m5.236 2.125c-.582 1.922-2.747 5.645-6.754 5.16m6.754 3.946c-1.417 2.15-4.948 6.207-7.741 5.236" stroke="#64816C" stroke-opacity=".5" stroke-width=".554"/><path d="M136.223 60.639c.506 2.05 2.262 6.163 5.236 6.223m-5.236 2.125c.582 1.922 2.747 5.645 6.754 5.16m-6.754 3.946c1.417 2.15 4.948 6.207 7.741 5.236m10.51 4.962v-27.86m0 .208c-.506 2.05-2.261 6.163-5.236 6.223m5.236 2.125c-.581 1.922-2.747 5.645-6.754 5.16m6.754 3.946c-1.416 2.15-4.948 6.207-7.74 5.236m7.74-22.69c.506 2.05 2.261 6.163 5.236 6.223m-5.236 2.125c.582 1.922 2.747 5.645 6.754 5.16m-6.754 3.946c1.416 2.15 4.948 6.207 7.74 5.236m10.511 4.962v-27.86m0 .208c-.506 2.05-2.261 6.163-5.236 6.223m5.236 2.125c-.582 1.922-2.747 5.645-6.754 5.16m6.754 3.946c-1.416 2.15-4.948 6.207-7.74 5.236m7.741-22.69c.505 2.05 2.261 6.163 5.236 6.223m-5.236 2.125c.581 1.922 2.747 5.645 6.753 5.16m-6.753 3.946c1.416 2.15 4.947 6.207 7.74 5.236m10.51 4.962v-27.86m0 .208c-.506 2.05-2.261 6.163-5.236 6.223m5.236 2.125c-.582 1.922-2.747 5.645-6.754 5.16m6.754 3.946c-1.416 2.15-4.948 6.207-7.74 5.236m7.741-22.69c.505 2.05 2.261 6.163 5.236 6.223m-5.236 2.125c.581 1.922 2.747 5.645 6.753 5.16m-6.753 3.946c1.416 2.15 4.947 6.207 7.74 5.236M8.465 118.508v-27.86m0 .208c-.506 2.049-2.261 6.163-5.236 6.223m5.236 2.124c-.582 1.923-2.747 5.646-6.754 5.161m6.754 3.946c-1.417 2.15-4.948 6.207-7.74 5.236m7.74-22.69c.506 2.049 2.262 6.163 5.236 6.223m-5.236 2.124c.582 1.923 2.747 5.646 6.754 5.161m-6.754 3.946c1.417 2.15 4.948 6.207 7.74 5.236m10.512 4.962v-27.86m-.001.208c-.506 2.049-2.261 6.163-5.236 6.223m5.236 2.124c-.581 1.923-2.747 5.646-6.754 5.161m6.754 3.946c-1.416 2.15-4.947 6.207-7.74 5.236m7.741-22.69c.506 2.049 2.261 6.163 5.236 6.223m-5.236 2.124c.581 1.923 2.747 5.646 6.754 5.161m-6.754 3.946c1.416 2.15 4.947 6.207 7.74 5.236m10.511 4.962v-27.86m0 .208c-.506 2.049-2.262 6.163-5.236 6.223m5.236 2.124c-.582 1.923-2.747 5.646-6.754 5.161m6.754 3.946c-1.417 2.15-4.948 6.207-7.74 5.236m7.74-22.69c.506 2.049 2.261 6.163 5.236 6.223m-5.236 2.124c.582 1.923 2.747 5.646 6.754 5.161m-6.754 3.946c1.416 2.15 4.948 6.207 7.74 5.236m10.511 4.962v-27.86m.001.208c-.507 2.049-2.262 6.163-5.237 6.223m5.236 2.124c-.582 1.923-2.747 5.646-6.754 5.161m6.754 3.946c-1.416 2.15-4.948 6.207-7.74 5.236" stroke="#64816C" stroke-opacity=".5" stroke-width=".554"/><path d="M63.219 90.856c.506 2.049 2.261 6.163 5.236 6.223m-5.236 2.124c.582 1.923 2.747 5.646 6.754 5.161m-6.754 3.946c1.416 2.15 4.948 6.207 7.74 5.236m10.511 4.962v-27.86m0 .208c-.506 2.049-2.261 6.163-5.236 6.223m5.236 2.124c-.582 1.923-2.747 5.646-6.754 5.161m6.754 3.946c-1.416 2.15-4.948 6.207-7.74 5.236m7.74-22.69c.506 2.049 2.261 6.163 5.236 6.223m-5.236 2.124c.582 1.923 2.747 5.646 6.754 5.161m-6.754 3.946c1.416 2.15 4.948 6.207 7.74 5.236m10.51 4.962v-27.86m0 .208c-.505 2.049-2.26 6.163-5.236 6.223m5.237 2.124c-.582 1.923-2.747 5.646-6.754 5.161m6.754 3.946c-1.417 2.15-4.948 6.207-7.74 5.236m7.739-22.69c.507 2.049 2.262 6.163 5.237 6.223m-5.236 2.124c.582 1.923 2.747 5.646 6.754 5.161m-6.754 3.946c1.416 2.15 4.948 6.207 7.74 5.236m10.511 4.962v-27.86m0 .208c-.506 2.049-2.261 6.163-5.236 6.223m5.236 2.124c-.582 1.923-2.747 5.646-6.754 5.161m6.754 3.946c-1.416 2.15-4.948 6.207-7.74 5.236m7.74-22.69c.506 2.049 2.262 6.163 5.237 6.223m-5.237 2.124c.582 1.923 2.748 5.646 6.754 5.161m-6.754 3.946c1.417 2.15 4.948 6.207 7.741 5.236m10.51 4.962v-27.86m.001.208c-.506 2.049-2.262 6.163-5.236 6.223m5.236 2.124c-.582 1.923-2.747 5.646-6.754 5.161m6.754 3.946c-1.417 2.15-4.948 6.207-7.741 5.236" stroke="#64816C" stroke-opacity=".5" stroke-width=".554"/><path d="M136.223 90.856c.506 2.049 2.262 6.163 5.236 6.223m-5.236 2.124c.582 1.923 2.747 5.646 6.754 5.161m-6.754 3.946c1.417 2.15 4.948 6.207 7.741 5.236m10.51 4.962v-27.86m0 .208c-.506 2.049-2.261 6.163-5.236 6.223m5.236 2.124c-.581 1.923-2.747 5.646-6.754 5.161m6.754 3.946c-1.416 2.15-4.948 6.207-7.74 5.236m7.74-22.69c.506 2.049 2.261 6.163 5.236 6.223m-5.236 2.124c.582 1.923 2.747 5.646 6.754 5.161m-6.754 3.946c1.416 2.15 4.948 6.207 7.74 5.236m10.511 4.962v-27.86m0 .208c-.506 2.049-2.261 6.163-5.236 6.223m5.236 2.124c-.582 1.923-2.747 5.646-6.754 5.161m6.754 3.946c-1.416 2.15-4.948 6.207-7.74 5.236m7.741-22.69c.505 2.049 2.261 6.163 5.236 6.223m-5.236 2.124c.581 1.923 2.747 5.646 6.753 5.161m-6.753 3.946c1.416 2.15 4.947 6.207 7.74 5.236m10.51 4.962v-27.86m0 .208c-.506 2.049-2.261 6.163-5.236 6.223m5.236 2.124c-.582 1.923-2.747 5.646-6.754 5.161m6.754 3.946c-1.416 2.15-4.948 6.207-7.74 5.236m7.741-22.69c.505 2.049 2.261 6.163 5.236 6.223m-5.236 2.124c.581 1.923 2.747 5.646 6.753 5.161m-6.753 3.946c1.416 2.15 4.947 6.207 7.74 5.236" stroke="#64816C" stroke-opacity=".5" stroke-width=".554"/><path fill-rule="evenodd" clip-rule="evenodd" d="M161.589 36.856c9.007.164 19.974-1.99 25.582 3.829 5.529 5.736.388 13.959-1.541 21.113-1.358 5.033-10.551 6.654-14.407 10.71-4.643 4.884-2.298 13.204-9.634 14.575-8.869 1.658-19.636 1.526-25.792-3.998-6.077-5.452-2.227-13.88-2.388-21.287-.167-7.657 6.932-6.852 13.26-12.453 6.372-5.64 5.579-12.66 14.92-12.49zM184.694.358c6.926.096 15.358-1.164 19.67 2.24 4.251 3.355.299 8.165-1.185 12.35-1.043 2.944-8.112 3.892-11.077 6.265-3.571 2.856-1.767 7.723-7.408 8.525-6.819.97-15.098.893-19.832-2.338-4.672-3.19-1.712-8.12-1.836-12.452-.128-4.479 5.33-4.008 10.196-7.284 4.899-3.3 4.29-7.406 11.472-7.306z" fill="#fff" fill-opacity=".5"/></g></svg>