<svg width="149" height="150" fill="none" xmlns="http://www.w3.org/2000/svg"><path d="M141.782 71.085l5.542 3.56-5.542 3.423m1.445-3.318h-.473m-3.178 17.51l4.184 5.114-6.317 1.528m2.389-2.705l-.449-.148m-8.408 15.657l2.41 6.173-6.475-.526m3.102-1.823l-.382-.281m-12.758 12.239l.435 6.621-6.009-2.493m3.503-.783l-.279-.385m-15.932 7.708l-1.616 6.432-4.95-4.251m3.574.355l-.148-.453m-17.749 2.33l-3.544 5.587-3.366-5.614m3.279 1.474l.002-.477m-17.322-3.285l-5.077 4.209-1.488-6.389m2.667 2.424l.147-.454m-15.449-8.556l-6.118 2.413.545-6.541m1.793 3.142l.279-.384M21.95 117.143l-6.555.392 2.511-6.054m.746 3.544l.383-.279M11.493 98.66L5.14 96.98l4.244-4.97m-.376 3.61l.45-.145m-2.24-17.949l-5.515-3.602 5.569-3.38M5.8 73.85l.473.004m3.302-17.443l-4.146-5.146 6.329-1.479m-2.41 2.686l.448.15m8.498-15.564l-2.365-6.19 6.47.574m-3.114 1.802l.38.283M32.56 21.32l-.364-6.625 5.981 2.56M34.668 18l.275.388m15.955-7.583l1.687-6.413L57.486 8.7m-3.568-.394l.142.455M71.854 6.56l3.586-5.559 3.324 5.64m-3.268-1.5l-.005.477M92.69 9.01l5.11-4.17 1.44 6.4m-2.65-2.443l-.151.453m15.377 8.641l6.135-2.367-.592 6.536m-1.769-3.149l-.282.383m12.057 13.081l6.559-.343-2.555 6.035m-.724-3.555l-.385.276m7.449 16.167l6.34 1.73-4.281 4.936m.4-3.605l-.451.142" stroke="#3C4839" stroke-width=".93"/></svg>