<svg width="139" height="74" fill="none" xmlns="http://www.w3.org/2000/svg"><path d="M1 8.39L12.043.899a2.18 2.18 0 012.577.095l9.344 7.398M13.366 5.674v1.283M23.965 8.39L35.007.899a2.18 2.18 0 012.577.095l9.345 7.398M36.33 5.674v1.283M46.929 8.39L57.97.899a2.18 2.18 0 012.577.095l9.345 7.398M59.295 5.674v1.283M69.893 8.39L80.936.899a2.18 2.18 0 012.577.095l9.345 7.398M82.259 5.674v1.283M92.858 8.39L103.9.899a2.18 2.18 0 012.577.095l9.345 7.398m-10.598-2.717v1.283m10.598 1.432L126.865.899a2.18 2.18 0 012.577.095l9.345 7.398m-10.599-2.717v1.283M1 19.116l11.043-7.493a2.18 2.18 0 012.577.094l9.344 7.399m-10.598-2.717v1.283m10.599 1.434l11.042-7.493a2.18 2.18 0 012.577.094l9.345 7.399M36.33 16.399v1.283m10.599 1.434l11.042-7.493a2.18 2.18 0 012.577.094l9.345 7.399m-10.598-2.717v1.283m10.598 1.434l11.043-7.493a2.18 2.18 0 012.577.094l9.345 7.399m-10.599-2.717v1.283m10.599 1.434l11.042-7.493a2.18 2.18 0 012.577.094l9.345 7.399m-10.598-2.717v1.283m10.598 1.434l11.043-7.493a2.18 2.18 0 012.577.094l9.345 7.399m-10.599-2.717v1.283M1 29.84l11.043-7.493a2.18 2.18 0 012.577.095l9.344 7.398m-10.598-2.716v1.282m10.599 1.434l11.042-7.493a2.18 2.18 0 012.577.095l9.345 7.398M36.33 27.124v1.282m10.599 1.434l11.042-7.493a2.18 2.18 0 012.577.095l9.345 7.398m-10.598-2.716v1.282m10.598 1.434l11.043-7.493a2.18 2.18 0 012.577.095l9.345 7.398m-10.599-2.716v1.282m10.599 1.434l11.042-7.493a2.18 2.18 0 012.577.095l9.345 7.398m-10.598-2.716v1.282m10.598 1.434l11.043-7.493a2.18 2.18 0 012.577.095l9.345 7.398m-10.599-2.716v1.282M1 40.565l11.043-7.493a2.18 2.18 0 012.577.094l9.344 7.399m-10.598-2.717v1.283m10.599 1.434l11.042-7.493a2.18 2.18 0 012.577.094l9.345 7.399M36.33 37.848v1.283m10.599 1.434l11.042-7.493a2.18 2.18 0 012.577.094l9.345 7.399m-10.598-2.717v1.283m10.598 1.434l11.043-7.493a2.18 2.18 0 012.577.094l9.345 7.399m-10.599-2.717v1.283m10.599 1.434l11.042-7.493a2.18 2.18 0 012.577.094l9.345 7.399m-10.598-2.717v1.283m10.598 1.434l11.043-7.493a2.18 2.18 0 012.577.094l9.345 7.399m-10.599-2.717v1.283M1 51.29l11.043-7.494a2.18 2.18 0 012.577.095l9.344 7.398m-10.598-2.716v1.282m10.599 1.435l11.042-7.494a2.18 2.18 0 012.577.095l9.345 7.398M36.33 48.573v1.282m10.599 1.435l11.042-7.494a2.18 2.18 0 012.577.095l9.345 7.398m-10.598-2.716v1.282m10.598 1.435l11.043-7.494a2.18 2.18 0 012.577.095l9.345 7.398m-10.599-2.716v1.282m10.599 1.435l11.042-7.494a2.18 2.18 0 012.577.095l9.345 7.398m-10.598-2.716v1.282m10.598 1.435l11.043-7.494a2.18 2.18 0 012.577.095l9.345 7.398m-10.599-2.716v1.282M1 62.014l11.043-7.493a2.18 2.18 0 012.577.095l9.344 7.398m-10.598-2.717v1.283m10.599 1.434l11.042-7.493a2.18 2.18 0 012.577.095l9.345 7.398M36.33 59.297v1.283m10.599 1.434L57.97 54.52a2.18 2.18 0 012.577.095l9.345 7.398m-10.598-2.717v1.283m10.599 1.435l11.043-7.493a2.18 2.18 0 012.577.095l9.345 7.398m-10.599-2.717v1.283m10.599 1.434L103.9 54.52a2.18 2.18 0 012.577.095l9.345 7.398m-10.598-2.717v1.283m10.598 1.435l11.043-7.493a2.18 2.18 0 012.577.095l9.345 7.398m-10.599-2.717v1.283M1 72.739l11.043-7.493a2.18 2.18 0 012.577.094l9.344 7.398m-10.598-2.716v1.283m10.599 1.434l11.042-7.493a2.18 2.18 0 012.577.094l9.345 7.398M36.33 70.023v1.283m10.599 1.433l11.042-7.493a2.18 2.18 0 012.577.094l9.345 7.398m-10.598-2.716v1.283m10.598 1.434l11.043-7.493a2.18 2.18 0 012.577.094l9.345 7.398m-10.599-2.716v1.283m10.599 1.434l11.042-7.493a2.18 2.18 0 012.577.094l9.345 7.398m-10.598-2.716v1.283m10.598 1.434l11.043-7.493a2.18 2.18 0 012.577.094l9.345 7.398m-10.599-2.716v1.283" stroke="#99B7A2" stroke-opacity=".5" stroke-width=".715"/></svg>