<svg width="152" height="156" fill="none" xmlns="http://www.w3.org/2000/svg"><mask id="a" maskUnits="userSpaceOnUse" x="0" y="0" width="152" height="156" fill="#000"><path fill="#fff" d="M0 0h152v156H0z"/><path d="M139.295 30.364c-4.283-.705-8.516-1.23-12.756-1.447-4.237-.2-8.469-.153-12.671.254-4.207.357-8.378 1.07-12.51 2.027-4.132.975-8.202 2.249-12.291 3.708 3.573-2.476 7.556-4.365 11.704-5.76 4.148-1.413 8.481-2.278 12.851-2.697 4.375-.368 8.792-.295 13.126.353 4.33.629 8.587 1.77 12.547 3.562zm-13.787 9.481c-4.37-.14-8.673-.173-12.954.042-4.277.233-8.529.652-12.733 1.376-4.212.674-8.371 1.649-12.495 2.809-4.121 1.178-8.183 2.596-12.277 4.134 3.56-2.545 7.496-4.565 11.595-6.157 4.098-1.61 8.383-2.738 12.729-3.482 4.354-.694 8.775-1.01 13.172-.805 4.395.185 8.77.826 12.963 2.083zm-16.674 10.139c-3.645.576-7.222 1.134-10.761 1.836-3.533.718-7.034 1.516-10.481 2.516-3.46.95-6.862 2.099-10.25 3.332-3.384 1.25-6.726 2.64-10.137 4.05 2.822-2.384 5.977-4.353 9.287-6.008 3.306-1.672 6.795-2.976 10.358-4.005 3.577-.98 7.233-1.69 10.926-1.99 3.687-.317 7.406-.287 11.058.269zM97.526 59.58c-3.258 1.116-6.458 2.178-9.606 3.352-3.14 1.19-6.243 2.429-9.272 3.838-3.05 1.363-6.022 2.889-8.981 4.477-2.952 1.605-5.854 3.32-8.837 5.042 2.26-2.603 4.89-4.862 7.708-6.853 2.81-2.008 5.84-3.7 8.977-5.153 3.157-1.408 6.423-2.583 9.782-3.383 3.352-.817 6.782-1.32 10.229-1.32zM84.639 73.314c-3.51 1.99-6.985 3.916-10.393 5.94-3.397 2.04-6.754 4.12-10.01 6.352-3.283 2.19-6.465 4.527-9.624 6.919-3.15 2.406-6.234 4.91-9.393 7.422 2.334-3.295 5.065-6.29 8.013-9.05 2.939-2.775 6.136-5.271 9.475-7.555 3.367-2.242 6.876-4.277 10.548-5.967 3.66-1.705 7.457-3.123 11.384-4.061zM67.093 92.085c-3.83 2.703-7.577 5.416-11.187 8.288-3.597 2.885-7.091 5.876-10.4 9.065-3.343 3.153-6.5 6.498-9.555 9.952-3.043 3.467-5.935 7.078-8.823 10.77 1.914-4.283 4.37-8.318 7.159-12.107 2.777-3.803 5.936-7.324 9.333-10.593 3.432-3.232 7.102-6.217 11.035-8.806 3.92-2.602 8.069-4.862 12.438-6.57zM51.93 115.963c-1.873 2.529-3.833 4.916-5.781 7.302-1.934 2.397-3.901 4.748-5.811 7.147l-5.792 7.162c-1.933 2.398-3.865 4.807-5.957 7.16 1.119-2.944 2.58-5.721 4.212-8.388 1.62-2.678 3.463-5.212 5.414-7.655 1.992-2.412 4.09-4.737 6.378-6.873 2.273-2.148 4.689-4.151 7.337-5.855zm6.024-8.047c1.132 3.421 1.755 6.997 2.028 10.597.29 3.603.17 7.236-.231 10.833-.452 3.591-1.187 7.151-2.316 10.585-1.111 3.435-2.557 6.765-4.465 9.823.856-3.497 1.7-6.922 2.4-10.367.683-3.446 1.277-6.892 1.667-10.365.44-3.467.672-6.957.819-10.467.13-3.512.11-7.039.098-10.639zM74.488 89.08c.67 3.715.798 7.512.62 11.279-.16 3.774-.686 7.517-1.374 11.215-.74 3.69-1.642 7.336-2.762 10.914-1.103 3.582-2.363 7.109-3.886 10.56.424-3.749 1.107-7.425 1.816-11.078l2.149-10.915c.729-3.625 1.357-7.259 1.943-10.908.568-3.654 1.032-7.324 1.494-11.067zm10.964-15.112c1.148 3.728 1.806 7.592 2.135 11.482.347 3.892.3 7.816-.006 11.715-.358 3.895-.982 7.769-1.986 11.546-.986 3.777-2.294 7.473-4.065 10.95.69-3.837 1.397-7.604 1.975-11.382.56-3.779 1.05-7.554 1.353-11.347.352-3.79.512-7.592.604-11.411.075-3.823.019-7.655-.01-11.553zM99.036 62.53c-.044 2.807-.264 5.544-.496 8.27l-.743 8.147c-.29 2.707-.533 5.418-.853 8.135-.303 2.719-.621 5.446-1.128 8.207-.632-2.737-.91-5.512-1.005-8.288-.113-2.778.017-5.556.265-8.322.299-2.761.712-5.511 1.364-8.214.636-2.704 1.447-5.372 2.596-7.934zm5.377-4.13c.725 3.322 1.468 6.557 2.38 9.732.929 3.167 1.967 6.284 3.227 9.313 1.213 3.048 2.644 6.005 4.188 8.92 1.561 2.912 3.284 5.748 5.079 8.637-2.652-2.137-4.934-4.716-6.896-7.515-1.979-2.794-3.591-5.844-4.904-9.013-1.266-3.187-2.24-6.497-2.77-9.88-.545-3.374-.71-6.813-.304-10.194zm10.033-8.315c-.738 1.772-.367 3.413-.104 5.153.329 1.77.6 3.536.886 5.296.278 1.762.558 3.523.799 5.313.251 1.789.506 3.589.59 5.502-1.155-1.526-2.001-3.215-2.656-4.968-.678-1.748-1.139-3.571-1.433-5.42a26.896 26.896 0 01-.308-5.6c.037-.951.17-1.944.486-2.904.332-.945.895-1.88 1.74-2.372z"/><path d="M123.563 39.244c.618 2.848 1.176 5.624 1.835 8.365.675 2.734 1.389 5.44 2.262 8.097.825 2.672 1.806 5.293 2.834 7.914 1.046 2.617 2.193 5.205 3.33 7.889-2.082-2.046-3.802-4.427-5.251-6.96-1.466-2.527-2.609-5.235-3.518-8.015-.861-2.796-1.492-5.666-1.755-8.577-.279-2.903-.251-5.84.263-8.713zm11.758-7.212c.918 2.026 1.603 4.075 2.23 6.13.643 2.053 1.187 4.119 1.692 6.194a97.637 97.637 0 011.319 6.283c.379 2.116.701 4.252.804 6.475-1.189-1.882-2.089-3.873-2.86-5.904a48.84 48.84 0 01-1.92-6.213c-.503-2.108-.896-4.243-1.117-6.407-.238-2.16-.345-4.341-.148-6.558zM66.835 99.755c1.06 3.537 1.515 7.245 1.598 10.943.102 3.704-.225 7.402-.752 11.051a89.478 89.478 0 01-2.374 10.765c-1 3.529-2.173 6.998-3.613 10.393.337-3.674.93-7.278 1.53-10.862.585-3.587 1.237-7.142 1.754-10.707.568-3.558.998-7.123 1.329-10.707.315-3.588.466-7.19.528-10.876zm-15.687 20.603c.307 2.323.223 4.652-.07 6.948-.277 2.302-.806 4.569-1.517 6.774-.717 2.203-1.623 4.348-2.75 6.374-1.112 2.031-2.415 3.964-4.031 5.661.624-2.257 1.36-4.391 2.077-6.52l2.104-6.36 2.04-6.381c.67-2.143 1.329-4.303 2.147-6.496zm2.949-8.278c-2.018 1.426-4.053 2.686-6.072 3.953l-6.01 3.803-5.986 3.84c-2.001 1.294-4.005 2.604-6.153 3.826 1.373-2.057 3.042-3.865 4.848-5.514 1.797-1.663 3.759-3.142 5.823-4.458 2.067-1.31 4.237-2.462 6.504-3.386 2.259-.938 4.602-1.687 7.046-2.064z"/><path d="M53.617 115.004c.368 3.491.319 7 .03 10.486-.272 3.49-.85 6.951-1.597 10.37-.798 3.409-1.771 6.779-3.031 10.046-1.243 3.269-2.714 6.456-4.556 9.445.788-3.419 1.677-6.752 2.52-10.088.828-3.339 1.667-6.661 2.4-10.007.786-3.335 1.462-6.694 2.158-10.063.68-3.373 1.315-6.764 2.076-10.189zm-2.399 5.745c-1.791 2.469-3.461 4.906-5.002 7.42a120.92 120.92 0 00-4.306 7.71c-1.382 2.607-2.66 5.282-4.016 7.944-1.341 2.669-2.704 5.352-4.316 7.945.55-3.002 1.363-5.912 2.349-8.773a62.823 62.823 0 013.558-8.377c1.43-2.691 3.046-5.311 4.998-7.681 1.933-2.375 4.16-4.539 6.735-6.188zm10.598-15.093c.686 2.923.996 5.897 1.104 8.875.125 2.979-.017 5.962-.296 8.929-.33 2.962-.8 5.91-1.531 8.801-.713 2.892-1.626 5.74-2.898 8.461.167-2.997.486-5.918.797-8.832.293-2.915.638-5.809.914-8.712.327-2.897.58-5.801.89-8.714.29-2.915.574-5.84 1.02-8.808zm-.201-4.43c-2.622.335-5.207.426-7.758.549-2.551.139-5.071.245-7.554.54-2.485.245-4.936.68-7.363 1.269a47.363 47.363 0 00-7.228 2.466c1.766-1.978 4.083-3.45 6.546-4.488 2.467-1.061 5.107-1.655 7.752-1.964a37.492 37.492 0 017.913.052c2.608.282 5.172.784 7.692 1.576zM76.05 84.36c-2.37.16-4.324 1.095-6.375 2.04-2.054.99-4.127 1.93-6.2 2.858a239.442 239.442 0 01-6.264 2.72c-2.11.884-4.234 1.762-6.494 2.479 1.664-1.688 3.534-3.106 5.497-4.366 1.953-1.28 4.02-2.373 6.146-3.33 2.133-.943 4.32-1.754 6.584-2.358 1.135-.318 2.33-.555 3.549-.628 1.216-.046 2.474.074 3.557.585zm10.267-13.582c-2.974.923-5.887 1.78-8.756 2.738-2.861.973-5.691 1.984-8.458 3.153-2.786 1.122-5.507 2.397-8.224 3.72-2.711 1.342-5.383 2.783-8.147 4.219 2.066-2.336 4.486-4.331 7.076-6.064 2.585-1.751 5.373-3.191 8.254-4.402 2.899-1.165 5.893-2.106 8.96-2.683 3.062-.592 6.184-.881 9.295-.681zm-6.15 11.378c.913 3.154 1.4 6.405 1.632 9.669.249 3.267.176 6.553-.088 9.819-.315 3.262-.824 6.509-1.646 9.681-.804 3.173-1.861 6.285-3.32 9.227.366-3.261.825-6.443 1.223-9.624.38-3.182.76-6.348 1.02-9.527.31-3.174.496-6.358.685-9.557.172-3.2.28-6.414.494-9.688zM91.67 68.354c1.05 2.56 1.699 5.25 2.106 7.972.424 2.723.542 5.486.482 8.24-.111 2.755-.405 5.504-1 8.195-.578 2.69-1.397 5.334-2.612 7.822.109-2.763.327-5.444.498-8.117.154-2.673.32-5.327.382-7.986.112-2.658.113-5.317.13-7.994 0-2.68-.05-5.368.014-8.132zm10.113-12.814c-3.102.393-6.16.63-9.207.88-3.046.268-6.081.484-9.111.779-3.034.244-6.06.56-9.106.83-3.044.289-6.096.589-9.22.742 2.865-1.261 5.852-2.157 8.88-2.848 3.029-.708 6.112-1.15 9.206-1.447 3.099-.246 6.21-.35 9.316-.182 3.104.15 6.202.509 9.242 1.246zm12.197-10.072c-3.064.435-6.069.768-9.057 1.164-2.984.414-5.951.827-8.898 1.368-2.956.49-5.888 1.103-8.836 1.722-2.946.636-5.887 1.337-8.92 1.959 2.605-1.678 5.426-2.97 8.332-4.011 2.904-1.06 5.913-1.81 8.955-2.363 3.05-.503 6.137-.813 9.228-.796 3.087-.001 6.178.26 9.196.957zm11.615-8.768c-3.995-.053-7.943-.36-11.871-.642-3.93-.265-7.835-.57-11.735-.678a115.632 115.632 0 00-11.673.113c-3.888.253-7.76.765-11.683 1.512 3.559-1.828 7.469-2.97 11.434-3.632 3.972-.683 8.012-.84 12.016-.725 4.005.166 7.982.597 11.901 1.3 3.923.686 7.793 1.58 11.611 2.752zm-4.676 5.409l-.245 8.418c-.027 2.77-.03 5.523.116 8.27.095 2.75.335 5.493.601 8.25l.965 8.367c-1.397-2.506-2.372-5.218-3.066-7.995-.711-2.778-1.083-5.637-1.23-8.503-.097-2.868.027-5.748.497-8.577.452-2.827 1.189-5.612 2.362-8.23zm8.218-6.122c.405 2.792.782 5.497 1.284 8.167.52 2.664 1.101 5.295 1.865 7.876.715 2.596 1.609 5.137 2.572 7.674.982 2.533 2.086 5.03 3.211 7.618-2.06-1.936-3.748-4.238-5.139-6.703-1.409-2.461-2.471-5.115-3.273-7.84-.753-2.74-1.25-5.553-1.349-8.388-.116-2.827.103-5.673.829-8.404zM108.013 52.43c.971 2.647 1.823 5.254 2.727 7.832.92 2.57 1.828 5.126 2.85 7.639.974 2.53 2.057 5.018 3.142 7.523 1.102 2.499 2.26 4.985 3.356 7.583-2.036-1.955-3.748-4.201-5.24-6.581-1.508-2.374-2.744-4.913-3.799-7.521-1.008-2.626-1.84-5.324-2.36-8.09-.537-2.756-.823-5.566-.676-8.384zm-6.928 8.34c.773 2.905 1.283 5.822 1.771 8.72.505 2.898.923 5.786 1.454 8.642a139.136 139.136 0 001.727 8.523c.676 2.825 1.475 5.62 2.352 8.493-1.887-2.345-3.301-5.048-4.388-7.855-1.107-2.807-1.839-5.741-2.382-8.687-.493-2.957-.804-5.93-.878-8.907-.092-2.975-.011-5.945.344-8.928zm39.452-27.555c1.075 2.2 1.96 4.407 2.829 6.609.885 2.196 1.714 4.395 2.549 6.593.829 2.2 1.658 4.399 2.445 6.633.802 2.227 1.594 4.469 2.237 6.832-1.643-1.818-2.991-3.838-4.177-5.942a45.666 45.666 0 01-3.063-6.558c-.847-2.261-1.545-4.58-2.028-6.948-.498-2.363-.822-4.77-.792-7.22zm.425-8.53c-1.75-.496-3.361-1.044-4.97-1.545-1.614-.484-3.2-.952-4.804-1.363a129.624 129.624 0 00-4.861-1.14c-1.65-.343-3.323-.65-5.094-1.07 1.679-.714 3.48-1.012 5.279-1.056 1.804-.061 3.614.167 5.363.619 1.747.458 3.44 1.138 4.986 2.069 1.55.914 2.98 2.048 4.101 3.486z"/><path d="M146.117 23.095c-3.343-.723-6.59-1.626-9.831-2.45-3.244-.805-6.467-1.593-9.721-2.14a71.768 71.768 0 00-9.81-1.097 65.065 65.065 0 00-10.007.409c3.086-1.492 6.517-2.27 9.96-2.542 3.453-.293 6.932-.038 10.333.539a54.258 54.258 0 019.891 2.807c3.188 1.227 6.262 2.7 9.185 4.474zm-13.748 9.581c-3.083-.356-6.083-.764-9.083-1.077-3-.296-5.986-.56-8.981-.67-2.992-.16-5.99-.166-9.004-.143-3.016.04-6.041.174-9.144.246 2.872-1.187 5.903-1.926 8.973-2.373 3.072-.465 6.192-.577 9.299-.46 3.105.169 6.201.564 9.218 1.305 3.017.723 5.969 1.733 8.722 3.172zm-18.536 11.076c-2.637.363-5.193.659-7.724 1.044-2.526.402-5.028.83-7.498 1.409-2.481.529-4.928 1.203-7.385 1.912-2.455.727-4.894 1.543-7.438 2.33 1.985-1.78 4.268-3.187 6.674-4.323 2.403-1.154 4.955-1.984 7.555-2.587 2.61-.554 5.273-.887 7.938-.862 2.66.008 5.324.31 7.878 1.077zm-12.457 11.864c-3.051.43-6.033.798-8.99 1.26-2.952.482-5.88.996-8.776 1.668-2.906.622-5.777 1.398-8.653 2.215-2.874.834-5.73 1.765-8.678 2.665 2.423-1.911 5.126-3.43 7.947-4.671 2.819-1.26 5.78-2.184 8.79-2.878 3.02-.645 6.096-1.062 9.182-1.117 3.082-.07 6.174.157 9.178.858zm-5.54 6.878c-3.07 1.43-6.202 2.603-9.32 3.76-3.111 1.174-6.23 2.269-9.288 3.485a143.58 143.58 0 00-9.082 3.827c-2.982 1.392-5.898 2.924-8.853 4.572 2.244-2.54 4.95-4.656 7.834-6.447 2.88-1.812 5.969-3.255 9.113-4.5a76.716 76.716 0 019.66-2.971c3.268-.783 6.569-1.39 9.936-1.726zm5.04-5.409l.647 7.52c.246 2.467.517 4.907.872 7.339.349 2.433.775 4.85 1.235 7.286.477 2.433 1.02 4.865 1.494 7.399-1.522-2.086-2.662-4.41-3.549-6.821-.903-2.41-1.519-4.926-1.887-7.475-.362-2.55-.48-5.138-.292-7.704.172-2.563.61-5.114 1.48-7.544zm9.341-3.882c.586 2.349 1.02 4.649 1.473 6.934l1.403 6.805 1.493 6.785c.517 2.27 1.056 4.549 1.475 6.934-1.464-1.933-2.588-4.07-3.507-6.284-.936-2.211-1.634-4.52-2.135-6.867-.495-2.35-.798-4.741-.842-7.141-.062-2.396.093-4.805.64-7.166zm10.138-9.121l1.214 7.019c.448 2.29.934 4.546 1.516 6.78a115.134 115.134 0 001.959 6.667l2.331 6.732c-1.75-1.711-3.15-3.735-4.292-5.89-1.159-2.15-2.032-4.456-2.645-6.824-.607-2.37-.959-4.81-.984-7.252-.043-2.44.2-4.888.901-7.232zm10.537-8.967c.783 1.82 1.374 3.617 1.95 5.407.592 1.785 1.126 3.565 1.665 5.345a202.022 202.022 0 011.554 5.378c.505 1.81.998 3.639 1.342 5.59-1.363-1.442-2.427-3.083-3.326-4.802-.915-1.714-1.631-3.525-2.189-5.381-.552-1.858-.95-3.765-1.128-5.7-.193-1.928-.209-3.884.132-5.837zm11.863-9.303c.68 2.252 1.187 4.47 1.694 6.677l1.509 6.584 1.488 6.588c.497 2.209.996 4.429 1.353 6.755-1.408-1.89-2.489-3.961-3.385-6.105-.912-2.14-1.605-4.367-2.121-6.633-.51-2.267-.848-4.575-.948-6.9-.119-2.32-.04-4.655.41-6.966zM90.437 70.265c1.332 2.419 2.23 5.049 2.836 7.74.623 2.692.892 5.46.928 8.226-.014 2.766-.264 5.536-.87 8.232-.585 2.695-1.468 5.33-2.786 7.758.226-2.75.498-5.407.674-8.06.159-2.652.28-5.286.248-7.922.018-2.636-.122-5.27-.298-7.921-.193-2.65-.485-5.306-.732-8.053zM76.136 86.479c1.117 2.218 1.852 4.585 2.358 6.994.524 2.409.78 4.874.825 7.339.038 2.466-.14 4.937-.584 7.362-.428 2.425-1.087 4.814-2.135 7.067-.068-2.48-.012-4.878.01-7.266.007-2.387.016-4.752-.024-7.119-.033-2.367-.12-4.731-.201-7.117-.1-2.384-.234-4.78-.25-7.26zM65.813 92.26c-2.201 1.055-4.365 1.977-6.5 2.939-2.127.977-4.23 1.953-6.305 2.989a225.01 225.01 0 00-6.191 3.217c-2.056 1.119-4.101 2.284-6.273 3.396 1.434-1.979 3.19-3.678 5.097-5.177 1.899-1.514 3.976-2.804 6.152-3.885 2.179-1.076 4.46-1.95 6.816-2.546 2.347-.61 4.762-.984 7.204-.932zm2.797 5.776c.86 1.199 1.42 2.503 1.853 3.835.423 1.336.696 2.709.832 4.095a19.717 19.717 0 01-.027 4.178c-.17 1.391-.468 2.778-1.087 4.12-.52-1.381-.811-2.722-1.063-4.055a47.515 47.515 0 01-.545-3.98 49.194 49.194 0 01-.225-4.011c-.007-1.356.02-2.728.262-4.182zm-8.915 4.796c-1.691.995-3.368 1.817-5.03 2.639l-9.871 4.912c-1.658.829-3.326 1.668-5.142 2.413 1.1-1.63 2.483-3.001 3.988-4.208 1.498-1.221 3.144-2.251 4.872-3.111 1.73-.855 3.545-1.547 5.423-2.002 1.87-.471 3.798-.747 5.76-.643zm-.287 1.976c1.133 2.754 1.865 5.641 2.354 8.564.507 2.924.707 5.894.728 8.861-.03 2.968-.244 5.936-.763 8.858-.501 2.921-1.247 5.805-2.396 8.553.033-2.976.177-5.878.273-8.771.078-2.893.17-5.768.152-8.646.033-2.878-.046-5.754-.111-8.647-.081-2.895-.214-5.797-.237-8.772zm3.609-3.031c1.405 1.175 2.503 2.637 3.387 4.209.902 1.568 1.559 3.273 2.004 5.026.44 1.756.665 3.568.61 5.377-.036 1.804-.314 3.611-1.001 5.311-.45-1.773-.772-3.456-1.123-5.117-.368-1.657-.73-3.285-1.138-4.904-.402-1.621-.853-3.227-1.31-4.862-.473-1.631-.986-3.266-1.43-5.04z"/><path d="M149.701 20.154C107.063 47.742 67.705 81.22 45.583 127.996c-.195.412.446.833.698.429C61.269 104.377 78.32 81.662 99.1 62.292c16.083-14.993 33.948-27.756 51.174-41.357.493-.39-.05-1.12-.573-.781zm-30.509.238c-1.401 2.88-2.889 5.653-4.565 8.3-1.686 2.637-3.518 5.167-5.554 7.525-2.008 2.382-4.216 4.59-6.554 6.672-2.348 2.073-4.85 3.982-7.472 5.823 3.014-1.097 5.85-2.691 8.458-4.596 2.62-1.896 4.988-4.137 7.103-6.59 2.086-2.48 3.925-5.171 5.382-8.058 1.467-2.877 2.593-5.928 3.202-9.076zm-11.587 4.263c-1.779 2.691-3.593 5.298-5.547 7.785-1.964 2.477-4.029 4.86-6.257 7.084-2.2 2.25-4.56 4.34-7.017 6.329-2.467 1.98-5.052 3.823-7.724 5.633 3.051-1.06 5.945-2.57 8.651-4.36 2.717-1.782 5.223-3.883 7.523-6.183 2.274-2.327 4.349-4.856 6.1-7.592 1.762-2.726 3.241-5.635 4.271-8.696zM94.39 30.377c-1.9 1.95-3.761 3.867-5.693 5.7-1.938 1.822-3.911 3.59-5.983 5.24-2.047 1.68-4.19 3.24-6.376 4.755-2.196 1.505-4.458 2.925-6.761 4.38 2.64-.684 5.17-1.745 7.578-3.034 2.417-1.279 4.69-2.824 6.828-4.532 2.115-1.737 4.1-3.637 5.856-5.733 1.762-2.086 3.33-4.34 4.551-6.776zm-10.6 2.72c-2.061 1.487-4.065 2.962-6.114 4.358-2.055 1.384-4.124 2.725-6.264 3.95-2.12 1.256-4.307 2.395-6.525 3.501-2.225 1.094-4.495 2.111-6.804 3.174 2.532-.252 5.014-.874 7.414-1.722 2.407-.837 4.718-1.942 6.93-3.211 2.194-1.302 4.294-2.768 6.208-4.45 1.92-1.672 3.686-3.523 5.154-5.6zm-13.766 1.91c-2.695 1.265-5.336 2.538-8.008 3.728-2.677 1.177-5.36 2.313-8.093 3.322-2.718 1.045-5.483 1.965-8.27 2.849-2.792.872-5.615 1.662-8.474 2.494 2.98-.001 5.947-.37 8.866-.969 2.925-.588 5.791-1.45 8.59-2.487 2.786-1.073 5.507-2.32 8.09-3.81 2.588-1.48 5.06-3.162 7.3-5.127zm-18.786 2.569c-3.26 1.154-6.493 2.256-9.761 3.206-3.271.937-6.562 1.767-9.894 2.4-3.324.67-6.685 1.147-10.067 1.515-3.386.355-6.794.558-10.249.724 3.396.672 6.874.912 10.345.848 3.474-.052 6.942-.454 10.359-1.107 3.41-.69 6.772-1.628 10.008-2.894 3.239-1.252 6.368-2.788 9.259-4.692zM30.39 36.532c-2.32.05-4.594.214-6.862.37-2.268.143-4.523.326-6.782.454l-6.783.436c-2.268.142-4.543.28-6.852.537 2.25.58 4.546.884 6.848 1.038 2.304.165 4.616.135 6.919.001 2.302-.172 4.597-.445 6.859-.912 2.262-.454 4.499-1.055 6.654-1.924zm7.415-.196c-1.578-2.14-3.467-4.04-5.519-5.739-2.046-1.71-4.286-3.187-6.624-4.478-2.356-1.259-4.814-2.333-7.363-3.117-2.543-.795-5.165-1.343-7.82-1.497 2.47.975 4.894 1.925 7.268 2.972 2.366 1.058 4.695 2.17 6.953 3.415 2.276 1.213 4.477 2.56 6.655 3.968 2.17 1.419 4.287 2.933 6.45 4.476zM56.2 34.401c-1.952-1.988-4.185-3.683-6.53-5.182-2.342-1.512-4.82-2.79-7.342-3.952a78.596 78.596 0 00-7.751-2.988c-2.628-.862-5.29-1.607-8.018-2.16 2.44 1.343 4.945 2.498 7.447 3.628l7.491 3.358a208.305 208.305 0 017.4 3.479c2.442 1.215 4.85 2.5 7.303 3.817zm13.776-.161c-1.757-2.28-3.804-4.324-6.007-6.18-2.196-1.868-4.58-3.513-7.06-4.99-2.498-1.445-5.098-2.72-7.8-3.725-2.696-1.016-5.48-1.804-8.33-2.219 2.606 1.22 5.176 2.4 7.699 3.662 2.515 1.273 4.998 2.587 7.411 4.021 2.433 1.403 4.792 2.928 7.132 4.5 2.335 1.585 4.619 3.252 6.955 4.93zm12.68-3.31c-1.71-1.17-3.452-2.203-5.193-3.226L72.24 24.68c-1.755-.979-3.491-1.988-5.264-2.953-1.767-.977-3.545-1.948-5.425-2.82 1.38 1.548 2.933 2.898 4.565 4.139 1.625 1.252 3.354 2.358 5.125 3.388 1.791.996 3.624 1.92 5.53 2.68 1.9.768 3.853 1.417 5.886 1.817zm4.78-1.478c-1.692-1.853-3.324-3.68-4.848-5.582-1.512-1.91-2.947-3.863-4.234-5.913-1.32-2.03-2.49-4.153-3.589-6.326-1.088-2.18-2.062-4.428-3.037-6.74.157 2.508.738 4.982 1.587 7.357.84 2.383 1.99 4.654 3.34 6.796 1.38 2.12 2.958 4.119 4.77 5.88 1.8 1.766 3.801 3.331 6.011 4.528zm9.286-2.502c-1.382-.31-2.213-1.233-3.149-2.133-.926-.953-1.874-1.869-2.812-2.791-.943-.919-1.885-1.838-2.86-2.746-.97-.914-1.946-1.835-3.063-2.7.427 1.345 1.084 2.575 1.86 3.717a19.532 19.532 0 002.654 3.173 19.84 19.84 0 003.242 2.572c.59.384 1.244.727 1.957.946.711.202 1.514.262 2.17-.037z"/><path d="M107.138 26.081c-1.452-1.586-2.887-3.105-4.257-4.67-1.359-1.573-2.685-3.156-3.913-4.814-1.258-1.636-2.419-3.344-3.56-5.08-1.13-1.746-2.2-3.54-3.332-5.37.345 2.127 1.046 4.178 1.954 6.13.898 1.96 2.042 3.803 3.329 5.536 1.317 1.71 2.777 3.314 4.418 4.713 1.63 1.405 3.411 2.64 5.361 3.555zm9.356-4.006c-.829-1.417-1.772-2.703-2.743-3.957a73.239 73.239 0 00-3.009-3.659 72.035 72.035 0 00-3.223-3.473c-1.113-1.13-2.262-2.234-3.557-3.244.626 1.519 1.442 2.91 2.337 4.24a36.039 36.039 0 002.924 3.804 36.335 36.335 0 003.383 3.404c1.2 1.064 2.468 2.058 3.888 2.885zM46.508 34.46c-1.679-2.147-3.719-4-5.911-5.627-2.188-1.64-4.555-3.02-6.978-4.257a66.019 66.019 0 00-7.496-3.159c-2.552-.902-5.142-1.674-7.8-2.253 2.356 1.363 4.78 2.541 7.195 3.707 2.41 1.178 4.829 2.3 7.197 3.508a120.185 120.185 0 017.016 3.763c2.296 1.34 4.53 2.784 6.777 4.318zm-19.098.67c-1.27-1.174-2.708-2.117-4.216-2.919a26.712 26.712 0 00-4.727-1.973 26.606 26.606 0 00-5.012-1.06c-1.697-.196-3.417-.235-5.128.015 1.626.586 3.225 1.052 4.813 1.528l4.728 1.443 4.713 1.491c1.577.51 3.159 1.034 4.828 1.476zm6.244 1.751c-1.72.608-3.346 1.297-4.97 1.973l-4.852 2-4.865 1.968c-1.632.654-3.276 1.303-4.927 2.076 1.824.05 3.624-.185 5.387-.57a30.277 30.277 0 005.168-1.607 30.486 30.486 0 004.812-2.475c1.528-.96 2.978-2.053 4.247-3.365z"/><path d="M31.688 35.924c-1.947-1.71-4.081-3.176-6.304-4.488-2.218-1.324-4.55-2.451-6.928-3.458-2.393-.972-4.838-1.823-7.343-2.456-2.499-.645-5.046-1.117-7.631-1.282 2.395.983 4.782 1.868 7.15 2.782 2.365.925 4.723 1.835 7.052 2.82 2.343.948 4.655 1.973 6.981 2.99 2.322 1.027 4.635 2.09 7.023 3.092zm-4.484-1.004c-2.25.027-4.43-.006-6.602-.15a89.268 89.268 0 01-6.48-.692c-2.159-.278-4.315-.649-6.496-.967-2.18-.33-4.377-.652-6.626-.786 2.043.948 4.142 1.699 6.286 2.324a46.366 46.366 0 006.563 1.428c2.23.285 4.497.428 6.757.263 2.254-.152 4.507-.571 6.598-1.42zm13.609.05c-1.468-1.658-3.128-3.113-4.876-4.447-1.74-1.345-3.598-2.531-5.504-3.628-1.925-1.063-3.901-2.037-5.954-2.829-2.046-.803-4.151-1.467-6.332-1.86 1.876 1.176 3.772 2.23 5.66 3.284 1.88 1.066 3.77 2.092 5.637 3.163 1.884 1.038 3.742 2.123 5.628 3.178 1.88 1.067 3.763 2.143 5.741 3.14zm2.584 2.008c-1.32 1.437-2.476 2.955-3.638 4.44-1.17 1.477-2.309 2.95-3.545 4.32a39.416 39.416 0 01-3.903 3.894 34.967 34.967 0 01-4.566 3.303c1.944-.22 3.819-.989 5.494-2.03 1.69-1.034 3.173-2.371 4.487-3.833a27.666 27.666 0 003.341-4.789 29.385 29.385 0 002.33-5.305zm16.311-1.505c-1.106 1.359-2.502 2.138-3.946 2.97a179.726 179.726 0 00-4.364 2.516c-1.443.853-2.88 1.715-4.309 2.615-1.431.894-2.866 1.8-4.26 2.855 1.725-.283 3.377-.805 4.972-1.45a32.773 32.773 0 004.625-2.283c1.478-.883 2.899-1.855 4.228-2.961a12.526 12.526 0 001.89-1.87c.547-.713 1.01-1.522 1.164-2.392zm12.559-.396c-1.824 1.398-3.583 2.788-5.382 4.108-1.806 1.308-3.62 2.582-5.504 3.75-1.864 1.2-3.792 2.296-5.747 3.369-1.964 1.061-3.97 2.056-6.014 3.11 2.288-.25 4.521-.857 6.67-1.678 2.156-.811 4.212-1.877 6.17-3.096 1.937-1.25 3.78-2.652 5.435-4.254 1.661-1.592 3.166-3.35 4.372-5.309zm-9.476-1.147c-1.51-1.894-3.26-3.573-5.128-5.104-1.862-1.542-3.873-2.899-5.952-4.132-2.1-1.2-4.273-2.278-6.534-3.135-2.254-.868-4.579-1.558-6.973-1.933 2.12 1.17 4.233 2.25 6.319 3.365 2.079 1.127 4.148 2.248 6.173 3.447 2.044 1.166 4.041 2.411 6.05 3.66 2 1.261 3.982 2.565 6.045 3.833zm13.217-1.043c-1.094-1.724-2.438-3.261-3.904-4.666-1.46-1.416-3.074-2.665-4.759-3.803-1.706-1.107-3.487-2.102-5.362-2.89-1.867-.8-3.809-1.433-5.825-1.761 1.71 1.112 3.418 2.123 5.102 3.16 1.675 1.046 3.345 2.077 4.973 3.173 1.649 1.066 3.25 2.199 4.87 3.33 1.615 1.141 3.213 2.317 4.905 3.457zm12.03-.633c-1.559 1.701-3.004 3.442-4.454 5.171-1.46 1.72-2.884 3.457-4.353 5.156-1.44 1.724-2.92 3.412-4.382 5.131-1.47 1.711-2.952 3.422-4.376 5.238 1.98-1.188 3.793-2.605 5.5-4.135 1.718-1.522 3.298-3.191 4.796-4.928 1.47-1.762 2.858-3.593 4.08-5.535 1.233-1.934 2.337-3.952 3.19-6.098zm11.266-3.053c-1.568 1.66-3.05 3.328-4.561 4.96-1.521 1.62-3.035 3.232-4.617 4.776-1.555 1.572-3.174 3.077-4.804 4.59-1.638 1.503-3.314 2.975-4.981 4.537 2.12-.854 4.1-2.003 5.967-3.309 1.876-1.298 3.61-2.79 5.24-4.387 1.604-1.624 3.106-3.35 4.413-5.22 1.317-1.859 2.476-3.832 3.343-5.947zm10.232-3.256c-1.671 2.429-3.169 4.938-4.673 7.424-1.516 2.48-2.997 4.963-4.594 7.358a85.312 85.312 0 01-5.044 6.983 70.42 70.42 0 01-5.89 6.393c2.618-1.364 4.973-3.233 7.061-5.339 2.105-2.102 3.921-4.468 5.559-6.93a64.986 64.986 0 004.289-7.722 70.65 70.65 0 003.292-8.168zm-5.251.509l-5.176-3.44c-1.68-1.165-3.34-2.336-4.932-3.596-1.617-1.229-3.166-2.542-4.713-3.878l-4.63-4.147c.915 1.91 2.133 3.653 3.51 5.254 1.37 1.613 2.934 3.055 4.598 4.366 1.686 1.28 3.474 2.433 5.378 3.356 1.896.933 3.888 1.676 5.965 2.085zm7.191-2.341c-1.51-1.434-2.978-2.814-4.373-4.255-1.383-1.449-2.72-2.92-3.949-4.48-1.259-1.538-2.409-3.16-3.526-4.82-1.108-1.672-2.141-3.401-3.22-5.182.287 2.066.955 4.064 1.847 5.953.882 1.897 2.028 3.668 3.327 5.313 1.329 1.621 2.812 3.12 4.478 4.388 1.653 1.275 3.461 2.356 5.416 3.083zm-18.91 5.717c-1.18-1.712-2.388-3.336-3.555-4.98-1.156-1.65-2.309-3.286-3.387-4.973-1.11-1.665-2.146-3.378-3.192-5.099-1.036-1.729-2.04-3.486-3.138-5.254.31 2.06.933 4.049 1.731 5.962.787 1.92 1.79 3.747 2.911 5.494 1.152 1.726 2.423 3.378 3.867 4.87 1.432 1.498 3.003 2.868 4.763 3.98zm-7.978.62c-1.42-1.704-2.96-3.255-4.497-4.784-1.53-1.54-3.092-3.022-4.586-4.56a102.642 102.642 0 01-4.398-4.673c-1.413-1.61-2.757-3.284-4.113-5.036.608 2.136 1.633 4.14 2.86 5.991 1.22 1.863 2.675 3.555 4.219 5.138a47.082 47.082 0 004.99 4.325c1.754 1.324 3.577 2.54 5.525 3.598zm33.417-12.023c-.867-1.586-1.819-3.06-2.775-4.522-.946-1.469-1.917-2.905-2.885-4.345-.973-1.438-1.943-2.874-2.954-4.3-.999-1.433-2.012-2.865-3.162-4.26.395 1.765 1.037 3.438 1.799 5.049a33.776 33.776 0 002.645 4.64 34.014 34.014 0 003.321 4.183c1.211 1.308 2.522 2.528 4.011 3.555zm5.32 3.378c-.447 1.266-.804 2.47-1.188 3.653a88.741 88.741 0 01-1.227 3.475 94.946 94.946 0 01-1.385 3.414c-.497 1.14-1.025 2.278-1.527 3.524 1.146-.707 2.093-1.665 2.887-2.73a13.982 13.982 0 001.913-3.494c.468-1.248.78-2.557.879-3.885.11-1.324.036-2.669-.352-3.957z"/><path d="M126.479 19.38c-.989 2.321-1.829 4.662-2.715 6.965-.897 2.298-1.796 4.575-2.854 6.768a52.907 52.907 0 01-3.521 6.377 47.996 47.996 0 01-4.511 5.854c2.214-1.223 4.144-2.959 5.776-4.916 1.649-1.955 2.978-4.16 4.08-6.454a40.052 40.052 0 002.525-7.155 42.277 42.277 0 001.22-7.44zm-11.632 4.2c-1.099 2.01-2.132 3.99-3.222 5.93-1.101 1.934-2.215 3.845-3.426 5.696-1.178 1.87-2.452 3.68-3.751 5.485-1.31 1.8-2.679 3.565-4.045 5.403 1.939-1.224 3.676-2.734 5.254-4.393 1.589-1.653 2.987-3.484 4.24-5.406 1.222-1.942 2.304-3.975 3.143-6.109.851-2.125 1.501-4.334 1.807-6.606zm-14.572 6.442c-1.343 1.434-2.61 2.847-3.921 4.208-1.319 1.35-2.644 2.674-4.045 3.916-1.376 1.269-2.825 2.455-4.3 3.633-1.484 1.17-3.015 2.29-4.574 3.487 1.919-.436 3.74-1.212 5.45-2.177 1.719-.956 3.307-2.14 4.778-3.448 1.446-1.336 2.782-2.799 3.903-4.415 1.129-1.605 2.082-3.34 2.709-5.204zM87.818 32.47c-1.56 1.654-3.052 3.294-4.591 4.877-1.548 1.574-3.106 3.118-4.745 4.576-1.614 1.486-3.305 2.884-5.023 4.269-1.727 1.375-3.505 2.699-5.304 4.091 2.184-.645 4.25-1.626 6.2-2.796 1.96-1.161 3.78-2.55 5.481-4.068 1.677-1.545 3.238-3.22 4.587-5.055 1.356-1.827 2.537-3.786 3.395-5.894zm-6.504.404c-2.17 1.24-4.212 2.627-6.237 4.011-2.034 1.375-4.022 2.786-6.059 4.11a105.903 105.903 0 01-6.176 3.84c-2.11 1.203-4.276 2.306-6.528 3.384 2.487-.27 4.915-.998 7.223-1.971 2.319-.962 4.505-2.208 6.595-3.571a56.611 56.611 0 005.907-4.553c1.865-1.635 3.637-3.365 5.275-5.25zm5.406-.728l-4.254-3.595a119.467 119.467 0 01-4.05-3.653 123.052 123.052 0 01-3.862-3.85c-1.262-1.324-2.496-2.688-3.82-4.054.608 1.806 1.521 3.483 2.596 5.046a26.526 26.526 0 003.698 4.322 26.655 26.655 0 004.517 3.46c1.617.989 3.34 1.812 5.175 2.324zm6.32-3.972c-1.165-1.355-2.365-2.597-3.549-3.843l-3.5-3.746-3.452-3.791c-1.147-1.28-2.29-2.576-3.548-3.845.54 1.706 1.348 3.294 2.29 4.792a27.958 27.958 0 003.227 4.213 28.076 28.076 0 003.943 3.55c1.417 1.06 2.934 1.993 4.59 2.67zm9.816-2.223l-3.71-3.723a83.217 83.217 0 01-3.439-3.804 84.944 84.944 0 01-3.18-4.02l-3.062-4.274c.285 1.783.907 3.489 1.719 5.095a22.494 22.494 0 002.983 4.502 22.543 22.543 0 003.949 3.684c1.451 1.066 3.03 1.963 4.74 2.54zm9.894-2.526c-.763-1.247-1.594-2.37-2.426-3.48-.823-1.117-1.668-2.197-2.51-3.28-.847-1.08-1.692-2.16-2.578-3.229-.875-1.076-1.766-2.152-2.795-3.19.288 1.435.823 2.775 1.475 4.05a21.7 21.7 0 002.308 3.612 21.823 21.823 0 002.953 3.108c1.079.939 2.251 1.782 3.573 2.41zm10.659-3.177c-1.067-1.37-2.187-2.62-3.3-3.867l-3.323-3.715-3.334-3.704c-1.119-1.241-2.243-2.488-3.492-3.695.537 1.654 1.325 3.188 2.234 4.642a28.818 28.818 0 003.092 4.104 28.817 28.817 0 003.752 3.512c1.346 1.06 2.787 2.009 4.371 2.723zM74.332 32.815c-.89-1.833-2.091-3.495-3.454-5.007-1.356-1.523-2.909-2.865-4.56-4.066-1.672-1.17-3.447-2.2-5.329-2.985-1.873-.796-3.837-1.388-5.861-1.628 1.752 1.036 3.47 2.005 5.142 3.03 1.666 1.034 3.304 2.083 4.878 3.227 1.596 1.113 3.123 2.32 4.645 3.556 1.514 1.245 2.99 2.553 4.539 3.873zM58.47 34.516c-.86-1.618-1.973-3.07-3.209-4.401a27.878 27.878 0 00-4.07-3.625 27.742 27.742 0 00-4.683-2.787c-1.643-.775-3.363-1.397-5.167-1.726 1.465 1.098 2.934 2.087 4.382 3.09 1.44 1.014 2.869 2.017 4.278 3.05 1.411 1.029 2.799 2.088 4.2 3.155 1.395 1.076 2.78 2.178 4.268 3.244zm-7.884 3.754c-1.573.877-3.05 1.787-4.54 2.663a159.135 159.135 0 01-4.488 2.524 165.835 165.835 0 01-4.577 2.358c-1.55.762-3.124 1.497-4.72 2.332 1.804-.02 3.576-.354 5.292-.864a25.408 25.408 0 004.962-2.05 25.538 25.538 0 004.44-3.02c1.367-1.154 2.622-2.45 3.631-3.943zm-2.287-4.144c-.355-1.03-.902-1.922-1.52-2.751a14.79 14.79 0 00-2.112-2.247 14.546 14.546 0 00-2.529-1.764c-.91-.491-1.872-.902-2.945-1.102.61.902 1.294 1.65 1.99 2.37.7.712 1.42 1.382 2.165 2.024a36.274 36.274 0 002.32 1.845c.814.582 1.653 1.15 2.631 1.625zm-6.689 3.325c-1.32.595-2.53 1.255-3.733 1.905l-7.167 3.853c-1.206.645-2.422 1.292-3.645 2.069 1.45.032 2.866-.217 4.235-.609a19.26 19.26 0 003.95-1.609 19.346 19.346 0 003.518-2.413c1.08-.926 2.069-1.97 2.842-3.196zm-1.313-.666c-1.176-1.857-2.603-3.528-4.155-5.069-1.546-1.552-3.25-2.938-5.028-4.215-1.8-1.247-3.68-2.383-5.66-3.316-1.974-.944-4.03-1.723-6.174-2.203 1.806 1.249 3.616 2.4 5.4 3.575 1.776 1.186 3.547 2.356 5.273 3.593 1.747 1.207 3.446 2.48 5.161 3.753 1.71 1.283 3.4 2.6 5.183 3.882zm3.363-.883c-.108-1.347-.52-2.631-1.09-3.834a14.677 14.677 0 00-2.174-3.35 14.57 14.57 0 00-2.979-2.66c-1.102-.746-2.31-1.349-3.626-1.66.876 1.027 1.753 1.939 2.604 2.858.84.928 1.667 1.84 2.469 2.776.805.933 1.58 1.89 2.37 2.861.78.98 1.547 1.986 2.427 3.01z"/><path d="M129.778 18.476C94.985 32.401 58.042 41.84 20.437 35.228c-.332-.058-.312-.624.039-.603 20.874 1.222 41.826.632 62.35-3.629 15.887-3.297 31.19-8.618 46.726-13.198.444-.13.653.507.226.678z"/></mask><path d="M139.295 30.364c-4.283-.705-8.516-1.23-12.756-1.447-4.237-.2-8.469-.153-12.671.254-4.207.357-8.378 1.07-12.51 2.027-4.132.975-8.202 2.249-12.291 3.708 3.573-2.476 7.556-4.365 11.704-5.76 4.148-1.413 8.481-2.278 12.851-2.697 4.375-.368 8.792-.295 13.126.353 4.33.629 8.587 1.77 12.547 3.562zm-13.787 9.481c-4.37-.14-8.673-.173-12.954.042-4.277.233-8.529.652-12.733 1.376-4.212.674-8.371 1.649-12.495 2.809-4.121 1.178-8.183 2.596-12.277 4.134 3.56-2.545 7.496-4.565 11.595-6.157 4.098-1.61 8.383-2.738 12.729-3.482 4.354-.694 8.775-1.01 13.172-.805 4.395.185 8.77.826 12.963 2.083zm-16.674 10.139c-3.645.576-7.222 1.134-10.761 1.836-3.533.718-7.034 1.516-10.481 2.516-3.46.95-6.862 2.099-10.25 3.332-3.384 1.25-6.726 2.64-10.137 4.05 2.822-2.384 5.977-4.353 9.287-6.008 3.306-1.672 6.795-2.976 10.358-4.005 3.577-.98 7.233-1.69 10.926-1.99 3.687-.317 7.406-.287 11.058.269zM97.526 59.58c-3.258 1.116-6.458 2.178-9.606 3.352-3.14 1.19-6.243 2.429-9.272 3.838-3.05 1.363-6.022 2.889-8.981 4.477-2.952 1.605-5.854 3.32-8.837 5.042 2.26-2.603 4.89-4.862 7.708-6.853 2.81-2.008 5.84-3.7 8.977-5.153 3.157-1.408 6.423-2.583 9.782-3.383 3.352-.817 6.782-1.32 10.229-1.32zM84.639 73.314c-3.51 1.99-6.985 3.916-10.393 5.94-3.397 2.04-6.754 4.12-10.01 6.352-3.283 2.19-6.465 4.527-9.624 6.919-3.15 2.406-6.234 4.91-9.393 7.422 2.334-3.295 5.065-6.29 8.013-9.05 2.939-2.775 6.136-5.271 9.475-7.555 3.367-2.242 6.876-4.277 10.548-5.967 3.66-1.705 7.457-3.123 11.384-4.061zM67.093 92.085c-3.83 2.703-7.577 5.416-11.187 8.288-3.597 2.885-7.091 5.876-10.4 9.065-3.343 3.153-6.5 6.498-9.555 9.952-3.043 3.467-5.935 7.078-8.823 10.77 1.914-4.283 4.37-8.318 7.159-12.107 2.777-3.803 5.936-7.324 9.333-10.593 3.432-3.232 7.102-6.217 11.035-8.806 3.92-2.602 8.069-4.862 12.438-6.57zM51.93 115.963c-1.873 2.529-3.833 4.916-5.781 7.302-1.934 2.397-3.901 4.748-5.811 7.147l-5.792 7.162c-1.933 2.398-3.865 4.807-5.957 7.16 1.119-2.944 2.58-5.721 4.212-8.388 1.62-2.678 3.463-5.212 5.414-7.655 1.992-2.412 4.09-4.737 6.378-6.873 2.273-2.148 4.689-4.151 7.337-5.855zm6.024-8.047c1.132 3.421 1.755 6.997 2.028 10.597.29 3.603.17 7.236-.231 10.833-.452 3.591-1.187 7.151-2.316 10.585-1.111 3.435-2.557 6.765-4.465 9.823.856-3.497 1.7-6.922 2.4-10.367.683-3.446 1.277-6.892 1.667-10.365.44-3.467.672-6.957.819-10.467.13-3.512.11-7.039.098-10.639zM74.488 89.08c.67 3.715.798 7.512.62 11.279-.16 3.774-.686 7.517-1.374 11.215-.74 3.69-1.642 7.336-2.762 10.914-1.103 3.582-2.363 7.109-3.886 10.56.424-3.749 1.107-7.425 1.816-11.078l2.149-10.915c.729-3.625 1.357-7.259 1.943-10.908.568-3.654 1.032-7.324 1.494-11.067zm10.964-15.112c1.148 3.728 1.806 7.592 2.135 11.482.347 3.892.3 7.816-.006 11.715-.358 3.895-.982 7.769-1.986 11.546-.986 3.777-2.294 7.473-4.065 10.95.69-3.837 1.397-7.604 1.975-11.382.56-3.779 1.05-7.554 1.353-11.347.352-3.79.512-7.592.604-11.411.075-3.823.019-7.655-.01-11.553zM99.036 62.53c-.044 2.807-.264 5.544-.496 8.27l-.743 8.147c-.29 2.707-.533 5.418-.853 8.135-.303 2.719-.621 5.446-1.128 8.207-.632-2.737-.91-5.512-1.005-8.288-.113-2.778.017-5.556.265-8.322.299-2.761.712-5.511 1.364-8.214.636-2.704 1.447-5.372 2.596-7.934zm5.377-4.13c.725 3.322 1.468 6.557 2.38 9.732.929 3.167 1.967 6.284 3.227 9.313 1.213 3.048 2.644 6.005 4.188 8.92 1.561 2.912 3.284 5.748 5.079 8.637-2.652-2.137-4.934-4.716-6.896-7.515-1.979-2.794-3.591-5.844-4.904-9.013-1.266-3.187-2.24-6.497-2.77-9.88-.545-3.374-.71-6.813-.304-10.194zm10.033-8.315c-.738 1.772-.367 3.413-.104 5.153.329 1.77.6 3.536.886 5.296.278 1.762.558 3.523.799 5.313.251 1.789.506 3.589.59 5.502-1.155-1.526-2.001-3.215-2.656-4.968-.678-1.748-1.139-3.571-1.433-5.42a26.896 26.896 0 01-.308-5.6c.037-.951.17-1.944.486-2.904.332-.945.895-1.88 1.74-2.372z" stroke="#5C846A" stroke-opacity=".2" stroke-width="2" mask="url(#a)"/><path d="M123.563 39.244c.618 2.848 1.176 5.624 1.835 8.365.675 2.734 1.389 5.44 2.262 8.097.825 2.672 1.806 5.293 2.834 7.914 1.046 2.617 2.193 5.205 3.33 7.889-2.082-2.046-3.802-4.427-5.251-6.96-1.466-2.527-2.609-5.235-3.518-8.015-.861-2.796-1.492-5.666-1.755-8.577-.279-2.903-.251-5.84.263-8.713zm11.758-7.212c.918 2.026 1.603 4.075 2.23 6.13.643 2.053 1.187 4.119 1.692 6.194a97.637 97.637 0 011.319 6.283c.379 2.116.701 4.252.804 6.475-1.189-1.882-2.089-3.873-2.86-5.904a48.84 48.84 0 01-1.92-6.213c-.503-2.108-.896-4.243-1.117-6.407-.238-2.16-.345-4.341-.148-6.558zM66.835 99.755c1.06 3.537 1.515 7.245 1.598 10.943.102 3.704-.225 7.402-.752 11.051a89.478 89.478 0 01-2.374 10.765c-1 3.529-2.173 6.998-3.613 10.393.337-3.674.93-7.278 1.53-10.862.585-3.587 1.237-7.142 1.754-10.707.568-3.558.998-7.123 1.329-10.707.315-3.588.466-7.19.528-10.876zm-15.687 20.603c.307 2.323.223 4.652-.07 6.948-.277 2.302-.806 4.569-1.517 6.774-.717 2.203-1.623 4.348-2.75 6.374-1.112 2.031-2.415 3.964-4.031 5.661.624-2.257 1.36-4.391 2.077-6.52l2.104-6.36 2.04-6.381c.67-2.143 1.329-4.303 2.147-6.496zm2.949-8.278c-2.018 1.426-4.053 2.686-6.072 3.953l-6.01 3.803-5.986 3.84c-2.001 1.294-4.005 2.604-6.153 3.826 1.373-2.057 3.042-3.865 4.848-5.514 1.797-1.663 3.759-3.142 5.823-4.458 2.067-1.31 4.237-2.462 6.504-3.386 2.259-.938 4.602-1.687 7.046-2.064z" stroke="#5C846A" stroke-opacity=".2" stroke-width="2" mask="url(#a)"/><path d="M53.617 115.004c.368 3.491.319 7 .03 10.486-.272 3.49-.85 6.951-1.597 10.37-.798 3.409-1.771 6.779-3.031 10.046-1.243 3.269-2.714 6.456-4.556 9.445.788-3.419 1.677-6.752 2.52-10.088.828-3.339 1.667-6.661 2.4-10.007.786-3.335 1.462-6.694 2.158-10.063.68-3.373 1.315-6.764 2.076-10.189zm-2.399 5.745c-1.791 2.469-3.461 4.906-5.002 7.42a120.92 120.92 0 00-4.306 7.71c-1.382 2.607-2.66 5.282-4.016 7.944-1.341 2.669-2.704 5.352-4.316 7.945.55-3.002 1.363-5.912 2.349-8.773a62.823 62.823 0 013.558-8.377c1.43-2.691 3.046-5.311 4.998-7.681 1.933-2.375 4.16-4.539 6.735-6.188zm10.598-15.093c.686 2.923.996 5.897 1.104 8.875.125 2.979-.017 5.962-.296 8.929-.33 2.962-.8 5.91-1.531 8.801-.713 2.892-1.626 5.74-2.898 8.461.167-2.997.486-5.918.797-8.832.293-2.915.638-5.809.914-8.712.327-2.897.58-5.801.89-8.714.29-2.915.574-5.84 1.02-8.808zm-.201-4.43c-2.622.335-5.207.426-7.758.549-2.551.139-5.071.245-7.554.54-2.485.245-4.936.68-7.363 1.269a47.363 47.363 0 00-7.228 2.466c1.766-1.978 4.083-3.45 6.546-4.488 2.467-1.061 5.107-1.655 7.752-1.964a37.492 37.492 0 017.913.052c2.608.282 5.172.784 7.692 1.576zM76.05 84.36c-2.37.16-4.324 1.095-6.375 2.04-2.054.99-4.127 1.93-6.2 2.858a239.442 239.442 0 01-6.264 2.72c-2.11.884-4.234 1.762-6.494 2.479 1.664-1.688 3.534-3.106 5.497-4.366 1.953-1.28 4.02-2.373 6.146-3.33 2.133-.943 4.32-1.754 6.584-2.358 1.135-.318 2.33-.555 3.549-.628 1.216-.046 2.474.074 3.557.585zm10.267-13.582c-2.974.923-5.887 1.78-8.756 2.738-2.861.973-5.691 1.984-8.458 3.153-2.786 1.122-5.507 2.397-8.224 3.72-2.711 1.342-5.383 2.783-8.147 4.219 2.066-2.336 4.486-4.331 7.076-6.064 2.585-1.751 5.373-3.191 8.254-4.402 2.899-1.165 5.893-2.106 8.96-2.683 3.062-.592 6.184-.881 9.295-.681zm-6.15 11.378c.913 3.154 1.4 6.405 1.632 9.669.249 3.267.176 6.553-.088 9.819-.315 3.262-.824 6.509-1.646 9.681-.804 3.173-1.861 6.285-3.32 9.227.366-3.261.825-6.443 1.223-9.624.38-3.182.76-6.348 1.02-9.527.31-3.174.496-6.358.685-9.557.172-3.2.28-6.414.494-9.688zM91.67 68.354c1.05 2.56 1.699 5.25 2.106 7.972.424 2.723.542 5.486.482 8.24-.111 2.755-.405 5.504-1 8.195-.578 2.69-1.397 5.334-2.612 7.822.109-2.763.327-5.444.498-8.117.154-2.673.32-5.327.382-7.986.112-2.658.113-5.317.13-7.994 0-2.68-.05-5.368.014-8.132zm10.113-12.814c-3.102.393-6.16.63-9.207.88-3.046.268-6.081.484-9.111.779-3.034.244-6.06.56-9.106.83-3.044.289-6.096.589-9.22.742 2.865-1.261 5.852-2.157 8.88-2.848 3.029-.708 6.112-1.15 9.206-1.447 3.099-.246 6.21-.35 9.316-.182 3.104.15 6.202.509 9.242 1.246zm12.197-10.072c-3.064.435-6.069.768-9.057 1.164-2.984.414-5.951.827-8.898 1.368-2.956.49-5.888 1.103-8.836 1.722-2.946.636-5.887 1.337-8.92 1.959 2.605-1.678 5.426-2.97 8.332-4.011 2.904-1.06 5.913-1.81 8.955-2.363 3.05-.503 6.137-.813 9.228-.796 3.087-.001 6.178.26 9.196.957zm11.615-8.768c-3.995-.053-7.943-.36-11.871-.642-3.93-.265-7.835-.57-11.735-.678a115.632 115.632 0 00-11.673.113c-3.888.253-7.76.765-11.683 1.512 3.559-1.828 7.469-2.97 11.434-3.632 3.972-.683 8.012-.84 12.016-.725 4.005.166 7.982.597 11.901 1.3 3.923.686 7.793 1.58 11.611 2.752zm-4.676 5.409l-.245 8.418c-.027 2.77-.03 5.523.116 8.27.095 2.75.335 5.493.601 8.25l.965 8.367c-1.397-2.506-2.372-5.218-3.066-7.995-.711-2.778-1.083-5.637-1.23-8.503-.097-2.868.027-5.748.497-8.577.452-2.827 1.189-5.612 2.362-8.23zm8.218-6.122c.405 2.792.782 5.497 1.284 8.167.52 2.664 1.101 5.295 1.865 7.876.715 2.596 1.609 5.137 2.572 7.674.982 2.533 2.086 5.03 3.211 7.618-2.06-1.936-3.748-4.238-5.139-6.703-1.409-2.461-2.471-5.115-3.273-7.84-.753-2.74-1.25-5.553-1.349-8.388-.116-2.827.103-5.673.829-8.404zM108.013 52.43c.971 2.647 1.823 5.254 2.727 7.832.92 2.57 1.828 5.126 2.85 7.639.974 2.53 2.057 5.018 3.142 7.523 1.102 2.499 2.26 4.985 3.356 7.583-2.036-1.955-3.748-4.201-5.24-6.581-1.508-2.374-2.744-4.913-3.799-7.521-1.008-2.626-1.84-5.324-2.36-8.09-.537-2.756-.823-5.566-.676-8.384zm-6.928 8.34c.773 2.905 1.283 5.822 1.771 8.72.505 2.898.923 5.786 1.454 8.642a139.136 139.136 0 001.727 8.523c.676 2.825 1.475 5.62 2.352 8.493-1.887-2.345-3.301-5.048-4.388-7.855-1.107-2.807-1.839-5.741-2.382-8.687-.493-2.957-.804-5.93-.878-8.907-.092-2.975-.011-5.945.344-8.928zm39.452-27.555c1.075 2.2 1.96 4.407 2.829 6.609.885 2.196 1.714 4.395 2.549 6.593.829 2.2 1.658 4.399 2.445 6.633.802 2.227 1.594 4.469 2.237 6.832-1.643-1.818-2.991-3.838-4.177-5.942a45.666 45.666 0 01-3.063-6.558c-.847-2.261-1.545-4.58-2.028-6.948-.498-2.363-.822-4.77-.792-7.22zm.425-8.53c-1.75-.496-3.361-1.044-4.97-1.545-1.614-.484-3.2-.952-4.804-1.363a129.624 129.624 0 00-4.861-1.14c-1.65-.343-3.323-.65-5.094-1.07 1.679-.714 3.48-1.012 5.279-1.056 1.804-.061 3.614.167 5.363.619 1.747.458 3.44 1.138 4.986 2.069 1.55.914 2.98 2.048 4.101 3.486z" stroke="#5C846A" stroke-opacity=".2" stroke-width="2" mask="url(#a)"/><path d="M146.117 23.095c-3.343-.723-6.59-1.626-9.831-2.45-3.244-.805-6.467-1.593-9.721-2.14a71.768 71.768 0 00-9.81-1.097 65.065 65.065 0 00-10.007.409c3.086-1.492 6.517-2.27 9.96-2.542 3.453-.293 6.932-.038 10.333.539a54.258 54.258 0 019.891 2.807c3.188 1.227 6.262 2.7 9.185 4.474zm-13.748 9.581c-3.083-.356-6.083-.764-9.083-1.077-3-.296-5.986-.56-8.981-.67-2.992-.16-5.99-.166-9.004-.143-3.016.04-6.041.174-9.144.246 2.872-1.187 5.903-1.926 8.973-2.373 3.072-.465 6.192-.577 9.299-.46 3.105.169 6.201.564 9.218 1.305 3.017.723 5.969 1.733 8.722 3.172zm-18.536 11.076c-2.637.363-5.193.659-7.724 1.044-2.526.402-5.028.83-7.498 1.409-2.481.529-4.928 1.203-7.385 1.912-2.455.727-4.894 1.543-7.438 2.33 1.985-1.78 4.268-3.187 6.674-4.323 2.403-1.154 4.955-1.984 7.555-2.587 2.61-.554 5.273-.887 7.938-.862 2.66.008 5.324.31 7.878 1.077zm-12.457 11.864c-3.051.43-6.033.798-8.99 1.26-2.952.482-5.88.996-8.776 1.668-2.906.622-5.777 1.398-8.653 2.215-2.874.834-5.73 1.765-8.678 2.665 2.423-1.911 5.126-3.43 7.947-4.671 2.819-1.26 5.78-2.184 8.79-2.878 3.02-.645 6.096-1.062 9.182-1.117 3.082-.07 6.174.157 9.178.858zm-5.54 6.878c-3.07 1.43-6.202 2.603-9.32 3.76-3.111 1.174-6.23 2.269-9.288 3.485a143.58 143.58 0 00-9.082 3.827c-2.982 1.392-5.898 2.924-8.853 4.572 2.244-2.54 4.95-4.656 7.834-6.447 2.88-1.812 5.969-3.255 9.113-4.5a76.716 76.716 0 019.66-2.971c3.268-.783 6.569-1.39 9.936-1.726zm5.04-5.409l.647 7.52c.246 2.467.517 4.907.872 7.339.349 2.433.775 4.85 1.235 7.286.477 2.433 1.02 4.865 1.494 7.399-1.522-2.086-2.662-4.41-3.549-6.821-.903-2.41-1.519-4.926-1.887-7.475-.362-2.55-.48-5.138-.292-7.704.172-2.563.61-5.114 1.48-7.544zm9.341-3.882c.586 2.349 1.02 4.649 1.473 6.934l1.403 6.805 1.493 6.785c.517 2.27 1.056 4.549 1.475 6.934-1.464-1.933-2.588-4.07-3.507-6.284-.936-2.211-1.634-4.52-2.135-6.867-.495-2.35-.798-4.741-.842-7.141-.062-2.396.093-4.805.64-7.166zm10.138-9.121l1.214 7.019c.448 2.29.934 4.546 1.516 6.78a115.134 115.134 0 001.959 6.667l2.331 6.732c-1.75-1.711-3.15-3.735-4.292-5.89-1.159-2.15-2.032-4.456-2.645-6.824-.607-2.37-.959-4.81-.984-7.252-.043-2.44.2-4.888.901-7.232zm10.537-8.967c.783 1.82 1.374 3.617 1.95 5.407.592 1.785 1.126 3.565 1.665 5.345a202.022 202.022 0 011.554 5.378c.505 1.81.998 3.639 1.342 5.59-1.363-1.442-2.427-3.083-3.326-4.802-.915-1.714-1.631-3.525-2.189-5.381-.552-1.858-.95-3.765-1.128-5.7-.193-1.928-.209-3.884.132-5.837zm11.863-9.303c.68 2.252 1.187 4.47 1.694 6.677l1.509 6.584 1.488 6.588c.497 2.209.996 4.429 1.353 6.755-1.408-1.89-2.489-3.961-3.385-6.105-.912-2.14-1.605-4.367-2.121-6.633-.51-2.267-.848-4.575-.948-6.9-.119-2.32-.04-4.655.41-6.966zM90.437 70.265c1.332 2.419 2.23 5.049 2.836 7.74.623 2.692.892 5.46.928 8.226-.014 2.766-.264 5.536-.87 8.232-.585 2.695-1.468 5.33-2.786 7.758.226-2.75.498-5.407.674-8.06.159-2.652.28-5.286.248-7.922.018-2.636-.122-5.27-.298-7.921-.193-2.65-.485-5.306-.732-8.053zM76.136 86.479c1.117 2.218 1.852 4.585 2.358 6.994.524 2.409.78 4.874.825 7.339.038 2.466-.14 4.937-.584 7.362-.428 2.425-1.087 4.814-2.135 7.067-.068-2.48-.012-4.878.01-7.266.007-2.387.016-4.752-.024-7.119-.033-2.367-.12-4.731-.201-7.117-.1-2.384-.234-4.78-.25-7.26zM65.813 92.26c-2.201 1.055-4.365 1.977-6.5 2.939-2.127.977-4.23 1.953-6.305 2.989a225.01 225.01 0 00-6.191 3.217c-2.056 1.119-4.101 2.284-6.273 3.396 1.434-1.979 3.19-3.678 5.097-5.177 1.899-1.514 3.976-2.804 6.152-3.885 2.179-1.076 4.46-1.95 6.816-2.546 2.347-.61 4.762-.984 7.204-.932zm2.797 5.776c.86 1.199 1.42 2.503 1.853 3.835.423 1.336.696 2.709.832 4.095a19.717 19.717 0 01-.027 4.178c-.17 1.391-.468 2.778-1.087 4.12-.52-1.381-.811-2.722-1.063-4.055a47.515 47.515 0 01-.545-3.98 49.194 49.194 0 01-.225-4.011c-.007-1.356.02-2.728.262-4.182zm-8.915 4.796c-1.691.995-3.368 1.817-5.03 2.639l-9.871 4.912c-1.658.829-3.326 1.668-5.142 2.413 1.1-1.63 2.483-3.001 3.988-4.208 1.498-1.221 3.144-2.251 4.872-3.111 1.73-.855 3.545-1.547 5.423-2.002 1.87-.471 3.798-.747 5.76-.643zm-.287 1.976c1.133 2.754 1.865 5.641 2.354 8.564.507 2.924.707 5.894.728 8.861-.03 2.968-.244 5.936-.763 8.858-.501 2.921-1.247 5.805-2.396 8.553.033-2.976.177-5.878.273-8.771.078-2.893.17-5.768.152-8.646.033-2.878-.046-5.754-.111-8.647-.081-2.895-.214-5.797-.237-8.772zm3.609-3.031c1.405 1.175 2.503 2.637 3.387 4.209.902 1.568 1.559 3.273 2.004 5.026.44 1.756.665 3.568.61 5.377-.036 1.804-.314 3.611-1.001 5.311-.45-1.773-.772-3.456-1.123-5.117-.368-1.657-.73-3.285-1.138-4.904-.402-1.621-.853-3.227-1.31-4.862-.473-1.631-.986-3.266-1.43-5.04z" stroke="#5C846A" stroke-opacity=".2" stroke-width="2" mask="url(#a)"/><path d="M149.701 20.154C107.063 47.742 67.705 81.22 45.583 127.996c-.195.412.446.833.698.429C61.269 104.377 78.32 81.662 99.1 62.292c16.083-14.993 33.948-27.756 51.174-41.357.493-.39-.05-1.12-.573-.781zm-30.509.238c-1.401 2.88-2.889 5.653-4.565 8.3-1.686 2.637-3.518 5.167-5.554 7.525-2.008 2.382-4.216 4.59-6.554 6.672-2.348 2.073-4.85 3.982-7.472 5.823 3.014-1.097 5.85-2.691 8.458-4.596 2.62-1.896 4.988-4.137 7.103-6.59 2.086-2.48 3.925-5.171 5.382-8.058 1.467-2.877 2.593-5.928 3.202-9.076zm-11.587 4.263c-1.779 2.691-3.593 5.298-5.547 7.785-1.964 2.477-4.029 4.86-6.257 7.084-2.2 2.25-4.56 4.34-7.017 6.329-2.467 1.98-5.052 3.823-7.724 5.633 3.051-1.06 5.945-2.57 8.651-4.36 2.717-1.782 5.223-3.883 7.523-6.183 2.274-2.327 4.349-4.856 6.1-7.592 1.762-2.726 3.241-5.635 4.271-8.696zM94.39 30.377c-1.9 1.95-3.761 3.867-5.693 5.7-1.938 1.822-3.911 3.59-5.983 5.24-2.047 1.68-4.19 3.24-6.376 4.755-2.196 1.505-4.458 2.925-6.761 4.38 2.64-.684 5.17-1.745 7.578-3.034 2.417-1.279 4.69-2.824 6.828-4.532 2.115-1.737 4.1-3.637 5.856-5.733 1.762-2.086 3.33-4.34 4.551-6.776zm-10.6 2.72c-2.061 1.487-4.065 2.962-6.114 4.358-2.055 1.384-4.124 2.725-6.264 3.95-2.12 1.256-4.307 2.395-6.525 3.501-2.225 1.094-4.495 2.111-6.804 3.174 2.532-.252 5.014-.874 7.414-1.722 2.407-.837 4.718-1.942 6.93-3.211 2.194-1.302 4.294-2.768 6.208-4.45 1.92-1.672 3.686-3.523 5.154-5.6zm-13.766 1.91c-2.695 1.265-5.336 2.538-8.008 3.728-2.677 1.177-5.36 2.313-8.093 3.322-2.718 1.045-5.483 1.965-8.27 2.849-2.792.872-5.615 1.662-8.474 2.494 2.98-.001 5.947-.37 8.866-.969 2.925-.588 5.791-1.45 8.59-2.487 2.786-1.073 5.507-2.32 8.09-3.81 2.588-1.48 5.06-3.162 7.3-5.127zm-18.786 2.569c-3.26 1.154-6.493 2.256-9.761 3.206-3.271.937-6.562 1.767-9.894 2.4-3.324.67-6.685 1.147-10.067 1.515-3.386.355-6.794.558-10.249.724 3.396.672 6.874.912 10.345.848 3.474-.052 6.942-.454 10.359-1.107 3.41-.69 6.772-1.628 10.008-2.894 3.239-1.252 6.368-2.788 9.259-4.692zM30.39 36.532c-2.32.05-4.594.214-6.862.37-2.268.143-4.523.326-6.782.454l-6.783.436c-2.268.142-4.543.28-6.852.537 2.25.58 4.546.884 6.848 1.038 2.304.165 4.616.135 6.919.001 2.302-.172 4.597-.445 6.859-.912 2.262-.454 4.499-1.055 6.654-1.924zm7.415-.196c-1.578-2.14-3.467-4.04-5.519-5.739-2.046-1.71-4.286-3.187-6.624-4.478-2.356-1.259-4.814-2.333-7.363-3.117-2.543-.795-5.165-1.343-7.82-1.497 2.47.975 4.894 1.925 7.268 2.972 2.366 1.058 4.695 2.17 6.953 3.415 2.276 1.213 4.477 2.56 6.655 3.968 2.17 1.419 4.287 2.933 6.45 4.476zM56.2 34.401c-1.952-1.988-4.185-3.683-6.53-5.182-2.342-1.512-4.82-2.79-7.342-3.952a78.596 78.596 0 00-7.751-2.988c-2.628-.862-5.29-1.607-8.018-2.16 2.44 1.343 4.945 2.498 7.447 3.628l7.491 3.358a208.305 208.305 0 017.4 3.479c2.442 1.215 4.85 2.5 7.303 3.817zm13.776-.161c-1.757-2.28-3.804-4.324-6.007-6.18-2.196-1.868-4.58-3.513-7.06-4.99-2.498-1.445-5.098-2.72-7.8-3.725-2.696-1.016-5.48-1.804-8.33-2.219 2.606 1.22 5.176 2.4 7.699 3.662 2.515 1.273 4.998 2.587 7.411 4.021 2.433 1.403 4.792 2.928 7.132 4.5 2.335 1.585 4.619 3.252 6.955 4.93zm12.68-3.31c-1.71-1.17-3.452-2.203-5.193-3.226L72.24 24.68c-1.755-.979-3.491-1.988-5.264-2.953-1.767-.977-3.545-1.948-5.425-2.82 1.38 1.548 2.933 2.898 4.565 4.139 1.625 1.252 3.354 2.358 5.125 3.388 1.791.996 3.624 1.92 5.53 2.68 1.9.768 3.853 1.417 5.886 1.817zm4.78-1.478c-1.692-1.853-3.324-3.68-4.848-5.582-1.512-1.91-2.947-3.863-4.234-5.913-1.32-2.03-2.49-4.153-3.589-6.326-1.088-2.18-2.062-4.428-3.037-6.74.157 2.508.738 4.982 1.587 7.357.84 2.383 1.99 4.654 3.34 6.796 1.38 2.12 2.958 4.119 4.77 5.88 1.8 1.766 3.801 3.331 6.011 4.528zm9.286-2.502c-1.382-.31-2.213-1.233-3.149-2.133-.926-.953-1.874-1.869-2.812-2.791-.943-.919-1.885-1.838-2.86-2.746-.97-.914-1.946-1.835-3.063-2.7.427 1.345 1.084 2.575 1.86 3.717a19.532 19.532 0 002.654 3.173 19.84 19.84 0 003.242 2.572c.59.384 1.244.727 1.957.946.711.202 1.514.262 2.17-.037z" stroke="#5C846A" stroke-opacity=".2" stroke-width="2" mask="url(#a)"/><path d="M107.138 26.081c-1.452-1.586-2.887-3.105-4.257-4.67-1.359-1.573-2.685-3.156-3.913-4.814-1.258-1.636-2.419-3.344-3.56-5.08-1.13-1.746-2.2-3.54-3.332-5.37.345 2.127 1.046 4.178 1.954 6.13.898 1.96 2.042 3.803 3.329 5.536 1.317 1.71 2.777 3.314 4.418 4.713 1.63 1.405 3.411 2.64 5.361 3.555zm9.356-4.006c-.829-1.417-1.772-2.703-2.743-3.957a73.239 73.239 0 00-3.009-3.659 72.035 72.035 0 00-3.223-3.473c-1.113-1.13-2.262-2.234-3.557-3.244.626 1.519 1.442 2.91 2.337 4.24a36.039 36.039 0 002.924 3.804 36.335 36.335 0 003.383 3.404c1.2 1.064 2.468 2.058 3.888 2.885zM46.508 34.46c-1.679-2.147-3.719-4-5.911-5.627-2.188-1.64-4.555-3.02-6.978-4.257a66.019 66.019 0 00-7.496-3.159c-2.552-.902-5.142-1.674-7.8-2.253 2.356 1.363 4.78 2.541 7.195 3.707 2.41 1.178 4.829 2.3 7.197 3.508a120.185 120.185 0 017.016 3.763c2.296 1.34 4.53 2.784 6.777 4.318zm-19.098.67c-1.27-1.174-2.708-2.117-4.216-2.919a26.712 26.712 0 00-4.727-1.973 26.606 26.606 0 00-5.012-1.06c-1.697-.196-3.417-.235-5.128.015 1.626.586 3.225 1.052 4.813 1.528l4.728 1.443 4.713 1.491c1.577.51 3.159 1.034 4.828 1.476zm6.244 1.751c-1.72.608-3.346 1.297-4.97 1.973l-4.852 2-4.865 1.968c-1.632.654-3.276 1.303-4.927 2.076 1.824.05 3.624-.185 5.387-.57a30.277 30.277 0 005.168-1.607 30.486 30.486 0 004.812-2.475c1.528-.96 2.978-2.053 4.247-3.365z" stroke="#5C846A" stroke-opacity=".2" stroke-width="2" mask="url(#a)"/><path d="M31.688 35.924c-1.947-1.71-4.081-3.176-6.304-4.488-2.218-1.324-4.55-2.451-6.928-3.458-2.393-.972-4.838-1.823-7.343-2.456-2.499-.645-5.046-1.117-7.631-1.282 2.395.983 4.782 1.868 7.15 2.782 2.365.925 4.723 1.835 7.052 2.82 2.343.948 4.655 1.973 6.981 2.99 2.322 1.027 4.635 2.09 7.023 3.092zm-4.484-1.004c-2.25.027-4.43-.006-6.602-.15a89.268 89.268 0 01-6.48-.692c-2.159-.278-4.315-.649-6.496-.967-2.18-.33-4.377-.652-6.626-.786 2.043.948 4.142 1.699 6.286 2.324a46.366 46.366 0 006.563 1.428c2.23.285 4.497.428 6.757.263 2.254-.152 4.507-.571 6.598-1.42zm13.609.05c-1.468-1.658-3.128-3.113-4.876-4.447-1.74-1.345-3.598-2.531-5.504-3.628-1.925-1.063-3.901-2.037-5.954-2.829-2.046-.803-4.151-1.467-6.332-1.86 1.876 1.176 3.772 2.23 5.66 3.284 1.88 1.066 3.77 2.092 5.637 3.163 1.884 1.038 3.742 2.123 5.628 3.178 1.88 1.067 3.763 2.143 5.741 3.14zm2.584 2.008c-1.32 1.437-2.476 2.955-3.638 4.44-1.17 1.477-2.309 2.95-3.545 4.32a39.416 39.416 0 01-3.903 3.894 34.967 34.967 0 01-4.566 3.303c1.944-.22 3.819-.989 5.494-2.03 1.69-1.034 3.173-2.371 4.487-3.833a27.666 27.666 0 003.341-4.789 29.385 29.385 0 002.33-5.305zm16.311-1.505c-1.106 1.359-2.502 2.138-3.946 2.97a179.726 179.726 0 00-4.364 2.516c-1.443.853-2.88 1.715-4.309 2.615-1.431.894-2.866 1.8-4.26 2.855 1.725-.283 3.377-.805 4.972-1.45a32.773 32.773 0 004.625-2.283c1.478-.883 2.899-1.855 4.228-2.961a12.526 12.526 0 001.89-1.87c.547-.713 1.01-1.522 1.164-2.392zm12.559-.396c-1.824 1.398-3.583 2.788-5.382 4.108-1.806 1.308-3.62 2.582-5.504 3.75-1.864 1.2-3.792 2.296-5.747 3.369-1.964 1.061-3.97 2.056-6.014 3.11 2.288-.25 4.521-.857 6.67-1.678 2.156-.811 4.212-1.877 6.17-3.096 1.937-1.25 3.78-2.652 5.435-4.254 1.661-1.592 3.166-3.35 4.372-5.309zm-9.476-1.147c-1.51-1.894-3.26-3.573-5.128-5.104-1.862-1.542-3.873-2.899-5.952-4.132-2.1-1.2-4.273-2.278-6.534-3.135-2.254-.868-4.579-1.558-6.973-1.933 2.12 1.17 4.233 2.25 6.319 3.365 2.079 1.127 4.148 2.248 6.173 3.447 2.044 1.166 4.041 2.411 6.05 3.66 2 1.261 3.982 2.565 6.045 3.833zm13.217-1.043c-1.094-1.724-2.438-3.261-3.904-4.666-1.46-1.416-3.074-2.665-4.759-3.803-1.706-1.107-3.487-2.102-5.362-2.89-1.867-.8-3.809-1.433-5.825-1.761 1.71 1.112 3.418 2.123 5.102 3.16 1.675 1.046 3.345 2.077 4.973 3.173 1.649 1.066 3.25 2.199 4.87 3.33 1.615 1.141 3.213 2.317 4.905 3.457zm12.03-.633c-1.559 1.701-3.004 3.442-4.454 5.171-1.46 1.72-2.884 3.457-4.353 5.156-1.44 1.724-2.92 3.412-4.382 5.131-1.47 1.711-2.952 3.422-4.376 5.238 1.98-1.188 3.793-2.605 5.5-4.135 1.718-1.522 3.298-3.191 4.796-4.928 1.47-1.762 2.858-3.593 4.08-5.535 1.233-1.934 2.337-3.952 3.19-6.098zm11.266-3.053c-1.568 1.66-3.05 3.328-4.561 4.96-1.521 1.62-3.035 3.232-4.617 4.776-1.555 1.572-3.174 3.077-4.804 4.59-1.638 1.503-3.314 2.975-4.981 4.537 2.12-.854 4.1-2.003 5.967-3.309 1.876-1.298 3.61-2.79 5.24-4.387 1.604-1.624 3.106-3.35 4.413-5.22 1.317-1.859 2.476-3.832 3.343-5.947zm10.232-3.256c-1.671 2.429-3.169 4.938-4.673 7.424-1.516 2.48-2.997 4.963-4.594 7.358a85.312 85.312 0 01-5.044 6.983 70.42 70.42 0 01-5.89 6.393c2.618-1.364 4.973-3.233 7.061-5.339 2.105-2.102 3.921-4.468 5.559-6.93a64.986 64.986 0 004.289-7.722 70.65 70.65 0 003.292-8.168zm-5.251.509l-5.176-3.44c-1.68-1.165-3.34-2.336-4.932-3.596-1.617-1.229-3.166-2.542-4.713-3.878l-4.63-4.147c.915 1.91 2.133 3.653 3.51 5.254 1.37 1.613 2.934 3.055 4.598 4.366 1.686 1.28 3.474 2.433 5.378 3.356 1.896.933 3.888 1.676 5.965 2.085zm7.191-2.341c-1.51-1.434-2.978-2.814-4.373-4.255-1.383-1.449-2.72-2.92-3.949-4.48-1.259-1.538-2.409-3.16-3.526-4.82-1.108-1.672-2.141-3.401-3.22-5.182.287 2.066.955 4.064 1.847 5.953.882 1.897 2.028 3.668 3.327 5.313 1.329 1.621 2.812 3.12 4.478 4.388 1.653 1.275 3.461 2.356 5.416 3.083zm-18.91 5.717c-1.18-1.712-2.388-3.336-3.555-4.98-1.156-1.65-2.309-3.286-3.387-4.973-1.11-1.665-2.146-3.378-3.192-5.099-1.036-1.729-2.04-3.486-3.138-5.254.31 2.06.933 4.049 1.731 5.962.787 1.92 1.79 3.747 2.911 5.494 1.152 1.726 2.423 3.378 3.867 4.87 1.432 1.498 3.003 2.868 4.763 3.98zm-7.978.62c-1.42-1.704-2.96-3.255-4.497-4.784-1.53-1.54-3.092-3.022-4.586-4.56a102.642 102.642 0 01-4.398-4.673c-1.413-1.61-2.757-3.284-4.113-5.036.608 2.136 1.633 4.14 2.86 5.991 1.22 1.863 2.675 3.555 4.219 5.138a47.082 47.082 0 004.99 4.325c1.754 1.324 3.577 2.54 5.525 3.598zm33.417-12.023c-.867-1.586-1.819-3.06-2.775-4.522-.946-1.469-1.917-2.905-2.885-4.345-.973-1.438-1.943-2.874-2.954-4.3-.999-1.433-2.012-2.865-3.162-4.26.395 1.765 1.037 3.438 1.799 5.049a33.776 33.776 0 002.645 4.64 34.014 34.014 0 003.321 4.183c1.211 1.308 2.522 2.528 4.011 3.555zm5.32 3.378c-.447 1.266-.804 2.47-1.188 3.653a88.741 88.741 0 01-1.227 3.475 94.946 94.946 0 01-1.385 3.414c-.497 1.14-1.025 2.278-1.527 3.524 1.146-.707 2.093-1.665 2.887-2.73a13.982 13.982 0 001.913-3.494c.468-1.248.78-2.557.879-3.885.11-1.324.036-2.669-.352-3.957z" stroke="#5C846A" stroke-opacity=".2" stroke-width="2" mask="url(#a)"/><path d="M126.479 19.38c-.989 2.321-1.829 4.662-2.715 6.965-.897 2.298-1.796 4.575-2.854 6.768a52.907 52.907 0 01-3.521 6.377 47.996 47.996 0 01-4.511 5.854c2.214-1.223 4.144-2.959 5.776-4.916 1.649-1.955 2.978-4.16 4.08-6.454a40.052 40.052 0 002.525-7.155 42.277 42.277 0 001.22-7.44zm-11.632 4.2c-1.099 2.01-2.132 3.99-3.222 5.93-1.101 1.934-2.215 3.845-3.426 5.696-1.178 1.87-2.452 3.68-3.751 5.485-1.31 1.8-2.679 3.565-4.045 5.403 1.939-1.224 3.676-2.734 5.254-4.393 1.589-1.653 2.987-3.484 4.24-5.406 1.222-1.942 2.304-3.975 3.143-6.109.851-2.125 1.501-4.334 1.807-6.606zm-14.572 6.442c-1.343 1.434-2.61 2.847-3.921 4.208-1.319 1.35-2.644 2.674-4.045 3.916-1.376 1.269-2.825 2.455-4.3 3.633-1.484 1.17-3.015 2.29-4.574 3.487 1.919-.436 3.74-1.212 5.45-2.177 1.719-.956 3.307-2.14 4.778-3.448 1.446-1.336 2.782-2.799 3.903-4.415 1.129-1.605 2.082-3.34 2.709-5.204zM87.818 32.47c-1.56 1.654-3.052 3.294-4.591 4.877-1.548 1.574-3.106 3.118-4.745 4.576-1.614 1.486-3.305 2.884-5.023 4.269-1.727 1.375-3.505 2.699-5.304 4.091 2.184-.645 4.25-1.626 6.2-2.796 1.96-1.161 3.78-2.55 5.481-4.068 1.677-1.545 3.238-3.22 4.587-5.055 1.356-1.827 2.537-3.786 3.395-5.894zm-6.504.404c-2.17 1.24-4.212 2.627-6.237 4.011-2.034 1.375-4.022 2.786-6.059 4.11a105.903 105.903 0 01-6.176 3.84c-2.11 1.203-4.276 2.306-6.528 3.384 2.487-.27 4.915-.998 7.223-1.971 2.319-.962 4.505-2.208 6.595-3.571a56.611 56.611 0 005.907-4.553c1.865-1.635 3.637-3.365 5.275-5.25zm5.406-.728l-4.254-3.595a119.467 119.467 0 01-4.05-3.653 123.052 123.052 0 01-3.862-3.85c-1.262-1.324-2.496-2.688-3.82-4.054.608 1.806 1.521 3.483 2.596 5.046a26.526 26.526 0 003.698 4.322 26.655 26.655 0 004.517 3.46c1.617.989 3.34 1.812 5.175 2.324zm6.32-3.972c-1.165-1.355-2.365-2.597-3.549-3.843l-3.5-3.746-3.452-3.791c-1.147-1.28-2.29-2.576-3.548-3.845.54 1.706 1.348 3.294 2.29 4.792a27.958 27.958 0 003.227 4.213 28.076 28.076 0 003.943 3.55c1.417 1.06 2.934 1.993 4.59 2.67zm9.816-2.223l-3.71-3.723a83.217 83.217 0 01-3.439-3.804 84.944 84.944 0 01-3.18-4.02l-3.062-4.274c.285 1.783.907 3.489 1.719 5.095a22.494 22.494 0 002.983 4.502 22.543 22.543 0 003.949 3.684c1.451 1.066 3.03 1.963 4.74 2.54zm9.894-2.526c-.763-1.247-1.594-2.37-2.426-3.48-.823-1.117-1.668-2.197-2.51-3.28-.847-1.08-1.692-2.16-2.578-3.229-.875-1.076-1.766-2.152-2.795-3.19.288 1.435.823 2.775 1.475 4.05a21.7 21.7 0 002.308 3.612 21.823 21.823 0 002.953 3.108c1.079.939 2.251 1.782 3.573 2.41zm10.659-3.177c-1.067-1.37-2.187-2.62-3.3-3.867l-3.323-3.715-3.334-3.704c-1.119-1.241-2.243-2.488-3.492-3.695.537 1.654 1.325 3.188 2.234 4.642a28.818 28.818 0 003.092 4.104 28.817 28.817 0 003.752 3.512c1.346 1.06 2.787 2.009 4.371 2.723zM74.332 32.815c-.89-1.833-2.091-3.495-3.454-5.007-1.356-1.523-2.909-2.865-4.56-4.066-1.672-1.17-3.447-2.2-5.329-2.985-1.873-.796-3.837-1.388-5.861-1.628 1.752 1.036 3.47 2.005 5.142 3.03 1.666 1.034 3.304 2.083 4.878 3.227 1.596 1.113 3.123 2.32 4.645 3.556 1.514 1.245 2.99 2.553 4.539 3.873zM58.47 34.516c-.86-1.618-1.973-3.07-3.209-4.401a27.878 27.878 0 00-4.07-3.625 27.742 27.742 0 00-4.683-2.787c-1.643-.775-3.363-1.397-5.167-1.726 1.465 1.098 2.934 2.087 4.382 3.09 1.44 1.014 2.869 2.017 4.278 3.05 1.411 1.029 2.799 2.088 4.2 3.155 1.395 1.076 2.78 2.178 4.268 3.244zm-7.884 3.754c-1.573.877-3.05 1.787-4.54 2.663a159.135 159.135 0 01-4.488 2.524 165.835 165.835 0 01-4.577 2.358c-1.55.762-3.124 1.497-4.72 2.332 1.804-.02 3.576-.354 5.292-.864a25.408 25.408 0 004.962-2.05 25.538 25.538 0 004.44-3.02c1.367-1.154 2.622-2.45 3.631-3.943zm-2.287-4.144c-.355-1.03-.902-1.922-1.52-2.751a14.79 14.79 0 00-2.112-2.247 14.546 14.546 0 00-2.529-1.764c-.91-.491-1.872-.902-2.945-1.102.61.902 1.294 1.65 1.99 2.37.7.712 1.42 1.382 2.165 2.024a36.274 36.274 0 002.32 1.845c.814.582 1.653 1.15 2.631 1.625zm-6.689 3.325c-1.32.595-2.53 1.255-3.733 1.905l-7.167 3.853c-1.206.645-2.422 1.292-3.645 2.069 1.45.032 2.866-.217 4.235-.609a19.26 19.26 0 003.95-1.609 19.346 19.346 0 003.518-2.413c1.08-.926 2.069-1.97 2.842-3.196zm-1.313-.666c-1.176-1.857-2.603-3.528-4.155-5.069-1.546-1.552-3.25-2.938-5.028-4.215-1.8-1.247-3.68-2.383-5.66-3.316-1.974-.944-4.03-1.723-6.174-2.203 1.806 1.249 3.616 2.4 5.4 3.575 1.776 1.186 3.547 2.356 5.273 3.593 1.747 1.207 3.446 2.48 5.161 3.753 1.71 1.283 3.4 2.6 5.183 3.882zm3.363-.883c-.108-1.347-.52-2.631-1.09-3.834a14.677 14.677 0 00-2.174-3.35 14.57 14.57 0 00-2.979-2.66c-1.102-.746-2.31-1.349-3.626-1.66.876 1.027 1.753 1.939 2.604 2.858.84.928 1.667 1.84 2.469 2.776.805.933 1.58 1.89 2.37 2.861.78.98 1.547 1.986 2.427 3.01z" stroke="#5C846A" stroke-opacity=".2" stroke-width="2" mask="url(#a)"/><path d="M129.778 18.476C94.985 32.401 58.042 41.84 20.437 35.228c-.332-.058-.312-.624.039-.603 20.874 1.222 41.826.632 62.35-3.629 15.887-3.297 31.19-8.618 46.726-13.198.444-.13.653.507.226.678z" stroke="#5C846A" stroke-opacity=".2" stroke-width="2" mask="url(#a)"/></svg>