<svg aria-hidden="true" style="position:absolute;width:0;height:0" xmlns="http://www.w3.org/2000/svg" overflow="hidden"><defs><symbol id="arrow_down" viewBox="0 0 32 32"><path fill="none" d="M29.538 13.5c-5.326 1.268-15.977 6.25-15.977 16.039m.001-.001C8.016 14.291.949 12.699 0 12.699m13.562 16.839V0"/></symbol><symbol id="arrow_down_long" viewBox="0 0 22 32"><path fill="none" d="M20.211 19.342c-3.644.867-10.932 4.276-10.932 10.974m0 0C5.485 19.884.649 18.794 0 18.794m9.279 11.522V0"/></symbol><symbol id="big_arrow" viewBox="0 0 91 32"><path fill="none" stroke-width="3.2" d="M73.517 1.778c1.243 5.243 6.129 15.729 15.728 15.729m-.001 0c-14.951 5.46-16.513 12.418-16.513 13.352m16.513-13.352H32.741m-30.074 0h13.588m0 0L2.667 10.449m13.588 7.058L2.667 26.15m13.588-8.643h8.374m0 0L13.9 10.449m10.729 7.058L13.9 26.15m10.729-8.643h8.112m0 0l-8.112-7.058m8.112 7.058l-8.112 8.643"/></symbol><symbol id="big_thin_arrow" viewBox="0 0 87 32"><path fill="none" stroke="var(--color1, #e67739)" stroke-width="2.667" d="M70.919 1.444c1.244 5.248 6.134 15.745 15.743 15.745m0 0c-14.966 5.465-16.529 12.43-16.529 13.365m16.529-13.365H0"/></symbol><symbol id="bold_mountain" viewBox="0 0 32 32"><path fill="var(--color2, #3c4839)" d="M11.6 7.667c.769-1.333 2.693-1.333 3.464 0l4.667 8.083 1.203-2.083c.769-1.333 2.693-1.333 3.464 0l5.773 10a2.006 2.006 0 010 2 2 2 0 01-1.732 1l-5.773-.003a1.539 1.539 0 01-.096.003H4.095a2.005 2.005 0 01-1.733-.999 1.995 1.995 0 010-2l9.239-16zm-1.213 7.434l.945.629 1.26-.84a1.335 1.335 0 011.48 0l1.26.84.945-.629L13.332 10l-2.945 5.101z"/></symbol><symbol id="bold_tree" viewBox="0 0 32 32"><path fill="var(--color3, #3a4f37)" d="M16.943 3.057a1.333 1.333 0 00-1.886 0L9.724 8.39a1.334 1.334 0 00-.233 1.571c.329.617.844 1.033 1.347 1.316l-3.78 3.78a1.333 1.333 0 000 1.886c.637.637 1.443 1.027 2.179 1.269l-3.512 3.512a1.335 1.335 0 00.527 2.209c.92.303 1.871.517 2.82.707a35.77 35.77 0 003.793.549l-.797 2.389a1.33 1.33 0 00.184 1.202 1.328 1.328 0 001.082.553h5.333a1.339 1.339 0 001.082-.553 1.342 1.342 0 00.184-1.202l-.797-2.389a35.9 35.9 0 003.793-.548c.949-.191 1.907-.405 2.827-.709a1.332 1.332 0 00.522-2.208l-3.512-3.512c.736-.241 1.541-.632 2.179-1.269a1.333 1.333 0 000-1.886l-3.78-3.78c.503-.283 1.017-.699 1.347-1.316a1.331 1.331 0 00-.233-1.571l-5.333-5.333z"/></symbol><symbol id="cook_hat" viewBox="0 0 31 32"><path fill="var(--color2, #3c4839)" d="M16 2.329a5.114 5.114 0 00-4.902 3.674 5.153 5.153 0 00-2.138-.474 5.122 5.122 0 00-5.12 5.12 5.13 5.13 0 003.84 4.954v9.126h16.64v-9.126a5.133 5.133 0 003.84-4.954 5.122 5.122 0 00-5.12-5.12c-.742 0-1.459.166-2.138.474A5.115 5.115 0 0016 2.329zm-.64 11.52h1.28v8.96h-1.28v-8.96zm-3.84 2.56h1.28v6.4h-1.28v-6.4zm7.68 0h1.28v6.4H19.2v-6.4zm-11.52 9.6v1.28a1.28 1.28 0 001.28 1.28h14.08a1.28 1.28 0 001.28-1.28v-1.28H7.68z"/></symbol><symbol id="facebook" viewBox="0 0 32 32"><path opacity=".01" d="M32 0H0v32h32V0z"/><path fill="none" stroke-linejoin="round" stroke-width="1.143" d="M24 8.399h-4.009c-.724 0-1.311.587-1.311 1.311v4.601H24l-.779 5.065H18.68v9.29h-5.85v-9.291H8V14.31h4.768l.062-4.807-.009-.873a5.245 5.245 0 015.192-5.298H24v5.066z"/></symbol><symbol id="girl" viewBox="0 0 32 32"><path fill="var(--color2, #3c4839)" d="M15.994 9.333a3.333 3.333 0 100-6.667 3.333 3.333 0 000 6.667zm10.008 4.212a1.906 1.906 0 10-.967-3.686c-3.628.951-6.354 1.377-9.033 1.366-2.685-.01-5.419-.46-9.07-1.371a1.902 1.902 0 00-2.31 1.387 1.907 1.907 0 001.387 2.31c1.762.44 3.367.789 4.895 1.038-.301 2-1.901 5.294-2.824 7.073-.309.595.063 1.329.728 1.412 5.654.716 9.231.735 14.434.011a.962.962 0 00.718-1.384c-.899-1.801-2.514-5.211-2.857-7.089 1.528-.248 3.134-.606 4.9-1.068zm-14.77 11.04v3.32a1.428 1.428 0 002.808.373l.895-3.317a37.06 37.06 0 01-3.703-.375zm6.772.369l.897 3.324a1.428 1.428 0 002.808-.373v-3.333a39.01 39.01 0 01-3.705.382z"/></symbol><symbol id="home" viewBox="0 0 32 32"><path d="M16.349 6.331a.5.5 0 00-.692 0L4.151 17.323a.494.494 0 00-.154.362l-.002 10.316a2 2 0 002 2h6.006a.997.997 0 001-1v-8.5a.5.5 0 01.5-.5h5a.504.504 0 01.5.5v8.5a1 1 0 001 1h6.004a2 2 0 002-2V17.685a.51.51 0 00-.154-.362L16.349 6.331z"/><path d="M30.682 15.259l-4.675-4.472V4a.997.997 0 00-1-1h-3a.997.997 0 00-1 1v2l-3.62-3.461C17.048 2.197 16.544 2 16 2c-.543 0-1.045.196-1.384.539L1.322 15.258c-.389.375-.438.992-.084 1.398a.995.995 0 00.71.344.999.999 0 00.739-.278L15.656 4.329a.5.5 0 01.692 0l12.97 12.393a1.002 1.002 0 001.412-.028c.384-.397.352-1.054-.047-1.436z"/></symbol><symbol id="instagram" viewBox="0 0 32 32"><path fill="none" stroke-linejoin="round" stroke-width="1.143" d="M3.51 10.369c.062-1.352.274-2.225.56-2.965l.004-.01a5.539 5.539 0 011.303-2l.008-.008.008-.008a5.532 5.532 0 012-1.302l.013-.005c.739-.287 1.609-.498 2.963-.56M3.51 10.369c-.065 1.445-.082 1.893-.082 5.64s.016 4.194.082 5.64m0-11.28v.364m.566 13.891a5.523 5.523 0 001.302 2l.008.008.008.008a5.552 5.552 0 002 1.303l.011.004c.739.287 1.61.498 2.964.56m-6.293-3.883l-.005-.013c-.287-.739-.498-1.609-.56-2.963m.565 2.976l-.017-.089m-.549-2.887l.022.117m-.022-.117v-.365m.549 3.251l-.526-2.77m.526 2.77c-.223-.59-.453-1.413-.526-2.77m.526 2.77l.023.061a5.517 5.517 0 001.314 2.025 5.513 5.513 0 002.024 1.314c.613.239 1.476.488 2.948.556 1.486.068 1.945.081 5.64.081s4.154-.014 5.64-.081c1.474-.068 2.336-.318 2.947-.555a5.508 5.508 0 002.025-1.314 5.513 5.513 0 001.314-2.024c.239-.613.488-1.476.556-2.948.068-1.486.081-1.946.081-5.64s-.014-4.154-.081-5.64c-.068-1.482-.321-2.345-.559-2.956a5.49 5.49 0 00-1.312-2.016 5.513 5.513 0 00-2.014-1.31c-.613-.24-1.477-.491-2.957-.559l-.366-.016M3.533 21.765a87.061 87.061 0 01-.006-.116l-.016-.366M10.369 3.51c1.445-.066 1.893-.082 5.64-.082s4.194.017 5.639.082m-11.279 0h.365m10.914 0h-.365m.365 0c1.353.062 2.225.274 2.965.56l.01.004a5.539 5.539 0 012 1.303l.008.008.008.008a5.539 5.539 0 011.303 2l.005.013c.287.739.498 1.609.56 2.963M10.734 3.51h10.549m-10.549 0c1.224-.054 1.9-.065 5.274-.065s4.05.012 5.274.065m-10.548 0l-.366.016c-1.474.068-2.336.318-2.947.555A5.494 5.494 0 005.39 5.402 5.496 5.496 0 004.086 7.41c-.24.613-.491 1.478-.559 2.958l-.016.365m24.996 10.915c-.062 1.354-.273 2.224-.56 2.964l-.004.011a5.539 5.539 0 01-1.303 2l-.008.008-.008.008a5.532 5.532 0 01-2 1.302l-.013.005c-.739.287-1.609.498-2.963.56M3.51 21.282c-.054-1.224-.065-1.9-.065-5.274 0-3.375.011-4.05.065-5.275m0 10.549V10.733M13.771 21.41a5.843 5.843 0 006.371-1.267 5.848 5.848 0 00-4.134-9.98 5.84 5.84 0 00-4.134 1.712 5.865 5.865 0 00-1.712 4.134 5.84 5.84 0 001.712 4.134 5.826 5.826 0 001.897 1.267zm-1.91-9.549a5.865 5.865 0 118.295 8.295 5.865 5.865 0 01-8.295-8.295zm13.315-3.083a1.679 1.679 0 11-3.358 0 1.679 1.679 0 013.358 0z"/></symbol><symbol id="left_arrow" viewBox="0 0 42 32"><path fill="none" stroke-width="1.907" d="M18.491 1.6C17.156 7.231 11.909 18.493 1.6 18.493m0 0c16.057 5.864 16.891 12.26 16.891 13.263M1.6 18.493h39.236"/></symbol><symbol id="mountain" viewBox="0 0 47 32"><path fill="none" stroke="var(--color2, #3c4839)" stroke-width="1.92" d="M1.28 29.239l6.474-12.182m38.534 12.182L35.006 13.912 25.001 24.258l-5.599-10.346M7.754 17.057l6.474-12.182 5.175 9.037M7.754 17.057l3.669 3.215 2.804-4.455 3.87 1.239 1.306-3.145"/></symbol><symbol id="one_tree" viewBox="0 0 20 32"><path fill="none" stroke="var(--color5, #99b7a2)" stroke-width="1.829" d="M9.991 31.92V1.444m0 .226c-.553 2.242-2.474 6.742-5.728 6.808m5.728 2.324c-.636 2.103-3.005 6.176-7.388 5.645m7.388 4.316c-1.55 2.352-5.413 6.791-8.467 5.728M9.992 1.67c.553 2.242 2.474 6.742 5.728 6.808m-5.728 2.324c.636 2.103 3.005 6.176 7.388 5.645m-7.388 4.316c1.55 2.352 5.413 6.791 8.468 5.728"/></symbol><symbol id="point_map" viewBox="0 0 33 32"><path d="M17.277 2.661c-5.881 0-10.667 4.785-10.667 10.66-.039 8.593 10.261 15.719 10.667 16.007 0 0 10.705-7.413 10.667-16 0-5.881-4.785-10.667-10.667-10.667zm0 16c-2.947 0-5.333-2.387-5.333-5.333s2.387-5.333 5.333-5.333c2.947 0 5.333 2.387 5.333 5.333s-2.387 5.333-5.333 5.333z"/></symbol><symbol id="right_arrow" viewBox="0 0 43 32"><path fill="none" stroke="var(--color2, #3c4839)" stroke-width="1.907" d="M23.909 30.4c1.335-5.631 6.582-16.893 16.891-16.893m0 0C24.743 7.643 23.909 1.247 23.909.244M40.8 13.507H1.563"/></symbol><symbol id="sky" viewBox="0 0 31 32"><path fill="none" stroke="var(--color3, #3a4f37)" stroke-linejoin="round" stroke-linecap="round" stroke-width="1.391" d="M3.038 6.467c4.99-.911 2.079-3.764 0-5.076v5.076zm0 0v19.558m0 .001v1.109m0-1.109v1.109m0 0v0zm0 0l-2.12-1.109h4.605l-2.485 1.109z"/><path fill="var(--color3, #3a4f37)" stroke="var(--color3, #3a4f37)" stroke-linejoin="round" stroke-linecap="round" stroke-width="1.391" d="M11.196 1.405c-.579-.253-2.484 3.002-2.62 3.997 0 5.996 1.159 11.469.447 17.783-.724 6.423.386 7.868 2.679 7.868 2.527 0 2.126-6.186 1.727-7.868-.345-1.45.422-16.841.483-17.781s-1.992-3.683-2.716-3.999zm8.12 0c-.579-.253-2.484 3.002-2.62 3.997 0 5.996 1.16 11.469.447 17.783-.724 6.423.386 7.868 2.679 7.868 2.527 0 2.126-6.186 1.727-7.868-.345-1.45.423-16.841.483-17.781s-1.992-3.683-2.716-3.999z"/><path fill="none" stroke="var(--color3, #3a4f37)" stroke-linejoin="round" stroke-linecap="round" stroke-width="1.391" d="M27.571 6.467c-4.99-.911-2.079-3.764 0-5.076v5.076zm0 0v19.558m0 .001v1.109m0-1.109v1.109m0 0v0zm0 0l2.12-1.109h-4.605l2.485 1.109z"/></symbol><symbol id="telegram" viewBox="0 0 32 32"><path fill="none" stroke-linejoin="round" stroke-linecap="round" stroke-width="1.143" d="M27.22 5.654c.76 0 1.333.667 1.027 1.907l-3.72 17.533c-.26 1.247-1.013 1.547-2.053.967l-8.873-6.553a.268.268 0 01-.082-.339.259.259 0 01.082-.095l10.247-9.253c.467-.413-.1-.613-.713-.24l-12.86 8.113a.317.317 0 01-.267.033L4.548 16c-1.213-.353-1.213-1.187.273-1.78l21.847-8.427c.173-.083.361-.131.553-.14z"/></symbol><symbol id="viber" viewBox="0 0 32 32"><path d="M17.048 11.587a.318.318 0 01.334-.301c.656.034 1.202.233 1.591.635.387.401.577.96.611 1.632a.318.318 0 11-.635.031c-.029-.575-.186-.967-.433-1.222-.245-.253-.618-.413-1.167-.442a.318.318 0 01-.301-.334z"/><path d="M16.906 9.58a.317.317 0 10-.046.634c1.211.089 2.121.494 2.771 1.204.653.713.973 1.602.949 2.691a.318.318 0 00.636.014c.027-1.235-.341-2.288-1.116-3.134-.783-.855-1.858-1.311-3.194-1.409z"/><path d="M16.004 8.245a.318.318 0 01.32-.316c1.846.013 3.406.627 4.659 1.849 1.263 1.231 1.888 2.908 1.904 4.99.001.176-.14.319-.316.321s-.319-.14-.32-.316c-.015-1.951-.595-3.451-1.712-4.539-1.127-1.098-2.526-1.656-4.219-1.668a.318.318 0 01-.316-.32zm2.112 9.325c-.241.297-.688.259-.688.259-3.268-.834-4.142-4.144-4.142-4.144s-.039-.447.259-.688l.591-.469c.293-.226.48-.773.181-1.308a13.802 13.802 0 00-.745-1.167 31.54 31.54 0 00-.868-1.084c-.292-.344-.722-.424-1.174-.189l-.005.001-.004.001a4.9 4.9 0 00-1.203.976l-.004.005-.003.004c-.28.338-.44.668-.48.993a1.288 1.288 0 00.056.567l.015.011c.141.501.494 1.336 1.262 2.727.439.805.945 1.571 1.513 2.291.285.361.59.705.914 1.03l.012.012.023.023.104.104c.326.324.67.629 1.03.914.72.568 1.486 1.074 2.291 1.513 1.391.767 2.226 1.121 2.727 1.262l.011.016a1.343 1.343 0 00.567.056c.325-.038.655-.198.992-.48l.009-.007c.387-.347.717-.753.977-1.203l.001-.004.001-.006c.236-.453.156-.882-.191-1.174l-.077-.063a29.636 29.636 0 00-1.008-.805 13.785 13.785 0 00-1.166-.745c-.535-.298-1.081-.111-1.308.181l-.469.59z"/><path d="M25.725 5.881c-.625-.577-3.15-2.409-8.774-2.434 0 0-6.632-.4-9.865 2.566-1.8 1.8-2.433 4.434-2.5 7.7s-.153 9.385 5.746 11.045h.006l-.004 2.532s-.038 1.025.637 1.234c.681.212 1.128-.296 1.71-.958.115-.131.236-.269.365-.407a65.08 65.08 0 001.464-1.656c4.035.34 7.137-.437 7.49-.551a5.06 5.06 0 01.303-.082c1.303-.331 5.188-1.319 5.87-6.892.774-6.307-.374-10.297-2.449-12.095zm.683 11.643c-.57 4.601-3.657 5.319-4.77 5.578-.123.029-.222.052-.29.074-.293.094-3.018.772-6.445.549 0 0-2.553 3.081-3.351 3.882-.125.125-.271.176-.369.151-.137-.034-.175-.196-.174-.434l.022-4.208c-4.825-1.34-4.713-6.254-4.649-9.043l.006-.278c.057-2.728.569-4.962 2.091-6.465 2.735-2.477 8.368-2.107 8.368-2.107 4.757.021 7.037 1.453 7.566 1.933 1.755 1.503 2.649 5.099 1.996 10.367v.002z"/></symbol><symbol id="icon-close" viewBox="0 0 32 32"><path fill="none" stroke="var(--color1, #fff)" stroke-linecap="round" d="M1.28 30.338L30.243 1.375m.477 28.963L1.757 1.375"/></symbol><symbol id="icon-arrow-top" viewBox="0 0 25 32"><path fill="none" stroke="var(--color1, #e67739)" stroke-width="1.467" d="M23.385 14.225c-4.331-1.027-12.994-5.063-12.994-12.993m-.001-.001C5.88 13.582.959 14.224.188 14.224M10.39 1.231v30.182"/></symbol><symbol id="logo-mobile" viewBox="0 0 63 36"><path d="M6.18 34.98V15.161m.001.147c-.376 1.458-1.68 4.385-3.889 4.428m3.89 1.51c-.433 1.368-2.041 4.017-5.017 3.672m5.016 2.807C5.13 29.255 2.507 32.141.433 31.45" stroke="#fff" stroke-width="1.5"/><path d="M6.181 15.308c.376 1.458 1.68 4.385 3.889 4.428m-3.889 1.51c.432 1.368 2.04 4.017 5.016 3.672m-5.016 2.807c1.052 1.53 3.675 4.416 5.749 3.725m8.202-7.506V6.207m.006.189c-.537 2.082-2.398 6.261-5.553 6.322m5.553 2.158c-.617 1.953-2.913 5.735-7.162 5.242m7.162 3.284c-1.502 2.184-5.247 7.03-8.208 6.043m8.208-23.049c.536 2.082 2.398 6.261 5.552 6.322m-5.552 2.158c.617 1.953 2.412 3.845 3.183 4.092m-3.183 5.158c-.16-.231-.417-.231-.16.015" stroke="#fff" stroke-width="1.5"/><path fill-rule="evenodd" clip-rule="evenodd" d="M54.896 20.217l-1.429 3.195h3.168l-1.43-3.195h-.309zm-1.816 4.06l-1.26 2.816h6.461l-1.26-2.816h-3.94zm-3.162 7.07l1.516-3.389h7.234l1.516 3.388H49.918zm-1.73 3.866l1.343-3.002h11.04l1.343 3.002H48.188z" fill="#fff"/><path fill-rule="evenodd" clip-rule="evenodd" d="M41.712 11.823l2.757 6.955h-5.833l3.076-6.954zm-3.519 7.955h6.673l1.177 2.968H36.88l1.313-2.968zm-1.755 3.968h10.001l1.092 2.754H43.82v-1.532h-4.272V26.5H35.22l1.219-2.754zm3.11 3.754h-4.771l-1.643 3.714h6.414V27.5zm4.272 3.714h5.58L47.928 27.5H43.82v3.714zm5.977 1H32.692l-1.327 2.998h19.62l-1.188-2.998z" fill="#fff"/><path fill-rule="evenodd" clip-rule="evenodd" d="M42.437 10.585a.75.75 0 00-.906-.468l-16.002 4.447a.75.75 0 00-.434.325L12.979 34.23H.433v.982h31.766l9.475-22.32 3.412 9.477 3.433 9.994a.737.737 0 00.014.037l1.134 2.812h1.617l-1.241-3.078 4.866-10.969 6.1 14.047h1.636l-7.041-16.211a.75.75 0 00-.91-.418l-8.437 2.609-3.82-10.608zM30.986 34.231H14.749l11.462-18.3 14.222-3.952-9.447 22.252zM53.56 20.504l-4.244 9.567-2.563-7.462 6.807-2.105z" fill="#fff"/><path d="M34.552 4.68c0 2.141-1.821 3.931-4.136 3.931-2.316 0-4.137-1.79-4.137-3.93C26.28 2.54 28.101.75 30.416.75c2.315 0 4.136 1.79 4.136 3.93z" fill="#fff" stroke="#fff" stroke-width="1.5"/></symbol></defs></svg>