<svg width="56" height="42" fill="none" xmlns="http://www.w3.org/2000/svg"><g clip-path="url(#clip0_4536_60715)" stroke="#689762" stroke-width=".9"><path d="M6.947 36V11m-.001.185c-.454 1.84-2.03 5.531-4.699 5.585m4.699 1.907c-.522 1.725-2.465 5.066-6.06 4.63m6.06 3.541c-1.271 1.93-4.44 5.57-6.946 4.699m6.946-20.362c.454 1.84 2.029 5.531 4.698 5.585m-4.698 1.907c.522 1.725 2.465 5.066 6.06 4.63m-6.06 3.541c1.27 1.93 4.44 5.57 6.946 4.699M27.894 36V0m0 .264c-.654 2.648-2.922 7.964-6.766 8.042m6.766 2.745c-.752 2.484-3.55 7.295-8.728 6.668m8.728 5.099c-1.83 2.778-6.394 8.021-10.002 6.766M27.894.264c.654 2.648 2.922 7.964 6.766 8.042m-6.766 2.745c.752 2.484 3.55 7.295 8.728 6.668m-8.728 5.099c1.83 2.778 6.394 8.021 10.003 6.766M48.844 36V11m-.001.185c-.455 1.84-2.03 5.531-4.7 5.585m4.7 1.907c-.523 1.725-2.466 5.066-6.061 4.63m6.06 3.541c-1.27 1.93-4.44 5.57-6.945 4.699"/><path d="M48.842 11.185c.454 1.84 2.03 5.531 4.699 5.585m-4.699 1.907c.522 1.725 2.465 5.066 6.06 4.63m-6.06 3.541c1.271 1.93 4.44 5.57 6.946 4.699"/></g><defs><clipPath id="clip0_4536_60715"><path fill="#fff" d="M0 0h56v42H0z"/></clipPath></defs></svg>