<svg width="56" height="56" fill="none" xmlns="http://www.w3.org/2000/svg"><path d="M25.031 55.11a.118.118 0 00.047-.017.31.31 0 00-.047.017z" fill="#689762"/><path d="M55.99 29.786c.003.204-.004.48-.022.754-.005.068-.009.137-.017.203a7.825 7.825 0 01-.03.195c-.02.125-.042.24-.067.335a6.12 6.12 0 00.02-.508c-.001-.106-.016-.164-.026-.216-.024-.105-.05-.189-.054-.596-.037.312-.042.584-.068.819-.03.233-.064.43-.136.588a6.195 6.195 0 01-.05.778 9.474 9.474 0 01-.13.653l-.147.614c-.058.205-.114.42-.164.656l.086-.596c.027-.198.04-.4.061-.598-.026.161-.049.327-.071.493l-.087.488c-.06.32-.12.623-.197.87l-.032-.058c-.14.3-.268.575-.382.913-.107.34-.236.73-.361 1.275-.078.139-.192.395-.176.225l-.053.12-.054.116a7.362 7.362 0 00-.258.63c-.094.261-.162.507-.252.747-.173.481-.34.98-.762 1.6-.088.148-.174.299-.257.452-.084.152-.177.301-.263.455l-.258.462c-.085.155-.168.312-.263.462-.183.303-.366.605-.553.901-.197.29-.404.567-.616.832l.006.03c.221-.277.44-.56.643-.847l.568-.862c.045-.07.092-.138.135-.207l.126-.206c.083-.136.166-.267.248-.392.161-.252.33-.476.476-.68l-.077.194c-.026.064-.056.126-.083.19-.222.336-.427.665-.623.985-.21.313-.408.62-.599.923-.092.154-.194.3-.292.445l-.29.437c-.097.144-.188.292-.286.434l-.299.421-.297.423c-.05.07-.098.142-.15.211l-.159.206c-.212.275-.426.554-.65.834-.233.27-.473.545-.723.824-.123.142-.26.274-.396.41a33.08 33.08 0 01-.42.412c-.081.075-.164.15-.247.228l-.26.224-.533.463c-.09.078-.179.16-.273.236a365.287 365.287 0 00-.86.691c-.048.039-.096.079-.145.116l-.15.109-.301.218-.602.43c-.413.263-.82.522-1.225.75.323-.222-.039-.11.504-.441.125.041.25-.064.459-.245l.377-.326c.151-.126.332-.262.555-.402.622-.385 1.785-1.295 1.602-1.279.23-.135.608-.513.7-.62a6.31 6.31 0 00-.694.568c-.118.105-.232.218-.355.32a13.62 13.62 0 01-.364.298c-.192.135-.383.275-.574.418l-.586.414c-.196.14-.388.286-.585.423l-.594.402-.295.199-.146.098-.15.091c-.199.12-.396.239-.591.352-.386.235-.78.42-1.153.584-.16.094-.324.192-.496.281a34.07 34.07 0 01-.532.26l-.549.258c-.186.084-.378.156-.567.235-.381.152-.758.315-1.138.444l-.556.206c-.182.07-.36.14-.537.199-.38.095-.707.098-1.065.288-.273.048-.55.1-.823.16-.273.055-.54.127-.799.172-.257.051-.501.102-.723.15-.22.046-.418.092-.586.115l-.67.01-.537.07-.535.05-.53.053c-.176.018-.35.038-.524.045-.348.019-.692.037-1.028.05-.168.01-.335.007-.499.003a23.033 23.033 0 01-.487-.015l.025-.022-.459-.017c-.076-.004-.153-.004-.229-.01l-.229-.02-.045.041c-.313-.036-.804-.057-1.162-.1-.323-.048-.533-.098-.41-.15-.185.038-.79-.012-.694.063-.194-.093-.53-.107-.914-.162-.288-.04-.66-.088-1.06-.183l-.624-.14-.322-.074-.32-.091-.63-.186a7.589 7.589 0 01-.585-.19 26.462 26.462 0 01-.914-.346l-.032.013c-.108-.03-.23-.071-.357-.11-.127-.04-.258-.08-.378-.121-.241-.081-.442-.162-.493-.236-.592-.106.792.375.683.423-.193-.061-.33-.076-.575-.184-.344-.133-.72-.312-1.121-.485l-.304-.133-.154-.068-.151-.074-.61-.302-.302-.152c-.05-.026-.1-.05-.149-.077l-.144-.082a31.57 31.57 0 01-.554-.326c-.177-.108-.348-.21-.502-.318a9.623 9.623 0 01-.42-.317c.148.086.303.178.463.275.162.094.334.185.505.283.346.19.696.402 1.054.575l.521.264c.17.084.332.17.494.237.32.14.607.26.841.348l-.609-.331c-.157-.066-.326-.126-.49-.206l-.508-.237-.523-.249c-.173-.087-.343-.183-.513-.274l-.501-.278c-.082-.047-.164-.09-.242-.138l-.23-.145c-.3-.192-.577-.375-.815-.54-.17-.137-.43-.34-.745-.567l-.244-.175-.128-.09-.126-.098a36.288 36.288 0 00-.528-.397 1.444 1.444 0 00-.265-.264l-.1-.082-.105-.09-.229-.19-.468-.38-.206-.172a3.158 3.158 0 01-.157-.152c-.356-.298-.213.003-.025.133.108.087.224.163.336.244.116.145.253.284.405.42.076.068.156.135.238.203l.126.1.134.097.555.395c.189.135.374.283.567.425.557.442.036.06.32.344-.207-.144-.417-.285-.62-.433l-.603-.46c-.408-.3-.788-.633-1.175-.957l-.25-.217-.216-.203-.376-.356-.342-.318c-.113-.104-.22-.214-.342-.328-.2-.202-.209-.266-.316-.403.18.137.245.14.541.411a7.306 7.306 0 00-.721-.79 10.71 10.71 0 01-.75-.86l.086.138-.227-.215c-.076-.073-.146-.15-.219-.224a7.878 7.878 0 01-.425-.494l-.263-.329-.242-.34c-.305-.432-.517-.747-.338-.484l-.126-.022c-.911-1.273-1.573-2.563-2.17-3.722-.19-.424-.368-.814-.538-1.185-.156-.377-.3-.737-.442-1.092-.074-.176-.132-.357-.193-.537-.06-.18-.119-.361-.176-.545l-.086-.278-.042-.14a25.847 25.847 0 01-.173-.74c.06.133.155.438.18.403l.087.293c.031.097.066.193.1.29l.2.577.101.288.05.144.058.142.229.567c.032.214.152.562.317.886.159.328.332.645.43.823-.088-.291-.241-.606-.395-.922l-.114-.237a8.084 8.084 0 01-.096-.238 3.794 3.794 0 01-.15-.458 5.84 5.84 0 01-.24-.517 7.378 7.378 0 01-.18-.549 17.102 17.102 0 01-.146-.532l-.063-.248c-.019-.08-.033-.16-.05-.233l-.208-.42c.01-.076-.013-.23-.053-.42l-.07-.312a17.457 17.457 0 00-.073-.342c-.101-.46-.226-.915-.254-1.044.014.248.112.596.193.93.042.166.081.33.109.474.03.144.054.269.052.362-.039-.123-.081-.245-.115-.369l-.1-.372-.2-.747c-.078.155.246.903.118.849-.05-.245-.098-.46-.147-.663l-.072-.295c-.023-.097-.04-.193-.06-.289a16.315 16.315 0 01-.156-.93l-.023-.178c-.005-.062-.008-.126-.012-.191.016.067.03.135.047.202l-.085-.815-.042-.406-.02-.204-.01-.204c.02-.043.04.12.061.224L.53 29.407c.01.297.068.749.035.898-.056-.222-.056-.629-.084-.946l.024 1.068-.072-.415a9.219 9.219 0 00-.044-.69l-.008-.162a5.297 5.297 0 00-.022-.278c-.036-.095-.043.204-.064.305-.012-.103-.033-.213-.029-.391.018-.35.094-.482.106-.465-.028-.42.018-1.198.06-1.621l.015.21c.01-.245.016-.491.041-.736-.063-.107-.032-.462.002-.837l.025-.283c.01-.093.023-.183.03-.268.015-.17.02-.319-.001-.418l.134-.473.007-.211c-.059-.044-.137.543-.205.816-.011-.8.29-1.733.4-2.41.108-.055-.128.884-.128 1.229.07-.364.136-.728.21-1.09.035-.507.137-.785.226-.969.09-.183.163-.276.163-.415-.022.05-.046.1-.065.15.02-.137.048-.273.072-.41.074-.308.155-.625.24-.94.095-.312.2-.62.301-.914l.152-.43.166-.394c.108-.25.21-.477.302-.667l-.115.4.222-.547a9.04 9.04 0 00.209-.5l-.268.415c.171-.42.34-.843.517-1.264a11.548 11.548 0 01-.563 1.205c-.058.105-.103.204-.147.285-.035.028.02-.135.047-.232.099-.12.269-.544.404-.816l-.27.417c.087-.212.176-.418.269-.615.047-.099.092-.197.143-.29.052-.094.105-.185.158-.274l-.196.276c-.184.35-.348.7-.498 1.04-.037.086-.077.169-.109.255l-.094.254-.176.494-.162.472-.133.451c-.086.29-.169.56-.253.804-.112.308-.224.67-.334.979a9.444 9.444 0 01-.153.412c-.042.118-.08.209-.112.261l.029-.212-.222.912c-.036.152-.077.303-.107.457l-.088.46-.019-.027-.105.555-.052.277c-.018.093-.028.187-.042.28.02-.085.038-.17.06-.255l.07-.252a6.6 6.6 0 01-.023.253l-.018.245a11.483 11.483 0 01-.114.926c-.023.15-.049.297-.064.446-.069.595-.172 1.192-.153 1.88.013.426.005.838.028 1.244l.017.608c.007.201.005.403.023.605.028.404.055.81.09 1.226.053.414.114.837.19 1.276-.03.143-.1.175.043.85l-.04-.518c.046.277.116.55.177.806.03.128.059.252.08.37.027.117.049.229.06.334-.044-.134-.094-.266-.13-.402-.036-.08-.026.064-.02.147.077.26.222.643.341 1.027.031.096.058.192.085.286.03.094.056.186.078.274.044.177.068.34.062.477l-.156-.398.02.166c.098.209.188.538.285.773.126.338.33.923.467 1.37.156.438.238.742.084.525.197.357.301.588.403.816.106.227.2.453.366.802-.172-.449-.354-.892-.496-1.35.239.452.363.764.463 1.07.105.305.18.606.412.983l-.144-.188c.156.269.324.567.495.875.044.077.085.156.131.232l.14.23.28.456.27.445.275.406c.176.26.335.492.47.68.3.616.958 1.184 1.057 1.52.333.343.606.669.88.965.134.15.26.3.385.449l.184.224c.06.075.126.145.19.218.255.29.506.593.794.906a27.758 27.758 0 00.727.723c.089.085.179.173.28.255l-.031.003c.173.091.415.297.648.518.117.11.23.225.334.326.105.1.198.191.267.26.1.038-.13-.162-.195-.243l.178.114c.22.167.506.402.692.567.092.084.164.145.187.174.023.03 0 .025-.094-.028.366.215.557.336.798.508l.193.14c.07.052.147.108.238.167l.694.463c.098.028-.027-.107.282.077-.02.065.208.218.522.4.316.178.709.398 1.042.555-.134-.098-.273-.189-.403-.294.143.057.337.156.526.257.145.116.386.264.682.427.074.043.153.082.236.12l.255.12a36.175 36.175 0 00.835.373c.097.04.196.076.294.114.196.074.392.149.583.22l.28.108c.092.035.181.07.27.098.178.06.344.116.495.17-.087-.058-.45-.23-.063-.118l.491.169c.151.05.288.101.422.136l.73.204.349.098c.118.036.241.065.373.095l.908.22c.096.032.192.066.29.089.098.023.197.046.296.067.2.042.402.079.612.115.418.082.868.12 1.368.201.138.008.226-.004.338-.007.113 0 .25 0 .485.034.231.035.142.053.11.078l.636-.014c.084-.014.212-.006.352.005.14.006.291.016.422.017.224.001.419.034.323.057.237-.024.5-.013.791-.014.29-.005.608-.005.948-.022l.043-.046c.134-.001.28.003.435-.007l.492-.032.537-.04.28-.022c.095-.008.19-.023.286-.035l1.168-.155 1.125-.203.24-.057.237-.063c.157-.041.313-.08.468-.115l.46-.104.227-.05c.075-.02.149-.04.222-.058.295-.078.584-.154.863-.236l.208-.063c.069-.022.135-.049.202-.073a8.74 8.74 0 00.39-.16l.028-.056c.243-.075.444-.144.622-.208.178-.067.33-.14.48-.204a16.24 16.24 0 01.728-.302l.146-.054.155-.062c-.06.034-.12.07-.182.103l-.187.096c.206-.074.415-.177.629-.278l.638-.305c.212-.095.408-.204.596-.29a4.39 4.39 0 01.52-.21c-.146.016.072-.097.363-.257.288-.165.655-.367.826-.491.087-.08-.583.356-.472.212.095-.074.218-.156.355-.242l.216-.13.113-.065.112-.07c.299-.186.604-.361.812-.476l-.166.13.415-.262.403-.282.403-.282c.132-.095.27-.184.398-.287l.777-.601c.065-.05.13-.1.194-.152l.187-.159.374-.318c-.153.112-.323.248-.504.396-.088.076-.186.147-.283.222a151.715 151.715 0 01-.877.667c-.194.132-.377.252-.54.35.88-.61 1.797-1.424 2.5-2.003.097-.099.184-.207.276-.311.16-.143.34-.318.51-.476.085-.08.167-.154.242-.219.073-.067.136-.125.19-.165l-.128.164c-.044.054-.09.105-.136.158l.142-.132.14-.144c.096-.096.19-.194.277-.285.172-.183.312-.342.353-.422-.125.14-.192.18-.258.23.128-.165.261-.325.383-.494.39-.443.234-.12.623-.565.42-.638-.432.482-.376.288l.578-.647.557-.69.28-.352.266-.367c.178-.246.358-.494.534-.746l.503-.778c.083-.132.172-.26.25-.395a643.746 643.746 0 00.467-.813c.077-.136.159-.27.228-.411l.428-.838c.545-1.13 1.037-2.285 1.411-3.445.207-.574.358-1.156.523-1.72.043-.142.076-.284.109-.426l.1-.422.099-.418c.033-.138.067-.275.09-.413a5.775 5.775 0 01.058-.82c.017-.153.045-.311.064-.474a409.3 409.3 0 01.114-.985c.017-.161.039-.318.042-.469a6.838 6.838 0 00-.003-.787zM.992 21.533l.087-.358.034.053-.132.541c-.03.033-.003-.132.01-.236zM.57 23.185l.123-.642.017.03-.122.637c-.04.213-.084.426-.11.64l-.02-.02c.026-.217.073-.43.112-.645zm-.197 2.2c.017-.169.033-.349.054-.505l.02.022c-.025.154-.033.31-.048.464l-.041.465c-.01-.117 0-.276.015-.445zm.999 11.036c-.02-.06-.04-.119-.058-.18l-.05-.18-.1-.364.03.02.098.359.05.179.057.176-.027-.01zm.474 1.076l-.096-.3c-.063-.184-.13-.367-.199-.553-.066-.186-.144-.371-.2-.566-.12-.388-.236-.789-.318-1.214.107.326.231.736.348 1.154.055.21.127.416.19.615l.18.564.182.54c-.024-.068-.057-.148-.087-.24zm1.9 4.025c.056.077.135.195.147.175-.08-.201-.097-.288.006.003 0 .004-.007-.008-.006-.003.076.196.211.497.342.645-.073-.043-.326-.547-.488-.82zm3.564 4.914c-.134-.145-.166-.212-.21-.282l.396.43c-.08-.075-.193-.19-.186-.148zm13.073 7.999a7.451 7.451 0 01-.298-.07c-.119-.033-.267-.082-.476-.15.097.014.254.065.385.105.131.04.239.059.229.03l-.15-.068 1.063.313c-.405-.091-.577-.123-.753-.16zm16.394.149c-.202.064-.442.121-.579.183l-.165.022.557-.175c.186-.058.367-.131.55-.197.005.04-.162.1-.363.167zm5.182-2.694c-.242.143-.309.14-.464.205.548-.259.563-.39.98-.596-.014.055-.342.26-.516.391zM.014 26.842L0 27.216c.019.084.036-.06.05-.139-.007-.106-.013-.275-.036-.235zM48.227 14.64c.107.18.198.34.27.432l-.27-.431zM14.32 8.405l.294-.23c-.117.08-.219.157-.294.23zm33.85 2.348a1.2 1.2 0 00-.154-.198l.154.198zm-3.803-3.814l.55.44.03-.005a29.91 29.91 0 00-.55-.44l-.03.005zm-29.179.886c.195-.112.378-.227.511-.345a14.054 14.054 0 00-.836.507c-.082.06-.163.12-.246.184.086-.058.178-.12.275-.178l.296-.168zM53.414 20.84c.05.177.12.386.134.465l-.006-.255c-.033-.021-.058-.009-.128-.21zm.133.465v.033c.004-.003.003-.016 0-.033zM45.383 9.723l.476.463.12.116.113.12.227.243-.25-.367-.009-.012.008.01c-.202-.07-.355-.325-.685-.573zm.617.48l.065.087a.546.546 0 00-.065-.087zM31.766 4.305zm-.065.013c-.018-.014.015-.018.062-.02-.124-.002-.223-.006-.062.02z" fill="#689762"/><path d="M1.475 33.046c.015.18.023.335.102.61l-.037-.175c-.017-.112-.014-.155-.005-.157.009 0 .023.04.045.096.04.112.093.284.105.303a4.857 4.857 0 01-.07-.24l-.028-.12-.02-.118a1.855 1.855 0 01-.024-.393l-.168-.586c.07.39.085.6.1.78zm2.009-15.403l.035-.084-.02.032-.015.052zm-.105.304c.06-.131.085-.222.107-.306a3.834 3.834 0 01-.119.274l.012.032zm6.711-9.642l.033-.035c-.04.036-.059.054-.032.035zm6.533-1.086l-.014.009c.005-.003.006-.002.006-.002l.008-.007zM5.407 21.424l.045-.152-.016-.026-.045.153.016.025zm12.726-15.14l.24-.104a1.263 1.263 0 00-.24.104zM7.323 45.13c-.035-.024.26.305.575.664l.234.27c.075.089.154.168.22.243.134.148.232.266.253.315.073.012.242.188.428.389.191.195.408.408.554.512.118.082-.019-.15-.069-.13a14.6 14.6 0 00-.376-.35c-.129-.121-.257-.25-.383-.373a12.258 12.258 0 01-.358-.367 2.631 2.631 0 01-.281-.344l-.797-.83z" fill="#689762"/><path d="M8.122 45.962c-.006-.025-.026-.061-.044-.095l-.039-.036c.024.043.05.083.083.131zM16.761 7.09c.038.004-.069.076-.144.13.143-.084.28-.178.418-.251-.069.02-.133.034-.274.121zm35.367 23.66l-.003.178c.031-.057.066-.087.1-.175.016-.044.032-.103.048-.187.013-.084.034-.192.036-.339-.025-.01-.046.078-.081.188-.034.11-.07.246-.1.334zm1.616 6.519c-.204.396-.41.984-.455 1.218.172-.424.403-.906.455-1.218zm-5.361 9.367a2.85 2.85 0 01.199-.233l.12-.128.12-.134c.162-.18.324-.36.423-.51-.161.182-.348.39-.507.575-.16.184-.303.337-.355.43zm-.773.774l-.54.531.537-.497.004-.035zm-.665.556l.533-.494v-.032l-.533.526zm-4.098 4.264c-.172.108-.358.238-.538.343-.013.036-.05.088.135 0 .143-.092.305-.189.457-.283.076-.048.15-.094.216-.14.066-.048.125-.095.175-.14a.699.699 0 00-.202.08 2.8 2.8 0 00-.243.14zm-.75.957a1.23 1.23 0 00-.167.123c.174-.083.342-.178.51-.272.246-.129.562-.323.522-.344a3.78 3.78 0 00-.59.311 6.527 6.527 0 00-.275.182zm-2.761-.823l.492-.215.01-.029-.492.215-.01.03zM23.92 54.509l-.006-.002h-.008l.014.002zm.402.023c-.094-.007-.186-.022-.279-.035l-.277-.04.146.049c.043 0 .089.003.14.006.082.006.173.016.27.02zm-.608.015c-.046-.03.01-.043.124-.044l.064.001-.87-.15c.308.064.512.133.682.193zm-3.004-.17l.706.207.03-.016c-.236-.066-.472-.137-.708-.206l-.027.015zm-6.651-3.408l-.312-.197-.028.008c.092.046.195.106.303.173.053.034.108.07.165.105.056.036.115.069.173.104.232.139.466.277.655.359l-.64-.363-.16-.091-.156-.098zm-1.171-.413l.066-.008-.626-.424.56.432zM2.71 36.947c.04.112.072.227.117.337-.046-.207-.077-.42-.116-.628v.291zm-.32-16.112c.05-.165.057-.216.043-.214l-.008.018-.034.196z" fill="#689762"/><path d="M2.133 21.159c.062-.076.265-.527.303-.536l.06-.13.065-.34c.023-.113.042-.227.072-.339l.165-.673-.148.282a8.247 8.247 0 00-.184.412c-.059.151-.11.313-.159.472-.095.318-.166.63-.174.852zm.359-1.979l.188-.532c.062-.177.14-.349.208-.523-.075.064-.15.225-.22.42-.062.198-.12.43-.176.634zm.002 0l-.166.47c.057-.093.112-.275.166-.47zm.294-.627a2.72 2.72 0 00-.124.332c.049-.123.095-.245.151-.362.057-.117.115-.233.174-.348.117-.23.236-.456.351-.686.117-.23.245-.456.355-.698.056-.12.11-.244.16-.372l.149-.392c-.123.19-.224.392-.336.588l.131-.386c-.116.24-.242.518-.362.778l-.175.369c-.052.115-.101.22-.147.304l.025.06c-.07.269-.144.42-.225.572-.04.075-.083.15-.127.24zm-.319-2.151l-.125.428.205-.6-.08.172zm.894.498a3.125 3.125 0 00-.19.436c-.042.13-.067.233-.08.284.105-.291.235-.571.358-.854l-.088.134zm.346-2.315c.186-.255.354-.463.492-.632.215-.428.74-1.083 1.001-1.523l-.109.123c-.02 0 .011-.068.055-.153.044-.085.108-.181.14-.246l.151.1.11-.15-.006-.032c.149-.311.367-.47.438-.56.027-.059.057-.122.093-.187a7.749 7.749 0 01.774-1.091c.131-.145.27-.285.41-.416l.4-.449c.072-.083.15-.163.225-.241l.214-.228c.265-.287.437-.495.295-.42.19-.204.42-.42.66-.654.242-.23.49-.487.766-.72.273-.236.548-.48.827-.703.284-.216.565-.423.831-.607.182-.07.474-.29.8-.542.162-.125.333-.26.508-.38.178-.114.356-.218.525-.294l-.3.134.166-.13c.257-.15.63-.419.779-.454-.114.08-.222.17-.332.255l.15-.066c.063-.038.114-.072.158-.101.045-.028.082-.053.114-.075.063-.045.104-.082.146-.119.083-.073.165-.146.42-.286.121-.05.273-.133.436-.229l.521-.284c.175-.095.344-.184.49-.249.072-.032.139-.058.197-.076a.498.498 0 01.151-.02c-.06.034-.12.067-.178.105.392-.179.789-.348 1.183-.521.154-.15-.132-.047-.518.114l-.609.258c-.196.088-.372.172-.49.212l.352-.224c-.216.06-.63.257-1.093.49-.23.118-.465.258-.697.387-.23.133-.459.254-.655.37.183-.02-.469.353-.665.52l-.337.2a44.743 44.743 0 00-.99.676c-.111.076-.217.16-.324.244l-.322.252-.321.254c-.107.086-.216.169-.318.26l-.622.541c-.104.09-.21.18-.311.27l-.3.282c-.2.186-.402.371-.603.554l-.584.56.39-.431c.039-.042.076-.084.115-.124.038-.04.076-.077.112-.113l.178-.18c-.334.243-.606.59-.877.913l-.202.239-.2.228c-.13.149-.263.282-.406.39l.245-.342-.6.782c-.193.256-.375.519-.57.776l-.297.39a29.594 29.594 0 01-.61.83l-.167.216c-.056.073-.109.15-.165.227l.098-.189c-.37.601-.722 1.117-1.02 1.643l-.23.387c-.076.129-.154.256-.222.39-.141.264-.283.53-.427.808.195-.367.386-.678.56-.939zM15.81 2.988c-.088.057-.233.141-.188.144-.096.017-.185.05-.278.09l.466-.234zm-1.205.621c.184-.102.352-.202.554-.296-.167.087-.33.21-.517.329a3.777 3.777 0 01-.65.336c.237-.15.43-.265.613-.369zM3.213 14.857l-.166.362c.145-.286.283-.577.435-.86-.097.162-.18.332-.27.498z" fill="#689762"/><path d="M5.903 11.847l-.208.36.316-.508-.108.148zm3.306 2.301a8.78 8.78 0 00-.209.285l.209-.285zM9.19 7.872c-.091.115-.316.34-.27.343.27-.26.536-.52.808-.777-.181.141-.359.289-.538.434zm.573-.939l-.146.154.572-.513-.426.359zm.857 5.307c-.113.146-.214.29-.276.365.125-.055.219-.176.313-.314.047-.07.094-.143.145-.215.052-.07.112-.137.177-.197-.058.036-.12.09-.182.151-.06.064-.12.138-.176.21zm.155-6.288c.234-.17.473-.336.604-.393.213-.262-.412.248-.576.326.096-.145.395-.377.578-.51a1.69 1.69 0 01.108-.074 5.56 5.56 0 00-.226.147l-.604.507c-.098.083-.189.163-.267.234a2.39 2.39 0 00-.181.192c.053-.039.132-.108.232-.182l.332-.247zm.717-.652l.043-.026-.043.026zm-.874.95l.89-.71-.585.404-.294.203c-.097.069-.197.135-.29.208-.025.05.098-.056.225-.145.126-.091.248-.176.204-.105l-.15.144zm.546 5.554l.156-.206a1.067 1.067 0 00-.156.206zm1.057-1.102a.906.906 0 01.26-.255c.09-.06.19-.121.33-.26l-.12.07c-.04.027-.098.068-.163.117l-.1.077a3.316 3.316 0 00-.096.086c-.124.116-.23.228-.227.272-.059.039-.152.11-.117.047-.152.15-.482.417-.455.458.099-.093.21-.173.315-.26l.318-.255.317-.255.33-.24v-.03c-.102.07-.217.16-.324.238a1.679 1.679 0 01-.268.19zm2.834-2.148c.127-.092.263-.17.396-.253v-.028c-.131.084-.269.16-.395.253l-.001.028zm2.44-6.498c.177-.071.364-.151.466-.195l.015-.029c-.15.06-.357.135-.535.203-.177.07-.32.14-.347.174a.957.957 0 00.157-.053c.07-.029.155-.066.244-.1zm.465-.193l.001.001c.122-.054.095-.041 0-.001zm.057-.118L18 1.776l.541-.23-.524.2zm-1.468 5.771c-.23.14-.43.346-.166.246.599-.37-.019-.104.166-.246zm1.428-5.371c.624-.265.29-.062.48-.11.43-.161.387-.205.578-.3a11.37 11.37 0 01-.28.092l-.286.105c-.188.07-.364.142-.492.213zm1.361-.718c.225-.054.508-.127.695-.165.19-.032.282-.039.123.02a3.37 3.37 0 00-.328.116 4.904 4.904 0 00-.277.117c-.145.068-.19.11-.002.076.162-.051.352-.117.56-.179l.66-.176c.226-.058.452-.118.665-.164.215-.04.415-.074.586-.098.576-.133-.341.005.41-.16.018-.03-.016-.049.237-.12.312-.068.862-.168 1.294-.25.108-.023.21-.037.298-.05L24.48.36c.114-.02.154-.03.074-.028a5.99 5.99 0 00-.492.026 8.106 8.106 0 00-.467.078c-.306.06-.603.132-.905.207-.299.087-.604.175-.929.252a8.266 8.266 0 01-.248.055c-.085.018-.17.034-.257.055a8.431 8.431 0 01-.546.104l.388-.152a6.062 6.062 0 01-.764.19c-.104.02-.203.037-.304.055a4.403 4.403 0 00-.32.076l.229-.083c.076-.028.154-.049.23-.074l.463-.143.464-.143c.077-.023.154-.048.232-.07l.235-.06c-.278.059-.55.145-.823.22-.273.08-.547.154-.818.238-1.252.41-1.034.372-.584.264zm-2.252 5.869l.04-.02.032-.03c-.024.016-.05.033-.072.05z" fill="#689762"/><path d="M17.078 7.32c.184-.096.373-.184.559-.277l-.514.23c-.016.015-.03.032-.045.047zm.162-.152l-.084.079c.06-.04.11-.075.084-.079zm1.735-2.766l-.342.222c.46-.142.345-.197.342-.222zm-.177 2.038l.017-.057c-.068.017-.134.026-.276.095-.428.235.098.011.26-.039zm-.048-.25c.15-.072.296-.152.45-.213l-.15.057-.3.155zM26.735.243a.738.738 0 01.2-.042 1.52 1.52 0 01.315.018l-.209.026c.904.047 1.123.075 2.194.036l.299.01c.112.005.235.007.362.02.255.023.53.048.78.076.502.046.9.134.846.174l.209.006c-.133-.06-.333-.129-.214-.165L31.302.39a4.022 4.022 0 00-.232-.01c-.16-.003-.327-.009-.494-.018a10.99 10.99 0 01-.496-.036c-.16-.014-.313-.039-.452-.054l.07-.065c-.106.007-.212.022-.392.008l-.026.022a4.53 4.53 0 01-.91.004c-.31-.011-.625-.03-.933-.025L27.73.1c-1.263-.016-.58.059-1.035.139l-.53.01.466.061c-.022.01.007-.031.104-.067z" fill="#689762"/><path d="M29.166.165L28.6.155c-.095 0-.19-.003-.284-.003l-.284.01.319.002.318.017.635.034c-.085-.015-.22-.031-.137-.05zM27.157.06c.155-.006.276-.02.288-.046a3.582 3.582 0 00-.488.017c-.14.015-.248.042-.3.052l.248-.015a9.47 9.47 0 00.252-.007zm-2.999 4.639c.276-.066.55-.144.83-.191-.106.013-.212.02-.317.037-.196.056-.65.112-.513.154zM28.863.086l-.02.022.576-.002-.556-.02zM30.099.04l-.044.006.57.062L30.1.039zm-.041.004l-.26-.028L29.54 0c.101.028.203.05.304.082l.215-.038zm-1.923 4.452l-.526.075.469-.007.234-.003c.078 0 .156.006.234.008l-.205-.042-.206-.03zM32.508.631c.182.03.364.068.546.101l-.307-.103.203.014c.19.029.26.06.34.088.278-.07 1.54.258 2.383.517a7.746 7.746 0 01-.274-.058l-.15-.035-.159-.031-.65-.133c-.21-.042-.408-.082-.57-.101a1.2 1.2 0 00-.35-.002c.128.005.28.014.445.037.165.027.345.06.536.099a27 27 0 01.599.13l.155.037.155.044.313.091c.839.232 1.65.554 2.148.711l.222.188c-.013-.135.72.023 1.067.116.2.08.419.236.463.269l-.021-.016-.245-.188a1.826 1.826 0 00-.302-.105l-.284-.071a3.66 3.66 0 01-.864-.338 7.709 7.709 0 00-.492-.185c-.236-.08-.493-.157-.756-.236-.266-.072-.54-.138-.809-.215a11.344 11.344 0 01-.396-.12c-.065-.02-.13-.042-.193-.063a6.382 6.382 0 01-.19-.06c-.105-.015-.885-.158-.715-.197a2.445 2.445 0 01-.252-.033l-.156-.03-.172-.027-.72-.124a3.712 3.712 0 00-.532-.067c-.11.004-.134.03-.016.096zm7.109 1.979c.005.003.005.003 0 0zm-3.639-1.433c.25.075.5.142.728.212.228.075.437.14.61.191-.27-.086-.317-.142-.474-.212-.076-.013-.161-.038-.257-.058a8.515 8.515 0 01-.306-.076 25.033 25.033 0 01-.67-.191c-.111-.033-.219-.067-.322-.095l-.289-.07a2.592 2.592 0 00-.38-.07l.628.157c.233.063.482.14.732.212zm-4.595 3.258l-.136-.042c-.127.009-.305-.02-.49-.045l-.023.02c.21.027.418.058.626.086l.023-.019zM54.727 20.58l.131.412c.045.136.075.273.11.406.07.265.13.518.174.75l.093.212-.249-1.076c-.022-.09-.04-.18-.064-.268l-.076-.266-.15-.531.089.497a.708.708 0 01-.058-.137z" fill="#689762"/><path d="M40.337 2.908c.008.04.004.074.373.266-.024-.038.13.03.224.066l.265.19c.1.04.248.105.226.067-.174-.082-.23-.133-.292-.178l.192.075c.093.05.19.098.273.144a.915.915 0 01.181.131c.178.183.79.647-.116.168.444.231.74.459 1.003.662.26.21.495.386.84.504.233.112.459.266.694.432.118.083.237.17.358.26l.183.138.093.07.09.075c.243.2.493.409.756.616l.198.156.197.163c.133.108.269.215.41.32l.1.119c-.088-.013-.434-.293-.67-.47l.73.622.177.15.17.156c.112.102.223.2.332.297a2.128 2.128 0 00.396.431c.069.059.147.13.248.212.17.221-.298-.201.12.261l-.154-.13a6.703 6.703 0 01.832.868l.262.328.26.321.128.155c.043.051.082.104.123.153.163.202.326.382.492.527.041.073.118.191.05.14l.141.146c.152.173.292.37.434.57.14.203.28.41.405.62.24.43.463.848.633 1.198.156.154.296.427.434.704l.205.406c.064.13.13.246.202.336.17.395.364.786.529 1.196.171.406.359.81.51 1.231l.24.628.06.157.052.16.102.32c.067.215.133.429.196.643l.048.161.038.163.075.326a1313.112 1313.112 0 00.21.809l.055.263.215 1.014.161.964c.024.157.055.311.074.465l.053.457c.034.301.073.596.1.888l.059.865.028.426.007.424.01.846.018-1.13c.003-.095 0-.19-.004-.284l-.01-.283-.02-.567.096.417-.012-.18c.004-.478.09.219.109.264-.015-.216-.02-.416-.06-.56.012-.16.028-.32.03-.481l-.093-.4c-.04-.276-.008-.33-.013-.501-.02-.137-.032-.263-.052-.379l-.051-.324-.08-.572c-.045-.376-.135-.768-.303-1.396l.011.157-.099-.29-.05-.144-.055-.143-.04-.317-.054-.03c-.063-.133-.115-.334-.172-.54-.002-.098-.07-.379-.012-.301a29.927 29.927 0 01-.266-.8c-.072-.226-.128-.444-.227-.73.062.122.13.243.184.369.013.292.349.724.31 1.02.053.151.094.308.143.463l.147.47c-.055-.164-.105-.394-.16-.574-.025-.094-.043-.186-.06-.263a.972.972 0 01-.026-.177c0-.075.037-.05.127.165l-.255-.706c.008-.097-.04-.284-.122-.529-.09-.24-.222-.536-.36-.854-.072-.158-.139-.324-.217-.486a25.655 25.655 0 01-.232-.487c-.15-.32-.273-.637-.38-.9l.066.194c-.111-.128-.238-.441-.358-.665-.162-.162.42.934.012.278a6.359 6.359 0 01-.28-.652c-.053-.152-.07-.237-.037-.262.114.165.202.264.313.501-.024-.073-.079-.208-.02-.142-.064-.085-.12-.175-.183-.262a6.548 6.548 0 01-.18-.27 11.542 11.542 0 01-.332-.568c-.055-.096-.105-.195-.162-.29l-.171-.285c-.115-.19-.232-.378-.353-.56l-.064-.017.34.542c.112.182.232.359.333.547.054.15.174.408.058.287-.11-.166-.204-.326-.3-.47a13.283 13.283 0 01-.49-.8c-.072-.124-.136-.248-.21-.365-.144-.236-.285-.472-.445-.724a7.61 7.61 0 00-.585-.804l.033.006c-.164-.239-.254-.455-.363-.645a1.353 1.353 0 00-.468-.488c.144.23.293.455.43.688a2.997 2.997 0 00-.146-.143c-.138-.163-.28-.324-.32-.411l-.217-.15c-.098-.126-.194-.255-.295-.378l-.31-.365-.313-.366c-.104-.122-.206-.245-.318-.36.102.037.462.355.288.13-.051-.044-.102-.088-.156-.129l-.1-.128-.493-.385a1.085 1.085 0 00-.26-.295c-.117-.103-.266-.204-.412-.325-.219-.158-.68-.55-1.223-.954l-.407-.318-.103-.08-.105-.077-.21-.152a31.89 31.89 0 01-.754-.572c.233.148.492.294.743.45.126.077.25.158.367.242.116.087.221.182.318.28l-.241-.236c-.081-.078-.167-.15-.25-.226.072.038.15.084.231.135.08.054.164.116.25.18.173.13.355.275.536.421l.267.216.246.214c.157.135.3.254.418.34-.158-.14-.329-.286-.383-.368l.607.353a8.816 8.816 0 00-.873-.651 8.567 8.567 0 01-1.022-.75c-.19-.101-.516-.314-.572-.304-.228-.151-.416-.27-.585-.385a3.646 3.646 0 01-.48-.35c.093.047.237.128.218.089-.362-.246-.8-.53-1.207-.759-.201-.118-.39-.232-.547-.336-.08-.052-.15-.103-.213-.148a1.494 1.494 0 01-.16-.124l-.193-.076.134.096-.753-.382-.188-.095c-.063-.031-.128-.058-.192-.088l-.144-.064c.204.099.221.132.228.162zm14.965 20.833c.006.134.01.293.068.459-.033-.081-.028.059-.03.14-.036-.298-.064-.597-.12-.893.061.057.071.162.082.294zm-.588-2.646c.026.11.049.218.07.324.076.285.144.53.133.644.035.167.076.312.11.433.035.12.075.215.126.277l.015.64-.129-.552c-.024-.11-.049-.229-.072-.352-.022-.123-.054-.25-.077-.38.017-.008.024-.035.027-.066-.042-.192-.084-.408-.133-.644l-.084-.328a4.32 4.32 0 01-.082-.326c.035.11.066.221.096.33zm-1.137-3.822c.061.157.121.313.175.46a9.102 9.102 0 01-.206-.47 11.116 11.116 0 01-.376-.95c.052.148.124.32.205.507l.202.453zM42.575 4.137l.16.094.156.1.121.107c-.244-.175-.501-.33-.756-.489l.32.188zM40.109 2.75a6.136 6.136 0 00-.242-.11l.242.11zm.992.3l-.03.01.269.192-.239-.201zm-2.484 3.72l.082-.033c-.12-.083-.149-.134-.37-.23-.01.048.248.19.288.263zm1.987-.354l-.424-.22c.174.119.315.242.424.22zm-.425-.221a1.22 1.22 0 00-.35-.164c.116.055.234.107.35.164zm.114.318c.204.04-.033-.164-.083-.233a2.325 2.325 0 00-.17-.07c.078.057.152.122.228.183-.312-.157-.031.056.025.12zm1.168.287c-.075-.037-.168-.107-.277-.174l-.332-.216c-.217-.14-.407-.248-.446-.192.317.17.376.238.437.308.03.035.06.07.125.12.032.024.072.051.124.084l.196.118.029-.009c-.047-.03-.092-.061-.14-.089-.186-.133-.117-.113 0-.064.117.05.277.137.284.114z" fill="#689762"/><path d="M43.547 6.305l.428.311c-.053-.077-.23-.196-.394-.315l-.034.004zm-.824 1.355c-.15-.11-.3-.217-.445-.318a9.407 9.407 0 00-.437-.264c-.064.028.028.098.178.198.075.052.168.104.256.174.089.067.18.14.263.217.258.186.44.294.6.382.16.091.294.17.47.284-.143-.11-.284-.23-.433-.341l-.452-.332zm1.541 1.446c.213.178.568.527.646.54-.14-.193-.484-.44-.707-.626a.592.592 0 01.06.086zm-.224-.243c.042.043.093.096.163.152a.953.953 0 00-.164-.152zm-.376-.289c.148.132.275.217.375.29-.035-.037-.064-.072-.06-.095l-.315-.195zm-.862.526l-.247-.198.193.212.054-.014zm5.911.318l.063.002c-.151-.174-.316-.46-.464-.53.442.424.217.33.401.528zm-2.718 1.096l-.097-.108-.103-.103a32.073 32.073 0 00-.618-.6c-.069-.065-.136-.13-.208-.187l-.032.003c.085.071.162.15.242.226l.236.23.474.461.026-.005c.065.186.38.423.648.727l-.376-.428-.192-.216zm4.911 9.24zm-2.232-4.534c.072.103.145.204.212.306l.188.31c.122.206.24.41.355.611.109.205.207.414.308.62l.15.312.074.156.066.161c.09.215.179.432.27.653.044.111.096.22.136.337l.127.349c.084.236.18.476.269.728.083.254.17.517.266.789l-.256-.822c-.096-.27-.197-.54-.295-.81.074.175.15.33.226.495.038.082.076.168.113.26l.026.078-.03-.1-.114-.306-.224-.607-.057-.156-.067-.157-.139-.33-.148-.358c-.051-.125-.103-.257-.169-.39l.03.007a5.32 5.32 0 00-.449-.894 1.593 1.593 0 00-.085-.111c-.084-.181-.023-.127.011-.119a7.093 7.093 0 01-.373-.688l-.066-.144a160.463 160.463 0 00-.198-.398l-.118-.146c.097.14.116.206.142.27-.238-.222-.486-.737-.76-1.083a2.99 2.99 0 00-.38-.604c-.15-.176-.317-.347-.502-.56-.035-.063-.1-.167-.04-.126-.067-.085-.129-.173-.2-.254l-.207-.245c.035.062.133.19.198.284.064.094.089.159-.006.083.224.316.468.572.577.639.163.237-.015.079-.023.118.048.064.099.126.145.191l.137.197c0-.039.09.072.153.142.291.526.794 1.118 1.04 1.605-.17-.236-.172-.13-.313-.293zm.497-1.165c-.019-.043-.037-.087-.057-.13-.033-.019.005.044.057.13zm.003.005l.005.006-.007-.011.002.006z" fill="#689762"/><path d="M49.166 13.834l-.167-.24-.335-.48.352.545c.058.09.119.18.175.273l.162.28c-.035-.007-.055.009-.173-.151.098.157.279.42.384.609.007-.036.066.009.23.245.01-.14-.58-.791-.47-.835-.053-.081-.101-.166-.158-.246zm.397.838a.628.628 0 00.078.218c.019-.026-.017-.11-.078-.218zm-1.043-.208c-.015-.068-.088-.178-.174-.3-.085-.12-.184-.254-.256-.365l-.059-.006c.231.23.29.44.428.66l.06.011zm4.705 2.641l-.06-.027c.145.28.267.57.395.86-.109-.28-.209-.562-.335-.833zm-2.959.583a7.29 7.29 0 01-.094-.214c-.034-.078-.075-.157-.11-.23-.073-.146-.138-.267-.171-.287.117.24.246.476.348.724l.027.007zm3.456 1.882l.029.015-.166-.505c-.056-.168-.106-.338-.173-.502l-.03-.015c.067.164.12.333.175.502l.165.504zm1.774 4.404c-.011-.09-.02-.182-.033-.272l-.045-.27c-.028-.1-.065-.254-.082-.215.042.136.057.25.076.369.02.118.037.24.084.388zM51.6 21.85l-.126-.462-.068-.165.195.627zm1.229.526l.026.014-.082-.476.056.462zm1.019 2.292c-.041-.338-.07-.677-.134-1.012l-.026-.02c.063.335.095.675.135 1.013l.025.018zm1.822 3.22c.067-.353-.068-.84-.062-1.13l-.014.524.045.042c.033.15.028.353.03.564z" fill="#689762"/><path d="M27.997 24.834a6.333 6.333 0 100-12.667 6.333 6.333 0 000 12.667zM42.25 43.833c0-7.87-6.38-14.25-14.25-14.25s-14.25 6.38-14.25 14.25" stroke="#689762" stroke-linecap="round" stroke-linejoin="round"/><path stroke="#689762" d="M49.5 0v13M56 6.5H43"/></svg>