<svg width="60" height="26" fill="none" xmlns="http://www.w3.org/2000/svg"><g filter="url(#filter0_d_1551_16073)" fill="#82C12F"><path d="M3.658 11.926L1.387 4.31h3.672l.757 5.126h.038l.87-5.126h4.467l.87 5.126h.039l.757-5.126h3.671l-2.27 7.616h-4.45L8.976 6.8H8.94l-.833 5.126H3.658zm18.991.146c-1.893 0-3.344-.341-4.354-1.025-1.01-.683-1.514-1.66-1.514-2.93 0-1.23.454-2.196 1.363-2.9.909-.702 2.158-1.054 3.748-1.054 1.552 0 2.757.337 3.615 1.01.87.665 1.306 1.597 1.306 2.798 0 .176-.007.371-.02.586a2.073 2.073 0 01-.056.44h-7.874V7.312h4.94l-.435.513c0-.635-.12-1.099-.36-1.392-.227-.293-.6-.439-1.116-.439-.505 0-.877.146-1.117.44-.24.292-.36.756-.36 1.39v.88c0 .468.164.805.492 1.01.328.205.858.308 1.59.308.543 0 1.13-.04 1.76-.117a12.249 12.249 0 001.61-.293l.378 2.05c-.442.127-.99.225-1.647.293-.643.078-1.293.117-1.95.117zm11.944 0a5.245 5.245 0 01-1.628-.234 5.008 5.008 0 01-1.42-.791h-.038l-.037.879h-3.52V1.233h3.709v3.955h.038c.454-.371.902-.635 1.344-.79a4.76 4.76 0 011.552-.235c1.274 0 2.252.342 2.933 1.025.682.674 1.022 1.65 1.022 2.93 0 1.279-.34 2.26-1.022 2.944-.681.673-1.659 1.01-2.933 1.01zm-1.344-2.197c.542 0 .953-.151 1.23-.454.29-.303.435-.737.435-1.304 0-.576-.145-1.01-.435-1.303-.277-.303-.688-.454-1.23-.454-.316 0-.593.049-.833.146-.24.098-.429.235-.568.41a1.03 1.03 0 00-.19.616v1.171c0 .235.064.44.19.615.139.176.328.313.568.41.24.098.517.147.833.147z"/></g><path d="M25.74 22.244a6.49 6.49 0 01-1.321-.13 5.353 5.353 0 01-1.171-.412l.238-1.105c.405.188.78.325 1.128.412.347.086.7.13 1.062.13.448 0 .81-.065 1.084-.195a1.18 1.18 0 00.607-.618c.13-.29.195-.661.195-1.117v-4.985h1.214v5.202c0 .961-.246 1.673-.737 2.135-.492.456-1.258.683-2.298.683zm6.565 0c-.679 0-1.178-.184-1.495-.552-.318-.369-.477-.944-.477-1.724V16.5h1.17v3.251c0 .52.087.904.26 1.15.18.245.47.368.867.368a1.6 1.6 0 00.78-.184 1.39 1.39 0 00.543-.499c.13-.217.195-.459.195-.726V16.5h1.17v5.636h-1.116l-.01-.672h-.023c-.223.26-.487.455-.79.585a2.71 2.71 0 01-1.074.195zm4.787-.108V16.5h1.116l.011.672h.022c.224-.26.495-.456.813-.585.318-.13.686-.196 1.105-.196.694 0 1.203.185 1.529.553.332.369.498.943.498 1.724v3.468h-1.17v-3.252c0-.52-.098-.903-.293-1.149-.188-.245-.484-.368-.889-.368a1.75 1.75 0 00-.813.184 1.456 1.456 0 00-.563.499 1.35 1.35 0 00-.195.726v3.36h-1.171zm8.827 2.384c-.441 0-.86-.043-1.258-.13a3.341 3.341 0 01-.997-.368l.163-.954c.26.152.564.267.91.347.354.087.712.13 1.073.13.658 0 1.128-.155 1.41-.466.281-.31.422-.824.422-1.54v-.357h-.022a1.992 1.992 0 01-.78.553 2.864 2.864 0 01-1.04.184c-.752 0-1.34-.242-1.767-.726-.427-.492-.64-1.17-.64-2.038 0-.867.213-1.543.64-2.027.426-.491 1.015-.737 1.767-.737.382 0 .737.065 1.062.196.332.13.6.31.802.541h.021l.011-.628h1.117v5.04c0 1.019-.235 1.77-.705 2.254s-1.2.726-2.19.726zm.152-3.576c.303 0 .57-.055.802-.163a1.39 1.39 0 00.563-.444 1.06 1.06 0 00.206-.64v-1.084c0-.238-.069-.451-.206-.64a1.396 1.396 0 00-.563-.444 1.872 1.872 0 00-.802-.162c-.485 0-.86.155-1.128.466-.267.31-.4.751-.4 1.322 0 .571.133 1.012.4 1.323.268.31.643.466 1.128.466zm4.608 1.192v-7.912h1.192v7.912H50.68zm5.694.108c-.976 0-1.727-.253-2.255-.758-.527-.506-.791-1.229-.791-2.168 0-.91.242-1.626.726-2.146.491-.52 1.163-.78 2.016-.78.824 0 1.456.245 1.897.736.448.492.672 1.189.672 2.092 0 .094-.004.199-.011.315 0 .115-.004.206-.01.27h-4.64v-.92h3.75l-.184.281c0-.614-.123-1.07-.368-1.366-.246-.303-.615-.455-1.106-.455-.52 0-.918.16-1.192.477-.268.318-.401.78-.401 1.387v.326c0 .585.151 1.022.455 1.311.31.282.777.423 1.398.423a5.446 5.446 0 001.886-.336l.152.943a4.557 4.557 0 01-.943.27 5.687 5.687 0 01-1.051.098z" fill="#3C4839"/><defs><filter id="filter0_d_1551_16073" x=".887" y=".733" width="38.162" height="11.839" filterUnits="userSpaceOnUse" color-interpolation-filters="sRGB"><feFlood flood-opacity="0" result="BackgroundImageFix"/><feColorMatrix in="SourceAlpha" values="0 0 0 0 0 0 0 0 0 0 0 0 0 0 0 0 0 0 127 0" result="hardAlpha"/><feOffset/><feGaussianBlur stdDeviation=".25"/><feComposite in2="hardAlpha" operator="out"/><feColorMatrix values="0 0 0 0 0.179167 0 0 0 0 0.16772 0 0 0 0 0.161997 0 0 0 0.4 0"/><feBlend in2="BackgroundImageFix" result="effect1_dropShadow_1551_16073"/><feBlend in="SourceGraphic" in2="effect1_dropShadow_1551_16073" result="shape"/></filter></defs></svg>