<svg width="40" height="40" viewBox="0 0 40 40" fill="none" xmlns="http://www.w3.org/2000/svg">
<path d="M17.875 39.3646C17.8904 39.3614 17.9026 39.3576 17.9086 39.3525C17.8937 39.3566 17.8842 39.3606 17.875 39.3646Z" fill="#689762"/>
<path d="M39.9931 21.2749C39.9952 21.4206 39.99 21.6183 39.9769 21.8137C39.9733 21.8626 39.971 21.9114 39.9647 21.959C39.9583 22.0065 39.9514 22.0531 39.9441 22.0979C39.9296 22.1874 39.9133 22.2694 39.8957 22.3376C39.9079 22.1612 39.9112 22.0505 39.91 21.9746C39.9092 21.8988 39.8986 21.8572 39.8912 21.8199C39.8745 21.7451 39.8556 21.6853 39.8526 21.3946C39.8263 21.6172 39.8225 21.8119 39.8041 21.9791C39.7833 22.146 39.7585 22.2861 39.7073 22.3994C39.7041 22.6055 39.6952 22.7884 39.6712 22.9554C39.6445 23.1219 39.6123 23.274 39.5781 23.4214C39.5429 23.5683 39.5086 23.7115 39.4733 23.8598C39.4319 24.0068 39.392 24.1595 39.3563 24.3284L39.4179 23.9031C39.4369 23.7613 39.4469 23.618 39.4616 23.4758C39.443 23.591 39.4264 23.7092 39.4106 23.8277C39.3897 23.9452 39.3688 24.0625 39.3485 24.1769C39.3062 24.4054 39.2628 24.6216 39.2078 24.7981L39.1851 24.7564C39.0851 24.9715 38.9933 25.1675 38.9119 25.4084C38.8354 25.651 38.7435 25.9304 38.6539 26.3192C38.5989 26.4184 38.5172 26.6015 38.5284 26.4804C38.5157 26.5096 38.5031 26.5382 38.4909 26.5665C38.4778 26.5943 38.465 26.6217 38.4523 26.6485C38.4274 26.7023 38.4042 26.7547 38.3825 26.8057C38.3392 26.9078 38.3018 27.0047 38.2682 27.0983C38.2004 27.2854 38.1522 27.4611 38.0877 27.6322C37.9641 27.976 37.8446 28.3323 37.5435 28.775C37.4805 28.8809 37.4196 28.9886 37.3601 29.098C37.2998 29.2069 37.2336 29.3133 37.1723 29.4231C37.1109 29.5328 37.0494 29.643 36.9878 29.7532C36.927 29.864 36.8678 29.9759 36.8003 30.0829C36.6694 30.2993 36.5386 30.5155 36.4047 30.7266C36.2642 30.9331 36.1161 31.1315 35.9649 31.3209L35.9694 31.3419C36.1272 31.1444 36.2829 30.9419 36.4286 30.7373C36.5669 30.5273 36.703 30.3205 36.834 30.1217C36.8664 30.0718 36.8999 30.0231 36.931 29.9739C36.9612 29.9241 36.9912 29.8749 37.0207 29.8264C37.0802 29.7297 37.1391 29.636 37.1976 29.5465C37.3131 29.3667 37.4333 29.2067 37.5378 29.0613L37.4831 29.1993C37.4646 29.2453 37.4432 29.2896 37.4233 29.3348C37.2652 29.5754 37.1187 29.8098 36.9782 30.0389C36.8285 30.2623 36.687 30.4814 36.5511 30.6983C36.4851 30.808 36.4123 30.9117 36.3423 31.016C36.2727 31.1207 36.2036 31.2246 36.1349 31.328C36.0659 31.4311 36.0007 31.5365 35.9305 31.6376C35.8593 31.7382 35.7884 31.8385 35.7174 31.9387C35.6467 32.0394 35.576 32.14 35.5052 32.2408C35.4694 32.2909 35.4352 32.3425 35.3979 32.3917C35.3601 32.4406 35.3224 32.4897 35.2846 32.5388C35.1328 32.7351 34.9802 32.9344 34.8203 33.1341C34.6537 33.3276 34.4822 33.5237 34.3033 33.7231C34.2157 33.8246 34.1181 33.9188 34.0208 34.0164C33.923 34.1135 33.8231 34.2115 33.7207 34.3103C33.6627 34.3638 33.6039 34.4179 33.5445 34.4727C33.4832 34.5255 33.4213 34.5789 33.3586 34.6328C33.2339 34.7411 33.1068 34.8517 32.9779 34.9637C32.913 35.0192 32.8502 35.0781 32.7828 35.1323C32.7154 35.1865 32.6476 35.241 32.5797 35.2958C32.4435 35.4053 32.3063 35.5156 32.1687 35.6262C32.134 35.6535 32.1001 35.6821 32.0648 35.7084L31.9575 35.7865L31.7428 35.9422C31.5988 36.0449 31.4553 36.1473 31.3128 36.249C31.0177 36.4371 30.7267 36.6222 30.4378 36.7851C30.6686 36.6267 30.4101 36.7063 30.7978 36.47C30.8873 36.4998 30.977 36.4241 31.1255 36.2953C31.1999 36.231 31.2894 36.1536 31.3953 36.0621C31.5029 35.9724 31.6323 35.875 31.7917 35.7754C32.2355 35.5004 33.0663 34.8503 32.9359 34.8617C33.0999 34.7655 33.3697 34.4953 33.4361 34.4185C33.2724 34.5289 33.1067 34.6724 32.9397 34.8243C32.8554 34.8991 32.7744 34.9805 32.6868 35.053C32.5998 35.1261 32.5128 35.1983 32.4262 35.2662C32.289 35.3622 32.1525 35.4619 32.0166 35.5641C31.8776 35.6624 31.7378 35.7613 31.5976 35.8604C31.4577 35.9597 31.3207 36.0643 31.18 36.1623C31.0379 36.2584 30.8961 36.3542 30.7555 36.4493C30.6851 36.4968 30.615 36.5442 30.5452 36.5914C30.5103 36.6149 30.4755 36.6384 30.4408 36.6617C30.405 36.6834 30.3694 36.7051 30.3339 36.7267C30.1916 36.8128 30.0507 36.897 29.9114 36.9783C29.6359 37.1459 29.3545 37.278 29.0881 37.3954C28.9735 37.462 28.8566 37.5321 28.7336 37.5959C28.6097 37.6577 28.4827 37.7196 28.3536 37.7812C28.2242 37.8421 28.0932 37.9037 27.9614 37.9657C27.8287 38.0255 27.6916 38.0774 27.5562 38.1335C27.2842 38.2425 27.0146 38.3584 26.7435 38.4508C26.6092 38.5006 26.4765 38.5496 26.3461 38.5979C26.2162 38.6475 26.0892 38.698 25.9629 38.7399C25.6913 38.8081 25.4581 38.8102 25.202 38.9458C25.0074 38.9803 24.8089 39.0171 24.6141 39.0595C24.4189 39.0998 24.2284 39.151 24.0436 39.1832C23.8597 39.2196 23.6854 39.256 23.5275 39.2897C23.3695 39.3232 23.2283 39.3559 23.1088 39.3725L22.6295 39.3794C22.5015 39.3959 22.3738 39.4124 22.2464 39.4289C22.1186 39.4409 21.9913 39.453 21.8645 39.4649C21.7377 39.4777 21.6113 39.4904 21.4858 39.5031C21.3603 39.5161 21.2354 39.5303 21.1111 39.5349C20.8626 39.5487 20.6174 39.5617 20.3772 39.5714C20.257 39.5786 20.1381 39.5757 20.0207 39.5731C19.9032 39.5706 19.7872 39.5671 19.6729 39.5622L19.6911 39.5465L19.3632 39.5343C19.3086 39.5317 19.2538 39.5315 19.1993 39.5267L19.0357 39.5127L19.0034 39.5424C18.7798 39.5169 18.4292 39.5012 18.1737 39.4708C17.9432 39.4368 17.7932 39.4011 17.8806 39.3635C17.7484 39.3907 17.3162 39.3552 17.3848 39.4084C17.2467 39.3421 17.0061 39.3323 16.7324 39.2929C16.5262 39.2641 16.2614 39.2303 15.9755 39.1625C15.8322 39.1305 15.6823 39.097 15.5296 39.0628C15.4533 39.0451 15.3764 39.0273 15.2992 39.0093L15.0704 38.9441C14.9184 38.8994 14.7673 38.855 14.6208 38.8119C14.4745 38.7683 14.3329 38.7265 14.203 38.6765C13.9415 38.5818 13.7142 38.4957 13.5502 38.4288L13.5274 38.4383C13.4499 38.4164 13.3623 38.3872 13.2718 38.359C13.1812 38.3305 13.088 38.3017 13.0019 38.2727C12.8298 38.2149 12.686 38.1572 12.6498 38.1046C12.2273 38.0287 13.2157 38.3722 13.1379 38.4068C13.0002 38.363 12.9026 38.3527 12.727 38.2752C12.4816 38.1798 12.2131 38.0521 11.9262 37.9287C11.8547 37.8974 11.7823 37.8657 11.7092 37.8338C11.6727 37.8178 11.6361 37.8016 11.5994 37.7854C11.5634 37.7677 11.5273 37.7501 11.4912 37.7323C11.3466 37.6607 11.2008 37.5885 11.0559 37.5167C10.9838 37.4803 10.9117 37.444 10.8403 37.4081C10.8047 37.3897 10.7687 37.3723 10.7339 37.3533C10.6994 37.3335 10.6652 37.314 10.631 37.2945C10.4947 37.2161 10.3619 37.1383 10.2352 37.0617C10.1089 36.9843 9.98655 36.9118 9.87666 36.8347C9.76754 36.7564 9.66654 36.6806 9.57633 36.608C9.68189 36.6694 9.79279 36.7354 9.90725 36.8046C10.0228 36.8719 10.1454 36.9369 10.2681 37.0064C10.5151 37.1424 10.765 37.2938 11.0207 37.4173C11.1473 37.4813 11.2721 37.5445 11.393 37.6056C11.5144 37.6657 11.6302 37.7275 11.7456 37.775C11.974 37.8747 12.1796 37.9609 12.3464 38.0239L11.9114 37.7873C11.7991 37.7403 11.6788 37.6975 11.5616 37.6403C11.4432 37.585 11.3217 37.5283 11.1983 37.4708C11.0752 37.4123 10.9503 37.3528 10.825 37.2933C10.7011 37.231 10.58 37.1625 10.4585 37.097C10.3377 37.0302 10.2179 36.9638 10.1006 36.8988C10.0423 36.8655 9.98355 36.8342 9.92782 36.7999C9.87242 36.7649 9.81782 36.7303 9.76409 36.6963C9.54964 36.5595 9.35152 36.4289 9.18112 36.3106C9.06065 36.2129 8.87389 36.068 8.64931 35.9061C8.59314 35.8657 8.53475 35.8239 8.4749 35.7809C8.44487 35.7595 8.41451 35.7379 8.38381 35.716C8.35389 35.693 8.32375 35.6698 8.29327 35.6464C8.17125 35.5529 8.04444 35.4574 7.91675 35.3629C7.88627 35.3152 7.81753 35.2496 7.72732 35.1742C7.70452 35.1556 7.6806 35.1361 7.65591 35.1158C7.63166 35.095 7.60652 35.0734 7.58072 35.0512C7.52833 35.0078 7.47337 34.9623 7.41753 34.9159C7.30474 34.8245 7.18839 34.73 7.08283 34.6444C7.03066 34.6007 6.98106 34.5594 6.9359 34.5218C6.89219 34.4826 6.85471 34.4449 6.82334 34.4127C6.56906 34.2 6.67151 34.4154 6.80599 34.5082C6.88263 34.5699 6.9656 34.6247 7.04591 34.6822C7.12845 34.7857 7.22666 34.8848 7.33533 34.9821C7.38961 35.0308 7.44657 35.079 7.5053 35.1273C7.53489 35.1511 7.56492 35.1751 7.59507 35.1993C7.62655 35.222 7.65835 35.2449 7.69039 35.2679C7.81897 35.3593 7.95167 35.4536 8.08704 35.5498C8.22208 35.6463 8.35412 35.752 8.49182 35.8537C8.88981 36.1694 8.51806 35.8963 8.72106 36.0997C8.57312 35.9965 8.42307 35.8961 8.27725 35.7899L7.84689 35.4618C7.55579 35.248 7.28461 35.0097 7.00787 34.7779C6.94469 34.7232 6.88529 34.6719 6.829 34.6232C6.77494 34.5721 6.72389 34.5237 6.67529 34.4777C6.57796 34.3856 6.49008 34.3025 6.40655 34.2235C6.32223 34.1454 6.24248 34.0715 6.16206 33.9969C6.08164 33.9224 6.00434 33.8435 5.91791 33.7626C5.7752 33.6179 5.76875 33.5721 5.692 33.4743C5.82058 33.5721 5.86707 33.5741 6.07874 33.7683C5.89265 33.5291 5.73227 33.3685 5.5633 33.2033C5.40168 33.0317 5.2326 32.8543 5.02738 32.5898L5.08922 32.6881L4.92694 32.5342C4.87288 32.4826 4.82306 32.4277 4.77078 32.3744C4.70014 32.3029 4.58912 32.1723 4.4671 32.0219C4.4067 31.9463 4.34275 31.8662 4.27923 31.7867C4.22017 31.7037 4.16144 31.6212 4.1066 31.5442C3.8887 31.2349 3.73732 31.0098 3.86479 31.1979L3.77524 31.1826C3.12431 30.273 2.65136 29.352 2.22467 28.5235C2.08953 28.2208 1.96215 27.9423 1.84047 27.6773C1.72935 27.4078 1.62579 27.1507 1.52468 26.8973C1.47184 26.7714 1.43036 26.6424 1.38731 26.5137C1.34449 26.385 1.30245 26.2557 1.26118 26.1245C1.24094 26.0589 1.22047 25.9928 1.19989 25.9262C1.18999 25.8928 1.17998 25.8593 1.16996 25.8256C1.16162 25.7914 1.15317 25.7572 1.1446 25.7227C1.11101 25.5845 1.07842 25.4434 1.04661 25.2977C1.08932 25.3922 1.15728 25.6098 1.1753 25.585L1.23715 25.7944C1.25962 25.8636 1.28442 25.9321 1.308 26.001L1.4516 26.4134L1.52369 26.6194L1.55983 26.7224L1.60043 26.8237L1.76406 27.2284C1.78731 27.3817 1.87251 27.63 1.99075 27.8617C2.10421 28.0956 2.22812 28.3224 2.29764 28.4491C2.23513 28.2414 2.12545 28.0163 2.01588 27.7908C1.98874 27.7342 1.96149 27.6778 1.93458 27.6218C1.91033 27.5648 1.88731 27.5078 1.8655 27.4516C1.82201 27.3391 1.78453 27.2292 1.75894 27.1247C1.69665 27.0075 1.63959 26.8827 1.58708 26.7551C1.53748 26.6266 1.49755 26.4934 1.45873 26.3632C1.42047 26.2328 1.38609 26.1045 1.35461 25.9827C1.33904 25.9219 1.32392 25.8626 1.30934 25.8055C1.296 25.7481 1.28565 25.6922 1.27419 25.6394L1.12491 25.3396C1.13181 25.2852 1.11569 25.1755 1.08688 25.0388C1.07153 24.9706 1.0545 24.8953 1.03682 24.8166C1.0208 24.7373 1.00311 24.6548 0.984759 24.5724C0.912569 24.2432 0.823816 23.9188 0.803572 23.8264C0.813472 24.0035 0.883764 24.252 0.941716 24.4905C0.971415 24.6097 0.999559 24.726 1.01925 24.8294C1.04127 24.9321 1.05807 25.0212 1.05618 25.088C1.02893 25.0003 0.998335 24.9134 0.974086 24.8248L0.90257 24.5587L0.760407 24.0253C0.704458 24.1357 0.93594 24.6702 0.844619 24.6316C0.809247 24.4567 0.774093 24.3025 0.739388 24.1581C0.721703 24.0859 0.704574 24.0161 0.687778 23.9473C0.67176 23.8783 0.659524 23.8096 0.645509 23.741C0.618369 23.6037 0.592224 23.4649 0.568087 23.3139C0.555962 23.2383 0.544393 23.1598 0.533381 23.0769C0.528153 23.0354 0.522934 22.9928 0.517372 22.9491C0.513702 22.905 0.511137 22.8597 0.508357 22.8129C0.519702 22.861 0.529597 22.9093 0.542166 22.957L0.481105 22.3754L0.451627 22.0849L0.437275 21.9396L0.429495 21.7938C0.4444 21.7628 0.459077 21.8791 0.473759 21.9539L0.378332 21.0044C0.386007 21.2167 0.426819 21.5392 0.403683 21.6461C0.363639 21.4876 0.36376 21.1968 0.343627 20.9705L0.360979 21.7333L0.309138 21.4366C0.308471 21.3638 0.300249 21.2169 0.287902 21.061C0.284565 21.022 0.281216 20.9824 0.27799 20.9432C0.275988 20.9041 0.273988 20.8653 0.272097 20.828C0.267648 20.7534 0.262429 20.6846 0.256088 20.6297C0.230839 20.5614 0.225833 20.7751 0.210928 20.8473C0.201918 20.7737 0.1869 20.6954 0.190126 20.5677C0.202806 20.3186 0.256866 20.2237 0.265987 20.2363C0.245409 19.9364 0.278436 19.3801 0.309247 19.0779L0.319376 19.2286C0.325828 19.053 0.33039 18.8772 0.348854 18.7021C0.303916 18.6256 0.325822 18.3723 0.350294 18.1041C0.356189 18.0371 0.362308 17.9689 0.368203 17.9025C0.375544 17.8362 0.383994 17.7715 0.389222 17.7107C0.400234 17.5891 0.402913 17.4832 0.388231 17.4124L0.484215 17.0745L0.489116 16.9234C0.447182 16.8924 0.391122 17.3114 0.342513 17.5065C0.334949 16.9358 0.549619 16.2686 0.628482 15.7852C0.705455 15.7462 0.536947 16.4164 0.537169 16.6628C0.587112 16.403 0.634498 16.1428 0.687778 15.8839C0.71236 15.5226 0.784769 15.3237 0.848394 15.1924C0.913464 15.0613 0.964962 14.9952 0.964962 14.8962C0.948944 14.9318 0.932258 14.9673 0.918688 15.0035C0.932592 14.9048 0.952954 14.8077 0.969972 14.7095C1.02292 14.4898 1.08098 14.2633 1.1416 14.0384C1.20923 13.8157 1.28464 13.5962 1.35672 13.3857C1.39376 13.2808 1.43014 13.1781 1.46529 13.0787C1.50622 12.9815 1.54581 12.8875 1.58374 12.7974C1.66083 12.6181 1.7338 12.4565 1.79899 12.3208L1.71723 12.607C1.77129 12.4739 1.82479 12.3424 1.87607 12.2162C1.93046 12.0914 1.98285 11.972 2.02501 11.8591L1.83324 12.1554C1.95571 11.8548 2.07695 11.5528 2.20308 11.2525C2.11465 11.4727 2.02156 11.6811 1.93091 11.8621C1.88586 11.9527 1.84203 12.0368 1.80098 12.1127C1.75938 12.1883 1.72736 12.2584 1.69566 12.3169C1.67052 12.3363 1.70944 12.2201 1.72902 12.1506C1.79976 12.0655 1.92145 11.7623 2.01789 11.568L1.82523 11.8656C1.88685 11.7141 1.95081 11.5676 2.0171 11.4263C2.05058 11.3559 2.08306 11.2859 2.1191 11.2188C2.15637 11.1523 2.19408 11.0872 2.23224 11.0234L2.09208 11.2209C1.96083 11.471 1.84369 11.7208 1.73613 11.9638C1.70988 12.0249 1.68152 12.0843 1.65883 12.1455C1.63614 12.2067 1.61378 12.2673 1.59154 12.3273C1.54871 12.4477 1.50678 12.5655 1.46585 12.6804C1.42625 12.7957 1.38765 12.9081 1.35005 13.0172C1.31735 13.128 1.28554 13.2355 1.25484 13.3395C1.19344 13.5473 1.13459 13.7399 1.07452 13.914C0.994326 14.1334 0.914461 14.3925 0.83582 14.613C0.797112 14.7235 0.759959 14.8248 0.726367 14.9076C0.696334 14.9914 0.669417 15.0566 0.646392 15.0937L0.667085 14.9422L0.508357 15.5936C0.483107 15.7024 0.453637 15.8104 0.43217 15.92L0.368991 16.2492L0.355861 16.2296L0.280665 16.6258L0.243406 16.824C0.23106 16.8901 0.223828 16.957 0.213928 17.0234C0.228166 16.9628 0.241062 16.9022 0.256523 16.842L0.306911 16.6619C0.302017 16.7231 0.296464 16.7831 0.290346 16.8423C0.285786 16.9016 0.281339 16.96 0.27689 17.0176C0.267324 17.1328 0.255309 17.2448 0.241628 17.3546C0.227946 17.4644 0.212592 17.5722 0.196019 17.6788C0.179223 17.7855 0.160976 17.891 0.149853 17.9975C0.100911 18.422 0.027394 18.8487 0.0406307 19.3404C0.0497517 19.6444 0.0445214 19.9384 0.0604276 20.229C0.0646544 20.3743 0.0688827 20.5186 0.0731096 20.6628C0.0775588 20.8069 0.0766659 20.9509 0.0894576 21.095C0.109034 21.3834 0.128837 21.6737 0.153641 21.9706C0.191572 22.2664 0.235285 22.5689 0.288676 22.882C0.267319 22.9848 0.217594 23.007 0.32015 23.4896L0.291011 23.1193C0.324047 23.3174 0.373984 23.5124 0.417587 23.6951C0.439388 23.7865 0.459743 23.8749 0.475538 23.9594C0.494559 24.0433 0.510028 24.123 0.517481 24.1982C0.486781 24.1025 0.450746 24.0077 0.424607 23.9107C0.399134 23.8531 0.406354 23.9567 0.411137 24.0156C0.465418 24.2011 0.568985 24.4749 0.654634 24.7493C0.676435 24.8179 0.69545 24.8869 0.715138 24.954C0.736272 25.0208 0.755181 25.0864 0.770754 25.1496C0.801788 25.276 0.819476 25.3927 0.814693 25.4899L0.703461 25.2062L0.718369 25.3246C0.787556 25.4735 0.852181 25.7088 0.921145 25.8768C1.01124 26.1182 1.15695 26.5362 1.25506 26.8546C1.36618 27.1682 1.42513 27.3852 1.31535 27.2305C1.45572 27.4852 1.53002 27.6505 1.60277 27.8133C1.67874 27.9748 1.74637 28.1366 1.86394 28.3858C1.74125 28.0653 1.61134 27.7489 1.50978 27.4215C1.68053 27.7445 1.76928 27.9673 1.84081 28.1865C1.91544 28.4037 1.9695 28.6188 2.13523 28.8881L2.03212 28.7535C2.14358 28.9455 2.2636 29.1585 2.38606 29.3788C2.41721 29.4336 2.44625 29.49 2.47962 29.5443C2.51287 29.5988 2.54624 29.6534 2.57961 29.7081C2.64623 29.8174 2.71298 29.9268 2.77871 30.0348C2.84456 30.1425 2.90941 30.2488 2.97247 30.3521C3.0401 30.4524 3.10585 30.5497 3.16837 30.6425C3.29395 30.8277 3.40817 30.994 3.50361 31.1285C3.7184 31.5676 4.18824 31.9741 4.2591 32.214C4.49747 32.4591 4.69212 32.6916 4.88767 32.9032C4.98322 33.0108 5.0741 33.1171 5.16275 33.2236C5.2068 33.2771 5.25051 33.3303 5.29423 33.3835C5.33738 33.4372 5.38454 33.4872 5.42937 33.5397C5.61179 33.7469 5.79144 33.9629 5.99733 34.1866C6.103 34.2958 6.214 34.4083 6.33246 34.5249C6.39209 34.5828 6.45326 34.6422 6.51622 34.7033C6.57973 34.7636 6.64403 34.8266 6.71588 34.8855L6.69408 34.8876C6.81799 34.9524 6.99096 35.0997 7.15725 35.2572C7.24079 35.3353 7.32077 35.4183 7.3954 35.4904C7.47071 35.5616 7.53688 35.6266 7.58627 35.6764C7.65835 35.7029 7.49329 35.5601 7.44735 35.5025L7.57459 35.5839C7.73143 35.7028 7.93543 35.8708 8.06858 35.9889C8.13432 36.0489 8.18537 36.0924 8.20205 36.1131C8.21874 36.1339 8.20161 36.1311 8.13521 36.0929C8.39671 36.2464 8.53264 36.3331 8.70471 36.4557C8.74754 36.4867 8.79281 36.5195 8.84309 36.5558C8.89281 36.593 8.94797 36.6331 9.0126 36.6753C9.14118 36.761 9.2998 36.8669 9.50836 37.006C9.57855 37.0259 9.48901 36.9294 9.71026 37.0607C9.69557 37.1072 9.85852 37.2167 10.0831 37.346C10.3083 37.474 10.589 37.6313 10.8274 37.7433C10.7311 37.673 10.6321 37.6083 10.5395 37.5326C10.6414 37.5735 10.7797 37.6441 10.9149 37.7164C11.0188 37.7998 11.1905 37.9048 11.4024 38.0219C11.4549 38.052 11.5114 38.08 11.5705 38.1075C11.6296 38.1351 11.6904 38.1637 11.7528 38.1929C11.8779 38.2507 12.0099 38.3099 12.1449 38.3696C12.2125 38.3992 12.2807 38.4292 12.3493 38.4593C12.4184 38.4881 12.4893 38.5136 12.5592 38.5407C12.6996 38.594 12.8394 38.647 12.9754 38.6987C13.0433 38.7245 13.1103 38.75 13.1759 38.7748C13.2414 38.8 13.3054 38.825 13.3691 38.845C13.4957 38.8876 13.6146 38.9283 13.7225 38.9666C13.6601 38.9249 13.4011 38.8028 13.6773 38.8826C13.8046 38.9262 13.9205 38.966 14.028 39.0028C14.1358 39.0381 14.2337 39.0754 14.3292 39.1001C14.5188 39.1533 14.685 39.1998 14.8501 39.2462C14.9326 39.2693 15.0149 39.2923 15.0998 39.3159C15.1842 39.3413 15.2725 39.362 15.3663 39.3839C15.5535 39.4293 15.7622 39.4801 16.0152 39.5415C16.084 39.5636 16.1523 39.5879 16.2223 39.6042C16.2923 39.6212 16.3627 39.6371 16.4338 39.6521C16.576 39.682 16.721 39.7086 16.8707 39.7346C17.1692 39.7931 17.4906 39.8208 17.848 39.8781C17.9462 39.8834 18.0093 39.8749 18.0895 39.8733C18.1697 39.8735 18.2675 39.873 18.436 39.8972C18.6009 39.9223 18.5371 39.9354 18.5148 39.9527L18.9684 39.9432C19.0288 39.9332 19.12 39.939 19.2198 39.9465C19.3196 39.9507 19.4279 39.958 19.5217 39.9588C19.6811 39.9596 19.8205 39.9832 19.7523 39.9996C19.9212 39.9826 20.1098 39.9899 20.3172 39.9894C20.5247 39.9861 20.7513 39.9858 20.9946 39.974L21.0252 39.941C21.1209 39.94 21.2252 39.9432 21.336 39.9362C21.4469 39.929 21.5646 39.9212 21.6875 39.9132C21.8104 39.904 21.9387 39.8944 22.0705 39.8847C22.1364 39.8795 22.2032 39.8741 22.2708 39.8687C22.3383 39.8629 22.4062 39.8522 22.4747 39.844C22.7485 39.8076 23.0308 39.7702 23.309 39.7333C23.5852 39.6834 23.8574 39.6343 24.1129 39.588C24.1704 39.5744 24.2276 39.5607 24.2845 39.547C24.3413 39.5321 24.3976 39.5171 24.4536 39.5022C24.5659 39.473 24.6772 39.4458 24.7878 39.42C24.8984 39.395 25.0081 39.3703 25.1166 39.3458C25.1708 39.3338 25.2249 39.3219 25.2786 39.3101C25.3318 39.2961 25.3847 39.2822 25.4374 39.2684C25.6479 39.2131 25.8539 39.1584 26.0536 39.0998C26.1034 39.0847 26.1529 39.0699 26.2021 39.055C26.2511 39.0397 26.2986 39.0204 26.3463 39.0028C26.4413 38.9666 26.5345 38.9289 26.6256 38.8891L26.6448 38.8488C26.8184 38.7953 26.9619 38.7462 27.0893 38.6999C27.2163 38.6526 27.3245 38.6007 27.4326 38.5543C27.5403 38.5067 27.6461 38.4603 27.7642 38.4123C27.8233 38.3884 27.8855 38.364 27.9524 38.3389C27.9859 38.3264 28.0206 38.3136 28.0565 38.3003C28.0921 38.286 28.1291 38.2713 28.1674 38.2559C28.1239 38.2803 28.0809 38.3061 28.0368 38.3295L27.9037 38.3977C28.0509 38.3449 28.2002 38.2717 28.3526 38.1996C28.5046 38.1269 28.6588 38.0531 28.8083 37.9816C28.9596 37.9138 29.1 37.8358 29.2346 37.7745C29.3686 37.7119 29.4938 37.6598 29.6052 37.6246C29.5015 37.6357 29.6575 37.555 29.8653 37.4411C30.0709 37.3233 30.3328 37.1787 30.4549 37.0901C30.5175 37.0335 30.0384 37.3446 30.1178 37.2415C30.1856 37.189 30.2734 37.1302 30.3716 37.0691C30.4208 37.0385 30.4724 37.0075 30.5255 36.9762C30.5522 36.9608 30.5792 36.9452 30.6062 36.9295L30.6861 36.8795C30.8997 36.7469 31.1179 36.6213 31.2667 36.5395L31.1478 36.6328L31.4443 36.4449L31.7321 36.244L32.0196 36.0426C32.1146 35.9742 32.2132 35.9108 32.3044 35.8374L32.8595 35.4079C32.9056 35.3719 32.9523 35.3365 32.9978 35.2997L33.1314 35.1861L33.3984 34.9585C33.2897 35.0388 33.1676 35.1361 33.0388 35.2418C32.9754 35.2959 32.9056 35.3464 32.8364 35.3998C32.7671 35.4531 32.6967 35.5072 32.6262 35.5612C32.4853 35.6694 32.3444 35.7775 32.2102 35.8769C32.0717 35.9708 31.9405 36.0566 31.8241 36.1265C32.4533 35.6905 33.1077 35.1093 33.6096 34.6957C33.679 34.6253 33.7417 34.5477 33.8072 34.4735C33.9208 34.3719 34.0506 34.2469 34.1717 34.1338C34.2324 34.0772 34.2908 34.0235 34.3441 33.9773C34.3962 33.9298 34.4418 33.8883 34.4806 33.8598L34.3882 33.9767C34.3568 34.0152 34.3237 34.0518 34.2915 34.0896C34.324 34.0593 34.3579 34.0277 34.3925 33.9953C34.4257 33.9616 34.4596 33.9272 34.4935 33.8927C34.5613 33.8236 34.6289 33.7539 34.6905 33.6886C34.8139 33.558 34.9132 33.4446 34.9426 33.3876C34.8534 33.4867 34.8058 33.5162 34.7588 33.5521C34.8501 33.4338 34.9454 33.3197 35.0325 33.1985C35.3109 32.8827 35.199 33.1134 35.4773 32.7955C35.7778 32.3398 35.1686 33.1396 35.2084 33.0011C35.3443 32.8489 35.482 32.6947 35.6213 32.5388C35.7524 32.3761 35.8852 32.2117 36.019 32.0457C36.0855 31.9624 36.1523 31.8786 36.2194 31.7945C36.2825 31.7074 36.3459 31.6199 36.4095 31.5323C36.5361 31.3563 36.6648 31.1798 36.7907 30.9998C36.9099 30.8153 37.0298 30.6298 37.1503 30.4435C37.2093 30.3495 37.2725 30.258 37.3279 30.1614C37.3837 30.065 37.4394 29.9685 37.4952 29.8718C37.5509 29.775 37.6066 29.6781 37.6623 29.5811C37.7173 29.4837 37.7757 29.3881 37.8249 29.2873C37.9269 29.0878 38.0289 28.8881 38.1309 28.6885C38.5201 27.8814 38.8713 27.0564 39.1389 26.2279C39.2865 25.8182 39.3941 25.4025 39.5119 24.9989C39.5426 24.8983 39.5661 24.7964 39.5898 24.6952C39.6139 24.594 39.6377 24.4935 39.6614 24.3934C39.6851 24.2935 39.7086 24.1941 39.7321 24.0954C39.7558 23.9967 39.7797 23.8988 39.7965 23.8001C39.7927 23.6342 39.8099 23.4331 39.8376 23.2146C39.8502 23.1052 39.8704 22.9922 39.8833 22.8758C39.8965 22.7596 39.9101 22.6412 39.9237 22.5231C39.9376 22.4051 39.9514 22.2872 39.9648 22.1722C39.9771 22.0571 39.9926 21.9451 39.9953 21.8374C40.0035 21.6222 40.0061 21.4281 39.9931 21.2749ZM0.70824 15.3804L0.770863 15.1244L0.794896 15.162L0.700894 15.5487C0.67887 15.572 0.698897 15.4541 0.70824 15.3804ZM0.407023 16.5603L0.494792 16.1017L0.506795 16.1224L0.419814 16.5783C0.391449 16.7304 0.359647 16.882 0.341183 17.0356L0.327156 17.0202C0.345621 16.8657 0.378992 16.7134 0.407023 16.5603ZM0.266544 18.132C0.278334 18.0111 0.28979 17.8827 0.304807 17.7706L0.318819 17.7869C0.301467 17.8968 0.29568 18.0077 0.284779 18.1181L0.255749 18.4499C0.248185 18.3666 0.255532 18.2529 0.266544 18.132ZM0.979871 26.0146C0.9663 25.9719 0.951393 25.9296 0.938824 25.8865L0.903005 25.7568L0.831706 25.4974L0.852399 25.5119L0.922802 25.7678L0.958186 25.8957L0.999219 26.0219L0.979871 26.0146ZM1.31869 26.7828C1.29766 26.7172 1.27442 26.6448 1.25017 26.5687C1.20512 26.4377 1.15706 26.3064 1.10812 26.1738C1.06073 26.0407 1.00489 25.9084 0.964962 25.7692C0.879647 25.4924 0.796332 25.2061 0.737936 24.9023C0.814574 25.1353 0.902894 25.4284 0.986429 25.7266C1.02547 25.8765 1.07732 26.0235 1.12214 26.1661C1.16752 26.3085 1.21079 26.4452 1.25017 26.5687C1.29344 26.6965 1.33748 26.8263 1.38097 26.9544C1.36328 26.9058 1.34004 26.8484 1.31869 26.7828ZM2.67627 29.6577C2.71576 29.7131 2.77238 29.7971 2.78094 29.7834C2.72388 29.6394 2.7112 29.5772 2.78484 29.7854C2.78528 29.7882 2.78016 29.7798 2.78094 29.7834C2.83522 29.9228 2.93155 30.138 3.02498 30.2439C2.97315 30.2128 2.79184 29.8531 2.67627 29.6577ZM5.22149 33.1678C5.12572 33.0644 5.10313 33.0167 5.07121 32.9667L5.35396 33.2733C5.29756 33.2202 5.21637 33.1375 5.22149 33.1678ZM14.5593 38.8816C14.4962 38.8683 14.4325 38.8537 14.3466 38.832C14.2614 38.8083 14.1554 38.7733 14.0064 38.7248C14.0755 38.7346 14.1881 38.771 14.2818 38.7994C14.3753 38.8279 14.4521 38.8416 14.4446 38.8206L14.3381 38.772L15.0969 38.9961C14.8081 38.9308 14.6852 38.9084 14.5593 38.8816ZM26.2694 38.9878C26.1253 39.0339 25.9536 39.0744 25.856 39.1188L25.7381 39.1345L26.136 39.0094C26.2686 38.9679 26.3977 38.9156 26.5286 38.869C26.5319 38.8978 26.413 38.9405 26.2694 38.9878ZM29.9708 37.0639C29.7979 37.1661 29.7503 37.1631 29.6396 37.2103C30.031 37.0252 30.0415 36.9319 30.3388 36.7843C30.3296 36.8237 30.0949 36.9703 29.9708 37.0639Z" fill="#689762"/>
<path d="M0.00978983 19.1722L0 19.4393C0.0135703 19.4997 0.0256975 19.3967 0.0363758 19.3402C0.0305917 19.2642 0.0266971 19.1438 0.00978983 19.1722Z" fill="#689762"/>
<path d="M34.4531 10.457C34.5298 10.5851 34.5949 10.6988 34.6459 10.7653C34.5711 10.6456 34.5101 10.548 34.4531 10.457Z" fill="#689762"/>
<path d="M10.2266 6.00324C10.2979 5.94769 10.3713 5.89062 10.4365 5.83984C10.3529 5.89702 10.2803 5.95127 10.2266 6.00324Z" fill="#689762"/>
<path d="M34.4071 7.68044C34.3857 7.64561 34.3574 7.60449 34.2969 7.53906L34.4071 7.68044Z" fill="#689762"/>
<path d="M31.6875 4.95584L32.0799 5.26994L32.1014 5.26658C31.9418 5.1353 31.7891 5.01508 31.7086 4.95215L31.6875 4.95584Z" fill="#689762"/>
<path d="M10.8454 5.58907C10.9846 5.50867 11.1155 5.42697 11.2104 5.34277C11.0554 5.42968 10.9219 5.50834 10.7967 5.58657C10.734 5.62563 10.6733 5.66458 10.613 5.7044C10.5545 5.74683 10.4968 5.79077 10.4375 5.83623C10.4991 5.79424 10.5649 5.75041 10.6339 5.70896C10.704 5.66914 10.7754 5.62867 10.8454 5.58907Z" fill="#689762"/>
<path d="M38.1562 14.8857C38.1921 15.0125 38.2425 15.1617 38.2521 15.218L38.2474 15.036C38.2239 15.0205 38.2065 15.0297 38.1562 14.8857Z" fill="#689762"/>
<path d="M32.4141 6.94434L32.7543 7.27515L32.8394 7.35783C32.8671 7.38604 32.8936 7.41544 32.9207 7.44408L33.0827 7.61736L32.9047 7.35555C32.9026 7.35251 32.9003 7.34969 32.8982 7.34665C32.8995 7.34904 32.902 7.35219 32.9031 7.35446C32.7592 7.30347 32.6497 7.12141 32.4141 6.94434Z" fill="#689762"/>
<path d="M32.8516 7.28809C32.8669 7.30881 32.8828 7.3291 32.8977 7.35015C32.8881 7.33268 32.8721 7.31174 32.8516 7.28809Z" fill="#689762"/>
<path d="M22.6875 3.07527C22.7094 3.07558 22.7319 3.07581 22.7533 3.07581C22.7308 3.07542 22.7073 3.07503 22.6875 3.07527Z" fill="#689762"/>
<path d="M22.6459 3.08449C22.6333 3.07429 22.6562 3.07125 22.6899 3.07071C22.6016 3.06886 22.5308 3.06593 22.6459 3.08449Z" fill="#689762"/>
<path d="M1.04797 23.6043C1.05843 23.7335 1.06467 23.8435 1.12106 24.04L1.09414 23.915C1.08201 23.8352 1.08446 23.804 1.09058 23.8031C1.09714 23.8023 1.10738 23.8319 1.12273 23.8716C1.1521 23.9514 1.18935 24.0744 1.19791 24.088C1.18012 24.0316 1.16354 23.9736 1.14864 23.9161C1.14163 23.8872 1.13473 23.8586 1.12784 23.8304C1.12316 23.8017 1.1185 23.7736 1.11405 23.7463C1.09781 23.6365 1.09058 23.5372 1.09647 23.4659L0.976562 23.0469C1.02595 23.326 1.03763 23.4751 1.04797 23.6043Z" fill="#689762"/>
<path d="M2.48438 12.6025C2.4935 12.5816 2.50107 12.5625 2.50896 12.542C2.5044 12.5498 2.50017 12.557 2.4955 12.565C2.49182 12.5771 2.48838 12.5889 2.48438 12.6025Z" fill="#689762"/>
<path d="M2.4147 12.8195C2.45741 12.7256 2.4751 12.6609 2.491 12.6006C2.4632 12.6706 2.43484 12.7386 2.40625 12.7964L2.4147 12.8195Z" fill="#689762"/>
<path d="M7.20423 5.93153C7.21279 5.9209 7.21902 5.91601 7.22747 5.90625C7.19833 5.93229 7.18521 5.94509 7.20423 5.93153Z" fill="#689762"/>
<path d="M11.8692 5.15625C11.8658 5.15897 11.863 5.16051 11.8594 5.16264C11.863 5.16063 11.8633 5.1611 11.8633 5.1611C11.8653 5.15933 11.8658 5.15897 11.8692 5.15625Z" fill="#689762"/>
<path d="M3.86302 15.3032L3.89539 15.1939L3.88404 15.1758L3.85156 15.285L3.86302 15.3032Z" fill="#689762"/>
<path d="M12.9531 4.48828C13.0092 4.46408 13.0621 4.44119 13.125 4.41406C13.0798 4.42589 13.0161 4.45475 12.9531 4.48828Z" fill="#689762"/>
<path d="M5.22854 32.2352C5.20384 32.2185 5.41486 32.4537 5.63899 32.7101C5.69483 32.7745 5.75155 32.84 5.80616 32.9028C5.86011 32.9663 5.91651 33.0229 5.96367 33.0765C6.05922 33.1826 6.1293 33.2667 6.14431 33.3016C6.19659 33.3102 6.31717 33.4359 6.4502 33.5791C6.58668 33.7187 6.74129 33.8708 6.84541 33.945C6.92972 34.0039 6.83228 33.8378 6.79658 33.8516C6.71327 33.771 6.62183 33.6873 6.52773 33.6025C6.43574 33.5155 6.3443 33.4243 6.25398 33.3355C6.16411 33.2464 6.07712 33.1583 5.99848 33.0735C5.92007 32.9886 5.84888 32.9081 5.79749 32.8282C5.79749 32.8282 5.79749 32.8282 5.79716 32.8285L5.22854 32.2352Z" fill="#689762"/>
<path d="M5.8017 32.8302C5.79747 32.8122 5.78302 32.786 5.77033 32.762L5.74219 32.7363C5.75943 32.767 5.77801 32.7958 5.8017 32.8302Z" fill="#689762"/>
<path d="M11.9702 5.06445C11.9969 5.06705 11.9207 5.1187 11.8672 5.15732C11.969 5.09678 12.0674 5.02994 12.1654 4.97754C12.1163 4.99164 12.0706 5.00184 11.9702 5.06445Z" fill="#689762"/>
<path d="M37.2363 21.9632L37.2344 22.0907C37.2566 22.05 37.2814 22.0288 37.3053 21.9658C37.3172 21.9344 37.3289 21.8925 37.3399 21.8325C37.3496 21.7724 37.3646 21.6949 37.3662 21.5904C37.3478 21.5832 37.3331 21.6456 37.3077 21.7244C37.2839 21.8036 37.2586 21.9001 37.2363 21.9632Z" fill="#689762"/>
<path d="M38.3874 26.6211C38.2417 26.9043 38.0949 27.3242 38.0625 27.4915C38.1851 27.1888 38.3504 26.8441 38.3874 26.6211Z" fill="#689762"/>
<path d="M34.5625 33.3122C34.6004 33.2609 34.6497 33.2044 34.7047 33.1453C34.7324 33.1158 34.7609 33.0855 34.7902 33.0544C34.8186 33.0228 34.8475 32.9905 34.8763 32.9583C34.992 32.8296 35.1077 32.7007 35.1785 32.5947C35.0632 32.7245 34.9297 32.8725 34.8161 33.0049C34.7014 33.1362 34.5995 33.2456 34.5625 33.3122Z" fill="#689762"/>
<path d="M34.011 33.8643L33.625 34.2443L34.0081 33.8889L34.011 33.8643Z" fill="#689762"/>
<path d="M33.5312 34.2621L33.9114 33.9095L33.912 33.8867L33.5312 34.2621Z" fill="#689762"/>
<path d="M30.6037 37.3067C30.4812 37.3839 30.348 37.477 30.2193 37.5518C30.2104 37.578 30.1835 37.6146 30.3163 37.5524C30.4184 37.4865 30.5341 37.4173 30.6424 37.3497C30.6967 37.3159 30.7491 37.2824 30.7971 37.25C30.8438 37.2154 30.8862 37.182 30.9218 37.1504C30.8791 37.1579 30.8305 37.1782 30.7777 37.2068C30.7236 37.2337 30.6649 37.268 30.6037 37.3067Z" fill="#689762"/>
<path d="M30.0726 37.9906C30.016 38.0275 29.9731 38.0588 29.9531 38.0786C30.0776 38.0192 30.1974 37.9512 30.3176 37.8841C30.4931 37.7921 30.7192 37.6535 30.6902 37.6387C30.5794 37.6794 30.4156 37.7701 30.2696 37.8609C30.1965 37.9061 30.1282 37.9521 30.0726 37.9906Z" fill="#689762"/>
<path d="M28.0938 37.403L28.4452 37.2491L28.4527 37.2285L28.1012 37.3821L28.0938 37.403Z" fill="#689762"/>
<path d="M17.0881 38.9348L17.0834 38.9337C17.0816 38.9336 17.0799 38.9337 17.0781 38.9336L17.0881 38.9348Z" fill="#689762"/>
<path d="M17.3738 38.9519C17.307 38.9467 17.2411 38.9363 17.175 38.9265L16.9766 38.8975L17.0813 38.9328C17.1117 38.9337 17.1444 38.9351 17.1812 38.9377C17.2396 38.9418 17.3047 38.9487 17.3738 38.9519Z" fill="#689762"/>
<path d="M16.9409 38.9624C16.9079 38.9413 16.9475 38.9317 17.0294 38.9313C17.043 38.9312 17.0593 38.9317 17.0751 38.9322L16.4531 38.8252C16.6739 38.8708 16.8196 38.9196 16.9409 38.9624Z" fill="#689762"/>
<path d="M14.7969 38.8408L15.3007 38.9885L15.3224 38.9772C15.1534 38.9298 14.9851 38.8792 14.8164 38.8301L14.7969 38.8408Z" fill="#689762"/>
<path d="M10.0397 36.4069L9.81735 36.2666L9.79688 36.2719C9.86284 36.3046 9.93604 36.3474 10.0131 36.3954C10.0514 36.4198 10.0909 36.445 10.131 36.4706C10.1711 36.4962 10.2133 36.5198 10.2547 36.5449C10.421 36.6437 10.5877 36.7425 10.7228 36.8013L10.2653 36.5419L10.1509 36.4769L10.0397 36.4069Z" fill="#689762"/>
<path d="M9.20435 36.1115L9.25139 36.1059L8.80469 35.8027L9.20435 36.1115Z" fill="#689762"/>
<path d="M1.9375 26.3903C1.96509 26.4705 1.988 26.5524 2.02015 26.6309C1.98745 26.4828 1.96509 26.3315 1.9375 26.1826V26.3903Z" fill="#689762"/>
<path d="M1.71094 14.8821C1.74575 14.7644 1.75087 14.7277 1.74097 14.7296L1.73564 14.7425L1.71094 14.8821Z" fill="#689762"/>
<path d="M1.52344 15.1134C1.56815 15.059 1.71308 14.7375 1.73978 14.7308L1.78228 14.6382L1.82943 14.3954C1.8459 14.3145 1.85902 14.2326 1.88038 14.1531L1.99851 13.6719L1.89306 13.8734C1.8509 13.9606 1.80563 14.0613 1.76114 14.1682C1.71942 14.276 1.68272 14.3913 1.64813 14.5049C1.57994 14.7325 1.52944 14.9554 1.52344 15.1134Z" fill="#689762"/>
<path d="M1.78125 13.6995L1.91539 13.3201C1.95977 13.1936 2.01494 13.071 2.06422 12.9463C2.01016 12.9922 1.95711 13.1069 1.90694 13.2461C1.86256 13.3874 1.82129 13.5533 1.78125 13.6995Z" fill="#689762"/>
<path d="M1.78241 13.6992L1.66406 14.0351C1.70466 13.9686 1.74426 13.8384 1.78241 13.6992Z" fill="#689762"/>
<path d="M1.99468 13.2522C1.96465 13.3169 1.93639 13.3931 1.90625 13.4894C1.94107 13.4018 1.97389 13.3145 2.01426 13.2308C2.05486 13.1471 2.09635 13.0646 2.13818 12.9825C2.22194 12.8186 2.30713 12.6568 2.38922 12.4923C2.47298 12.3285 2.56431 12.1665 2.64284 11.9937C2.68277 11.9075 2.72092 11.8193 2.75696 11.7282C2.79166 11.6367 2.82703 11.5436 2.86329 11.4482C2.77553 11.584 2.70324 11.7276 2.6236 11.868L2.71724 11.5924C2.63382 11.7639 2.54439 11.9625 2.45819 12.148C2.41436 12.2403 2.37187 12.3297 2.33305 12.4114C2.29646 12.4941 2.26119 12.5682 2.22838 12.6288L2.24618 12.671C2.19646 12.8634 2.14363 12.9717 2.08556 13.0799C2.05642 13.134 2.02627 13.1879 1.99468 13.2522Z" fill="#689762"/>
<path d="M1.769 11.7154L1.67969 12.0212L1.82595 11.5928L1.769 11.7154Z" fill="#689762"/>
<path d="M2.40358 12.0718C2.34508 12.1818 2.29869 12.2912 2.26699 12.3829C2.23785 12.4758 2.21995 12.5494 2.21094 12.5858C2.28546 12.378 2.37834 12.1779 2.46599 11.9756L2.40358 12.0718Z" fill="#689762"/>
<path d="M2.65032 10.4183C2.78358 10.2361 2.90337 10.0877 3.0017 9.96687C3.15542 9.66123 3.53028 9.19305 3.71693 8.87862L3.63917 8.96683C3.62448 8.96715 3.64695 8.91855 3.67854 8.8579C3.70935 8.79681 3.75552 8.72802 3.77854 8.68191L3.88622 8.75276L3.96431 8.64556L3.96075 8.6231C4.06653 8.40111 4.22247 8.28795 4.27341 8.22317C4.29277 8.18118 4.31413 8.13594 4.33938 8.08939C4.36563 8.04361 4.39455 7.99565 4.42569 7.94617C4.48809 7.847 4.55973 7.74143 4.63826 7.6338C4.7169 7.52639 4.80166 7.41626 4.89209 7.31004C4.98641 7.20696 5.08497 7.10649 5.18508 7.01308C5.2655 6.92313 5.36693 6.80975 5.4716 6.69278C5.52266 6.63322 5.57828 6.57615 5.63189 6.52016C5.68495 6.46374 5.73668 6.40884 5.78451 6.35785C5.97427 6.15267 6.09707 6.00381 5.99541 6.05763C6.13111 5.91159 6.29473 5.75762 6.46636 5.59075C6.63955 5.42562 6.81651 5.24279 7.01417 5.07668C7.20916 4.90764 7.40537 4.73371 7.6047 4.57433C7.80781 4.4195 8.00825 4.27216 8.19835 4.14065C8.32816 4.09009 8.53693 3.93375 8.76919 3.75342C8.88576 3.66402 9.00778 3.56799 9.13236 3.48249C9.25939 3.40069 9.38676 3.32636 9.50744 3.27168L9.29299 3.36749L9.41179 3.27428C9.59521 3.16785 9.8615 2.97548 9.96795 2.95063C9.88663 3.00781 9.81 3.07237 9.73102 3.13291L9.83836 3.08528C9.88296 3.05826 9.91955 3.03385 9.95137 3.01323C9.98351 2.99327 10.0099 2.97569 10.0325 2.95953C10.0775 2.9273 10.1071 2.90105 10.1367 2.8749C10.1957 2.8226 10.2546 2.7703 10.4364 2.67037C10.5235 2.63424 10.6314 2.57533 10.748 2.50697C10.8667 2.44231 10.9961 2.37189 11.1206 2.30397C11.2453 2.23627 11.3662 2.17269 11.4701 2.12646C11.5221 2.10335 11.5697 2.08458 11.6114 2.07178C11.6539 2.0605 11.6904 2.05518 11.719 2.05692C11.6765 2.08187 11.6332 2.10509 11.5919 2.13254C11.872 2.00484 12.1554 1.88408 12.4372 1.76039C12.5472 1.65265 12.3424 1.72675 12.067 1.84155C11.9296 1.89992 11.7739 1.96599 11.6321 2.02621C11.4916 2.08925 11.3662 2.14882 11.2818 2.17789L11.5332 2.01731C11.3787 2.06071 11.0826 2.20133 10.7522 2.3669C10.5882 2.45186 10.4205 2.552 10.2547 2.64434C10.0903 2.73906 9.92701 2.82542 9.78685 2.90864C9.91722 2.89377 9.45193 3.16058 9.31178 3.28014C9.23203 3.32734 9.15171 3.37475 9.07096 3.42249C8.99254 3.4736 8.91446 3.52644 8.83605 3.57939C8.67921 3.68561 8.52193 3.79465 8.36431 3.90553C8.28445 3.95957 8.20869 4.01968 8.13239 4.07946C8.05608 4.13935 7.97967 4.19935 7.90292 4.25946C7.8265 4.3199 7.74987 4.38055 7.67323 4.4412C7.59692 4.50239 7.51872 4.56153 7.44597 4.62728C7.29792 4.75585 7.14965 4.88475 7.00149 5.01353C6.92763 5.0782 6.85244 5.14124 6.77947 5.20677C6.70795 5.27372 6.63643 5.34066 6.56502 5.40739C6.42187 5.54063 6.27838 5.67278 6.13455 5.80298C5.99451 5.9373 5.85535 6.07086 5.7172 6.20345C5.77883 6.13553 5.88772 6.01542 5.99651 5.89542C6.02387 5.86558 6.05068 5.83509 6.07793 5.80667C6.10563 5.77867 6.13266 5.75155 6.15802 5.72594C6.20885 5.67473 6.25345 5.62992 6.28549 5.59759C6.04701 5.77108 5.8528 6.019 5.65914 6.24978C5.61042 6.30728 5.56226 6.36436 5.51477 6.42045C5.46638 6.47568 5.41877 6.53003 5.37228 6.5832C5.27929 6.68953 5.18396 6.7849 5.08218 6.86172L5.25693 6.6177C5.11033 6.80877 4.96873 6.99322 4.82869 7.17583C4.69021 7.3593 4.5604 7.54646 4.4208 7.73037C4.35084 7.82227 4.28043 7.91492 4.20879 8.00889C4.1405 8.10534 4.07042 8.20256 3.99801 8.30118C3.9256 8.39981 3.85073 8.49974 3.77287 8.60162C3.73372 8.6524 3.69401 8.70393 3.65375 8.75601C3.61382 8.80842 3.57621 8.86354 3.53605 8.91811L3.60625 8.78347C3.34152 9.21269 3.09058 9.58137 2.87757 9.95689C2.8224 10.0497 2.76778 10.1417 2.71327 10.2333C2.65877 10.3251 2.60304 10.4161 2.55444 10.5114C2.45366 10.7001 2.35267 10.8909 2.25 11.0889C2.38904 10.8272 2.52508 10.605 2.65032 10.4183ZM11.295 2.13493C11.2321 2.17518 11.1285 2.23551 11.1603 2.23779C11.0917 2.24994 11.0281 2.27305 10.9621 2.3018C11.0615 2.252 11.1667 2.19927 11.295 2.13493ZM10.434 2.57858C10.5653 2.50567 10.6855 2.43406 10.8298 2.36657C10.7107 2.42929 10.5946 2.5175 10.4604 2.60159C10.3264 2.68643 10.1767 2.77106 9.99674 2.8418C10.1655 2.73482 10.3035 2.65291 10.434 2.57858Z" fill="#689762"/>
<path d="M2.29825 10.6121L2.17969 10.8711C2.28313 10.6664 2.38168 10.4589 2.49025 10.2568C2.42151 10.3725 2.36243 10.4937 2.29825 10.6121Z" fill="#689762"/>
<path d="M4.21837 8.46191L4.07031 8.71938L4.29601 8.35645L4.21837 8.46191Z" fill="#689762"/>
<path d="M6.57886 10.1055C6.53681 10.1603 6.48909 10.2246 6.42969 10.3087L6.57886 10.1055Z" fill="#689762"/>
<path d="M6.56401 5.62259C6.49916 5.70516 6.33832 5.86542 6.37169 5.86802C6.56368 5.6827 6.75444 5.49576 6.94865 5.3125C6.81907 5.41384 6.69237 5.51898 6.56401 5.62259Z" fill="#689762"/>
<path d="M6.97152 4.95246L6.86719 5.06248L7.27597 4.69629L6.97152 4.95246Z" fill="#689762"/>
<path d="M7.5885 8.7425C7.5073 8.84666 7.4349 8.94995 7.39062 9.00322C7.48028 8.96351 7.54713 8.87758 7.61431 8.77874C7.6479 8.72926 7.68138 8.67664 7.71775 8.6251C7.75512 8.57454 7.79762 8.52723 7.844 8.48438C7.80318 8.51031 7.75902 8.54839 7.7143 8.59233C7.67159 8.63801 7.6291 8.69053 7.5885 8.7425Z" fill="#689762"/>
<path d="M7.69986 4.25149C7.86682 4.12953 8.0379 4.01094 8.13133 3.97047C8.28361 3.7832 7.83657 4.14765 7.71978 4.20342C7.7883 4.0998 8.00186 3.93402 8.13245 3.83854C8.16381 3.81597 8.19039 3.79839 8.20964 3.78613C8.18049 3.80414 8.13022 3.83561 8.04836 3.89138C7.91321 4.00465 7.75737 4.13539 7.61688 4.25322C7.54725 4.31268 7.48218 4.36964 7.42634 4.42053C7.37162 4.47272 7.3278 4.52068 7.29688 4.55757C7.33503 4.53001 7.39142 4.48086 7.46261 4.42747C7.53402 4.37442 7.61677 4.31312 7.69986 4.25149Z" fill="#689762"/>
<path d="M8.20312 3.78585C8.22037 3.77522 8.23205 3.76817 8.23361 3.76676C8.23628 3.76545 8.22415 3.7724 8.20312 3.78585Z" fill="#689762"/>
<path d="M7.58409 4.4634L8.22034 3.95605L7.80178 4.24521L7.59232 4.39049C7.52269 4.43931 7.45173 4.4864 7.38521 4.53913C7.36708 4.57461 7.45462 4.49888 7.54572 4.4353C7.63549 4.3702 7.72246 4.30955 7.69132 4.36054L7.58409 4.4634Z" fill="#689762"/>
<path d="M7.96875 8.43141L8.08031 8.28418C8.01179 8.36165 7.98176 8.40472 7.96875 8.43141Z" fill="#689762"/>
<path d="M8.72726 7.64375C8.79488 7.54903 8.8486 7.504 8.9129 7.46136C8.97752 7.41904 9.04894 7.3751 9.14793 7.27637L9.06295 7.32617C9.03403 7.34526 8.99254 7.37488 8.9466 7.40939C8.92391 7.42696 8.89978 7.44552 8.87542 7.46429C8.85206 7.48425 8.82903 7.5053 8.80667 7.52592C8.71747 7.6087 8.64238 7.6891 8.64416 7.72035C8.60222 7.74791 8.53538 7.79944 8.56052 7.75387C8.45229 7.86151 8.21614 8.05181 8.2355 8.08089C8.30635 8.01471 8.386 7.95742 8.46074 7.89547L8.68788 7.71308L8.91424 7.53091L9.14926 7.35959L9.14937 7.33854C9.07707 7.38877 8.9951 7.45214 8.91846 7.50834C8.84472 7.56758 8.77664 7.6202 8.72726 7.64375Z" fill="#689762"/>
<path d="M10.7578 6.1098C10.8486 6.04394 10.946 5.98828 11.0408 5.9286L11.0412 5.90918C10.947 5.96918 10.8491 6.02365 10.7587 6.0894L10.7578 6.1098Z" fill="#689762"/>
<path d="M12.4976 1.46831C12.6242 1.41764 12.7579 1.36057 12.8303 1.32932L12.8409 1.30859C12.7345 1.3521 12.5858 1.40516 12.4588 1.45344C12.3323 1.50303 12.2302 1.55402 12.2109 1.57767C12.2327 1.57409 12.273 1.55999 12.3234 1.53981C12.3737 1.5193 12.4338 1.49261 12.4976 1.46831Z" fill="#689762"/>
<path d="M12.8281 1.33057L12.8285 1.33154C12.9156 1.29292 12.8959 1.30171 12.8281 1.33057Z" fill="#689762"/>
<path d="M12.8712 1.24619L12.8594 1.26844L13.2458 1.10449L12.8712 1.24619Z" fill="#689762"/>
<path d="M11.8251 5.36816C11.6611 5.46874 11.5184 5.61522 11.7066 5.54437C12.1345 5.27941 11.6931 5.4695 11.8251 5.36816Z" fill="#689762"/>
<path d="M12.8359 1.53253C13.282 1.34309 13.0439 1.48816 13.1788 1.45409C13.4858 1.33897 13.4554 1.30783 13.5919 1.23926C13.5284 1.26139 13.4605 1.28342 13.3915 1.30544C13.3237 1.33051 13.2547 1.3559 13.1877 1.38063C13.0537 1.43098 12.9279 1.48165 12.8359 1.53253Z" fill="#689762"/>
<path d="M13.8153 1.0191C13.9761 0.980801 14.1777 0.929046 14.3118 0.901704C14.4471 0.878594 14.5132 0.874037 14.3993 0.916027C14.3225 0.937618 14.2409 0.968432 14.1653 0.998487C14.0894 1.02832 14.0195 1.05762 13.9674 1.08214C13.8633 1.13118 13.8309 1.16058 13.9661 1.13639C14.0814 1.09983 14.2171 1.05295 14.3657 1.00879C14.5155 0.968757 14.6764 0.9259 14.8375 0.882934C14.999 0.841704 15.1601 0.798847 15.3125 0.766188C15.4659 0.737327 15.6088 0.712915 15.7306 0.695881C16.1421 0.600727 15.4869 0.699678 16.0235 0.582173C16.0368 0.560473 16.012 0.546585 16.1928 0.496349C16.4155 0.447199 16.8087 0.376132 17.1175 0.316783C17.1946 0.300725 17.2671 0.29096 17.3303 0.281629C17.3935 0.271755 17.4473 0.2634 17.488 0.256999C17.5693 0.243328 17.5977 0.235734 17.5408 0.237578C17.4203 0.239314 17.3033 0.245064 17.1892 0.256131C17.0758 0.27143 16.965 0.290309 16.8558 0.311575C16.6374 0.354432 16.4252 0.405861 16.2096 0.459352C15.9958 0.521739 15.7783 0.58456 15.5458 0.639352C15.4877 0.653023 15.4287 0.66626 15.3684 0.678846C15.3081 0.691215 15.2467 0.702824 15.185 0.717906C15.061 0.74579 14.9317 0.770854 14.7954 0.792229L15.0725 0.683946C14.8412 0.755881 14.6761 0.792228 14.5269 0.820004C14.4522 0.833241 14.3817 0.845611 14.3091 0.858414C14.2367 0.871868 14.1634 0.890963 14.0814 0.912663L14.2442 0.853747C14.2983 0.833892 14.354 0.818702 14.4089 0.801016L14.7396 0.698594L15.0707 0.596604C15.126 0.580003 15.1809 0.561992 15.2367 0.546477L15.4044 0.503294C15.2059 0.5455 15.0121 0.60702 14.8166 0.661161C14.6216 0.717472 14.4259 0.771179 14.2319 0.830529C13.3379 1.12391 13.494 1.0969 13.8153 1.0191Z" fill="#689762"/>
<path d="M12.2031 5.21126C12.2128 5.20649 12.2221 5.20128 12.2322 5.19715L12.2546 5.17578C12.2378 5.18696 12.2184 5.19911 12.2031 5.21126Z" fill="#689762"/>
<path d="M12.2031 5.22839C12.3348 5.15982 12.4693 5.09668 12.6021 5.03027L12.2349 5.19443C12.2239 5.20507 12.2138 5.21722 12.2031 5.22839Z" fill="#689762"/>
<path d="M12.3177 5.12012L12.2578 5.17654C12.3004 5.14854 12.3368 5.12326 12.3177 5.12012Z" fill="#689762"/>
<path d="M13.549 3.14453L13.3047 3.30272C13.6332 3.20171 13.551 3.16189 13.549 3.14453Z" fill="#689762"/>
<path d="M13.4274 4.59993L13.4395 4.55957C13.3907 4.57183 13.3434 4.57801 13.2419 4.62771C12.9367 4.79534 13.3122 4.63563 13.4274 4.59993Z" fill="#689762"/>
<path d="M13.3906 4.42035C13.4974 4.36924 13.602 4.31261 13.7119 4.26855L13.6044 4.30968L13.3906 4.42035Z" fill="#689762"/>
<path d="M19.0955 0.172947C19.1302 0.160579 19.1771 0.147233 19.238 0.142893C19.2988 0.139421 19.3736 0.142242 19.4633 0.156347L19.3142 0.174792C19.9592 0.208101 20.1164 0.227848 20.8808 0.200615C20.9417 0.202676 21.0141 0.205063 21.0942 0.207667C21.1743 0.210705 21.2621 0.212115 21.3532 0.22188C21.5354 0.23783 21.7319 0.256275 21.9108 0.275697C22.2691 0.308897 22.5534 0.371827 22.5144 0.40058L22.6638 0.40492C22.5687 0.361954 22.4261 0.312586 22.5108 0.286438C22.4623 0.283942 22.4109 0.281447 22.3576 0.278735C22.3043 0.275371 22.2489 0.272224 22.1918 0.271899C22.0777 0.269403 21.9583 0.265389 21.8387 0.259205C21.719 0.25302 21.5993 0.244557 21.4848 0.233382C21.3702 0.222857 21.2609 0.205606 21.1617 0.194756L21.2124 0.148101C21.136 0.153309 21.0605 0.163725 20.9315 0.154068L20.9135 0.169258C20.7031 0.196383 20.4848 0.188571 20.2631 0.172404C20.0416 0.164267 19.8168 0.151356 19.5969 0.154285L19.8064 0.0709575C18.9042 0.0592395 19.3914 0.112947 19.0666 0.170235L18.6875 0.177938L19.0207 0.221338C19.0056 0.227523 19.0261 0.198553 19.0955 0.172947Z" fill="#689762"/>
<path d="M20.8342 0.117116L20.4288 0.110715C20.3611 0.109955 20.2936 0.108111 20.2261 0.108437L20.0234 0.115055L20.2508 0.116791L20.478 0.128726L20.9321 0.153138C20.8715 0.142722 20.7744 0.130678 20.8342 0.117116Z" fill="#689762"/>
<path d="M19.3965 0.0438292C19.5078 0.0387297 19.5939 0.0293989 19.6022 0.010303C19.4756 0.005529 19.3535 0.0126897 19.2537 0.0227802C19.1541 0.0331962 19.0769 0.052618 19.0391 0.059779C19.0938 0.056524 19.1552 0.0527266 19.2169 0.0490376C19.2788 0.0478441 19.3408 0.0464332 19.3965 0.0438292Z" fill="#689762"/>
<path d="M17.2526 3.35611C17.4492 3.30924 17.6449 3.25336 17.8446 3.21973C17.7693 3.22895 17.6936 3.2347 17.6187 3.24663C17.4789 3.28645 17.1544 3.32617 17.2526 3.35611Z" fill="#689762"/>
<path d="M20.6152 0.0615234L20.6016 0.0774732L21.0123 0.0759543L20.6152 0.0615234Z" fill="#689762"/>
<path d="M21.5003 0.0283203L21.4688 0.0335287L21.8765 0.0772541L21.5003 0.0283203Z" fill="#689762"/>
<path d="M21.464 0.0311397L21.2791 0.0116097C21.2173 0.00661873 21.1555 0.00390599 21.0938 0C21.1662 0.0197469 21.2386 0.0352625 21.3105 0.0585899L21.464 0.0311397Z" fill="#689762"/>
<path d="M20.094 3.21191L19.7188 3.26519L20.0533 3.26074L20.2205 3.25835C20.2762 3.25879 20.332 3.26226 20.3877 3.26399L20.2411 3.23416L20.094 3.21191Z" fill="#689762"/>
<path d="M23.2199 0.450621C23.3504 0.472104 23.4801 0.498579 23.6101 0.522448L23.3905 0.44856L23.5354 0.459085C23.672 0.479266 23.7208 0.501942 23.7791 0.52158C23.9774 0.471779 24.8782 0.70603 25.4808 0.890696C25.4208 0.879304 25.3548 0.865199 25.2849 0.84925C25.25 0.841221 25.2141 0.832974 25.1774 0.824511C25.1404 0.817242 25.1026 0.809755 25.0644 0.802269C24.9116 0.771129 24.7511 0.738255 24.6003 0.707441C24.4494 0.677712 24.3083 0.649068 24.1929 0.635288C24.0768 0.624004 23.9876 0.621726 23.9424 0.634203C24.0346 0.637567 24.1427 0.643534 24.2608 0.660568C24.3786 0.67923 24.5075 0.703209 24.6439 0.730876C24.7803 0.758652 24.924 0.790226 25.0713 0.824186C25.1081 0.832757 25.1451 0.841437 25.1824 0.850117C25.2191 0.860642 25.2561 0.871166 25.2932 0.881799C25.3671 0.903499 25.4417 0.9252 25.5162 0.947008C26.1156 1.11214 26.6949 1.34227 27.0504 1.4549L27.2094 1.589C27.1999 1.49244 27.7231 1.60495 27.9712 1.67179C28.1138 1.7294 28.2704 1.84061 28.302 1.86372C28.2987 1.86123 28.2953 1.85873 28.2868 1.85222L28.1121 1.71801C28.0344 1.68372 27.965 1.66007 27.8965 1.64314C27.8285 1.62611 27.7633 1.60972 27.6937 1.59226C27.5547 1.55656 27.4003 1.50914 27.1766 1.40162C27.1446 1.38448 27.1113 1.36744 27.0764 1.35073C27.0413 1.335 27.0044 1.32046 26.9664 1.3056C26.8905 1.27609 26.8097 1.24723 26.7253 1.21891C26.5564 1.16205 26.3731 1.10683 26.1849 1.05019C25.9952 0.998545 25.7987 0.951673 25.6073 0.896772C25.5115 0.869756 25.4166 0.841438 25.324 0.8116C25.2777 0.796302 25.2319 0.78122 25.1864 0.766247C25.1407 0.752468 25.0956 0.738254 25.0513 0.72339C24.9756 0.712323 24.4188 0.610442 24.5401 0.582341C24.4921 0.579411 24.4304 0.570839 24.36 0.558687C24.3249 0.552177 24.2875 0.545125 24.2484 0.537855C24.2091 0.531562 24.1681 0.525052 24.126 0.518325C23.9583 0.489356 23.7733 0.457348 23.6113 0.429356C23.4491 0.402665 23.3097 0.380097 23.2311 0.381942C23.1524 0.384329 23.1359 0.403641 23.2199 0.450621Z" fill="#689762"/>
<path d="M28.2969 1.86426C28.3011 1.86747 28.3021 1.86808 28.2969 1.86426V1.86426Z" fill="#689762"/>
<path d="M25.6986 0.840586C25.8765 0.893642 26.0556 0.941382 26.2187 0.991943C26.3811 1.04511 26.5304 1.09231 26.6539 1.12833C26.4608 1.06659 26.4282 1.02688 26.3161 0.976644C26.2617 0.967205 26.2006 0.949519 26.1321 0.93498C26.0638 0.919573 25.99 0.901128 25.9132 0.88073C25.7596 0.839934 25.5936 0.791218 25.4351 0.744238C25.3557 0.721128 25.2786 0.696606 25.2051 0.676968C25.131 0.659174 25.0614 0.642357 24.9989 0.627275C24.8736 0.598306 24.7761 0.578776 24.7266 0.577148C24.8541 0.60883 25.0085 0.647239 25.1759 0.688795C25.3424 0.733822 25.5202 0.789483 25.6986 0.840586Z" fill="#689762"/>
<path d="M22.4164 3.16786L22.3196 3.13791C22.2288 3.14409 22.1014 3.12337 21.969 3.10547L21.9531 3.12012C22.1024 3.13899 22.2511 3.16124 22.4 3.18153L22.4164 3.16786Z" fill="#689762"/>
<path d="M39.093 14.699C39.1245 14.7982 39.1558 14.8968 39.1868 14.9939C39.2185 15.0909 39.2403 15.1889 39.2658 15.2835C39.3145 15.4731 39.3576 15.6541 39.3891 15.8195L39.4555 15.9706L39.2781 15.2022C39.2625 15.1384 39.2498 15.0739 39.2319 15.0106L39.1782 14.8208L39.0703 14.4414L39.134 14.7967C39.1201 14.774 39.1051 14.7367 39.093 14.699Z" fill="#689762"/>
<path d="M28.8107 2.07757C28.8168 2.10568 28.8136 2.1303 29.0776 2.26767C29.0606 2.24065 29.1701 2.28882 29.2373 2.31486L29.4264 2.45049C29.4976 2.4787 29.604 2.52557 29.5878 2.49855C29.4641 2.43953 29.4241 2.40351 29.3796 2.37096L29.5166 2.42488C29.5834 2.46004 29.6531 2.49497 29.712 2.52741C29.7697 2.56235 29.817 2.59479 29.8413 2.62127C29.968 2.75168 30.4053 3.08304 29.758 2.74127C30.0754 2.90619 30.2862 3.06894 30.4746 3.21389C30.6602 3.36438 30.828 3.49002 31.0743 3.57389C31.2408 3.65375 31.4022 3.76399 31.5705 3.88268C31.6545 3.94214 31.7397 4.00453 31.8262 4.06887C31.8694 4.1012 31.913 4.13386 31.957 4.16684C31.9789 4.18344 32.0011 4.20016 32.0232 4.21686C32.0447 4.23455 32.0662 4.25245 32.0878 4.27035C32.2608 4.41368 32.4398 4.56233 32.6272 4.71032C32.6741 4.74721 32.7214 4.78443 32.7689 4.82175C32.8155 4.86027 32.8624 4.899 32.9095 4.93806C33.0044 5.0152 33.1017 5.0917 33.2021 5.16667L33.2742 5.25173C33.211 5.24284 32.964 5.04244 32.7948 4.9156C32.971 5.06587 33.1459 5.21495 33.3162 5.36012C33.3588 5.39636 33.4012 5.43239 33.4432 5.46808C33.4839 5.5053 33.5243 5.54219 33.5642 5.57875C33.6444 5.65155 33.7238 5.72251 33.802 5.79087C33.8569 5.86682 33.8989 5.92367 33.9644 5.98975C33.9971 6.02273 34.0357 6.0581 34.0848 6.09933C34.1336 6.14078 34.1895 6.19156 34.2615 6.25069C34.3838 6.40856 34.0489 6.10682 34.3475 6.43709L34.2378 6.34335C34.3723 6.45814 34.5065 6.59355 34.6393 6.73764C34.707 6.80849 34.7697 6.88585 34.8321 6.96397C34.8942 7.04198 34.9568 7.12032 35.0189 7.19811C35.0813 7.27547 35.1433 7.3524 35.2041 7.4278C35.2352 7.46502 35.266 7.50191 35.2963 7.53836C35.3268 7.57471 35.3548 7.61236 35.3842 7.64795C35.5004 7.79149 35.6169 7.92061 35.7351 8.02433C35.7649 8.07631 35.8198 8.16072 35.7707 8.12361L35.8721 8.22831C35.9804 8.35168 36.0806 8.49251 36.182 8.63584C36.2816 8.78036 36.3816 8.92825 36.4713 9.07895C36.6431 9.38557 36.802 9.68438 36.9234 9.93426C37.0349 10.0437 37.135 10.239 37.2333 10.4367C37.283 10.5353 37.333 10.6344 37.3795 10.7266C37.4254 10.8193 37.4728 10.9025 37.5238 10.9666C37.6459 11.2492 37.7839 11.5284 37.9017 11.8211C38.0241 12.1113 38.158 12.3998 38.2665 12.7005C38.3233 12.8496 38.3804 12.9992 38.4374 13.1489L38.4798 13.2613C38.4931 13.299 38.5047 13.3375 38.5173 13.3755L38.5901 13.6046C38.6382 13.7575 38.6852 13.9104 38.7305 14.0635L38.7642 14.1783L38.7919 14.2947L38.8451 14.5276C38.8792 14.6593 38.9128 14.7886 38.9459 14.916C38.9623 14.9796 38.9788 15.0427 38.995 15.1052C39.0084 15.1685 39.0216 15.2313 39.0348 15.2935C39.0877 15.5423 39.1388 15.7831 39.1886 16.0173C39.2278 16.2533 39.266 16.4825 39.3032 16.7063C39.3207 16.8182 39.3423 16.9283 39.3559 17.0381C39.3688 17.148 39.3814 17.2567 39.3941 17.3644C39.4184 17.5798 39.4461 17.7904 39.466 17.9986C39.48 18.2072 39.4938 18.413 39.5074 18.6167C39.514 18.7186 39.5206 18.8201 39.5272 18.9212C39.5288 19.0224 39.5306 19.1234 39.5323 19.2242C39.5347 19.4258 39.537 19.6269 39.5395 19.8286L39.5524 19.0207C39.5546 18.9532 39.553 18.8858 39.55 18.8184L39.5431 18.6163L39.5288 18.2114L39.5968 18.5088L39.5884 18.3804C39.5908 18.0387 39.653 18.5367 39.666 18.5689C39.6556 18.4148 39.6515 18.2719 39.6234 18.1695C39.6314 18.055 39.6433 17.9398 39.6441 17.8253L39.5783 17.5401C39.5495 17.3426 39.5728 17.3043 39.5688 17.1816C39.5542 17.0836 39.5463 16.9937 39.5317 16.9112C39.5187 16.8285 39.5068 16.7523 39.4953 16.6798C39.475 16.5345 39.4567 16.405 39.4378 16.2712C39.4062 16.0025 39.3418 15.7224 39.222 15.2743L39.2299 15.3863L39.1592 15.1792L39.1238 15.0759L39.0838 14.974L39.056 14.748L39.0169 14.7263C38.9715 14.6314 38.9346 14.4872 38.8942 14.3402C38.8927 14.2701 38.8438 14.0699 38.885 14.1253C38.8026 13.8855 38.7456 13.7159 38.695 13.554C38.6435 13.3924 38.6037 13.2366 38.5332 13.0319C38.5772 13.1197 38.6257 13.206 38.6644 13.2959C38.6738 13.5045 38.9137 13.8131 38.8863 14.0246C38.9239 14.1327 38.9534 14.2445 38.9881 14.3557C39.0229 14.4669 39.0581 14.579 39.0935 14.6916C39.0537 14.574 39.0178 14.4097 38.9791 14.281C38.9608 14.2139 38.9485 14.1481 38.9365 14.0935C38.9246 14.0389 38.9179 13.9942 38.9178 13.9672C38.9176 13.9134 38.944 13.931 39.0081 14.0848L38.8258 13.5801C38.8321 13.5114 38.7973 13.3774 38.7386 13.2028C38.674 13.0305 38.5805 12.8197 38.4814 12.5928C38.4305 12.48 38.3828 12.3612 38.3265 12.2453C38.2702 12.1294 38.2143 12.0127 38.1613 11.8977C38.0538 11.6685 37.9659 11.4427 37.8901 11.2546L37.9364 11.393C37.8574 11.3021 37.7667 11.0782 37.6807 10.9186C37.5655 10.8023 37.9815 11.5854 37.6896 11.1171C37.5934 10.9157 37.5267 10.7606 37.4899 10.6512C37.4514 10.5427 37.44 10.4815 37.4631 10.4636C37.5443 10.582 37.6072 10.6522 37.6867 10.8221C37.6695 10.7699 37.6305 10.6736 37.672 10.7208C37.6265 10.66 37.5863 10.5957 37.5418 10.533C37.4976 10.47 37.455 10.4057 37.4136 10.34C37.3308 10.2089 37.2526 10.0729 37.1759 9.9348C37.1371 9.86612 37.1011 9.79548 37.0607 9.72735L36.938 9.5238C36.8559 9.38828 36.7727 9.25385 36.6858 9.12355L36.6401 9.11194L36.8836 9.49895C36.9635 9.62872 37.0488 9.75512 37.1211 9.88945C37.1599 9.99621 37.2451 10.1811 37.1627 10.0946C37.0834 9.97592 37.017 9.86189 36.9481 9.75859C36.8795 9.65509 36.8173 9.557 36.7596 9.4625C36.7019 9.368 36.6487 9.27707 36.598 9.18789C36.5467 9.09924 36.5009 9.01038 36.4479 8.92694C36.3453 8.7579 36.2449 8.58951 36.1305 8.40951C36.0195 8.22701 35.8804 8.04321 35.7127 7.83522L35.7358 7.83967C35.6189 7.66932 35.5545 7.51493 35.4764 7.3792C35.3951 7.24639 35.3036 7.12921 35.1422 7.03069C35.2452 7.19518 35.3516 7.35576 35.4498 7.52209C35.4166 7.48661 35.3813 7.45287 35.3455 7.41956C35.2469 7.30357 35.1454 7.18802 35.1167 7.12607L34.962 7.01844C34.8917 6.92871 34.8234 6.83681 34.7508 6.74881L34.5289 6.48798L34.3063 6.22693C34.2317 6.14002 34.1585 6.05159 34.0789 5.96957C34.1515 5.99637 34.4088 6.22324 34.2847 6.06255C34.2481 6.03119 34.2116 5.99973 34.1729 5.97054L34.1013 5.87875L33.7494 5.60414C33.7152 5.53546 33.6481 5.467 33.5643 5.39322C33.4804 5.31987 33.3741 5.24729 33.2693 5.16081C33.1134 5.04851 32.7842 4.76891 32.3963 4.47987C32.301 4.40554 32.2031 4.32938 32.1051 4.25289L32.0318 4.19527L31.9564 4.1407C31.9063 4.10413 31.8566 4.06779 31.8073 4.03187C31.6107 3.88757 31.4249 3.74641 31.2684 3.62304C31.4347 3.72883 31.6192 3.83332 31.799 3.94431C31.8887 3.99986 31.9773 4.05726 32.061 4.11748C32.1436 4.17943 32.2191 4.24735 32.2879 4.31722L32.1158 4.14905C32.058 4.09328 31.997 4.04174 31.9376 3.98782C31.9886 4.01495 32.044 4.0475 32.1026 4.08428C32.16 4.12247 32.2193 4.16663 32.281 4.21274C32.4043 4.3054 32.5349 4.40934 32.6638 4.51328C32.7281 4.56526 32.7923 4.61701 32.8547 4.66746C32.9153 4.72009 32.9742 4.77141 33.0302 4.82012C33.1425 4.91712 33.2449 5.00186 33.329 5.06262C33.2161 4.9628 33.0942 4.85918 33.0555 4.80027C33.2008 4.885 33.3483 4.97094 33.4889 5.05285C33.2907 4.87958 33.0874 4.7381 32.8657 4.58728C32.6393 4.44157 32.4 4.28023 32.1356 4.05129C31.9999 3.97936 31.7669 3.82735 31.7268 3.83451C31.5635 3.72666 31.4294 3.64127 31.3087 3.55935C31.185 3.48178 31.076 3.4055 30.9663 3.3097C31.0321 3.34333 31.135 3.40084 31.1218 3.37295C30.863 3.19773 30.5508 2.99418 30.2596 2.83132C30.1158 2.7468 29.9814 2.66554 29.8685 2.591C29.8119 2.554 29.7613 2.51732 29.7164 2.48521C29.671 2.45374 29.6326 2.42412 29.6028 2.39667L29.4643 2.34221L29.5602 2.41089L29.0225 2.13833L28.888 2.07041C28.843 2.04828 28.7966 2.02875 28.7509 2.00781L28.6484 1.96191C28.7942 2.03222 28.8061 2.05587 28.8107 2.07757ZM39.5004 16.9586C39.5048 17.0537 39.5076 17.1677 39.5488 17.286C39.5254 17.2279 39.5289 17.3283 39.5276 17.3858C39.5021 17.173 39.4814 16.9595 39.4417 16.7486C39.4853 16.7887 39.4925 16.8642 39.5004 16.9586ZM39.0803 15.0681C39.0992 15.1464 39.1149 15.2242 39.1307 15.2999C39.1848 15.5032 39.2329 15.6778 39.2256 15.7599C39.2505 15.8787 39.2798 15.9822 39.3041 16.0687C39.3289 16.155 39.3577 16.2225 39.3937 16.2665L39.4047 16.7234C39.3813 16.6234 39.3495 16.4869 39.3128 16.3294C39.2952 16.2507 39.2775 16.1665 39.261 16.0785C39.2451 15.9905 39.2222 15.9003 39.2062 15.8071C39.2182 15.8011 39.2233 15.7822 39.2256 15.7599C39.1952 15.6224 39.1654 15.468 39.1306 15.2999C39.111 15.2241 39.0906 15.1446 39.0701 15.0655C39.0476 14.987 39.0272 14.9083 39.0118 14.8329C39.0364 14.9118 39.059 14.9904 39.0803 15.0681ZM38.268 12.3386C38.3117 12.4503 38.3547 12.5616 38.3929 12.667C38.3419 12.5611 38.2936 12.4461 38.2461 12.331C38.1947 12.2176 38.1465 12.1032 38.1036 11.9953C38.0522 11.8661 38.0097 11.7491 37.9773 11.6519C38.015 11.758 38.0658 11.8811 38.1241 12.0144C38.1706 12.119 38.2194 12.229 38.268 12.3386ZM30.4099 2.95534L30.524 3.0225L30.6353 3.09433L30.722 3.17049C30.5475 3.0455 30.3639 2.93472 30.1817 2.82134L30.4099 2.95534Z" fill="#689762"/>
<path d="M28.6492 1.96321C28.6049 1.94195 28.5494 1.91688 28.4766 1.88574L28.6492 1.96321Z" fill="#689762"/>
<path d="M29.3582 2.17871L29.3359 2.18522L29.5285 2.32269L29.3582 2.17871Z" fill="#689762"/>
<path d="M27.581 4.8356L27.6399 4.81205C27.5544 4.75292 27.5335 4.71625 27.3752 4.64844C27.3686 4.68207 27.5526 4.78384 27.581 4.8356Z" fill="#689762"/>
<path d="M29.006 4.58235L28.7031 4.4248C28.8277 4.51019 28.9285 4.59808 29.006 4.58235Z" fill="#689762"/>
<path d="M28.7035 4.42425C28.6268 4.37445 28.5444 4.33181 28.4531 4.30762C28.5364 4.34657 28.6207 4.38389 28.7035 4.42425Z" fill="#689762"/>
<path d="M28.7831 4.65222C28.9285 4.68141 28.7594 4.53515 28.7236 4.48611C28.6836 4.4681 28.6431 4.45139 28.6016 4.43652C28.658 4.47645 28.7107 4.52289 28.7649 4.56651C28.5425 4.4541 28.7428 4.60665 28.7831 4.65222Z" fill="#689762"/>
<path d="M29.613 4.85688C29.5592 4.83051 29.4927 4.78028 29.415 4.73276C29.3386 4.68306 29.2553 4.62881 29.1779 4.57858C29.0226 4.47897 28.8871 4.40151 28.8594 4.44132C29.0857 4.5623 29.1277 4.61124 29.171 4.66125C29.1927 4.68632 29.2148 4.7116 29.2604 4.74643C29.2832 4.76379 29.3119 4.78353 29.3494 4.80675C29.3871 4.82954 29.4332 4.85655 29.4891 4.89149L29.5097 4.88509C29.4765 4.86404 29.4445 4.84115 29.4104 4.8214C29.2773 4.72603 29.3262 4.74089 29.4101 4.77583C29.4938 4.81066 29.6075 4.8737 29.613 4.85688Z" fill="#689762"/>
<path d="M31.1094 4.50391L31.4155 4.72611C31.377 4.67132 31.2503 4.58615 31.134 4.50098L31.1094 4.50391Z" fill="#689762"/>
<path d="M30.5195 5.47144C30.4121 5.39321 30.3055 5.3165 30.2016 5.24391C30.095 5.17523 29.9898 5.11273 29.8898 5.05566C29.844 5.07552 29.9095 5.12586 30.0171 5.19715C30.0701 5.23382 30.1366 5.27136 30.1995 5.32094C30.2633 5.36912 30.3289 5.42142 30.3873 5.4761C30.5721 5.6088 30.7012 5.68594 30.8164 5.74919C30.9303 5.81419 31.0264 5.87039 31.1513 5.95209C31.05 5.87386 30.9491 5.78836 30.8427 5.70807C30.7352 5.62941 30.6266 5.54999 30.5195 5.47144Z" fill="#689762"/>
<path d="M31.6136 6.50412C31.766 6.63128 32.0197 6.88061 32.0754 6.89016C31.9755 6.75193 31.7298 6.57595 31.5703 6.44238C31.586 6.46115 31.6001 6.48079 31.6136 6.50412Z" fill="#689762"/>
<path d="M31.4531 6.33105C31.4836 6.36176 31.5205 6.39919 31.5701 6.43955C31.5377 6.40147 31.5008 6.36621 31.4531 6.33105Z" fill="#689762"/>
<path d="M31.1875 6.12402C31.2934 6.21798 31.3839 6.27885 31.455 6.33082C31.43 6.30457 31.41 6.27939 31.4123 6.26301L31.1875 6.12402Z" fill="#689762"/>
<path d="M30.5752 6.49923L30.3984 6.3584L30.5361 6.50976L30.5752 6.49923Z" fill="#689762"/>
<path d="M34.7939 6.72762L34.8385 6.72838C34.7309 6.60415 34.613 6.40017 34.5078 6.35059C34.8233 6.65265 34.6622 6.58625 34.7939 6.72762Z" fill="#689762"/>
<path d="M32.8489 7.50983L32.7795 7.43279L32.7063 7.35945C32.6085 7.2618 32.5101 7.16502 32.4119 7.0704C32.3625 7.02342 32.3133 6.97666 32.2647 6.93022C32.2157 6.88422 32.1676 6.838 32.116 6.79688L32.0938 6.79915C32.1538 6.85004 32.2094 6.90592 32.2659 6.96071L32.4351 7.1253L32.7734 7.45449L32.7922 7.45048C32.8383 7.58339 33.0634 7.75287 33.2548 7.96987C33.1667 7.8695 33.0769 7.76719 32.9865 7.66411C32.9407 7.6129 32.8948 7.56147 32.8489 7.50983Z" fill="#689762"/>
<path d="M36.3594 14.1094C36.3761 14.163 36.3924 14.2162 36.4095 14.2721C36.3932 14.2138 36.3764 14.1606 36.3594 14.1094Z" fill="#689762"/>
<path d="M34.7696 10.8719C34.821 10.9454 34.8732 11.0171 34.9206 11.0903C34.9658 11.165 35.0106 11.2388 35.0548 11.3119C35.1425 11.4587 35.2266 11.6038 35.3085 11.7481C35.3864 11.8946 35.4563 12.0436 35.5286 12.1912C35.564 12.2653 35.5996 12.3393 35.6353 12.4136L35.6885 12.5252C35.7043 12.5634 35.7201 12.6017 35.736 12.6401C35.7994 12.7936 35.8634 12.9485 35.9288 13.1067C35.9603 13.1861 35.9975 13.2641 36.0257 13.347C36.0555 13.4292 36.0856 13.5123 36.1162 13.5966C36.1768 13.7653 36.2446 13.9367 36.3085 14.1166C36.3677 14.2982 36.4305 14.4856 36.4984 14.6802L36.3156 14.093C36.2475 13.8996 36.1748 13.7078 36.1047 13.5148C36.158 13.6398 36.2122 13.7499 36.2664 13.8679C36.2934 13.927 36.3205 13.9879 36.3472 14.0537C36.3534 14.0715 36.3595 14.0906 36.3657 14.1091C36.3585 14.0859 36.3513 14.0614 36.3439 14.0386C36.3165 13.9642 36.2898 13.8914 36.2633 13.8192C36.2099 13.6748 36.1575 13.5329 36.1031 13.3858C36.0895 13.3489 36.0758 13.3118 36.062 13.2741C36.0465 13.2372 36.0307 13.1999 36.0146 13.1619C35.9826 13.086 35.9497 13.0079 35.9154 12.9265C35.8815 12.8449 35.8464 12.7599 35.8094 12.671C35.7728 12.5817 35.7359 12.4875 35.689 12.3918L35.71 12.3974C35.6792 12.3149 35.6227 12.1853 35.5549 12.0509C35.521 11.9837 35.4843 11.9154 35.4466 11.8512C35.4278 11.8192 35.4087 11.7882 35.3895 11.7589C35.3697 11.7299 35.3485 11.7036 35.3283 11.6791C35.2686 11.5502 35.3122 11.589 35.3368 11.5945C35.2181 11.4001 35.1365 11.2434 35.0701 11.1027C35.0538 11.0673 35.0381 11.0332 35.0228 10.9998C35.0064 10.9672 34.9904 10.9353 34.9746 10.9038C34.9434 10.8406 34.9129 10.7788 34.8817 10.7157L34.7975 10.6119C34.8663 10.7118 34.8799 10.7583 34.899 10.8043C34.7287 10.6461 34.5515 10.2779 34.3564 10.0309C34.2765 9.86277 34.1879 9.72802 34.0847 9.59923C33.9769 9.47369 33.8581 9.35141 33.726 9.19962C33.7008 9.15405 33.6542 9.07984 33.6967 9.10913C33.6492 9.04903 33.6055 8.98577 33.5549 8.92826L33.4062 8.75293C33.4315 8.79731 33.5017 8.88834 33.5477 8.9555C33.5935 9.02299 33.6113 9.06932 33.544 9.01539C33.7036 9.24118 33.8778 9.42335 33.9556 9.47141C34.0724 9.64057 33.9448 9.52794 33.9394 9.55615C33.9738 9.60172 34.0099 9.64588 34.0429 9.69243L34.1405 9.83304C34.1406 9.80516 34.2056 9.88404 34.2501 9.93438C34.4581 10.3103 34.8176 10.7329 34.9931 11.0811C34.8716 10.9122 34.8697 10.9881 34.7696 10.8719Z" fill="#689762"/>
<path d="M35.12 10.0392C35.1063 10.0084 35.0936 9.97703 35.0792 9.94676C35.0554 9.9332 35.0831 9.97823 35.12 10.0392Z" fill="#689762"/>
<path d="M35.1266 10.0434C35.1295 10.0475 35.1271 10.0432 35.1301 10.047C35.1274 10.0429 35.125 10.0391 35.125 10.0391L35.1266 10.0434Z" fill="#689762"/>
<path d="M35.1162 9.88126L34.9967 9.70961L34.7578 9.36621L35.0093 9.75572C35.0508 9.82082 35.0941 9.88473 35.1339 9.95081L35.25 10.1512C35.2249 10.146 35.2105 10.1573 35.1261 10.0431C35.1962 10.1555 35.3257 10.3426 35.4007 10.478C35.4056 10.4527 35.4475 10.4844 35.5648 10.6535C35.5717 10.5527 35.1501 10.0882 35.229 10.057C35.1912 9.99866 35.1568 9.9379 35.1162 9.88126Z" fill="#689762"/>
<path d="M35.3985 10.4795C35.3972 10.5061 35.4226 10.5742 35.4549 10.6354C35.468 10.6171 35.4422 10.557 35.3985 10.4795Z" fill="#689762"/>
<path d="M34.6537 10.3312C34.643 10.2826 34.5911 10.204 34.5298 10.1172C34.4688 10.0303 34.3983 9.93522 34.3464 9.85612L34.3047 9.85156C34.4695 10.0154 34.5119 10.1656 34.6102 10.323L34.6537 10.3312Z" fill="#689762"/>
<path d="M38.0201 12.2172L37.9766 12.1982C38.0811 12.3981 38.1682 12.6057 38.2593 12.8119C38.1816 12.6129 38.1103 12.4111 38.0201 12.2172Z" fill="#689762"/>
<path d="M35.9011 12.6344C35.8804 12.5904 35.8573 12.537 35.8335 12.4812C35.8092 12.4258 35.7802 12.3698 35.7547 12.3174C35.7028 12.2129 35.6565 12.1264 35.6328 12.1123C35.7168 12.2843 35.8086 12.4526 35.8813 12.6297L35.9011 12.6344Z" fill="#689762"/>
<path d="M38.3754 13.978L38.3958 13.9893L38.2775 13.6284C38.237 13.5084 38.2013 13.3868 38.1536 13.2695L38.1328 13.2588C38.1803 13.3761 38.2177 13.4972 38.2573 13.6174L38.3754 13.978Z" fill="#689762"/>
<path d="M39.6456 17.1239C39.6376 17.0593 39.6315 16.9944 39.6219 16.9301L39.59 16.7374C39.5696 16.666 39.5433 16.5556 39.5312 16.5835C39.5612 16.6802 39.5722 16.7627 39.5855 16.847C39.6005 16.931 39.612 17.0178 39.6456 17.1239Z" fill="#689762"/>
<path d="M36.8576 15.6071L36.7675 15.2777L36.7188 15.1592L36.8576 15.6071Z" fill="#689762"/>
<path d="M37.7348 15.9821L37.7537 15.9921L37.6953 15.6523L37.7348 15.9821Z" fill="#689762"/>
<path d="M38.4581 17.6191C38.4289 17.378 38.4077 17.1357 38.3624 16.8968L38.3438 16.8828C38.389 17.1219 38.4119 17.3642 38.4405 17.6056L38.4581 17.6191Z" fill="#689762"/>
<path d="M39.7653 19.9194C39.8135 19.6674 39.7166 19.3202 39.7214 19.1123L39.7109 19.4866L39.7436 19.5166C39.7669 19.624 39.7633 19.7687 39.7653 19.9194Z" fill="#689762"/>
<path d="M8 26.637L15.2 17L18.8 20.6L23 14L32 26.637H8Z" stroke="#689762" stroke-miterlimit="10" stroke-linecap="round" stroke-linejoin="round"/>
</svg>
