<svg width="67" height="66" viewBox="0 0 67 66" fill="none" xmlns="http://www.w3.org/2000/svg">
<path d="M0.421875 34.375C0.422409 34.3823 0.422427 34.3913 0.422961 34.3983C0.425453 34.3852 0.424367 34.3785 0.421875 34.375Z" fill="#689762"/>
<path d="M28.6094 64.9822C28.6339 64.9771 28.6535 64.971 28.6631 64.9629C28.6393 64.9693 28.6241 64.9757 28.6094 64.9822Z" fill="#689762"/>
<path d="M63.9889 36.0411C63.9923 36.2742 63.9839 36.5905 63.9631 36.9031C63.9572 36.9813 63.9537 37.0594 63.9435 37.1356C63.9332 37.2116 63.9222 37.2861 63.9106 37.3578C63.8873 37.501 63.8613 37.6323 63.8332 37.7413C63.8526 37.459 63.8579 37.2819 63.856 37.1606C63.8547 37.0393 63.8378 36.9728 63.8259 36.913C63.7992 36.7933 63.7689 36.6976 63.7641 36.2325C63.7221 36.5888 63.7161 36.9002 63.6865 37.1677C63.6532 37.4347 63.6136 37.659 63.5317 37.8402C63.5265 38.1699 63.5123 38.4626 63.4739 38.7298C63.4311 38.9962 63.3797 39.2396 63.3249 39.4754C63.2686 39.7104 63.2138 39.9396 63.1572 40.1769C63.091 40.4121 63.0271 40.6564 62.97 40.9267L63.0686 40.2462C63.099 40.0193 63.1151 39.7899 63.1385 39.5625C63.1088 39.7467 63.0823 39.9359 63.057 40.1255C63.0236 40.3135 62.9901 40.5012 62.9576 40.6841C62.8899 41.0497 62.8205 41.3957 62.7324 41.6782L62.6961 41.6113C62.5361 41.9556 62.3893 42.2691 62.259 42.6547C62.1366 43.0428 61.9896 43.4899 61.8463 44.1119C61.7582 44.2705 61.6276 44.5636 61.6454 44.3698C61.6251 44.4165 61.605 44.4624 61.5854 44.5075C61.5644 44.5521 61.5439 44.5959 61.5236 44.6387C61.4838 44.7248 61.4468 44.8087 61.4121 44.8903C61.3427 45.0536 61.2828 45.2087 61.2291 45.3585C61.1207 45.6578 61.0435 45.939 60.9403 46.2128C60.7425 46.7627 60.5514 47.3328 60.0696 48.0411C59.9689 48.2106 59.8714 48.3829 59.7761 48.5579C59.6797 48.7322 59.5738 48.9025 59.4757 49.0782C59.3775 49.2537 59.2791 49.4299 59.1805 49.6063C59.0831 49.7835 58.9884 49.9627 58.8804 50.1339C58.6711 50.48 58.4618 50.826 58.2476 51.1637C58.0228 51.4942 57.7857 51.8115 57.5438 52.1146L57.551 52.1481C57.8035 51.8322 58.0527 51.5083 58.2858 51.1808C58.507 50.8449 58.7249 50.514 58.9343 50.1958C58.9863 50.116 59.0399 50.0382 59.0895 49.9594C59.1379 49.8797 59.186 49.8011 59.2332 49.7235C59.3284 49.5686 59.4225 49.4188 59.5161 49.2756C59.701 48.9879 59.8932 48.7319 60.0605 48.4993L59.973 48.7201C59.9434 48.7937 59.9091 48.8645 59.8772 48.9369C59.6243 49.3218 59.39 49.6969 59.1652 50.0634C58.9256 50.4208 58.6992 50.7715 58.4818 51.1185C58.3762 51.294 58.2597 51.4598 58.1477 51.6268C58.0363 51.7943 57.9258 51.9605 57.8158 52.1259C57.7054 52.291 57.6012 52.4596 57.4889 52.6214C57.375 52.7823 57.2614 52.9427 57.1479 53.1031C57.0347 53.2642 56.9217 53.4251 56.8083 53.5864C56.751 53.6666 56.6964 53.7492 56.6366 53.8279C56.5762 53.9062 56.5159 53.9846 56.4554 54.0633C56.2124 54.3773 55.9683 54.6962 55.7125 55.0157C55.4459 55.3254 55.1715 55.639 54.8853 55.9581C54.7451 56.1206 54.589 56.2713 54.4333 56.4274C54.2768 56.5827 54.117 56.7395 53.9531 56.8976C53.8604 56.9832 53.7662 57.0699 53.6712 57.1575C53.5731 57.2419 53.474 57.3275 53.3738 57.4136C53.1743 57.587 52.9709 57.7639 52.7646 57.9431C52.6608 58.0319 52.5603 58.1262 52.4525 58.2128C52.3446 58.2996 52.2362 58.3868 52.1275 58.4745C51.9096 58.6496 51.69 58.8262 51.4699 59.0031C51.4143 59.0468 51.3602 59.0925 51.3036 59.1347L51.1321 59.2596L50.7884 59.5088C50.5581 59.673 50.3285 59.8369 50.1005 59.9995C49.6284 60.3005 49.1626 60.5967 48.7005 60.8573C49.0697 60.6038 48.6561 60.7312 49.2765 60.3531C49.4196 60.4009 49.5633 60.2797 49.8008 60.0737C49.9199 59.9707 50.063 59.8469 50.2324 59.7006C50.4047 59.557 50.6117 59.4011 50.8667 59.2418C51.5768 58.8019 52.9061 57.7617 52.6975 57.7799C52.9598 57.6259 53.3916 57.1936 53.4978 57.0707C53.2359 57.2475 52.9707 57.477 52.7036 57.72C52.5687 57.8398 52.4391 57.97 52.2989 58.0859C52.1597 58.2029 52.0205 58.3184 51.8819 58.4271C51.6624 58.5807 51.4441 58.7402 51.2266 58.9038C51.0041 59.061 50.7804 59.2192 50.5562 59.3779C50.3323 59.5367 50.1132 59.7041 49.8881 59.8608C49.6606 60.0146 49.4337 60.1679 49.2087 60.32C49.0961 60.396 48.984 60.4719 48.8724 60.5474C48.8165 60.5851 48.7608 60.6226 48.7053 60.6599C48.648 60.6946 48.591 60.7293 48.5342 60.7639C48.3066 60.9017 48.0811 61.0364 47.8583 61.1665C47.4175 61.4347 46.9672 61.6459 46.5409 61.8338C46.3576 61.9404 46.1706 62.0525 45.9738 62.1546C45.7755 62.2535 45.5722 62.3525 45.3658 62.4511C45.1586 62.5485 44.9492 62.6471 44.7383 62.7462C44.526 62.842 44.3065 62.925 44.0899 63.0148C43.6548 63.1892 43.2234 63.3746 42.7897 63.5224C42.5747 63.6021 42.3624 63.6805 42.1538 63.7578C41.9459 63.8371 41.7427 63.918 41.5407 63.985C41.1061 64.0942 40.733 64.0975 40.3232 64.3145C40.0119 64.3697 39.6942 64.4286 39.3826 64.4964C39.0703 64.5609 38.7654 64.6428 38.4698 64.6943C38.1756 64.7525 37.8967 64.8108 37.644 64.8647C37.3913 64.9183 37.1652 64.9706 36.9741 64.9971L36.2072 65.0082C36.0024 65.0346 35.7981 65.061 35.5943 65.0874C35.3898 65.1066 35.186 65.1259 34.9831 65.145C34.7802 65.1655 34.5781 65.1858 34.3773 65.2061C34.1764 65.227 33.9767 65.2497 33.7777 65.257C33.3802 65.279 32.9879 65.2999 32.6035 65.3155C32.4113 65.3269 32.221 65.3223 32.0331 65.3181C31.8452 65.3141 31.6595 65.3085 31.4766 65.3007L31.5058 65.2756L30.9811 65.2561C30.8937 65.2519 30.8062 65.2516 30.719 65.244L30.4572 65.2216L30.4054 65.269C30.0476 65.2282 29.4867 65.2032 29.0779 65.1544C28.7091 65.1 28.469 65.0429 28.6089 64.9827C28.3975 65.0263 27.7059 64.9695 27.8157 65.0546C27.5947 64.9485 27.2097 64.9329 26.7719 64.8699C26.4419 64.8237 26.0182 64.7697 25.5608 64.6612C25.3316 64.61 25.0917 64.5563 24.8473 64.5017C24.7252 64.4734 24.6023 64.4449 24.4787 64.4161L24.1127 64.3117C23.8694 64.2402 23.6277 64.1692 23.3933 64.1003C23.1593 64.0305 22.9327 63.9635 22.7248 63.8836C22.3064 63.7321 21.9427 63.5942 21.6803 63.4873L21.6439 63.5024C21.5198 63.4673 21.3797 63.4207 21.2349 63.3755C21.09 63.33 20.9409 63.2839 20.8031 63.2375C20.5276 63.145 20.2977 63.0526 20.2397 62.9686C19.5637 62.8471 21.1452 63.3967 21.0206 63.4521C20.8003 63.3819 20.6442 63.3654 20.3632 63.2415C19.9706 63.0889 19.5409 62.8846 19.082 62.687C18.9675 62.637 18.8516 62.5863 18.7347 62.5353C18.6763 62.5096 18.6178 62.4837 18.5591 62.4579C18.5014 62.4296 18.4437 62.4013 18.3859 62.3728C18.1545 62.2582 17.9212 62.1428 17.6895 62.0279C17.574 61.9697 17.4587 61.9115 17.3444 61.8541C17.2875 61.8247 17.23 61.7968 17.1743 61.7664C17.1191 61.7348 17.0643 61.7036 17.0096 61.6723C16.7915 61.547 16.579 61.4225 16.3763 61.3C16.1743 61.176 15.9785 61.06 15.8026 60.9366C15.6281 60.8114 15.4665 60.6901 15.3221 60.574C15.491 60.6722 15.6685 60.7778 15.8516 60.8885C16.0365 60.9962 16.2326 61.1001 16.4289 61.2114C16.8242 61.4289 17.2239 61.6713 17.6331 61.8688C17.8356 61.9713 18.0353 62.0723 18.2287 62.1702C18.4231 62.2662 18.6084 62.3652 18.7929 62.4412C19.1585 62.6007 19.4874 62.7386 19.7543 62.8394L19.0583 62.4608C18.8785 62.3857 18.6861 62.3172 18.4985 62.2256C18.3092 62.1372 18.1147 62.0464 17.9173 61.9544C17.7203 61.8609 17.5204 61.7657 17.32 61.6704C17.1218 61.5708 16.928 61.4612 16.7336 61.3564C16.5403 61.2494 16.3487 61.1432 16.1609 61.0392C16.0676 60.9859 15.9737 60.9359 15.8845 60.8811C15.7959 60.825 15.7085 60.7696 15.6225 60.7153C15.2794 60.4964 14.9624 60.2874 14.6898 60.0981C14.497 59.9419 14.1982 59.71 13.8389 59.451C13.749 59.3864 13.6556 59.3194 13.5598 59.2506C13.5118 59.2164 13.4632 59.1819 13.4141 59.1468C13.3662 59.11 13.318 59.0728 13.2692 59.0354C13.074 58.8859 12.8711 58.7329 12.6668 58.5817C12.618 58.5055 12.508 58.4005 12.3637 58.2799C12.3272 58.2502 12.289 58.2189 12.2495 58.1864C12.2107 58.1531 12.1704 58.1186 12.1291 58.0832C12.0453 58.0137 11.9574 57.9408 11.8681 57.8667C11.6876 57.7203 11.5014 57.5691 11.3325 57.4322C11.2491 57.3624 11.1697 57.2962 11.0974 57.236C11.0275 57.1733 10.9675 57.1131 10.9173 57.0615C10.5105 56.7211 10.6744 57.0659 10.8896 57.2143C11.0122 57.3131 11.145 57.4007 11.2735 57.4927C11.4055 57.6584 11.5627 57.8169 11.7365 57.9726C11.8234 58.0505 11.9145 58.1276 12.0085 58.2049C12.0558 58.2429 12.1039 58.2814 12.1521 58.3201C12.2025 58.3564 12.2534 58.393 12.3046 58.4298C12.5104 58.576 12.7227 58.7269 12.9393 58.8808C13.1553 59.0352 13.3666 59.2044 13.5869 59.3671C14.2237 59.8723 13.6289 59.4353 13.9537 59.7607C13.717 59.5956 13.4769 59.435 13.2436 59.265L12.555 58.7401C12.0893 58.3979 11.6554 58.0167 11.2126 57.6459C11.1115 57.5584 11.0165 57.4763 10.9264 57.3983C10.8399 57.3165 10.7582 57.2391 10.6805 57.1655C10.5247 57.0181 10.3841 56.8851 10.2505 56.7588C10.1156 56.6338 9.98797 56.5156 9.85929 56.3963C9.73062 56.277 9.60694 56.1508 9.46866 56.0213C9.24032 55.7897 9.23 55.7165 9.1072 55.5601C9.31293 55.7165 9.38731 55.7198 9.72599 56.0305C9.42824 55.6477 9.17163 55.3908 8.90129 55.1264C8.64269 54.852 8.37216 54.5681 8.0438 54.1449L8.14276 54.3022L7.8831 54.0558C7.79661 53.9734 7.71689 53.8855 7.63324 53.8003C7.52023 53.6859 7.3426 53.4769 7.14736 53.2363C7.05072 53.1153 6.9484 52.9871 6.84677 52.8599C6.75227 52.7271 6.6583 52.5952 6.57056 52.4719C6.22192 51.977 5.97971 51.6169 6.18366 51.9178L6.04039 51.8933C4.9989 50.438 4.24217 48.9643 3.55948 47.6387C3.34324 47.1544 3.13945 46.7089 2.94475 46.2848C2.76695 45.8536 2.60126 45.4423 2.43949 45.0368C2.35495 44.8354 2.28857 44.629 2.2197 44.4231C2.15118 44.2172 2.08392 44.0103 2.01789 43.8004C1.9855 43.6954 1.95275 43.5897 1.91982 43.4831C1.90399 43.4296 1.88796 43.376 1.87194 43.3222C1.8586 43.2675 1.84506 43.2126 1.83136 43.1574C1.77761 42.9364 1.72547 42.7106 1.67457 42.4774C1.74291 42.6286 1.85165 42.9769 1.88048 42.9371L1.97944 43.2722C2.01539 43.3829 2.05507 43.4925 2.0928 43.6027L2.32256 44.2625L2.4379 44.5922L2.49573 44.757L2.56069 44.9191L2.8225 45.5666C2.85969 45.8119 2.99601 46.2091 3.1852 46.5799C3.36673 46.9542 3.56499 47.317 3.67623 47.5198C3.57621 47.1874 3.40071 46.8273 3.22541 46.4664C3.18199 46.376 3.13839 46.2857 3.09532 46.1961C3.05652 46.1048 3.01969 46.0136 2.98481 45.9237C2.91522 45.7437 2.85524 45.5678 2.81431 45.4007C2.71464 45.2132 2.62334 45.0135 2.53934 44.8094C2.45996 44.6037 2.39608 44.3907 2.33397 44.1824C2.27275 43.9737 2.21775 43.7683 2.16738 43.5735C2.14247 43.4761 2.11826 43.3814 2.09495 43.29C2.07359 43.1982 2.05704 43.1086 2.0387 43.0243L1.79986 42.5446C1.81089 42.4575 1.7851 42.282 1.73901 42.0632C1.71445 41.9542 1.68721 41.8337 1.65891 41.7077C1.63328 41.5808 1.60498 41.4489 1.57561 41.3171C1.46011 40.7902 1.31811 40.2713 1.28572 40.1234C1.30155 40.4067 1.41402 40.8044 1.50675 41.186C1.55426 41.3766 1.59929 41.5627 1.6308 41.7282C1.66603 41.8926 1.69291 42.0351 1.68989 42.142C1.64628 42.0016 1.59734 41.8625 1.55854 41.7209L1.44411 41.295L1.21665 40.4416C1.12713 40.6184 1.4975 41.4735 1.35139 41.4117C1.2948 41.1319 1.23855 40.8852 1.18302 40.6541C1.15472 40.5387 1.12732 40.4269 1.10044 40.3168C1.07482 40.2064 1.05524 40.0965 1.03281 39.9868C0.98939 39.767 0.947558 39.545 0.908939 39.3033C0.88954 39.1825 0.871029 39.0568 0.85341 38.9242C0.845045 38.8579 0.836694 38.7897 0.827796 38.7197C0.821923 38.6492 0.81782 38.5766 0.81337 38.5018C0.831523 38.5787 0.847355 38.656 0.867466 38.7324L0.769768 37.8019L0.722603 37.337L0.69964 37.1045L0.687192 36.8712C0.71104 36.8217 0.734523 37.0077 0.758015 37.1274L0.605332 35.6083C0.617612 35.9478 0.68291 36.4639 0.645892 36.6349C0.581823 36.3813 0.582015 35.9161 0.549803 35.5539L0.577567 36.7745L0.494621 36.2997C0.493553 36.1832 0.480398 35.9482 0.460643 35.6987C0.455304 35.6364 0.449945 35.573 0.444784 35.5104C0.44158 35.4477 0.438381 35.3857 0.435355 35.326C0.428236 35.2066 0.419886 35.0965 0.409741 35.0087C0.369342 34.8995 0.361332 35.2413 0.337484 35.3569C0.323068 35.239 0.29904 35.1139 0.304201 34.9095C0.32449 34.5109 0.410985 34.359 0.425579 34.3792C0.392654 33.8994 0.445497 33.0093 0.494795 32.5258L0.511002 32.767C0.521324 32.4859 0.528623 32.2047 0.558167 31.9245C0.486266 31.8021 0.521316 31.3969 0.56047 30.9678C0.569902 30.8605 0.579692 30.7515 0.589125 30.6452C0.600871 30.5392 0.614391 30.4355 0.622755 30.3383C0.640374 30.1437 0.644661 29.9743 0.621169 29.8611L0.774743 29.3203L0.782586 29.0787C0.715491 29.029 0.625795 29.6995 0.548021 30.0116C0.535919 29.0985 0.87939 28.031 1.00557 27.2574C1.12873 27.1951 0.859115 28.2674 0.859471 28.6617C0.93938 28.2459 1.0152 27.8296 1.10044 27.4154C1.13978 26.8373 1.25563 26.5191 1.35743 26.3091C1.46154 26.0992 1.54394 25.9935 1.54394 25.8351C1.51831 25.8921 1.49161 25.9488 1.4699 26.0068C1.49215 25.8488 1.52473 25.6935 1.55196 25.5364C1.63667 25.1848 1.72957 24.8225 1.82656 24.4627C1.93477 24.1063 2.05542 23.7551 2.17075 23.4183C2.23001 23.2504 2.28822 23.0862 2.34446 22.9272C2.40996 22.7716 2.4733 22.6211 2.53399 22.477C2.65733 22.1901 2.77408 21.9316 2.87838 21.7144L2.74757 22.1724C2.83406 21.9594 2.91966 21.7489 3.00171 21.5471C3.08874 21.3474 3.17256 21.1565 3.24001 20.9757L2.93319 21.4498C3.12913 20.9688 3.32311 20.4857 3.52493 20.0051C3.38345 20.3575 3.2345 20.6909 3.08946 20.9806C3.01738 21.1256 2.94724 21.2601 2.88157 21.3814C2.81501 21.5024 2.76377 21.6146 2.71305 21.7082C2.67283 21.7392 2.7351 21.5533 2.76643 21.4422C2.87962 21.3059 3.07433 20.8209 3.22863 20.51L2.92037 20.9862C3.01897 20.7438 3.1213 20.5093 3.22737 20.2832C3.28094 20.1706 3.3329 20.0586 3.39056 19.9513C3.45018 19.8449 3.51053 19.7407 3.57158 19.6387L3.34733 19.9546C3.13733 20.3548 2.94991 20.7544 2.77781 21.1433C2.73581 21.241 2.69044 21.3361 2.65413 21.434C2.61782 21.5319 2.58206 21.6288 2.54646 21.7248C2.47794 21.9175 2.41085 22.106 2.34535 22.2899C2.282 22.4742 2.22024 22.6541 2.16008 22.8287C2.10776 23.006 2.05687 23.178 2.00775 23.3443C1.90951 23.6768 1.81534 23.9851 1.71924 24.2635C1.59092 24.6146 1.46314 25.0291 1.33731 25.382C1.27538 25.5588 1.21593 25.7209 1.16219 25.8534C1.11413 25.9874 1.07107 26.0917 1.03423 26.1511L1.06734 25.9087L0.81337 26.9509C0.772971 27.125 0.72582 27.2979 0.691471 27.4732L0.590385 27.9999L0.569377 27.9685L0.449064 28.6025L0.38945 28.9197C0.369696 29.0254 0.358125 29.1323 0.342285 29.2386C0.365066 29.1417 0.385699 29.0446 0.410437 28.9483L0.491058 28.6603C0.483227 28.7582 0.474342 28.8542 0.464554 28.9488C0.457257 29.0438 0.450143 29.1372 0.443024 29.2294C0.427719 29.4137 0.408495 29.5929 0.386604 29.7686C0.364714 29.9442 0.340148 30.1166 0.31363 30.2873C0.286756 30.4579 0.257562 30.6268 0.239765 30.7971C0.161458 31.4764 0.0438305 32.159 0.0650091 32.9458C0.0796027 33.4322 0.0712342 33.9027 0.0966841 34.3675C0.103447 34.6 0.110212 34.8309 0.116975 35.0616C0.124094 35.2921 0.122665 35.5227 0.143132 35.7532C0.174455 36.2146 0.206139 36.679 0.245826 37.1542C0.306515 37.6274 0.376455 38.1114 0.461881 38.6124C0.427711 38.7768 0.348151 38.8124 0.51224 39.5846L0.465618 38.9921C0.518476 39.3091 0.598374 39.621 0.668139 39.9134C0.703021 40.0595 0.735589 40.201 0.760861 40.3363C0.791294 40.4704 0.816046 40.598 0.82797 40.7183C0.77885 40.5652 0.721194 40.4135 0.679371 40.2583C0.638615 40.1661 0.650167 40.3319 0.657819 40.4262C0.744669 40.7229 0.910376 41.161 1.04741 41.6001C1.0823 41.7098 1.11272 41.8202 1.14422 41.9276C1.17804 42.0344 1.20829 42.1394 1.23321 42.2405C1.28286 42.4427 1.31116 42.6295 1.30351 42.785L1.12554 42.3311L1.14939 42.5205C1.26009 42.7588 1.36349 43.1352 1.47383 43.4041C1.61799 43.7904 1.85112 44.4591 2.00809 44.9686C2.18589 45.4703 2.28021 45.8175 2.10455 45.5699C2.32915 45.9775 2.44803 46.2419 2.56443 46.5025C2.68598 46.7608 2.79419 47.0197 2.98231 47.4184C2.78601 46.9056 2.57814 46.3994 2.41565 45.8756C2.68884 46.3924 2.83085 46.7488 2.94529 47.0995C3.06471 47.4471 3.1512 47.7913 3.41637 48.2222L3.25139 48.0067C3.42972 48.314 3.62175 48.6548 3.8177 49.0072C3.86753 49.0949 3.91399 49.1851 3.96739 49.2721C4.0206 49.3593 4.07398 49.4466 4.12737 49.5341C4.23397 49.7091 4.34076 49.8841 4.44594 50.0568C4.5513 50.2292 4.65505 50.3993 4.75596 50.5646C4.86417 50.725 4.96937 50.8807 5.06939 51.0291C5.27032 51.3255 5.45308 51.5916 5.60578 51.8068C5.94944 52.5094 6.70119 53.1597 6.81456 53.5435C7.19595 53.9357 7.5074 54.3077 7.82027 54.6462C7.97315 54.8184 8.11856 54.9886 8.2604 55.1589C8.33088 55.2445 8.40082 55.3297 8.47076 55.4148C8.53981 55.5007 8.61527 55.5807 8.68699 55.6647C8.97886 55.9961 9.2663 56.3418 9.59573 56.6997C9.7648 56.8744 9.9424 57.0544 10.1319 57.241C10.2273 57.3337 10.3252 57.4287 10.4259 57.5264C10.5276 57.6229 10.6304 57.7238 10.7454 57.8179L10.7105 57.8214C10.9088 57.925 11.1855 58.1608 11.4516 58.4127C11.5853 58.5376 11.7132 58.6704 11.8326 58.7859C11.9531 58.8998 12.059 59.0038 12.138 59.0834C12.2534 59.1258 11.9893 58.8973 11.9158 58.8052L12.1193 58.9354C12.3703 59.1256 12.6967 59.3945 12.9097 59.5834C13.0149 59.6794 13.0966 59.749 13.1233 59.7822C13.15 59.8153 13.1226 59.811 13.0163 59.7499C13.4347 59.9954 13.6522 60.1341 13.9275 60.3302C13.9961 60.3799 14.0685 60.4323 14.1489 60.4905C14.2285 60.55 14.3168 60.6141 14.4202 60.6816C14.6259 60.8187 14.8797 60.9882 15.2134 61.2107C15.3257 61.2427 15.1824 61.0882 15.5364 61.2982C15.5129 61.3727 15.7736 61.5479 16.133 61.7548C16.4933 61.9596 16.9424 62.2112 17.3238 62.3905C17.1698 62.278 17.0114 62.1744 16.8632 62.0534C17.0262 62.1188 17.2476 62.2317 17.4638 62.3475C17.6301 62.4808 17.9049 62.6488 18.2439 62.8361C18.3279 62.8844 18.4183 62.9292 18.5128 62.9731C18.6073 63.0174 18.7046 63.063 18.8045 63.1097C19.0047 63.2023 19.2158 63.297 19.4318 63.3925C19.54 63.4399 19.6491 63.4878 19.7589 63.5361C19.8695 63.5821 19.9828 63.6229 20.0948 63.6663C20.3194 63.7515 20.5431 63.8364 20.7606 63.9191C20.8693 63.9604 20.9765 64.0012 21.0815 64.0409C21.1863 64.0812 21.2886 64.1211 21.3906 64.1532C21.5931 64.2213 21.7834 64.2864 21.956 64.3477C21.8562 64.281 21.4418 64.0857 21.8837 64.2133C22.0873 64.2831 22.2728 64.3468 22.4447 64.4057C22.6174 64.4621 22.7739 64.5218 22.9266 64.5614C23.2301 64.6464 23.496 64.7209 23.7601 64.795C23.8922 64.832 24.0239 64.8688 24.1596 64.9067C24.2947 64.9473 24.436 64.9804 24.5861 65.0153C24.8856 65.0881 25.2195 65.1693 25.6243 65.2676C25.7343 65.303 25.8436 65.3419 25.9557 65.3679C26.0677 65.3952 26.1803 65.4205 26.294 65.4445C26.5217 65.4924 26.7536 65.5349 26.9931 65.5766C27.4708 65.6702 27.9849 65.7144 28.5568 65.8061C28.7139 65.8146 28.8148 65.801 28.9431 65.7984C29.0715 65.7988 29.2281 65.7979 29.4975 65.8366C29.7615 65.8769 29.6593 65.8977 29.6237 65.9255L30.3495 65.9102C30.4461 65.8943 30.5921 65.9036 30.7517 65.9156C30.9113 65.9222 31.0847 65.934 31.2347 65.9352C31.4897 65.9365 31.7127 65.9743 31.6036 66.0005C31.874 65.9733 32.1757 65.9851 32.5076 65.9842C32.8395 65.979 33.202 65.9785 33.5914 65.9595L33.6404 65.9068C33.7934 65.9052 33.9603 65.9102 34.1376 65.8991C34.315 65.8875 34.5033 65.8752 34.7 65.8623C34.8967 65.8476 35.1019 65.8323 35.3127 65.8167C35.4183 65.8083 35.5251 65.7997 35.6333 65.7911C35.7413 65.7818 35.8499 65.7648 35.9595 65.7516C36.3977 65.6934 36.8494 65.6335 37.2945 65.5745C37.7364 65.4946 38.1718 65.416 38.5806 65.3421C38.6727 65.3202 38.7641 65.2983 38.8553 65.2764C38.946 65.2525 39.0361 65.2285 39.1258 65.2047C39.3054 65.158 39.4835 65.1145 39.6604 65.0731C39.8375 65.0332 40.013 64.9936 40.1865 64.9544C40.2733 64.9353 40.3598 64.9162 40.4458 64.8973C40.5309 64.8749 40.6156 64.8527 40.6998 64.8306C41.0367 64.7421 41.3663 64.6546 41.6857 64.5609C41.7654 64.5367 41.8447 64.5129 41.9233 64.4892C42.0018 64.4647 42.0778 64.4338 42.1541 64.4057C42.3061 64.3477 42.4553 64.2874 42.601 64.2237L42.6316 64.1593C42.9095 64.0737 43.139 63.9951 43.3428 63.921C43.5461 63.8453 43.7192 63.7623 43.8922 63.688C44.0645 63.612 44.2337 63.5377 44.4227 63.4609C44.5172 63.4226 44.6167 63.3835 44.7239 63.3434C44.7774 63.3234 44.833 63.3029 44.8905 63.2816C44.9474 63.2589 45.0065 63.2352 45.0679 63.2106C44.9983 63.2497 44.9294 63.291 44.859 63.3283L44.6459 63.4375C44.8814 63.3529 45.1204 63.2359 45.3642 63.1205C45.6073 63.0042 45.8542 62.8861 46.0933 62.7717C46.3354 62.6632 46.56 62.5384 46.7753 62.4403C46.9898 62.3402 47.19 62.2568 47.3683 62.2006C47.2025 62.2183 47.452 62.0891 47.7844 61.9069C48.1135 61.7185 48.5324 61.4871 48.7279 61.3453C48.828 61.2548 48.0614 61.7525 48.1884 61.5876C48.297 61.5036 48.4374 61.4095 48.5946 61.3118C48.6732 61.2628 48.7558 61.2132 48.8409 61.1632C48.8836 61.1385 48.9267 61.1135 48.9699 61.0883L49.0977 61.0083C49.4396 60.7962 49.7886 60.5953 50.0267 60.4644L49.8364 60.6137L50.3109 60.313L50.7713 59.9915L51.2314 59.6693C51.3834 59.56 51.5411 59.4584 51.687 59.3411L52.5752 58.6538C52.6489 58.5961 52.7237 58.5396 52.7965 58.4807L53.0102 58.2989L53.4375 57.9347C53.2635 58.0632 53.0682 58.2189 52.8621 58.388C52.7607 58.4746 52.6489 58.5553 52.5382 58.6409C52.4273 58.7262 52.3147 58.8126 52.2019 58.8991C51.9765 59.0722 51.7511 59.2452 51.5362 59.4043C51.3147 59.5544 51.1049 59.6917 50.9185 59.8035C51.9253 59.106 52.9723 58.176 53.7753 57.5143C53.8864 57.4016 53.9867 57.2775 54.0916 57.1587C54.2733 56.9963 54.481 56.7963 54.6748 56.6152C54.7718 56.5248 54.8652 56.4388 54.9506 56.3649C55.0339 56.2888 55.1069 56.2225 55.169 56.1769L55.0211 56.3638C54.9709 56.4255 54.9179 56.4841 54.8664 56.5445C54.9184 56.4961 54.9727 56.4454 55.028 56.3937C55.0811 56.3397 55.1354 56.2847 55.1897 56.2295C55.298 56.1189 55.4062 56.0074 55.5048 55.9029C55.7022 55.6939 55.8611 55.5125 55.9081 55.4214C55.7654 55.5799 55.6892 55.6271 55.6141 55.6845C55.7602 55.4953 55.9126 55.3127 56.0519 55.1188C56.4974 54.6134 56.3183 54.9827 56.7636 54.474C57.2445 53.7449 56.2698 55.0245 56.3335 54.803C56.551 54.5594 56.7713 54.3128 56.9941 54.0633C57.2039 53.8029 57.4162 53.5399 57.6303 53.2743C57.7368 53.141 57.8437 53.0069 57.9511 52.8724C58.052 52.733 58.1534 52.5931 58.2552 52.4528C58.4577 52.1712 58.6636 51.8888 58.8651 51.6008C59.0559 51.3057 59.2478 51.0088 59.4405 50.7107C59.5348 50.5604 59.6361 50.4141 59.7247 50.2594C59.8139 50.1052 59.903 49.9507 59.9924 49.796C60.0814 49.6412 60.1705 49.4862 60.2597 49.331C60.3476 49.1751 60.441 49.0221 60.5199 48.8609C60.6831 48.5416 60.8463 48.2222 61.0095 47.9028C61.6322 46.6114 62.1941 45.2915 62.6223 43.9659C62.8584 43.3104 63.0305 42.6451 63.219 41.9993C63.2681 41.8384 63.3058 41.6754 63.3437 41.5134C63.3822 41.3516 63.4203 41.1907 63.4582 41.0307C63.4961 40.8708 63.5338 40.7117 63.5714 40.5538C63.6093 40.396 63.6475 40.2392 63.6744 40.0814C63.6684 39.816 63.6958 39.4941 63.7401 39.1445C63.7604 38.9695 63.7926 38.7886 63.8132 38.6025C63.8344 38.4166 63.8561 38.227 63.8778 38.0381C63.9001 37.8493 63.9222 37.6607 63.9437 37.4767C63.9633 37.2925 63.9882 37.1134 63.9925 36.941C64.0056 36.5967 64.0097 36.2862 63.9889 36.0411ZM1.13318 26.6097L1.23338 26.2002L1.27183 26.2605L1.12143 26.8792C1.08619 26.9163 1.11823 26.7278 1.13318 26.6097ZM0.651237 28.4976L0.791667 27.7638L0.810872 27.797L0.671702 28.5264C0.626319 28.7698 0.575435 29.0124 0.545892 29.2582L0.52345 29.2335C0.552993 28.9863 0.606388 28.7426 0.651237 28.4976ZM0.42647 31.0124C0.445335 30.819 0.463665 30.6135 0.487691 30.4341L0.510111 30.4602C0.482347 30.636 0.473088 30.8134 0.455646 30.9902L0.409198 31.521C0.397096 31.3877 0.408851 31.2058 0.42647 31.0124ZM1.56779 43.6246C1.54608 43.5562 1.52223 43.4885 1.50212 43.4196L1.44481 43.2121L1.33073 42.797L1.36384 42.8203L1.47648 43.2296L1.5331 43.4343L1.59875 43.6362L1.56779 43.6246ZM2.1099 44.8537C2.07626 44.7486 2.03907 44.6328 2.00027 44.5111C1.92819 44.3014 1.85129 44.0914 1.77299 43.8792C1.69717 43.6662 1.60783 43.4546 1.54394 43.2319C1.40743 42.789 1.27413 42.3309 1.1807 41.8448C1.30332 42.2177 1.44463 42.6866 1.57829 43.1637C1.64075 43.4036 1.72371 43.6388 1.79543 43.8669C1.86804 44.0949 1.93727 44.3134 2.00027 44.5111C2.0695 44.7156 2.13996 44.9233 2.20955 45.1283C2.18125 45.0505 2.14407 44.9587 2.1099 44.8537ZM4.28203 49.4535C4.34521 49.5421 4.4358 49.6766 4.44951 49.6546C4.35821 49.4242 4.33792 49.3247 4.45574 49.6579C4.45645 49.6624 4.44826 49.6488 4.44951 49.6546C4.53636 49.8776 4.69047 50.2221 4.83997 50.3915C4.75704 50.3417 4.46694 49.7662 4.28203 49.4535ZM8.35438 55.0696C8.20115 54.9042 8.16501 54.8278 8.11393 54.748L8.56633 55.2384C8.4761 55.1535 8.34619 55.0212 8.35438 55.0696ZM23.2949 64.2117C23.194 64.1904 23.092 64.1671 22.9546 64.1324C22.8183 64.0944 22.6487 64.0385 22.4102 63.9609C22.5209 63.9765 22.701 64.0348 22.8508 64.0802C23.0005 64.1258 23.1233 64.1477 23.1114 64.1142L22.9409 64.0364L24.155 64.3949C23.693 64.2904 23.4963 64.2546 23.2949 64.2117ZM42.031 64.3817C41.8005 64.4555 41.5257 64.5202 41.3696 64.5912L41.181 64.6164L41.8176 64.4162C42.0297 64.3498 42.2364 64.2661 42.4458 64.1916C42.451 64.2376 42.2607 64.306 42.031 64.3817ZM47.9533 61.3034C47.6766 61.467 47.6004 61.4621 47.4233 61.5376C48.0496 61.2415 48.0663 61.0922 48.5421 60.8561C48.5273 60.9191 48.1518 61.1536 47.9533 61.3034Z" fill="#689762"/>
<path d="M0.0156637 32.6767L0 33.1041C0.0217125 33.2007 0.0411161 33.0359 0.0582013 32.9455C0.0489468 32.8239 0.0427154 32.6313 0.0156637 32.6767Z" fill="#689762"/>
<path d="M55.1172 18.7324C55.2398 18.9373 55.3441 19.1192 55.4256 19.2256C55.306 19.0341 55.2083 18.8779 55.1172 18.7324Z" fill="#689762"/>
<path d="M16.3672 11.6052C16.4813 11.5163 16.5987 11.425 16.703 11.3438C16.5694 11.4352 16.4531 11.522 16.3672 11.6052Z" fill="#689762"/>
<path d="M55.0514 14.2887C55.0172 14.233 54.9718 14.1672 54.875 14.0625L55.0514 14.2887Z" fill="#689762"/>
<path d="M50.7031 9.92973L51.331 10.4323L51.3654 10.4269C51.11 10.2169 50.8656 10.0245 50.737 9.92383L50.7031 9.92973Z" fill="#689762"/>
<path d="M17.3557 10.9429C17.5786 10.8143 17.7879 10.6835 17.9398 10.5488C17.6918 10.6879 17.4782 10.8137 17.2778 10.9389C17.1776 11.0014 17.0804 11.0637 16.984 11.1274C16.8904 11.1953 16.798 11.2656 16.7031 11.3384C16.8017 11.2712 16.9069 11.201 17.0174 11.1347C17.1295 11.071 17.2438 11.0063 17.3557 10.9429Z" fill="#689762"/>
<path d="M61.0469 25.8164C61.1042 26.0192 61.1848 26.2579 61.2003 26.348L61.1926 26.0568C61.1551 26.032 61.1273 26.0468 61.0469 25.8164Z" fill="#689762"/>
<path d="M61.1953 26.3477L61.1962 26.3853C61.2001 26.3819 61.1987 26.3671 61.1953 26.3477Z" fill="#689762"/>
<path d="M51.8672 13.1113L52.4116 13.6406L52.5477 13.7729C52.5921 13.818 52.6344 13.8651 52.6779 13.9109L52.937 14.1882L52.6522 13.7693C52.6488 13.7644 52.6451 13.7599 52.6417 13.755C52.6439 13.7589 52.6479 13.7639 52.6497 13.7675C52.4194 13.6859 52.2441 13.3946 51.8672 13.1113Z" fill="#689762"/>
<path d="M52.5703 13.6602C52.5949 13.6933 52.6203 13.7258 52.6442 13.7595C52.6287 13.7315 52.6032 13.698 52.5703 13.6602Z" fill="#689762"/>
<path d="M36.3047 6.92003C36.3397 6.92053 36.3757 6.9209 36.41 6.9209C36.3739 6.92028 36.3364 6.91966 36.3047 6.92003Z" fill="#689762"/>
<path d="M36.2287 6.9344C36.2086 6.91808 36.2453 6.91322 36.2992 6.91235C36.1579 6.9094 36.0445 6.90471 36.2287 6.9344Z" fill="#689762"/>
<path d="M1.68456 39.767C1.70129 39.9735 1.71128 40.1496 1.80151 40.464L1.75843 40.264C1.73903 40.1364 1.74295 40.0864 1.75274 40.085C1.76324 40.0836 1.77962 40.131 1.80418 40.1945C1.85117 40.3223 1.91077 40.519 1.92447 40.5409C1.896 40.4506 1.86948 40.3577 1.84563 40.2657C1.83442 40.2195 1.82339 40.1737 1.81235 40.1286C1.80488 40.0827 1.79742 40.0378 1.7903 39.994C1.76432 39.8183 1.75273 39.6595 1.76217 39.5454L1.57031 38.875C1.64933 39.3217 1.66801 39.5602 1.68456 39.767Z" fill="#689762"/>
<path d="M3.98438 22.1633C3.99897 22.1298 4.01108 22.0992 4.02372 22.0664C4.01642 22.0789 4.00964 22.0904 4.00217 22.1032C3.99629 22.1227 3.99078 22.1414 3.98438 22.1633Z" fill="#689762"/>
<path d="M3.86508 22.5105C3.93342 22.3601 3.96172 22.2567 3.98717 22.1602C3.94268 22.2721 3.8973 22.381 3.85156 22.4735L3.86508 22.5105Z" fill="#689762"/>
<path d="M11.5299 11.4916C11.5436 11.4746 11.5536 11.4668 11.5671 11.4512C11.5205 11.4928 11.4995 11.5133 11.5299 11.4916Z" fill="#689762"/>
<path d="M19.0001 10.25C18.9947 10.2544 18.9902 10.2568 18.9844 10.2602C18.9902 10.257 18.9906 10.2578 18.9906 10.2578C18.9939 10.2549 18.9947 10.2544 19.0001 10.25Z" fill="#689762"/>
<path d="M6.1824 26.4851L6.23419 26.3102L6.21603 26.2812L6.16406 26.4561L6.1824 26.4851Z" fill="#689762"/>
<path d="M20.7266 9.18124C20.8163 9.14253 20.901 9.1059 21.0015 9.0625C20.9293 9.08142 20.8273 9.1276 20.7266 9.18124Z" fill="#689762"/>
<path d="M8.37035 53.5756C8.33084 53.5488 8.66846 53.9252 9.02707 54.3354C9.11641 54.4384 9.20716 54.5432 9.29455 54.6437C9.38086 54.7453 9.4711 54.8359 9.54656 54.9217C9.69944 55.0914 9.81156 55.226 9.83559 55.2817C9.91923 55.2956 10.1122 55.4966 10.325 55.7258C10.5434 55.9492 10.7908 56.1926 10.9573 56.3111C11.0922 56.4054 10.9363 56.1396 10.8792 56.1618C10.7459 56.0329 10.5996 55.8988 10.4491 55.7633C10.3019 55.624 10.1556 55.478 10.0111 55.336C9.86726 55.1935 9.72809 55.0525 9.60226 54.9168C9.47679 54.781 9.36289 54.6522 9.28067 54.5243C9.28067 54.5243 9.28068 54.5243 9.28014 54.5248L8.37035 53.5756Z" fill="#689762"/>
<path d="M9.28272 54.5291C9.27596 54.5003 9.25282 54.4584 9.23254 54.42L9.1875 54.3789C9.21509 54.428 9.24481 54.474 9.28272 54.5291Z" fill="#689762"/>
<path d="M19.157 10.1039C19.1997 10.1081 19.0778 10.1907 18.9922 10.2525C19.155 10.1556 19.3125 10.0487 19.4693 9.96484C19.3908 9.98741 19.3177 10.0037 19.157 10.1039Z" fill="#689762"/>
<path d="M59.5733 37.1423L59.5703 37.3463C59.6059 37.2812 59.6456 37.2472 59.6838 37.1465C59.7029 37.0962 59.7216 37.0291 59.7392 36.9331C59.7547 36.837 59.7787 36.713 59.7812 36.5458C59.7518 36.5342 59.7283 36.6342 59.6876 36.7602C59.6495 36.887 59.6091 37.0413 59.5733 37.1423Z" fill="#689762"/>
<path d="M61.4183 44.5938C61.1852 45.0468 60.9502 45.7187 60.8984 45.9864C61.0946 45.502 61.359 44.9505 61.4183 44.5938Z" fill="#689762"/>
<path d="M55.2969 55.2984C55.3576 55.2163 55.4364 55.1258 55.5243 55.0312C55.5687 54.9842 55.6144 54.9356 55.6612 54.8859C55.7066 54.8352 55.7528 54.7837 55.7989 54.7321C55.984 54.5262 56.1691 54.32 56.2825 54.1504C56.0979 54.358 55.8844 54.5948 55.7027 54.8066C55.5192 55.0168 55.3561 55.1918 55.2969 55.2984Z" fill="#689762"/>
<path d="M54.4144 56.1816L53.7969 56.7898L54.4098 56.221L54.4144 56.1816Z" fill="#689762"/>
<path d="M53.6484 56.8194L54.2567 56.2552L54.2576 56.2188L53.6484 56.8194Z" fill="#689762"/>
<path d="M48.9644 61.6916C48.7684 61.815 48.5552 61.9639 48.3493 62.0837C48.3351 62.1256 48.292 62.1841 48.5045 62.0846C48.6679 61.9792 48.8529 61.8685 49.0263 61.7603C49.1131 61.7061 49.197 61.6527 49.2738 61.6008C49.3486 61.5454 49.4164 61.4919 49.4734 61.4414C49.405 61.4534 49.3272 61.4858 49.2427 61.5317C49.1562 61.5747 49.0623 61.6296 48.9644 61.6916Z" fill="#689762"/>
<path d="M48.113 62.7858C48.0224 62.8448 47.9539 62.8948 47.9219 62.9266C48.121 62.8315 48.3127 62.7226 48.5051 62.6153C48.7858 62.4681 49.1476 62.2464 49.1011 62.2227C48.9239 62.2878 48.6619 62.4329 48.4282 62.5782C48.3113 62.6506 48.202 62.7242 48.113 62.7858Z" fill="#689762"/>
<path d="M44.9531 61.8456L45.5155 61.5994L45.5274 61.5664L44.9651 61.8122L44.9531 61.8456Z" fill="#689762"/>
<path d="M27.3363 64.295L27.3287 64.2931C27.3258 64.293 27.3232 64.2931 27.3203 64.293L27.3363 64.295Z" fill="#689762"/>
<path d="M27.7996 64.3215C27.6928 64.3132 27.5873 64.2965 27.4816 64.2809L27.1641 64.2344L27.3317 64.291C27.3803 64.2924 27.4326 64.2946 27.4915 64.2988C27.585 64.3054 27.6891 64.3163 27.7996 64.3215Z" fill="#689762"/>
<path d="M27.1007 64.3387C27.048 64.3049 27.1114 64.2896 27.2424 64.2889C27.2641 64.2887 27.2902 64.2896 27.3155 64.2903L26.3203 64.1191C26.6736 64.1921 26.9067 64.2702 27.1007 64.3387Z" fill="#689762"/>
<path d="M23.6719 64.1461L24.4781 64.3824L24.5128 64.3643C24.2423 64.2884 23.973 64.2075 23.7032 64.1289L23.6719 64.1461Z" fill="#689762"/>
<path d="M16.0682 60.2499L15.7124 60.0254L15.6797 60.0339C15.7852 60.0861 15.9023 60.1547 16.0257 60.2315C16.0869 60.2705 16.1501 60.3108 16.2143 60.3518C16.2784 60.3927 16.346 60.4306 16.4122 60.4707C16.6783 60.6288 16.9451 60.7868 17.1611 60.8809L16.4291 60.4658L16.2462 60.3618L16.0682 60.2499Z" fill="#689762"/>
<path d="M14.7254 59.7792L14.8007 59.7702L14.0859 59.2852L14.7254 59.7792Z" fill="#689762"/>
<path d="M3.10156 44.2248C3.1457 44.3531 3.18237 44.4842 3.2338 44.6099C3.18148 44.3729 3.1457 44.1308 3.10156 43.8926V44.2248Z" fill="#689762"/>
<path d="M2.73438 25.8106C2.79008 25.6222 2.79827 25.5636 2.78243 25.5665L2.77389 25.5872L2.73438 25.8106Z" fill="#689762"/>
<path d="M2.4375 26.1814C2.50904 26.0945 2.74093 25.5799 2.78364 25.5693L2.85164 25.4211L2.92709 25.0326C2.95343 24.9032 2.97444 24.7722 3.00861 24.6449L3.19761 23.875L3.0289 24.1974C2.96145 24.337 2.88901 24.498 2.81782 24.669C2.75108 24.8416 2.69235 25.0261 2.637 25.2079C2.5279 25.5719 2.44711 25.9287 2.4375 26.1814Z" fill="#689762"/>
<path d="M2.85156 23.92L3.06618 23.3129C3.13719 23.1105 3.22547 22.9143 3.30431 22.7148C3.21782 22.7883 3.13294 22.9718 3.05267 23.1945C2.98166 23.4207 2.91563 23.6861 2.85156 23.92Z" fill="#689762"/>
<path d="M2.85342 23.9199L2.66406 24.4574C2.72902 24.351 2.79237 24.1427 2.85342 23.9199Z" fill="#689762"/>
<path d="M3.18837 23.2027C3.14032 23.3063 3.09511 23.4282 3.04688 23.5823C3.10258 23.4421 3.15509 23.3025 3.2197 23.1685C3.28466 23.0346 3.35104 22.9025 3.41796 22.7713C3.55197 22.509 3.68829 22.2501 3.81963 21.987C3.95365 21.7248 4.09977 21.4656 4.22541 21.1891C4.2893 21.0513 4.35035 20.9101 4.40801 20.7643C4.46354 20.6179 4.52012 20.469 4.57814 20.3164C4.43772 20.5336 4.32206 20.7634 4.19463 20.9881L4.34447 20.5471C4.21099 20.8214 4.0679 21.1393 3.92997 21.436C3.85985 21.5837 3.79187 21.7267 3.72976 21.8574C3.6712 21.9897 3.61478 22.1083 3.56228 22.2053L3.59076 22.2729C3.51121 22.5807 3.42668 22.7539 3.33378 22.927C3.28715 23.0136 3.23891 23.0999 3.18837 23.2027Z" fill="#689762"/>
<path d="M2.82259 20.745L2.67969 21.2344L2.91371 20.5488L2.82259 20.745Z" fill="#689762"/>
<path d="M3.8473 21.3141C3.75368 21.4902 3.67947 21.6652 3.62874 21.8118C3.58211 21.9604 3.55348 22.0783 3.53906 22.1365C3.6583 21.804 3.8069 21.4839 3.94715 21.1602L3.8473 21.3141Z" fill="#689762"/>
<path d="M4.24208 18.669C4.45529 18.3773 4.64695 18.14 4.80428 17.9466C5.05024 17.4576 5.65001 16.7085 5.94865 16.2054L5.82423 16.3465C5.80073 16.3471 5.83669 16.2693 5.88723 16.1722C5.93653 16.0745 6.01039 15.9644 6.04723 15.8907L6.21951 16.004L6.34445 15.8325L6.33876 15.7966C6.50801 15.4414 6.75751 15.2603 6.83902 15.1567C6.86999 15.0895 6.90416 15.0171 6.94456 14.9426C6.98656 14.8694 7.03284 14.7926 7.08267 14.7135C7.18251 14.5548 7.29713 14.3859 7.42277 14.2137C7.5486 14.0418 7.68421 13.8656 7.8289 13.6957C7.97982 13.5308 8.13751 13.37 8.29768 13.2205C8.42636 13.0766 8.58865 12.8952 8.75613 12.7081C8.83781 12.6128 8.92681 12.5214 9.01259 12.4319C9.09748 12.3416 9.18025 12.2538 9.25678 12.1722C9.5604 11.8439 9.75688 11.6057 9.59421 11.6918C9.81134 11.4581 10.0731 11.2118 10.3477 10.9448C10.6248 10.6806 10.908 10.3881 11.2242 10.1223C11.5362 9.85183 11.8502 9.57355 12.1691 9.31853C12.4941 9.07081 12.8148 8.83506 13.1189 8.62466C13.3266 8.54376 13.6607 8.2936 14.0323 8.00508C14.2188 7.86203 14.414 7.7084 14.6133 7.5716C14.8166 7.44071 15.0204 7.32179 15.2135 7.2343L14.8703 7.38759L15.0604 7.23846C15.3539 7.06816 15.78 6.76037 15.9503 6.72062C15.8202 6.8121 15.6976 6.91539 15.5712 7.01226L15.7429 6.93605C15.8143 6.89283 15.8728 6.85377 15.9237 6.82078C15.9752 6.78884 16.0174 6.76072 16.0535 6.73485C16.1256 6.68329 16.1729 6.64128 16.2203 6.59944C16.3148 6.51577 16.4089 6.43209 16.6999 6.27221C16.8392 6.2144 17.0119 6.12014 17.1984 6.01077C17.3883 5.9073 17.5952 5.79464 17.7946 5.68596C17.9941 5.57764 18.1876 5.47591 18.3538 5.40195C18.4369 5.36498 18.513 5.33494 18.5798 5.31446C18.6478 5.29641 18.7062 5.2879 18.7519 5.29068C18.6839 5.33061 18.6147 5.36775 18.5487 5.41167C18.9968 5.20735 19.4503 5.01413 19.9011 4.81623C20.0771 4.64385 19.7494 4.76241 19.3088 4.94608C19.089 5.03948 18.8398 5.1452 18.6129 5.24155C18.3881 5.34241 18.1876 5.43771 18.0525 5.48424L18.4547 5.22731C18.2075 5.29675 17.7337 5.52174 17.2051 5.78665C16.9426 5.92258 16.6744 6.08281 16.4091 6.23055C16.146 6.3821 15.8848 6.52028 15.6605 6.65343C15.8691 6.62965 15.1247 7.05653 14.9004 7.24784C14.7728 7.32335 14.6443 7.39922 14.5151 7.4756C14.3896 7.55737 14.2647 7.64191 14.1392 7.72663C13.8883 7.89658 13.6367 8.07105 13.3845 8.24847C13.2567 8.33492 13.1355 8.43109 13.0134 8.52674C12.8913 8.62257 12.769 8.71857 12.6462 8.81475C12.524 8.91144 12.4014 9.00848 12.2787 9.10553C12.1566 9.20344 12.0315 9.29805 11.9151 9.40325C11.6782 9.60897 11.441 9.8152 11.2039 10.0213C11.0858 10.1247 10.9655 10.2256 10.8487 10.3304C10.7343 10.4376 10.6199 10.5447 10.5056 10.6514C10.2765 10.8646 10.047 11.0761 9.81685 11.2844C9.59278 11.4993 9.37013 11.713 9.14909 11.9251C9.24768 11.8165 9.42192 11.6243 9.59597 11.4323C9.63975 11.3845 9.68265 11.3358 9.72626 11.2903C9.77057 11.2455 9.81381 11.2021 9.85439 11.1611C9.93572 11.0792 10.0071 11.0075 10.0583 10.9557C9.67677 11.2333 9.36604 11.63 9.05619 11.9993C8.97824 12.0913 8.90118 12.1826 8.82519 12.2723C8.74777 12.3607 8.6716 12.4477 8.59721 12.5327C8.44842 12.7029 8.2959 12.8554 8.13305 12.9784L8.41265 12.5879C8.17809 12.8936 7.95153 13.1888 7.72747 13.4809C7.50589 13.7745 7.2982 14.0739 7.07485 14.3682C6.9629 14.5152 6.85025 14.6635 6.73563 14.8138C6.62636 14.9682 6.51423 15.1237 6.39838 15.2815C6.28252 15.4393 6.16273 15.5992 6.03815 15.7622C5.97551 15.8434 5.91198 15.9259 5.84756 16.0092C5.78367 16.0931 5.72349 16.1813 5.65925 16.2686L5.77157 16.0532C5.34799 16.7399 4.94649 17.3298 4.60567 17.9306C4.5174 18.0791 4.43 18.2263 4.3428 18.373C4.25559 18.5198 4.16643 18.6653 4.08866 18.8179C3.92742 19.1198 3.76583 19.425 3.60156 19.7418C3.82403 19.3231 4.04169 18.9675 4.24208 18.669ZM18.0736 5.41549C17.9729 5.4799 17.8072 5.57642 17.8581 5.58007C17.7483 5.59951 17.6465 5.63649 17.541 5.68249C17.6999 5.60281 17.8683 5.51844 18.0736 5.41549ZM16.696 6.12534C16.906 6.00869 17.0984 5.89411 17.3292 5.78613C17.1388 5.88647 16.953 6.02761 16.7382 6.16215C16.5239 6.2979 16.2843 6.43331 15.9964 6.5465C16.2663 6.37533 16.4872 6.24426 16.696 6.12534Z" fill="#689762"/>
<path d="M3.67408 18.9785L3.48438 19.3929C3.64989 19.0655 3.80757 18.7334 3.98127 18.4102C3.87128 18.5952 3.77677 18.7891 3.67408 18.9785Z" fill="#689762"/>
<path d="M6.7447 15.5398L6.50781 15.9518L6.86893 15.3711L6.7447 15.5398Z" fill="#689762"/>
<path d="M10.5277 18.1699C10.4605 18.2576 10.3841 18.3605 10.2891 18.4951L10.5277 18.1699Z" fill="#689762"/>
<path d="M10.5024 10.9961C10.3987 11.1283 10.1413 11.3847 10.1947 11.3888C10.5019 11.0923 10.8071 10.7932 11.1178 10.5C10.9105 10.6621 10.7078 10.8304 10.5024 10.9961Z" fill="#689762"/>
<path d="M11.1591 9.92354L10.9922 10.0996L11.6462 9.51367L11.1591 9.92354Z" fill="#689762"/>
<path d="M12.1369 15.9892C12.007 16.1558 11.8911 16.3211 11.8203 16.4063C11.9638 16.3428 12.0707 16.2053 12.1782 16.0471C12.232 15.968 12.2855 15.8838 12.3437 15.8013C12.4035 15.7204 12.4715 15.6447 12.5457 15.5762C12.4804 15.6177 12.4097 15.6786 12.3382 15.7489C12.2699 15.822 12.2019 15.906 12.1369 15.9892Z" fill="#689762"/>
<path d="M12.3167 8.80316C12.5838 8.60804 12.8575 8.41829 13.007 8.35354C13.2506 8.0539 12.5354 8.63703 12.3485 8.72626C12.4582 8.56047 12.7999 8.29521 13.0088 8.14244C13.059 8.10633 13.1015 8.07821 13.1323 8.05859C13.0857 8.08741 13.0052 8.13776 12.8742 8.22699C12.658 8.40822 12.4087 8.61741 12.1839 8.80594C12.0725 8.90107 11.9684 8.99221 11.879 9.07363C11.7915 9.15713 11.7214 9.23386 11.6719 9.29289C11.7329 9.24879 11.8231 9.17015 11.9371 9.08474C12.0513 8.99985 12.1837 8.90177 12.3167 8.80316Z" fill="#689762"/>
<path d="M13.1328 8.05814C13.1604 8.04113 13.1791 8.02985 13.1816 8.02759C13.1859 8.02551 13.1664 8.03662 13.1328 8.05814Z" fill="#689762"/>
<path d="M12.1345 9.14183L13.1525 8.33008L12.4828 8.79272L12.1477 9.02517C12.0363 9.10329 11.9228 9.17863 11.8163 9.263C11.7873 9.31977 11.9274 9.1986 12.0732 9.09687C12.2168 8.99271 12.3559 8.89566 12.3061 8.97726L12.1345 9.14183Z" fill="#689762"/>
<path d="M12.7578 15.4895L12.9363 15.2539C12.8267 15.3779 12.7786 15.4468 12.7578 15.4895Z" fill="#689762"/>
<path d="M13.9683 14.2304C14.0765 14.0788 14.1625 14.0068 14.2653 13.9386C14.3687 13.8709 14.483 13.8006 14.6414 13.6426L14.5054 13.7223C14.4591 13.7528 14.3927 13.8002 14.3192 13.8554C14.2829 13.8835 14.2443 13.9132 14.2054 13.9433C14.168 13.9752 14.1311 14.0089 14.0954 14.0419C13.9526 14.1743 13.8325 14.3029 13.8353 14.3529C13.7682 14.397 13.6613 14.4795 13.7015 14.4066C13.5283 14.5788 13.1505 14.8833 13.1815 14.9298C13.2948 14.8239 13.4223 14.7323 13.5419 14.6331L13.9053 14.3413L14.2675 14.0498L14.6435 13.7757L14.6437 13.7421C14.528 13.8224 14.3969 13.9238 14.2742 14.0137C14.1562 14.1085 14.0473 14.1927 13.9683 14.2304Z" fill="#689762"/>
<path d="M17.2031 11.7761C17.3483 11.6707 17.5043 11.5816 17.6559 11.4862L17.6566 11.4551C17.5058 11.5511 17.3492 11.6382 17.2046 11.7434L17.2031 11.7761Z" fill="#689762"/>
<path d="M19.9977 4.34929C20.2002 4.26822 20.4141 4.1769 20.53 4.12691L20.5471 4.09375C20.3768 4.16336 20.1388 4.24825 19.9356 4.32551C19.7332 4.40484 19.5699 4.48643 19.5391 4.52428C19.5739 4.51855 19.6384 4.49598 19.719 4.46369C19.7994 4.43088 19.8957 4.38817 19.9977 4.34929Z" fill="#689762"/>
<path d="M20.5234 4.12969L20.524 4.13125C20.6633 4.06945 20.6318 4.08351 20.5234 4.12969Z" fill="#689762"/>
<path d="M20.5892 3.9943L20.5703 4.02989L21.1886 3.76758L20.5892 3.9943Z" fill="#689762"/>
<path d="M18.9109 10.5898C18.6483 10.7508 18.42 10.9851 18.7211 10.8718C19.4058 10.4478 18.6996 10.752 18.9109 10.5898Z" fill="#689762"/>
<path d="M20.5469 4.45166C21.2605 4.14856 20.8797 4.38066 21.0954 4.32615C21.5866 4.14196 21.538 4.09214 21.7564 3.98242C21.6547 4.01784 21.5462 4.05308 21.4358 4.08832C21.3273 4.12842 21.2169 4.16904 21.1096 4.20862C20.8953 4.28917 20.6941 4.37024 20.5469 4.45166Z" fill="#689762"/>
<path d="M22.0999 3.62978C22.357 3.5685 22.6797 3.48569 22.8942 3.44195C23.1107 3.40497 23.2165 3.39768 23.0342 3.46486C22.9112 3.49941 22.7808 3.54871 22.6598 3.5968C22.5384 3.64454 22.4265 3.69141 22.3432 3.73064C22.1766 3.80911 22.1248 3.85615 22.341 3.81744C22.5256 3.75894 22.7427 3.68394 22.9805 3.61329C23.2202 3.54923 23.4776 3.48066 23.7353 3.41191C23.9937 3.34595 24.2515 3.27737 24.4954 3.22512C24.7408 3.17894 24.9695 3.13988 25.1643 3.11263C25.8227 2.96038 24.7744 3.1187 25.633 2.9307C25.6541 2.89598 25.6144 2.87375 25.9038 2.79338C26.2601 2.71474 26.8892 2.60103 27.3833 2.50607C27.5066 2.48038 27.6227 2.46475 27.7238 2.44983C27.8249 2.43403 27.911 2.42066 27.9761 2.41042C28.1062 2.38854 28.1516 2.37639 28.0607 2.37934C27.8677 2.38212 27.6805 2.39132 27.4981 2.40903C27.3166 2.43351 27.1393 2.46371 26.9645 2.49774C26.6152 2.56631 26.2756 2.6486 25.9307 2.73418C25.5886 2.834 25.2405 2.93451 24.8686 3.02218C24.7757 3.04406 24.6812 3.06523 24.5847 3.08537C24.4882 3.10516 24.39 3.12374 24.2912 3.14787C24.093 3.19248 23.886 3.23259 23.668 3.26678L24.1113 3.09353C23.7413 3.20863 23.477 3.26678 23.2384 3.31123C23.1188 3.3324 23.0061 3.3522 22.8899 3.37268C22.774 3.39421 22.6568 3.42476 22.5256 3.45948L22.786 3.36521C22.8726 3.33345 22.9618 3.30914 23.0495 3.28085L23.5786 3.11697L24.1084 2.95378C24.1969 2.92722 24.2848 2.89841 24.374 2.87358L24.6424 2.80449C24.3247 2.87202 24.0147 2.97045 23.7018 3.05708C23.3898 3.14717 23.0767 3.23311 22.7664 3.32806C21.336 3.79748 21.5857 3.75425 22.0999 3.62978Z" fill="#689762"/>
<path d="M19.5234 10.338C19.5389 10.3304 19.5539 10.322 19.5699 10.3154L19.6058 10.2812C19.5789 10.2991 19.5478 10.3186 19.5234 10.338Z" fill="#689762"/>
<path d="M19.5156 10.3658C19.7263 10.2561 19.9415 10.1551 20.154 10.0488L19.5665 10.3115C19.5489 10.3285 19.5327 10.3479 19.5156 10.3658Z" fill="#689762"/>
<path d="M19.7051 10.1914L19.6094 10.2817C19.6775 10.2369 19.7357 10.1964 19.7051 10.1914Z" fill="#689762"/>
<path d="M21.6877 7.03125L21.2969 7.28436C21.8224 7.12274 21.6909 7.05903 21.6877 7.03125Z" fill="#689762"/>
<path d="M21.4838 9.3595L21.5032 9.29492C21.4251 9.31454 21.3494 9.32443 21.1871 9.40394C20.6988 9.67215 21.2996 9.41661 21.4838 9.3595Z" fill="#689762"/>
<path d="M21.4297 9.07294C21.6005 8.99118 21.7678 8.90056 21.9437 8.83008L21.7717 8.89587L21.4297 9.07294Z" fill="#689762"/>
<path d="M30.5512 2.27711C30.6068 2.25732 30.6819 2.23596 30.7792 2.22902C30.8766 2.22346 30.9962 2.22798 31.1398 2.25055L30.9011 2.28006C31.9332 2.33335 32.1847 2.36495 33.4077 2.32137C33.5052 2.32467 33.6211 2.32849 33.7492 2.33266C33.8773 2.33752 34.0178 2.33978 34.1635 2.3554C34.455 2.38092 34.7695 2.41043 35.0557 2.44151C35.6289 2.49463 36.0838 2.59531 36.0215 2.64132L36.2606 2.64826C36.1084 2.57952 35.8802 2.50053 36.0157 2.45869C35.9381 2.4547 35.8558 2.45071 35.7706 2.44637C35.6853 2.44098 35.5967 2.43595 35.5052 2.43543C35.3228 2.43144 35.1317 2.42501 34.9404 2.41512C34.7489 2.40522 34.5574 2.39168 34.3741 2.3738C34.1908 2.35696 34.0158 2.32936 33.8572 2.312L33.9382 2.23735C33.8161 2.24568 33.6953 2.26235 33.4888 2.2469L33.46 2.2712C33.1234 2.3146 32.7741 2.3021 32.4194 2.27624C32.0651 2.26322 31.7054 2.24256 31.3535 2.24725L31.6886 2.11392C30.2451 2.09517 31.0246 2.18111 30.505 2.27277L29.8984 2.28509L30.4316 2.35453C30.4074 2.36443 30.4402 2.31808 30.5512 2.27711Z" fill="#689762"/>
<path d="M33.3363 2.18778L32.6876 2.17753C32.5794 2.17632 32.4714 2.17337 32.3633 2.17389L32.0391 2.18448L32.4028 2.18726L32.7664 2.20635L33.4929 2.24541C33.3959 2.22875 33.2405 2.20948 33.3363 2.18778Z" fill="#689762"/>
<path d="M31.0328 2.06974C31.2109 2.06158 31.3487 2.04665 31.362 2.01609C31.1595 2.00846 30.9641 2.01991 30.8044 2.03606C30.6449 2.05272 30.5214 2.0838 30.4609 2.09526C30.5485 2.09005 30.6467 2.08397 30.7455 2.07807C30.8445 2.07616 30.9438 2.0739 31.0328 2.06974Z" fill="#689762"/>
<path d="M27.6072 7.37056C27.9219 7.29556 28.2349 7.20616 28.5545 7.15234C28.4341 7.1671 28.3129 7.1763 28.1931 7.1954C27.9694 7.25911 27.4502 7.32265 27.6072 7.37056Z" fill="#689762"/>
<path d="M32.9828 2.09766L32.9609 2.12318L33.6182 2.12075L32.9828 2.09766Z" fill="#689762"/>
<path d="M34.4021 2.04492L34.3516 2.05326L35.004 2.12322L34.4021 2.04492Z" fill="#689762"/>
<path d="M34.3503 2.04982L34.0543 2.01858C33.9555 2.01059 33.8566 2.00625 33.7578 2C33.8737 2.0316 33.9895 2.05642 34.1047 2.09374L34.3503 2.04982Z" fill="#689762"/>
<path d="M32.1552 7.13867L31.5547 7.22391L32.09 7.21679L32.3575 7.21297C32.4467 7.21367 32.5358 7.21922 32.625 7.222L32.3904 7.17426L32.1552 7.13867Z" fill="#689762"/>
<path d="M37.1519 2.72138C37.3606 2.75576 37.5681 2.79812 37.7762 2.83631L37.4249 2.71809L37.6566 2.73493C37.8751 2.76722 37.9533 2.8035 38.0465 2.83492C38.3638 2.75524 39.8051 3.13004 40.7693 3.4255C40.6732 3.40728 40.5676 3.38471 40.4559 3.35919C40.4 3.34634 40.3425 3.33315 40.2838 3.31961C40.2247 3.30798 40.1642 3.296 40.103 3.28402C39.8586 3.2342 39.6018 3.1816 39.3605 3.1323C39.119 3.08473 38.8933 3.0389 38.7086 3.01685C38.5229 2.9988 38.3802 2.99515 38.3078 3.01512C38.4553 3.0205 38.6283 3.03004 38.8173 3.0573C39.0058 3.08716 39.2121 3.12552 39.4302 3.16979C39.6484 3.21423 39.8784 3.26475 40.114 3.31909C40.1729 3.3328 40.2322 3.34669 40.2918 3.36058C40.3505 3.37742 40.4098 3.39426 40.4691 3.41127C40.5874 3.44599 40.7067 3.48071 40.8259 3.5156C41.785 3.77982 42.7119 4.14803 43.2807 4.32822L43.535 4.54279C43.5198 4.38829 44.357 4.56831 44.7539 4.67525C44.9821 4.76743 45.2326 4.94537 45.2832 4.98234C45.2778 4.97835 45.2725 4.97436 45.2588 4.96394L44.9794 4.7492C44.855 4.69434 44.7439 4.6565 44.6345 4.62942C44.5256 4.60216 44.4213 4.57595 44.3099 4.548C44.0876 4.49089 43.8406 4.41502 43.4825 4.24298C43.4314 4.21556 43.378 4.1883 43.3223 4.16157C43.2661 4.13639 43.207 4.11313 43.1463 4.08935C43.0247 4.04213 42.8955 3.99595 42.7605 3.95064C42.4903 3.85968 42.197 3.77131 41.8959 3.6807C41.5922 3.59806 41.2779 3.52307 40.9717 3.43523C40.8184 3.392 40.6666 3.34669 40.5184 3.29895C40.4443 3.27447 40.371 3.25034 40.2982 3.22639C40.2251 3.20434 40.153 3.1816 40.0821 3.15781C39.961 3.14011 39.07 2.9771 39.2642 2.93214C39.1873 2.92745 39.0887 2.91373 38.9761 2.89429C38.9198 2.88387 38.86 2.87259 38.7974 2.86096C38.7346 2.85089 38.6689 2.84047 38.6016 2.82971C38.3332 2.78336 38.0373 2.73215 37.7781 2.68736C37.5185 2.64465 37.2955 2.60855 37.1698 2.6115C37.0438 2.61532 37.0175 2.64622 37.1519 2.72138Z" fill="#689762"/>
<path d="M45.2734 4.98242C45.2777 4.98563 45.2787 4.98624 45.2734 4.98242V4.98242Z" fill="#689762"/>
<path d="M41.1178 3.34533C41.4024 3.43022 41.6889 3.5066 41.95 3.5875C42.2098 3.67256 42.4487 3.74808 42.6462 3.80571C42.3373 3.70694 42.2851 3.6434 42.1057 3.56302C42.0187 3.54792 41.921 3.51962 41.8113 3.49636C41.7021 3.47171 41.5841 3.4422 41.4611 3.40956C41.2153 3.34429 40.9498 3.26634 40.6962 3.19117C40.5691 3.15419 40.4458 3.11496 40.3281 3.08354C40.2096 3.05507 40.0982 3.02816 39.9982 3.00403C39.7978 2.95768 39.6417 2.92643 39.5625 2.92383C39.7666 2.97452 40.0136 3.03597 40.2815 3.10246C40.5479 3.17451 40.8323 3.26356 41.1178 3.34533Z" fill="#689762"/>
<path d="M35.8663 7.06857L35.7114 7.02066C35.566 7.03055 35.3622 6.99739 35.1504 6.96875L35.125 6.99218C35.3638 7.02239 35.6018 7.05798 35.8401 7.09044L35.8663 7.06857Z" fill="#689762"/>
<path d="M62.5441 25.5195C62.5945 25.6782 62.6447 25.836 62.6941 25.9914C62.7449 26.1466 62.7798 26.3033 62.8205 26.4547C62.8985 26.7582 62.9675 27.0477 63.0179 27.3123L63.1241 27.5541L62.8403 26.3247C62.8154 26.2226 62.7951 26.1193 62.7664 26.0181L62.6804 25.7145L62.5078 25.1074L62.6098 25.676C62.5875 25.6395 62.5635 25.58 62.5441 25.5195Z" fill="#689762"/>
<path d="M46.0956 5.32373C46.1054 5.36869 46.1002 5.4081 46.5226 5.62787C46.4953 5.58465 46.6706 5.66173 46.7781 5.70339L47.0807 5.92039C47.1946 5.96552 47.3649 6.04052 47.3389 5.99729C47.141 5.90286 47.0769 5.84522 47.0057 5.79314L47.225 5.87942C47.332 5.93567 47.4434 5.99156 47.5377 6.04347C47.6299 6.09937 47.7057 6.15128 47.7445 6.19364C47.9472 6.4023 48.647 6.93248 47.6112 6.38564C48.1191 6.64951 48.4564 6.90991 48.7579 7.14184C49.0547 7.38262 49.3233 7.58365 49.7173 7.71784C49.9837 7.84561 50.242 8.02199 50.5112 8.2119C50.6456 8.30704 50.7819 8.40686 50.9204 8.5098C50.9894 8.56153 51.0592 8.61379 51.1297 8.66656C51.1648 8.69312 51.2002 8.71986 51.2356 8.74659C51.2699 8.77489 51.3043 8.80353 51.339 8.83218C51.6157 9.0615 51.9021 9.29933 52.202 9.53612C52.2771 9.59514 52.3527 9.65469 52.4287 9.71441C52.5033 9.77604 52.5782 9.83801 52.6537 9.90051C52.8055 10.0239 52.9612 10.1463 53.1217 10.2663L53.2372 10.4024C53.136 10.3881 52.7409 10.0675 52.4702 9.86457C52.7521 10.105 53.0318 10.3435 53.3043 10.5758C53.3725 10.6338 53.4403 10.6914 53.5076 10.7485C53.5727 10.8081 53.6373 10.8671 53.7012 10.9256C53.8295 11.0421 53.9566 11.1556 54.0817 11.265C54.1694 11.3865 54.2367 11.4775 54.3415 11.5832C54.3939 11.636 54.4556 11.6926 54.5341 11.7585C54.6122 11.8249 54.7016 11.9061 54.8169 12.0007C55.0125 12.2533 54.4766 11.7705 54.9545 12.299L54.779 12.149C54.9942 12.3326 55.2088 12.5493 55.4213 12.7798C55.5297 12.8932 55.6299 13.017 55.7297 13.142C55.8292 13.2668 55.9294 13.3921 56.0287 13.5166C56.1285 13.6404 56.2277 13.7634 56.325 13.8841C56.3747 13.9436 56.424 14.0027 56.4726 14.061C56.5213 14.1191 56.5662 14.1794 56.6132 14.2363C56.7992 14.466 56.9855 14.6726 57.1747 14.8385C57.2224 14.9217 57.3101 15.0568 57.2316 14.9974L57.3938 15.1649C57.5671 15.3623 57.7274 15.5876 57.8896 15.817C58.049 16.0482 58.209 16.2848 58.3525 16.5259C58.6274 17.0165 58.8816 17.4946 59.0759 17.8944C59.2543 18.0696 59.4144 18.3821 59.5717 18.6984C59.6513 18.8562 59.7312 19.0147 59.8056 19.1622C59.8791 19.3105 59.9549 19.4436 60.0364 19.5462C60.2319 19.9983 60.4527 20.4451 60.6412 20.9133C60.837 21.3777 61.0512 21.8393 61.2248 22.3203C61.3157 22.559 61.407 22.7983 61.4983 23.0378L61.5661 23.2177C61.5875 23.2781 61.606 23.3395 61.6261 23.4005L61.7426 23.7669C61.8195 24.0115 61.8948 24.2563 61.9673 24.5013L62.0212 24.6849L62.0655 24.8712L62.1506 25.2438C62.2052 25.4545 62.259 25.6614 62.3118 25.8652C62.3382 25.967 62.3645 26.068 62.3905 26.168C62.4118 26.2692 62.433 26.3697 62.4542 26.4692C62.5387 26.8673 62.6206 27.2526 62.7001 27.6273C62.763 28.0049 62.824 28.3717 62.8836 28.7296C62.9116 28.9088 62.9461 29.0848 62.9678 29.2605C62.9884 29.4364 63.0087 29.6103 63.029 29.7827C63.0678 30.1273 63.1121 30.4642 63.144 30.7974C63.1664 31.1312 63.1885 31.4604 63.2102 31.7864C63.2209 31.9494 63.2314 32.1117 63.2419 32.2735C63.2446 32.4355 63.2474 32.5971 63.2501 32.7584C63.254 33.0809 63.2577 33.4026 63.2616 33.7253L63.2823 32.4327C63.2858 32.3247 63.2832 32.2169 63.2784 32.1091L63.2673 31.7857L63.2446 31.1378L63.3533 31.6136L63.34 31.4083C63.3437 30.8616 63.4432 31.6583 63.464 31.7098C63.4474 31.4633 63.4409 31.2347 63.3958 31.0708C63.4086 30.8876 63.4277 30.7033 63.4289 30.5201L63.3237 30.0637C63.2776 29.7478 63.3149 29.6865 63.3085 29.4902C63.2851 29.3334 63.2725 29.1895 63.2492 29.0576C63.2284 28.9253 63.2093 28.8032 63.191 28.6873C63.1584 28.4548 63.1292 28.2475 63.099 28.0335C63.0484 27.6037 62.9454 27.1554 62.7537 26.4385L62.7663 26.6176L62.6532 26.2864L62.5966 26.1211L62.5325 25.9579L62.488 25.5963L62.4255 25.5616C62.3529 25.4099 62.2938 25.1792 62.2292 24.9439C62.2267 24.8318 62.1486 24.5115 62.2144 24.6C62.0826 24.2164 61.9915 23.9451 61.9105 23.686C61.8281 23.4274 61.7644 23.1781 61.6515 22.8507C61.722 22.9911 61.7996 23.1291 61.8615 23.2731C61.8765 23.6069 62.2604 24.1006 62.2166 24.4389C62.2767 24.6119 62.3239 24.7908 62.3794 24.9688C62.4351 25.1467 62.4914 25.326 62.548 25.5062C62.4844 25.3181 62.427 25.055 62.365 24.8492C62.3357 24.7419 62.3161 24.6365 62.2968 24.5492C62.2778 24.4619 62.2671 24.3903 62.267 24.3471C62.2666 24.261 62.3088 24.2891 62.4115 24.5353L62.1198 23.7277C62.1297 23.6178 62.074 23.4034 61.9802 23.1241C61.8768 22.8484 61.7272 22.5111 61.5686 22.1481C61.4873 21.9676 61.4109 21.7775 61.3209 21.5921C61.2308 21.4067 61.1413 21.2199 61.0566 21.0359C60.8845 20.6692 60.7439 20.308 60.6227 20.007L60.6967 20.2285C60.5704 20.083 60.4251 19.7247 60.2876 19.4693C60.1032 19.2832 60.7688 20.5363 60.3018 19.787C60.1479 19.4648 60.0412 19.2166 59.9823 19.0416C59.9208 18.868 59.9024 18.7701 59.9394 18.7414C60.0694 18.9308 60.1699 19.0431 60.2972 19.315C60.2696 19.2315 60.2073 19.0773 60.2737 19.1528C60.2009 19.0556 60.1365 18.9527 60.0653 18.8523C59.9946 18.7517 59.9265 18.6487 59.8603 18.5437C59.7277 18.3338 59.6025 18.1163 59.4799 17.8953C59.4178 17.7854 59.3601 17.6724 59.2955 17.5634L59.0993 17.2377C58.9679 17.0209 58.8348 16.8058 58.6958 16.5973L58.6226 16.5787L59.0122 17.1979C59.14 17.4056 59.2765 17.6078 59.3922 17.8227C59.4543 17.9935 59.5906 18.2894 59.4588 18.151C59.3319 17.9611 59.2256 17.7786 59.1154 17.6134C59.0056 17.4477 58.9062 17.2908 58.8138 17.1396C58.7214 16.9884 58.6363 16.8429 58.5552 16.7002C58.4731 16.5584 58.3998 16.4162 58.3151 16.2827C58.1508 16.0123 57.9903 15.7428 57.8072 15.4548C57.6296 15.1628 57.4071 14.8688 57.1387 14.536L57.1757 14.5431C56.9887 14.2705 56.8856 14.0235 56.7607 13.8063C56.6306 13.5938 56.4841 13.4063 56.2259 13.2487C56.3907 13.5119 56.561 13.7688 56.7182 14.035C56.665 13.9782 56.6085 13.9242 56.5512 13.8709C56.3936 13.6853 56.2311 13.5004 56.1851 13.4013L55.9376 13.2291C55.8251 13.0855 55.7158 12.9385 55.5998 12.7977L55.2447 12.3804L54.8884 11.9627C54.7692 11.8236 54.6521 11.6822 54.5247 11.5509C54.6409 11.5938 55.0525 11.9568 54.8539 11.6997C54.7954 11.6495 54.737 11.5992 54.6751 11.5525L54.5604 11.4056L53.9975 10.9662C53.9427 10.8563 53.8354 10.7468 53.7014 10.6288C53.567 10.5114 53.397 10.3953 53.2294 10.2569C52.9799 10.0772 52.4531 9.62987 51.8325 9.1674C51.68 9.04848 51.5234 8.92661 51.3666 8.80423L51.2493 8.71204L51.1286 8.62472C51.0485 8.56622 50.969 8.50807 50.8902 8.4506C50.5755 8.21972 50.2783 7.99386 50.0279 7.79648C50.2939 7.96574 50.5892 8.13292 50.8768 8.31051C51.0204 8.39939 51.1621 8.49123 51.2961 8.58757C51.4281 8.6867 51.549 8.79537 51.6592 8.90717L51.3837 8.63809C51.2913 8.54886 51.1936 8.4664 51.0985 8.38012C51.1802 8.42352 51.2689 8.4756 51.3626 8.53445C51.4545 8.59556 51.5493 8.66621 51.6481 8.73999C51.8453 8.88825 52.0543 9.05456 52.2605 9.22086C52.3634 9.30402 52.4661 9.38683 52.5659 9.46755C52.6629 9.55175 52.7572 9.63386 52.8467 9.7118C53.0265 9.867 53.1902 10.0026 53.3248 10.0998C53.1441 9.94009 52.9491 9.7743 52.8872 9.68004C53.1198 9.81562 53.3558 9.95311 53.5807 10.0842C53.2636 9.80694 52.9382 9.58056 52.5835 9.33926C52.2214 9.10611 51.8384 8.84797 51.4153 8.48168C51.1982 8.36658 50.8255 8.12337 50.7613 8.13483C50.5 7.96227 50.2854 7.82564 50.0923 7.69458C49.8944 7.57045 49.72 7.44841 49.5445 7.29512C49.6499 7.34894 49.8145 7.44095 49.7933 7.39633C49.3792 7.11597 48.8798 6.7903 48.4138 6.52972C48.1837 6.39449 47.9687 6.26447 47.7881 6.1452C47.6975 6.08601 47.6165 6.02733 47.5446 5.97594C47.472 5.9256 47.4106 5.87821 47.3629 5.83429L47.1413 5.74714L47.2948 5.85703L46.4345 5.42094L46.2193 5.31227C46.1472 5.27686 46.073 5.24561 45.9999 5.21211L45.8359 5.13867C46.0691 5.25116 46.0881 5.28901 46.0956 5.32373ZM63.199 29.1334C63.2061 29.2855 63.2106 29.468 63.2766 29.6572C63.239 29.5643 63.2447 29.7249 63.2426 29.8169C63.2018 29.4765 63.1687 29.1348 63.1052 28.7973C63.175 28.8616 63.1864 28.9824 63.199 29.1334ZM62.527 26.1086C62.5572 26.2338 62.5823 26.3583 62.6076 26.4794C62.6941 26.8048 62.7711 27.0841 62.7594 27.2155C62.7993 27.4056 62.8461 27.5712 62.8851 27.7096C62.9247 27.8476 62.9708 27.9556 63.0283 28.026L63.0459 28.7571C63.0086 28.597 62.9577 28.3786 62.8989 28.1267C62.8708 28.0007 62.8425 27.866 62.816 27.7252C62.7905 27.5844 62.7539 27.4401 62.7284 27.291C62.7475 27.2813 62.7557 27.2511 62.7594 27.2155C62.7108 26.9954 62.6631 26.7483 62.6074 26.4794C62.5761 26.3581 62.5433 26.231 62.5106 26.1045C62.4746 25.9788 62.4419 25.8529 62.4173 25.7323C62.4567 25.8585 62.4928 25.9843 62.527 26.1086ZM61.2272 21.7414C61.2972 21.92 61.3659 22.0981 61.4271 22.2669C61.3454 22.0974 61.2682 21.9134 61.1922 21.7292C61.11 21.5478 61.0329 21.3647 60.9642 21.1921C60.882 20.9854 60.814 20.7982 60.762 20.6427C60.8224 20.8125 60.9037 21.0093 60.997 21.2227C61.0713 21.39 61.1495 21.566 61.2272 21.7414ZM48.6543 6.72815L48.8369 6.83561L49.0148 6.95053L49.1537 7.0724C48.8744 6.87241 48.5806 6.69517 48.2891 6.51375L48.6543 6.72815Z" fill="#689762"/>
<path d="M45.8387 5.14153C45.7679 5.1075 45.6791 5.0674 45.5625 5.01758L45.8387 5.14153Z" fill="#689762"/>
<path d="M46.9731 5.48633L46.9375 5.49674L47.2456 5.71669L46.9731 5.48633Z" fill="#689762"/>
<path d="M44.1342 9.73696L44.2285 9.69929C44.0917 9.60468 44.0582 9.546 43.805 9.4375C43.7945 9.49132 44.0888 9.65415 44.1342 9.73696Z" fill="#689762"/>
<path d="M46.4065 9.33215L45.9219 9.08008C46.1212 9.2167 46.2824 9.35732 46.4065 9.33215Z" fill="#689762"/>
<path d="M45.9162 9.0792C45.7934 8.99951 45.6617 8.93129 45.5156 8.89258C45.6489 8.9549 45.7838 9.01462 45.9162 9.0792Z" fill="#689762"/>
<path d="M46.0483 9.44277C46.2809 9.48947 46.0103 9.25546 45.953 9.17699C45.8891 9.14817 45.8242 9.12144 45.7578 9.09766C45.848 9.16154 45.9324 9.23584 46.0191 9.30563C45.6633 9.12578 45.9838 9.36986 46.0483 9.44277Z" fill="#689762"/>
<path d="M47.3854 9.77179C47.2995 9.7296 47.1931 9.64923 47.0687 9.57319C46.9464 9.49368 46.8131 9.40688 46.6894 9.3265C46.4408 9.16714 46.224 9.04319 46.1797 9.1069C46.5419 9.30046 46.609 9.37876 46.6784 9.45879C46.7131 9.49889 46.7483 9.53934 46.8213 9.59506C46.8578 9.62284 46.9037 9.65444 46.9637 9.69159C47.024 9.72804 47.0978 9.77127 47.1872 9.82717L47.2203 9.81692C47.1671 9.78325 47.1158 9.74662 47.0614 9.71502C46.8483 9.56243 46.9266 9.58621 47.0608 9.64211C47.1948 9.69783 47.3767 9.79869 47.3854 9.77179Z" fill="#689762"/>
<path d="M49.7656 9.20586L50.2554 9.56139C50.1938 9.47372 49.9911 9.33745 49.8049 9.20117L49.7656 9.20586Z" fill="#689762"/>
<path d="M48.8281 10.7551C48.6562 10.6299 48.4857 10.5072 48.3194 10.391C48.1489 10.2812 47.9806 10.1812 47.8206 10.0898C47.7473 10.1216 47.8521 10.2022 48.0242 10.3162C48.1091 10.3749 48.2155 10.435 48.3161 10.5143C48.4182 10.5914 48.523 10.675 48.6165 10.7625C48.9123 10.9749 49.1189 11.0983 49.3031 11.1995C49.4853 11.3035 49.6391 11.3934 49.8389 11.5241C49.6768 11.399 49.5154 11.2622 49.3453 11.1337C49.1732 11.0078 48.9995 10.8808 48.8281 10.7551Z" fill="#689762"/>
<path d="M50.5849 12.4074C50.8287 12.6108 51.2346 13.0098 51.3238 13.025C51.164 12.8039 50.7708 12.5223 50.5156 12.3086C50.5407 12.3386 50.5633 12.37 50.5849 12.4074Z" fill="#689762"/>
<path d="M50.3281 12.1289C50.3769 12.178 50.436 12.2379 50.5154 12.3025C50.4634 12.2416 50.4045 12.1852 50.3281 12.1289Z" fill="#689762"/>
<path d="M49.8984 11.7988C50.0679 11.9492 50.2127 12.0466 50.3265 12.1297C50.2864 12.0877 50.2544 12.0474 50.2581 12.0212L49.8984 11.7988Z" fill="#689762"/>
<path d="M48.9156 12.3992L48.6328 12.1738L48.8531 12.416L48.9156 12.3992Z" fill="#689762"/>
<path d="M55.6687 12.7634L55.7401 12.7646C55.568 12.5659 55.3793 12.2395 55.2109 12.1602C55.7157 12.6435 55.458 12.5372 55.6687 12.7634Z" fill="#689762"/>
<path d="M52.5676 14.0157L52.4566 13.8925L52.3395 13.7751C52.183 13.6189 52.0255 13.464 51.8684 13.3126C51.7894 13.2375 51.7107 13.1627 51.6329 13.0884C51.5544 13.0147 51.4775 12.9408 51.395 12.875L51.3594 12.8786C51.4555 12.9601 51.5445 13.0495 51.6349 13.1371L51.9056 13.4005L52.4468 13.9272L52.4768 13.9208C52.5507 14.1334 52.9107 14.4046 53.217 14.7518C53.0761 14.5912 52.9325 14.4275 52.7878 14.2626C52.7144 14.1806 52.6411 14.0984 52.5676 14.0157Z" fill="#689762"/>
<path d="M58.1797 24.5762C58.2064 24.6619 58.2325 24.7472 58.2599 24.8366C58.2338 24.7432 58.2069 24.6581 58.1797 24.5762Z" fill="#689762"/>
<path d="M55.6267 19.3943C55.7089 19.5118 55.7924 19.6266 55.8682 19.7438C55.9407 19.8632 56.0122 19.9812 56.083 20.0983C56.2233 20.3331 56.3578 20.5652 56.489 20.7961C56.6136 21.0307 56.7253 21.269 56.841 21.5051C56.8978 21.6237 56.9547 21.7421 57.0119 21.861L57.0969 22.0396C57.1222 22.1007 57.1475 22.162 57.1729 22.2235C57.2744 22.4689 57.3767 22.7168 57.4814 22.9699C57.5317 23.097 57.5913 23.2218 57.6364 23.3545C57.6841 23.4859 57.7323 23.6188 57.7812 23.7537C57.8782 24.0237 57.9866 24.298 58.0889 24.5858C58.1836 24.8764 58.2842 25.1762 58.3927 25.4875L58.1003 24.548C57.9912 24.2386 57.875 23.9317 57.7629 23.6228C57.8481 23.8228 57.9348 23.999 58.0215 24.1879C58.0647 24.2823 58.1082 24.3799 58.1509 24.4851C58.1607 24.5136 58.1705 24.5441 58.1804 24.5738C58.1689 24.5367 58.1575 24.4974 58.1455 24.461C58.1018 24.3419 58.0591 24.2254 58.0165 24.11C57.9311 23.8789 57.8473 23.6518 57.7602 23.4164C57.7385 23.3574 57.7166 23.298 57.6946 23.2378C57.6697 23.1788 57.6444 23.1191 57.6188 23.0583C57.5675 22.9368 57.5148 22.8118 57.46 22.6816C57.4057 22.551 57.3495 22.4151 57.2904 22.2728C57.2318 22.1299 57.1728 21.9792 57.0977 21.8261L57.1313 21.8351C57.082 21.703 56.9916 21.4957 56.8832 21.2806C56.8289 21.1732 56.7702 21.0638 56.7098 20.9612C56.6798 20.91 56.6492 20.8604 56.6186 20.8135C56.5869 20.7671 56.5529 20.7249 56.5207 20.6857C56.4251 20.4795 56.4949 20.5416 56.5342 20.5505C56.3443 20.2394 56.2137 19.9887 56.1074 19.7636C56.0814 19.707 56.0563 19.6523 56.0318 19.599C56.0056 19.5467 55.98 19.4957 55.9547 19.4453C55.9047 19.3441 55.8559 19.2454 55.8061 19.1443L55.6714 18.9782C55.7814 19.1381 55.8031 19.2125 55.8337 19.2862C55.5612 19.033 55.2777 18.4438 54.9656 18.0487C54.8378 17.7797 54.6959 17.564 54.5308 17.358C54.3583 17.1571 54.1682 16.9615 53.957 16.7186C53.9166 16.6457 53.842 16.527 53.91 16.5738C53.834 16.4777 53.7641 16.3765 53.6831 16.2844L53.4453 16.0039C53.4857 16.0749 53.598 16.2206 53.6717 16.328C53.7449 16.436 53.7733 16.5101 53.6656 16.4238C53.921 16.7851 54.1997 17.0766 54.3243 17.1535C54.5112 17.4241 54.3071 17.2439 54.2983 17.2891C54.3533 17.362 54.4112 17.4326 54.464 17.5071L54.6201 17.7321C54.6203 17.6875 54.7242 17.8137 54.7954 17.8942C55.1282 18.4958 55.7034 19.1719 55.9843 19.729C55.7899 19.4587 55.7869 19.5802 55.6267 19.3943Z" fill="#689762"/>
<path d="M56.1967 18.0619C56.1748 18.0126 56.1545 17.9625 56.1314 17.914C56.0933 17.8923 56.1376 17.9644 56.1967 18.0619Z" fill="#689762"/>
<path d="M56.1978 18.0695C56.2025 18.0759 56.1986 18.0691 56.2035 18.0752C56.1992 18.0686 56.1953 18.0625 56.1953 18.0625L56.1978 18.0695Z" fill="#689762"/>
<path d="M56.1906 17.8104L55.9995 17.5358L55.6172 16.9863L56.0196 17.6095C56.086 17.7137 56.1552 17.816 56.2189 17.9217L56.4047 18.2423C56.3645 18.234 56.3415 18.252 56.2065 18.0694C56.3186 18.2493 56.5257 18.5485 56.6459 18.7652C56.6537 18.7248 56.7206 18.7754 56.9084 19.0459C56.9194 18.8846 56.2449 18.1415 56.3711 18.0916C56.3106 17.9982 56.2556 17.901 56.1906 17.8104Z" fill="#689762"/>
<path d="M56.6407 18.7676C56.6386 18.8101 56.6793 18.9191 56.7309 19.017C56.7519 18.9877 56.7106 18.8915 56.6407 18.7676Z" fill="#689762"/>
<path d="M55.4491 18.5312C55.4318 18.4534 55.3489 18.3275 55.2508 18.1886C55.1531 18.0496 55.0405 17.8975 54.9574 17.771L54.8906 17.7637C55.1544 18.0258 55.2222 18.2661 55.3795 18.518L55.4491 18.5312Z" fill="#689762"/>
<path d="M60.8274 21.548L60.7578 21.5176C60.9251 21.8373 61.0645 22.1694 61.2102 22.4995C61.0858 22.1811 60.9718 21.8582 60.8274 21.548Z" fill="#689762"/>
<path d="M57.4449 22.2143C57.4118 22.1438 57.3748 22.0584 57.3367 21.9691C57.2979 21.8804 57.2514 21.7909 57.2107 21.707C57.1276 21.5398 57.0535 21.4015 57.0156 21.3789C57.15 21.6541 57.2968 21.9233 57.4132 22.2068L57.4449 22.2143Z" fill="#689762"/>
<path d="M61.396 24.3656L61.4285 24.3837L61.2393 23.8063C61.1746 23.6143 61.1174 23.4197 61.0411 23.232L61.0078 23.2148C61.0838 23.4025 61.1436 23.5962 61.2069 23.7886L61.396 24.3656Z" fill="#689762"/>
<path d="M63.4251 29.3989C63.4123 29.2957 63.4025 29.1918 63.3872 29.0889L63.3361 28.7806C63.3036 28.6664 63.2614 28.4898 63.2422 28.5344C63.2901 28.6891 63.3077 28.821 63.329 28.9559C63.353 29.0905 63.3714 29.2293 63.4251 29.3989Z" fill="#689762"/>
<path d="M58.9721 26.9705L58.8279 26.4435L58.75 26.2539L58.9721 26.9705Z" fill="#689762"/>
<path d="M60.3757 27.5725L60.4059 27.5885L60.3125 27.0449L60.3757 27.5725Z" fill="#689762"/>
<path d="M61.5423 30.1917C61.4955 29.806 61.4617 29.4183 61.3893 29.0361L61.3594 29.0137C61.4318 29.3963 61.4685 29.7839 61.5142 30.1702L61.5423 30.1917Z" fill="#689762"/>
<path d="M63.6261 33.8715C63.7031 33.4682 63.5481 32.9127 63.5558 32.5801L63.5391 33.179L63.5914 33.2269C63.6286 33.3988 63.6229 33.6304 63.6261 33.8715Z" fill="#689762"/>
<path d="M47.3333 24.416H16.6667C15.6081 24.416 14.75 25.2741 14.75 26.3327V47.416C14.75 48.4746 15.6081 49.3327 16.6667 49.3327H47.3333C48.3919 49.3327 49.25 48.4746 49.25 47.416V26.3327C49.25 25.2741 48.3919 24.416 47.3333 24.416Z" stroke="#689762" stroke-linecap="round" stroke-linejoin="round"/>
<path d="M18.5781 24.416L20.6545 18.666H28.0017L30.0781 24.416H18.5781Z" stroke="#689762" stroke-linecap="round" stroke-linejoin="round"/>
<path d="M36.7865 43.5827C40.4914 43.5827 43.4948 40.5793 43.4948 36.8743C43.4948 33.1694 40.4914 30.166 36.7865 30.166C33.0815 30.166 30.0781 33.1694 30.0781 36.8743C30.0781 40.5793 33.0815 43.5827 36.7865 43.5827Z" stroke="#689762" stroke-linecap="round" stroke-linejoin="round"/>
<path d="M43.5 20.584V24.4173" stroke="#689762" stroke-linecap="round"/>
<line x1="58" y1="4.37103e-08" x2="58" y2="18" stroke="#689762" stroke-width="2"/>
<line x1="67" y1="9" x2="49" y2="9" stroke="#689762" stroke-width="2"/>
</svg>
