<svg>
  <symbol viewBox="0 0 219 132" id="fff64">
      <path d="M9.4873 30.7794V0.233398" stroke="#64816C" stroke-width="0.607487"></path>
      <path d="M9.48687 0.461182C8.93219 2.70829 7.00742 7.21899 3.74579 7.28499M9.48687 9.61401C8.84896 11.7219 6.47486 15.8044 2.08168 15.2719M9.48687 19.5985C7.93371 21.956 4.06192 26.4046 1 25.3396" stroke="#64816C" stroke-width="0.607487"></path>
      <path d="M9.48677 0.461182C10.0414 2.70829 11.9662 7.21899 15.2278 7.28499M9.48677 9.61401C10.1247 11.7219 12.4988 15.8044 16.892 15.2719M9.48677 19.5985C11.0399 21.956 14.9117 26.4046 17.9736 25.3396" stroke="#64816C" stroke-width="0.607487"></path>
      <path d="M29.499 30.7794V0.233398" stroke="#64816C" stroke-width="0.607487"></path>
      <path d="M29.4986 0.461182C28.9439 2.70829 27.0191 7.21899 23.7575 7.28499M29.4986 9.61401C28.8607 11.7219 26.4866 15.8044 22.0934 15.2719M29.4986 19.5985C27.9454 21.956 24.0736 26.4046 21.0117 25.3396" stroke="#64816C" stroke-width="0.607487"></path>
      <path d="M29.4985 0.461182C30.0532 2.70829 31.9779 7.21899 35.2396 7.28499M29.4985 9.61401C30.1364 11.7219 32.5105 15.8044 36.9037 15.2719M29.4985 19.5985C31.0516 21.956 34.9234 26.4046 37.9854 25.3396" stroke="#64816C" stroke-width="0.607487"></path>
      <path d="M49.5098 30.7794V0.233398" stroke="#64816C" stroke-width="0.607487"></path>
      <path d="M49.5093 0.461182C48.9546 2.70829 47.0299 7.21899 43.7683 7.28499M49.5093 9.61401C48.8714 11.7219 46.4973 15.8044 42.1041 15.2719M49.5093 19.5985C47.9562 21.956 44.0844 26.4046 41.0225 25.3396" stroke="#64816C" stroke-width="0.607487"></path>
      <path d="M49.5092 0.461182C50.0639 2.70829 51.9887 7.21899 55.2503 7.28499M49.5092 9.61401C50.1471 11.7219 52.5212 15.8044 56.9144 15.2719M49.5092 19.5985C51.0624 21.956 54.9342 26.4046 57.9961 25.3396" stroke="#64816C" stroke-width="0.607487"></path>
      <path d="M69.5215 30.7794V0.233398" stroke="#64816C" stroke-width="0.607487"></path>
      <path d="M69.521 0.461182C68.9664 2.70829 67.0416 7.21899 63.78 7.28499M69.521 9.61401C68.8831 11.7219 66.509 15.8044 62.1159 15.2719M69.521 19.5985C67.9679 21.956 64.0961 26.4046 61.0342 25.3396" stroke="#64816C" stroke-width="0.607487"></path>
      <path d="M69.5209 0.461182C70.0756 2.70829 72.0004 7.21899 75.262 7.28499M69.5209 9.61401C70.1588 11.7219 72.533 15.8044 76.9261 15.2719M69.5209 19.5985C71.0741 21.956 74.9459 26.4046 78.0078 25.3396" stroke="#64816C" stroke-width="0.607487"></path>
      <path d="M89.5332 30.7794V0.233398" stroke="#64816C" stroke-width="0.607487"></path>
      <path d="M89.5328 0.461182C88.9781 2.70829 87.0533 7.21899 83.7917 7.28499M89.5328 9.61401C88.8949 11.7219 86.5208 15.8044 82.1276 15.2719M89.5328 19.5985C87.9796 21.956 84.1078 26.4046 81.0459 25.3396" stroke="#64816C" stroke-width="0.607487"></path>
      <path d="M89.5327 0.461182C90.0873 2.70829 92.0121 7.21899 95.2737 7.28499M89.5327 9.61401C90.1706 11.7219 92.5447 15.8044 96.9379 15.2719M89.5327 19.5985C91.0858 21.956 94.9576 26.4046 98.0195 25.3396" stroke="#64816C" stroke-width="0.607487"></path>
      <path d="M109.545 30.7794V0.233398" stroke="#64816C" stroke-width="0.607487"></path>
      <path d="M109.544 0.461182C108.99 2.70829 107.065 7.21899 103.803 7.28499M109.544 9.61401C108.907 11.7219 106.532 15.8044 102.139 15.2719M109.544 19.5985C107.991 21.956 104.12 26.4046 101.058 25.3396" stroke="#64816C" stroke-width="0.607487"></path>
      <path d="M109.544 0.461182C110.099 2.70829 112.024 7.21899 115.285 7.28499M109.544 9.61401C110.182 11.7219 112.556 15.8044 116.95 15.2719M109.544 19.5985C111.098 21.956 114.969 26.4046 118.031 25.3396" stroke="#64816C" stroke-width="0.607487"></path>
      <path d="M129.556 30.7794V0.233398" stroke="#64816C" stroke-width="0.607487"></path>
      <path d="M129.555 0.461182C129.001 2.70829 127.076 7.21899 123.814 7.28499M129.555 9.61401C128.917 11.7219 126.543 15.8044 122.15 15.2719M129.555 19.5985C128.002 21.956 124.13 26.4046 121.068 25.3396" stroke="#64816C" stroke-width="0.607487"></path>
      <path d="M129.555 0.461182C130.11 2.70829 132.035 7.21899 135.296 7.28499M129.555 9.61401C130.193 11.7219 132.567 15.8044 136.96 15.2719M129.555 19.5985C131.108 21.956 134.98 26.4046 138.042 25.3396" stroke="#64816C" stroke-width="0.607487"></path>
      <path d="M149.567 30.7794V0.233398" stroke="#64816C" stroke-width="0.607487"></path>
      <path d="M149.567 0.461182C149.012 2.70829 147.087 7.21899 143.826 7.28499M149.567 9.61401C148.929 11.7219 146.555 15.8044 142.162 15.2719M149.567 19.5985C148.014 21.956 144.142 26.4046 141.08 25.3396" stroke="#64816C" stroke-width="0.607487"></path>
      <path d="M149.567 0.461182C150.122 2.70829 152.046 7.21899 155.308 7.28499M149.567 9.61401C150.205 11.7219 152.579 15.8044 156.972 15.2719M149.567 19.5985C151.12 21.956 154.992 26.4046 158.054 25.3396" stroke="#64816C" stroke-width="0.607487"></path>
      <path d="M169.579 30.7794V0.233398" stroke="#64816C" stroke-width="0.607487"></path>
      <path d="M169.579 0.461182C169.024 2.70829 167.099 7.21899 163.838 7.28499M169.579 9.61401C168.941 11.7219 166.567 15.8044 162.173 15.2719M169.579 19.5985C168.026 21.956 164.154 26.4046 161.092 25.3396" stroke="#64816C" stroke-width="0.607487"></path>
      <path d="M169.579 0.461182C170.133 2.70829 172.058 7.21899 175.32 7.28499M169.579 9.61401C170.216 11.7219 172.591 15.8044 176.984 15.2719M169.579 19.5985C171.132 21.956 175.004 26.4046 178.065 25.3396" stroke="#64816C" stroke-width="0.607487"></path>
      <path d="M189.59 30.7794V0.233398" stroke="#64816C" stroke-width="0.607487"></path>
      <path d="M189.589 0.461182C189.035 2.70829 187.11 7.21899 183.848 7.28499M189.589 9.61401C188.952 11.7219 186.577 15.8044 182.184 15.2719M189.589 19.5985C188.036 21.956 184.164 26.4046 181.103 25.3396" stroke="#64816C" stroke-width="0.607487"></path>
      <path d="M189.589 0.461182C190.144 2.70829 192.069 7.21899 195.33 7.28499M189.589 9.61401C190.227 11.7219 192.601 15.8044 196.994 15.2719M189.589 19.5985C191.142 21.956 195.014 26.4046 198.076 25.3396" stroke="#64816C" stroke-width="0.607487"></path>
      <path d="M209.602 30.7794V0.233398" stroke="#64816C" stroke-width="0.607487"></path>
      <path d="M209.601 0.461182C209.046 2.70829 207.122 7.21899 203.86 7.28499M209.601 9.61401C208.963 11.7219 206.589 15.8044 202.196 15.2719M209.601 19.5985C208.048 21.956 204.176 26.4046 201.114 25.3396" stroke="#64816C" stroke-width="0.607487"></path>
      <path d="M209.601 0.461182C210.156 2.70829 212.08 7.21899 215.342 7.28499M209.601 9.61401C210.239 11.7219 212.613 15.8044 217.006 15.2719M209.601 19.5985C211.154 21.956 215.026 26.4046 218.088 25.3396" stroke="#64816C" stroke-width="0.607487"></path>
      <path d="M9.4873 64.2093V33.6633" stroke="#A19F9E" stroke-width="0.607487"></path>
      <path d="M9.48687 33.8911C8.93219 36.1382 7.00742 40.6489 3.74579 40.7149M9.48687 43.0439C8.84896 45.1518 6.47486 49.2343 2.08168 48.7018M9.48687 53.0285C7.93371 55.3859 4.06192 59.8346 1 58.7696" stroke="#A19F9E" stroke-width="0.607487"></path>
      <path d="M9.48677 33.8911C10.0414 36.1382 11.9662 40.6489 15.2278 40.7149M9.48677 43.0439C10.1247 45.1518 12.4988 49.2343 16.892 48.7018M9.48677 53.0285C11.0399 55.3859 14.9117 59.8346 17.9736 58.7696" stroke="#A19F9E" stroke-width="0.607487"></path>
      <path d="M29.499 64.2093V33.6633" stroke="#A19F9E" stroke-width="0.607487"></path>
      <path d="M29.4986 33.8911C28.9439 36.1382 27.0191 40.6489 23.7575 40.7149M29.4986 43.0439C28.8607 45.1518 26.4866 49.2343 22.0934 48.7018M29.4986 53.0285C27.9454 55.3859 24.0736 59.8346 21.0117 58.7696" stroke="#A19F9E" stroke-width="0.607487"></path>
      <path d="M29.4985 33.8911C30.0532 36.1382 31.9779 40.6489 35.2396 40.7149M29.4985 43.0439C30.1364 45.1518 32.5105 49.2343 36.9037 48.7018M29.4985 53.0285C31.0516 55.3859 34.9234 59.8346 37.9854 58.7696" stroke="#A19F9E" stroke-width="0.607487"></path>
      <path d="M49.5098 64.2093V33.6633" stroke="#A19F9E" stroke-width="0.607487"></path>
      <path d="M49.5093 33.8911C48.9546 36.1382 47.0299 40.6489 43.7683 40.7149M49.5093 43.0439C48.8714 45.1518 46.4973 49.2343 42.1041 48.7018M49.5093 53.0285C47.9562 55.3859 44.0844 59.8346 41.0225 58.7696" stroke="#A19F9E" stroke-width="0.607487"></path>
      <path d="M49.5092 33.8911C50.0639 36.1382 51.9887 40.6489 55.2503 40.7149M49.5092 43.0439C50.1471 45.1518 52.5212 49.2343 56.9144 48.7018M49.5092 53.0285C51.0624 55.3859 54.9342 59.8346 57.9961 58.7696" stroke="#A19F9E" stroke-width="0.607487"></path>
      <path d="M69.5215 64.2093V33.6633" stroke="#A19F9E" stroke-width="0.607487"></path>
      <path d="M69.521 33.8911C68.9664 36.1382 67.0416 40.6489 63.78 40.7149M69.521 43.0439C68.8831 45.1518 66.509 49.2343 62.1159 48.7018M69.521 53.0285C67.9679 55.3859 64.0961 59.8346 61.0342 58.7696" stroke="#A19F9E" stroke-width="0.607487"></path>
      <path d="M69.5209 33.8911C70.0756 36.1382 72.0004 40.6489 75.262 40.7149M69.5209 43.0439C70.1588 45.1518 72.533 49.2343 76.9261 48.7018M69.5209 53.0285C71.0741 55.3859 74.9459 59.8346 78.0078 58.7696" stroke="#A19F9E" stroke-width="0.607487"></path>
      <path d="M89.5322 64.2093V33.6633" stroke="#A19F9E" stroke-width="0.607487"></path>
      <path d="M89.5318 33.8911C88.9771 36.1382 87.0523 40.6489 83.7907 40.7149M89.5318 43.0439C88.8939 45.1518 86.5198 49.2343 82.1266 48.7018M89.5318 53.0285C87.9786 55.3859 84.1068 59.8346 81.0449 58.7696" stroke="#A19F9E" stroke-width="0.607487"></path>
      <path d="M89.5317 33.8911C90.0864 36.1382 92.0111 40.6489 95.2728 40.7149M89.5317 43.0439C90.1696 45.1518 92.5437 49.2343 96.9369 48.7018M89.5317 53.0285C91.0848 55.3859 94.9566 59.8346 98.0186 58.7696" stroke="#A19F9E" stroke-width="0.607487"></path>
      <path d="M109.544 64.2093V33.6633" stroke="#A19F9E" stroke-width="0.607487"></path>
      <path d="M109.544 33.8911C108.989 36.1382 107.064 40.6489 103.802 40.7149M109.544 43.0439C108.906 45.1518 106.532 49.2343 102.138 48.7018M109.544 53.0285C107.99 55.3859 104.119 59.8346 101.057 58.7696" stroke="#A19F9E" stroke-width="0.607487"></path>
      <path d="M109.543 33.8911C110.098 36.1382 112.023 40.6489 115.284 40.7149M109.543 43.0439C110.181 45.1518 112.555 49.2343 116.949 48.7018M109.543 53.0285C111.097 55.3859 114.968 59.8346 118.03 58.7696" stroke="#A19F9E" stroke-width="0.607487"></path>
      <path d="M129.555 64.2093V33.6633" stroke="#A19F9E" stroke-width="0.607487"></path>
      <path d="M129.555 33.8911C129.001 36.1382 127.076 40.6489 123.814 40.7149M129.555 43.0439C128.917 45.1518 126.543 49.2343 122.15 48.7018M129.555 53.0285C128.002 55.3859 124.13 59.8346 121.068 58.7696" stroke="#A19F9E" stroke-width="0.607487"></path>
      <path d="M129.555 33.8911C130.11 36.1382 132.035 40.6489 135.296 40.7149M129.555 43.0439C130.193 45.1518 132.567 49.2343 136.96 48.7018M129.555 53.0285C131.108 55.3859 134.98 59.8346 138.042 58.7696" stroke="#A19F9E" stroke-width="0.607487"></path>
      <path d="M149.566 64.2093V33.6633" stroke="#A19F9E" stroke-width="0.607487"></path>
      <path d="M149.566 33.8911C149.011 36.1382 147.087 40.6489 143.825 40.7149M149.566 43.0439C148.928 45.1518 146.554 49.2343 142.161 48.7018M149.566 53.0285C148.013 55.3859 144.141 59.8346 141.079 58.7696" stroke="#A19F9E" stroke-width="0.607487"></path>
      <path d="M149.566 33.8911C150.121 36.1382 152.045 40.6489 155.307 40.7149M149.566 43.0439C150.204 45.1518 152.578 49.2343 156.971 48.7018M149.566 53.0285C151.119 55.3859 154.991 59.8346 158.053 58.7696" stroke="#A19F9E" stroke-width="0.607487"></path>
      <path d="M169.578 64.2093V33.6633" stroke="#A19F9E" stroke-width="0.607487"></path>
      <path d="M169.578 33.8911C169.023 36.1382 167.098 40.6489 163.837 40.7149M169.578 43.0439C168.94 45.1518 166.566 49.2343 162.172 48.7018M169.578 53.0285C168.025 55.3859 164.153 59.8346 161.091 58.7696" stroke="#A19F9E" stroke-width="0.607487"></path>
      <path d="M169.578 33.8911C170.132 36.1382 172.057 40.6489 175.319 40.7149M169.578 43.0439C170.215 45.1518 172.59 49.2343 176.983 48.7018M169.578 53.0285C171.131 55.3859 175.003 59.8346 178.064 58.7696" stroke="#A19F9E" stroke-width="0.607487"></path>
      <path d="M189.589 64.2093V33.6633" stroke="#A19F9E" stroke-width="0.607487"></path>
      <path d="M189.588 33.8911C189.034 36.1382 187.109 40.6489 183.847 40.7149M189.588 43.0439C188.951 45.1518 186.576 49.2343 182.183 48.7018M189.588 53.0285C188.035 55.3859 184.163 59.8346 181.102 58.7696" stroke="#A19F9E" stroke-width="0.607487"></path>
      <path d="M189.588 33.8911C190.143 36.1382 192.068 40.6489 195.329 40.7149M189.588 43.0439C190.226 45.1518 192.6 49.2343 196.994 48.7018M189.588 53.0285C191.141 55.3859 195.013 59.8346 198.075 58.7696" stroke="#A19F9E" stroke-width="0.607487"></path>
      <path d="M209.601 64.2093V33.6633" stroke="#A19F9E" stroke-width="0.607487"></path>
      <path d="M209.6 33.8911C209.045 36.1382 207.121 40.6489 203.859 40.7149M209.6 43.0439C208.962 45.1518 206.588 49.2343 202.195 48.7018M209.6 53.0285C208.047 55.3859 204.175 59.8346 201.113 58.7696" stroke="#A19F9E" stroke-width="0.607487"></path>
      <path d="M209.6 33.8911C210.155 36.1382 212.079 40.6489 215.341 40.7149M209.6 43.0439C210.238 45.1518 212.612 49.2343 217.005 48.7018M209.6 53.0285C211.153 55.3859 215.025 59.8346 218.087 58.7696" stroke="#A19F9E" stroke-width="0.607487"></path>
      <path d="M9.4873 97.6392V67.0933" stroke="#A19F9E" stroke-width="0.607487"></path>
      <path d="M9.48687 67.321C8.93219 69.5681 7.00742 74.0789 3.74579 74.1449M9.48687 76.4739C8.84896 78.5817 6.47486 82.6643 2.08168 82.1318M9.48687 86.4584C7.93371 88.8158 4.06192 93.2645 1 92.1995" stroke="#A19F9E" stroke-width="0.607487"></path>
      <path d="M9.48677 67.321C10.0414 69.5681 11.9662 74.0789 15.2278 74.1449M9.48677 76.4739C10.1247 78.5817 12.4988 82.6643 16.892 82.1318M9.48677 86.4584C11.0399 88.8158 14.9117 93.2645 17.9736 92.1995" stroke="#A19F9E" stroke-width="0.607487"></path>
      <path d="M29.499 97.6392V67.0933" stroke="#A19F9E" stroke-width="0.607487"></path>
      <path d="M29.4986 67.321C28.9439 69.5681 27.0191 74.0789 23.7575 74.1449M29.4986 76.4739C28.8607 78.5817 26.4866 82.6643 22.0934 82.1318M29.4986 86.4584C27.9454 88.8158 24.0736 93.2645 21.0117 92.1995" stroke="#A19F9E" stroke-width="0.607487"></path>
      <path d="M29.4985 67.321C30.0532 69.5681 31.9779 74.0789 35.2396 74.1449M29.4985 76.4739C30.1364 78.5817 32.5105 82.6643 36.9037 82.1318M29.4985 86.4584C31.0516 88.8158 34.9234 93.2645 37.9854 92.1995" stroke="#A19F9E" stroke-width="0.607487"></path>
      <path d="M49.5098 97.6392V67.0933" stroke="#A19F9E" stroke-width="0.607487"></path>
      <path d="M49.5093 67.321C48.9546 69.5681 47.0299 74.0789 43.7683 74.1449M49.5093 76.4739C48.8714 78.5817 46.4973 82.6643 42.1041 82.1318M49.5093 86.4584C47.9562 88.8158 44.0844 93.2645 41.0225 92.1995" stroke="#A19F9E" stroke-width="0.607487"></path>
      <path d="M49.5092 67.321C50.0639 69.5681 51.9887 74.0789 55.2503 74.1449M49.5092 76.4739C50.1471 78.5817 52.5212 82.6643 56.9144 82.1318M49.5092 86.4584C51.0624 88.8158 54.9342 93.2645 57.9961 92.1995" stroke="#A19F9E" stroke-width="0.607487"></path>
      <path d="M69.5215 97.6392V67.0933" stroke="#A19F9E" stroke-width="0.607487"></path>
      <path d="M69.521 67.321C68.9664 69.5681 67.0416 74.0789 63.78 74.1449M69.521 76.4739C68.8831 78.5817 66.509 82.6643 62.1159 82.1318M69.521 86.4584C67.9679 88.8158 64.0961 93.2645 61.0342 92.1995" stroke="#A19F9E" stroke-width="0.607487"></path>
      <path d="M69.5209 67.321C70.0756 69.5681 72.0004 74.0789 75.262 74.1449M69.5209 76.4739C70.1588 78.5817 72.533 82.6643 76.9261 82.1318M69.5209 86.4584C71.0741 88.8158 74.9459 93.2645 78.0078 92.1995" stroke="#A19F9E" stroke-width="0.607487"></path>
      <path d="M89.5322 97.6392V67.0933" stroke="#A19F9E" stroke-width="0.607487"></path>
      <path d="M89.5318 67.321C88.9771 69.5681 87.0523 74.0789 83.7907 74.1449M89.5318 76.4739C88.8939 78.5817 86.5198 82.6643 82.1266 82.1318M89.5318 86.4584C87.9786 88.8158 84.1068 93.2645 81.0449 92.1995" stroke="#A19F9E" stroke-width="0.607487"></path>
      <path d="M89.5317 67.321C90.0864 69.5681 92.0111 74.0789 95.2728 74.1449M89.5317 76.4739C90.1696 78.5817 92.5437 82.6643 96.9369 82.1318M89.5317 86.4584C91.0848 88.8158 94.9566 93.2645 98.0186 92.1995" stroke="#A19F9E" stroke-width="0.607487"></path>
      <path d="M109.544 97.6392V67.0933" stroke="#A19F9E" stroke-width="0.607487"></path>
      <path d="M109.544 67.321C108.989 69.5681 107.064 74.0789 103.802 74.1449M109.544 76.4739C108.906 78.5817 106.532 82.6643 102.138 82.1318M109.544 86.4584C107.99 88.8158 104.119 93.2645 101.057 92.1995" stroke="#A19F9E" stroke-width="0.607487"></path>
      <path d="M109.543 67.321C110.098 69.5681 112.023 74.0789 115.284 74.1449M109.543 76.4739C110.181 78.5817 112.555 82.6643 116.949 82.1318M109.543 86.4584C111.097 88.8158 114.968 93.2645 118.03 92.1995" stroke="#A19F9E" stroke-width="0.607487"></path>
      <path d="M129.555 97.6392V67.0933" stroke="#A19F9E" stroke-width="0.607487"></path>
      <path d="M129.555 67.321C129.001 69.5681 127.076 74.0789 123.814 74.1449M129.555 76.4739C128.917 78.5817 126.543 82.6643 122.15 82.1318M129.555 86.4584C128.002 88.8158 124.13 93.2645 121.068 92.1995" stroke="#A19F9E" stroke-width="0.607487"></path>
      <path d="M129.555 67.321C130.11 69.5681 132.035 74.0789 135.296 74.1449M129.555 76.4739C130.193 78.5817 132.567 82.6643 136.96 82.1318M129.555 86.4584C131.108 88.8158 134.98 93.2645 138.042 92.1995" stroke="#A19F9E" stroke-width="0.607487"></path>
      <path d="M149.566 97.6392V67.0933" stroke="#A19F9E" stroke-width="0.607487"></path>
      <path d="M149.566 67.321C149.011 69.5681 147.087 74.0789 143.825 74.1449M149.566 76.4739C148.928 78.5817 146.554 82.6643 142.161 82.1318M149.566 86.4584C148.013 88.8158 144.141 93.2645 141.079 92.1995" stroke="#A19F9E" stroke-width="0.607487"></path>
      <path d="M149.566 67.321C150.121 69.5681 152.045 74.0789 155.307 74.1449M149.566 76.4739C150.204 78.5817 152.578 82.6643 156.971 82.1318M149.566 86.4584C151.119 88.8158 154.991 93.2645 158.053 92.1995" stroke="#A19F9E" stroke-width="0.607487"></path>
      <path d="M169.578 97.6392V67.0933" stroke="#A19F9E" stroke-width="0.607487"></path>
      <path d="M169.578 67.321C169.023 69.5681 167.098 74.0789 163.837 74.1449M169.578 76.4739C168.94 78.5817 166.566 82.6643 162.172 82.1318M169.578 86.4584C168.025 88.8158 164.153 93.2645 161.091 92.1995" stroke="#A19F9E" stroke-width="0.607487"></path>
      <path d="M169.578 67.321C170.132 69.5681 172.057 74.0789 175.319 74.1449M169.578 76.4739C170.215 78.5817 172.59 82.6643 176.983 82.1318M169.578 86.4584C171.131 88.8158 175.003 93.2645 178.064 92.1995" stroke="#A19F9E" stroke-width="0.607487"></path>
      <path d="M189.589 97.6392V67.0933" stroke="#A19F9E" stroke-width="0.607487"></path>
      <path d="M189.588 67.321C189.034 69.5681 187.109 74.0789 183.847 74.1449M189.588 76.4739C188.951 78.5817 186.576 82.6643 182.183 82.1318M189.588 86.4584C188.035 88.8158 184.163 93.2645 181.102 92.1995" stroke="#A19F9E" stroke-width="0.607487"></path>
      <path d="M189.588 67.321C190.143 69.5681 192.068 74.0789 195.329 74.1449M189.588 76.4739C190.226 78.5817 192.6 82.6643 196.994 82.1318M189.588 86.4584C191.141 88.8158 195.013 93.2645 198.075 92.1995" stroke="#A19F9E" stroke-width="0.607487"></path>
      <path d="M209.601 97.6392V67.0933" stroke="#A19F9E" stroke-width="0.607487"></path>
      <path d="M209.6 67.321C209.045 69.5681 207.121 74.0789 203.859 74.1449M209.6 76.4739C208.962 78.5817 206.588 82.6643 202.195 82.1318M209.6 86.4584C208.047 88.8158 204.175 93.2645 201.113 92.1995" stroke="#A19F9E" stroke-width="0.607487"></path>
      <path d="M209.6 67.321C210.155 69.5681 212.079 74.0789 215.341 74.1449M209.6 76.4739C210.238 78.5817 212.612 82.6643 217.005 82.1318M209.6 86.4584C211.153 88.8158 215.025 93.2645 218.087 92.1995" stroke="#A19F9E" stroke-width="0.607487"></path>
      <path d="M9.4873 131.069V100.523" stroke="#A19F9E" stroke-width="0.607487"></path>
      <path d="M9.48687 100.751C8.93219 102.998 7.00742 107.509 3.74579 107.575M9.48687 109.904C8.84896 112.012 6.47486 116.094 2.08168 115.562M9.48687 119.888C7.93371 122.246 4.06192 126.694 1 125.629" stroke="#A19F9E" stroke-width="0.607487"></path>
      <path d="M9.48677 100.751C10.0414 102.998 11.9662 107.509 15.2278 107.575M9.48677 109.904C10.1247 112.012 12.4988 116.094 16.892 115.562M9.48677 119.888C11.0399 122.246 14.9117 126.694 17.9736 125.629" stroke="#A19F9E" stroke-width="0.607487"></path>
      <path d="M29.499 131.069V100.523" stroke="#A19F9E" stroke-width="0.607487"></path>
      <path d="M29.4986 100.751C28.9439 102.998 27.0191 107.509 23.7575 107.575M29.4986 109.904C28.8607 112.012 26.4866 116.094 22.0934 115.562M29.4986 119.888C27.9454 122.246 24.0736 126.694 21.0117 125.629" stroke="#A19F9E" stroke-width="0.607487"></path>
      <path d="M29.4985 100.751C30.0532 102.998 31.9779 107.509 35.2396 107.575M29.4985 109.904C30.1364 112.012 32.5105 116.094 36.9037 115.562M29.4985 119.888C31.0516 122.246 34.9234 126.694 37.9854 125.629" stroke="#A19F9E" stroke-width="0.607487"></path>
      <path d="M49.5098 131.069V100.523" stroke="#A19F9E" stroke-width="0.607487"></path>
      <path d="M49.5093 100.751C48.9546 102.998 47.0299 107.509 43.7683 107.575M49.5093 109.904C48.8714 112.012 46.4973 116.094 42.1041 115.562M49.5093 119.888C47.9562 122.246 44.0844 126.694 41.0225 125.629" stroke="#A19F9E" stroke-width="0.607487"></path>
      <path d="M49.5092 100.751C50.0639 102.998 51.9887 107.509 55.2503 107.575M49.5092 109.904C50.1471 112.012 52.5212 116.094 56.9144 115.562M49.5092 119.888C51.0624 122.246 54.9342 126.694 57.9961 125.629" stroke="#A19F9E" stroke-width="0.607487"></path>
      <path d="M69.5215 131.069V100.523" stroke="#A19F9E" stroke-width="0.607487"></path>
      <path d="M69.521 100.751C68.9664 102.998 67.0416 107.509 63.78 107.575M69.521 109.904C68.8831 112.012 66.509 116.094 62.1159 115.562M69.521 119.888C67.9679 122.246 64.0961 126.694 61.0342 125.629" stroke="#A19F9E" stroke-width="0.607487"></path>
      <path d="M69.5209 100.751C70.0756 102.998 72.0004 107.509 75.262 107.575M69.5209 109.904C70.1588 112.012 72.533 116.094 76.9261 115.562M69.5209 119.888C71.0741 122.246 74.9459 126.694 78.0078 125.629" stroke="#A19F9E" stroke-width="0.607487"></path>
      <path d="M89.5322 131.069V100.523" stroke="#A19F9E" stroke-width="0.607487"></path>
      <path d="M89.5318 100.751C88.9771 102.998 87.0523 107.509 83.7907 107.575M89.5318 109.904C88.8939 112.012 86.5198 116.094 82.1266 115.562M89.5318 119.888C87.9786 122.246 84.1068 126.694 81.0449 125.629" stroke="#A19F9E" stroke-width="0.607487"></path>
      <path d="M89.5317 100.751C90.0864 102.998 92.0111 107.509 95.2728 107.575M89.5317 109.904C90.1696 112.012 92.5437 116.094 96.9369 115.562M89.5317 119.888C91.0848 122.246 94.9566 126.694 98.0186 125.629" stroke="#A19F9E" stroke-width="0.607487"></path>
      <path d="M109.544 131.069V100.523" stroke="#A19F9E" stroke-width="0.607487"></path>
      <path d="M109.544 100.751C108.989 102.998 107.064 107.509 103.802 107.575M109.544 109.904C108.906 112.012 106.532 116.094 102.138 115.562M109.544 119.888C107.99 122.246 104.119 126.694 101.057 125.629" stroke="#A19F9E" stroke-width="0.607487"></path>
      <path d="M109.543 100.751C110.098 102.998 112.023 107.509 115.284 107.575M109.543 109.904C110.181 112.012 112.555 116.094 116.949 115.562M109.543 119.888C111.097 122.246 114.968 126.694 118.03 125.629" stroke="#A19F9E" stroke-width="0.607487"></path>
      <path d="M129.555 131.069V100.523" stroke="#A19F9E" stroke-width="0.607487"></path>
      <path d="M129.555 100.751C129.001 102.998 127.076 107.509 123.814 107.575M129.555 109.904C128.917 112.012 126.543 116.094 122.15 115.562M129.555 119.888C128.002 122.246 124.13 126.694 121.068 125.629" stroke="#A19F9E" stroke-width="0.607487"></path>
      <path d="M129.555 100.751C130.11 102.998 132.035 107.509 135.296 107.575M129.555 109.904C130.193 112.012 132.567 116.094 136.96 115.562M129.555 119.888C131.108 122.246 134.98 126.694 138.042 125.629" stroke="#A19F9E" stroke-width="0.607487"></path>
      <path d="M149.566 131.069V100.523" stroke="#A19F9E" stroke-width="0.607487"></path>
      <path d="M149.566 100.751C149.011 102.998 147.087 107.509 143.825 107.575M149.566 109.904C148.928 112.012 146.554 116.094 142.161 115.562M149.566 119.888C148.013 122.246 144.141 126.694 141.079 125.629" stroke="#A19F9E" stroke-width="0.607487"></path>
      <path d="M149.566 100.751C150.121 102.998 152.045 107.509 155.307 107.575M149.566 109.904C150.204 112.012 152.578 116.094 156.971 115.562M149.566 119.888C151.119 122.246 154.991 126.694 158.053 125.629" stroke="#A19F9E" stroke-width="0.607487"></path>
      <path d="M169.578 131.069V100.523" stroke="#A19F9E" stroke-width="0.607487"></path>
      <path d="M169.578 100.751C169.023 102.998 167.098 107.509 163.837 107.575M169.578 109.904C168.94 112.012 166.566 116.094 162.172 115.562M169.578 119.888C168.025 122.246 164.153 126.694 161.091 125.629" stroke="#A19F9E" stroke-width="0.607487"></path>
      <path d="M169.578 100.751C170.132 102.998 172.057 107.509 175.319 107.575M169.578 109.904C170.215 112.012 172.59 116.094 176.983 115.562M169.578 119.888C171.131 122.246 175.003 126.694 178.064 125.629" stroke="#A19F9E" stroke-width="0.607487"></path>
      <path d="M189.589 131.069V100.523" stroke="#A19F9E" stroke-width="0.607487"></path>
      <path d="M189.588 100.751C189.034 102.998 187.109 107.509 183.847 107.575M189.588 109.904C188.951 112.012 186.576 116.094 182.183 115.562M189.588 119.888C188.035 122.246 184.163 126.694 181.102 125.629" stroke="#A19F9E" stroke-width="0.607487"></path>
      <path d="M189.588 100.751C190.143 102.998 192.068 107.509 195.329 107.575M189.588 109.904C190.226 112.012 192.6 116.094 196.994 115.562M189.588 119.888C191.141 122.246 195.013 126.694 198.075 125.629" stroke="#A19F9E" stroke-width="0.607487"></path>
      <path d="M209.601 131.069V100.523" stroke="#A19F9E" stroke-width="0.607487"></path>
      <path d="M209.6 100.751C209.045 102.998 207.121 107.509 203.859 107.575M209.6 109.904C208.962 112.012 206.588 116.094 202.195 115.562M209.6 119.888C208.047 122.246 204.175 126.694 201.113 125.629" stroke="#A19F9E" stroke-width="0.607487"></path>
      <path d="M209.6 100.751C210.155 102.998 212.079 107.509 215.341 107.575M209.6 109.904C210.238 112.012 212.612 116.094 217.005 115.562M209.6 119.888C211.153 122.246 215.025 126.694 218.087 125.629" stroke="#A19F9E" stroke-width="0.607487"></path>
  </symbol>
</svg>