<svg width="203" height="59" viewBox="0 0 203 59" fill="none" xmlns="http://www.w3.org/2000/svg">
<path d="M11.7405 27.8593V0" stroke="#99B7A2" stroke-opacity="0.5" stroke-width="0.554056"/>
<path d="M11.7404 0.207031C11.2345 2.25649 9.47904 6.37047 6.50429 6.43066M11.7404 8.55483C11.1586 10.4773 8.99333 14.2008 4.98654 13.7151M11.7404 17.6612C10.3239 19.8113 6.79261 23.8687 4 22.8973" stroke="#99B7A2" stroke-opacity="0.5" stroke-width="0.554056"/>
<path d="M11.7407 0.207031C12.2466 2.25649 14.002 6.37047 16.9768 6.43066M11.7407 8.55483C12.3225 10.4773 14.4878 14.2008 18.4945 13.7151M11.7407 17.6612C13.1572 19.8113 16.6885 23.8687 19.4811 22.8973" stroke="#99B7A2" stroke-opacity="0.5" stroke-width="0.554056"/>
<path d="M29.9918 27.8593V0" stroke="#99B7A2" stroke-opacity="0.5" stroke-width="0.554056"/>
<path d="M29.9918 0.207031C29.4859 2.25649 27.7304 6.37047 24.7556 6.43066M29.9918 8.55483C29.41 10.4773 27.2447 14.2008 23.2379 13.7151M29.9918 17.6612C28.5752 19.8113 25.044 23.8687 22.2513 22.8973" stroke="#99B7A2" stroke-opacity="0.5" stroke-width="0.554056"/>
<path d="M29.992 0.207031C30.4979 2.25649 32.2534 6.37047 35.2281 6.43066M29.992 8.55483C30.5738 10.4773 32.7391 14.2008 36.7459 13.7151M29.992 17.6612C31.4086 19.8113 34.9398 23.8687 37.7324 22.8973" stroke="#99B7A2" stroke-opacity="0.5" stroke-width="0.554056"/>
<path d="M48.2432 27.8593V0" stroke="#99B7A2" stroke-opacity="0.5" stroke-width="0.554056"/>
<path d="M48.2431 0.207031C47.7372 2.25649 45.9817 6.37047 43.007 6.43066M48.2431 8.55483C47.6613 10.4773 45.496 14.2008 41.4892 13.7151M48.2431 17.6612C46.8265 19.8113 43.2953 23.8687 40.5027 22.8973" stroke="#99B7A2" stroke-opacity="0.5" stroke-width="0.554056"/>
<path d="M48.2434 0.207031C48.7492 2.25649 50.5047 6.37047 53.4795 6.43066M48.2434 8.55483C48.8251 10.4773 50.9904 14.2008 54.9972 13.7151M48.2434 17.6612C49.6599 19.8113 53.1912 23.8687 55.9838 22.8973" stroke="#99B7A2" stroke-opacity="0.5" stroke-width="0.554056"/>
<path d="M66.4945 27.8593V0" stroke="#99B7A2" stroke-opacity="0.5" stroke-width="0.554056"/>
<path d="M66.4944 0.207031C65.9885 2.25649 64.2331 6.37047 61.2583 6.43066M66.4944 8.55483C65.9126 10.4773 63.7474 14.2008 59.7406 13.7151M66.4944 17.6612C65.0779 19.8113 61.5466 23.8687 58.754 22.8973" stroke="#99B7A2" stroke-opacity="0.5" stroke-width="0.554056"/>
<path d="M66.4947 0.207031C67.0006 2.25649 68.7561 6.37047 71.7308 6.43066M66.4947 8.55483C67.0765 10.4773 69.2418 14.2008 73.2486 13.7151M66.4947 17.6612C67.9112 19.8113 71.4425 23.8687 74.2351 22.8973" stroke="#99B7A2" stroke-opacity="0.5" stroke-width="0.554056"/>
<path d="M84.7458 27.8593V0" stroke="#99B7A2" stroke-opacity="0.5" stroke-width="0.554056"/>
<path d="M84.7458 0.207031C84.2399 2.25649 82.4844 6.37047 79.5097 6.43066M84.7458 8.55483C84.164 10.4773 81.9987 14.2008 77.9919 13.7151M84.7458 17.6612C83.3292 19.8113 79.798 23.8687 77.0054 22.8973" stroke="#99B7A2" stroke-opacity="0.5" stroke-width="0.554056"/>
<path d="M84.746 0.207031C85.2519 2.25649 87.0074 6.37047 89.9822 6.43066M84.746 8.55483C85.3278 10.4773 87.4931 14.2008 91.4999 13.7151M84.746 17.6612C86.1626 19.8113 89.6938 23.8687 92.4865 22.8973" stroke="#99B7A2" stroke-opacity="0.5" stroke-width="0.554056"/>
<path d="M102.997 27.8593V0" stroke="#99B7A2" stroke-opacity="0.5" stroke-width="0.554056"/>
<path d="M102.997 0.207031C102.491 2.25649 100.736 6.37047 97.7611 6.43066M102.997 8.55483C102.415 10.4773 100.25 14.2008 96.2434 13.7151M102.997 17.6612C101.581 19.8113 98.0494 23.8687 95.2568 22.8973" stroke="#99B7A2" stroke-opacity="0.5" stroke-width="0.554056"/>
<path d="M102.998 0.207031C103.503 2.25649 105.259 6.37047 108.234 6.43066M102.998 8.55483C103.579 10.4773 105.745 14.2008 109.751 13.7151M102.998 17.6612C104.414 19.8113 107.945 23.8687 110.738 22.8973" stroke="#99B7A2" stroke-opacity="0.5" stroke-width="0.554056"/>
<path d="M121.249 27.8593V0" stroke="#99B7A2" stroke-opacity="0.5" stroke-width="0.554056"/>
<path d="M121.249 0.207031C120.743 2.25649 118.987 6.37047 116.012 6.43066M121.249 8.55483C120.667 10.4773 118.502 14.2008 114.495 13.7151M121.249 17.6612C119.832 19.8113 116.301 23.8687 113.508 22.8973" stroke="#99B7A2" stroke-opacity="0.5" stroke-width="0.554056"/>
<path d="M121.249 0.207031C121.755 2.25649 123.51 6.37047 126.485 6.43066M121.249 8.55483C121.831 10.4773 123.996 14.2008 128.003 13.7151M121.249 17.6612C122.665 19.8113 126.197 23.8687 128.989 22.8973" stroke="#99B7A2" stroke-opacity="0.5" stroke-width="0.554056"/>
<path d="M139.5 27.8593V0" stroke="#99B7A2" stroke-opacity="0.5" stroke-width="0.554056"/>
<path d="M139.5 0.207031C138.994 2.25649 137.239 6.37047 134.264 6.43066M139.5 8.55483C138.918 10.4773 136.753 14.2008 132.746 13.7151M139.5 17.6612C138.083 19.8113 134.552 23.8687 131.76 22.8973" stroke="#99B7A2" stroke-opacity="0.5" stroke-width="0.554056"/>
<path d="M139.5 0.207031C140.006 2.25649 141.762 6.37047 144.736 6.43066M139.5 8.55483C140.082 10.4773 142.247 14.2008 146.254 13.7151M139.5 17.6612C140.917 19.8113 144.448 23.8687 147.241 22.8973" stroke="#99B7A2" stroke-opacity="0.5" stroke-width="0.554056"/>
<path d="M157.751 27.8593V0" stroke="#99B7A2" stroke-opacity="0.5" stroke-width="0.554056"/>
<path d="M157.751 0.207031C157.245 2.25649 155.49 6.37047 152.515 6.43066M157.751 8.55483C157.169 10.4773 155.004 14.2008 150.997 13.7151M157.751 17.6612C156.335 19.8113 152.803 23.8687 150.011 22.8973" stroke="#99B7A2" stroke-opacity="0.5" stroke-width="0.554056"/>
<path d="M157.752 0.207031C158.257 2.25649 160.013 6.37047 162.988 6.43066M157.752 8.55483C158.333 10.4773 160.499 14.2008 164.505 13.7151M157.752 17.6612C159.168 19.8113 162.699 23.8687 165.492 22.8973" stroke="#99B7A2" stroke-opacity="0.5" stroke-width="0.554056"/>
<path d="M176.003 27.8593V0" stroke="#99B7A2" stroke-opacity="0.5" stroke-width="0.554056"/>
<path d="M176.003 0.207031C175.497 2.25649 173.741 6.37047 170.766 6.43066M176.003 8.55483C175.421 10.4773 173.256 14.2008 169.249 13.7151M176.003 17.6612C174.586 19.8113 171.055 23.8687 168.262 22.8973" stroke="#99B7A2" stroke-opacity="0.5" stroke-width="0.554056"/>
<path d="M176.003 0.207031C176.509 2.25649 178.264 6.37047 181.239 6.43066M176.003 8.55483C176.585 10.4773 178.75 14.2008 182.757 13.7151M176.003 17.6612C177.419 19.8113 180.951 23.8687 183.743 22.8973" stroke="#99B7A2" stroke-opacity="0.5" stroke-width="0.554056"/>
<path d="M194.254 27.8593V0" stroke="#99B7A2" stroke-opacity="0.5" stroke-width="0.554056"/>
<path d="M194.254 0.207031C193.748 2.25649 191.993 6.37047 189.018 6.43066M194.254 8.55483C193.672 10.4773 191.507 14.2008 187.5 13.7151M194.254 17.6612C192.837 19.8113 189.306 23.8687 186.514 22.8973" stroke="#99B7A2" stroke-opacity="0.5" stroke-width="0.554056"/>
<path d="M194.254 0.207031C194.76 2.25649 196.516 6.37047 199.49 6.43066M194.254 8.55483C194.836 10.4773 197.001 14.2008 201.008 13.7151M194.254 17.6612C195.671 19.8113 199.202 23.8687 201.995 22.8973" stroke="#99B7A2" stroke-opacity="0.5" stroke-width="0.554056"/>
<path d="M11.7405 58.0761V30.2168" stroke="#99B7A2" stroke-opacity="0.5" stroke-width="0.554056"/>
<path d="M11.7404 30.4238C11.2345 32.4733 9.47904 36.5873 6.50429 36.6475M11.7404 38.7716C11.1586 40.6941 8.99333 44.4176 4.98654 43.9319M11.7404 47.878C10.3239 50.0281 6.79261 54.0855 4 53.1141" stroke="#99B7A2" stroke-opacity="0.5" stroke-width="0.554056"/>
<path d="M11.7407 30.4238C12.2466 32.4733 14.002 36.5873 16.9768 36.6475M11.7407 38.7716C12.3225 40.6941 14.4878 44.4176 18.4945 43.9319M11.7407 47.878C13.1572 50.0281 16.6885 54.0855 19.4811 53.1141" stroke="#99B7A2" stroke-opacity="0.5" stroke-width="0.554056"/>
<path d="M29.9918 58.0761V30.2168" stroke="#99B7A2" stroke-opacity="0.5" stroke-width="0.554056"/>
<path d="M29.9918 30.4238C29.4859 32.4733 27.7304 36.5873 24.7556 36.6475M29.9918 38.7716C29.41 40.6941 27.2447 44.4176 23.2379 43.9319M29.9918 47.878C28.5752 50.0281 25.044 54.0855 22.2513 53.1141" stroke="#99B7A2" stroke-opacity="0.5" stroke-width="0.554056"/>
<path d="M29.992 30.4238C30.4979 32.4733 32.2534 36.5873 35.2281 36.6475M29.992 38.7716C30.5738 40.6941 32.7391 44.4176 36.7459 43.9319M29.992 47.878C31.4086 50.0281 34.9398 54.0855 37.7324 53.1141" stroke="#99B7A2" stroke-opacity="0.5" stroke-width="0.554056"/>
<path d="M48.2432 58.0761V30.2168" stroke="#99B7A2" stroke-opacity="0.5" stroke-width="0.554056"/>
<path d="M48.2431 30.4238C47.7372 32.4733 45.9817 36.5873 43.007 36.6475M48.2431 38.7716C47.6613 40.6941 45.496 44.4176 41.4892 43.9319M48.2431 47.878C46.8265 50.0281 43.2953 54.0855 40.5027 53.1141" stroke="#99B7A2" stroke-opacity="0.5" stroke-width="0.554056"/>
<path d="M48.2434 30.4238C48.7492 32.4733 50.5047 36.5873 53.4795 36.6475M48.2434 38.7716C48.8251 40.6941 50.9904 44.4176 54.9972 43.9319M48.2434 47.878C49.6599 50.0281 53.1912 54.0855 55.9838 53.1141" stroke="#99B7A2" stroke-opacity="0.5" stroke-width="0.554056"/>
<path d="M66.4945 58.0761V30.2168" stroke="#99B7A2" stroke-opacity="0.5" stroke-width="0.554056"/>
<path d="M66.4944 30.4238C65.9885 32.4733 64.2331 36.5873 61.2583 36.6475M66.4944 38.7716C65.9126 40.6941 63.7474 44.4176 59.7406 43.9319M66.4944 47.878C65.0779 50.0281 61.5466 54.0855 58.754 53.1141" stroke="#99B7A2" stroke-opacity="0.5" stroke-width="0.554056"/>
<path d="M66.4947 30.4238C67.0006 32.4733 68.7561 36.5873 71.7308 36.6475M66.4947 38.7716C67.0765 40.6941 69.2418 44.4176 73.2486 43.9319M66.4947 47.878C67.9112 50.0281 71.4425 54.0855 74.2351 53.1141" stroke="#99B7A2" stroke-opacity="0.5" stroke-width="0.554056"/>
<path d="M84.7458 58.0761V30.2168" stroke="#99B7A2" stroke-opacity="0.5" stroke-width="0.554056"/>
<path d="M84.7458 30.4238C84.2399 32.4733 82.4844 36.5873 79.5097 36.6475M84.7458 38.7716C84.164 40.6941 81.9987 44.4176 77.9919 43.9319M84.7458 47.878C83.3292 50.0281 79.798 54.0855 77.0054 53.1141" stroke="#99B7A2" stroke-opacity="0.5" stroke-width="0.554056"/>
<path d="M84.746 30.4238C85.2519 32.4733 87.0074 36.5873 89.9822 36.6475M84.746 38.7716C85.3278 40.6941 87.4931 44.4176 91.4999 43.9319M84.746 47.878C86.1626 50.0281 89.6938 54.0855 92.4865 53.1141" stroke="#99B7A2" stroke-opacity="0.5" stroke-width="0.554056"/>
<path d="M102.997 58.0761V30.2168" stroke="#99B7A2" stroke-opacity="0.5" stroke-width="0.554056"/>
<path d="M102.997 30.4238C102.491 32.4733 100.736 36.5873 97.7611 36.6475M102.997 38.7716C102.415 40.6941 100.25 44.4176 96.2434 43.9319M102.997 47.878C101.581 50.0281 98.0494 54.0855 95.2568 53.1141" stroke="#99B7A2" stroke-opacity="0.5" stroke-width="0.554056"/>
<path d="M102.998 30.4238C103.503 32.4733 105.259 36.5873 108.234 36.6475M102.998 38.7716C103.579 40.6941 105.745 44.4176 109.751 43.9319M102.998 47.878C104.414 50.0281 107.945 54.0855 110.738 53.1141" stroke="#99B7A2" stroke-opacity="0.5" stroke-width="0.554056"/>
<path d="M121.249 58.0761V30.2168" stroke="#99B7A2" stroke-opacity="0.5" stroke-width="0.554056"/>
<path d="M121.249 30.4238C120.743 32.4733 118.987 36.5873 116.012 36.6475M121.249 38.7716C120.667 40.6941 118.502 44.4176 114.495 43.9319M121.249 47.878C119.832 50.0281 116.301 54.0855 113.508 53.1141" stroke="#99B7A2" stroke-opacity="0.5" stroke-width="0.554056"/>
<path d="M121.249 30.4238C121.755 32.4733 123.51 36.5873 126.485 36.6475M121.249 38.7716C121.831 40.6941 123.996 44.4176 128.003 43.9319M121.249 47.878C122.665 50.0281 126.197 54.0855 128.989 53.1141" stroke="#99B7A2" stroke-opacity="0.5" stroke-width="0.554056"/>
<path d="M139.5 58.0761V30.2168" stroke="#99B7A2" stroke-opacity="0.5" stroke-width="0.554056"/>
<path d="M139.5 30.4238C138.994 32.4733 137.239 36.5873 134.264 36.6475M139.5 38.7716C138.918 40.6941 136.753 44.4176 132.746 43.9319M139.5 47.878C138.083 50.0281 134.552 54.0855 131.76 53.1141" stroke="#99B7A2" stroke-opacity="0.5" stroke-width="0.554056"/>
<path d="M139.5 30.4238C140.006 32.4733 141.762 36.5873 144.736 36.6475M139.5 38.7716C140.082 40.6941 142.247 44.4176 146.254 43.9319M139.5 47.878C140.917 50.0281 144.448 54.0855 147.241 53.1141" stroke="#99B7A2" stroke-opacity="0.5" stroke-width="0.554056"/>
<path d="M157.751 58.0761V30.2168" stroke="#99B7A2" stroke-opacity="0.5" stroke-width="0.554056"/>
<path d="M157.751 30.4238C157.245 32.4733 155.49 36.5873 152.515 36.6475M157.751 38.7716C157.169 40.6941 155.004 44.4176 150.997 43.9319M157.751 47.878C156.335 50.0281 152.803 54.0855 150.011 53.1141" stroke="#99B7A2" stroke-opacity="0.5" stroke-width="0.554056"/>
<path d="M157.752 30.4238C158.257 32.4733 160.013 36.5873 162.988 36.6475M157.752 38.7716C158.333 40.6941 160.499 44.4176 164.505 43.9319M157.752 47.878C159.168 50.0281 162.699 54.0855 165.492 53.1141" stroke="#99B7A2" stroke-opacity="0.5" stroke-width="0.554056"/>
<path d="M176.003 58.0761V30.2168" stroke="#99B7A2" stroke-opacity="0.5" stroke-width="0.554056"/>
<path d="M176.003 30.4238C175.497 32.4733 173.741 36.5873 170.766 36.6475M176.003 38.7716C175.421 40.6941 173.256 44.4176 169.249 43.9319M176.003 47.878C174.586 50.0281 171.055 54.0855 168.262 53.1141" stroke="#99B7A2" stroke-opacity="0.5" stroke-width="0.554056"/>
<path d="M176.003 30.4238C176.509 32.4733 178.264 36.5873 181.239 36.6475M176.003 38.7716C176.585 40.6941 178.75 44.4176 182.757 43.9319M176.003 47.878C177.419 50.0281 180.951 54.0855 183.743 53.1141" stroke="#99B7A2" stroke-opacity="0.5" stroke-width="0.554056"/>
<path d="M194.254 58.0761V30.2168" stroke="#99B7A2" stroke-opacity="0.5" stroke-width="0.554056"/>
<path d="M194.254 30.4238C193.748 32.4733 191.993 36.5873 189.018 36.6475M194.254 38.7716C193.672 40.6941 191.507 44.4176 187.5 43.9319M194.254 47.878C192.837 50.0281 189.306 54.0855 186.514 53.1141" stroke="#99B7A2" stroke-opacity="0.5" stroke-width="0.554056"/>
<path d="M194.254 30.4238C194.76 32.4733 196.516 36.5873 199.49 36.6475M194.254 38.7716C194.836 40.6941 197.001 44.4176 201.008 43.9319M194.254 47.878C195.671 50.0281 199.202 54.0855 201.995 53.1141" stroke="#99B7A2" stroke-opacity="0.5" stroke-width="0.554056"/>
<path fill-rule="evenodd" clip-rule="evenodd" d="M37.3993 11.629C44.2177 11.4825 49.9652 15.373 54.3429 19.4631C58.3131 23.1725 60.221 27.8788 59.9645 32.7117C59.7191 37.3359 57.1665 41.623 52.9927 44.9045C48.8064 48.1959 43.2202 49.541 37.3993 50.4529C29.4428 51.6992 20.9182 54.3208 13.9931 51.0136C5.96618 47.1803 -1.47763 39.9411 0.249755 32.7117C1.93705 25.6501 13.9271 24.3916 21.3624 20.172C26.8044 17.0836 30.6776 11.7735 37.3993 11.629Z" fill="white" fill-opacity="0.5"/>
</svg>
