<svg width="152" height="156" viewBox="0 0 152 156" fill="none" xmlns="http://www.w3.org/2000/svg">
<mask id="path-1-outside-1_712_51533" maskUnits="userSpaceOnUse" x="0" y="0" width="152" height="156" fill="black">
<rect fill="white" width="152" height="156"/>
<path d="M139.295 30.3637C135.012 29.6587 130.779 29.1347 126.539 28.9167C122.302 28.7177 118.07 28.7637 113.868 29.1707C109.661 29.5277 105.49 30.2417 101.358 31.1977C97.2257 32.1727 93.1557 33.4467 89.0667 34.9057C92.6397 32.4297 96.6227 30.5407 100.771 29.1467C104.919 27.7327 109.252 26.8677 113.622 26.4487C117.997 26.0807 122.414 26.1537 126.748 26.8017C131.078 27.4307 135.335 28.5727 139.295 30.3637Z"/>
<path d="M125.508 39.8447C121.138 39.7057 116.835 39.6717 112.554 39.8867C108.277 40.1197 104.025 40.5387 99.8207 41.2627C95.6087 41.9367 91.4497 42.9117 87.3257 44.0717C83.2047 45.2497 79.1427 46.6677 75.0487 48.2057C78.6097 45.6607 82.5447 43.6407 86.6437 42.0487C90.7417 40.4387 95.0267 39.3107 99.3727 38.5667C103.727 37.8727 108.148 37.5577 112.545 37.7617C116.94 37.9467 121.315 38.5877 125.508 39.8447Z"/>
<path d="M108.834 49.9837C105.189 50.5597 101.612 51.1177 98.0727 51.8197C94.5397 52.5377 91.0387 53.3357 87.5917 54.3357C84.1317 55.2867 80.7297 56.4347 77.3417 57.6677C73.9577 58.9187 70.6157 60.3087 67.2047 61.7187C70.0267 59.3337 73.1817 57.3647 76.4917 55.7097C79.7977 54.0377 83.2867 52.7337 86.8497 51.7047C90.4267 50.7247 94.0827 50.0147 97.7757 49.7147C101.463 49.3977 105.182 49.4277 108.834 49.9837Z"/>
<path d="M97.5257 59.5807C94.2677 60.6957 91.0677 61.7577 87.9197 62.9317C84.7797 64.1217 81.6767 65.3607 78.6477 66.7697C75.5977 68.1327 72.6257 69.6587 69.6667 71.2467C66.7147 72.8517 63.8127 74.5667 60.8297 76.2887C63.0897 73.6857 65.7207 71.4267 68.5377 69.4357C71.3477 67.4277 74.3787 65.7367 77.5147 64.2827C80.6717 62.8747 83.9377 61.6997 87.2967 60.8997C90.6487 60.0827 94.0787 59.5797 97.5257 59.5807Z"/>
<path d="M84.6387 73.3137C81.1297 75.3047 77.6537 77.2297 74.2457 79.2547C70.8487 81.2937 67.4917 83.3737 64.2367 85.6057C60.9527 87.7957 57.7707 90.1327 54.6117 92.5247C51.4617 94.9307 48.3777 97.4357 45.2187 99.9467C47.5527 96.6517 50.2837 93.6567 53.2317 90.8967C56.1707 88.1217 59.3677 85.6257 62.7067 83.3417C66.0737 81.0997 69.5827 79.0647 73.2547 77.3747C76.9157 75.6697 80.7117 74.2517 84.6387 73.3137Z"/>
<path d="M67.0927 92.0847C63.2637 94.7877 59.5157 97.5007 55.9057 100.373C52.3087 103.258 48.8147 106.249 45.5057 109.438C42.1627 112.591 39.0057 115.936 35.9507 119.39C32.9077 122.857 30.0157 126.468 27.1277 130.16C29.0417 125.877 31.4987 121.842 34.2867 118.053C37.0637 114.25 40.2227 110.729 43.6197 107.46C47.0517 104.228 50.7217 101.243 54.6547 98.6537C58.5757 96.0517 62.7237 93.7917 67.0927 92.0847Z"/>
<path d="M51.9297 115.963C50.0567 118.492 48.0967 120.879 46.1487 123.265C44.2147 125.662 42.2477 128.013 40.3377 130.412L34.5457 137.574C32.6127 139.972 30.6807 142.381 28.5887 144.734C29.7077 141.79 31.1687 139.013 32.8007 136.346C34.4207 133.668 36.2637 131.134 38.2147 128.691C40.2067 126.279 42.3057 123.954 44.5927 121.818C46.8657 119.67 49.2817 117.667 51.9297 115.963Z"/>
<path d="M57.9537 107.916C59.0857 111.337 59.7087 114.913 59.9817 118.513C60.2727 122.116 60.1517 125.749 59.7507 129.346C59.2987 132.937 58.5637 136.497 57.4347 139.931C56.3237 143.366 54.8777 146.696 52.9697 149.754C53.8257 146.257 54.6707 142.832 55.3707 139.387C56.0527 135.941 56.6467 132.495 57.0367 129.022C57.4767 125.555 57.7087 122.065 57.8557 118.555C57.9857 115.043 57.9667 111.516 57.9537 107.916Z"/>
<path d="M74.4877 89.0797C75.1587 92.7947 75.2857 96.5917 75.1087 100.359C74.9487 104.133 74.4217 107.876 73.7337 111.574C72.9947 115.264 72.0917 118.91 70.9717 122.488C69.8687 126.07 68.6087 129.597 67.0857 133.048C67.5097 129.299 68.1927 125.623 68.9017 121.97L71.0507 111.055C71.7797 107.43 72.4077 103.796 72.9937 100.147C73.5617 96.4927 74.0257 92.8227 74.4877 89.0797Z"/>
<path d="M85.4517 73.9677C86.5997 77.6957 87.2577 81.5597 87.5867 85.4497C87.9337 89.3417 87.8877 93.2657 87.5807 97.1647C87.2227 101.06 86.5987 104.934 85.5947 108.711C84.6087 112.488 83.3007 116.184 81.5297 119.661C82.2197 115.824 82.9267 112.057 83.5047 108.279C84.0647 104.5 84.5557 100.725 84.8577 96.9317C85.2097 93.1427 85.3697 89.3397 85.4617 85.5207C85.5367 81.6977 85.4807 77.8657 85.4517 73.9677Z"/>
<path d="M99.0357 62.5307C98.9917 65.3367 98.7717 68.0737 98.5397 70.7997L97.7967 78.9467C97.5067 81.6537 97.2637 84.3647 96.9437 87.0817C96.6407 89.8007 96.3227 92.5277 95.8157 95.2887C95.1837 92.5517 94.9067 89.7767 94.8107 87.0007C94.6977 84.2227 94.8277 81.4447 95.0757 78.6787C95.3747 75.9177 95.7877 73.1677 96.4397 70.4647C97.0757 67.7607 97.8867 65.0927 99.0357 62.5307Z"/>
<path d="M104.413 58.3997C105.138 61.7217 105.881 64.9567 106.793 68.1317C107.722 71.2987 108.76 74.4157 110.02 77.4447C111.233 80.4927 112.664 83.4497 114.208 86.3657C115.769 89.2767 117.492 92.1127 119.287 95.0017C116.635 92.8647 114.353 90.2857 112.391 87.4867C110.412 84.6927 108.8 81.6427 107.487 78.4737C106.221 75.2867 105.247 71.9767 104.717 68.5937C104.172 65.2197 104.007 61.7807 104.413 58.3997Z"/>
<path d="M114.446 50.0847C113.708 51.8567 114.079 53.4977 114.342 55.2377C114.671 57.0077 114.942 58.7737 115.228 60.5337C115.506 62.2957 115.786 64.0567 116.027 65.8467C116.278 67.6357 116.533 69.4357 116.617 71.3487C115.462 69.8227 114.616 68.1337 113.961 66.3807C113.283 64.6327 112.822 62.8097 112.528 60.9617C112.239 59.1117 112.119 57.2387 112.22 55.3617C112.257 54.4097 112.39 53.4167 112.706 52.4567C113.038 51.5117 113.601 50.5767 114.446 50.0847Z"/>
<path d="M123.563 39.2437C124.181 42.0917 124.739 44.8677 125.398 47.6087C126.073 50.3427 126.787 53.0487 127.66 55.7057C128.485 58.3777 129.466 60.9987 130.494 63.6197C131.54 66.2367 132.687 68.8247 133.824 71.5087C131.742 69.4627 130.022 67.0817 128.573 64.5497C127.107 62.0217 125.964 59.3137 125.055 56.5337C124.194 53.7377 123.563 50.8677 123.3 47.9567C123.021 45.0537 123.049 42.1167 123.563 39.2437Z"/>
<path d="M135.321 32.0317C136.239 34.0577 136.924 36.1067 137.551 38.1627C138.194 40.2147 138.738 42.2807 139.243 44.3557C139.742 46.4327 140.198 48.5197 140.562 50.6387C140.941 52.7547 141.263 54.8907 141.366 57.1137C140.177 55.2317 139.277 53.2407 138.506 51.2097C137.719 49.1827 137.095 47.1027 136.586 44.9967C136.083 42.8887 135.69 40.7537 135.469 38.5897C135.231 36.4297 135.124 34.2487 135.321 32.0317Z"/>
<path d="M66.8347 99.7547C67.8957 103.292 68.3497 107 68.4327 110.698C68.5347 114.402 68.2077 118.1 67.6807 121.749C67.1027 125.392 66.3227 128.989 65.3067 132.514C64.3077 136.043 63.1337 139.512 61.6937 142.907C62.0307 139.233 62.6247 135.629 63.2247 132.045C63.8087 128.458 64.4607 124.903 64.9777 121.338C65.5457 117.78 65.9757 114.215 66.3067 110.631C66.6217 107.043 66.7727 103.441 66.8347 99.7547Z"/>
<path d="M51.1477 120.358C51.4547 122.681 51.3707 125.01 51.0777 127.306C50.8007 129.608 50.2717 131.875 49.5607 134.08C48.8437 136.283 47.9377 138.428 46.8107 140.454C45.6987 142.485 44.3957 144.418 42.7797 146.115C43.4037 143.858 44.1397 141.724 44.8567 139.595L46.9607 133.235L49.0007 126.854C49.6717 124.711 50.3297 122.551 51.1477 120.358Z"/>
<path d="M54.0967 112.08C52.0787 113.506 50.0437 114.766 48.0247 116.033L42.0147 119.836L36.0287 123.676C34.0277 124.97 32.0237 126.28 29.8757 127.502C31.2487 125.445 32.9177 123.637 34.7237 121.988C36.5207 120.325 38.4827 118.846 40.5467 117.53C42.6137 116.22 44.7837 115.068 47.0507 114.144C49.3097 113.206 51.6527 112.457 54.0967 112.08Z"/>
<path d="M53.6167 115.004C53.9847 118.495 53.9357 122.004 53.6467 125.49C53.3747 128.98 52.7977 132.441 52.0497 135.86C51.2517 139.269 50.2787 142.639 49.0187 145.906C47.7757 149.175 46.3047 152.362 44.4627 155.351C45.2507 151.932 46.1397 148.599 46.9837 145.263C47.8107 141.924 48.6497 138.602 49.3837 135.256C50.1687 131.921 50.8447 128.562 51.5407 125.193C52.2207 121.82 52.8557 118.429 53.6167 115.004Z"/>
<path d="M51.2177 120.749C49.4267 123.218 47.7567 125.655 46.2157 128.169C44.6917 130.691 43.2477 133.249 41.9097 135.879C40.5277 138.486 39.2497 141.161 37.8937 143.823C36.5527 146.492 35.1897 149.175 33.5777 151.768C34.1277 148.766 34.9407 145.856 35.9267 142.995C36.8977 140.128 38.0997 137.334 39.4847 134.618C40.9147 131.927 42.5307 129.307 44.4827 126.937C46.4157 124.562 48.6427 122.398 51.2177 120.749Z"/>
<path d="M61.8157 105.656C62.5017 108.579 62.8117 111.553 62.9197 114.531C63.0447 117.51 62.9027 120.493 62.6237 123.46C62.2937 126.422 61.8237 129.37 61.0927 132.261C60.3797 135.153 59.4667 138.001 58.1947 140.722C58.3617 137.725 58.6807 134.804 58.9917 131.89C59.2847 128.975 59.6297 126.081 59.9057 123.178C60.2327 120.281 60.4857 117.377 60.7957 114.464C61.0867 111.549 61.3697 108.624 61.8157 105.656Z"/>
<path d="M61.6147 101.226C58.9927 101.561 56.4077 101.652 53.8567 101.775C51.3057 101.914 48.7857 102.02 46.3027 102.315C43.8177 102.56 41.3667 102.995 38.9397 103.584C36.5137 104.194 34.1367 105.006 31.7117 106.05C33.4777 104.072 35.7947 102.6 38.2577 101.562C40.7247 100.501 43.3647 99.9067 46.0097 99.5977C48.6607 99.3387 51.3147 99.3507 53.9227 99.6497C56.5307 99.9317 59.0947 100.434 61.6147 101.226Z"/>
<path d="M76.0497 84.3597C73.6807 84.5197 71.7257 85.4547 69.6747 86.3997C67.6207 87.3897 65.5477 88.3297 63.4757 89.2577C61.4027 90.1867 59.3247 91.1017 57.2107 91.9777C55.1007 92.8617 52.9767 93.7397 50.7167 94.4567C52.3807 92.7687 54.2507 91.3507 56.2137 90.0907C58.1667 88.8107 60.2337 87.7177 62.3597 86.7617C64.4927 85.8177 66.6797 85.0067 68.9437 84.4027C70.0787 84.0847 71.2747 83.8477 72.4927 83.7747C73.7087 83.7287 74.9667 83.8487 76.0497 84.3597Z"/>
<path d="M86.3167 70.7777C83.3427 71.7007 80.4297 72.5587 77.5607 73.5157C74.6997 74.4887 71.8697 75.4997 69.1027 76.6687C66.3167 77.7907 63.5957 79.0657 60.8787 80.3897C58.1677 81.7307 55.4957 83.1717 52.7317 84.6077C54.7977 82.2717 57.2177 80.2767 59.8077 78.5437C62.3927 76.7927 65.1807 75.3527 68.0617 74.1417C70.9607 72.9767 73.9547 72.0357 77.0227 71.4587C80.0837 70.8667 83.2057 70.5777 86.3167 70.7777Z"/>
<path d="M80.1667 82.1557C81.0797 85.3097 81.5677 88.5607 81.7987 91.8247C82.0477 95.0917 81.9747 98.3777 81.7107 101.644C81.3957 104.906 80.8867 108.153 80.0647 111.325C79.2607 114.498 78.2037 117.61 76.7447 120.552C77.1107 117.291 77.5697 114.109 77.9677 110.928C78.3487 107.746 78.7287 104.58 78.9877 101.401C79.2977 98.2267 79.4837 95.0427 79.6727 91.8437C79.8447 88.6437 79.9537 85.4297 80.1667 82.1557Z"/>
<path d="M91.6697 68.3537C92.7207 70.9147 93.3687 73.6037 93.7757 76.3257C94.1997 79.0487 94.3177 81.8117 94.2577 84.5667C94.1467 87.3207 93.8527 90.0697 93.2577 92.7607C92.6797 95.4517 91.8607 98.0947 90.6457 100.583C90.7547 97.8197 90.9727 95.1387 91.1437 92.4657C91.2977 89.7927 91.4647 87.1387 91.5257 84.4797C91.6377 81.8217 91.6387 79.1627 91.6557 76.4857C91.6557 73.8067 91.6067 71.1177 91.6697 68.3537Z"/>
<path d="M101.783 55.5397C98.6807 55.9327 95.6237 56.1697 92.5757 56.4197C89.5297 56.6877 86.4947 56.9037 83.4647 57.1987C80.4307 57.4427 77.4047 57.7597 74.3587 58.0297C71.3147 58.3177 68.2627 58.6177 65.1397 58.7707C68.0037 57.5097 70.9907 56.6137 74.0197 55.9227C77.0477 55.2147 80.1307 54.7727 83.2247 54.4757C86.3237 54.2297 89.4357 54.1257 92.5407 54.2937C95.6447 54.4447 98.7427 54.8027 101.783 55.5397Z"/>
<path d="M113.98 45.4677C110.916 45.9027 107.911 46.2357 104.923 46.6317C101.939 47.0457 98.9717 47.4587 96.0247 47.9997C93.0687 48.4897 90.1367 49.1027 87.1887 49.7217C84.2427 50.3577 81.3017 51.0587 78.2697 51.6807C80.8737 50.0027 83.6947 48.7117 86.6007 47.6697C89.5047 46.6107 92.5137 45.8597 95.5557 45.3067C98.6067 44.8037 101.693 44.4937 104.784 44.5107C107.871 44.5097 110.962 44.7717 113.98 45.4677Z"/>
<path d="M125.595 36.6997C121.6 36.6467 117.652 36.3397 113.724 36.0577C109.794 35.7927 105.889 35.4877 101.989 35.3797C98.0907 35.2217 94.2017 35.2577 90.3157 35.4927C86.4277 35.7457 82.5567 36.2577 78.6327 37.0047C82.1917 35.1767 86.1017 34.0347 90.0667 33.3727C94.0387 32.6897 98.0787 32.5327 102.083 32.6477C106.088 32.8137 110.065 33.2447 113.984 33.9477C117.907 34.6337 121.777 35.5287 125.595 36.6997Z"/>
<path d="M120.919 42.1087L120.674 50.5267C120.647 53.2967 120.644 56.0497 120.79 58.7977C120.885 61.5477 121.125 64.2897 121.391 67.0467L122.356 75.4137C120.959 72.9077 119.984 70.1957 119.29 67.4187C118.579 64.6407 118.207 61.7817 118.06 58.9157C117.963 56.0477 118.087 53.1677 118.557 50.3387C119.009 47.5117 119.746 44.7267 120.919 42.1087Z"/>
<path d="M129.137 35.9867C129.542 38.7787 129.919 41.4837 130.421 44.1537C130.941 46.8177 131.522 49.4487 132.286 52.0297C133.001 54.6257 133.895 57.1667 134.858 59.7037C135.84 62.2367 136.944 64.7337 138.069 67.3217C136.009 65.3857 134.321 63.0837 132.93 60.6187C131.521 58.1577 130.459 55.5037 129.657 52.7787C128.904 50.0397 128.407 47.2257 128.308 44.3907C128.192 41.5637 128.411 38.7177 129.137 35.9867Z"/>
<path d="M108.013 52.4307C108.984 55.0767 109.836 57.6837 110.74 60.2617C111.66 62.8317 112.568 65.3877 113.59 67.9007C114.564 70.4317 115.647 72.9187 116.732 75.4237C117.834 77.9227 118.992 80.4087 120.088 83.0067C118.052 81.0517 116.34 78.8057 114.848 76.4257C113.34 74.0517 112.104 71.5127 111.049 68.9047C110.041 66.2787 109.209 63.5807 108.689 60.8157C108.152 58.0587 107.866 55.2487 108.013 52.4307Z"/>
<path d="M101.085 60.7707C101.858 63.6747 102.368 66.5917 102.856 69.4907C103.361 72.3877 103.779 75.2757 104.31 78.1317C104.791 80.9967 105.379 83.8287 106.037 86.6547C106.713 89.4797 107.512 92.2747 108.389 95.1477C106.502 92.8027 105.088 90.0997 104.001 87.2927C102.894 84.4857 102.162 81.5517 101.619 78.6057C101.126 75.6487 100.815 72.6757 100.741 69.6987C100.649 66.7237 100.73 63.7537 101.085 60.7707Z"/>
<path d="M140.537 33.2147C141.612 35.4147 142.497 37.6217 143.366 39.8237C144.251 42.0197 145.08 44.2187 145.915 46.4167C146.744 48.6177 147.573 50.8157 148.36 53.0497C149.162 55.2767 149.954 57.5187 150.597 59.8817C148.954 58.0637 147.606 56.0437 146.42 53.9397C145.219 51.8417 144.21 49.6397 143.357 47.3817C142.51 45.1207 141.812 42.8027 141.329 40.4337C140.831 38.0707 140.507 35.6647 140.537 33.2147Z"/>
<path d="M140.962 24.6847C139.212 24.1887 137.601 23.6407 135.992 23.1397C134.378 22.6557 132.792 22.1877 131.188 21.7767C129.585 21.3597 127.972 20.9977 126.327 20.6367C124.677 20.2937 123.004 19.9877 121.233 19.5677C122.912 18.8527 124.713 18.5547 126.512 18.5107C128.316 18.4497 130.126 18.6777 131.875 19.1297C133.622 19.5877 135.315 20.2677 136.861 21.1987C138.411 22.1127 139.841 23.2467 140.962 24.6847Z"/>
<path d="M146.117 23.0947C142.774 22.3717 139.527 21.4687 136.286 20.6457C133.042 19.8397 129.819 19.0517 126.565 18.5047C123.323 17.9087 120.05 17.5537 116.755 17.4077C113.456 17.2817 110.144 17.4237 106.748 17.8167C109.834 16.3247 113.265 15.5477 116.708 15.2747C120.161 14.9817 123.64 15.2367 127.041 15.8137C130.433 16.4407 133.75 17.3767 136.932 18.6207C140.12 19.8477 143.194 21.3207 146.117 23.0947Z"/>
<path d="M132.369 32.6757C129.286 32.3197 126.286 31.9117 123.286 31.5987C120.286 31.3027 117.3 31.0387 114.305 30.9297C111.313 30.7697 108.315 30.7627 105.301 30.7857C102.285 30.8267 99.2597 30.9597 96.1567 31.0317C99.0287 29.8447 102.06 29.1057 105.13 28.6587C108.202 28.1937 111.322 28.0817 114.429 28.1997C117.534 28.3677 120.63 28.7627 123.647 29.5037C126.664 30.2267 129.616 31.2367 132.369 32.6757Z"/>
<path d="M113.833 43.7517C111.196 44.1147 108.64 44.4107 106.109 44.7957C103.583 45.1977 101.081 45.6267 98.6107 46.2047C96.1297 46.7337 93.6827 47.4077 91.2257 48.1167C88.7707 48.8437 86.3317 49.6597 83.7877 50.4477C85.7727 48.6667 88.0557 47.2597 90.4617 46.1237C92.8647 44.9697 95.4167 44.1397 98.0167 43.5367C100.627 42.9827 103.29 42.6497 105.955 42.6747C108.615 42.6827 111.279 42.9857 113.833 43.7517Z"/>
<path d="M101.376 55.6157C98.3247 56.0467 95.3427 56.4137 92.3857 56.8767C89.4337 57.3577 86.5057 57.8717 83.6097 58.5437C80.7037 59.1657 77.8327 59.9417 74.9567 60.7587C72.0827 61.5927 69.2267 62.5237 66.2787 63.4237C68.7017 61.5127 71.4047 59.9937 74.2257 58.7527C77.0447 57.4937 80.0057 56.5687 83.0157 55.8747C86.0367 55.2297 89.1117 54.8127 92.1977 54.7577C95.2797 54.6877 98.3717 54.9147 101.376 55.6157Z"/>
<path d="M95.8357 62.4937C92.7667 63.9237 89.6337 65.0967 86.5167 66.2537C83.4047 67.4277 80.2867 68.5227 77.2277 69.7387C74.1497 70.9067 71.1317 72.1917 68.1457 73.5657C65.1637 74.9577 62.2477 76.4897 59.2927 78.1377C61.5367 75.5977 64.2437 73.4817 67.1267 71.6907C70.0067 69.8787 73.0957 68.4357 76.2397 67.1907C79.4037 65.9927 82.6257 64.9867 85.8997 64.2197C89.1677 63.4367 92.4687 62.8307 95.8357 62.4937Z"/>
<path d="M100.876 57.0847L101.523 64.6047C101.769 67.0717 102.04 69.5117 102.395 71.9437C102.744 74.3767 103.17 76.7947 103.63 79.2297C104.107 81.6627 104.65 84.0947 105.124 86.6287C103.602 84.5427 102.462 82.2197 101.575 79.8077C100.672 77.3977 100.056 74.8817 99.6877 72.3327C99.3257 69.7827 99.2077 67.1947 99.3957 64.6287C99.5677 62.0657 100.006 59.5147 100.876 57.0847Z"/>
<path d="M110.217 53.2027C110.803 55.5517 111.237 57.8517 111.69 60.1367L113.093 66.9417L114.586 73.7267C115.103 75.9977 115.642 78.2757 116.061 80.6607C114.597 78.7277 113.473 76.5917 112.554 74.3767C111.618 72.1657 110.92 69.8577 110.419 67.5097C109.924 65.1607 109.621 62.7687 109.577 60.3687C109.515 57.9727 109.67 55.5637 110.217 53.2027Z"/>
<path d="M120.355 44.0817L121.569 51.1007C122.017 53.3907 122.503 55.6467 123.085 57.8817C123.661 60.1177 124.327 62.3277 125.044 64.5477L127.375 71.2797C125.625 69.5687 124.225 67.5447 123.083 65.3897C121.924 63.2397 121.051 60.9337 120.438 58.5657C119.831 56.1957 119.479 53.7567 119.454 51.3137C119.411 48.8737 119.654 46.4257 120.355 44.0817Z"/>
<path d="M130.892 35.1147C131.675 36.9347 132.266 38.7317 132.842 40.5217C133.434 42.3067 133.968 44.0867 134.507 45.8667C135.04 47.6487 135.572 49.4287 136.061 51.2447C136.566 53.0557 137.059 54.8837 137.403 56.8347C136.04 55.3927 134.976 53.7517 134.077 52.0327C133.162 50.3187 132.446 48.5077 131.888 46.6517C131.336 44.7937 130.938 42.8867 130.76 40.9527C130.567 39.0237 130.551 37.0677 130.892 35.1147Z"/>
<path d="M142.755 25.8117C143.435 28.0637 143.942 30.2817 144.449 32.4887L145.958 39.0727L147.446 45.6607C147.943 47.8697 148.442 50.0897 148.799 52.4157C147.391 50.5267 146.31 48.4547 145.414 46.3107C144.502 44.1707 143.809 41.9437 143.293 39.6777C142.783 37.4107 142.445 35.1027 142.345 32.7787C142.226 30.4587 142.305 28.1227 142.755 25.8117Z"/>
<path d="M90.4367 70.2647C91.7687 72.6837 92.6667 75.3137 93.2727 78.0047C93.8957 80.6967 94.1647 83.4647 94.2007 86.2307C94.1867 88.9967 93.9367 91.7667 93.3317 94.4627C92.7457 97.1577 91.8627 99.7937 90.5447 102.221C90.7707 99.4717 91.0427 96.8137 91.2187 94.1607C91.3777 91.5087 91.4997 88.8747 91.4667 86.2387C91.4847 83.6027 91.3447 80.9687 91.1687 78.3177C90.9757 75.6677 90.6837 73.0117 90.4367 70.2647Z"/>
<path d="M76.1357 86.4787C77.2527 88.6967 77.9877 91.0637 78.4937 93.4727C79.0177 95.8817 79.2737 98.3467 79.3187 100.812C79.3567 103.278 79.1797 105.749 78.7347 108.174C78.3067 110.599 77.6477 112.988 76.5997 115.241C76.5317 112.761 76.5877 110.363 76.6107 107.975C76.6167 105.588 76.6257 103.223 76.5857 100.856C76.5527 98.4887 76.4667 96.1247 76.3847 93.7387C76.2857 91.3547 76.1507 88.9597 76.1357 86.4787Z"/>
<path d="M65.8127 92.2607C63.6117 93.3147 61.4477 94.2367 59.3127 95.1987C57.1857 96.1757 55.0837 97.1517 53.0077 98.1877C50.9297 99.2177 48.8807 100.301 46.8167 101.405C44.7607 102.524 42.7157 103.689 40.5437 104.801C41.9777 102.822 43.7337 101.123 45.6407 99.6237C47.5397 98.1097 49.6167 96.8197 51.7927 95.7387C53.9717 94.6627 56.2537 93.7887 58.6087 93.1927C60.9557 92.5827 63.3707 92.2087 65.8127 92.2607Z"/>
<path d="M68.6097 98.0357C69.4707 99.2347 70.0297 100.539 70.4627 101.871C70.8857 103.207 71.1587 104.58 71.2947 105.966C71.4317 107.352 71.4267 108.752 71.2677 110.144C71.0987 111.535 70.7997 112.922 70.1807 114.264C69.6607 112.883 69.3697 111.542 69.1177 110.209C68.8767 108.877 68.6987 107.556 68.5727 106.229C68.4457 104.903 68.3667 103.572 68.3477 102.218C68.3407 100.862 68.3687 99.4897 68.6097 98.0357Z"/>
<path d="M59.6947 102.832C58.0037 103.827 56.3267 104.649 54.6657 105.471L44.7937 110.383C43.1357 111.212 41.4677 112.051 39.6517 112.796C40.7517 111.166 42.1347 109.795 43.6397 108.588C45.1377 107.367 46.7837 106.337 48.5117 105.477C50.2427 104.622 52.0567 103.93 53.9347 103.475C55.8047 103.004 57.7327 102.728 59.6947 102.832Z"/>
<path d="M59.4077 104.808C60.5407 107.562 61.2727 110.449 61.7617 113.372C62.2687 116.296 62.4687 119.266 62.4897 122.233C62.4597 125.201 62.2457 128.169 61.7267 131.091C61.2257 134.012 60.4797 136.896 59.3307 139.644C59.3637 136.668 59.5077 133.766 59.6037 130.873C59.6817 127.98 59.7737 125.105 59.7557 122.227C59.7887 119.349 59.7097 116.473 59.6447 113.58C59.5637 110.685 59.4307 107.783 59.4077 104.808Z"/>
<path d="M63.0167 101.777C64.4217 102.952 65.5197 104.414 66.4037 105.986C67.3057 107.554 67.9627 109.259 68.4077 111.012C68.8477 112.768 69.0727 114.58 69.0187 116.389C68.9817 118.193 68.7037 120 68.0167 121.7C67.5667 119.927 67.2447 118.244 66.8937 116.583C66.5257 114.926 66.1637 113.298 65.7557 111.679C65.3537 110.058 64.9027 108.452 64.4457 106.817C63.9727 105.186 63.4597 103.551 63.0167 101.777Z"/>
<path d="M149.701 20.1537C107.063 47.7417 67.7047 81.2207 45.5827 127.996C45.3877 128.408 46.0287 128.829 46.2807 128.425C61.2687 104.377 78.3207 81.6617 99.0997 62.2917C115.183 47.2987 133.048 34.5357 150.274 20.9347C150.767 20.5457 150.224 19.8157 149.701 20.1537Z"/>
<path d="M119.192 20.3916C117.791 23.2721 116.303 26.0453 114.627 28.6923C112.941 31.3294 111.109 33.8591 109.073 36.2168C107.065 38.5989 104.857 40.807 102.519 42.8886C100.171 44.962 97.6686 46.8707 95.0469 48.7119C98.0613 47.615 100.897 46.0209 103.505 44.1164C106.125 42.2204 108.493 39.979 110.608 37.5252C112.694 35.0467 114.533 32.3549 115.99 29.4679C117.457 26.5915 118.583 23.5404 119.192 20.3916Z"/>
<path d="M107.605 24.6547C105.826 27.3463 104.012 29.9529 102.058 32.44C100.094 34.9171 98.0295 37.2998 95.8015 39.5236C93.6001 41.7735 91.2401 43.8632 88.7835 45.853C86.3173 47.8333 83.7318 49.6758 81.0603 51.4864C84.1112 50.4261 87.0052 48.9167 89.7114 47.1261C92.428 45.3438 94.9339 43.2434 97.2345 40.9426C99.5084 38.6157 101.583 36.0868 103.334 33.3512C105.096 30.6249 106.575 27.7162 107.605 24.6547Z"/>
<path d="M94.39 30.3768C92.4894 32.3269 90.6286 34.2438 88.6972 36.0764C86.7588 37.8985 84.7858 39.6673 82.7142 41.3175C80.6665 42.9964 78.5249 44.5564 76.3381 46.0717C74.1421 47.5769 71.8803 48.9975 69.577 50.4513C72.2165 49.7679 74.7474 48.7067 77.1552 47.4182C79.5716 46.1395 81.8442 44.5936 83.9828 42.8859C86.0978 41.1489 88.0838 39.2492 89.8387 37.1525C91.6012 35.0667 93.1683 32.8136 94.39 30.3768Z"/>
<path d="M83.7894 33.0968C81.729 34.5841 79.7253 36.0591 77.6763 37.4549C75.6211 38.8392 73.5521 40.1803 71.4123 41.4043C69.2912 42.6606 67.1052 43.8004 64.8873 44.906C62.6622 46.0001 60.3922 47.0172 58.0834 48.0801C60.6147 47.8282 63.097 47.2062 65.497 46.358C67.9043 45.5212 70.2149 44.4162 72.4275 43.1468C74.6213 41.8453 76.7212 40.3787 78.6348 38.6963C80.5557 37.0254 82.3207 35.1736 83.7894 33.0968Z"/>
<path d="M70.0241 35.0066C67.3291 36.2717 64.6879 37.5451 62.0155 38.7349C59.3393 39.912 56.6554 41.0476 53.9235 42.057C51.2045 43.1017 48.4404 44.0224 45.653 44.9057C42.861 45.7777 40.0375 46.5677 37.1785 47.4003C40.1582 47.3988 43.1264 47.0303 46.0455 46.431C48.9698 45.8434 51.8361 44.9815 54.6351 43.9437C57.4208 42.8711 60.1424 41.6247 62.7255 40.1331C65.3131 38.6546 67.7852 36.9724 70.0241 35.0066Z"/>
<path d="M51.2376 37.5759C47.9772 38.7303 44.7454 39.8316 41.4767 40.7821C38.2056 41.7191 34.9146 42.5489 31.5832 43.1829C28.2589 43.8527 24.8983 44.3287 21.5155 44.6967C18.13 45.0519 14.7221 45.2549 11.2671 45.4208C14.663 46.0935 18.1408 46.3333 21.6116 46.2689C25.0862 46.2171 28.5536 45.815 31.9708 45.1621C35.3805 44.4724 38.7429 43.534 41.9789 42.2683C45.2176 41.0155 48.347 39.4801 51.2376 37.5759Z"/>
<path d="M30.3909 36.532C28.0692 36.5823 25.7959 36.7455 23.5283 36.9019C21.26 37.0452 19.0054 37.228 16.7461 37.356L9.9631 37.7922C7.69467 37.9345 5.42003 38.0715 3.11093 38.3287C5.3613 38.9095 7.65686 39.2131 9.95903 39.3668C12.2627 39.5324 14.5747 39.5023 16.8779 39.3684C19.1799 39.1965 21.4752 38.9232 23.7367 38.456C25.9994 38.0023 28.2358 37.4008 30.3909 36.532Z"/>
<path d="M37.805 36.3356C36.2268 34.1956 34.3383 32.296 32.2861 30.5971C30.2397 28.8861 27.9997 27.4104 25.662 26.1188C23.3062 24.8604 20.8484 23.7857 18.2986 23.0021C15.7559 22.2072 13.1336 21.6588 10.4783 21.5047C12.9497 22.4797 15.373 23.4305 17.7466 24.4773C20.1131 25.5353 22.442 26.6463 24.7003 27.8917C26.9763 29.1045 29.1775 30.4523 31.3546 31.8599C33.5255 33.2785 35.642 34.7933 37.805 36.3356Z"/>
<path d="M56.1996 34.4011C54.2477 32.4135 52.0146 30.7185 49.67 29.2195C47.3284 27.7072 44.8491 26.4292 42.3282 25.2674C39.7905 24.1397 37.2093 23.1296 34.5766 22.2792C31.9487 21.4168 29.2871 20.6724 26.5591 20.1189C28.9981 21.4615 31.5036 22.6169 34.0063 23.7469L41.4973 27.1048C43.9916 28.2108 46.4483 29.3815 48.8962 30.5839C51.3394 31.7992 53.7479 33.084 56.1996 34.4011Z"/>
<path d="M69.9758 34.2398C68.2194 31.9593 66.1723 29.9159 63.9693 28.0596C61.7727 26.1917 59.3893 24.5468 56.9098 23.0698C54.4109 21.6252 51.8114 20.3499 49.1082 19.3447C46.4128 18.3288 43.6288 17.5413 40.7795 17.126C43.3849 18.3459 45.9554 19.5257 48.4776 20.7878C50.9927 22.0613 53.476 23.3746 55.8895 24.8094C58.322 26.2124 60.681 27.737 63.0207 29.3094C65.3556 30.8938 67.64 32.5609 69.9758 34.2398Z"/>
<path d="M82.6556 30.9301C80.9465 29.7606 79.204 28.7265 77.4631 27.7043L72.2388 24.6793C70.4845 23.7001 68.7479 22.6909 66.9748 21.7256C65.2078 20.7492 63.4296 19.7784 61.5503 18.9069C62.9296 20.4543 64.4832 21.8039 66.1145 23.045C67.7397 24.2972 69.4685 25.403 71.2404 26.4326C73.031 27.4293 74.8636 28.3527 76.7698 29.1121C78.6697 29.8815 80.6225 30.5302 82.6556 30.9301Z"/>
<path d="M87.4361 29.452C85.744 27.5992 84.112 25.7728 82.5882 23.8701C81.0764 21.9606 79.6413 20.0067 78.3537 17.9566C77.0347 15.9267 75.8634 13.8043 74.765 11.6313C73.6768 9.45023 72.7029 7.2035 71.7277 4.89081C71.8846 7.39921 72.4655 9.87312 73.3152 12.248C74.1548 14.6311 75.3049 16.9021 76.6542 19.0438C78.0344 21.1649 79.6131 23.1625 81.425 24.9237C83.2251 26.6902 85.2264 28.2554 87.4361 29.452Z"/>
<path d="M96.7217 26.9505C95.3397 26.6398 94.5094 25.7168 93.5733 24.8167C92.6473 23.8641 91.6991 22.9481 90.7608 22.0256C89.8179 21.1071 88.8764 20.1879 87.9009 19.2797C86.9302 18.366 85.9546 17.4451 84.8381 16.5791C85.265 17.9253 85.9218 19.1549 86.6986 20.2966C87.4626 21.4501 88.3642 22.5048 89.3521 23.4696C90.3433 24.4323 91.4204 25.3029 92.5942 26.0421C93.1834 26.4256 93.8382 26.7688 94.5512 26.9876C95.262 27.1904 96.0652 27.2498 96.7217 26.9505Z"/>
<path d="M107.138 26.0813C105.686 24.4951 104.251 22.9758 102.881 21.4105C101.522 19.8385 100.196 18.255 98.968 16.5966C97.71 14.9607 96.5493 13.2526 95.4087 11.5161C94.2781 9.77058 93.2081 7.97652 92.0759 6.14758C92.4209 8.27383 93.1221 10.3248 94.0297 12.2769C94.9276 14.2375 96.0717 16.0803 97.3588 17.8129C98.6761 19.5233 100.136 21.1267 101.777 22.5259C103.407 23.9314 105.188 25.1664 107.138 26.0813Z"/>
<path d="M116.494 22.0746C115.665 20.658 114.722 19.372 113.751 18.118C112.789 16.856 111.776 15.6477 110.742 14.459C109.703 13.2732 108.641 12.1089 107.519 10.9864C106.406 9.85619 105.257 8.75176 103.962 7.74218C104.588 9.2606 105.404 10.6514 106.299 11.9815C107.185 13.3196 108.171 14.5821 109.223 15.7863C110.279 16.9879 111.397 18.1346 112.606 19.1901C113.806 20.2542 115.074 21.2483 116.494 22.0746Z"/>
<path d="M46.5076 34.4603C44.8292 32.3135 42.7891 30.4595 40.5969 28.8333C38.4091 27.193 36.0421 25.8138 33.6194 24.5759C31.1786 23.3712 28.6793 22.3079 26.1229 21.4174C23.5713 20.515 20.9812 19.7435 18.3224 19.1639C20.6791 20.5269 23.1033 21.7053 25.518 22.8715C27.9276 24.0486 30.347 25.1712 32.7149 26.3793C35.1002 27.5537 37.431 28.8143 39.731 30.1425C42.0266 31.4821 44.2608 32.9265 46.5076 34.4603Z"/>
<path d="M27.4094 35.1307C26.1409 33.9556 24.7022 33.0135 23.1942 32.2113C21.6895 31.397 20.0984 30.7493 18.4671 30.2378C16.8345 29.7307 15.1562 29.3621 13.4554 29.1774C11.758 28.9816 10.0382 28.9426 8.32711 29.1927C9.95266 29.7788 11.5519 30.2451 13.1399 30.7206L17.8679 32.1641L22.5812 33.6551C24.1581 34.1644 25.7397 34.6887 27.4094 35.1307Z"/>
<path d="M33.6535 36.8814C31.9344 37.4892 30.308 38.178 28.6842 38.8541L23.8316 40.8535L18.967 42.8225C17.3346 43.4763 15.6913 44.1251 14.0396 44.8982C15.8639 44.9479 17.6644 44.7131 19.4275 44.3281C21.1953 43.9545 22.9225 43.403 24.595 42.7207C26.2651 42.0339 27.884 41.2178 29.4069 40.246C30.9348 39.2851 32.3847 38.193 33.6535 36.8814Z"/>
<path d="M31.6876 35.9238C29.7415 34.2141 27.6069 32.7479 25.3838 31.4361C23.1656 30.1124 20.8348 28.9847 18.4564 27.978C16.0628 27.0056 13.618 26.1553 11.113 25.5218C8.61395 24.8771 6.06717 24.4048 3.48151 24.2404C5.87693 25.223 8.26359 26.1082 10.6329 27.0217C12.9967 27.9468 15.3555 28.8573 17.6839 29.8414C20.0274 30.79 22.3389 31.8146 24.665 32.8313C26.9867 33.8594 29.3001 34.9223 31.6876 35.9238Z"/>
<path d="M27.2041 34.9204C24.9535 34.9469 22.7736 34.9141 20.6024 34.7708C18.4336 34.6138 16.2772 34.3933 14.1227 34.0783C11.9632 33.7996 9.80709 33.4292 7.62557 33.1114C5.44623 32.7815 3.24907 32.459 1 32.3247C3.04278 33.273 5.14224 34.0237 7.28592 34.6492C9.42683 35.2863 11.6222 35.7532 13.8486 36.0766C16.0792 36.3622 18.3462 36.5055 20.6059 36.3398C22.8605 36.1878 25.1132 35.7687 27.2041 34.9204Z"/>
<path d="M40.813 34.9709C39.3446 33.3117 37.6853 31.8574 35.9374 30.5229C34.1962 29.1779 32.3388 27.9919 30.4326 26.8953C28.5077 25.8316 26.5316 24.8581 24.4785 24.0662C22.4325 23.263 20.3278 22.599 18.1465 22.2055C20.023 23.3823 21.9186 24.4352 23.8065 25.4899C25.6873 26.5559 27.5776 27.5817 29.444 28.6528C31.3284 29.6906 33.1856 30.776 35.0725 31.831C36.9524 32.8982 38.835 33.9744 40.813 34.9709Z"/>
<path d="M43.3967 36.9782C42.0773 38.4148 40.9207 39.9332 39.7592 41.4174C38.5881 42.8949 37.4502 44.3677 36.2141 45.7377C35.0073 47.1301 33.7006 48.4212 32.3113 49.6321C30.9097 50.8334 29.4074 51.9192 27.7449 52.935C29.6892 52.7143 31.5635 51.946 33.2386 50.9048C34.9292 49.8709 36.4123 48.5338 37.7259 47.0723C39.0119 45.5858 40.1359 43.9819 41.0674 42.2835C42.0092 40.5922 42.7997 38.8338 43.3967 36.9782Z"/>
<path d="M59.7084 35.4728C58.6022 36.8316 57.2057 37.6107 55.7622 38.4434C54.2903 39.2587 52.8405 40.1068 51.3983 40.9593C49.9551 41.8121 48.5182 42.6738 47.0895 43.5739C45.6576 44.4681 44.2233 45.3733 42.8281 46.4291C44.5542 46.1462 46.2055 45.6242 47.8012 44.9788C49.4047 44.3479 50.9441 43.5687 52.4262 42.6955C53.904 41.813 55.3247 40.8413 56.6536 39.7349C57.3289 39.1868 57.9815 38.5674 58.5446 37.8648C59.0906 37.1519 59.5546 36.3429 59.7084 35.4728Z"/>
<path d="M72.2666 35.0774C70.4429 36.4755 68.6844 37.8645 66.8851 39.1848C65.0795 40.4935 63.2642 41.7673 61.3806 42.9358C59.5172 44.1358 57.5894 45.2314 55.6337 46.3037C53.6704 47.3652 51.6634 48.3605 49.6203 49.4134C51.9081 49.1646 54.1413 48.5572 56.2892 47.7357C58.4458 46.9249 60.5016 45.8593 62.4591 44.64C64.3965 43.3903 66.2395 41.9878 67.8948 40.3857C69.5562 38.7941 71.061 37.0367 72.2666 35.0774Z"/>
<path d="M62.7915 33.9306C61.2808 32.0363 59.5304 30.3566 57.6627 28.8262C55.8009 27.2837 53.7904 25.927 51.7105 24.6939C49.6112 23.4933 47.4384 22.4159 45.1772 21.559C42.9232 20.6908 40.598 20.0011 38.2039 19.6259C40.3243 20.7954 42.4367 21.8753 44.5225 22.9914C46.6017 24.1182 48.6708 25.2388 50.6962 26.4378C52.7403 27.6039 54.7375 28.849 56.7451 30.0987C58.746 31.3591 60.7285 32.6634 62.7915 33.9306Z"/>
<path d="M76.0083 32.8873C74.9136 31.1626 73.57 29.626 72.1038 28.2206C70.6442 26.8046 69.0301 25.5558 67.345 24.4176C65.6387 23.3106 63.8575 22.316 61.9829 21.5274C60.1155 20.7285 58.1743 20.0953 56.1577 19.7667C57.8685 20.8788 59.5764 21.8902 61.2595 22.9266C62.9353 23.9731 64.6052 25.0038 66.2329 26.1004C67.8818 27.1659 69.4839 28.2987 71.1037 29.4295C72.7175 30.5714 74.3164 31.7471 76.0083 32.8873Z"/>
<path d="M88.0383 32.2542C86.4794 33.9552 85.0336 35.6957 83.5838 37.4252C82.1241 39.1458 80.7003 40.8819 79.2311 42.5814C77.7909 44.305 76.3101 45.9927 74.8491 47.7125C73.3782 49.4234 71.8966 51.134 70.4732 52.95C72.4536 51.7623 74.2665 50.3449 75.9738 48.8148C77.691 47.2926 79.2713 45.6238 80.7691 43.8867C82.2382 42.1247 83.6273 40.2944 84.8496 38.3525C86.0817 36.4183 87.1865 34.3995 88.0383 32.2542Z"/>
<path d="M99.3044 29.201C97.7364 30.8613 96.2549 32.5295 94.7428 34.1606C93.2215 35.7816 91.708 37.3929 90.126 38.9375C88.5709 40.5093 86.9519 42.0141 85.3224 43.5261C83.6836 45.0296 82.0077 46.5024 80.3407 48.0637C82.4614 47.2104 84.4415 46.0613 86.3079 44.755C88.1836 43.4571 89.9185 41.9646 91.5483 40.3679C93.1518 38.7444 94.6539 37.0176 95.9612 35.1484C97.2776 33.2893 98.4373 31.3157 99.3044 29.201Z"/>
<path d="M109.536 25.9445C107.865 28.3736 106.367 30.8827 104.863 33.369C103.347 35.8493 101.866 38.3316 100.269 40.727C98.7028 43.1424 97.0234 45.4697 95.2255 47.7104C93.4158 49.9446 91.4574 52.0582 89.3349 54.1035C91.953 52.7388 94.3076 50.8703 96.3964 48.764C98.5008 46.6625 100.317 44.2958 101.955 41.8348C103.562 39.3516 104.997 36.7722 106.244 34.1118C107.503 31.4563 108.614 28.7435 109.536 25.9445Z"/>
<path d="M104.285 26.4542L99.1093 23.0137C97.4292 21.8493 95.7696 20.6776 94.1765 19.4184C92.5604 18.189 91.011 16.8756 89.4636 15.5403L84.8348 11.3926C85.7489 13.3023 86.967 15.0456 88.344 16.6473C89.7143 18.2597 91.278 19.7024 92.9418 21.0126C94.628 22.2935 96.4157 23.4464 98.3202 24.3691C100.216 25.3018 102.208 26.0449 104.285 26.4542Z"/>
<path d="M111.476 24.1128C109.966 22.6787 108.498 21.2986 107.103 19.8582C105.72 18.4094 104.383 16.938 103.154 15.3777C101.895 13.8404 100.745 12.2188 99.6276 10.5573C98.5203 8.88611 97.4868 7.15676 96.4073 5.37597C96.6955 7.44208 97.3626 9.44011 98.2546 11.3287C99.1365 13.2264 100.283 14.9974 101.582 16.642C102.911 18.2631 104.394 19.762 106.06 21.03C107.713 22.3048 109.521 23.386 111.476 24.1128Z"/>
<path d="M92.5658 29.8307C91.3858 28.118 90.1785 26.4935 89.0109 24.8501C87.8549 23.2005 86.7023 21.5641 85.6241 19.8773C84.5147 18.2117 83.4782 16.4993 82.4317 14.778C81.3961 13.049 80.3921 11.2918 79.2943 9.52419C79.6041 11.5839 80.2273 13.5725 81.0251 15.4858C81.8123 17.406 82.8149 19.2328 83.9363 20.98C85.0885 22.7065 86.359 24.3577 87.803 25.8495C89.2348 27.3481 90.8056 28.7181 92.5658 29.8307Z"/>
<path d="M84.5884 30.4494C83.1685 28.746 81.6288 27.1954 80.0905 25.6657C78.5606 24.1267 76.9991 22.6439 75.5051 21.1067C73.9843 19.5958 72.529 18.0345 71.1071 16.4335C69.6935 14.8222 68.3504 13.1495 66.9936 11.3967C67.6019 13.5329 68.6274 15.5368 69.8549 17.3881C71.074 19.2513 72.5294 20.9429 74.0725 22.5257C75.6436 24.0831 77.3019 25.5376 79.0637 26.8511C80.8165 28.1746 82.6401 29.3918 84.5884 30.4494Z"/>
<path d="M118.005 18.4266C117.138 16.8413 116.186 15.3674 115.23 13.9054C114.284 12.4362 113.313 10.9996 112.345 9.55971C111.372 8.12218 110.402 6.68592 109.391 5.25962C108.392 3.82726 107.379 2.39454 106.229 1C106.624 2.76462 107.266 4.43764 108.028 6.04888C108.78 7.66659 109.677 9.21297 110.673 10.6893C111.674 12.1632 112.773 13.5717 113.994 14.8724C115.205 16.1796 116.516 17.4003 118.005 18.4266Z"/>
<path d="M123.325 21.8053C122.878 23.0709 122.521 24.2749 122.137 25.4577C121.741 26.6362 121.347 27.7911 120.91 28.9325C120.478 30.0759 120.009 31.2018 119.525 32.3466C119.028 33.4867 118.5 34.6249 117.998 35.8708C119.144 35.1641 120.091 34.2063 120.885 33.1413C121.69 32.0806 122.325 30.8931 122.798 29.6469C123.266 28.3993 123.578 27.0897 123.677 25.7616C123.787 24.4383 123.713 23.0935 123.325 21.8053Z"/>
<path d="M126.479 19.3791C125.49 21.701 124.65 24.0419 123.764 26.345C122.867 28.6427 121.968 30.92 120.91 33.1133C119.887 35.3203 118.706 37.4432 117.389 39.4902C116.059 41.5312 114.562 43.4658 112.878 45.3439C115.092 44.1209 117.022 42.3854 118.654 40.4277C120.303 38.4726 121.632 36.2682 122.734 33.9736C123.802 31.6631 124.652 29.266 125.259 26.819C125.879 24.3756 126.302 21.896 126.479 19.3791Z"/>
<path d="M114.847 23.5804C113.748 25.5892 112.715 27.5703 111.625 29.5108C110.524 31.4442 109.41 33.3554 108.199 35.206C107.021 37.0765 105.747 38.8854 104.448 40.6912C103.138 42.4905 101.769 44.256 100.403 46.0945C102.342 44.8704 104.079 43.3596 105.657 41.7008C107.246 40.0485 108.644 38.2168 109.897 36.2949C111.119 34.3529 112.201 32.3196 113.04 30.1864C113.891 28.0608 114.541 25.8521 114.847 23.5804Z"/>
<path d="M100.275 30.0218C98.9324 31.4556 97.6646 32.8691 96.3539 34.2296C95.035 35.5799 93.7101 36.9042 92.3091 38.1457C90.933 39.4147 89.4839 40.6014 88.0096 41.7793C86.5252 42.9482 84.9941 44.0696 83.4351 45.2662C85.354 44.8296 87.1746 44.0541 88.8845 43.089C90.6039 42.1333 92.1916 40.9499 93.6631 39.6407C95.1093 38.3046 96.445 36.8424 97.5659 35.2264C98.6949 33.6207 99.6478 31.8868 100.275 30.0218Z"/>
<path d="M87.8181 32.4696C86.258 34.1237 84.7659 35.7636 83.2266 37.3475C81.6786 38.9207 80.1209 40.4654 78.4817 41.9234C76.8683 43.4088 75.1772 44.8075 73.4591 46.1917C71.7317 47.5674 69.9536 48.891 68.1549 50.2832C70.3388 49.6382 72.4059 48.6574 74.3559 47.4871C76.3159 46.3256 78.1352 44.9362 79.8363 43.4189C81.5125 41.874 83.0743 40.1994 84.4229 38.3639C85.7787 36.5372 86.9599 34.5779 87.8181 32.4696Z"/>
<path d="M81.3139 32.8744C79.1444 34.1136 77.1023 35.5008 75.0768 36.8853C73.0431 38.2595 71.0545 39.671 69.0181 40.9953C67.0026 42.3516 64.9421 43.6219 62.8417 44.8349C60.7321 46.0379 58.5663 47.1414 56.3141 48.219C58.8006 47.9499 61.2291 47.2212 63.5368 46.248C65.8559 45.2855 68.0418 44.0398 70.1319 42.6766C72.2021 41.2813 74.1815 39.7692 76.039 38.1239C77.9037 36.4891 79.6757 34.7589 81.3139 32.8744Z"/>
<path d="M86.72 32.1461L82.4659 28.551C81.0846 27.3513 79.7304 26.148 78.4167 24.8975C77.0999 23.6503 75.8249 22.363 74.5542 21.048C73.2919 19.7236 72.0584 18.3599 70.734 16.9943C71.3418 18.8002 72.2552 20.4771 73.3301 22.0395C74.3969 23.6107 75.6499 25.0542 77.0285 26.3624C78.4103 27.6673 79.919 28.8415 81.5448 29.822C83.162 30.8109 84.8854 31.6344 86.72 32.1461Z"/>
<path d="M93.0403 28.1735C91.8751 26.8193 90.6746 25.5774 89.4913 24.3306L85.9901 20.5849L82.5393 16.7935C81.3917 15.514 80.2492 14.2184 78.9911 12.9494C79.5315 14.6552 80.3391 16.2427 81.2817 17.7405C82.2146 19.2467 83.3073 20.6509 84.5082 21.9536C85.7122 23.253 87.0239 24.4551 88.4509 25.5045C89.8678 26.5632 91.3849 27.4966 93.0403 28.1735Z"/>
<path d="M102.856 25.9512L99.1457 22.2281C97.9572 20.9821 96.8054 19.7278 95.7071 18.4245C94.6057 17.1245 93.5583 15.7813 92.5266 14.4031L89.465 10.1295C89.7498 11.913 90.3722 13.619 91.1836 15.2255C91.9847 16.8401 93.0017 18.3489 94.1668 19.7275C95.3357 21.1033 96.6549 22.355 98.1158 23.4113C99.5673 24.4773 101.146 25.3743 102.856 25.9512Z"/>
<path d="M112.75 23.4253C111.987 22.1778 111.156 21.0559 110.324 19.9459C109.501 18.8285 108.656 17.7481 107.814 16.6647C106.967 15.5841 106.122 14.5049 105.236 13.4363C104.361 12.3601 103.47 11.284 102.441 10.2452C102.729 11.6809 103.264 13.0213 103.916 14.2955C104.559 15.5773 105.344 16.7805 106.224 17.9077C107.108 19.0322 108.088 20.0848 109.177 21.0164C110.256 21.9549 111.428 22.7982 112.75 23.4253Z"/>
<path d="M123.409 20.2479C122.342 18.8783 121.222 17.6275 120.109 16.3814L116.786 12.666L113.452 8.9616C112.333 7.72065 111.209 6.47381 109.96 5.26731C110.497 6.92064 111.285 8.45497 112.194 9.90857C113.095 11.3701 114.141 12.7368 115.286 14.0135C116.434 15.287 117.68 16.4744 119.038 17.5252C120.384 18.5858 121.825 19.5339 123.409 20.2479Z"/>
<path d="M74.3316 32.815C73.4422 30.9816 72.2407 29.3196 70.878 27.8076C69.522 26.2848 67.9693 24.9429 66.3184 23.7423C64.6463 22.5717 62.8711 21.5416 60.9892 20.7569C59.116 19.9612 57.1518 19.3695 55.128 19.129C56.8803 20.1646 58.5974 21.1337 60.2705 22.1585C61.9358 23.1931 63.5744 24.2423 65.1483 25.3858C66.7438 26.4985 68.2708 27.7056 69.7927 28.9416C71.3067 30.1874 72.7822 31.4954 74.3316 32.815Z"/>
<path d="M58.4691 34.5164C57.6091 32.8981 56.4966 31.4464 55.2611 30.1148C54.0333 28.7723 52.6576 27.5674 51.1919 26.4897C49.7226 25.4156 48.1587 24.469 46.5083 23.7034C44.8651 22.9276 43.1451 22.3063 41.3412 21.9773C42.8061 23.0753 44.2745 24.0637 45.7228 25.0677C47.1632 26.0815 48.5917 27.0842 50.0005 28.1172C51.4123 29.146 52.7996 30.2055 54.2019 31.2719C55.5958 32.3477 56.981 33.4498 58.4691 34.5164Z"/>
<path d="M50.5863 38.2701C49.0132 39.1467 47.5354 40.0572 46.0459 40.9333C44.5508 41.7981 43.0669 42.6483 41.5579 43.4572C40.0518 44.27 38.526 45.0426 36.9812 45.8154C35.4308 46.5769 33.8573 47.3122 32.2617 48.1466C34.065 48.1263 35.837 47.7927 37.5528 47.2829C39.2742 46.7843 40.9366 46.083 42.5153 45.233C44.0922 44.3791 45.5914 43.377 46.9542 42.2124C48.3221 41.0586 49.5767 39.7633 50.5863 38.2701Z"/>
<path d="M48.299 34.1258C47.9438 33.0961 47.3966 32.2035 46.7788 31.3749C46.1543 30.5507 45.4436 29.801 44.6666 29.1283C43.8901 28.455 43.0447 27.8612 42.1384 27.3637C41.2285 26.8726 40.2655 26.4615 39.1933 26.2624C39.8035 27.1642 40.4873 27.9111 41.1828 28.6311C41.8825 29.344 42.6023 30.0143 43.348 30.6558C44.0926 31.2975 44.8607 31.9125 45.6682 32.501C46.4821 33.0832 47.3205 33.6512 48.299 34.1258Z"/>
<path d="M41.6102 37.4514C40.2901 38.0459 39.0801 38.7057 37.877 39.3559L30.7102 43.2089C29.5041 43.8543 28.2877 44.5014 27.0649 45.2778C28.5157 45.3099 29.931 45.0612 31.2996 44.6691C32.6736 44.2872 33.9957 43.7347 35.2502 43.0604C36.5031 42.3821 37.6932 41.5843 38.7677 40.647C39.8485 39.7213 40.8366 38.6776 41.6102 37.4514Z"/>
<path d="M40.2971 36.7846C39.1211 34.9282 37.694 33.2567 36.1417 31.7163C34.5965 30.1645 32.8926 28.7781 31.1143 27.5008C29.3137 26.2538 27.4346 25.1176 25.4532 24.1848C23.4801 23.2415 21.4249 22.4616 19.2798 21.9824C21.0865 23.231 22.896 24.3812 24.6796 25.5565C26.4556 26.7427 28.2266 27.9127 29.9526 29.1503C31.7003 30.3571 33.3991 31.6306 35.1141 32.9028C36.8234 34.1856 38.5149 35.5027 40.2971 36.7846Z"/>
<path d="M43.6609 35.9024C43.552 34.5552 43.1393 33.2706 42.5692 32.0681C42.0091 30.8564 41.2621 29.7339 40.3958 28.7186C39.5256 27.7051 38.53 26.7972 37.4173 26.0586C36.3148 25.312 35.1078 24.7092 33.7909 24.3984C34.6671 25.4252 35.5437 26.3366 36.3946 27.256C37.2359 28.184 38.0623 29.0959 38.8636 30.0318C39.6688 30.9649 40.4439 31.9211 41.234 32.8933C42.0149 33.8734 42.7811 34.8794 43.6609 35.9024Z"/>
<path d="M129.778 18.4764C94.9854 32.4015 58.0423 41.8398 20.4366 35.2281C20.1053 35.17 20.1249 34.6044 20.4757 34.6248C41.3503 35.8466 62.3016 35.2569 82.8266 30.9964C98.7134 27.699 114.016 22.3776 129.552 17.7984C129.996 17.6672 130.205 18.3054 129.778 18.4764Z"/>
</mask>
<path d="M139.295 30.3637C135.012 29.6587 130.779 29.1347 126.539 28.9167C122.302 28.7177 118.07 28.7637 113.868 29.1707C109.661 29.5277 105.49 30.2417 101.358 31.1977C97.2257 32.1727 93.1557 33.4467 89.0667 34.9057C92.6397 32.4297 96.6227 30.5407 100.771 29.1467C104.919 27.7327 109.252 26.8677 113.622 26.4487C117.997 26.0807 122.414 26.1537 126.748 26.8017C131.078 27.4307 135.335 28.5727 139.295 30.3637Z" stroke="#5C846A" stroke-opacity="0.2" stroke-width="2" mask="url(#path-1-outside-1_712_51533)"/>
<path d="M125.508 39.8447C121.138 39.7057 116.835 39.6717 112.554 39.8867C108.277 40.1197 104.025 40.5387 99.8207 41.2627C95.6087 41.9367 91.4497 42.9117 87.3257 44.0717C83.2047 45.2497 79.1427 46.6677 75.0487 48.2057C78.6097 45.6607 82.5447 43.6407 86.6437 42.0487C90.7417 40.4387 95.0267 39.3107 99.3727 38.5667C103.727 37.8727 108.148 37.5577 112.545 37.7617C116.94 37.9467 121.315 38.5877 125.508 39.8447Z" stroke="#5C846A" stroke-opacity="0.2" stroke-width="2" mask="url(#path-1-outside-1_712_51533)"/>
<path d="M108.834 49.9837C105.189 50.5597 101.612 51.1177 98.0727 51.8197C94.5397 52.5377 91.0387 53.3357 87.5917 54.3357C84.1317 55.2867 80.7297 56.4347 77.3417 57.6677C73.9577 58.9187 70.6157 60.3087 67.2047 61.7187C70.0267 59.3337 73.1817 57.3647 76.4917 55.7097C79.7977 54.0377 83.2867 52.7337 86.8497 51.7047C90.4267 50.7247 94.0827 50.0147 97.7757 49.7147C101.463 49.3977 105.182 49.4277 108.834 49.9837Z" stroke="#5C846A" stroke-opacity="0.2" stroke-width="2" mask="url(#path-1-outside-1_712_51533)"/>
<path d="M97.5257 59.5807C94.2677 60.6957 91.0677 61.7577 87.9197 62.9317C84.7797 64.1217 81.6767 65.3607 78.6477 66.7697C75.5977 68.1327 72.6257 69.6587 69.6667 71.2467C66.7147 72.8517 63.8127 74.5667 60.8297 76.2887C63.0897 73.6857 65.7207 71.4267 68.5377 69.4357C71.3477 67.4277 74.3787 65.7367 77.5147 64.2827C80.6717 62.8747 83.9377 61.6997 87.2967 60.8997C90.6487 60.0827 94.0787 59.5797 97.5257 59.5807Z" stroke="#5C846A" stroke-opacity="0.2" stroke-width="2" mask="url(#path-1-outside-1_712_51533)"/>
<path d="M84.6387 73.3137C81.1297 75.3047 77.6537 77.2297 74.2457 79.2547C70.8487 81.2937 67.4917 83.3737 64.2367 85.6057C60.9527 87.7957 57.7707 90.1327 54.6117 92.5247C51.4617 94.9307 48.3777 97.4357 45.2187 99.9467C47.5527 96.6517 50.2837 93.6567 53.2317 90.8967C56.1707 88.1217 59.3677 85.6257 62.7067 83.3417C66.0737 81.0997 69.5827 79.0647 73.2547 77.3747C76.9157 75.6697 80.7117 74.2517 84.6387 73.3137Z" stroke="#5C846A" stroke-opacity="0.2" stroke-width="2" mask="url(#path-1-outside-1_712_51533)"/>
<path d="M67.0927 92.0847C63.2637 94.7877 59.5157 97.5007 55.9057 100.373C52.3087 103.258 48.8147 106.249 45.5057 109.438C42.1627 112.591 39.0057 115.936 35.9507 119.39C32.9077 122.857 30.0157 126.468 27.1277 130.16C29.0417 125.877 31.4987 121.842 34.2867 118.053C37.0637 114.25 40.2227 110.729 43.6197 107.46C47.0517 104.228 50.7217 101.243 54.6547 98.6537C58.5757 96.0517 62.7237 93.7917 67.0927 92.0847Z" stroke="#5C846A" stroke-opacity="0.2" stroke-width="2" mask="url(#path-1-outside-1_712_51533)"/>
<path d="M51.9297 115.963C50.0567 118.492 48.0967 120.879 46.1487 123.265C44.2147 125.662 42.2477 128.013 40.3377 130.412L34.5457 137.574C32.6127 139.972 30.6807 142.381 28.5887 144.734C29.7077 141.79 31.1687 139.013 32.8007 136.346C34.4207 133.668 36.2637 131.134 38.2147 128.691C40.2067 126.279 42.3057 123.954 44.5927 121.818C46.8657 119.67 49.2817 117.667 51.9297 115.963Z" stroke="#5C846A" stroke-opacity="0.2" stroke-width="2" mask="url(#path-1-outside-1_712_51533)"/>
<path d="M57.9537 107.916C59.0857 111.337 59.7087 114.913 59.9817 118.513C60.2727 122.116 60.1517 125.749 59.7507 129.346C59.2987 132.937 58.5637 136.497 57.4347 139.931C56.3237 143.366 54.8777 146.696 52.9697 149.754C53.8257 146.257 54.6707 142.832 55.3707 139.387C56.0527 135.941 56.6467 132.495 57.0367 129.022C57.4767 125.555 57.7087 122.065 57.8557 118.555C57.9857 115.043 57.9667 111.516 57.9537 107.916Z" stroke="#5C846A" stroke-opacity="0.2" stroke-width="2" mask="url(#path-1-outside-1_712_51533)"/>
<path d="M74.4877 89.0797C75.1587 92.7947 75.2857 96.5917 75.1087 100.359C74.9487 104.133 74.4217 107.876 73.7337 111.574C72.9947 115.264 72.0917 118.91 70.9717 122.488C69.8687 126.07 68.6087 129.597 67.0857 133.048C67.5097 129.299 68.1927 125.623 68.9017 121.97L71.0507 111.055C71.7797 107.43 72.4077 103.796 72.9937 100.147C73.5617 96.4927 74.0257 92.8227 74.4877 89.0797Z" stroke="#5C846A" stroke-opacity="0.2" stroke-width="2" mask="url(#path-1-outside-1_712_51533)"/>
<path d="M85.4517 73.9677C86.5997 77.6957 87.2577 81.5597 87.5867 85.4497C87.9337 89.3417 87.8877 93.2657 87.5807 97.1647C87.2227 101.06 86.5987 104.934 85.5947 108.711C84.6087 112.488 83.3007 116.184 81.5297 119.661C82.2197 115.824 82.9267 112.057 83.5047 108.279C84.0647 104.5 84.5557 100.725 84.8577 96.9317C85.2097 93.1427 85.3697 89.3397 85.4617 85.5207C85.5367 81.6977 85.4807 77.8657 85.4517 73.9677Z" stroke="#5C846A" stroke-opacity="0.2" stroke-width="2" mask="url(#path-1-outside-1_712_51533)"/>
<path d="M99.0357 62.5307C98.9917 65.3367 98.7717 68.0737 98.5397 70.7997L97.7967 78.9467C97.5067 81.6537 97.2637 84.3647 96.9437 87.0817C96.6407 89.8007 96.3227 92.5277 95.8157 95.2887C95.1837 92.5517 94.9067 89.7767 94.8107 87.0007C94.6977 84.2227 94.8277 81.4447 95.0757 78.6787C95.3747 75.9177 95.7877 73.1677 96.4397 70.4647C97.0757 67.7607 97.8867 65.0927 99.0357 62.5307Z" stroke="#5C846A" stroke-opacity="0.2" stroke-width="2" mask="url(#path-1-outside-1_712_51533)"/>
<path d="M104.413 58.3997C105.138 61.7217 105.881 64.9567 106.793 68.1317C107.722 71.2987 108.76 74.4157 110.02 77.4447C111.233 80.4927 112.664 83.4497 114.208 86.3657C115.769 89.2767 117.492 92.1127 119.287 95.0017C116.635 92.8647 114.353 90.2857 112.391 87.4867C110.412 84.6927 108.8 81.6427 107.487 78.4737C106.221 75.2867 105.247 71.9767 104.717 68.5937C104.172 65.2197 104.007 61.7807 104.413 58.3997Z" stroke="#5C846A" stroke-opacity="0.2" stroke-width="2" mask="url(#path-1-outside-1_712_51533)"/>
<path d="M114.446 50.0847C113.708 51.8567 114.079 53.4977 114.342 55.2377C114.671 57.0077 114.942 58.7737 115.228 60.5337C115.506 62.2957 115.786 64.0567 116.027 65.8467C116.278 67.6357 116.533 69.4357 116.617 71.3487C115.462 69.8227 114.616 68.1337 113.961 66.3807C113.283 64.6327 112.822 62.8097 112.528 60.9617C112.239 59.1117 112.119 57.2387 112.22 55.3617C112.257 54.4097 112.39 53.4167 112.706 52.4567C113.038 51.5117 113.601 50.5767 114.446 50.0847Z" stroke="#5C846A" stroke-opacity="0.2" stroke-width="2" mask="url(#path-1-outside-1_712_51533)"/>
<path d="M123.563 39.2437C124.181 42.0917 124.739 44.8677 125.398 47.6087C126.073 50.3427 126.787 53.0487 127.66 55.7057C128.485 58.3777 129.466 60.9987 130.494 63.6197C131.54 66.2367 132.687 68.8247 133.824 71.5087C131.742 69.4627 130.022 67.0817 128.573 64.5497C127.107 62.0217 125.964 59.3137 125.055 56.5337C124.194 53.7377 123.563 50.8677 123.3 47.9567C123.021 45.0537 123.049 42.1167 123.563 39.2437Z" stroke="#5C846A" stroke-opacity="0.2" stroke-width="2" mask="url(#path-1-outside-1_712_51533)"/>
<path d="M135.321 32.0317C136.239 34.0577 136.924 36.1067 137.551 38.1627C138.194 40.2147 138.738 42.2807 139.243 44.3557C139.742 46.4327 140.198 48.5197 140.562 50.6387C140.941 52.7547 141.263 54.8907 141.366 57.1137C140.177 55.2317 139.277 53.2407 138.506 51.2097C137.719 49.1827 137.095 47.1027 136.586 44.9967C136.083 42.8887 135.69 40.7537 135.469 38.5897C135.231 36.4297 135.124 34.2487 135.321 32.0317Z" stroke="#5C846A" stroke-opacity="0.2" stroke-width="2" mask="url(#path-1-outside-1_712_51533)"/>
<path d="M66.8347 99.7547C67.8957 103.292 68.3497 107 68.4327 110.698C68.5347 114.402 68.2077 118.1 67.6807 121.749C67.1027 125.392 66.3227 128.989 65.3067 132.514C64.3077 136.043 63.1337 139.512 61.6937 142.907C62.0307 139.233 62.6247 135.629 63.2247 132.045C63.8087 128.458 64.4607 124.903 64.9777 121.338C65.5457 117.78 65.9757 114.215 66.3067 110.631C66.6217 107.043 66.7727 103.441 66.8347 99.7547Z" stroke="#5C846A" stroke-opacity="0.2" stroke-width="2" mask="url(#path-1-outside-1_712_51533)"/>
<path d="M51.1477 120.358C51.4547 122.681 51.3707 125.01 51.0777 127.306C50.8007 129.608 50.2717 131.875 49.5607 134.08C48.8437 136.283 47.9377 138.428 46.8107 140.454C45.6987 142.485 44.3957 144.418 42.7797 146.115C43.4037 143.858 44.1397 141.724 44.8567 139.595L46.9607 133.235L49.0007 126.854C49.6717 124.711 50.3297 122.551 51.1477 120.358Z" stroke="#5C846A" stroke-opacity="0.2" stroke-width="2" mask="url(#path-1-outside-1_712_51533)"/>
<path d="M54.0967 112.08C52.0787 113.506 50.0437 114.766 48.0247 116.033L42.0147 119.836L36.0287 123.676C34.0277 124.97 32.0237 126.28 29.8757 127.502C31.2487 125.445 32.9177 123.637 34.7237 121.988C36.5207 120.325 38.4827 118.846 40.5467 117.53C42.6137 116.22 44.7837 115.068 47.0507 114.144C49.3097 113.206 51.6527 112.457 54.0967 112.08Z" stroke="#5C846A" stroke-opacity="0.2" stroke-width="2" mask="url(#path-1-outside-1_712_51533)"/>
<path d="M53.6167 115.004C53.9847 118.495 53.9357 122.004 53.6467 125.49C53.3747 128.98 52.7977 132.441 52.0497 135.86C51.2517 139.269 50.2787 142.639 49.0187 145.906C47.7757 149.175 46.3047 152.362 44.4627 155.351C45.2507 151.932 46.1397 148.599 46.9837 145.263C47.8107 141.924 48.6497 138.602 49.3837 135.256C50.1687 131.921 50.8447 128.562 51.5407 125.193C52.2207 121.82 52.8557 118.429 53.6167 115.004Z" stroke="#5C846A" stroke-opacity="0.2" stroke-width="2" mask="url(#path-1-outside-1_712_51533)"/>
<path d="M51.2177 120.749C49.4267 123.218 47.7567 125.655 46.2157 128.169C44.6917 130.691 43.2477 133.249 41.9097 135.879C40.5277 138.486 39.2497 141.161 37.8937 143.823C36.5527 146.492 35.1897 149.175 33.5777 151.768C34.1277 148.766 34.9407 145.856 35.9267 142.995C36.8977 140.128 38.0997 137.334 39.4847 134.618C40.9147 131.927 42.5307 129.307 44.4827 126.937C46.4157 124.562 48.6427 122.398 51.2177 120.749Z" stroke="#5C846A" stroke-opacity="0.2" stroke-width="2" mask="url(#path-1-outside-1_712_51533)"/>
<path d="M61.8157 105.656C62.5017 108.579 62.8117 111.553 62.9197 114.531C63.0447 117.51 62.9027 120.493 62.6237 123.46C62.2937 126.422 61.8237 129.37 61.0927 132.261C60.3797 135.153 59.4667 138.001 58.1947 140.722C58.3617 137.725 58.6807 134.804 58.9917 131.89C59.2847 128.975 59.6297 126.081 59.9057 123.178C60.2327 120.281 60.4857 117.377 60.7957 114.464C61.0867 111.549 61.3697 108.624 61.8157 105.656Z" stroke="#5C846A" stroke-opacity="0.2" stroke-width="2" mask="url(#path-1-outside-1_712_51533)"/>
<path d="M61.6147 101.226C58.9927 101.561 56.4077 101.652 53.8567 101.775C51.3057 101.914 48.7857 102.02 46.3027 102.315C43.8177 102.56 41.3667 102.995 38.9397 103.584C36.5137 104.194 34.1367 105.006 31.7117 106.05C33.4777 104.072 35.7947 102.6 38.2577 101.562C40.7247 100.501 43.3647 99.9067 46.0097 99.5977C48.6607 99.3387 51.3147 99.3507 53.9227 99.6497C56.5307 99.9317 59.0947 100.434 61.6147 101.226Z" stroke="#5C846A" stroke-opacity="0.2" stroke-width="2" mask="url(#path-1-outside-1_712_51533)"/>
<path d="M76.0497 84.3597C73.6807 84.5197 71.7257 85.4547 69.6747 86.3997C67.6207 87.3897 65.5477 88.3297 63.4757 89.2577C61.4027 90.1867 59.3247 91.1017 57.2107 91.9777C55.1007 92.8617 52.9767 93.7397 50.7167 94.4567C52.3807 92.7687 54.2507 91.3507 56.2137 90.0907C58.1667 88.8107 60.2337 87.7177 62.3597 86.7617C64.4927 85.8177 66.6797 85.0067 68.9437 84.4027C70.0787 84.0847 71.2747 83.8477 72.4927 83.7747C73.7087 83.7287 74.9667 83.8487 76.0497 84.3597Z" stroke="#5C846A" stroke-opacity="0.2" stroke-width="2" mask="url(#path-1-outside-1_712_51533)"/>
<path d="M86.3167 70.7777C83.3427 71.7007 80.4297 72.5587 77.5607 73.5157C74.6997 74.4887 71.8697 75.4997 69.1027 76.6687C66.3167 77.7907 63.5957 79.0657 60.8787 80.3897C58.1677 81.7307 55.4957 83.1717 52.7317 84.6077C54.7977 82.2717 57.2177 80.2767 59.8077 78.5437C62.3927 76.7927 65.1807 75.3527 68.0617 74.1417C70.9607 72.9767 73.9547 72.0357 77.0227 71.4587C80.0837 70.8667 83.2057 70.5777 86.3167 70.7777Z" stroke="#5C846A" stroke-opacity="0.2" stroke-width="2" mask="url(#path-1-outside-1_712_51533)"/>
<path d="M80.1667 82.1557C81.0797 85.3097 81.5677 88.5607 81.7987 91.8247C82.0477 95.0917 81.9747 98.3777 81.7107 101.644C81.3957 104.906 80.8867 108.153 80.0647 111.325C79.2607 114.498 78.2037 117.61 76.7447 120.552C77.1107 117.291 77.5697 114.109 77.9677 110.928C78.3487 107.746 78.7287 104.58 78.9877 101.401C79.2977 98.2267 79.4837 95.0427 79.6727 91.8437C79.8447 88.6437 79.9537 85.4297 80.1667 82.1557Z" stroke="#5C846A" stroke-opacity="0.2" stroke-width="2" mask="url(#path-1-outside-1_712_51533)"/>
<path d="M91.6697 68.3537C92.7207 70.9147 93.3687 73.6037 93.7757 76.3257C94.1997 79.0487 94.3177 81.8117 94.2577 84.5667C94.1467 87.3207 93.8527 90.0697 93.2577 92.7607C92.6797 95.4517 91.8607 98.0947 90.6457 100.583C90.7547 97.8197 90.9727 95.1387 91.1437 92.4657C91.2977 89.7927 91.4647 87.1387 91.5257 84.4797C91.6377 81.8217 91.6387 79.1627 91.6557 76.4857C91.6557 73.8067 91.6067 71.1177 91.6697 68.3537Z" stroke="#5C846A" stroke-opacity="0.2" stroke-width="2" mask="url(#path-1-outside-1_712_51533)"/>
<path d="M101.783 55.5397C98.6807 55.9327 95.6237 56.1697 92.5757 56.4197C89.5297 56.6877 86.4947 56.9037 83.4647 57.1987C80.4307 57.4427 77.4047 57.7597 74.3587 58.0297C71.3147 58.3177 68.2627 58.6177 65.1397 58.7707C68.0037 57.5097 70.9907 56.6137 74.0197 55.9227C77.0477 55.2147 80.1307 54.7727 83.2247 54.4757C86.3237 54.2297 89.4357 54.1257 92.5407 54.2937C95.6447 54.4447 98.7427 54.8027 101.783 55.5397Z" stroke="#5C846A" stroke-opacity="0.2" stroke-width="2" mask="url(#path-1-outside-1_712_51533)"/>
<path d="M113.98 45.4677C110.916 45.9027 107.911 46.2357 104.923 46.6317C101.939 47.0457 98.9717 47.4587 96.0247 47.9997C93.0687 48.4897 90.1367 49.1027 87.1887 49.7217C84.2427 50.3577 81.3017 51.0587 78.2697 51.6807C80.8737 50.0027 83.6947 48.7117 86.6007 47.6697C89.5047 46.6107 92.5137 45.8597 95.5557 45.3067C98.6067 44.8037 101.693 44.4937 104.784 44.5107C107.871 44.5097 110.962 44.7717 113.98 45.4677Z" stroke="#5C846A" stroke-opacity="0.2" stroke-width="2" mask="url(#path-1-outside-1_712_51533)"/>
<path d="M125.595 36.6997C121.6 36.6467 117.652 36.3397 113.724 36.0577C109.794 35.7927 105.889 35.4877 101.989 35.3797C98.0907 35.2217 94.2017 35.2577 90.3157 35.4927C86.4277 35.7457 82.5567 36.2577 78.6327 37.0047C82.1917 35.1767 86.1017 34.0347 90.0667 33.3727C94.0387 32.6897 98.0787 32.5327 102.083 32.6477C106.088 32.8137 110.065 33.2447 113.984 33.9477C117.907 34.6337 121.777 35.5287 125.595 36.6997Z" stroke="#5C846A" stroke-opacity="0.2" stroke-width="2" mask="url(#path-1-outside-1_712_51533)"/>
<path d="M120.919 42.1087L120.674 50.5267C120.647 53.2967 120.644 56.0497 120.79 58.7977C120.885 61.5477 121.125 64.2897 121.391 67.0467L122.356 75.4137C120.959 72.9077 119.984 70.1957 119.29 67.4187C118.579 64.6407 118.207 61.7817 118.06 58.9157C117.963 56.0477 118.087 53.1677 118.557 50.3387C119.009 47.5117 119.746 44.7267 120.919 42.1087Z" stroke="#5C846A" stroke-opacity="0.2" stroke-width="2" mask="url(#path-1-outside-1_712_51533)"/>
<path d="M129.137 35.9867C129.542 38.7787 129.919 41.4837 130.421 44.1537C130.941 46.8177 131.522 49.4487 132.286 52.0297C133.001 54.6257 133.895 57.1667 134.858 59.7037C135.84 62.2367 136.944 64.7337 138.069 67.3217C136.009 65.3857 134.321 63.0837 132.93 60.6187C131.521 58.1577 130.459 55.5037 129.657 52.7787C128.904 50.0397 128.407 47.2257 128.308 44.3907C128.192 41.5637 128.411 38.7177 129.137 35.9867Z" stroke="#5C846A" stroke-opacity="0.2" stroke-width="2" mask="url(#path-1-outside-1_712_51533)"/>
<path d="M108.013 52.4307C108.984 55.0767 109.836 57.6837 110.74 60.2617C111.66 62.8317 112.568 65.3877 113.59 67.9007C114.564 70.4317 115.647 72.9187 116.732 75.4237C117.834 77.9227 118.992 80.4087 120.088 83.0067C118.052 81.0517 116.34 78.8057 114.848 76.4257C113.34 74.0517 112.104 71.5127 111.049 68.9047C110.041 66.2787 109.209 63.5807 108.689 60.8157C108.152 58.0587 107.866 55.2487 108.013 52.4307Z" stroke="#5C846A" stroke-opacity="0.2" stroke-width="2" mask="url(#path-1-outside-1_712_51533)"/>
<path d="M101.085 60.7707C101.858 63.6747 102.368 66.5917 102.856 69.4907C103.361 72.3877 103.779 75.2757 104.31 78.1317C104.791 80.9967 105.379 83.8287 106.037 86.6547C106.713 89.4797 107.512 92.2747 108.389 95.1477C106.502 92.8027 105.088 90.0997 104.001 87.2927C102.894 84.4857 102.162 81.5517 101.619 78.6057C101.126 75.6487 100.815 72.6757 100.741 69.6987C100.649 66.7237 100.73 63.7537 101.085 60.7707Z" stroke="#5C846A" stroke-opacity="0.2" stroke-width="2" mask="url(#path-1-outside-1_712_51533)"/>
<path d="M140.537 33.2147C141.612 35.4147 142.497 37.6217 143.366 39.8237C144.251 42.0197 145.08 44.2187 145.915 46.4167C146.744 48.6177 147.573 50.8157 148.36 53.0497C149.162 55.2767 149.954 57.5187 150.597 59.8817C148.954 58.0637 147.606 56.0437 146.42 53.9397C145.219 51.8417 144.21 49.6397 143.357 47.3817C142.51 45.1207 141.812 42.8027 141.329 40.4337C140.831 38.0707 140.507 35.6647 140.537 33.2147Z" stroke="#5C846A" stroke-opacity="0.2" stroke-width="2" mask="url(#path-1-outside-1_712_51533)"/>
<path d="M140.962 24.6847C139.212 24.1887 137.601 23.6407 135.992 23.1397C134.378 22.6557 132.792 22.1877 131.188 21.7767C129.585 21.3597 127.972 20.9977 126.327 20.6367C124.677 20.2937 123.004 19.9877 121.233 19.5677C122.912 18.8527 124.713 18.5547 126.512 18.5107C128.316 18.4497 130.126 18.6777 131.875 19.1297C133.622 19.5877 135.315 20.2677 136.861 21.1987C138.411 22.1127 139.841 23.2467 140.962 24.6847Z" stroke="#5C846A" stroke-opacity="0.2" stroke-width="2" mask="url(#path-1-outside-1_712_51533)"/>
<path d="M146.117 23.0947C142.774 22.3717 139.527 21.4687 136.286 20.6457C133.042 19.8397 129.819 19.0517 126.565 18.5047C123.323 17.9087 120.05 17.5537 116.755 17.4077C113.456 17.2817 110.144 17.4237 106.748 17.8167C109.834 16.3247 113.265 15.5477 116.708 15.2747C120.161 14.9817 123.64 15.2367 127.041 15.8137C130.433 16.4407 133.75 17.3767 136.932 18.6207C140.12 19.8477 143.194 21.3207 146.117 23.0947Z" stroke="#5C846A" stroke-opacity="0.2" stroke-width="2" mask="url(#path-1-outside-1_712_51533)"/>
<path d="M132.369 32.6757C129.286 32.3197 126.286 31.9117 123.286 31.5987C120.286 31.3027 117.3 31.0387 114.305 30.9297C111.313 30.7697 108.315 30.7627 105.301 30.7857C102.285 30.8267 99.2597 30.9597 96.1567 31.0317C99.0287 29.8447 102.06 29.1057 105.13 28.6587C108.202 28.1937 111.322 28.0817 114.429 28.1997C117.534 28.3677 120.63 28.7627 123.647 29.5037C126.664 30.2267 129.616 31.2367 132.369 32.6757Z" stroke="#5C846A" stroke-opacity="0.2" stroke-width="2" mask="url(#path-1-outside-1_712_51533)"/>
<path d="M113.833 43.7517C111.196 44.1147 108.64 44.4107 106.109 44.7957C103.583 45.1977 101.081 45.6267 98.6107 46.2047C96.1297 46.7337 93.6827 47.4077 91.2257 48.1167C88.7707 48.8437 86.3317 49.6597 83.7877 50.4477C85.7727 48.6667 88.0557 47.2597 90.4617 46.1237C92.8647 44.9697 95.4167 44.1397 98.0167 43.5367C100.627 42.9827 103.29 42.6497 105.955 42.6747C108.615 42.6827 111.279 42.9857 113.833 43.7517Z" stroke="#5C846A" stroke-opacity="0.2" stroke-width="2" mask="url(#path-1-outside-1_712_51533)"/>
<path d="M101.376 55.6157C98.3247 56.0467 95.3427 56.4137 92.3857 56.8767C89.4337 57.3577 86.5057 57.8717 83.6097 58.5437C80.7037 59.1657 77.8327 59.9417 74.9567 60.7587C72.0827 61.5927 69.2267 62.5237 66.2787 63.4237C68.7017 61.5127 71.4047 59.9937 74.2257 58.7527C77.0447 57.4937 80.0057 56.5687 83.0157 55.8747C86.0367 55.2297 89.1117 54.8127 92.1977 54.7577C95.2797 54.6877 98.3717 54.9147 101.376 55.6157Z" stroke="#5C846A" stroke-opacity="0.2" stroke-width="2" mask="url(#path-1-outside-1_712_51533)"/>
<path d="M95.8357 62.4937C92.7667 63.9237 89.6337 65.0967 86.5167 66.2537C83.4047 67.4277 80.2867 68.5227 77.2277 69.7387C74.1497 70.9067 71.1317 72.1917 68.1457 73.5657C65.1637 74.9577 62.2477 76.4897 59.2927 78.1377C61.5367 75.5977 64.2437 73.4817 67.1267 71.6907C70.0067 69.8787 73.0957 68.4357 76.2397 67.1907C79.4037 65.9927 82.6257 64.9867 85.8997 64.2197C89.1677 63.4367 92.4687 62.8307 95.8357 62.4937Z" stroke="#5C846A" stroke-opacity="0.2" stroke-width="2" mask="url(#path-1-outside-1_712_51533)"/>
<path d="M100.876 57.0847L101.523 64.6047C101.769 67.0717 102.04 69.5117 102.395 71.9437C102.744 74.3767 103.17 76.7947 103.63 79.2297C104.107 81.6627 104.65 84.0947 105.124 86.6287C103.602 84.5427 102.462 82.2197 101.575 79.8077C100.672 77.3977 100.056 74.8817 99.6877 72.3327C99.3257 69.7827 99.2077 67.1947 99.3957 64.6287C99.5677 62.0657 100.006 59.5147 100.876 57.0847Z" stroke="#5C846A" stroke-opacity="0.2" stroke-width="2" mask="url(#path-1-outside-1_712_51533)"/>
<path d="M110.217 53.2027C110.803 55.5517 111.237 57.8517 111.69 60.1367L113.093 66.9417L114.586 73.7267C115.103 75.9977 115.642 78.2757 116.061 80.6607C114.597 78.7277 113.473 76.5917 112.554 74.3767C111.618 72.1657 110.92 69.8577 110.419 67.5097C109.924 65.1607 109.621 62.7687 109.577 60.3687C109.515 57.9727 109.67 55.5637 110.217 53.2027Z" stroke="#5C846A" stroke-opacity="0.2" stroke-width="2" mask="url(#path-1-outside-1_712_51533)"/>
<path d="M120.355 44.0817L121.569 51.1007C122.017 53.3907 122.503 55.6467 123.085 57.8817C123.661 60.1177 124.327 62.3277 125.044 64.5477L127.375 71.2797C125.625 69.5687 124.225 67.5447 123.083 65.3897C121.924 63.2397 121.051 60.9337 120.438 58.5657C119.831 56.1957 119.479 53.7567 119.454 51.3137C119.411 48.8737 119.654 46.4257 120.355 44.0817Z" stroke="#5C846A" stroke-opacity="0.2" stroke-width="2" mask="url(#path-1-outside-1_712_51533)"/>
<path d="M130.892 35.1147C131.675 36.9347 132.266 38.7317 132.842 40.5217C133.434 42.3067 133.968 44.0867 134.507 45.8667C135.04 47.6487 135.572 49.4287 136.061 51.2447C136.566 53.0557 137.059 54.8837 137.403 56.8347C136.04 55.3927 134.976 53.7517 134.077 52.0327C133.162 50.3187 132.446 48.5077 131.888 46.6517C131.336 44.7937 130.938 42.8867 130.76 40.9527C130.567 39.0237 130.551 37.0677 130.892 35.1147Z" stroke="#5C846A" stroke-opacity="0.2" stroke-width="2" mask="url(#path-1-outside-1_712_51533)"/>
<path d="M142.755 25.8117C143.435 28.0637 143.942 30.2817 144.449 32.4887L145.958 39.0727L147.446 45.6607C147.943 47.8697 148.442 50.0897 148.799 52.4157C147.391 50.5267 146.31 48.4547 145.414 46.3107C144.502 44.1707 143.809 41.9437 143.293 39.6777C142.783 37.4107 142.445 35.1027 142.345 32.7787C142.226 30.4587 142.305 28.1227 142.755 25.8117Z" stroke="#5C846A" stroke-opacity="0.2" stroke-width="2" mask="url(#path-1-outside-1_712_51533)"/>
<path d="M90.4367 70.2647C91.7687 72.6837 92.6667 75.3137 93.2727 78.0047C93.8957 80.6967 94.1647 83.4647 94.2007 86.2307C94.1867 88.9967 93.9367 91.7667 93.3317 94.4627C92.7457 97.1577 91.8627 99.7937 90.5447 102.221C90.7707 99.4717 91.0427 96.8137 91.2187 94.1607C91.3777 91.5087 91.4997 88.8747 91.4667 86.2387C91.4847 83.6027 91.3447 80.9687 91.1687 78.3177C90.9757 75.6677 90.6837 73.0117 90.4367 70.2647Z" stroke="#5C846A" stroke-opacity="0.2" stroke-width="2" mask="url(#path-1-outside-1_712_51533)"/>
<path d="M76.1357 86.4787C77.2527 88.6967 77.9877 91.0637 78.4937 93.4727C79.0177 95.8817 79.2737 98.3467 79.3187 100.812C79.3567 103.278 79.1797 105.749 78.7347 108.174C78.3067 110.599 77.6477 112.988 76.5997 115.241C76.5317 112.761 76.5877 110.363 76.6107 107.975C76.6167 105.588 76.6257 103.223 76.5857 100.856C76.5527 98.4887 76.4667 96.1247 76.3847 93.7387C76.2857 91.3547 76.1507 88.9597 76.1357 86.4787Z" stroke="#5C846A" stroke-opacity="0.2" stroke-width="2" mask="url(#path-1-outside-1_712_51533)"/>
<path d="M65.8127 92.2607C63.6117 93.3147 61.4477 94.2367 59.3127 95.1987C57.1857 96.1757 55.0837 97.1517 53.0077 98.1877C50.9297 99.2177 48.8807 100.301 46.8167 101.405C44.7607 102.524 42.7157 103.689 40.5437 104.801C41.9777 102.822 43.7337 101.123 45.6407 99.6237C47.5397 98.1097 49.6167 96.8197 51.7927 95.7387C53.9717 94.6627 56.2537 93.7887 58.6087 93.1927C60.9557 92.5827 63.3707 92.2087 65.8127 92.2607Z" stroke="#5C846A" stroke-opacity="0.2" stroke-width="2" mask="url(#path-1-outside-1_712_51533)"/>
<path d="M68.6097 98.0357C69.4707 99.2347 70.0297 100.539 70.4627 101.871C70.8857 103.207 71.1587 104.58 71.2947 105.966C71.4317 107.352 71.4267 108.752 71.2677 110.144C71.0987 111.535 70.7997 112.922 70.1807 114.264C69.6607 112.883 69.3697 111.542 69.1177 110.209C68.8767 108.877 68.6987 107.556 68.5727 106.229C68.4457 104.903 68.3667 103.572 68.3477 102.218C68.3407 100.862 68.3687 99.4897 68.6097 98.0357Z" stroke="#5C846A" stroke-opacity="0.2" stroke-width="2" mask="url(#path-1-outside-1_712_51533)"/>
<path d="M59.6947 102.832C58.0037 103.827 56.3267 104.649 54.6657 105.471L44.7937 110.383C43.1357 111.212 41.4677 112.051 39.6517 112.796C40.7517 111.166 42.1347 109.795 43.6397 108.588C45.1377 107.367 46.7837 106.337 48.5117 105.477C50.2427 104.622 52.0567 103.93 53.9347 103.475C55.8047 103.004 57.7327 102.728 59.6947 102.832Z" stroke="#5C846A" stroke-opacity="0.2" stroke-width="2" mask="url(#path-1-outside-1_712_51533)"/>
<path d="M59.4077 104.808C60.5407 107.562 61.2727 110.449 61.7617 113.372C62.2687 116.296 62.4687 119.266 62.4897 122.233C62.4597 125.201 62.2457 128.169 61.7267 131.091C61.2257 134.012 60.4797 136.896 59.3307 139.644C59.3637 136.668 59.5077 133.766 59.6037 130.873C59.6817 127.98 59.7737 125.105 59.7557 122.227C59.7887 119.349 59.7097 116.473 59.6447 113.58C59.5637 110.685 59.4307 107.783 59.4077 104.808Z" stroke="#5C846A" stroke-opacity="0.2" stroke-width="2" mask="url(#path-1-outside-1_712_51533)"/>
<path d="M63.0167 101.777C64.4217 102.952 65.5197 104.414 66.4037 105.986C67.3057 107.554 67.9627 109.259 68.4077 111.012C68.8477 112.768 69.0727 114.58 69.0187 116.389C68.9817 118.193 68.7037 120 68.0167 121.7C67.5667 119.927 67.2447 118.244 66.8937 116.583C66.5257 114.926 66.1637 113.298 65.7557 111.679C65.3537 110.058 64.9027 108.452 64.4457 106.817C63.9727 105.186 63.4597 103.551 63.0167 101.777Z" stroke="#5C846A" stroke-opacity="0.2" stroke-width="2" mask="url(#path-1-outside-1_712_51533)"/>
<path d="M149.701 20.1537C107.063 47.7417 67.7047 81.2207 45.5827 127.996C45.3877 128.408 46.0287 128.829 46.2807 128.425C61.2687 104.377 78.3207 81.6617 99.0997 62.2917C115.183 47.2987 133.048 34.5357 150.274 20.9347C150.767 20.5457 150.224 19.8157 149.701 20.1537Z" stroke="#5C846A" stroke-opacity="0.2" stroke-width="2" mask="url(#path-1-outside-1_712_51533)"/>
<path d="M119.192 20.3916C117.791 23.2721 116.303 26.0453 114.627 28.6923C112.941 31.3294 111.109 33.8591 109.073 36.2168C107.065 38.5989 104.857 40.807 102.519 42.8886C100.171 44.962 97.6686 46.8707 95.0469 48.7119C98.0613 47.615 100.897 46.0209 103.505 44.1164C106.125 42.2204 108.493 39.979 110.608 37.5252C112.694 35.0467 114.533 32.3549 115.99 29.4679C117.457 26.5915 118.583 23.5404 119.192 20.3916Z" stroke="#5C846A" stroke-opacity="0.2" stroke-width="2" mask="url(#path-1-outside-1_712_51533)"/>
<path d="M107.605 24.6547C105.826 27.3463 104.012 29.9529 102.058 32.44C100.094 34.9171 98.0295 37.2998 95.8015 39.5236C93.6001 41.7735 91.2401 43.8632 88.7835 45.853C86.3173 47.8333 83.7318 49.6758 81.0603 51.4864C84.1112 50.4261 87.0052 48.9167 89.7114 47.1261C92.428 45.3438 94.9339 43.2434 97.2345 40.9426C99.5084 38.6157 101.583 36.0868 103.334 33.3512C105.096 30.6249 106.575 27.7162 107.605 24.6547Z" stroke="#5C846A" stroke-opacity="0.2" stroke-width="2" mask="url(#path-1-outside-1_712_51533)"/>
<path d="M94.39 30.3768C92.4894 32.3269 90.6286 34.2438 88.6972 36.0764C86.7588 37.8985 84.7858 39.6673 82.7142 41.3175C80.6665 42.9964 78.5249 44.5564 76.3381 46.0717C74.1421 47.5769 71.8803 48.9975 69.577 50.4513C72.2165 49.7679 74.7474 48.7067 77.1552 47.4182C79.5716 46.1395 81.8442 44.5936 83.9828 42.8859C86.0978 41.1489 88.0838 39.2492 89.8387 37.1525C91.6012 35.0667 93.1683 32.8136 94.39 30.3768Z" stroke="#5C846A" stroke-opacity="0.2" stroke-width="2" mask="url(#path-1-outside-1_712_51533)"/>
<path d="M83.7894 33.0968C81.729 34.5841 79.7253 36.0591 77.6763 37.4549C75.6211 38.8392 73.5521 40.1803 71.4123 41.4043C69.2912 42.6606 67.1052 43.8004 64.8873 44.906C62.6622 46.0001 60.3922 47.0172 58.0834 48.0801C60.6147 47.8282 63.097 47.2062 65.497 46.358C67.9043 45.5212 70.2149 44.4162 72.4275 43.1468C74.6213 41.8453 76.7212 40.3787 78.6348 38.6963C80.5557 37.0254 82.3207 35.1736 83.7894 33.0968Z" stroke="#5C846A" stroke-opacity="0.2" stroke-width="2" mask="url(#path-1-outside-1_712_51533)"/>
<path d="M70.0241 35.0066C67.3291 36.2717 64.6879 37.5451 62.0155 38.7349C59.3393 39.912 56.6554 41.0476 53.9235 42.057C51.2045 43.1017 48.4404 44.0224 45.653 44.9057C42.861 45.7777 40.0375 46.5677 37.1785 47.4003C40.1582 47.3988 43.1264 47.0303 46.0455 46.431C48.9698 45.8434 51.8361 44.9815 54.6351 43.9437C57.4208 42.8711 60.1424 41.6247 62.7255 40.1331C65.3131 38.6546 67.7852 36.9724 70.0241 35.0066Z" stroke="#5C846A" stroke-opacity="0.2" stroke-width="2" mask="url(#path-1-outside-1_712_51533)"/>
<path d="M51.2376 37.5759C47.9772 38.7303 44.7454 39.8316 41.4767 40.7821C38.2056 41.7191 34.9146 42.5489 31.5832 43.1829C28.2589 43.8527 24.8983 44.3287 21.5155 44.6967C18.13 45.0519 14.7221 45.2549 11.2671 45.4208C14.663 46.0935 18.1408 46.3333 21.6116 46.2689C25.0862 46.2171 28.5536 45.815 31.9708 45.1621C35.3805 44.4724 38.7429 43.534 41.9789 42.2683C45.2176 41.0155 48.347 39.4801 51.2376 37.5759Z" stroke="#5C846A" stroke-opacity="0.2" stroke-width="2" mask="url(#path-1-outside-1_712_51533)"/>
<path d="M30.3909 36.532C28.0692 36.5823 25.7959 36.7455 23.5283 36.9019C21.26 37.0452 19.0054 37.228 16.7461 37.356L9.9631 37.7922C7.69467 37.9345 5.42003 38.0715 3.11093 38.3287C5.3613 38.9095 7.65686 39.2131 9.95903 39.3668C12.2627 39.5324 14.5747 39.5023 16.8779 39.3684C19.1799 39.1965 21.4752 38.9232 23.7367 38.456C25.9994 38.0023 28.2358 37.4008 30.3909 36.532Z" stroke="#5C846A" stroke-opacity="0.2" stroke-width="2" mask="url(#path-1-outside-1_712_51533)"/>
<path d="M37.805 36.3356C36.2268 34.1956 34.3383 32.296 32.2861 30.5971C30.2397 28.8861 27.9997 27.4104 25.662 26.1188C23.3062 24.8604 20.8484 23.7857 18.2986 23.0021C15.7559 22.2072 13.1336 21.6588 10.4783 21.5047C12.9497 22.4797 15.373 23.4305 17.7466 24.4773C20.1131 25.5353 22.442 26.6463 24.7003 27.8917C26.9763 29.1045 29.1775 30.4523 31.3546 31.8599C33.5255 33.2785 35.642 34.7933 37.805 36.3356Z" stroke="#5C846A" stroke-opacity="0.2" stroke-width="2" mask="url(#path-1-outside-1_712_51533)"/>
<path d="M56.1996 34.4011C54.2477 32.4135 52.0146 30.7185 49.67 29.2195C47.3284 27.7072 44.8491 26.4292 42.3282 25.2674C39.7905 24.1397 37.2093 23.1296 34.5766 22.2792C31.9487 21.4168 29.2871 20.6724 26.5591 20.1189C28.9981 21.4615 31.5036 22.6169 34.0063 23.7469L41.4973 27.1048C43.9916 28.2108 46.4483 29.3815 48.8962 30.5839C51.3394 31.7992 53.7479 33.084 56.1996 34.4011Z" stroke="#5C846A" stroke-opacity="0.2" stroke-width="2" mask="url(#path-1-outside-1_712_51533)"/>
<path d="M69.9758 34.2398C68.2194 31.9593 66.1723 29.9159 63.9693 28.0596C61.7727 26.1917 59.3893 24.5468 56.9098 23.0698C54.4109 21.6252 51.8114 20.3499 49.1082 19.3447C46.4128 18.3288 43.6288 17.5413 40.7795 17.126C43.3849 18.3459 45.9554 19.5257 48.4776 20.7878C50.9927 22.0613 53.476 23.3746 55.8895 24.8094C58.322 26.2124 60.681 27.737 63.0207 29.3094C65.3556 30.8938 67.64 32.5609 69.9758 34.2398Z" stroke="#5C846A" stroke-opacity="0.2" stroke-width="2" mask="url(#path-1-outside-1_712_51533)"/>
<path d="M82.6556 30.9301C80.9465 29.7606 79.204 28.7265 77.4631 27.7043L72.2388 24.6793C70.4845 23.7001 68.7479 22.6909 66.9748 21.7256C65.2078 20.7492 63.4296 19.7784 61.5503 18.9069C62.9296 20.4543 64.4832 21.8039 66.1145 23.045C67.7397 24.2972 69.4685 25.403 71.2404 26.4326C73.031 27.4293 74.8636 28.3527 76.7698 29.1121C78.6697 29.8815 80.6225 30.5302 82.6556 30.9301Z" stroke="#5C846A" stroke-opacity="0.2" stroke-width="2" mask="url(#path-1-outside-1_712_51533)"/>
<path d="M87.4361 29.452C85.744 27.5992 84.112 25.7728 82.5882 23.8701C81.0764 21.9606 79.6413 20.0067 78.3537 17.9566C77.0347 15.9267 75.8634 13.8043 74.765 11.6313C73.6768 9.45023 72.7029 7.2035 71.7277 4.89081C71.8846 7.39921 72.4655 9.87312 73.3152 12.248C74.1548 14.6311 75.3049 16.9021 76.6542 19.0438C78.0344 21.1649 79.6131 23.1625 81.425 24.9237C83.2251 26.6902 85.2264 28.2554 87.4361 29.452Z" stroke="#5C846A" stroke-opacity="0.2" stroke-width="2" mask="url(#path-1-outside-1_712_51533)"/>
<path d="M96.7217 26.9505C95.3397 26.6398 94.5094 25.7168 93.5733 24.8167C92.6473 23.8641 91.6991 22.9481 90.7608 22.0256C89.8179 21.1071 88.8764 20.1879 87.9009 19.2797C86.9302 18.366 85.9546 17.4451 84.8381 16.5791C85.265 17.9253 85.9218 19.1549 86.6986 20.2966C87.4626 21.4501 88.3642 22.5048 89.3521 23.4696C90.3433 24.4323 91.4204 25.3029 92.5942 26.0421C93.1834 26.4256 93.8382 26.7688 94.5512 26.9876C95.262 27.1904 96.0652 27.2498 96.7217 26.9505Z" stroke="#5C846A" stroke-opacity="0.2" stroke-width="2" mask="url(#path-1-outside-1_712_51533)"/>
<path d="M107.138 26.0813C105.686 24.4951 104.251 22.9758 102.881 21.4105C101.522 19.8385 100.196 18.255 98.968 16.5966C97.71 14.9607 96.5493 13.2526 95.4087 11.5161C94.2781 9.77058 93.2081 7.97652 92.0759 6.14758C92.4209 8.27383 93.1221 10.3248 94.0297 12.2769C94.9276 14.2375 96.0717 16.0803 97.3588 17.8129C98.6761 19.5233 100.136 21.1267 101.777 22.5259C103.407 23.9314 105.188 25.1664 107.138 26.0813Z" stroke="#5C846A" stroke-opacity="0.2" stroke-width="2" mask="url(#path-1-outside-1_712_51533)"/>
<path d="M116.494 22.0746C115.665 20.658 114.722 19.372 113.751 18.118C112.789 16.856 111.776 15.6477 110.742 14.459C109.703 13.2732 108.641 12.1089 107.519 10.9864C106.406 9.85619 105.257 8.75176 103.962 7.74218C104.588 9.2606 105.404 10.6514 106.299 11.9815C107.185 13.3196 108.171 14.5821 109.223 15.7863C110.279 16.9879 111.397 18.1346 112.606 19.1901C113.806 20.2542 115.074 21.2483 116.494 22.0746Z" stroke="#5C846A" stroke-opacity="0.2" stroke-width="2" mask="url(#path-1-outside-1_712_51533)"/>
<path d="M46.5076 34.4603C44.8292 32.3135 42.7891 30.4595 40.5969 28.8333C38.4091 27.193 36.0421 25.8138 33.6194 24.5759C31.1786 23.3712 28.6793 22.3079 26.1229 21.4174C23.5713 20.515 20.9812 19.7435 18.3224 19.1639C20.6791 20.5269 23.1033 21.7053 25.518 22.8715C27.9276 24.0486 30.347 25.1712 32.7149 26.3793C35.1002 27.5537 37.431 28.8143 39.731 30.1425C42.0266 31.4821 44.2608 32.9265 46.5076 34.4603Z" stroke="#5C846A" stroke-opacity="0.2" stroke-width="2" mask="url(#path-1-outside-1_712_51533)"/>
<path d="M27.4094 35.1307C26.1409 33.9556 24.7022 33.0135 23.1942 32.2113C21.6895 31.397 20.0984 30.7493 18.4671 30.2378C16.8345 29.7307 15.1562 29.3621 13.4554 29.1774C11.758 28.9816 10.0382 28.9426 8.32711 29.1927C9.95266 29.7788 11.5519 30.2451 13.1399 30.7206L17.8679 32.1641L22.5812 33.6551C24.1581 34.1644 25.7397 34.6887 27.4094 35.1307Z" stroke="#5C846A" stroke-opacity="0.2" stroke-width="2" mask="url(#path-1-outside-1_712_51533)"/>
<path d="M33.6535 36.8814C31.9344 37.4892 30.308 38.178 28.6842 38.8541L23.8316 40.8535L18.967 42.8225C17.3346 43.4763 15.6913 44.1251 14.0396 44.8982C15.8639 44.9479 17.6644 44.7131 19.4275 44.3281C21.1953 43.9545 22.9225 43.403 24.595 42.7207C26.2651 42.0339 27.884 41.2178 29.4069 40.246C30.9348 39.2851 32.3847 38.193 33.6535 36.8814Z" stroke="#5C846A" stroke-opacity="0.2" stroke-width="2" mask="url(#path-1-outside-1_712_51533)"/>
<path d="M31.6876 35.9238C29.7415 34.2141 27.6069 32.7479 25.3838 31.4361C23.1656 30.1124 20.8348 28.9847 18.4564 27.978C16.0628 27.0056 13.618 26.1553 11.113 25.5218C8.61395 24.8771 6.06717 24.4048 3.48151 24.2404C5.87693 25.223 8.26359 26.1082 10.6329 27.0217C12.9967 27.9468 15.3555 28.8573 17.6839 29.8414C20.0274 30.79 22.3389 31.8146 24.665 32.8313C26.9867 33.8594 29.3001 34.9223 31.6876 35.9238Z" stroke="#5C846A" stroke-opacity="0.2" stroke-width="2" mask="url(#path-1-outside-1_712_51533)"/>
<path d="M27.2041 34.9204C24.9535 34.9469 22.7736 34.9141 20.6024 34.7708C18.4336 34.6138 16.2772 34.3933 14.1227 34.0783C11.9632 33.7996 9.80709 33.4292 7.62557 33.1114C5.44623 32.7815 3.24907 32.459 1 32.3247C3.04278 33.273 5.14224 34.0237 7.28592 34.6492C9.42683 35.2863 11.6222 35.7532 13.8486 36.0766C16.0792 36.3622 18.3462 36.5055 20.6059 36.3398C22.8605 36.1878 25.1132 35.7687 27.2041 34.9204Z" stroke="#5C846A" stroke-opacity="0.2" stroke-width="2" mask="url(#path-1-outside-1_712_51533)"/>
<path d="M40.813 34.9709C39.3446 33.3117 37.6853 31.8574 35.9374 30.5229C34.1962 29.1779 32.3388 27.9919 30.4326 26.8953C28.5077 25.8316 26.5316 24.8581 24.4785 24.0662C22.4325 23.263 20.3278 22.599 18.1465 22.2055C20.023 23.3823 21.9186 24.4352 23.8065 25.4899C25.6873 26.5559 27.5776 27.5817 29.444 28.6528C31.3284 29.6906 33.1856 30.776 35.0725 31.831C36.9524 32.8982 38.835 33.9744 40.813 34.9709Z" stroke="#5C846A" stroke-opacity="0.2" stroke-width="2" mask="url(#path-1-outside-1_712_51533)"/>
<path d="M43.3967 36.9782C42.0773 38.4148 40.9207 39.9332 39.7592 41.4174C38.5881 42.8949 37.4502 44.3677 36.2141 45.7377C35.0073 47.1301 33.7006 48.4212 32.3113 49.6321C30.9097 50.8334 29.4074 51.9192 27.7449 52.935C29.6892 52.7143 31.5635 51.946 33.2386 50.9048C34.9292 49.8709 36.4123 48.5338 37.7259 47.0723C39.0119 45.5858 40.1359 43.9819 41.0674 42.2835C42.0092 40.5922 42.7997 38.8338 43.3967 36.9782Z" stroke="#5C846A" stroke-opacity="0.2" stroke-width="2" mask="url(#path-1-outside-1_712_51533)"/>
<path d="M59.7084 35.4728C58.6022 36.8316 57.2057 37.6107 55.7622 38.4434C54.2903 39.2587 52.8405 40.1068 51.3983 40.9593C49.9551 41.8121 48.5182 42.6738 47.0895 43.5739C45.6576 44.4681 44.2233 45.3733 42.8281 46.4291C44.5542 46.1462 46.2055 45.6242 47.8012 44.9788C49.4047 44.3479 50.9441 43.5687 52.4262 42.6955C53.904 41.813 55.3247 40.8413 56.6536 39.7349C57.3289 39.1868 57.9815 38.5674 58.5446 37.8648C59.0906 37.1519 59.5546 36.3429 59.7084 35.4728Z" stroke="#5C846A" stroke-opacity="0.2" stroke-width="2" mask="url(#path-1-outside-1_712_51533)"/>
<path d="M72.2666 35.0774C70.4429 36.4755 68.6844 37.8645 66.8851 39.1848C65.0795 40.4935 63.2642 41.7673 61.3806 42.9358C59.5172 44.1358 57.5894 45.2314 55.6337 46.3037C53.6704 47.3652 51.6634 48.3605 49.6203 49.4134C51.9081 49.1646 54.1413 48.5572 56.2892 47.7357C58.4458 46.9249 60.5016 45.8593 62.4591 44.64C64.3965 43.3903 66.2395 41.9878 67.8948 40.3857C69.5562 38.7941 71.061 37.0367 72.2666 35.0774Z" stroke="#5C846A" stroke-opacity="0.2" stroke-width="2" mask="url(#path-1-outside-1_712_51533)"/>
<path d="M62.7915 33.9306C61.2808 32.0363 59.5304 30.3566 57.6627 28.8262C55.8009 27.2837 53.7904 25.927 51.7105 24.6939C49.6112 23.4933 47.4384 22.4159 45.1772 21.559C42.9232 20.6908 40.598 20.0011 38.2039 19.6259C40.3243 20.7954 42.4367 21.8753 44.5225 22.9914C46.6017 24.1182 48.6708 25.2388 50.6962 26.4378C52.7403 27.6039 54.7375 28.849 56.7451 30.0987C58.746 31.3591 60.7285 32.6634 62.7915 33.9306Z" stroke="#5C846A" stroke-opacity="0.2" stroke-width="2" mask="url(#path-1-outside-1_712_51533)"/>
<path d="M76.0083 32.8873C74.9136 31.1626 73.57 29.626 72.1038 28.2206C70.6442 26.8046 69.0301 25.5558 67.345 24.4176C65.6387 23.3106 63.8575 22.316 61.9829 21.5274C60.1155 20.7285 58.1743 20.0953 56.1577 19.7667C57.8685 20.8788 59.5764 21.8902 61.2595 22.9266C62.9353 23.9731 64.6052 25.0038 66.2329 26.1004C67.8818 27.1659 69.4839 28.2987 71.1037 29.4295C72.7175 30.5714 74.3164 31.7471 76.0083 32.8873Z" stroke="#5C846A" stroke-opacity="0.2" stroke-width="2" mask="url(#path-1-outside-1_712_51533)"/>
<path d="M88.0383 32.2542C86.4794 33.9552 85.0336 35.6957 83.5838 37.4252C82.1241 39.1458 80.7003 40.8819 79.2311 42.5814C77.7909 44.305 76.3101 45.9927 74.8491 47.7125C73.3782 49.4234 71.8966 51.134 70.4732 52.95C72.4536 51.7623 74.2665 50.3449 75.9738 48.8148C77.691 47.2926 79.2713 45.6238 80.7691 43.8867C82.2382 42.1247 83.6273 40.2944 84.8496 38.3525C86.0817 36.4183 87.1865 34.3995 88.0383 32.2542Z" stroke="#5C846A" stroke-opacity="0.2" stroke-width="2" mask="url(#path-1-outside-1_712_51533)"/>
<path d="M99.3044 29.201C97.7364 30.8613 96.2549 32.5295 94.7428 34.1606C93.2215 35.7816 91.708 37.3929 90.126 38.9375C88.5709 40.5093 86.9519 42.0141 85.3224 43.5261C83.6836 45.0296 82.0077 46.5024 80.3407 48.0637C82.4614 47.2104 84.4415 46.0613 86.3079 44.755C88.1836 43.4571 89.9185 41.9646 91.5483 40.3679C93.1518 38.7444 94.6539 37.0176 95.9612 35.1484C97.2776 33.2893 98.4373 31.3157 99.3044 29.201Z" stroke="#5C846A" stroke-opacity="0.2" stroke-width="2" mask="url(#path-1-outside-1_712_51533)"/>
<path d="M109.536 25.9445C107.865 28.3736 106.367 30.8827 104.863 33.369C103.347 35.8493 101.866 38.3316 100.269 40.727C98.7028 43.1424 97.0234 45.4697 95.2255 47.7104C93.4158 49.9446 91.4574 52.0582 89.3349 54.1035C91.953 52.7388 94.3076 50.8703 96.3964 48.764C98.5008 46.6625 100.317 44.2958 101.955 41.8348C103.562 39.3516 104.997 36.7722 106.244 34.1118C107.503 31.4563 108.614 28.7435 109.536 25.9445Z" stroke="#5C846A" stroke-opacity="0.2" stroke-width="2" mask="url(#path-1-outside-1_712_51533)"/>
<path d="M104.285 26.4542L99.1093 23.0137C97.4292 21.8493 95.7696 20.6776 94.1765 19.4184C92.5604 18.189 91.011 16.8756 89.4636 15.5403L84.8348 11.3926C85.7489 13.3023 86.967 15.0456 88.344 16.6473C89.7143 18.2597 91.278 19.7024 92.9418 21.0126C94.628 22.2935 96.4157 23.4464 98.3202 24.3691C100.216 25.3018 102.208 26.0449 104.285 26.4542Z" stroke="#5C846A" stroke-opacity="0.2" stroke-width="2" mask="url(#path-1-outside-1_712_51533)"/>
<path d="M111.476 24.1128C109.966 22.6787 108.498 21.2986 107.103 19.8582C105.72 18.4094 104.383 16.938 103.154 15.3777C101.895 13.8404 100.745 12.2188 99.6276 10.5573C98.5203 8.88611 97.4868 7.15676 96.4073 5.37597C96.6955 7.44208 97.3626 9.44011 98.2546 11.3287C99.1365 13.2264 100.283 14.9974 101.582 16.642C102.911 18.2631 104.394 19.762 106.06 21.03C107.713 22.3048 109.521 23.386 111.476 24.1128Z" stroke="#5C846A" stroke-opacity="0.2" stroke-width="2" mask="url(#path-1-outside-1_712_51533)"/>
<path d="M92.5658 29.8307C91.3858 28.118 90.1785 26.4935 89.0109 24.8501C87.8549 23.2005 86.7023 21.5641 85.6241 19.8773C84.5147 18.2117 83.4782 16.4993 82.4317 14.778C81.3961 13.049 80.3921 11.2918 79.2943 9.52419C79.6041 11.5839 80.2273 13.5725 81.0251 15.4858C81.8123 17.406 82.8149 19.2328 83.9363 20.98C85.0885 22.7065 86.359 24.3577 87.803 25.8495C89.2348 27.3481 90.8056 28.7181 92.5658 29.8307Z" stroke="#5C846A" stroke-opacity="0.2" stroke-width="2" mask="url(#path-1-outside-1_712_51533)"/>
<path d="M84.5884 30.4494C83.1685 28.746 81.6288 27.1954 80.0905 25.6657C78.5606 24.1267 76.9991 22.6439 75.5051 21.1067C73.9843 19.5958 72.529 18.0345 71.1071 16.4335C69.6935 14.8222 68.3504 13.1495 66.9936 11.3967C67.6019 13.5329 68.6274 15.5368 69.8549 17.3881C71.074 19.2513 72.5294 20.9429 74.0725 22.5257C75.6436 24.0831 77.3019 25.5376 79.0637 26.8511C80.8165 28.1746 82.6401 29.3918 84.5884 30.4494Z" stroke="#5C846A" stroke-opacity="0.2" stroke-width="2" mask="url(#path-1-outside-1_712_51533)"/>
<path d="M118.005 18.4266C117.138 16.8413 116.186 15.3674 115.23 13.9054C114.284 12.4362 113.313 10.9996 112.345 9.55971C111.372 8.12218 110.402 6.68592 109.391 5.25962C108.392 3.82726 107.379 2.39454 106.229 1C106.624 2.76462 107.266 4.43764 108.028 6.04888C108.78 7.66659 109.677 9.21297 110.673 10.6893C111.674 12.1632 112.773 13.5717 113.994 14.8724C115.205 16.1796 116.516 17.4003 118.005 18.4266Z" stroke="#5C846A" stroke-opacity="0.2" stroke-width="2" mask="url(#path-1-outside-1_712_51533)"/>
<path d="M123.325 21.8053C122.878 23.0709 122.521 24.2749 122.137 25.4577C121.741 26.6362 121.347 27.7911 120.91 28.9325C120.478 30.0759 120.009 31.2018 119.525 32.3466C119.028 33.4867 118.5 34.6249 117.998 35.8708C119.144 35.1641 120.091 34.2063 120.885 33.1413C121.69 32.0806 122.325 30.8931 122.798 29.6469C123.266 28.3993 123.578 27.0897 123.677 25.7616C123.787 24.4383 123.713 23.0935 123.325 21.8053Z" stroke="#5C846A" stroke-opacity="0.2" stroke-width="2" mask="url(#path-1-outside-1_712_51533)"/>
<path d="M126.479 19.3791C125.49 21.701 124.65 24.0419 123.764 26.345C122.867 28.6427 121.968 30.92 120.91 33.1133C119.887 35.3203 118.706 37.4432 117.389 39.4902C116.059 41.5312 114.562 43.4658 112.878 45.3439C115.092 44.1209 117.022 42.3854 118.654 40.4277C120.303 38.4726 121.632 36.2682 122.734 33.9736C123.802 31.6631 124.652 29.266 125.259 26.819C125.879 24.3756 126.302 21.896 126.479 19.3791Z" stroke="#5C846A" stroke-opacity="0.2" stroke-width="2" mask="url(#path-1-outside-1_712_51533)"/>
<path d="M114.847 23.5804C113.748 25.5892 112.715 27.5703 111.625 29.5108C110.524 31.4442 109.41 33.3554 108.199 35.206C107.021 37.0765 105.747 38.8854 104.448 40.6912C103.138 42.4905 101.769 44.256 100.403 46.0945C102.342 44.8704 104.079 43.3596 105.657 41.7008C107.246 40.0485 108.644 38.2168 109.897 36.2949C111.119 34.3529 112.201 32.3196 113.04 30.1864C113.891 28.0608 114.541 25.8521 114.847 23.5804Z" stroke="#5C846A" stroke-opacity="0.2" stroke-width="2" mask="url(#path-1-outside-1_712_51533)"/>
<path d="M100.275 30.0218C98.9324 31.4556 97.6646 32.8691 96.3539 34.2296C95.035 35.5799 93.7101 36.9042 92.3091 38.1457C90.933 39.4147 89.4839 40.6014 88.0096 41.7793C86.5252 42.9482 84.9941 44.0696 83.4351 45.2662C85.354 44.8296 87.1746 44.0541 88.8845 43.089C90.6039 42.1333 92.1916 40.9499 93.6631 39.6407C95.1093 38.3046 96.445 36.8424 97.5659 35.2264C98.6949 33.6207 99.6478 31.8868 100.275 30.0218Z" stroke="#5C846A" stroke-opacity="0.2" stroke-width="2" mask="url(#path-1-outside-1_712_51533)"/>
<path d="M87.8181 32.4696C86.258 34.1237 84.7659 35.7636 83.2266 37.3475C81.6786 38.9207 80.1209 40.4654 78.4817 41.9234C76.8683 43.4088 75.1772 44.8075 73.4591 46.1917C71.7317 47.5674 69.9536 48.891 68.1549 50.2832C70.3388 49.6382 72.4059 48.6574 74.3559 47.4871C76.3159 46.3256 78.1352 44.9362 79.8363 43.4189C81.5125 41.874 83.0743 40.1994 84.4229 38.3639C85.7787 36.5372 86.9599 34.5779 87.8181 32.4696Z" stroke="#5C846A" stroke-opacity="0.2" stroke-width="2" mask="url(#path-1-outside-1_712_51533)"/>
<path d="M81.3139 32.8744C79.1444 34.1136 77.1023 35.5008 75.0768 36.8853C73.0431 38.2595 71.0545 39.671 69.0181 40.9953C67.0026 42.3516 64.9421 43.6219 62.8417 44.8349C60.7321 46.0379 58.5663 47.1414 56.3141 48.219C58.8006 47.9499 61.2291 47.2212 63.5368 46.248C65.8559 45.2855 68.0418 44.0398 70.1319 42.6766C72.2021 41.2813 74.1815 39.7692 76.039 38.1239C77.9037 36.4891 79.6757 34.7589 81.3139 32.8744Z" stroke="#5C846A" stroke-opacity="0.2" stroke-width="2" mask="url(#path-1-outside-1_712_51533)"/>
<path d="M86.72 32.1461L82.4659 28.551C81.0846 27.3513 79.7304 26.148 78.4167 24.8975C77.0999 23.6503 75.8249 22.363 74.5542 21.048C73.2919 19.7236 72.0584 18.3599 70.734 16.9943C71.3418 18.8002 72.2552 20.4771 73.3301 22.0395C74.3969 23.6107 75.6499 25.0542 77.0285 26.3624C78.4103 27.6673 79.919 28.8415 81.5448 29.822C83.162 30.8109 84.8854 31.6344 86.72 32.1461Z" stroke="#5C846A" stroke-opacity="0.2" stroke-width="2" mask="url(#path-1-outside-1_712_51533)"/>
<path d="M93.0403 28.1735C91.8751 26.8193 90.6746 25.5774 89.4913 24.3306L85.9901 20.5849L82.5393 16.7935C81.3917 15.514 80.2492 14.2184 78.9911 12.9494C79.5315 14.6552 80.3391 16.2427 81.2817 17.7405C82.2146 19.2467 83.3073 20.6509 84.5082 21.9536C85.7122 23.253 87.0239 24.4551 88.4509 25.5045C89.8678 26.5632 91.3849 27.4966 93.0403 28.1735Z" stroke="#5C846A" stroke-opacity="0.2" stroke-width="2" mask="url(#path-1-outside-1_712_51533)"/>
<path d="M102.856 25.9512L99.1457 22.2281C97.9572 20.9821 96.8054 19.7278 95.7071 18.4245C94.6057 17.1245 93.5583 15.7813 92.5266 14.4031L89.465 10.1295C89.7498 11.913 90.3722 13.619 91.1836 15.2255C91.9847 16.8401 93.0017 18.3489 94.1668 19.7275C95.3357 21.1033 96.6549 22.355 98.1158 23.4113C99.5673 24.4773 101.146 25.3743 102.856 25.9512Z" stroke="#5C846A" stroke-opacity="0.2" stroke-width="2" mask="url(#path-1-outside-1_712_51533)"/>
<path d="M112.75 23.4253C111.987 22.1778 111.156 21.0559 110.324 19.9459C109.501 18.8285 108.656 17.7481 107.814 16.6647C106.967 15.5841 106.122 14.5049 105.236 13.4363C104.361 12.3601 103.47 11.284 102.441 10.2452C102.729 11.6809 103.264 13.0213 103.916 14.2955C104.559 15.5773 105.344 16.7805 106.224 17.9077C107.108 19.0322 108.088 20.0848 109.177 21.0164C110.256 21.9549 111.428 22.7982 112.75 23.4253Z" stroke="#5C846A" stroke-opacity="0.2" stroke-width="2" mask="url(#path-1-outside-1_712_51533)"/>
<path d="M123.409 20.2479C122.342 18.8783 121.222 17.6275 120.109 16.3814L116.786 12.666L113.452 8.9616C112.333 7.72065 111.209 6.47381 109.96 5.26731C110.497 6.92064 111.285 8.45497 112.194 9.90857C113.095 11.3701 114.141 12.7368 115.286 14.0135C116.434 15.287 117.68 16.4744 119.038 17.5252C120.384 18.5858 121.825 19.5339 123.409 20.2479Z" stroke="#5C846A" stroke-opacity="0.2" stroke-width="2" mask="url(#path-1-outside-1_712_51533)"/>
<path d="M74.3316 32.815C73.4422 30.9816 72.2407 29.3196 70.878 27.8076C69.522 26.2848 67.9693 24.9429 66.3184 23.7423C64.6463 22.5717 62.8711 21.5416 60.9892 20.7569C59.116 19.9612 57.1518 19.3695 55.128 19.129C56.8803 20.1646 58.5974 21.1337 60.2705 22.1585C61.9358 23.1931 63.5744 24.2423 65.1483 25.3858C66.7438 26.4985 68.2708 27.7056 69.7927 28.9416C71.3067 30.1874 72.7822 31.4954 74.3316 32.815Z" stroke="#5C846A" stroke-opacity="0.2" stroke-width="2" mask="url(#path-1-outside-1_712_51533)"/>
<path d="M58.4691 34.5164C57.6091 32.8981 56.4966 31.4464 55.2611 30.1148C54.0333 28.7723 52.6576 27.5674 51.1919 26.4897C49.7226 25.4156 48.1587 24.469 46.5083 23.7034C44.8651 22.9276 43.1451 22.3063 41.3412 21.9773C42.8061 23.0753 44.2745 24.0637 45.7228 25.0677C47.1632 26.0815 48.5917 27.0842 50.0005 28.1172C51.4123 29.146 52.7996 30.2055 54.2019 31.2719C55.5958 32.3477 56.981 33.4498 58.4691 34.5164Z" stroke="#5C846A" stroke-opacity="0.2" stroke-width="2" mask="url(#path-1-outside-1_712_51533)"/>
<path d="M50.5863 38.2701C49.0132 39.1467 47.5354 40.0572 46.0459 40.9333C44.5508 41.7981 43.0669 42.6483 41.5579 43.4572C40.0518 44.27 38.526 45.0426 36.9812 45.8154C35.4308 46.5769 33.8573 47.3122 32.2617 48.1466C34.065 48.1263 35.837 47.7927 37.5528 47.2829C39.2742 46.7843 40.9366 46.083 42.5153 45.233C44.0922 44.3791 45.5914 43.377 46.9542 42.2124C48.3221 41.0586 49.5767 39.7633 50.5863 38.2701Z" stroke="#5C846A" stroke-opacity="0.2" stroke-width="2" mask="url(#path-1-outside-1_712_51533)"/>
<path d="M48.299 34.1258C47.9438 33.0961 47.3966 32.2035 46.7788 31.3749C46.1543 30.5507 45.4436 29.801 44.6666 29.1283C43.8901 28.455 43.0447 27.8612 42.1384 27.3637C41.2285 26.8726 40.2655 26.4615 39.1933 26.2624C39.8035 27.1642 40.4873 27.9111 41.1828 28.6311C41.8825 29.344 42.6023 30.0143 43.348 30.6558C44.0926 31.2975 44.8607 31.9125 45.6682 32.501C46.4821 33.0832 47.3205 33.6512 48.299 34.1258Z" stroke="#5C846A" stroke-opacity="0.2" stroke-width="2" mask="url(#path-1-outside-1_712_51533)"/>
<path d="M41.6102 37.4514C40.2901 38.0459 39.0801 38.7057 37.877 39.3559L30.7102 43.2089C29.5041 43.8543 28.2877 44.5014 27.0649 45.2778C28.5157 45.3099 29.931 45.0612 31.2996 44.6691C32.6736 44.2872 33.9957 43.7347 35.2502 43.0604C36.5031 42.3821 37.6932 41.5843 38.7677 40.647C39.8485 39.7213 40.8366 38.6776 41.6102 37.4514Z" stroke="#5C846A" stroke-opacity="0.2" stroke-width="2" mask="url(#path-1-outside-1_712_51533)"/>
<path d="M40.2971 36.7846C39.1211 34.9282 37.694 33.2567 36.1417 31.7163C34.5965 30.1645 32.8926 28.7781 31.1143 27.5008C29.3137 26.2538 27.4346 25.1176 25.4532 24.1848C23.4801 23.2415 21.4249 22.4616 19.2798 21.9824C21.0865 23.231 22.896 24.3812 24.6796 25.5565C26.4556 26.7427 28.2266 27.9127 29.9526 29.1503C31.7003 30.3571 33.3991 31.6306 35.1141 32.9028C36.8234 34.1856 38.5149 35.5027 40.2971 36.7846Z" stroke="#5C846A" stroke-opacity="0.2" stroke-width="2" mask="url(#path-1-outside-1_712_51533)"/>
<path d="M43.6609 35.9024C43.552 34.5552 43.1393 33.2706 42.5692 32.0681C42.0091 30.8564 41.2621 29.7339 40.3958 28.7186C39.5256 27.7051 38.53 26.7972 37.4173 26.0586C36.3148 25.312 35.1078 24.7092 33.7909 24.3984C34.6671 25.4252 35.5437 26.3366 36.3946 27.256C37.2359 28.184 38.0623 29.0959 38.8636 30.0318C39.6688 30.9649 40.4439 31.9211 41.234 32.8933C42.0149 33.8734 42.7811 34.8794 43.6609 35.9024Z" stroke="#5C846A" stroke-opacity="0.2" stroke-width="2" mask="url(#path-1-outside-1_712_51533)"/>
<path d="M129.778 18.4764C94.9854 32.4015 58.0423 41.8398 20.4366 35.2281C20.1053 35.17 20.1249 34.6044 20.4757 34.6248C41.3503 35.8466 62.3016 35.2569 82.8266 30.9964C98.7134 27.699 114.016 22.3776 129.552 17.7984C129.996 17.6672 130.205 18.3054 129.778 18.4764Z" stroke="#5C846A" stroke-opacity="0.2" stroke-width="2" mask="url(#path-1-outside-1_712_51533)"/>
</svg>
