<svg width="207" height="119" viewBox="0 0 207 119" fill="none" xmlns="http://www.w3.org/2000/svg">
<g opacity="0.5">
<path d="M8.46509 27.8593V0" stroke="#64816C" stroke-opacity="0.5" stroke-width="0.554056"/>
<path d="M8.46502 0.207031C7.95913 2.25649 6.20365 6.37047 3.2289 6.43066M8.46502 8.55483C7.88323 10.4773 5.71794 14.2008 1.71115 13.7151M8.46502 17.6612C7.04847 19.8113 3.51722 23.8687 0.724609 22.8973" stroke="#64816C" stroke-opacity="0.5" stroke-width="0.554056"/>
<path d="M8.46528 0.207031C8.97117 2.25649 10.7266 6.37047 13.7014 6.43066M8.46528 8.55483C9.04707 10.4773 11.2124 14.2008 15.2192 13.7151M8.46528 17.6612C9.88183 19.8113 13.4131 23.8687 16.2057 22.8973" stroke="#64816C" stroke-opacity="0.5" stroke-width="0.554056"/>
<path d="M26.7164 27.8593V0" stroke="#64816C" stroke-opacity="0.5" stroke-width="0.554056"/>
<path d="M26.7164 0.207031C26.2105 2.25649 24.455 6.37047 21.4802 6.43066M26.7164 8.55483C26.1346 10.4773 23.9693 14.2008 19.9625 13.7151M26.7164 17.6612C25.2998 19.8113 21.7686 23.8687 18.976 22.8973" stroke="#64816C" stroke-opacity="0.5" stroke-width="0.554056"/>
<path d="M26.7166 0.207031C27.2225 2.25649 28.978 6.37047 31.9527 6.43066M26.7166 8.55483C27.2984 10.4773 29.4637 14.2008 33.4705 13.7151M26.7166 17.6612C28.1332 19.8113 31.6644 23.8687 34.457 22.8973" stroke="#64816C" stroke-opacity="0.5" stroke-width="0.554056"/>
<path d="M44.9678 27.8593V0" stroke="#64816C" stroke-opacity="0.5" stroke-width="0.554056"/>
<path d="M44.9677 0.207031C44.4618 2.25649 42.7063 6.37047 39.7316 6.43066M44.9677 8.55483C44.3859 10.4773 42.2206 14.2008 38.2138 13.7151M44.9677 17.6612C43.5512 19.8113 40.0199 23.8687 37.2273 22.8973" stroke="#64816C" stroke-opacity="0.5" stroke-width="0.554056"/>
<path d="M44.968 0.207031C45.4739 2.25649 47.2293 6.37047 50.2041 6.43066M44.968 8.55483C45.5498 10.4773 47.715 14.2008 51.7218 13.7151M44.968 17.6612C46.3845 19.8113 49.9158 23.8687 52.7084 22.8973" stroke="#64816C" stroke-opacity="0.5" stroke-width="0.554056"/>
<path d="M63.2191 27.8593V0" stroke="#64816C" stroke-opacity="0.5" stroke-width="0.554056"/>
<path d="M63.2191 0.207031C62.7132 2.25649 60.9577 6.37047 57.9829 6.43066M63.2191 8.55483C62.6373 10.4773 60.472 14.2008 56.4652 13.7151M63.2191 17.6612C61.8025 19.8113 58.2712 23.8687 55.4786 22.8973" stroke="#64816C" stroke-opacity="0.5" stroke-width="0.554056"/>
<path d="M63.2193 0.207031C63.7252 2.25649 65.4807 6.37047 68.4554 6.43066M63.2193 8.55483C63.8011 10.4773 65.9664 14.2008 69.9732 13.7151M63.2193 17.6612C64.6359 19.8113 68.1671 23.8687 70.9597 22.8973" stroke="#64816C" stroke-opacity="0.5" stroke-width="0.554056"/>
<path d="M81.4705 27.8593V0" stroke="#64816C" stroke-opacity="0.5" stroke-width="0.554056"/>
<path d="M81.4704 0.207031C80.9645 2.25649 79.209 6.37047 76.2343 6.43066M81.4704 8.55483C80.8886 10.4773 78.7233 14.2008 74.7165 13.7151M81.4704 17.6612C80.0538 19.8113 76.5226 23.8687 73.73 22.8973" stroke="#64816C" stroke-opacity="0.5" stroke-width="0.554056"/>
<path d="M81.4706 0.207031C81.9765 2.25649 83.732 6.37047 86.7068 6.43066M81.4706 8.55483C82.0524 10.4773 84.2177 14.2008 88.2245 13.7151M81.4706 17.6612C82.8872 19.8113 86.4184 23.8687 89.2111 22.8973" stroke="#64816C" stroke-opacity="0.5" stroke-width="0.554056"/>
<path d="M99.7219 27.8593V0" stroke="#64816C" stroke-opacity="0.5" stroke-width="0.554056"/>
<path d="M99.7219 0.207031C99.216 2.25649 97.4605 6.37047 94.4857 6.43066M99.7219 8.55483C99.1401 10.4773 96.9748 14.2008 92.968 13.7151M99.7219 17.6612C98.3053 19.8113 94.7741 23.8687 91.9814 22.8973" stroke="#64816C" stroke-opacity="0.5" stroke-width="0.554056"/>
<path d="M99.7221 0.207031C100.228 2.25649 101.983 6.37047 104.958 6.43066M99.7221 8.55483C100.304 10.4773 102.469 14.2008 106.476 13.7151M99.7221 17.6612C101.139 19.8113 104.67 23.8687 107.463 22.8973" stroke="#64816C" stroke-opacity="0.5" stroke-width="0.554056"/>
<path d="M117.973 27.8593V0" stroke="#64816C" stroke-opacity="0.5" stroke-width="0.554056"/>
<path d="M117.973 0.207031C117.467 2.25649 115.712 6.37047 112.737 6.43066M117.973 8.55483C117.391 10.4773 115.226 14.2008 111.219 13.7151M117.973 17.6612C116.557 19.8113 113.025 23.8687 110.233 22.8973" stroke="#64816C" stroke-opacity="0.5" stroke-width="0.554056"/>
<path d="M117.973 0.207031C118.479 2.25649 120.235 6.37047 123.21 6.43066M117.973 8.55483C118.555 10.4773 120.721 14.2008 124.727 13.7151M117.973 17.6612C119.39 19.8113 122.921 23.8687 125.714 22.8973" stroke="#64816C" stroke-opacity="0.5" stroke-width="0.554056"/>
<path d="M136.225 27.8593V0" stroke="#64816C" stroke-opacity="0.5" stroke-width="0.554056"/>
<path d="M136.225 0.207031C135.719 2.25649 133.963 6.37047 130.988 6.43066M136.225 8.55483C135.643 10.4773 133.477 14.2008 129.471 13.7151M136.225 17.6612C134.808 19.8113 131.277 23.8687 128.484 22.8973" stroke="#64816C" stroke-opacity="0.5" stroke-width="0.554056"/>
<path d="M136.225 0.207031C136.731 2.25649 138.486 6.37047 141.461 6.43066M136.225 8.55483C136.807 10.4773 138.972 14.2008 142.979 13.7151M136.225 17.6612C137.641 19.8113 141.173 23.8687 143.965 22.8973" stroke="#64816C" stroke-opacity="0.5" stroke-width="0.554056"/>
<path d="M154.476 27.8593V0" stroke="#64816C" stroke-opacity="0.5" stroke-width="0.554056"/>
<path d="M154.476 0.207031C153.97 2.25649 152.215 6.37047 149.24 6.43066M154.476 8.55483C153.894 10.4773 151.729 14.2008 147.722 13.7151M154.476 17.6612C153.059 19.8113 149.528 23.8687 146.735 22.8973" stroke="#64816C" stroke-opacity="0.5" stroke-width="0.554056"/>
<path d="M154.476 0.207031C154.982 2.25649 156.738 6.37047 159.712 6.43066M154.476 8.55483C155.058 10.4773 157.223 14.2008 161.23 13.7151M154.476 17.6612C155.893 19.8113 159.424 23.8687 162.217 22.8973" stroke="#64816C" stroke-opacity="0.5" stroke-width="0.554056"/>
<path d="M172.727 27.8593V0" stroke="#64816C" stroke-opacity="0.5" stroke-width="0.554056"/>
<path d="M172.727 0.207031C172.221 2.25649 170.466 6.37047 167.491 6.43066M172.727 8.55483C172.145 10.4773 169.98 14.2008 165.973 13.7151M172.727 17.6612C171.311 19.8113 167.779 23.8687 164.987 22.8973" stroke="#64816C" stroke-opacity="0.5" stroke-width="0.554056"/>
<path d="M172.727 0.207031C173.233 2.25649 174.989 6.37047 177.964 6.43066M172.727 8.55483C173.309 10.4773 175.475 14.2008 179.481 13.7151M172.727 17.6612C174.144 19.8113 177.675 23.8687 180.468 22.8973" stroke="#64816C" stroke-opacity="0.5" stroke-width="0.554056"/>
<path d="M190.979 27.8593V0" stroke="#64816C" stroke-opacity="0.5" stroke-width="0.554056"/>
<path d="M190.979 0.207031C190.473 2.25649 188.717 6.37047 185.742 6.43066M190.979 8.55483C190.397 10.4773 188.231 14.2008 184.225 13.7151M190.979 17.6612C189.562 19.8113 186.031 23.8687 183.238 22.8973" stroke="#64816C" stroke-opacity="0.5" stroke-width="0.554056"/>
<path d="M190.979 0.207031C191.485 2.25649 193.24 6.37047 196.215 6.43066M190.979 8.55483C191.561 10.4773 193.726 14.2008 197.733 13.7151M190.979 17.6612C192.395 19.8113 195.927 23.8687 198.719 22.8973" stroke="#64816C" stroke-opacity="0.5" stroke-width="0.554056"/>
<path d="M8.46509 58.0761V30.2168" stroke="#64816C" stroke-opacity="0.5" stroke-width="0.554056"/>
<path d="M8.46502 30.4238C7.95913 32.4733 6.20365 36.5873 3.2289 36.6475M8.46502 38.7716C7.88323 40.6941 5.71794 44.4176 1.71115 43.9319M8.46502 47.878C7.04847 50.0281 3.51722 54.0855 0.724609 53.1141" stroke="#64816C" stroke-opacity="0.5" stroke-width="0.554056"/>
<path d="M8.46528 30.4238C8.97117 32.4733 10.7266 36.5873 13.7014 36.6475M8.46528 38.7716C9.04707 40.6941 11.2124 44.4176 15.2192 43.9319M8.46528 47.878C9.88183 50.0281 13.4131 54.0855 16.2057 53.1141" stroke="#64816C" stroke-opacity="0.5" stroke-width="0.554056"/>
<path d="M26.7166 58.0761V30.2168" stroke="#64816C" stroke-opacity="0.5" stroke-width="0.554056"/>
<path d="M26.7164 30.4238C26.2105 32.4733 24.455 36.5873 21.4802 36.6475M26.7164 38.7716C26.1346 40.6941 23.9693 44.4176 19.9625 43.9319M26.7164 47.878C25.2998 50.0281 21.7686 54.0855 18.976 53.1141" stroke="#64816C" stroke-opacity="0.5" stroke-width="0.554056"/>
<path d="M26.7166 30.4238C27.2225 32.4733 28.978 36.5873 31.9527 36.6475M26.7166 38.7716C27.2984 40.6941 29.4637 44.4176 33.4705 43.9319M26.7166 47.878C28.1332 50.0281 31.6644 54.0855 34.457 53.1141" stroke="#64816C" stroke-opacity="0.5" stroke-width="0.554056"/>
<path d="M44.9679 58.0761V30.2168" stroke="#64816C" stroke-opacity="0.5" stroke-width="0.554056"/>
<path d="M44.9677 30.4238C44.4618 32.4733 42.7063 36.5873 39.7316 36.6475M44.9677 38.7716C44.3859 40.6941 42.2206 44.4176 38.2138 43.9319M44.9677 47.878C43.5512 50.0281 40.0199 54.0855 37.2273 53.1141" stroke="#64816C" stroke-opacity="0.5" stroke-width="0.554056"/>
<path d="M44.968 30.4238C45.4739 32.4733 47.2293 36.5873 50.2041 36.6475M44.968 38.7716C45.5498 40.6941 47.715 44.4176 51.7218 43.9319M44.968 47.878C46.3845 50.0281 49.9158 54.0855 52.7084 53.1141" stroke="#64816C" stroke-opacity="0.5" stroke-width="0.554056"/>
<path d="M63.2188 58.0761V30.2168" stroke="#64816C" stroke-opacity="0.5" stroke-width="0.554056"/>
<path d="M63.2192 30.4238C62.7133 32.4733 60.9578 36.5873 57.983 36.6475M63.2192 38.7716C62.6374 40.6941 60.4721 44.4176 56.4653 43.9319M63.2192 47.878C61.8026 50.0281 58.2714 54.0855 55.4788 53.1141" stroke="#64816C" stroke-opacity="0.5" stroke-width="0.554056"/>
<path d="M63.2188 30.4238C63.7247 32.4733 65.4802 36.5873 68.4549 36.6475M63.2188 38.7716C63.8006 40.6941 65.9659 44.4176 69.9727 43.9319M63.2188 47.878C64.6354 50.0281 68.1666 54.0855 70.9592 53.1141" stroke="#64816C" stroke-opacity="0.5" stroke-width="0.554056"/>
<path d="M81.4701 58.0761V30.2168" stroke="#64816C" stroke-opacity="0.5" stroke-width="0.554056"/>
<path d="M81.47 30.4238C80.9641 32.4733 79.2087 36.5873 76.2339 36.6475M81.47 38.7716C80.8882 40.6941 78.7229 44.4176 74.7162 43.9319M81.47 47.878C80.0535 50.0281 76.5222 54.0855 73.7296 53.1141" stroke="#64816C" stroke-opacity="0.5" stroke-width="0.554056"/>
<path d="M81.4697 30.4238C81.9756 32.4733 83.731 36.5873 86.7058 36.6475M81.4697 38.7716C82.0515 40.6941 84.2168 44.4176 88.2235 43.9319M81.4697 47.878C82.8862 50.0281 86.4175 54.0855 89.2101 53.1141" stroke="#64816C" stroke-opacity="0.5" stroke-width="0.554056"/>
<path d="M99.7207 58.0761V30.2168" stroke="#64816C" stroke-opacity="0.5" stroke-width="0.554056"/>
<path d="M99.7206 30.4238C99.2147 32.4733 97.4593 36.5873 94.4845 36.6475M99.7206 38.7716C99.1388 40.6941 96.9736 44.4176 92.9668 43.9319M99.7206 47.878C98.3041 50.0281 94.7728 54.0855 91.9802 53.1141" stroke="#64816C" stroke-opacity="0.5" stroke-width="0.554056"/>
<path d="M99.7209 30.4238C100.227 32.4733 101.982 36.5873 104.957 36.6475M99.7209 38.7716C100.303 40.6941 102.468 44.4176 106.475 43.9319M99.7209 47.878C101.137 50.0281 104.669 54.0855 107.461 53.1141" stroke="#64816C" stroke-opacity="0.5" stroke-width="0.554056"/>
<path d="M117.972 58.0761V30.2168" stroke="#64816C" stroke-opacity="0.5" stroke-width="0.554056"/>
<path d="M117.972 30.4238C117.466 32.4733 115.711 36.5873 112.736 36.6475M117.972 38.7716C117.39 40.6941 115.225 44.4176 111.218 43.9319M117.972 47.878C116.556 50.0281 113.024 54.0855 110.232 53.1141" stroke="#64816C" stroke-opacity="0.5" stroke-width="0.554056"/>
<path d="M117.972 30.4238C118.478 32.4733 120.234 36.5873 123.209 36.6475M117.972 38.7716C118.554 40.6941 120.72 44.4176 124.726 43.9319M117.972 47.878C119.389 50.0281 122.92 54.0855 125.713 53.1141" stroke="#64816C" stroke-opacity="0.5" stroke-width="0.554056"/>
<path d="M136.223 58.0761V30.2168" stroke="#64816C" stroke-opacity="0.5" stroke-width="0.554056"/>
<path d="M136.224 30.4238C135.718 32.4733 133.962 36.5873 130.988 36.6475M136.224 38.7716C135.642 40.6941 133.477 44.4176 129.47 43.9319M136.224 47.878C134.807 50.0281 131.276 54.0855 128.483 53.1141" stroke="#64816C" stroke-opacity="0.5" stroke-width="0.554056"/>
<path d="M136.223 30.4238C136.729 32.4733 138.485 36.5873 141.459 36.6475M136.223 38.7716C136.805 40.6941 138.97 44.4176 142.977 43.9319M136.223 47.878C137.64 50.0281 141.171 54.0855 143.964 53.1141" stroke="#64816C" stroke-opacity="0.5" stroke-width="0.554056"/>
<path d="M154.474 58.0761V30.2168" stroke="#64816C" stroke-opacity="0.5" stroke-width="0.554056"/>
<path d="M154.474 30.4238C153.968 32.4733 152.213 36.5873 149.238 36.6475M154.474 38.7716C153.893 40.6941 151.727 44.4176 147.72 43.9319M154.474 47.878C153.058 50.0281 149.526 54.0855 146.734 53.1141" stroke="#64816C" stroke-opacity="0.5" stroke-width="0.554056"/>
<path d="M154.474 30.4238C154.98 32.4733 156.735 36.5873 159.71 36.6475M154.474 38.7716C155.056 40.6941 157.221 44.4176 161.228 43.9319M154.474 47.878C155.89 50.0281 159.422 54.0855 162.214 53.1141" stroke="#64816C" stroke-opacity="0.5" stroke-width="0.554056"/>
<path d="M172.725 58.0761V30.2168" stroke="#64816C" stroke-opacity="0.5" stroke-width="0.554056"/>
<path d="M172.725 30.4238C172.219 32.4733 170.464 36.5873 167.489 36.6475M172.725 38.7716C172.143 40.6941 169.978 44.4176 165.971 43.9319M172.725 47.878C171.309 50.0281 167.777 54.0855 164.985 53.1141" stroke="#64816C" stroke-opacity="0.5" stroke-width="0.554056"/>
<path d="M172.726 30.4238C173.231 32.4733 174.987 36.5873 177.962 36.6475M172.726 38.7716C173.307 40.6941 175.473 44.4176 179.479 43.9319M172.726 47.878C174.142 50.0281 177.673 54.0855 180.466 53.1141" stroke="#64816C" stroke-opacity="0.5" stroke-width="0.554056"/>
<path d="M190.976 58.0761V30.2168" stroke="#64816C" stroke-opacity="0.5" stroke-width="0.554056"/>
<path d="M190.976 30.4238C190.47 32.4733 188.715 36.5873 185.74 36.6475M190.976 38.7716C190.394 40.6941 188.229 44.4176 184.222 43.9319M190.976 47.878C189.56 50.0281 186.028 54.0855 183.236 53.1141" stroke="#64816C" stroke-opacity="0.5" stroke-width="0.554056"/>
<path d="M190.977 30.4238C191.482 32.4733 193.238 36.5873 196.213 36.6475M190.977 38.7716C191.558 40.6941 193.724 44.4176 197.73 43.9319M190.977 47.878C192.393 50.0281 195.924 54.0855 198.717 53.1141" stroke="#64816C" stroke-opacity="0.5" stroke-width="0.554056"/>
<path d="M8.46509 88.291V60.4316" stroke="#64816C" stroke-opacity="0.5" stroke-width="0.554056"/>
<path d="M8.46502 60.6387C7.95913 62.6881 6.20365 66.8021 3.2289 66.8623M8.46502 68.9865C7.88323 70.9089 5.71794 74.6324 1.71115 74.1467M8.46502 78.0928C7.04847 80.2429 3.51722 84.3003 0.724609 83.329" stroke="#64816C" stroke-opacity="0.5" stroke-width="0.554056"/>
<path d="M8.46528 60.6387C8.97117 62.6881 10.7266 66.8021 13.7014 66.8623M8.46528 68.9865C9.04707 70.9089 11.2124 74.6324 15.2192 74.1467M8.46528 78.0928C9.88183 80.2429 13.4131 84.3003 16.2057 83.329" stroke="#64816C" stroke-opacity="0.5" stroke-width="0.554056"/>
<path d="M26.7166 88.291V60.4316" stroke="#64816C" stroke-opacity="0.5" stroke-width="0.554056"/>
<path d="M26.7164 60.6387C26.2105 62.6881 24.455 66.8021 21.4802 66.8623M26.7164 68.9865C26.1346 70.9089 23.9693 74.6324 19.9625 74.1467M26.7164 78.0928C25.2998 80.2429 21.7686 84.3003 18.976 83.329" stroke="#64816C" stroke-opacity="0.5" stroke-width="0.554056"/>
<path d="M26.7166 60.6387C27.2225 62.6881 28.978 66.8021 31.9527 66.8623M26.7166 68.9865C27.2984 70.9089 29.4637 74.6324 33.4705 74.1467M26.7166 78.0928C28.1332 80.2429 31.6644 84.3003 34.457 83.329" stroke="#64816C" stroke-opacity="0.5" stroke-width="0.554056"/>
<path d="M44.9679 88.291V60.4316" stroke="#64816C" stroke-opacity="0.5" stroke-width="0.554056"/>
<path d="M44.9677 60.6387C44.4618 62.6881 42.7063 66.8021 39.7316 66.8623M44.9677 68.9865C44.3859 70.9089 42.2206 74.6324 38.2138 74.1467M44.9677 78.0928C43.5512 80.2429 40.0199 84.3003 37.2273 83.329" stroke="#64816C" stroke-opacity="0.5" stroke-width="0.554056"/>
<path d="M44.968 60.6387C45.4739 62.6881 47.2293 66.8021 50.2041 66.8623M44.968 68.9865C45.5498 70.9089 47.715 74.6324 51.7218 74.1467M44.968 78.0928C46.3845 80.2429 49.9158 84.3003 52.7084 83.329" stroke="#64816C" stroke-opacity="0.5" stroke-width="0.554056"/>
<path d="M63.2188 88.291V60.4316" stroke="#64816C" stroke-opacity="0.5" stroke-width="0.554056"/>
<path d="M63.2192 60.6387C62.7133 62.6881 60.9578 66.8021 57.983 66.8623M63.2192 68.9865C62.6374 70.9089 60.4721 74.6324 56.4653 74.1467M63.2192 78.0928C61.8026 80.2429 58.2714 84.3003 55.4788 83.329" stroke="#64816C" stroke-opacity="0.5" stroke-width="0.554056"/>
<path d="M63.2188 60.6387C63.7247 62.6881 65.4802 66.8021 68.4549 66.8623M63.2188 68.9865C63.8006 70.9089 65.9659 74.6324 69.9727 74.1467M63.2188 78.0928C64.6354 80.2429 68.1666 84.3003 70.9592 83.329" stroke="#64816C" stroke-opacity="0.5" stroke-width="0.554056"/>
<path d="M81.4701 88.291V60.4316" stroke="#64816C" stroke-opacity="0.5" stroke-width="0.554056"/>
<path d="M81.47 60.6387C80.9641 62.6881 79.2087 66.8021 76.2339 66.8623M81.47 68.9865C80.8882 70.9089 78.7229 74.6324 74.7162 74.1467M81.47 78.0928C80.0535 80.2429 76.5222 84.3003 73.7296 83.329" stroke="#64816C" stroke-opacity="0.5" stroke-width="0.554056"/>
<path d="M81.4697 60.6387C81.9756 62.6881 83.731 66.8021 86.7058 66.8623M81.4697 68.9865C82.0515 70.9089 84.2168 74.6324 88.2235 74.1467M81.4697 78.0928C82.8862 80.2429 86.4175 84.3003 89.2101 83.329" stroke="#64816C" stroke-opacity="0.5" stroke-width="0.554056"/>
<path d="M99.7207 88.291V60.4316" stroke="#64816C" stroke-opacity="0.5" stroke-width="0.554056"/>
<path d="M99.7206 60.6387C99.2147 62.6881 97.4593 66.8021 94.4845 66.8623M99.7206 68.9865C99.1388 70.9089 96.9736 74.6324 92.9668 74.1467M99.7206 78.0928C98.3041 80.2429 94.7728 84.3003 91.9802 83.329" stroke="#64816C" stroke-opacity="0.5" stroke-width="0.554056"/>
<path d="M99.7209 60.6387C100.227 62.6881 101.982 66.8021 104.957 66.8623M99.7209 68.9865C100.303 70.9089 102.468 74.6324 106.475 74.1467M99.7209 78.0928C101.137 80.2429 104.669 84.3003 107.461 83.329" stroke="#64816C" stroke-opacity="0.5" stroke-width="0.554056"/>
<path d="M117.972 88.291V60.4316" stroke="#64816C" stroke-opacity="0.5" stroke-width="0.554056"/>
<path d="M117.972 60.6387C117.466 62.6881 115.711 66.8021 112.736 66.8623M117.972 68.9865C117.39 70.9089 115.225 74.6324 111.218 74.1467M117.972 78.0928C116.556 80.2429 113.024 84.3003 110.232 83.329" stroke="#64816C" stroke-opacity="0.5" stroke-width="0.554056"/>
<path d="M117.972 60.6387C118.478 62.6881 120.234 66.8021 123.209 66.8623M117.972 68.9865C118.554 70.9089 120.72 74.6324 124.726 74.1467M117.972 78.0928C119.389 80.2429 122.92 84.3003 125.713 83.329" stroke="#64816C" stroke-opacity="0.5" stroke-width="0.554056"/>
<path d="M136.223 88.291V60.4316" stroke="#64816C" stroke-opacity="0.5" stroke-width="0.554056"/>
<path d="M136.224 60.6387C135.718 62.6881 133.962 66.8021 130.988 66.8623M136.224 68.9865C135.642 70.9089 133.477 74.6324 129.47 74.1467M136.224 78.0928C134.807 80.2429 131.276 84.3003 128.483 83.329" stroke="#64816C" stroke-opacity="0.5" stroke-width="0.554056"/>
<path d="M136.223 60.6387C136.729 62.6881 138.485 66.8021 141.459 66.8623M136.223 68.9865C136.805 70.9089 138.97 74.6324 142.977 74.1467M136.223 78.0928C137.64 80.2429 141.171 84.3003 143.964 83.329" stroke="#64816C" stroke-opacity="0.5" stroke-width="0.554056"/>
<path d="M154.474 88.291V60.4316" stroke="#64816C" stroke-opacity="0.5" stroke-width="0.554056"/>
<path d="M154.474 60.6387C153.968 62.6881 152.213 66.8021 149.238 66.8623M154.474 68.9865C153.893 70.9089 151.727 74.6324 147.72 74.1467M154.474 78.0928C153.058 80.2429 149.526 84.3003 146.734 83.329" stroke="#64816C" stroke-opacity="0.5" stroke-width="0.554056"/>
<path d="M154.474 60.6387C154.98 62.6881 156.735 66.8021 159.71 66.8623M154.474 68.9865C155.056 70.9089 157.221 74.6324 161.228 74.1467M154.474 78.0928C155.89 80.2429 159.422 84.3003 162.214 83.329" stroke="#64816C" stroke-opacity="0.5" stroke-width="0.554056"/>
<path d="M172.725 88.291V60.4316" stroke="#64816C" stroke-opacity="0.5" stroke-width="0.554056"/>
<path d="M172.725 60.6387C172.219 62.6881 170.464 66.8021 167.489 66.8623M172.725 68.9865C172.143 70.9089 169.978 74.6324 165.971 74.1467M172.725 78.0928C171.309 80.2429 167.777 84.3003 164.985 83.329" stroke="#64816C" stroke-opacity="0.5" stroke-width="0.554056"/>
<path d="M172.726 60.6387C173.231 62.6881 174.987 66.8021 177.962 66.8623M172.726 68.9865C173.307 70.9089 175.473 74.6324 179.479 74.1467M172.726 78.0928C174.142 80.2429 177.673 84.3003 180.466 83.329" stroke="#64816C" stroke-opacity="0.5" stroke-width="0.554056"/>
<path d="M190.976 88.291V60.4316" stroke="#64816C" stroke-opacity="0.5" stroke-width="0.554056"/>
<path d="M190.976 60.6387C190.47 62.6881 188.715 66.8021 185.74 66.8623M190.976 68.9865C190.394 70.9089 188.229 74.6324 184.222 74.1467M190.976 78.0928C189.56 80.2429 186.028 84.3003 183.236 83.329" stroke="#64816C" stroke-opacity="0.5" stroke-width="0.554056"/>
<path d="M190.977 60.6387C191.482 62.6881 193.238 66.8021 196.213 66.8623M190.977 68.9865C191.558 70.9089 193.724 74.6324 197.73 74.1467M190.977 78.0928C192.393 80.2429 195.924 84.3003 198.717 83.329" stroke="#64816C" stroke-opacity="0.5" stroke-width="0.554056"/>
<path d="M8.46509 118.508V90.6484" stroke="#64816C" stroke-opacity="0.5" stroke-width="0.554056"/>
<path d="M8.46502 90.8555C7.95913 92.9049 6.20365 97.0189 3.2289 97.0791M8.46502 99.2033C7.88323 101.126 5.71794 104.849 1.71115 104.364M8.46502 108.31C7.04847 110.46 3.51722 114.517 0.724609 113.546" stroke="#64816C" stroke-opacity="0.5" stroke-width="0.554056"/>
<path d="M8.46528 90.8555C8.97117 92.9049 10.7266 97.0189 13.7014 97.0791M8.46528 99.2033C9.04707 101.126 11.2124 104.849 15.2192 104.364M8.46528 108.31C9.88183 110.46 13.4131 114.517 16.2057 113.546" stroke="#64816C" stroke-opacity="0.5" stroke-width="0.554056"/>
<path d="M26.7166 118.508V90.6484" stroke="#64816C" stroke-opacity="0.5" stroke-width="0.554056"/>
<path d="M26.7164 90.8555C26.2105 92.9049 24.455 97.0189 21.4802 97.0791M26.7164 99.2033C26.1346 101.126 23.9693 104.849 19.9625 104.364M26.7164 108.31C25.2998 110.46 21.7686 114.517 18.976 113.546" stroke="#64816C" stroke-opacity="0.5" stroke-width="0.554056"/>
<path d="M26.7166 90.8555C27.2225 92.9049 28.978 97.0189 31.9527 97.0791M26.7166 99.2033C27.2984 101.126 29.4637 104.849 33.4705 104.364M26.7166 108.31C28.1332 110.46 31.6644 114.517 34.457 113.546" stroke="#64816C" stroke-opacity="0.5" stroke-width="0.554056"/>
<path d="M44.9679 118.508V90.6484" stroke="#64816C" stroke-opacity="0.5" stroke-width="0.554056"/>
<path d="M44.9677 90.8555C44.4618 92.9049 42.7063 97.0189 39.7316 97.0791M44.9677 99.2033C44.3859 101.126 42.2206 104.849 38.2138 104.364M44.9677 108.31C43.5512 110.46 40.0199 114.517 37.2273 113.546" stroke="#64816C" stroke-opacity="0.5" stroke-width="0.554056"/>
<path d="M44.968 90.8555C45.4739 92.9049 47.2293 97.0189 50.2041 97.0791M44.968 99.2033C45.5498 101.126 47.715 104.849 51.7218 104.364M44.968 108.31C46.3845 110.46 49.9158 114.517 52.7084 113.546" stroke="#64816C" stroke-opacity="0.5" stroke-width="0.554056"/>
<path d="M63.2188 118.508V90.6484" stroke="#64816C" stroke-opacity="0.5" stroke-width="0.554056"/>
<path d="M63.2192 90.8555C62.7133 92.9049 60.9578 97.0189 57.983 97.0791M63.2192 99.2033C62.6374 101.126 60.4721 104.849 56.4653 104.364M63.2192 108.31C61.8026 110.46 58.2714 114.517 55.4788 113.546" stroke="#64816C" stroke-opacity="0.5" stroke-width="0.554056"/>
<path d="M63.2188 90.8555C63.7247 92.9049 65.4802 97.0189 68.4549 97.0791M63.2188 99.2033C63.8006 101.126 65.9659 104.849 69.9727 104.364M63.2188 108.31C64.6354 110.46 68.1666 114.517 70.9592 113.546" stroke="#64816C" stroke-opacity="0.5" stroke-width="0.554056"/>
<path d="M81.4701 118.508V90.6484" stroke="#64816C" stroke-opacity="0.5" stroke-width="0.554056"/>
<path d="M81.47 90.8555C80.9641 92.9049 79.2087 97.0189 76.2339 97.0791M81.47 99.2033C80.8882 101.126 78.7229 104.849 74.7162 104.364M81.47 108.31C80.0535 110.46 76.5222 114.517 73.7296 113.546" stroke="#64816C" stroke-opacity="0.5" stroke-width="0.554056"/>
<path d="M81.4697 90.8555C81.9756 92.9049 83.731 97.0189 86.7058 97.0791M81.4697 99.2033C82.0515 101.126 84.2168 104.849 88.2235 104.364M81.4697 108.31C82.8862 110.46 86.4175 114.517 89.2101 113.546" stroke="#64816C" stroke-opacity="0.5" stroke-width="0.554056"/>
<path d="M99.7207 118.508V90.6484" stroke="#64816C" stroke-opacity="0.5" stroke-width="0.554056"/>
<path d="M99.7206 90.8555C99.2147 92.9049 97.4593 97.0189 94.4845 97.0791M99.7206 99.2033C99.1388 101.126 96.9736 104.849 92.9668 104.364M99.7206 108.31C98.3041 110.46 94.7728 114.517 91.9802 113.546" stroke="#64816C" stroke-opacity="0.5" stroke-width="0.554056"/>
<path d="M99.7209 90.8555C100.227 92.9049 101.982 97.0189 104.957 97.0791M99.7209 99.2033C100.303 101.126 102.468 104.849 106.475 104.364M99.7209 108.31C101.137 110.46 104.669 114.517 107.461 113.546" stroke="#64816C" stroke-opacity="0.5" stroke-width="0.554056"/>
<path d="M117.972 118.508V90.6484" stroke="#64816C" stroke-opacity="0.5" stroke-width="0.554056"/>
<path d="M117.972 90.8555C117.466 92.9049 115.711 97.0189 112.736 97.0791M117.972 99.2033C117.39 101.126 115.225 104.849 111.218 104.364M117.972 108.31C116.556 110.46 113.024 114.517 110.232 113.546" stroke="#64816C" stroke-opacity="0.5" stroke-width="0.554056"/>
<path d="M117.972 90.8555C118.478 92.9049 120.234 97.0189 123.209 97.0791M117.972 99.2033C118.554 101.126 120.72 104.849 124.726 104.364M117.972 108.31C119.389 110.46 122.92 114.517 125.713 113.546" stroke="#64816C" stroke-opacity="0.5" stroke-width="0.554056"/>
<path d="M136.223 118.508V90.6484" stroke="#64816C" stroke-opacity="0.5" stroke-width="0.554056"/>
<path d="M136.224 90.8555C135.718 92.9049 133.962 97.0189 130.988 97.0791M136.224 99.2033C135.642 101.126 133.477 104.849 129.47 104.364M136.224 108.31C134.807 110.46 131.276 114.517 128.483 113.546" stroke="#64816C" stroke-opacity="0.5" stroke-width="0.554056"/>
<path d="M136.223 90.8555C136.729 92.9049 138.485 97.0189 141.459 97.0791M136.223 99.2033C136.805 101.126 138.97 104.849 142.977 104.364M136.223 108.31C137.64 110.46 141.171 114.517 143.964 113.546" stroke="#64816C" stroke-opacity="0.5" stroke-width="0.554056"/>
<path d="M154.474 118.508V90.6484" stroke="#64816C" stroke-opacity="0.5" stroke-width="0.554056"/>
<path d="M154.474 90.8555C153.968 92.9049 152.213 97.0189 149.238 97.0791M154.474 99.2033C153.893 101.126 151.727 104.849 147.72 104.364M154.474 108.31C153.058 110.46 149.526 114.517 146.734 113.546" stroke="#64816C" stroke-opacity="0.5" stroke-width="0.554056"/>
<path d="M154.474 90.8555C154.98 92.9049 156.735 97.0189 159.71 97.0791M154.474 99.2033C155.056 101.126 157.221 104.849 161.228 104.364M154.474 108.31C155.89 110.46 159.422 114.517 162.214 113.546" stroke="#64816C" stroke-opacity="0.5" stroke-width="0.554056"/>
<path d="M172.725 118.508V90.6484" stroke="#64816C" stroke-opacity="0.5" stroke-width="0.554056"/>
<path d="M172.725 90.8555C172.219 92.9049 170.464 97.0189 167.489 97.0791M172.725 99.2033C172.143 101.126 169.978 104.849 165.971 104.364M172.725 108.31C171.309 110.46 167.777 114.517 164.985 113.546" stroke="#64816C" stroke-opacity="0.5" stroke-width="0.554056"/>
<path d="M172.726 90.8555C173.231 92.9049 174.987 97.0189 177.962 97.0791M172.726 99.2033C173.307 101.126 175.473 104.849 179.479 104.364M172.726 108.31C174.142 110.46 177.673 114.517 180.466 113.546" stroke="#64816C" stroke-opacity="0.5" stroke-width="0.554056"/>
<path d="M190.976 118.508V90.6484" stroke="#64816C" stroke-opacity="0.5" stroke-width="0.554056"/>
<path d="M190.976 90.8555C190.47 92.9049 188.715 97.0189 185.74 97.0791M190.976 99.2033C190.394 101.126 188.229 104.849 184.222 104.364M190.976 108.31C189.56 110.46 186.028 114.517 183.236 113.546" stroke="#64816C" stroke-opacity="0.5" stroke-width="0.554056"/>
<path d="M190.977 90.8555C191.482 92.9049 193.238 97.0189 196.213 97.0791M190.977 99.2033C191.558 101.126 193.724 104.849 197.73 104.364M190.977 108.31C192.393 110.46 195.924 114.517 198.717 113.546" stroke="#64816C" stroke-opacity="0.5" stroke-width="0.554056"/>
<path fill-rule="evenodd" clip-rule="evenodd" d="M161.589 36.8556C170.596 37.0198 181.563 34.8656 187.171 40.6846C192.7 46.4206 187.559 54.6435 185.63 61.7979C184.272 66.8309 175.079 68.4523 171.223 72.5087C166.58 77.3921 168.925 85.7117 161.589 87.0828C152.72 88.7406 141.953 88.609 135.797 83.0851C129.72 77.6329 133.57 69.2047 133.409 61.7979C133.242 54.1413 140.341 54.9461 146.669 49.3454C153.041 43.7056 152.248 36.6853 161.589 36.8556Z" fill="white" fill-opacity="0.5"/>
<path fill-rule="evenodd" clip-rule="evenodd" d="M184.694 0.357894C191.62 0.453946 200.052 -0.80614 204.364 2.59764C208.615 5.95286 204.663 10.7628 203.179 14.9477C202.136 17.8917 195.067 18.8401 192.102 21.2129C188.531 24.0694 190.335 28.9359 184.694 29.7379C177.875 30.7076 169.596 30.6306 164.862 27.3995C160.19 24.2102 163.15 19.2803 163.026 14.9477C162.898 10.469 168.356 10.9398 173.222 7.66372C178.121 4.36474 177.512 0.25828 184.694 0.357894Z" fill="white" fill-opacity="0.5"/>
</g>
</svg>
