<svg width="139" height="74" viewBox="0 0 139 74" fill="none" xmlns="http://www.w3.org/2000/svg">
<path d="M1 8.39088L12.0426 0.897888C12.8301 0.363486 13.8733 0.401824 14.6196 0.992593L23.9644 8.39088M13.3658 5.67436V6.95711" stroke="#99B7A2" stroke-opacity="0.5" stroke-width="0.715157"/>
<path d="M23.9645 8.39088L35.007 0.897888C35.7946 0.363486 36.8378 0.401824 37.584 0.992593L46.9289 8.39088M36.3303 5.67436V6.95711" stroke="#99B7A2" stroke-opacity="0.5" stroke-width="0.715157"/>
<path d="M46.9288 8.39088L57.9714 0.897888C58.759 0.363486 59.8022 0.401824 60.5484 0.992593L69.8933 8.39088M59.2946 5.67436V6.95711" stroke="#99B7A2" stroke-opacity="0.5" stroke-width="0.715157"/>
<path d="M69.8933 8.39088L80.9359 0.897888C81.7234 0.363486 82.7667 0.401824 83.5129 0.992593L92.8577 8.39088M82.2591 5.67436V6.95711" stroke="#99B7A2" stroke-opacity="0.5" stroke-width="0.715157"/>
<path d="M92.8578 8.39088L103.9 0.897888C104.688 0.363486 105.731 0.401824 106.477 0.992593L115.822 8.39088M105.224 5.67436V6.95711" stroke="#99B7A2" stroke-opacity="0.5" stroke-width="0.715157"/>
<path d="M115.822 8.39088L126.865 0.897888C127.652 0.363486 128.695 0.401824 129.442 0.992593L138.787 8.39088M128.188 5.67436V6.95711" stroke="#99B7A2" stroke-opacity="0.5" stroke-width="0.715157"/>
<path d="M1 19.1155L12.0426 11.6225C12.8301 11.0881 13.8733 11.1264 14.6196 11.7172L23.9644 19.1155M13.3658 16.399V17.6817" stroke="#99B7A2" stroke-opacity="0.5" stroke-width="0.715157"/>
<path d="M23.9645 19.1155L35.007 11.6225C35.7946 11.0881 36.8378 11.1264 37.584 11.7172L46.9289 19.1155M36.3303 16.399V17.6817" stroke="#99B7A2" stroke-opacity="0.5" stroke-width="0.715157"/>
<path d="M46.9288 19.1155L57.9714 11.6225C58.759 11.0881 59.8022 11.1264 60.5484 11.7172L69.8933 19.1155M59.2946 16.399V17.6817" stroke="#99B7A2" stroke-opacity="0.5" stroke-width="0.715157"/>
<path d="M69.8933 19.1155L80.9359 11.6225C81.7234 11.0881 82.7667 11.1264 83.5129 11.7172L92.8577 19.1155M82.2591 16.399V17.6817" stroke="#99B7A2" stroke-opacity="0.5" stroke-width="0.715157"/>
<path d="M92.8578 19.1155L103.9 11.6225C104.688 11.0881 105.731 11.1264 106.477 11.7172L115.822 19.1155M105.224 16.399V17.6817" stroke="#99B7A2" stroke-opacity="0.5" stroke-width="0.715157"/>
<path d="M115.822 19.1155L126.865 11.6225C127.652 11.0881 128.695 11.1264 129.442 11.7172L138.787 19.1155M128.188 16.399V17.6817" stroke="#99B7A2" stroke-opacity="0.5" stroke-width="0.715157"/>
<path d="M1 29.8401L12.0426 22.3471C12.8301 21.8127 13.8733 21.851 14.6196 22.4418L23.9644 29.8401M13.3658 27.1236V28.4063" stroke="#99B7A2" stroke-opacity="0.5" stroke-width="0.715157"/>
<path d="M23.9645 29.8401L35.007 22.3471C35.7946 21.8127 36.8378 21.851 37.584 22.4418L46.9289 29.8401M36.3303 27.1236V28.4063" stroke="#99B7A2" stroke-opacity="0.5" stroke-width="0.715157"/>
<path d="M46.9288 29.8401L57.9714 22.3471C58.759 21.8127 59.8022 21.851 60.5484 22.4418L69.8933 29.8401M59.2946 27.1236V28.4063" stroke="#99B7A2" stroke-opacity="0.5" stroke-width="0.715157"/>
<path d="M69.8933 29.8401L80.9359 22.3471C81.7234 21.8127 82.7667 21.851 83.5129 22.4418L92.8577 29.8401M82.2591 27.1236V28.4063" stroke="#99B7A2" stroke-opacity="0.5" stroke-width="0.715157"/>
<path d="M92.8578 29.8401L103.9 22.3471C104.688 21.8127 105.731 21.851 106.477 22.4418L115.822 29.8401M105.224 27.1236V28.4063" stroke="#99B7A2" stroke-opacity="0.5" stroke-width="0.715157"/>
<path d="M115.822 29.8401L126.865 22.3471C127.652 21.8127 128.695 21.851 129.442 22.4418L138.787 29.8401M128.188 27.1236V28.4063" stroke="#99B7A2" stroke-opacity="0.5" stroke-width="0.715157"/>
<path d="M1 40.5647L12.0426 33.0717C12.8301 32.5373 13.8733 32.5757 14.6196 33.1664L23.9644 40.5647M13.3658 37.8482V39.1309" stroke="#99B7A2" stroke-opacity="0.5" stroke-width="0.715157"/>
<path d="M23.9645 40.5647L35.007 33.0717C35.7946 32.5373 36.8378 32.5757 37.584 33.1664L46.9289 40.5647M36.3303 37.8482V39.1309" stroke="#99B7A2" stroke-opacity="0.5" stroke-width="0.715157"/>
<path d="M46.9288 40.5647L57.9714 33.0717C58.759 32.5373 59.8022 32.5757 60.5484 33.1664L69.8933 40.5647M59.2946 37.8482V39.1309" stroke="#99B7A2" stroke-opacity="0.5" stroke-width="0.715157"/>
<path d="M69.8933 40.5647L80.9359 33.0717C81.7234 32.5373 82.7667 32.5757 83.5129 33.1664L92.8577 40.5647M82.2591 37.8482V39.1309" stroke="#99B7A2" stroke-opacity="0.5" stroke-width="0.715157"/>
<path d="M92.8578 40.5647L103.9 33.0717C104.688 32.5373 105.731 32.5757 106.477 33.1664L115.822 40.5647M105.224 37.8482V39.1309" stroke="#99B7A2" stroke-opacity="0.5" stroke-width="0.715157"/>
<path d="M115.822 40.5647L126.865 33.0717C127.652 32.5373 128.695 32.5757 129.442 33.1664L138.787 40.5647M128.188 37.8482V39.1309" stroke="#99B7A2" stroke-opacity="0.5" stroke-width="0.715157"/>
<path d="M1 51.2893L12.0426 43.7963C12.8301 43.2619 13.8733 43.3003 14.6196 43.891L23.9644 51.2893M13.3658 48.5728V49.8555" stroke="#99B7A2" stroke-opacity="0.5" stroke-width="0.715157"/>
<path d="M23.9645 51.2893L35.007 43.7963C35.7946 43.2619 36.8378 43.3003 37.584 43.891L46.9289 51.2893M36.3303 48.5728V49.8555" stroke="#99B7A2" stroke-opacity="0.5" stroke-width="0.715157"/>
<path d="M46.9288 51.2893L57.9714 43.7963C58.759 43.2619 59.8022 43.3003 60.5484 43.891L69.8933 51.2893M59.2946 48.5728V49.8555" stroke="#99B7A2" stroke-opacity="0.5" stroke-width="0.715157"/>
<path d="M69.8933 51.2893L80.9359 43.7963C81.7234 43.2619 82.7667 43.3003 83.5129 43.891L92.8577 51.2893M82.2591 48.5728V49.8555" stroke="#99B7A2" stroke-opacity="0.5" stroke-width="0.715157"/>
<path d="M92.8578 51.2893L103.9 43.7963C104.688 43.2619 105.731 43.3003 106.477 43.891L115.822 51.2893M105.224 48.5728V49.8555" stroke="#99B7A2" stroke-opacity="0.5" stroke-width="0.715157"/>
<path d="M115.822 51.2893L126.865 43.7963C127.652 43.2619 128.695 43.3003 129.442 43.891L138.787 51.2893M128.188 48.5728V49.8555" stroke="#99B7A2" stroke-opacity="0.5" stroke-width="0.715157"/>
<path d="M1 62.0139L12.0426 54.5209C12.8301 53.9865 13.8733 54.0249 14.6196 54.6156L23.9644 62.0139M13.3658 59.2974V60.5802" stroke="#99B7A2" stroke-opacity="0.5" stroke-width="0.715157"/>
<path d="M23.9645 62.0139L35.007 54.5209C35.7946 53.9865 36.8378 54.0249 37.584 54.6156L46.9289 62.0139M36.3303 59.2974V60.5802" stroke="#99B7A2" stroke-opacity="0.5" stroke-width="0.715157"/>
<path d="M46.9288 62.0139L57.9714 54.5209C58.759 53.9865 59.8022 54.0249 60.5484 54.6156L69.8933 62.0139M59.2946 59.2974V60.5802" stroke="#99B7A2" stroke-opacity="0.5" stroke-width="0.715157"/>
<path d="M69.8933 62.0139L80.9359 54.5209C81.7234 53.9865 82.7667 54.0249 83.5129 54.6156L92.8577 62.0139M82.2591 59.2974V60.5802" stroke="#99B7A2" stroke-opacity="0.5" stroke-width="0.715157"/>
<path d="M92.8578 62.0139L103.9 54.5209C104.688 53.9865 105.731 54.0249 106.477 54.6156L115.822 62.0139M105.224 59.2974V60.5802" stroke="#99B7A2" stroke-opacity="0.5" stroke-width="0.715157"/>
<path d="M115.822 62.0139L126.865 54.5209C127.652 53.9865 128.695 54.0249 129.442 54.6156L138.787 62.0139M128.188 59.2974V60.5802" stroke="#99B7A2" stroke-opacity="0.5" stroke-width="0.715157"/>
<path d="M1 72.7385L12.0426 65.2455C12.8301 64.7111 13.8733 64.7495 14.6196 65.3402L23.9644 72.7385M13.3658 70.022V71.3048" stroke="#99B7A2" stroke-opacity="0.5" stroke-width="0.715157"/>
<path d="M23.9645 72.7385L35.007 65.2455C35.7946 64.7111 36.8378 64.7495 37.584 65.3402L46.9289 72.7385M36.3303 70.022V71.3048" stroke="#99B7A2" stroke-opacity="0.5" stroke-width="0.715157"/>
<path d="M46.9288 72.7385L57.9714 65.2455C58.759 64.7111 59.8022 64.7495 60.5484 65.3402L69.8933 72.7385M59.2946 70.022V71.3048" stroke="#99B7A2" stroke-opacity="0.5" stroke-width="0.715157"/>
<path d="M69.8933 72.7385L80.9359 65.2455C81.7234 64.7111 82.7667 64.7495 83.5129 65.3402L92.8577 72.7385M82.2591 70.022V71.3048" stroke="#99B7A2" stroke-opacity="0.5" stroke-width="0.715157"/>
<path d="M92.8578 72.7385L103.9 65.2455C104.688 64.7111 105.731 64.7495 106.477 65.3402L115.822 72.7385M105.224 70.022V71.3048" stroke="#99B7A2" stroke-opacity="0.5" stroke-width="0.715157"/>
<path d="M115.822 72.7385L126.865 65.2455C127.652 64.7111 128.695 64.7495 129.442 65.3402L138.787 72.7385M128.188 70.022V71.3048" stroke="#99B7A2" stroke-opacity="0.5" stroke-width="0.715157"/>
</svg>
