<svg width="149" height="150" viewBox="0 0 149 150" fill="none" xmlns="http://www.w3.org/2000/svg">
<path d="M141.782 71.085L147.324 74.6445L141.782 78.0679" stroke="#3C4839" stroke-width="0.93016"/>
<path d="M143.227 74.7505H142.754" stroke="#3C4839" stroke-width="0.93016"/>
<path d="M139.576 92.26L143.76 97.3745L137.443 98.9019" stroke="#3C4839" stroke-width="0.93016"/>
<path d="M139.832 96.1968L139.383 96.0495" stroke="#3C4839" stroke-width="0.93016"/>
<path d="M130.975 111.706L133.385 117.879L126.91 117.353" stroke="#3C4839" stroke-width="0.93016"/>
<path d="M130.012 115.53L129.63 115.249" stroke="#3C4839" stroke-width="0.93016"/>
<path d="M116.872 127.488L117.307 134.109L111.298 131.616" stroke="#3C4839" stroke-width="0.93016"/>
<path d="M114.801 130.833L114.522 130.448" stroke="#3C4839" stroke-width="0.93016"/>
<path d="M98.5896 138.156L96.9739 144.588L92.0248 140.337" stroke="#3C4839" stroke-width="0.93016"/>
<path d="M95.5977 140.692L95.4501 140.239" stroke="#3C4839" stroke-width="0.93016"/>
<path d="M77.7011 142.569L74.1571 148.156L70.7907 142.542" stroke="#3C4839" stroke-width="0.93016"/>
<path d="M74.0703 144.016L74.0721 143.539" stroke="#3C4839" stroke-width="0.93016"/>
<path d="M56.7502 140.254L51.6731 144.463L50.1854 138.074" stroke="#3C4839" stroke-width="0.93016"/>
<path d="M52.8516 140.498L52.9992 140.044" stroke="#3C4839" stroke-width="0.93016"/>
<path d="M37.55 131.488L31.4323 133.901L31.9765 127.36" stroke="#3C4839" stroke-width="0.93016"/>
<path d="M33.7695 130.502L34.0487 130.118" stroke="#3C4839" stroke-width="0.93016"/>
<path d="M21.9508 117.143L15.3952 117.535L17.9062 111.481" stroke="#3C4839" stroke-width="0.93016"/>
<path d="M18.6523 115.025L19.0352 114.746" stroke="#3C4839" stroke-width="0.93016"/>
<path d="M11.4928 98.6605L5.14003 96.9793L9.38444 92.0104" stroke="#3C4839" stroke-width="0.93016"/>
<path d="M9.00781 95.6206L9.45746 95.475" stroke="#3C4839" stroke-width="0.93016"/>
<path d="M7.21784 77.5262L1.70318 73.924L7.27175 70.5434" stroke="#3C4839" stroke-width="0.93016"/>
<path d="M5.80078 73.8506L6.27293 73.8543" stroke="#3C4839" stroke-width="0.93016"/>
<path d="M9.57491 56.4115L5.42895 51.2652L11.7576 49.786" stroke="#3C4839" stroke-width="0.93016"/>
<path d="M9.34766 52.4722L9.79564 52.6229" stroke="#3C4839" stroke-width="0.93016"/>
<path d="M18.2939 37.0584L15.9288 30.8677L22.3997 31.4415" stroke="#3C4839" stroke-width="0.93016"/>
<path d="M19.2852 33.2437L19.6649 33.5271" stroke="#3C4839" stroke-width="0.93016"/>
<path d="M32.5594 21.3205L32.1957 14.6947L38.1773 17.2541" stroke="#3C4839" stroke-width="0.93016"/>
<path d="M34.668 18.0005L34.9429 18.3884" stroke="#3C4839" stroke-width="0.93016"/>
<path d="M50.8976 10.8051L52.5852 4.39204L57.4864 8.69974" stroke="#3C4839" stroke-width="0.93016"/>
<path d="M53.918 8.30615L54.0605 8.76149" stroke="#3C4839" stroke-width="0.93016"/>
<path d="M71.8538 6.55999L75.4403 1.0011L78.7638 6.64086" stroke="#3C4839" stroke-width="0.93016"/>
<path d="M75.4961 5.14111L75.4906 5.6182" stroke="#3C4839" stroke-width="0.93016"/>
<path d="M92.6906 9.00915L97.799 4.83909L99.239 11.2397" stroke="#3C4839" stroke-width="0.93016"/>
<path d="M96.5898 8.79736L96.4389 9.24996" stroke="#3C4839" stroke-width="0.93016"/>
<path d="M111.816 17.891L117.951 15.5237L117.359 22.0604" stroke="#3C4839" stroke-width="0.93016"/>
<path d="M115.59 18.9111L115.308 19.2939" stroke="#3C4839" stroke-width="0.93016"/>
<path d="M127.365 32.375L133.924 32.0316L131.369 38.0667" stroke="#3C4839" stroke-width="0.93016"/>
<path d="M130.645 34.5117L130.26 34.7881" stroke="#3C4839" stroke-width="0.93016"/>
<path d="M137.709 50.955L144.049 52.6845L139.768 57.6209" stroke="#3C4839" stroke-width="0.93016"/>
<path d="M140.168 54.0161L139.717 54.1582" stroke="#3C4839" stroke-width="0.93016"/>
</svg>
