<?xml version="1.0" encoding="UTF-8"?>
<svg width="19px" height="13px" viewBox="0 0 19 13" version="1.1" xmlns="http://www.w3.org/2000/svg" xmlns:xlink="http://www.w3.org/1999/xlink">
    <!-- Generator: Sketch 40.3 (33839) - http://www.bohemiancoding.com/sketch -->
    <title>slider_arrow_right_passive</title>
    <desc>Created with Sketch.</desc>
    <defs></defs>
    <g id="Page-1" stroke="none" stroke-width="1" fill="none" fill-rule="evenodd">
        <g id="Artboard" transform="translate(-488.000000, -426.000000)" fill="#37383C">
            <path d="M488.15,432.143 C488.05,432.241 488,432.359 488,432.5 C488,432.64 488.05,432.758 488.15,432.856 L494.316,438.852 C494.363,438.904 494.418,438.942 494.482,438.964 C494.545,438.987 494.61,438.998 494.677,438.998 C494.744,438.998 494.809,438.987 494.873,438.964 C494.936,438.942 494.991,438.904 495.038,438.852 C495.138,438.754 495.189,438.637 495.189,438.5 C495.189,438.364 495.138,438.247 495.038,438.149 L489.754,433.002 L506.478,433.002 C506.625,433.002 506.749,432.954 506.849,432.856 C506.949,432.758 507,432.641 507,432.504 C507,432.361 506.949,432.241 506.849,432.143 C506.749,432.045 506.625,431.997 506.478,431.997 L489.754,431.997 L495.038,426.85 C495.138,426.752 495.189,426.635 495.189,426.498 C495.189,426.362 495.138,426.245 495.038,426.147 C494.938,426.049 494.817,426 494.677,426 C494.537,426 494.416,426.049 494.316,426.147 L488.15,432.143 Z" id="slider_arrow_right_passive" transform="translate(497.500000, 432.499000) scale(-1, 1) translate(-497.500000, -432.499000) "></path>
        </g>
    </g>
</svg>