<svg aria-hidden="true" style="position: absolute; width: 0; height: 0; overflow: hidden;" version="1.1" xmlns="http://www.w3.org/2000/svg" xmlns:xlink="http://www.w3.org/1999/xlink">
<defs>
<symbol id="arrow_down" viewBox="0 0 32 32">
<path fill="none" stroke="#e67739" style="stroke: var(--color1, #e67739)" stroke-linejoin="miter" stroke-linecap="butt" stroke-miterlimit="4" stroke-width="4.4308" d="M29.538 13.5c-5.326 1.268-15.977 6.25-15.977 16.039M13.562 29.538c-5.546-15.247-12.613-16.839-13.562-16.839M13.562 29.538v-29.538"></path>
</symbol>
<symbol id="arrow_down_long" viewBox="0 0 22 32">
<path fill="none" stroke="#e67739" style="stroke: var(--color1, #e67739)" stroke-linejoin="miter" stroke-linecap="butt" stroke-miterlimit="4" stroke-width="3.0316" d="M20.211 19.342c-3.644 0.867-10.932 4.276-10.932 10.974M9.279 30.316c-3.794-10.432-8.63-11.522-9.279-11.522M9.279 30.316v-30.316"></path>
</symbol>
<symbol id="big_arrow" viewBox="0 0 91 32">
<path fill="none" stroke="" style="" stroke-linejoin="miter" stroke-linecap="butt" stroke-miterlimit="4" stroke-width="3.2" d="M73.517 1.778c1.243 5.243 6.129 15.729 15.728 15.729M89.244 17.507c-14.951 5.46-16.513 12.418-16.513 13.352M89.244 17.507h-56.503M2.667 17.507h13.588M16.255 17.507l-13.588-7.058M16.255 17.507l-13.588 8.643M16.255 17.507h8.374M24.629 17.507l-10.729-7.058M24.629 17.507l-10.729 8.643M24.629 17.507h8.112M32.741 17.507l-8.112-7.058M32.741 17.507l-8.112 8.643"></path>
</symbol>
<symbol id="big_thin_arrow" viewBox="0 0 87 32">
<path fill="none" stroke="#e67739" style="stroke: var(--color1, #e67739)" stroke-linejoin="miter" stroke-linecap="butt" stroke-miterlimit="4" stroke-width="2.6667" d="M70.919 1.444c1.244 5.248 6.134 15.745 15.743 15.745M86.662 17.189c-14.966 5.465-16.529 12.43-16.529 13.365M86.662 17.189h-86.662"></path>
</symbol>
<symbol id="bold_mountain" viewBox="0 0 32 32">
<path fill="#3c4839" style="fill: var(--color2, #3c4839)" d="M11.6 7.667c0.769-1.333 2.693-1.333 3.464 0l4.667 8.083 1.203-2.083c0.769-1.333 2.693-1.333 3.464 0l5.773 10c0.175 0.304 0.268 0.649 0.268 1s-0.092 0.696-0.268 1c-0.176 0.304-0.428 0.557-0.732 0.732s-0.649 0.268-1 0.268l-5.773-0.003c-0.032 0.002-0.064 0.003-0.096 0.003h-18.475c-0.351 0-0.696-0.092-1-0.267s-0.557-0.428-0.733-0.732c-0.176-0.304-0.268-0.649-0.268-1s0.092-0.696 0.268-1l9.239-16zM10.387 15.101l0.945 0.629 1.26-0.84c0.219-0.146 0.477-0.224 0.74-0.224s0.521 0.078 0.74 0.224l1.26 0.84 0.945-0.629-2.945-5.101-2.945 5.101z"></path>
</symbol>
<symbol id="bold_tree" viewBox="0 0 32 32">
<path fill="#3a4f37" style="fill: var(--color3, #3a4f37)" d="M16.943 3.057c-0.25-0.25-0.589-0.39-0.943-0.39s-0.693 0.14-0.943 0.39l-5.333 5.333c-0.202 0.202-0.334 0.464-0.376 0.747s0.008 0.572 0.143 0.824c0.329 0.617 0.844 1.033 1.347 1.316l-3.78 3.78c-0.25 0.25-0.39 0.589-0.39 0.943s0.14 0.693 0.39 0.943c0.637 0.637 1.443 1.027 2.179 1.269l-3.512 3.512c-0.161 0.161-0.278 0.361-0.34 0.58s-0.067 0.451-0.014 0.672c0.053 0.221 0.162 0.426 0.316 0.593s0.349 0.293 0.565 0.364c0.92 0.303 1.871 0.517 2.82 0.707 1.040 0.209 2.328 0.416 3.793 0.549l-0.797 2.389c-0.067 0.2-0.085 0.414-0.053 0.623s0.113 0.407 0.237 0.579 0.286 0.311 0.474 0.407c0.188 0.096 0.396 0.146 0.608 0.146h5.333c0.211 0 0.42-0.050 0.608-0.146s0.351-0.236 0.474-0.407c0.123-0.171 0.205-0.37 0.237-0.579s0.014-0.422-0.053-0.623l-0.797-2.389c1.467-0.133 2.755-0.34 3.793-0.548 0.949-0.191 1.907-0.405 2.827-0.709 0.216-0.072 0.409-0.198 0.563-0.365s0.261-0.372 0.314-0.593 0.047-0.452-0.015-0.671c-0.062-0.219-0.179-0.418-0.34-0.579l-3.512-3.512c0.736-0.241 1.541-0.632 2.179-1.269 0.25-0.25 0.39-0.589 0.39-0.943s-0.14-0.693-0.39-0.943l-3.78-3.78c0.503-0.283 1.017-0.699 1.347-1.316 0.135-0.252 0.185-0.541 0.143-0.824s-0.174-0.545-0.376-0.747l-5.333-5.333z"></path>
</symbol>
<symbol id="cook_hat" viewBox="0 0 31 32">
<path fill="#3c4839" style="fill: var(--color2, #3c4839)" d="M16 2.329c-2.266 0-4.262 1.498-4.902 3.674-0.678-0.307-1.395-0.474-2.138-0.474-1.358 0-2.66 0.539-3.62 1.5s-1.5 2.262-1.5 3.62c0.003 1.134 0.381 2.235 1.076 3.131s1.667 1.537 2.764 1.823v9.126h16.64v-9.126c2.253-0.589 3.84-2.624 3.84-4.954 0-1.358-0.539-2.66-1.5-3.62s-2.262-1.5-3.62-1.5c-0.742 0-1.459 0.166-2.138 0.474-0.64-2.176-2.637-3.674-4.902-3.674zM15.36 13.849h1.28v8.96h-1.28v-8.96zM11.52 16.409h1.28v6.4h-1.28v-6.4zM19.2 16.409h1.28v6.4h-1.28v-6.4zM7.68 26.009v1.28c0 0.34 0.135 0.665 0.375 0.905s0.566 0.375 0.905 0.375h14.080c0.339 0 0.665-0.135 0.905-0.375s0.375-0.566 0.375-0.905v-1.28h-16.64z"></path>
</symbol>
<symbol id="facebook" viewBox="0 0 32 32">
<path fill="" style="" opacity="0.01" d="M32 0h-32v32h32v-32z"></path>
<path fill="none" stroke="" style="" stroke-linejoin="round" stroke-linecap="butt" stroke-miterlimit="4" stroke-width="1.1429" d="M24 8.399h-4.009c-0.724 0-1.311 0.587-1.311 1.311v4.601h5.32l-0.779 5.065h-4.541v9.29h-5.85v-9.291h-4.83v-5.065h4.768l0.062-4.807-0.009-0.873c-0.029-2.897 2.295-5.269 5.192-5.298 0.018-0 0.035-0 0.053-0h5.934v5.066z"></path>
</symbol>
<symbol id="girl" viewBox="0 0 32 32">
<path fill="#3c4839" style="fill: var(--color2, #3c4839)" d="M15.994 9.333c0.884 0 1.732-0.351 2.357-0.976s0.976-1.473 0.976-2.357-0.351-1.732-0.976-2.357c-0.625-0.625-1.473-0.976-2.357-0.976s-1.732 0.351-2.357 0.976c-0.625 0.625-0.976 1.473-0.976 2.357s0.351 1.732 0.976 2.357c0.625 0.625 1.473 0.976 2.357 0.976zM26.002 13.545c0.243-0.062 0.472-0.172 0.673-0.323s0.37-0.34 0.497-0.556c0.127-0.216 0.211-0.456 0.245-0.705s0.019-0.502-0.044-0.745-0.175-0.471-0.327-0.671c-0.152-0.2-0.342-0.368-0.56-0.494s-0.457-0.208-0.706-0.241c-0.249-0.033-0.502-0.016-0.745 0.049-3.628 0.951-6.354 1.377-9.033 1.366-2.685-0.010-5.419-0.46-9.070-1.371-0.49-0.123-1.009-0.045-1.442 0.215s-0.745 0.681-0.868 1.172c-0.122 0.49-0.045 1.009 0.215 1.442s0.681 0.745 1.172 0.868c1.762 0.44 3.367 0.789 4.895 1.038-0.301 2-1.901 5.294-2.824 7.073-0.309 0.595 0.063 1.329 0.728 1.412 5.654 0.716 9.231 0.735 14.434 0.011 0.648-0.091 1.009-0.798 0.718-1.384-0.899-1.801-2.514-5.211-2.857-7.089 1.528-0.248 3.134-0.606 4.9-1.068zM11.232 24.585v3.32c0 0.346 0.126 0.681 0.354 0.941s0.543 0.429 0.887 0.475c0.343 0.045 0.691-0.035 0.98-0.227s0.497-0.482 0.587-0.816l0.895-3.317c-1.24-0.063-2.476-0.188-3.703-0.375zM18.004 24.954l0.897 3.324c0.090 0.334 0.299 0.624 0.587 0.816s0.636 0.273 0.98 0.227c0.343-0.045 0.658-0.214 0.887-0.475s0.354-0.595 0.354-0.941v-3.333c-1.228 0.186-2.465 0.314-3.705 0.382z"></path>
</symbol>
<symbol id="home" viewBox="0 0 32 32">
<path fill="" style="" d="M16.349 6.331c-0.093-0.089-0.217-0.139-0.346-0.139s-0.253 0.050-0.346 0.139l-11.506 10.992c-0.049 0.047-0.088 0.103-0.114 0.165s-0.040 0.129-0.040 0.197l-0.002 10.316c0 0.53 0.211 1.039 0.586 1.414s0.884 0.586 1.414 0.586h6.006c0.265 0 0.52-0.105 0.707-0.293s0.293-0.442 0.293-0.707v-8.5c0-0.133 0.053-0.26 0.146-0.353s0.221-0.147 0.354-0.147h5c0.133 0 0.26 0.053 0.353 0.147s0.147 0.221 0.147 0.353v8.5c0 0.265 0.105 0.519 0.293 0.707s0.442 0.293 0.707 0.293h6.004c0.53 0 1.039-0.211 1.414-0.586s0.586-0.884 0.586-1.414v-10.316c0-0.068-0.014-0.135-0.040-0.197s-0.065-0.118-0.114-0.165l-11.502-10.992z"></path>
<path fill="" style="" d="M30.682 15.259l-4.675-4.472v-6.787c0-0.265-0.105-0.52-0.293-0.707s-0.442-0.293-0.707-0.293h-3c-0.265 0-0.52 0.105-0.707 0.293s-0.293 0.442-0.293 0.707v2l-3.62-3.461c-0.339-0.342-0.843-0.539-1.387-0.539-0.543 0-1.045 0.196-1.384 0.539l-13.294 12.719c-0.389 0.375-0.438 0.992-0.084 1.398 0.089 0.103 0.198 0.186 0.32 0.245s0.255 0.093 0.39 0.099c0.136 0.006 0.271-0.015 0.398-0.063s0.243-0.121 0.341-0.215l12.969-12.393c0.093-0.089 0.217-0.139 0.346-0.139s0.253 0.050 0.346 0.139l12.97 12.393c0.191 0.183 0.447 0.283 0.712 0.278s0.516-0.115 0.7-0.306c0.384-0.397 0.352-1.054-0.047-1.436z"></path>
</symbol>
<symbol id="instagram" viewBox="0 0 32 32">
<path fill="none" stroke="" style="" stroke-linejoin="round" stroke-linecap="butt" stroke-miterlimit="4" stroke-width="1.1429" d="M3.51 10.369c0.062-1.352 0.274-2.225 0.56-2.965l0.004-0.010c0.284-0.753 0.728-1.436 1.303-2l0.008-0.008 0.008-0.008c0.565-0.575 1.247-1.019 2-1.302l0.013-0.005c0.739-0.287 1.609-0.498 2.963-0.56M3.51 10.369c-0.065 1.445-0.082 1.893-0.082 5.64s0.016 4.194 0.082 5.64M3.51 10.369v0.364M4.076 24.624c0.283 0.753 0.727 1.436 1.302 2l0.008 0.008 0.008 0.008c0.564 0.574 1.247 1.019 2 1.303l0.011 0.004c0.739 0.287 1.61 0.498 2.964 0.56M4.076 24.624l-0.005-0.013c-0.287-0.739-0.498-1.609-0.56-2.963M4.076 24.624l-0.017-0.089M3.51 21.648l0.022 0.117M3.51 21.648v-0.365M4.059 24.534l-0.526-2.77M4.059 24.534c-0.223-0.59-0.453-1.413-0.526-2.77M4.059 24.534c0.008 0.021 0.016 0.041 0.023 0.061 0.283 0.764 0.732 1.455 1.314 2.025 0.569 0.582 1.261 1.031 2.024 1.314 0.613 0.239 1.476 0.488 2.948 0.556 1.486 0.068 1.945 0.081 5.64 0.081s4.154-0.014 5.64-0.081c1.474-0.068 2.336-0.318 2.947-0.555 0.764-0.283 1.456-0.732 2.025-1.314 0.582-0.569 1.031-1.261 1.314-2.024 0.239-0.613 0.488-1.476 0.556-2.948 0.068-1.486 0.081-1.946 0.081-5.64s-0.014-4.154-0.081-5.64c-0.068-1.482-0.321-2.345-0.559-2.956-0.311-0.803-0.705-1.41-1.312-2.016-0.605-0.604-1.21-0.998-2.014-1.31-0.613-0.24-1.477-0.491-2.957-0.559-0.129-0.006-0.25-0.011-0.366-0.016M3.533 21.765c-0.002-0.038-0.004-0.077-0.006-0.116-0.006-0.129-0.011-0.25-0.016-0.366M10.369 3.51c1.445-0.066 1.893-0.082 5.64-0.082s4.194 0.017 5.639 0.082M10.369 3.51h0.365M21.648 3.51h-0.365M21.648 3.51c1.353 0.062 2.225 0.274 2.965 0.56l0.010 0.004c0.753 0.284 1.436 0.728 2 1.303l0.008 0.008 0.008 0.008c0.575 0.564 1.019 1.247 1.303 2l0.005 0.013c0.287 0.739 0.498 1.609 0.56 2.963M10.734 3.51h10.549M10.734 3.51c1.224-0.054 1.9-0.065 5.274-0.065s4.050 0.012 5.274 0.065M10.734 3.51c-0.116 0.005-0.237 0.011-0.366 0.016-1.474 0.068-2.336 0.318-2.947 0.555-0.767 0.284-1.461 0.735-2.031 1.321-0.601 0.603-0.994 1.207-1.304 2.008-0.24 0.613-0.491 1.478-0.559 2.958-0.006 0.128-0.011 0.249-0.016 0.365M28.507 21.648c-0.062 1.354-0.273 2.224-0.56 2.964l-0.004 0.011c-0.284 0.753-0.728 1.436-1.303 2l-0.008 0.008-0.008 0.008c-0.565 0.575-1.247 1.019-2 1.302l-0.013 0.005c-0.739 0.287-1.609 0.498-2.963 0.56M3.51 21.282c-0.054-1.224-0.065-1.9-0.065-5.274 0-3.375 0.011-4.050 0.065-5.275M3.51 21.282l0-10.549M13.771 21.41c0.709 0.294 1.47 0.445 2.237 0.445 1.551 0 3.038-0.616 4.134-1.712s1.712-2.584 1.712-4.134c0-1.551-0.616-3.038-1.712-4.134s-2.584-1.712-4.134-1.712c-0.768 0-1.528 0.151-2.237 0.445s-1.354 0.724-1.897 1.267c-0.543 0.543-0.974 1.187-1.267 1.897s-0.445 1.47-0.445 2.237c0 0.768 0.151 1.528 0.445 2.237s0.724 1.354 1.267 1.897c0.543 0.543 1.187 0.974 1.897 1.267zM11.861 11.861c1.1-1.1 2.592-1.718 4.147-1.718s3.047 0.618 4.147 1.718c1.1 1.1 1.718 2.592 1.718 4.147s-0.618 3.047-1.718 4.147c-1.1 1.1-2.592 1.718-4.147 1.718s-3.047-0.618-4.147-1.718c-1.1-1.1-1.718-2.592-1.718-4.147s0.618-3.047 1.718-4.147zM25.176 8.778c0 0.445-0.177 0.872-0.492 1.187s-0.742 0.492-1.187 0.492c-0.445 0-0.872-0.177-1.187-0.492s-0.492-0.742-0.492-1.187 0.177-0.872 0.492-1.187c0.315-0.315 0.742-0.492 1.187-0.492s0.872 0.177 1.187 0.492 0.492 0.742 0.492 1.187z"></path>
</symbol>
<symbol id="left_arrow" viewBox="0 0 42 32">
<path fill="none" stroke="" style="" stroke-linejoin="miter" stroke-linecap="butt" stroke-miterlimit="4" stroke-width="1.9074" d="M18.491 1.6c-1.335 5.631-6.582 16.893-16.891 16.893M1.6 18.493c16.057 5.864 16.891 12.26 16.891 13.263M1.6 18.493h39.236"></path>
</symbol>
<symbol id="mountain" viewBox="0 0 47 32">
<path fill="none" stroke="#3c4839" style="stroke: var(--color2, #3c4839)" stroke-linejoin="miter" stroke-linecap="butt" stroke-miterlimit="4" stroke-width="1.92" d="M1.28 29.239l6.474-12.182M46.288 29.239l-11.282-15.327-10.005 10.346-5.599-10.346M7.754 17.057l6.474-12.182 5.175 9.037M7.754 17.057l3.669 3.215 2.804-4.455 3.87 1.239 1.306-3.145"></path>
</symbol>
<symbol id="one_tree" viewBox="0 0 20 32">
<path fill="none" stroke="#99b7a2" style="stroke: var(--color5, #99b7a2)" stroke-linejoin="miter" stroke-linecap="butt" stroke-miterlimit="4" stroke-width="1.8286" d="M9.991 31.92v-30.476"></path>
<path fill="none" stroke="#99b7a2" style="stroke: var(--color5, #99b7a2)" stroke-linejoin="miter" stroke-linecap="butt" stroke-miterlimit="4" stroke-width="1.8286" d="M9.991 1.67c-0.553 2.242-2.474 6.742-5.728 6.808M9.991 10.802c-0.636 2.103-3.005 6.176-7.388 5.645M9.991 20.763c-1.55 2.352-5.413 6.791-8.467 5.728"></path>
<path fill="none" stroke="#99b7a2" style="stroke: var(--color5, #99b7a2)" stroke-linejoin="miter" stroke-linecap="butt" stroke-miterlimit="4" stroke-width="1.8286" d="M9.992 1.67c0.553 2.242 2.474 6.742 5.728 6.808M9.992 10.802c0.636 2.103 3.005 6.176 7.388 5.645M9.992 20.763c1.55 2.352 5.413 6.791 8.468 5.728"></path>
</symbol>
<symbol id="point_map" viewBox="0 0 33 32">
<path fill="" style="" d="M17.277 2.661c-5.881 0-10.667 4.785-10.667 10.66-0.039 8.593 10.261 15.719 10.667 16.007 0 0 10.705-7.413 10.667-16 0-5.881-4.785-10.667-10.667-10.667zM17.277 18.661c-2.947 0-5.333-2.387-5.333-5.333s2.387-5.333 5.333-5.333c2.947 0 5.333 2.387 5.333 5.333s-2.387 5.333-5.333 5.333z"></path>
</symbol>
<symbol id="right_arrow" viewBox="0 0 43 32">
<path fill="none" stroke="#3c4839" style="stroke: var(--color2, #3c4839)" stroke-linejoin="miter" stroke-linecap="butt" stroke-miterlimit="4" stroke-width="1.9074" d="M23.909 30.4c1.335-5.631 6.582-16.893 16.891-16.893M40.8 13.507c-16.057-5.864-16.891-12.26-16.891-13.263M40.8 13.507h-39.237"></path>
</symbol>
<symbol id="sky" viewBox="0 0 31 32">
<path fill="none" stroke="#3a4f37" style="stroke: var(--color3, #3a4f37)" stroke-linejoin="round" stroke-linecap="round" stroke-miterlimit="4" stroke-width="1.3913" d="M3.038 6.467c4.99-0.911 2.079-3.764 0-5.076v5.076zM3.038 6.467c0-4.016 0 9.343 0 19.558M3.038 26.026v1.109M3.038 26.026c0 0.374 0 0.744 0 1.109M3.038 27.135v3.604c0-1.108 0-2.324 0-3.604zM3.038 27.135l-2.12-1.109h4.605l-2.485 1.109z"></path>
<path fill="#3a4f37" style="fill: var(--color3, #3a4f37); stroke: var(--color3, #3a4f37)" stroke="#3a4f37" stroke-linejoin="round" stroke-linecap="round" stroke-miterlimit="4" stroke-width="1.3913" d="M11.196 1.405c-0.579-0.253-2.484 3.002-2.62 3.997 0 5.996 1.159 11.469 0.447 17.783-0.724 6.423 0.386 7.868 2.679 7.868 2.527 0 2.126-6.186 1.727-7.868-0.345-1.45 0.422-16.841 0.483-17.781s-1.992-3.683-2.716-3.999z"></path>
<path fill="#3a4f37" style="fill: var(--color3, #3a4f37); stroke: var(--color3, #3a4f37)" stroke="#3a4f37" stroke-linejoin="round" stroke-linecap="round" stroke-miterlimit="4" stroke-width="1.3913" d="M19.316 1.405c-0.579-0.253-2.484 3.002-2.62 3.997 0 5.996 1.16 11.469 0.447 17.783-0.724 6.423 0.386 7.868 2.679 7.868 2.527 0 2.126-6.186 1.727-7.868-0.345-1.45 0.423-16.841 0.483-17.781s-1.992-3.683-2.716-3.999z"></path>
<path fill="none" stroke="#3a4f37" style="stroke: var(--color3, #3a4f37)" stroke-linejoin="round" stroke-linecap="round" stroke-miterlimit="4" stroke-width="1.3913" d="M27.571 6.467c-4.99-0.911-2.079-3.764 0-5.076v5.076zM27.571 6.467c0-4.016 0 9.343 0 19.558M27.571 26.026v1.109M27.571 26.026c0 0.374 0 0.744 0 1.109M27.571 27.135v3.604c0-1.108 0-2.324 0-3.604zM27.571 27.135l2.12-1.109h-4.605l2.485 1.109z"></path>
</symbol>
<symbol id="telegram" viewBox="0 0 32 32">
<path fill="none" stroke="" style="" stroke-linejoin="round" stroke-linecap="round" stroke-miterlimit="4" stroke-width="1.1429" d="M27.22 5.654c0.76 0 1.333 0.667 1.027 1.907l-3.72 17.533c-0.26 1.247-1.013 1.547-2.053 0.967l-8.873-6.553c-0.034-0.025-0.063-0.057-0.082-0.095s-0.029-0.079-0.029-0.122c0-0.042 0.010-0.084 0.029-0.122s0.047-0.070 0.082-0.095l10.247-9.253c0.467-0.413-0.1-0.613-0.713-0.24l-12.86 8.113c-0.039 0.025-0.083 0.042-0.13 0.047s-0.093 0.001-0.137-0.014l-5.46-1.727c-1.213-0.353-1.213-1.187 0.273-1.78l21.847-8.427c0.173-0.083 0.361-0.131 0.553-0.14z"></path>
</symbol>
<symbol id="viber" viewBox="0 0 32 32">
<path stroke="" style="" d="M17.048 11.587c0.009-0.175 0.159-0.31 0.334-0.301 0.656 0.034 1.202 0.233 1.591 0.635 0.387 0.401 0.577 0.96 0.611 1.632 0.009 0.175-0.127 0.325-0.302 0.333s-0.325-0.126-0.333-0.302c-0.029-0.575-0.186-0.967-0.433-1.222-0.245-0.253-0.618-0.413-1.167-0.442-0.175-0.009-0.31-0.159-0.301-0.334z">
</path>
<path stroke="" style="" d="M16.906 9.58c-0.175-0.013-0.328 0.119-0.34 0.294s0.119 0.328 0.294 0.34c1.211 0.089 2.121 0.494 2.771 1.204 0.653 0.713 0.973 1.602 0.949 2.691-0.004 0.176 0.136 0.321 0.311 0.325s0.321-0.135 0.325-0.311c0.027-1.235-0.341-2.288-1.116-3.134l-0-0c-0.783-0.855-1.858-1.311-3.194-1.409z">
</path>
<path stroke="" style="" d="M16.004 8.245c0.001-0.176 0.145-0.317 0.32-0.316 1.846 0.013 3.406 0.627 4.659 1.849 1.263 1.231 1.888 2.908 1.904 4.99 0.001 0.176-0.14 0.319-0.316 0.321s-0.319-0.14-0.32-0.316c-0.015-1.951-0.595-3.451-1.712-4.539-1.127-1.098-2.526-1.656-4.219-1.668-0.176-0.001-0.317-0.145-0.316-0.32z">
</path>
<path stroke="" style="" d="M18.116 17.57c-0.241 0.297-0.688 0.259-0.688 0.259-3.268-0.834-4.142-4.144-4.142-4.144s-0.039-0.447 0.259-0.688l0.591-0.469c0.293-0.226 0.48-0.773 0.181-1.308-0.229-0.401-0.477-0.791-0.745-1.167-0.26-0.355-0.866-1.082-0.868-1.084-0.292-0.344-0.722-0.424-1.174-0.189-0.001 0-0.003 0.001-0.005 0.001s-0.003 0.001-0.004 0.001c-0.45 0.259-0.856 0.589-1.203 0.976-0.001 0.002-0.002 0.004-0.004 0.005s-0.002 0.002-0.003 0.004c-0.28 0.338-0.44 0.668-0.48 0.993-0.008 0.048-0.011 0.096-0.009 0.145-0.002 0.143 0.020 0.286 0.065 0.422l0.015 0.011c0.141 0.501 0.494 1.336 1.262 2.727 0.439 0.805 0.945 1.571 1.513 2.291 0.285 0.361 0.59 0.705 0.914 1.030 0.004 0.004 0.008 0.008 0.012 0.012 0.008 0.008 0.015 0.015 0.023 0.023l0.104 0.104c0.326 0.324 0.67 0.629 1.030 0.914 0.72 0.568 1.486 1.074 2.291 1.513 1.391 0.767 2.226 1.121 2.727 1.262l0.011 0.016c0.136 0.044 0.279 0.066 0.422 0.065 0.048 0.002 0.097-0.001 0.145-0.009 0.325-0.038 0.655-0.198 0.992-0.48 0.004-0.002 0.004-0.004 0.009-0.007 0.387-0.347 0.717-0.753 0.977-1.203 0-0.001 0-0.002 0.001-0.004s0.001-0.004 0.001-0.006c0.236-0.453 0.156-0.882-0.191-1.174-0 0-0.029-0.023-0.077-0.063-0.196-0.162-0.722-0.595-1.008-0.805-0.376-0.268-0.765-0.516-1.166-0.745-0.535-0.298-1.081-0.111-1.308 0.181l-0.469 0.59z">
</path>
<path stroke="" style="" d="M25.725 5.881c-0.625-0.577-3.15-2.409-8.774-2.434 0 0-6.632-0.4-9.865 2.566-1.8 1.8-2.433 4.434-2.5 7.7s-0.153 9.385 5.746 11.045h0.006l-0.004 2.532c0 0-0.038 1.025 0.637 1.234 0.681 0.212 1.128-0.296 1.71-0.958 0.115-0.131 0.236-0.269 0.365-0.407 0.428-0.461 1.019-1.138 1.464-1.656 4.035 0.34 7.137-0.437 7.49-0.551 0.073-0.024 0.176-0.050 0.303-0.082v0c1.303-0.331 5.188-1.319 5.87-6.892 0.774-6.307-0.374-10.297-2.449-12.095zM26.408 17.524c-0.57 4.601-3.657 5.319-4.77 5.578l-0 0c-0.123 0.029-0.222 0.052-0.29 0.074-0.293 0.094-3.018 0.772-6.445 0.549 0 0-2.553 3.081-3.351 3.882-0.125 0.125-0.271 0.176-0.369 0.151-0.137-0.034-0.175-0.196-0.174-0.434 0.002-0.34 0.022-4.208 0.022-4.208-4.825-1.34-4.713-6.254-4.649-9.043v-0c0.002-0.095 0.004-0.188 0.006-0.278 0.057-2.728 0.569-4.962 2.091-6.465 2.735-2.477 8.368-2.107 8.368-2.107 4.757 0.021 7.037 1.453 7.566 1.933 1.755 1.503 2.649 5.099 1.996 10.367v0.002z">
</path>
</symbol>
</defs>
</svg>
