<svg width="56" height="56" viewBox="0 0 56 56" fill="none" xmlns="http://www.w3.org/2000/svg">
<path d="M25.0312 55.1096C25.0527 55.1052 25.0699 55.0999 25.0783 55.0928C25.0574 55.0984 25.0442 55.104 25.0312 55.1096Z" fill="#689762"/>
<path d="M55.9903 29.7857C55.9932 29.9897 55.9859 30.2664 55.9677 30.54C55.9626 30.6084 55.9595 30.6767 55.9506 30.7434C55.9416 30.8099 55.9319 30.8751 55.9218 30.9378C55.9014 31.0632 55.8786 31.178 55.854 31.2734C55.871 31.0264 55.8757 30.8715 55.874 30.7653C55.8729 30.6591 55.8581 30.6009 55.8476 30.5487C55.8243 30.4439 55.7978 30.3602 55.7936 29.9532C55.7569 30.2649 55.7516 30.5374 55.7257 30.7715C55.6966 31.0051 55.6619 31.2014 55.5902 31.36C55.5857 31.6484 55.5733 31.9045 55.5396 32.1383C55.5022 32.3715 55.4572 32.5844 55.4093 32.7907C55.3601 32.9964 55.3121 33.1969 55.2626 33.4045C55.2047 33.6104 55.1487 33.8241 55.0988 34.0606L55.185 33.4651C55.2117 33.2666 55.2257 33.0659 55.2462 32.867C55.2202 33.0281 55.197 33.1937 55.1749 33.3596C55.1456 33.5241 55.1164 33.6883 55.0879 33.8484C55.0287 34.1683 54.968 34.471 54.8909 34.7182L54.8591 34.6597C54.7191 34.9609 54.5906 35.2352 54.4766 35.5726C54.3695 35.9122 54.2409 36.3034 54.1155 36.8476C54.0384 36.9865 53.9241 37.2429 53.9397 37.0734C53.9219 37.1142 53.9044 37.1543 53.8872 37.1938C53.8689 37.2329 53.8509 37.2711 53.8332 37.3087C53.7983 37.384 53.7659 37.4574 53.7356 37.5288C53.6748 37.6717 53.6225 37.8073 53.5755 37.9384C53.4806 38.2003 53.413 38.4464 53.3227 38.6859C53.1497 39.1671 52.9825 39.666 52.5609 40.2857C52.4728 40.434 52.3874 40.5848 52.3041 40.7379C52.2197 40.8904 52.1271 41.0395 52.0413 41.1932C51.9553 41.3468 51.8692 41.5009 51.7829 41.6553C51.6977 41.8104 51.6149 41.9671 51.5204 42.1169C51.3372 42.4198 51.1541 42.7225 50.9666 43.018C50.7699 43.3072 50.5625 43.5848 50.3509 43.8501L50.3571 43.8794C50.5781 43.6029 50.7961 43.3195 51.0001 43.033C51.1937 42.7391 51.3843 42.4495 51.5676 42.1711C51.613 42.1012 51.6599 42.0332 51.7033 41.9642C51.7457 41.8945 51.7877 41.8257 51.829 41.7578C51.9123 41.6223 51.9947 41.4912 52.0766 41.3659C52.2384 41.1142 52.4066 40.8901 52.553 40.6866L52.4764 40.8798C52.4505 40.9442 52.4205 41.0062 52.3926 41.0695C52.1713 41.4063 51.9662 41.7346 51.7695 42.0552C51.5599 42.368 51.3618 42.6748 51.1715 42.9785C51.0792 43.132 50.9772 43.2771 50.8792 43.4232C50.7818 43.5698 50.6851 43.7152 50.5888 43.8599C50.4923 44.0044 50.401 44.1519 50.3027 44.2935C50.2031 44.4343 50.1037 44.5746 50.0044 44.715C49.9053 44.8559 49.8065 44.9967 49.7073 45.1379C49.6571 45.208 49.6093 45.2803 49.557 45.3492C49.5042 45.4177 49.4514 45.4863 49.3985 45.5551C49.1859 45.8299 48.9722 46.109 48.7485 46.3885C48.5152 46.6594 48.275 46.9339 48.0246 47.2131C47.9019 47.3553 47.7654 47.4871 47.6291 47.6237C47.4922 47.7596 47.3524 47.8968 47.209 48.0352C47.1278 48.1101 47.0454 48.1859 46.9623 48.2626C46.8765 48.3364 46.7898 48.4113 46.7021 48.4866C46.5275 48.6384 46.3495 48.7932 46.169 48.9499C46.0782 49.0277 45.9903 49.1102 45.8959 49.186C45.8015 49.2619 45.7067 49.3382 45.6115 49.4149C45.4209 49.5682 45.2288 49.7226 45.0361 49.8774C44.9876 49.9157 44.9402 49.9557 44.8907 49.9926L44.7406 50.1019L44.4399 50.3199C44.2383 50.4636 44.0375 50.607 43.838 50.7493C43.4248 51.0127 43.0173 51.2719 42.6129 51.4999C42.936 51.2781 42.5741 51.3896 43.117 51.0588C43.2422 51.1005 43.3679 50.9945 43.5757 50.8142C43.6799 50.7241 43.8051 50.6158 43.9534 50.4878C44.1041 50.3621 44.2852 50.2257 44.5084 50.0863C45.1297 49.7014 46.2928 48.7912 46.1103 48.8072C46.3399 48.6724 46.7176 48.2942 46.8106 48.1866C46.5814 48.3413 46.3494 48.5421 46.1156 48.7547C45.9976 48.8596 45.8842 48.9735 45.7615 49.075C45.6397 49.1773 45.5179 49.2783 45.3966 49.3734C45.2046 49.5079 45.0135 49.6475 44.8233 49.7905C44.6286 49.9282 44.4329 50.0665 44.2366 50.2054C44.0407 50.3444 43.849 50.4908 43.6521 50.628C43.453 50.7626 43.2545 50.8967 43.0576 51.0297C42.9591 51.0963 42.861 51.1627 42.7633 51.2287C42.7144 51.2617 42.6657 51.2945 42.6171 51.3272C42.567 51.3575 42.5171 51.3879 42.4675 51.4182C42.2683 51.5388 42.071 51.6566 41.876 51.7704C41.4903 52.0051 41.0963 52.19 40.7233 52.3543C40.5629 52.4476 40.3993 52.5457 40.227 52.635C40.0536 52.7216 39.8757 52.8082 39.6951 52.8945C39.5138 52.9797 39.3305 53.066 39.146 53.1527C38.9602 53.2365 38.7682 53.3092 38.5787 53.3877C38.1979 53.5403 37.8205 53.7026 37.441 53.8318C37.2528 53.9016 37.0671 53.9702 36.8846 54.0378C36.7027 54.1072 36.5248 54.178 36.3481 54.2366C35.9678 54.3322 35.6414 54.3351 35.2828 54.525C35.0104 54.5733 34.7325 54.6248 34.4598 54.6841C34.1865 54.7405 33.9197 54.8122 33.6611 54.8573C33.4036 54.9082 33.1596 54.9592 32.9385 55.0063C32.7174 55.0533 32.5196 55.099 32.3523 55.1222L31.6813 55.1319C31.5021 55.155 31.3233 55.1781 31.145 55.2012C30.9661 55.2181 30.7878 55.2349 30.6102 55.2516C30.4327 55.2696 30.2558 55.2873 30.0802 55.3051C29.9044 55.3233 29.7296 55.3432 29.5555 55.3496C29.2076 55.3689 28.8644 55.3871 28.5281 55.4008C28.3599 55.4108 28.1934 55.4067 28.029 55.4031C27.8645 55.3996 27.7021 55.3947 27.542 55.3879L27.5675 55.3659L27.1085 55.3489C27.032 55.3452 26.9554 55.3449 26.8791 55.3382L26.65 55.3186L26.6047 55.3601C26.2917 55.3244 25.8009 55.3025 25.4432 55.2598C25.1205 55.2123 24.9104 55.1623 25.0328 55.1096C24.8478 55.1477 24.2427 55.0981 24.3387 55.1725C24.1453 55.0797 23.8085 55.066 23.4254 55.0109C23.1367 54.9705 22.7659 54.9232 22.3657 54.8283C22.1651 54.7835 21.9552 54.7365 21.7414 54.6887C21.6346 54.6639 21.527 54.639 21.4189 54.6138L21.0986 54.5225C20.8857 54.4599 20.6742 54.3978 20.4691 54.3375C20.2644 54.2764 20.0661 54.2178 19.8842 54.1479C19.5181 54.0153 19.1998 53.8947 18.9703 53.8012L18.9384 53.8144C18.8298 53.7837 18.7073 53.7428 18.5805 53.7033C18.4537 53.6635 18.3233 53.6231 18.2027 53.5826C17.9617 53.5016 17.7605 53.4208 17.7097 53.3473C17.1183 53.2409 18.502 53.7219 18.393 53.7703C18.2002 53.7089 18.0637 53.6945 17.8178 53.5861C17.4742 53.4525 17.0983 53.2738 16.6967 53.1009C16.5966 53.0571 16.4952 53.0128 16.3929 52.9681C16.3418 52.9457 16.2906 52.923 16.2392 52.9004C16.1887 52.8756 16.1383 52.8509 16.0877 52.826C15.8852 52.7257 15.6811 52.6247 15.4783 52.5241C15.3773 52.4732 15.2763 52.4224 15.1764 52.3721C15.1265 52.3464 15.0762 52.322 15.0275 52.2954C14.9792 52.2677 14.9312 52.2404 14.8834 52.213C14.6925 52.1034 14.5066 51.9945 14.3292 51.8872C14.1525 51.7788 13.9812 51.6773 13.8273 51.5693C13.6746 51.4598 13.5332 51.3536 13.4069 51.252C13.5547 51.3379 13.7099 51.4303 13.8701 51.5272C14.0319 51.6214 14.2036 51.7124 14.3753 51.8097C14.7212 52.0001 15.0709 52.2121 15.429 52.385C15.6062 52.4746 15.7809 52.563 15.9502 52.6487C16.1202 52.7327 16.2823 52.8193 16.4438 52.8858C16.7637 53.0254 17.0514 53.146 17.285 53.2343L16.676 52.903C16.5187 52.8372 16.3504 52.7773 16.1862 52.6971C16.0205 52.6198 15.8503 52.5404 15.6776 52.4599C15.5052 52.378 15.3304 52.2948 15.155 52.2114C14.9816 52.1242 14.812 52.0283 14.6419 51.9366C14.4728 51.843 14.3051 51.7501 14.1408 51.6591C14.0592 51.6124 13.977 51.5687 13.8989 51.5207C13.8214 51.4716 13.7449 51.4232 13.6697 51.3756C13.3695 51.1841 13.0921 51.0012 12.8536 50.8356C12.6849 50.6989 12.4234 50.496 12.109 50.2693C12.0304 50.2128 11.9486 50.1542 11.8649 50.094C11.8228 50.0641 11.7803 50.0339 11.7373 50.0032C11.6954 49.971 11.6532 49.9385 11.6106 49.9057C11.4397 49.7749 11.2622 49.6411 11.0834 49.5088C11.0408 49.4421 10.9445 49.3502 10.8182 49.2446C10.7863 49.2186 10.7528 49.1913 10.7183 49.1629C10.6843 49.1337 10.6491 49.1035 10.613 49.0725C10.5397 49.0118 10.4627 48.948 10.3845 48.8831C10.2266 48.755 10.0637 48.6227 9.91597 48.5029C9.84293 48.4418 9.77349 48.384 9.71027 48.3312C9.64907 48.2764 9.59659 48.2237 9.55268 48.1786C9.19669 47.8807 9.34011 48.1824 9.52838 48.3123C9.63568 48.3987 9.75185 48.4754 9.86428 48.5559C9.97983 48.7008 10.1173 48.8395 10.2695 48.9758C10.3455 49.044 10.4252 49.1114 10.5074 49.179C10.5488 49.2123 10.5909 49.246 10.6331 49.2799C10.6772 49.3116 10.7217 49.3437 10.7665 49.3759C10.9466 49.5038 11.1323 49.6358 11.3219 49.7705C11.5109 49.9055 11.6958 50.0536 11.8885 50.196C12.4457 50.638 11.9253 50.2557 12.2095 50.5403C12.0024 50.3959 11.7923 50.2554 11.5881 50.1067L10.9856 49.6473C10.5781 49.3479 10.1985 49.0143 9.81102 48.6899C9.72256 48.6133 9.6394 48.5415 9.5606 48.4733C9.48492 48.4017 9.41345 48.334 9.3454 48.2696C9.20914 48.1406 9.08611 48.0243 8.96917 47.9137C8.85113 47.8043 8.73947 47.7009 8.62688 47.5965C8.51429 47.4922 8.40607 47.3817 8.28508 47.2684C8.08528 47.0658 8.07625 47.0017 7.9688 46.8648C8.14882 47.0017 8.2139 47.0046 8.51024 47.2765C8.24971 46.9415 8.02517 46.7167 7.78863 46.4854C7.56236 46.2452 7.32564 45.9969 7.03833 45.6265L7.12491 45.7641L6.89771 45.5486C6.82203 45.4764 6.75228 45.3996 6.67909 45.325C6.5802 45.2249 6.42477 45.042 6.25394 44.8315C6.16938 44.7256 6.07985 44.6135 5.99093 44.5022C5.90824 44.386 5.82601 44.2705 5.74924 44.1627C5.44418 43.7296 5.23224 43.4146 5.4107 43.6778L5.28534 43.6564C4.37404 42.383 3.7119 41.0935 3.11454 39.9336C2.92534 39.5098 2.74702 39.1201 2.57665 38.749C2.42108 38.3716 2.27611 38.0118 2.13455 37.657C2.06058 37.4808 2.0025 37.3001 1.94223 37.12C1.88228 36.9398 1.82343 36.7588 1.76566 36.5751C1.73731 36.4832 1.70866 36.3907 1.67985 36.2975C1.66599 36.2507 1.65197 36.2037 1.63795 36.1566C1.62627 36.1088 1.61443 36.0608 1.60244 36.0125C1.55541 35.8191 1.50979 35.6215 1.46525 35.4175C1.52505 35.5498 1.62019 35.8545 1.64542 35.8197L1.73201 36.1129C1.76347 36.2098 1.79819 36.3057 1.8312 36.4021L2.03224 36.9795L2.13316 37.2679L2.18377 37.4121L2.2406 37.554L2.46969 38.1206C2.50223 38.3352 2.62151 38.6827 2.78705 39.0072C2.94589 39.3347 3.11937 39.6522 3.2167 39.8296C3.12918 39.5387 2.97562 39.2237 2.82223 38.9079C2.78424 38.8287 2.74609 38.7497 2.70841 38.6713C2.67446 38.5914 2.64223 38.5117 2.61171 38.433C2.55082 38.2755 2.49834 38.1216 2.46252 37.9753C2.37531 37.8113 2.29542 37.6366 2.22192 37.458C2.15247 37.278 2.09657 37.0916 2.04222 36.9093C1.98865 36.7267 1.94053 36.547 1.89646 36.3766C1.87466 36.2914 1.85348 36.2084 1.83308 36.1285C1.81439 36.0482 1.79991 35.9698 1.78387 35.896L1.57488 35.4763C1.58453 35.4 1.56196 35.2465 1.52163 35.0551C1.50014 34.9597 1.4763 34.8543 1.45154 34.744C1.42912 34.6329 1.40436 34.5175 1.37866 34.4022C1.2776 33.9412 1.15334 33.4872 1.125 33.3577C1.13886 33.6056 1.23727 33.9536 1.3184 34.2875C1.35998 34.4543 1.39938 34.6171 1.42695 34.7619C1.45778 34.9058 1.4813 35.0305 1.47865 35.124C1.4405 35.0011 1.39767 34.8795 1.36372 34.7555L1.2636 34.3829L1.06457 33.6362C0.986241 33.7908 1.31032 34.5391 1.18247 34.485C1.13295 34.2401 1.08373 34.0243 1.03514 33.8221C1.01038 33.7211 0.986404 33.6233 0.962889 33.527C0.940465 33.4304 0.923334 33.3342 0.903713 33.2382C0.865716 33.0459 0.829114 32.8516 0.795321 32.6402C0.778347 32.5345 0.76215 32.4245 0.746733 32.3084C0.739414 32.2504 0.732108 32.1907 0.724321 32.1295C0.719182 32.0678 0.715592 32.0043 0.711699 31.9389C0.727583 32.0061 0.741436 32.0737 0.759032 32.1406L0.673547 31.3264L0.632278 30.9196L0.612185 30.7162L0.601293 30.5121C0.62216 30.4688 0.642708 30.6315 0.663263 30.7363L0.529665 29.407C0.54041 29.7041 0.597547 30.1557 0.565156 30.3053C0.509095 30.0834 0.509263 29.6763 0.481077 29.3594L0.505371 30.4275L0.432793 30.012C0.431859 29.9101 0.420348 29.7044 0.403063 29.4861C0.398391 29.4316 0.393702 29.3762 0.389186 29.3213C0.386383 29.2665 0.383583 29.2123 0.380936 29.16C0.374707 29.0555 0.3674 28.9592 0.358524 28.8823C0.323174 28.7868 0.316166 29.0859 0.295299 29.187C0.282685 29.0839 0.26166 28.9744 0.266176 28.7956C0.283929 28.4468 0.359612 28.3139 0.372382 28.3315C0.343573 27.9117 0.38981 27.1329 0.432946 26.7099L0.447127 26.9208C0.456159 26.6749 0.462546 26.4288 0.488396 26.1837C0.425483 26.0766 0.456151 25.7221 0.490411 25.3466C0.498664 25.2527 0.507231 25.1573 0.515484 25.0643C0.525762 24.9715 0.537592 24.8808 0.544911 24.7958C0.560328 24.6255 0.564079 24.4772 0.543523 24.3782L0.6779 23.905L0.684763 23.6936C0.626055 23.6501 0.54757 24.2368 0.479519 24.5099C0.468929 23.7109 0.769466 22.7769 0.879875 22.1C0.987637 22.0455 0.751726 22.9838 0.752037 23.3287C0.821957 22.9649 0.888297 22.6007 0.962889 22.2382C0.997304 21.7324 1.09868 21.454 1.18775 21.2702C1.27885 21.0865 1.35095 20.994 1.35095 20.8555C1.32852 20.9053 1.30516 20.955 1.28616 21.0057C1.30563 20.8675 1.33414 20.7315 1.35796 20.5941C1.43209 20.2865 1.51337 19.9695 1.59824 19.6546C1.69292 19.3427 1.7985 19.0354 1.89941 18.7408C1.95126 18.5939 2.0022 18.4502 2.0514 18.311C2.10871 18.1749 2.16414 18.0432 2.21724 17.9172C2.32516 17.6661 2.42732 17.4399 2.51858 17.2499L2.40412 17.6506C2.47981 17.4642 2.55471 17.2801 2.62649 17.1034C2.70264 16.9287 2.77599 16.7617 2.83501 16.6035L2.56654 17.0184C2.73799 16.5974 2.90772 16.1747 3.08432 15.7543C2.96052 16.0626 2.83019 16.3543 2.70327 16.6078C2.64021 16.7346 2.57884 16.8523 2.52137 16.9585C2.46313 17.0644 2.4183 17.1625 2.37392 17.2444C2.33872 17.2716 2.39322 17.1089 2.42062 17.0117C2.51966 16.8924 2.69003 16.468 2.82505 16.196L2.55532 16.6126C2.6416 16.4006 2.73113 16.1954 2.82395 15.9976C2.87082 15.899 2.91629 15.801 2.96674 15.7072C3.01891 15.614 3.07172 15.5229 3.12513 15.4336L2.92892 15.7101C2.74516 16.0602 2.58117 16.4099 2.43058 16.7501C2.39383 16.8356 2.35413 16.9189 2.32236 17.0045C2.2906 17.0902 2.2593 17.175 2.22815 17.259C2.1682 17.4276 2.10949 17.5925 2.05218 17.7534C1.99675 17.9147 1.94271 18.0721 1.89007 18.2249C1.84429 18.38 1.79976 18.5305 1.75678 18.676C1.67082 18.9669 1.58842 19.2367 1.50433 19.4804C1.39206 19.7875 1.28025 20.1502 1.17015 20.459C1.11596 20.6137 1.06394 20.7555 1.01691 20.8714C0.974868 20.9887 0.937183 21.08 0.904948 21.132L0.933919 20.9199L0.711699 21.8318C0.67635 21.9841 0.635092 22.1354 0.605037 22.2888L0.516587 22.7497L0.498205 22.7222L0.392931 23.2769L0.340769 23.5545C0.323484 23.647 0.313359 23.7405 0.2995 23.8335C0.319432 23.7487 0.337486 23.6638 0.359132 23.5795L0.429676 23.3275C0.422824 23.4132 0.415049 23.4972 0.406484 23.58C0.4001 23.6631 0.393875 23.7448 0.387646 23.8254C0.374254 23.9868 0.357433 24.1435 0.338279 24.2972C0.319125 24.451 0.297629 24.6018 0.274426 24.7511C0.250912 24.9004 0.225367 25.0482 0.209794 25.1972C0.141275 25.7916 0.0383517 26.3889 0.0568829 27.0773C0.0696524 27.5029 0.06233 27.9146 0.0845986 28.3214C0.0905161 28.5248 0.0964358 28.7268 0.102353 28.9287C0.108582 29.1304 0.107332 29.3321 0.125241 29.5338C0.152648 29.9376 0.180371 30.3439 0.215098 30.7597C0.2682 31.1737 0.329398 31.5972 0.404146 32.0356C0.374247 32.1795 0.304632 32.2106 0.44821 32.8862L0.407416 32.3678C0.453666 32.6452 0.523577 32.9181 0.584621 33.1739C0.615143 33.3018 0.643641 33.4256 0.665753 33.544C0.692382 33.6614 0.71404 33.773 0.724473 33.8783C0.681493 33.7443 0.631045 33.6116 0.594449 33.4758C0.558788 33.3951 0.568896 33.5402 0.575592 33.6227C0.651586 33.8823 0.796579 34.2657 0.916487 34.6498C0.947009 34.7458 0.97363 34.8424 1.00119 34.9364C1.03078 35.0299 1.05725 35.1218 1.07906 35.2102C1.1225 35.3871 1.14727 35.5506 1.14057 35.6867L0.984845 35.2895L1.00572 35.4552C1.10258 35.6637 1.19305 35.9931 1.2896 36.2283C1.41574 36.5663 1.61973 37.1514 1.75708 37.5973C1.91265 38.0363 1.99518 38.3401 1.84148 38.1234C2.03801 38.4801 2.14203 38.7114 2.24387 38.9394C2.35023 39.1655 2.44492 39.392 2.60952 39.7409C2.43776 39.2922 2.25587 38.8492 2.1137 38.3909C2.35274 38.8431 2.477 39.155 2.57713 39.4618C2.68162 39.7659 2.7573 40.0672 2.98933 40.4442L2.84497 40.2557C3.00101 40.5245 3.16903 40.8227 3.34049 41.1311C3.38409 41.2078 3.42474 41.2868 3.47146 41.3629C3.51802 41.4391 3.56473 41.5155 3.61145 41.5921C3.70473 41.7452 3.79817 41.8983 3.8902 42.0494C3.98239 42.2003 4.07317 42.3491 4.16146 42.4937C4.25615 42.6341 4.3482 42.7704 4.43571 42.9002C4.61153 43.1595 4.77144 43.3924 4.90505 43.5807C5.20576 44.1955 5.86354 44.7645 5.96274 45.1003C6.29645 45.4435 6.56897 45.769 6.84274 46.0652C6.97651 46.2159 7.10374 46.3648 7.22785 46.5138C7.28952 46.5887 7.35072 46.6632 7.41192 46.7377C7.47234 46.8129 7.53836 46.8829 7.60112 46.9564C7.85651 47.2464 8.10801 47.5488 8.39626 47.862C8.5442 48.0148 8.6996 48.1724 8.86545 48.3357C8.94892 48.4168 9.03456 48.4999 9.1227 48.5854C9.21162 48.6698 9.30164 48.7581 9.40224 48.8404L9.37171 48.8435C9.54519 48.9341 9.78735 49.1404 10.0202 49.3608C10.1371 49.4702 10.2491 49.5864 10.3536 49.6874C10.459 49.7871 10.5516 49.878 10.6208 49.9478C10.7217 49.9848 10.4906 49.7849 10.4263 49.7043L10.6044 49.8182C10.824 49.9847 11.1096 50.22 11.296 50.3852C11.388 50.4692 11.4595 50.5301 11.4829 50.5592C11.5062 50.5882 11.4823 50.5844 11.3893 50.5309C11.7554 50.7457 11.9457 50.8671 12.1866 51.0387C12.2466 51.0821 12.3099 51.128 12.3803 51.1789C12.4499 51.231 12.5272 51.2871 12.6176 51.3462C12.7977 51.4662 13.0197 51.6144 13.3117 51.8091C13.41 51.8371 13.2846 51.7019 13.5944 51.8857C13.5738 51.9509 13.8019 52.1041 14.1163 52.2852C14.4317 52.4644 14.8246 52.6845 15.1583 52.8414C15.0236 52.743 14.885 52.6523 14.7553 52.5465C14.8979 52.6037 15.0916 52.7025 15.2809 52.8038C15.4263 52.9204 15.6667 53.0675 15.9634 53.2314C16.0369 53.2736 16.116 53.3128 16.1987 53.3512C16.2814 53.39 16.3666 53.4299 16.4539 53.4708C16.6291 53.5517 16.8138 53.6347 17.0029 53.7182C17.0975 53.7597 17.193 53.8016 17.2891 53.8438C17.3858 53.8841 17.485 53.9198 17.5829 53.9578C17.7794 54.0323 17.9752 54.1066 18.1655 54.1789C18.2607 54.2151 18.3544 54.2508 18.4463 54.2856C18.538 54.3208 18.6275 54.3557 18.7168 54.3838C18.894 54.4434 19.0604 54.5003 19.2115 54.554C19.1241 54.4956 18.7616 54.3247 19.1483 54.4364C19.3264 54.4975 19.4887 54.5532 19.6391 54.6047C19.7902 54.6541 19.9272 54.7063 20.0608 54.741C20.3263 54.8154 20.559 54.8806 20.7901 54.9454C20.9056 54.9778 21.0209 55.01 21.1397 55.0431C21.2579 55.0786 21.3815 55.1076 21.5128 55.1382C21.7749 55.2018 22.067 55.2729 22.4213 55.3589C22.5175 55.3899 22.6131 55.4239 22.7113 55.4467C22.8092 55.4705 22.9078 55.4927 23.0073 55.5137C23.2065 55.5556 23.4094 55.5928 23.619 55.6293C24.0369 55.7111 24.4868 55.7499 24.9872 55.8301C25.1247 55.8375 25.213 55.8257 25.3253 55.8234C25.4375 55.8237 25.5746 55.8229 25.8103 55.8568C26.0413 55.8921 25.9519 55.9103 25.9207 55.9346L26.5558 55.9212C26.6403 55.9072 26.768 55.9154 26.9077 55.9259C27.0474 55.9317 27.1991 55.942 27.3304 55.9431C27.5535 55.9442 27.7486 55.9773 27.6532 56.0002C27.8897 55.9764 28.1537 55.9867 28.4441 55.9859C28.7346 55.9814 29.0518 55.9809 29.3925 55.9644L29.4353 55.9182C29.5692 55.9168 29.7153 55.9212 29.8704 55.9115C30.0257 55.9013 30.1904 55.8905 30.3625 55.8793C30.5346 55.8664 30.7141 55.853 30.8987 55.8393C30.991 55.832 31.0844 55.8245 31.1791 55.817C31.2736 55.8088 31.3686 55.7939 31.4646 55.7824C31.848 55.7315 32.2432 55.6791 32.6327 55.6274C33.0193 55.5576 33.4004 55.4888 33.7581 55.424C33.8386 55.4049 33.9186 55.3858 33.9984 55.3666C34.0778 55.3457 34.1566 55.3247 34.2351 55.3039C34.3922 55.263 34.5481 55.2249 34.7029 55.1888C34.8578 55.1538 35.0113 55.1192 35.1632 55.0849C35.2392 55.0681 35.3149 55.0514 35.3901 55.0349C35.4645 55.0153 35.5386 54.9958 35.6123 54.9766C35.9071 54.8991 36.1955 54.8225 36.475 54.7405C36.5448 54.7194 36.6141 54.6986 36.6829 54.6778C36.7516 54.6563 36.8181 54.6293 36.8849 54.6047C37.0179 54.554 37.1484 54.5013 37.2759 54.4455L37.3027 54.3892C37.5458 54.3143 37.7467 54.2455 37.925 54.1806C38.1028 54.1144 38.2543 54.0418 38.4057 53.9767C38.5564 53.9102 38.7045 53.8452 38.8699 53.7781C38.9526 53.7445 39.0396 53.7103 39.1334 53.6752C39.1803 53.6578 39.2289 53.6398 39.2791 53.6212C39.329 53.6012 39.3807 53.5806 39.4344 53.559C39.3735 53.5932 39.3133 53.6294 39.2516 53.662L39.0652 53.7576C39.2712 53.6836 39.4803 53.5812 39.6937 53.4802C39.9064 53.3784 40.1224 53.2751 40.3317 53.175C40.5435 53.0801 40.74 52.9709 40.9284 52.885C41.1161 52.7974 41.2913 52.7245 41.4473 52.6753C41.3022 52.6908 41.5205 52.5778 41.8114 52.4183C42.0993 52.2534 42.4659 52.051 42.6369 51.9269C42.7245 51.8477 42.0537 52.2832 42.1649 52.1389C42.2599 52.0654 42.3827 51.9831 42.5202 51.8975C42.5891 51.8547 42.6613 51.8113 42.7358 51.7675C42.7731 51.7459 42.8108 51.7241 42.8487 51.702L42.9605 51.632C43.2596 51.4464 43.565 51.2707 43.7734 51.1561L43.6069 51.2868L44.022 51.0237L44.4249 50.7423L44.8275 50.4604C44.9604 50.3647 45.0984 50.2759 45.2261 50.1732L46.0033 49.5718C46.0678 49.5214 46.1332 49.4719 46.1969 49.4204L46.3839 49.2613L46.7578 48.9426C46.6055 49.055 46.4347 49.1913 46.2544 49.3393C46.1656 49.4151 46.0678 49.4857 45.9709 49.5606C45.8739 49.6352 45.7754 49.7108 45.6766 49.7864C45.4795 49.9379 45.2822 50.0893 45.0942 50.2285C44.9003 50.3599 44.7167 50.48 44.5537 50.5778C45.4346 49.9675 46.3508 49.1538 47.0534 48.5747C47.1506 48.4762 47.2384 48.3676 47.3301 48.2637C47.4891 48.1215 47.6708 47.9465 47.8404 47.7881C47.9253 47.7089 48.0071 47.6337 48.0818 47.569C48.1547 47.5025 48.2185 47.4445 48.2729 47.4045L48.1435 47.5681C48.0996 47.622 48.0531 47.6734 48.0081 47.7262C48.0536 47.6839 48.1011 47.6395 48.1495 47.5942C48.1959 47.547 48.2435 47.4988 48.2909 47.4505C48.3858 47.3538 48.4805 47.2563 48.5667 47.1648C48.7394 46.9819 48.8785 46.8232 48.9196 46.7434C48.7947 46.8821 48.7281 46.9234 48.6623 46.9737C48.7902 46.8082 48.9235 46.6484 49.0454 46.4787C49.4352 46.0365 49.2786 46.3596 49.6682 45.9145C50.0889 45.2765 49.236 46.3962 49.2918 46.2024C49.4821 45.9893 49.6749 45.7734 49.8698 45.5551C50.0534 45.3273 50.2392 45.0972 50.4266 44.8647C50.5197 44.7481 50.6133 44.6308 50.7072 44.5131C50.7955 44.3911 50.8842 44.2687 50.9733 44.146C51.1505 43.8996 51.3307 43.6524 51.507 43.4004C51.6739 43.1422 51.8418 42.8825 52.0104 42.6216C52.093 42.4901 52.1816 42.362 52.2591 42.2267C52.3371 42.0918 52.4152 41.9566 52.4933 41.8213C52.5712 41.6858 52.6492 41.5501 52.7272 41.4143C52.8041 41.2779 52.8859 41.1441 52.9549 41.003C53.0977 40.7237 53.2405 40.4442 53.3833 40.1647C53.9282 39.0347 54.4198 37.8798 54.7945 36.7199C55.0011 36.1463 55.1517 35.5642 55.3166 34.9992C55.3596 34.8584 55.3926 34.7157 55.4258 34.574C55.4594 34.4324 55.4927 34.2916 55.5259 34.1516C55.5591 34.0117 55.5921 33.8725 55.625 33.7343C55.6581 33.5962 55.6916 33.4591 55.7151 33.321C55.7098 33.0887 55.7338 32.8071 55.7726 32.5012C55.7903 32.3481 55.8185 32.1898 55.8366 32.027C55.8551 31.8643 55.8741 31.6984 55.8931 31.5331C55.9126 31.3679 55.9319 31.2029 55.9507 31.0419C55.9679 30.8807 55.9897 30.724 55.9934 30.5731C56.0049 30.2719 56.0085 30.0002 55.9903 29.7857ZM0.991536 21.5333L1.07921 21.1749L1.11285 21.2277L0.981252 21.769C0.950419 21.8015 0.978455 21.6366 0.991536 21.5333ZM0.569832 23.1852L0.692709 22.5431L0.709513 22.5721L0.587739 23.2104C0.548029 23.4234 0.503506 23.6356 0.477656 23.8507L0.458019 23.8291C0.483869 23.6128 0.530589 23.3995 0.569832 23.1852ZM0.373161 25.3856C0.389668 25.2164 0.405707 25.0365 0.426729 24.8796L0.446347 24.9024C0.422054 25.0563 0.413952 25.2115 0.398691 25.3662L0.358049 25.8307C0.347459 25.714 0.357744 25.5548 0.373161 25.3856ZM1.37182 36.4213C1.35282 36.3614 1.33195 36.3022 1.31435 36.2419L1.26421 36.0603L1.16439 35.6972L1.19336 35.7175L1.29192 36.0757L1.34146 36.2548L1.39891 36.4314L1.37182 36.4213ZM1.84616 37.4967C1.81673 37.4048 1.78419 37.3035 1.75024 37.197C1.68717 37.0135 1.61988 36.8297 1.55136 36.6441C1.48502 36.4577 1.40685 36.2725 1.35095 36.0777C1.23151 35.6902 1.11487 35.2893 1.03311 34.864C1.1404 35.1903 1.26405 35.6005 1.381 36.018C1.43566 36.2279 1.50824 36.4337 1.571 36.6333C1.63453 36.8328 1.69511 37.024 1.75024 37.197C1.81082 37.3759 1.87247 37.5576 1.93336 37.737C1.9086 37.669 1.87606 37.5886 1.84616 37.4967ZM3.74677 41.5216C3.80206 41.5991 3.88133 41.7168 3.89332 41.6975C3.81343 41.4959 3.79568 41.4089 3.89877 41.7004C3.8994 41.7043 3.89223 41.6925 3.89332 41.6975C3.96931 41.8927 4.10417 42.194 4.23497 42.3423C4.16241 42.2987 3.90857 41.7952 3.74677 41.5216ZM7.31008 46.4357C7.176 46.2909 7.14438 46.2241 7.09969 46.1542L7.49554 46.5833C7.41659 46.5091 7.30292 46.3933 7.31008 46.4357ZM20.383 54.435C20.2947 54.4163 20.2055 54.396 20.0853 54.3656C19.966 54.3323 19.8176 54.2834 19.6089 54.2155C19.7058 54.2292 19.8634 54.2802 19.9945 54.3199C20.1255 54.3598 20.2329 54.379 20.2225 54.3497L20.0733 54.2816L21.1356 54.5953C20.7314 54.5038 20.5593 54.4725 20.383 54.435ZM36.7771 54.5837C36.5755 54.6483 36.335 54.705 36.1984 54.7671L36.0334 54.7891L36.5904 54.614C36.776 54.5558 36.9568 54.4826 37.1401 54.4174C37.1446 54.4577 36.9782 54.5175 36.7771 54.5837ZM41.9592 51.8903C41.717 52.0333 41.6504 52.0291 41.4954 52.0952C42.0434 51.836 42.0581 51.7054 42.4743 51.4988C42.4614 51.554 42.1328 51.7592 41.9592 51.8903Z" fill="#689762"/>
<path d="M0.0137058 26.8419L0 27.2159C0.0189984 27.3003 0.0359766 27.1562 0.0509261 27.077C0.0428284 26.9707 0.0373759 26.8021 0.0137058 26.8419Z" fill="#689762"/>
<path d="M48.2266 14.6406C48.3339 14.8199 48.4251 14.9791 48.4964 15.0722C48.3918 14.9046 48.3063 14.7679 48.2266 14.6406Z" fill="#689762"/>
<path d="M14.3203 8.40454C14.4201 8.32677 14.5229 8.24687 14.6142 8.17578C14.4972 8.25583 14.3955 8.33178 14.3203 8.40454Z" fill="#689762"/>
<path d="M48.1699 10.7526C48.14 10.7039 48.1003 10.6463 48.0156 10.5547L48.1699 10.7526Z" fill="#689762"/>
<path d="M44.3672 6.93876L44.9166 7.37851L44.9467 7.3738C44.7232 7.19 44.5094 7.0217 44.3968 6.93359L44.3672 6.93876Z" fill="#689762"/>
<path d="M15.1882 7.82528C15.3832 7.71272 15.5663 7.59834 15.6993 7.48047C15.4822 7.60214 15.2954 7.71227 15.12 7.82179C15.0324 7.87647 14.9473 7.931 14.8629 7.98675C14.781 8.04614 14.7002 8.10766 14.6172 8.17131C14.7035 8.11252 14.7955 8.05116 14.8922 7.99313C14.9903 7.93738 15.0903 7.88072 15.1882 7.82528Z" fill="#689762"/>
<path d="M53.4141 20.8398C53.4642 21.0173 53.5348 21.2261 53.5483 21.305L53.5416 21.0502C53.5088 21.0285 53.4845 21.0414 53.4141 20.8398Z" fill="#689762"/>
<path d="M53.5469 21.3047L53.5477 21.3376C53.5511 21.3346 53.5498 21.3217 53.5469 21.3047Z" fill="#689762"/>
<path d="M45.3828 9.72266L45.8592 10.1858L45.9783 10.3015C46.0171 10.341 46.0542 10.3822 46.0921 10.4223L46.3189 10.6649L46.0697 10.2984C46.0668 10.2941 46.0635 10.2902 46.0605 10.2859C46.0624 10.2892 46.066 10.2936 46.0675 10.2968C45.866 10.2254 45.7126 9.97056 45.3828 9.72266Z" fill="#689762"/>
<path d="M46 10.2031C46.0215 10.2321 46.0438 10.2605 46.0646 10.29C46.0511 10.2656 46.0288 10.2362 46 10.2031Z" fill="#689762"/>
<path d="M31.7656 4.30479C31.7963 4.30522 31.8277 4.30555 31.8578 4.30555C31.8262 4.305 31.7933 4.30446 31.7656 4.30479Z" fill="#689762"/>
<path d="M31.7011 4.31809C31.6835 4.30381 31.7156 4.29955 31.7628 4.29879C31.6391 4.29621 31.5399 4.29211 31.7011 4.31809Z" fill="#689762"/>
<path d="M1.47497 33.0461C1.48961 33.2268 1.49835 33.3809 1.5773 33.656L1.5396 33.481C1.52263 33.3693 1.52606 33.3256 1.53462 33.3244C1.54381 33.3232 1.55815 33.3646 1.57964 33.4202C1.62075 33.532 1.6729 33.7041 1.68489 33.7233C1.65998 33.6443 1.63677 33.563 1.61591 33.4825C1.6061 33.4421 1.59644 33.402 1.58678 33.3625C1.58024 33.3224 1.57372 33.283 1.56749 33.2448C1.54475 33.091 1.53462 32.9521 1.54287 32.8523L1.375 32.2656C1.44414 32.6565 1.46049 32.8652 1.47497 33.0461Z" fill="#689762"/>
<path d="M3.48438 17.6434C3.49714 17.614 3.50774 17.5873 3.5188 17.5586C3.51242 17.5695 3.50648 17.5796 3.49994 17.5908C3.4948 17.6078 3.48998 17.6242 3.48438 17.6434Z" fill="#689762"/>
<path d="M3.37901 17.9472C3.43881 17.8156 3.46358 17.7251 3.48584 17.6406C3.44691 17.7386 3.40721 17.8338 3.36719 17.9148L3.37901 17.9472Z" fill="#689762"/>
<path d="M10.0906 8.30492C10.1026 8.29004 10.1113 8.2832 10.1231 8.26953C10.0823 8.30599 10.064 8.32391 10.0906 8.30492Z" fill="#689762"/>
<path d="M16.6231 7.21875C16.6184 7.22256 16.6145 7.22472 16.6094 7.2277C16.6145 7.22488 16.6148 7.22554 16.6148 7.22554C16.6177 7.22306 16.6184 7.22256 16.6231 7.21875Z" fill="#689762"/>
<path d="M5.40667 21.4244L5.45199 21.2715L5.4361 21.2461L5.39062 21.3991L5.40667 21.4244Z" fill="#689762"/>
<path d="M18.1328 6.28359C18.2113 6.24971 18.2854 6.21766 18.3734 6.17969C18.3102 6.19624 18.221 6.23665 18.1328 6.28359Z" fill="#689762"/>
<path d="M7.32308 45.1291C7.2885 45.1057 7.58392 45.435 7.89771 45.794C7.97588 45.884 8.05529 45.9758 8.13175 46.0637C8.20728 46.1526 8.28623 46.2319 8.35226 46.3069C8.48603 46.4555 8.58414 46.5732 8.60516 46.622C8.67835 46.6341 8.84716 46.81 9.03341 47.0105C9.22448 47.206 9.44094 47.419 9.58669 47.5227C9.70473 47.6052 9.56832 47.3727 9.51834 47.3921C9.4017 47.2792 9.27369 47.162 9.14195 47.0433C9.01317 46.9215 8.88515 46.7938 8.7587 46.6695C8.63288 46.5448 8.5111 46.4215 8.401 46.3027C8.29122 46.1839 8.19155 46.0712 8.11961 45.9592C8.11961 45.9592 8.11962 45.9592 8.11915 45.9597L7.32308 45.1291Z" fill="#689762"/>
<path d="M8.12238 45.9624C8.11646 45.9372 8.09622 45.9006 8.07847 45.8671L8.03906 45.8311C8.0632 45.874 8.08921 45.9143 8.12238 45.9624Z" fill="#689762"/>
<path d="M16.7614 7.09042C16.7988 7.09407 16.6921 7.16637 16.6172 7.22045C16.7597 7.13569 16.8975 7.04212 17.0347 6.96875C16.966 6.9885 16.902 7.00277 16.7614 7.09042Z" fill="#689762"/>
<path d="M52.1276 30.7493L52.125 30.9278C52.1561 30.8708 52.1909 30.841 52.2243 30.7529C52.241 30.7089 52.2574 30.6503 52.2728 30.5663C52.2863 30.4821 52.3073 30.3736 52.3095 30.2274C52.2838 30.2172 52.2633 30.3047 52.2276 30.415C52.1943 30.5259 52.1589 30.6609 52.1276 30.7493Z" fill="#689762"/>
<path d="M53.7439 37.2686C53.5399 37.665 53.3344 38.2529 53.2891 38.4871C53.4607 38.0633 53.6921 37.5807 53.7439 37.2686Z" fill="#689762"/>
<path d="M48.3828 46.6363C48.4359 46.5645 48.5049 46.4854 48.5818 46.4026C48.6206 46.3614 48.6606 46.3189 48.7016 46.2754C48.7413 46.2311 48.7818 46.186 48.8221 46.1408C48.9841 45.9607 49.146 45.7802 49.2452 45.6318C49.0837 45.8135 48.8969 46.0207 48.7379 46.206C48.5773 46.39 48.4347 46.5431 48.3828 46.6363Z" fill="#689762"/>
<path d="M47.6107 47.4092L47.0703 47.9413L47.6066 47.4437L47.6107 47.4092Z" fill="#689762"/>
<path d="M46.9453 47.966L47.4776 47.4723L47.4784 47.4404L46.9453 47.966Z" fill="#689762"/>
<path d="M42.8468 52.2296C42.6753 52.3376 42.4887 52.468 42.3086 52.5728C42.2961 52.6094 42.2584 52.6606 42.4443 52.5735C42.5873 52.4813 42.7493 52.3844 42.9009 52.2898C42.9769 52.2424 43.0503 52.1956 43.1175 52.1502C43.1829 52.1017 43.2423 52.0549 43.2921 52.0107C43.2323 52.0212 43.1643 52.0496 43.0903 52.0897C43.0146 52.1274 42.9324 52.1754 42.8468 52.2296Z" fill="#689762"/>
<path d="M42.097 53.1871C42.0177 53.2387 41.9577 53.2825 41.9297 53.3103C42.1039 53.2271 42.2717 53.1318 42.44 53.0379C42.6856 52.9091 43.0022 52.7151 42.9615 52.6943C42.8064 52.7513 42.5772 52.8783 42.3727 53.0054C42.2704 53.0688 42.1748 53.1332 42.097 53.1871Z" fill="#689762"/>
<path d="M39.3359 52.3644L39.828 52.149L39.8385 52.1201L39.3464 52.3352L39.3359 52.3644Z" fill="#689762"/>
<path d="M23.9203 54.5086L23.9136 54.5069C23.9111 54.5068 23.9087 54.5069 23.9062 54.5068L23.9203 54.5086Z" fill="#689762"/>
<path d="M24.3217 54.5323C24.2283 54.525 24.1359 54.5104 24.0434 54.4968L23.7656 54.4561L23.9123 54.5056C23.9548 54.5068 24.0006 54.5088 24.0522 54.5124C24.1339 54.5182 24.225 54.5277 24.3217 54.5323Z" fill="#689762"/>
<path d="M23.7141 54.5466C23.668 54.517 23.7234 54.5037 23.838 54.503C23.857 54.5029 23.8799 54.5037 23.9021 54.5043L23.0312 54.3545C23.3404 54.4183 23.5443 54.4866 23.7141 54.5466Z" fill="#689762"/>
<path d="M20.7109 54.3773L21.4164 54.5841L21.4467 54.5683C21.21 54.5019 20.9744 54.4311 20.7383 54.3623L20.7109 54.3773Z" fill="#689762"/>
<path d="M14.0587 50.9689L13.7474 50.7725L13.7188 50.7799C13.8111 50.8256 13.9136 50.8856 14.0215 50.9528C14.0751 50.9869 14.1303 51.0222 14.1866 51.058C14.2426 51.0939 14.3018 51.127 14.3597 51.1621C14.5925 51.3005 14.826 51.4387 15.015 51.521L14.3745 51.1578L14.2144 51.0668L14.0587 50.9689Z" fill="#689762"/>
<path d="M12.8876 50.5563L12.9535 50.5484L12.3281 50.124L12.8876 50.5563Z" fill="#689762"/>
<path d="M2.71094 36.947C2.74956 37.0592 2.78164 37.1739 2.82665 37.2839C2.78086 37.0766 2.74956 36.8647 2.71094 36.6562V36.947Z" fill="#689762"/>
<path d="M2.39062 20.8348C2.43937 20.6699 2.44653 20.6186 2.43267 20.6212L2.4252 20.6393L2.39062 20.8348Z" fill="#689762"/>
<path d="M2.13281 21.1588C2.19541 21.0827 2.39832 20.6324 2.43569 20.6232L2.49519 20.4934L2.56121 20.1535C2.58426 20.0403 2.60263 19.9256 2.63253 19.8143L2.79791 19.1406L2.65029 19.4227C2.59127 19.5448 2.52788 19.6858 2.46559 19.8354C2.40719 19.9864 2.35581 20.1479 2.30738 20.3069C2.21192 20.6254 2.14122 20.9376 2.13281 21.1588Z" fill="#689762"/>
<path d="M2.49219 19.1795L2.67998 18.6483C2.74212 18.4712 2.81936 18.2995 2.88834 18.125C2.81266 18.1893 2.73839 18.3498 2.66816 18.5447C2.60602 18.7426 2.54825 18.9749 2.49219 19.1795Z" fill="#689762"/>
<path d="M2.49381 19.1797L2.32812 19.65C2.38496 19.5569 2.4404 19.3746 2.49381 19.1797Z" fill="#689762"/>
<path d="M2.78787 18.5528C2.74582 18.6435 2.70626 18.7501 2.66406 18.885C2.7128 18.7623 2.75875 18.6402 2.81528 18.5229C2.87212 18.4058 2.93021 18.2902 2.98876 18.1754C3.10602 17.9458 3.2253 17.7194 3.34023 17.4891C3.45749 17.2597 3.58534 17.0329 3.69528 16.7909C3.75119 16.6703 3.8046 16.5468 3.85506 16.4192C3.90364 16.2912 3.95315 16.1609 4.00392 16.0273C3.88105 16.2174 3.77985 16.4185 3.66835 16.615L3.79945 16.2292C3.68266 16.4692 3.55746 16.7473 3.43677 17.0069C3.37542 17.1362 3.31593 17.2614 3.26158 17.3758C3.21035 17.4915 3.16098 17.5953 3.11504 17.6802L3.13996 17.7393C3.07035 18.0086 2.99639 18.1602 2.9151 18.3116C2.8743 18.3874 2.8321 18.4629 2.78787 18.5528Z" fill="#689762"/>
<path d="M2.46879 16.4021L2.34375 16.8303L2.54852 16.2305L2.46879 16.4021Z" fill="#689762"/>
<path d="M3.36346 16.9004C3.28154 17.0544 3.2166 17.2075 3.17222 17.3359C3.13142 17.4659 3.10636 17.569 3.09375 17.6199C3.19809 17.329 3.32811 17.0489 3.45082 16.7656L3.36346 16.9004Z" fill="#689762"/>
<path d="M3.70889 14.5851C3.89545 14.3299 4.06316 14.1223 4.20082 13.953C4.41603 13.5251 4.94083 12.8697 5.20214 12.4295L5.09327 12.553C5.07271 12.5534 5.10417 12.4854 5.1484 12.4005C5.19153 12.3149 5.25617 12.2186 5.2884 12.1541L5.43914 12.2533L5.54847 12.1032L5.54349 12.0718C5.69158 11.761 5.90989 11.6025 5.98122 11.5119C6.00831 11.4531 6.03821 11.3897 6.07356 11.3246C6.11031 11.2605 6.1508 11.1933 6.19441 11.1241C6.28177 10.9852 6.38206 10.8374 6.492 10.6867C6.6021 10.5364 6.72076 10.3822 6.84736 10.2335C6.97941 10.0892 7.11739 9.94851 7.25754 9.81772C7.37013 9.6918 7.51214 9.53306 7.65868 9.36931C7.73016 9.28592 7.80803 9.20602 7.88309 9.12764C7.95737 9.04865 8.02979 8.97179 8.09675 8.9004C8.36242 8.61316 8.53434 8.40475 8.39201 8.48009C8.58199 8.27564 8.81106 8.06009 9.05135 7.82647C9.29381 7.59528 9.54156 7.33933 9.81828 7.10677C10.0913 6.87011 10.366 6.62661 10.645 6.40347C10.9294 6.18671 11.21 5.98043 11.4761 5.79633C11.6579 5.72555 11.9501 5.50666 12.2753 5.2542C12.4385 5.12904 12.6093 4.9946 12.7837 4.87491C12.9616 4.76037 13.1399 4.65632 13.3089 4.57977L13.0086 4.71389L13.1749 4.58341C13.4317 4.4344 13.8045 4.16508 13.9536 4.1303C13.8397 4.21035 13.7324 4.30073 13.6219 4.38549L13.7721 4.3188C13.8346 4.28098 13.8858 4.2468 13.9304 4.21794C13.9754 4.18999 14.0123 4.16538 14.0439 4.14275C14.1069 4.09764 14.1484 4.06088 14.1898 4.02427C14.2725 3.95105 14.3549 3.87784 14.6095 3.73794C14.7314 3.68736 14.8825 3.60487 15.0457 3.50918C15.2118 3.41865 15.3929 3.32006 15.5673 3.22497C15.7419 3.13019 15.9112 3.04117 16.0566 2.97647C16.1294 2.94411 16.196 2.91783 16.2544 2.89991C16.3139 2.88411 16.365 2.87667 16.405 2.8791C16.3455 2.91404 16.2849 2.94654 16.2271 2.98497C16.6193 2.80619 17.016 2.63712 17.4105 2.46396C17.5645 2.31312 17.2778 2.41687 16.8922 2.57758C16.6999 2.6593 16.4819 2.75181 16.2834 2.83611C16.0867 2.92436 15.9112 3.00776 15.793 3.04847L16.1449 2.82365C15.9286 2.88441 15.5141 3.08128 15.0516 3.31308C14.8219 3.43201 14.5872 3.57222 14.355 3.70148C14.1249 3.83409 13.8962 3.955 13.7 4.07151C13.8825 4.0507 13.2311 4.42422 13.0349 4.59162C12.9233 4.65769 12.8108 4.72407 12.6978 4.79091C12.588 4.86245 12.4787 4.93643 12.3689 5.01055C12.1493 5.15926 11.9291 5.31192 11.7085 5.46716C11.5967 5.54281 11.4906 5.62696 11.3838 5.71066C11.277 5.79451 11.17 5.87851 11.0625 5.96266C10.9555 6.04727 10.8483 6.13218 10.741 6.21709C10.6341 6.30276 10.5246 6.38555 10.4228 6.4776C10.2155 6.6576 10.008 6.83806 9.80052 7.01836C9.69712 7.10889 9.59186 7.19715 9.4897 7.28889C9.38957 7.38262 9.28944 7.47634 9.18947 7.56976C8.98905 7.75629 8.78817 7.9413 8.58681 8.12358C8.39076 8.31164 8.19593 8.49862 8.00252 8.68424C8.08879 8.58916 8.24125 8.421 8.39355 8.253C8.43185 8.21123 8.46939 8.16855 8.50754 8.12875C8.54632 8.08956 8.58416 8.05158 8.61966 8.01573C8.69083 7.94404 8.75327 7.8813 8.79812 7.83604C8.46425 8.07892 8.19235 8.42602 7.92124 8.74911C7.85303 8.82961 7.78561 8.90951 7.71911 8.98804C7.65137 9.06536 7.58472 9.14146 7.51963 9.21589C7.38944 9.36475 7.25598 9.49827 7.11349 9.60582L7.35814 9.2642C7.1529 9.53169 6.95466 9.78992 6.7586 10.0456C6.56473 10.3024 6.383 10.5645 6.18756 10.8219C6.08961 10.9506 5.99104 11.0803 5.89075 11.2119C5.79514 11.3469 5.69703 11.483 5.59565 11.6211C5.49427 11.7591 5.38946 11.899 5.28045 12.0417C5.22564 12.1128 5.17006 12.1849 5.11368 12.2578C5.05778 12.3312 5.00513 12.4084 4.94891 12.4848L5.04719 12.2963C4.67656 12.8972 4.32525 13.4133 4.02703 13.9391C3.94979 14.0689 3.87332 14.1977 3.79702 14.3261C3.72071 14.4546 3.6427 14.5819 3.57465 14.7154C3.43356 14.9796 3.29217 15.2466 3.14844 15.5238C3.34309 15.1574 3.53354 14.8464 3.70889 14.5851ZM15.8115 2.98831C15.7234 3.04467 15.5784 3.12912 15.6229 3.13231C15.5268 3.14933 15.4378 3.18168 15.3454 3.22193C15.4845 3.15221 15.6318 3.07839 15.8115 2.98831ZM14.606 3.60943C14.7898 3.50736 14.9581 3.4071 15.1601 3.31262C14.9935 3.40042 14.8309 3.52391 14.643 3.64163C14.4555 3.76042 14.2458 3.8789 13.9939 3.97794C14.2301 3.82817 14.4234 3.71348 14.606 3.60943Z" fill="#689762"/>
<path d="M3.21286 14.8567L3.04688 15.2193C3.1917 14.9328 3.32967 14.6422 3.48166 14.3594C3.38542 14.5213 3.30272 14.691 3.21286 14.8567Z" fill="#689762"/>
<path d="M5.90259 11.8469L5.69531 12.2073L6.01129 11.6992L5.90259 11.8469Z" fill="#689762"/>
<path d="M9.20884 14.1484C9.14997 14.2251 9.08316 14.3152 9 14.4329L9.20884 14.1484Z" fill="#689762"/>
<path d="M9.18962 7.87163C9.09883 7.98722 8.87365 8.21158 8.92037 8.21523C9.18915 7.95578 9.45622 7.69406 9.72812 7.4375C9.5467 7.57937 9.36932 7.72657 9.18962 7.87163Z" fill="#689762"/>
<path d="M9.76326 6.93285L9.61719 7.08688L10.1895 6.57422L9.76326 6.93285Z" fill="#689762"/>
<path d="M10.6208 12.2403C10.5071 12.3861 10.4057 12.5307 10.3438 12.6053C10.4693 12.5497 10.5629 12.4294 10.6569 12.291C10.7039 12.2217 10.7508 12.1481 10.8017 12.0759C10.854 12.0051 10.9135 11.9389 10.9785 11.8789C10.9213 11.9152 10.8595 11.9685 10.7969 12.03C10.7371 12.094 10.6776 12.1675 10.6208 12.2403Z" fill="#689762"/>
<path d="M10.7751 5.95228C11.0089 5.78154 11.2484 5.61552 11.3792 5.55886C11.5924 5.29668 10.9665 5.80691 10.803 5.88499C10.8989 5.73992 11.1979 5.50782 11.3807 5.37415C11.4247 5.34255 11.4619 5.31795 11.4888 5.30078C11.448 5.326 11.3776 5.37005 11.263 5.44812C11.0738 5.60671 10.8556 5.78974 10.659 5.95471C10.5615 6.03795 10.4704 6.1177 10.3922 6.18894C10.3156 6.262 10.2542 6.32914 10.2109 6.38079C10.2644 6.34221 10.3433 6.27339 10.443 6.19866C10.5429 6.12438 10.6588 6.03856 10.7751 5.95228Z" fill="#689762"/>
<path d="M11.4922 5.30039C11.5163 5.2855 11.5327 5.27563 11.5349 5.27365C11.5386 5.27183 11.5216 5.28155 11.4922 5.30039Z" fill="#689762"/>
<path d="M10.6177 6.24934L11.5085 5.53906L10.9225 5.94387L10.6293 6.14727C10.5318 6.21562 10.4324 6.28155 10.3393 6.35537C10.3139 6.40504 10.4365 6.29901 10.564 6.21C10.6897 6.11886 10.8115 6.03395 10.7678 6.10534L10.6177 6.24934Z" fill="#689762"/>
<path d="M11.1641 11.8038L11.3202 11.5977C11.2243 11.7061 11.1823 11.7664 11.1641 11.8038Z" fill="#689762"/>
<path d="M12.2213 10.7018C12.316 10.5692 12.3912 10.5062 12.4812 10.4465C12.5717 10.3872 12.6716 10.3257 12.8102 10.1875L12.6913 10.2572C12.6508 10.284 12.5927 10.3254 12.5284 10.3737C12.4966 10.3983 12.4628 10.4243 12.4287 10.4506C12.396 10.4785 12.3638 10.508 12.3325 10.5369C12.2076 10.6528 12.1025 10.7653 12.1049 10.8091C12.0462 10.8477 11.9527 10.9198 11.9878 10.856C11.8363 11.0067 11.5057 11.2731 11.5328 11.3138C11.632 11.2212 11.7435 11.141 11.8482 11.0542L12.1662 10.7989L12.4831 10.5439L12.8121 10.304L12.8122 10.2745C12.711 10.3449 12.5963 10.4336 12.489 10.5123C12.3857 10.5952 12.2904 10.6689 12.2213 10.7018Z" fill="#689762"/>
<path d="M15.0547 8.5543C15.1818 8.4621 15.3182 8.38417 15.4509 8.30063L15.4515 8.27344C15.3196 8.35744 15.1825 8.43369 15.0559 8.52574L15.0547 8.5543Z" fill="#689762"/>
<path d="M17.4951 2.05563C17.6723 1.98469 17.8594 1.90479 17.9608 1.86104L17.9758 1.83203C17.8267 1.89294 17.6185 1.96722 17.4407 2.03482C17.2637 2.10424 17.1207 2.17563 17.0938 2.20874C17.1243 2.20373 17.1806 2.18398 17.2512 2.15573C17.3216 2.12702 17.4058 2.08965 17.4951 2.05563Z" fill="#689762"/>
<path d="M17.9609 1.86299L17.9614 1.86436C18.0833 1.81028 18.0558 1.82258 17.9609 1.86299Z" fill="#689762"/>
<path d="M18.0165 1.74526L18 1.7764L18.541 1.54688L18.0165 1.74526Z" fill="#689762"/>
<path d="M16.5489 7.51562C16.3193 7.65644 16.1195 7.8615 16.3829 7.76231C16.982 7.39137 16.3641 7.6575 16.5489 7.51562Z" fill="#689762"/>
<path d="M17.9766 2.14496C18.601 1.87974 18.2678 2.08283 18.4565 2.03514C18.8863 1.87397 18.8438 1.83038 19.0349 1.73438C18.946 1.76536 18.851 1.7962 18.7544 1.82703C18.6594 1.86212 18.5629 1.89767 18.469 1.9323C18.2815 2.00278 18.1053 2.07372 17.9766 2.14496Z" fill="#689762"/>
<path d="M19.3384 1.42655C19.5634 1.37293 19.8457 1.30047 20.0334 1.26219C20.2229 1.22984 20.3154 1.22346 20.1559 1.28224C20.0483 1.31247 19.9342 1.35561 19.8283 1.39769C19.7221 1.43946 19.6241 1.48047 19.5512 1.5148C19.4055 1.58346 19.3602 1.62462 19.5494 1.59075C19.7109 1.53956 19.9008 1.47394 20.1089 1.41212C20.3186 1.35606 20.5438 1.29606 20.7693 1.23591C20.9954 1.17819 21.2211 1.11819 21.4344 1.07247C21.6492 1.03206 21.8493 0.997886 22.0198 0.974038C22.5958 0.840822 21.6786 0.979354 22.4298 0.814847C22.4483 0.784467 22.4136 0.765023 22.6668 0.694694C22.9786 0.625883 23.5291 0.526389 23.9614 0.4433C24.0693 0.420819 24.1708 0.407149 24.2593 0.394085C24.3477 0.380262 24.4231 0.368565 24.4801 0.359603C24.5939 0.340464 24.6336 0.329832 24.5541 0.332414C24.3852 0.334845 24.2214 0.342895 24.0618 0.358389C23.903 0.379807 23.7479 0.406237 23.595 0.43601C23.2893 0.49601 22.9921 0.56801 22.6903 0.642897C22.391 0.730239 22.0864 0.818188 21.761 0.894898C21.6797 0.914037 21.597 0.932569 21.5126 0.950189C21.4282 0.967505 21.3422 0.983759 21.2558 1.00487C21.0823 1.04391 20.9012 1.079 20.7105 1.10892L21.0984 0.957329C20.7746 1.05804 20.5434 1.10892 20.3345 1.14781C20.2299 1.16634 20.1313 1.18366 20.0296 1.20158C19.9283 1.22042 19.8256 1.24715 19.7109 1.27753L19.9387 1.19505C20.0145 1.16725 20.0925 1.14599 20.1693 1.12123L20.6323 0.977836L21.0959 0.83505C21.1733 0.811809 21.2502 0.786594 21.3282 0.764872L21.563 0.704416C21.2851 0.763505 21.0138 0.849632 20.7401 0.92543C20.4671 1.00427 20.1931 1.07946 19.9215 1.16254C18.67 1.57328 18.8885 1.53546 19.3384 1.42655Z" fill="#689762"/>
<path d="M17.0859 7.29576C17.0995 7.28908 17.1126 7.28179 17.1266 7.27602L17.158 7.24609C17.1345 7.26174 17.1073 7.27875 17.0859 7.29576Z" fill="#689762"/>
<path d="M17.0781 7.32034C17.2625 7.22434 17.4508 7.13593 17.6367 7.04297L17.1227 7.27279C17.1072 7.28768 17.0931 7.30469 17.0781 7.32034Z" fill="#689762"/>
<path d="M17.24 7.16797L17.1562 7.24696C17.2159 7.20777 17.2668 7.17237 17.24 7.16797Z" fill="#689762"/>
<path d="M18.9748 4.40234L18.6328 4.62381C19.0927 4.4824 18.9776 4.42665 18.9748 4.40234Z" fill="#689762"/>
<path d="M18.7983 6.43932L18.8153 6.38281C18.7469 6.39998 18.6807 6.40863 18.5387 6.4782C18.1114 6.71289 18.6371 6.48929 18.7983 6.43932Z" fill="#689762"/>
<path d="M18.75 6.18907C18.8995 6.11753 19.0459 6.03823 19.1997 5.97656L19.0493 6.03413L18.75 6.18907Z" fill="#689762"/>
<path d="M26.7353 0.242712C26.7838 0.225396 26.8496 0.206712 26.9347 0.200636C27.0199 0.195775 27.1246 0.199725 27.2502 0.219472L27.0414 0.245294C27.9445 0.291928 28.1645 0.319573 29.2346 0.281446C29.32 0.284332 29.4214 0.287675 29.5335 0.29132C29.6456 0.295573 29.7685 0.297548 29.896 0.311219C30.1511 0.333548 30.4263 0.359371 30.6767 0.386561C31.1783 0.433042 31.5763 0.521144 31.5218 0.561398L31.7309 0.567474C31.5978 0.507322 31.3981 0.438207 31.5166 0.401599C31.4488 0.398105 31.3768 0.394612 31.3022 0.390814C31.2276 0.386105 31.1501 0.3817 31.07 0.381244C30.9104 0.37775 30.7431 0.372131 30.5757 0.363472C30.4082 0.354814 30.2406 0.342966 30.0802 0.32732C29.9198 0.312586 29.7668 0.288434 29.628 0.273244L29.6989 0.207927C29.592 0.215218 29.4863 0.2298 29.3057 0.216281L29.2804 0.237547C28.9859 0.275522 28.6803 0.264585 28.3699 0.241952C28.0599 0.23056 27.7451 0.212484 27.4373 0.216585L27.7305 0.0999264C26.4674 0.0835213 27.1495 0.158712 26.6948 0.238915L26.1641 0.249699L26.6306 0.31046C26.6094 0.319118 26.6381 0.278561 26.7353 0.242712Z" fill="#689762"/>
<path d="M29.1663 0.164548L28.5987 0.155586C28.504 0.154523 28.4095 0.151941 28.315 0.152397L28.0312 0.161663L28.3495 0.164093L28.6677 0.180802L29.3034 0.214979C29.2185 0.200397 29.0825 0.183536 29.1663 0.164548Z" fill="#689762"/>
<path d="M27.1566 0.0607749C27.3125 0.0536356 27.433 0.0405726 27.4447 0.0138382C27.2675 0.00715466 27.0965 0.0171797 26.9568 0.0313064C26.8173 0.0458887 26.7092 0.0730793 26.6562 0.0831047C26.7329 0.0785477 26.8188 0.0732313 26.9053 0.0680667C26.9918 0.0663958 27.0787 0.0644205 27.1566 0.0607749Z" fill="#689762"/>
<path d="M24.1583 4.69875C24.4336 4.63313 24.7075 4.5549 24.9872 4.50781C24.8818 4.52072 24.7757 4.52877 24.6709 4.54548C24.4752 4.60123 24.0209 4.65683 24.1583 4.69875Z" fill="#689762"/>
<path d="M28.8629 0.0859375L28.8438 0.108267L29.4188 0.106141L28.8629 0.0859375Z" fill="#689762"/>
<path d="M30.0989 0.0390625L30.0547 0.0463543L30.6256 0.10757L30.0989 0.0390625Z" fill="#689762"/>
<path d="M30.0575 0.0435956L29.7985 0.0162536C29.7121 0.00926622 29.6255 0.00546839 29.5391 0C29.6404 0.0276457 29.7418 0.0493675 29.8426 0.0820259L30.0575 0.0435956Z" fill="#689762"/>
<path d="M28.1348 4.49609L27.6094 4.57068L28.0778 4.56445L28.3118 4.56111C28.3899 4.56171 28.4679 4.56657 28.5459 4.569L28.3407 4.52723L28.1348 4.49609Z" fill="#689762"/>
<path d="M32.5079 0.631456C32.6905 0.661532 32.8721 0.698596 33.0542 0.732014L32.7467 0.62857L32.9495 0.643305C33.1407 0.671558 33.2091 0.703304 33.2907 0.730798C33.5684 0.661076 34.8294 0.989027 35.6731 1.24756C35.5891 1.23161 35.4967 1.21186 35.3989 1.18954C35.35 1.17829 35.2997 1.16675 35.2483 1.1549C35.1966 1.14472 35.1437 1.13424 35.0901 1.12376C34.8763 1.08017 34.6516 1.03414 34.4404 0.991003C34.2291 0.949382 34.0316 0.909281 33.87 0.88999C33.7076 0.874192 33.5827 0.871002 33.5193 0.88847C33.6484 0.893179 33.7998 0.901533 33.9652 0.925381C34.1301 0.951508 34.3105 0.985078 34.5015 1.02381C34.6924 1.0627 34.8936 1.1069 35.0998 1.15445C35.1513 1.16645 35.2032 1.1786 35.2553 1.19075C35.3067 1.20548 35.3586 1.22022 35.4104 1.2351C35.514 1.26548 35.6183 1.29587 35.7227 1.3264C36.5619 1.55759 37.3729 1.87977 37.8706 2.03744L38.0931 2.22519C38.0799 2.09 38.8124 2.24752 39.1597 2.34109C39.3593 2.42174 39.5786 2.57744 39.6228 2.6098C39.6181 2.6063 39.6134 2.60281 39.6015 2.5937L39.357 2.40579C39.2481 2.35779 39.1509 2.32468 39.0552 2.30098C38.9599 2.27714 38.8686 2.2542 38.7711 2.22974C38.5766 2.17977 38.3605 2.11339 38.0472 1.96286C38.0025 1.93886 37.9558 1.91501 37.907 1.89161C37.8578 1.86959 37.8061 1.84923 37.753 1.82842C37.6466 1.78711 37.5336 1.7467 37.4154 1.70706C37.179 1.62746 36.9224 1.55014 36.6589 1.47085C36.3932 1.39855 36.1182 1.33293 35.8502 1.25607C35.7161 1.21824 35.5833 1.1786 35.4536 1.13683C35.3888 1.11541 35.3246 1.09429 35.2609 1.07333C35.1969 1.05404 35.1339 1.03414 35.0719 1.01333C34.9658 0.997838 34.1863 0.855205 34.3562 0.815863C34.2889 0.811761 34.2026 0.799761 34.1041 0.782748C34.0548 0.773634 34.0025 0.763761 33.9477 0.753583C33.8927 0.744773 33.8353 0.735659 33.7764 0.726241C33.5416 0.685684 33.2826 0.640874 33.0559 0.601684C32.8287 0.564316 32.6335 0.532722 32.5236 0.535304C32.4133 0.538646 32.3903 0.565683 32.5079 0.631456Z" fill="#689762"/>
<path d="M39.6172 2.60938C39.6215 2.61259 39.6224 2.61319 39.6172 2.60938V2.60938Z" fill="#689762"/>
<path d="M35.9781 1.17741C36.2271 1.25169 36.4778 1.31852 36.7062 1.38931C36.9336 1.46374 37.1426 1.52981 37.3154 1.58024C37.0451 1.49381 36.9995 1.43822 36.8425 1.36789C36.7663 1.35467 36.6809 1.32991 36.5849 1.30956C36.4893 1.28799 36.3861 1.26217 36.2785 1.23361C36.0634 1.17649 35.8311 1.10829 35.6092 1.04252C35.498 1.01016 35.3901 0.975835 35.2871 0.948341C35.1834 0.92343 35.0859 0.899885 34.9984 0.878771C34.8231 0.838214 34.6865 0.810872 34.6172 0.808594C34.7958 0.852948 35.0119 0.906721 35.2463 0.964898C35.4794 1.02794 35.7283 1.10586 35.9781 1.17741Z" fill="#689762"/>
<path d="M31.383 4.435L31.2475 4.39307C31.1203 4.40173 30.9419 4.37272 30.7566 4.34766L30.7344 4.36816C30.9434 4.39459 31.1516 4.42573 31.3601 4.45414L31.383 4.435Z" fill="#689762"/>
<path d="M54.7271 20.5794C54.7711 20.7182 54.8151 20.8563 54.8584 20.9922C54.9027 21.128 54.9333 21.2652 54.9689 21.3976C55.0371 21.6632 55.0976 21.9165 55.1416 22.148L55.2346 22.3596L54.9862 21.2839C54.9644 21.1946 54.9467 21.1042 54.9216 21.0156L54.8464 20.7499L54.6953 20.2188L54.7845 20.7162C54.7651 20.6843 54.7441 20.6322 54.7271 20.5794Z" fill="#689762"/>
<path d="M40.3366 2.90802C40.3451 2.94736 40.3406 2.98184 40.7102 3.17415C40.6863 3.13632 40.8397 3.20377 40.9338 3.24022L41.1985 3.4301C41.2982 3.46959 41.4472 3.53521 41.4245 3.49739C41.2513 3.41476 41.1952 3.36433 41.133 3.31876L41.3248 3.39425C41.4184 3.44346 41.5159 3.49237 41.5984 3.53779C41.6791 3.5867 41.7454 3.63212 41.7794 3.66919C41.9567 3.85177 42.569 4.31567 41.6627 3.83719C42.1072 4.06808 42.4023 4.29593 42.6661 4.49886C42.9258 4.70955 43.1608 4.88545 43.5056 5.00286C43.7387 5.11466 43.9647 5.26899 44.2003 5.43517C44.3178 5.51841 44.4371 5.60575 44.5583 5.69583C44.6187 5.7411 44.6797 5.78682 44.7414 5.833C44.7721 5.85624 44.8031 5.87963 44.8341 5.90302C44.8641 5.92778 44.8942 5.95285 44.9245 5.97791C45.1667 6.17857 45.4173 6.38667 45.6797 6.59386C45.7454 6.64551 45.8115 6.69761 45.878 6.74986C45.9433 6.80379 46.0089 6.85801 46.0749 6.9127C46.2077 7.0207 46.344 7.12779 46.4844 7.23275L46.5855 7.35184C46.4969 7.33939 46.1512 7.05883 45.9143 6.88125C46.161 7.09164 46.4058 7.30035 46.6442 7.50359C46.7039 7.55432 46.7632 7.60475 46.822 7.65473C46.879 7.70683 46.9356 7.75847 46.9915 7.80966C47.1038 7.91159 47.215 8.01093 47.3244 8.10663C47.4012 8.21296 47.4601 8.29255 47.5518 8.38506C47.5976 8.43124 47.6516 8.48076 47.7203 8.53848C47.7886 8.59651 47.8668 8.66759 47.9677 8.75038C48.1389 8.97139 47.67 8.54896 48.0881 9.01134L47.9345 8.8801C48.1228 9.04081 48.3106 9.23038 48.4966 9.4321C48.5914 9.53129 48.6791 9.6396 48.7664 9.74897C48.8535 9.85818 48.9412 9.96785 49.028 10.0768C49.1154 10.1851 49.2022 10.2928 49.2873 10.3983C49.3308 10.4504 49.3739 10.5021 49.4164 10.5531C49.4591 10.604 49.4983 10.6567 49.5395 10.7065C49.7022 10.9075 49.8652 11.0883 50.0308 11.2335C50.0725 11.3062 50.1493 11.4244 50.0806 11.3725L50.2225 11.5191C50.3741 11.6918 50.5144 11.8889 50.6563 12.0896C50.7958 12.2919 50.9358 12.499 51.0613 12.7099C51.3019 13.1392 51.5243 13.5575 51.6944 13.9074C51.8504 14.0606 51.9905 14.3341 52.1282 14.6108C52.1978 14.7489 52.2678 14.8876 52.3328 15.0167C52.3972 15.1464 52.4635 15.2629 52.5348 15.3527C52.7058 15.7482 52.8991 16.1392 53.064 16.5489C53.2353 16.9552 53.4228 17.3591 53.5746 17.78C53.6542 17.9889 53.7341 18.1982 53.8139 18.4079L53.8733 18.5652C53.892 18.6181 53.9082 18.6719 53.9258 18.7252L54.0277 19.0458C54.095 19.2599 54.1609 19.474 54.2243 19.6884L54.2715 19.8491L54.3102 20.0121L54.3847 20.338C54.4325 20.5224 54.4795 20.7035 54.5258 20.8818C54.5488 20.9709 54.5718 21.0593 54.5946 21.1468C54.6133 21.2353 54.6318 21.3233 54.6503 21.4103C54.7243 21.7586 54.7959 22.0958 54.8655 22.4236C54.9205 22.754 54.9739 23.075 55.0261 23.3882C55.0505 23.5449 55.0808 23.699 55.0998 23.8527C55.1178 24.0066 55.1356 24.1588 55.1533 24.3096C55.1873 24.6111 55.226 24.906 55.2539 25.1975C55.2735 25.4896 55.2929 25.7776 55.3119 26.0628C55.3212 26.2055 55.3304 26.3475 55.3396 26.4891C55.3419 26.6308 55.3444 26.7722 55.3467 26.9133C55.3502 27.1955 55.3534 27.477 55.3569 27.7594L55.3749 26.6283C55.378 26.5339 55.3757 26.4395 55.3715 26.3452L55.3618 26.0622L55.3419 25.4953L55.4371 25.9117L55.4254 25.732C55.4287 25.2537 55.5157 25.9507 55.5339 25.9958C55.5194 25.7801 55.5137 25.5801 55.4743 25.4367C55.4855 25.2764 55.5022 25.1151 55.5033 24.9549L55.4112 24.5555C55.3709 24.2791 55.4034 24.2255 55.3978 24.0537C55.3774 23.9165 55.3664 23.7906 55.346 23.6751C55.3277 23.5594 55.3111 23.4526 55.295 23.3511C55.2665 23.1477 55.241 22.9664 55.2145 22.7791C55.1703 22.403 55.0801 22.0108 54.9124 21.3834L54.9235 21.5402L54.8244 21.2503L54.7749 21.1057L54.7189 20.963L54.6799 20.6465L54.6253 20.6162C54.5617 20.4834 54.51 20.2815 54.4535 20.0757C54.4513 19.9776 54.3829 19.6973 54.4406 19.7748C54.3252 19.4391 54.2455 19.2017 54.1746 18.975C54.1025 18.7487 54.0467 18.5306 53.948 18.2441C54.0097 18.367 54.0776 18.4878 54.1318 18.6137C54.1449 18.9058 54.4808 19.3378 54.4424 19.6338C54.4951 19.7851 54.5363 19.9417 54.5849 20.0974C54.6337 20.2531 54.6829 20.41 54.7324 20.5677C54.6768 20.4031 54.6265 20.1729 54.5723 19.9928C54.5466 19.8989 54.5295 19.8067 54.5127 19.7303C54.496 19.6539 54.4867 19.5913 54.4865 19.5535C54.4862 19.4781 54.5231 19.5027 54.613 19.7181L54.3577 19.0115C54.3664 18.9153 54.3177 18.7278 54.2356 18.4833C54.1452 18.2421 54.0142 17.947 53.8755 17.6294C53.8043 17.4714 53.7375 17.3051 53.6587 17.1428C53.5799 16.9806 53.5015 16.8172 53.4274 16.6561C53.2768 16.3353 53.1538 16.0192 53.0478 15.7558L53.1126 15.9497C53.002 15.8224 52.8749 15.5088 52.7545 15.2854C52.5932 15.1226 53.1756 16.219 52.767 15.5634C52.6323 15.2815 52.539 15.0642 52.4875 14.9111C52.4336 14.7592 52.4176 14.6736 52.4499 14.6485C52.5636 14.8142 52.6516 14.9125 52.763 15.1504C52.7388 15.0773 52.6843 14.9424 52.7424 15.0085C52.6787 14.9234 52.6223 14.8334 52.56 14.7456C52.4982 14.6575 52.4386 14.5674 52.3807 14.4755C52.2646 14.2918 52.1552 14.1015 52.0479 13.9081C51.9935 13.812 51.9431 13.7131 51.8865 13.6177L51.7148 13.3327C51.5998 13.143 51.4834 12.9548 51.3617 12.7724L51.2977 12.7561L51.6386 13.2979C51.7504 13.4796 51.8699 13.6566 51.9711 13.8446C52.0254 13.9941 52.1447 14.2529 52.0293 14.1319C51.9183 13.9657 51.8253 13.8061 51.7289 13.6614C51.6329 13.5165 51.5458 13.3792 51.465 13.2469C51.3842 13.1146 51.3097 12.9873 51.2387 12.8625C51.1669 12.7384 51.1028 12.6139 51.0287 12.4971C50.8849 12.2605 50.7445 12.0247 50.5842 11.7727C50.4288 11.5172 50.2341 11.2599 49.9993 10.9687L50.0317 10.9749C49.868 10.7365 49.7779 10.5203 49.6685 10.3303C49.5547 10.1444 49.4265 9.98031 49.2006 9.84239C49.3448 10.0727 49.4938 10.2975 49.6313 10.5303C49.5848 10.4807 49.5354 10.4334 49.4853 10.3868C49.3473 10.2244 49.2051 10.0626 49.1649 9.9759L48.9483 9.82522C48.8499 9.6996 48.7543 9.57094 48.6527 9.44775L48.3421 9.08258L48.0303 8.71711C47.926 8.59544 47.8235 8.47164 47.712 8.35681C47.8137 8.39433 48.1739 8.71195 48.0001 8.48699C47.9489 8.44309 47.8978 8.39904 47.8436 8.35818L47.7433 8.22967L47.2508 7.84521C47.2028 7.74906 47.1089 7.65321 46.9916 7.54992C46.8741 7.44723 46.7253 7.34561 46.5786 7.22455C46.3603 7.06733 45.8994 6.67589 45.3564 6.27123C45.2229 6.16718 45.0859 6.06054 44.9487 5.95345L44.8461 5.87279L44.7405 5.79639C44.6704 5.7452 44.6008 5.69431 44.5318 5.64403C44.2565 5.44201 43.9964 5.24439 43.7773 5.07168C44.0101 5.21978 44.2685 5.36606 44.5201 5.52145C44.6458 5.59922 44.7697 5.67958 44.887 5.76388C45.0026 5.85062 45.1083 5.94571 45.2047 6.04353L44.9636 5.80809C44.8828 5.73001 44.7973 5.65786 44.7142 5.58236C44.7856 5.62034 44.8632 5.66591 44.9452 5.7174C45.0256 5.77087 45.1086 5.83269 45.195 5.89725C45.3676 6.02697 45.5504 6.17249 45.7309 6.31801C45.8209 6.39077 45.9107 6.46323 45.9981 6.53386C46.083 6.60753 46.1655 6.67938 46.2438 6.74758C46.4011 6.88338 46.5444 7.00202 46.6621 7.08708C46.5041 6.94733 46.3334 6.80227 46.2792 6.71979C46.4827 6.83842 46.6892 6.95872 46.886 7.07341C46.6085 6.83082 46.3239 6.63275 46.0135 6.42161C45.6966 6.21761 45.3615 5.99173 44.9913 5.67122C44.8014 5.57052 44.4753 5.3577 44.4191 5.36773C44.1905 5.21674 44.0027 5.09719 43.8337 4.98251C43.6605 4.8739 43.5079 4.76712 43.3544 4.63299C43.4466 4.68008 43.5906 4.76059 43.5721 4.72155C43.2097 4.47623 42.7727 4.19127 42.365 3.96327C42.1637 3.84494 41.9756 3.73116 41.8175 3.62681C41.7383 3.57501 41.6674 3.52367 41.6045 3.47871C41.5409 3.43465 41.4872 3.39319 41.4455 3.35476L41.2516 3.2785L41.3859 3.37465L40.6331 2.99308L40.4448 2.89799C40.3817 2.86701 40.3168 2.83966 40.2528 2.81035L40.1094 2.74609C40.3134 2.84452 40.33 2.87764 40.3366 2.90802ZM55.3021 23.7415C55.3083 23.8746 55.3122 24.0342 55.3699 24.1998C55.3371 24.1185 55.3421 24.259 55.3402 24.3395C55.3045 24.0417 55.2756 23.7427 55.22 23.4474C55.281 23.5036 55.291 23.6094 55.3021 23.7415ZM54.714 21.0948C54.7405 21.2043 54.7625 21.3132 54.7846 21.4193C54.8603 21.7039 54.9277 21.9483 54.9174 22.0633C54.9523 22.2296 54.9932 22.3746 55.0273 22.4956C55.0621 22.6164 55.1024 22.7109 55.1527 22.7725L55.1681 23.4122C55.1354 23.2721 55.0909 23.081 55.0395 22.8606C55.0149 22.7504 54.9901 22.6325 54.9669 22.5093C54.9447 22.3861 54.9126 22.2599 54.8903 22.1294C54.907 22.1209 54.9141 22.0945 54.9174 22.0633C54.8749 21.8707 54.8332 21.6546 54.7844 21.4193C54.757 21.3131 54.7284 21.2019 54.6997 21.0912C54.6682 20.9812 54.6396 20.8711 54.6181 20.7655C54.6525 20.8759 54.6841 20.986 54.714 21.0948ZM53.5768 17.2735C53.638 17.4298 53.6981 17.5856 53.7516 17.7333C53.6802 17.585 53.6126 17.424 53.5461 17.2628C53.4742 17.1041 53.4067 16.9438 53.3466 16.7929C53.2747 16.6119 53.2152 16.4482 53.1697 16.3121C53.2225 16.4606 53.2937 16.6329 53.3753 16.8196C53.4404 16.966 53.5087 17.12 53.5768 17.2735ZM42.5754 4.13688L42.7352 4.23091L42.8909 4.33147L43.0124 4.4381C42.7681 4.26311 42.511 4.10803 42.2559 3.94929L42.5754 4.13688Z" fill="#689762"/>
<path d="M40.1089 2.74908C40.0469 2.71931 39.9692 2.68422 39.8672 2.64062L40.1089 2.74908Z" fill="#689762"/>
<path d="M41.1014 3.05078L41.0703 3.05989L41.3399 3.25235L41.1014 3.05078Z" fill="#689762"/>
<path d="M38.6165 6.76984L38.699 6.73688C38.5792 6.65409 38.55 6.60275 38.3284 6.50781C38.3192 6.5549 38.5768 6.69738 38.6165 6.76984Z" fill="#689762"/>
<path d="M40.6037 6.41587L40.1797 6.19531C40.3541 6.31486 40.4952 6.4379 40.6037 6.41587Z" fill="#689762"/>
<path d="M40.1787 6.19454C40.0712 6.12482 39.956 6.06512 39.8281 6.03125C39.9448 6.08578 40.0628 6.13803 40.1787 6.19454Z" fill="#689762"/>
<path d="M40.2932 6.51291C40.4967 6.55378 40.26 6.34901 40.2099 6.28036C40.154 6.25514 40.0971 6.23175 40.0391 6.21094C40.118 6.26684 40.1918 6.33185 40.2677 6.39291C39.9564 6.23554 40.2368 6.44912 40.2932 6.51291Z" fill="#689762"/>
<path d="M41.4613 6.79983C41.3861 6.76291 41.2929 6.69258 41.1841 6.62605C41.0771 6.55648 40.9605 6.48053 40.8522 6.4102C40.6347 6.27076 40.445 6.1623 40.4062 6.21805C40.7232 6.38742 40.7819 6.45593 40.8426 6.52595C40.873 6.56104 40.9038 6.59643 40.9676 6.64519C40.9996 6.6695 41.0397 6.69714 41.0922 6.72965C41.145 6.76155 41.2096 6.79937 41.2878 6.84828L41.3168 6.83932C41.2702 6.80985 41.2254 6.7778 41.1777 6.75015C40.9913 6.61664 41.0598 6.63745 41.1772 6.68636C41.2945 6.73512 41.4537 6.82337 41.4613 6.79983Z" fill="#689762"/>
<path d="M43.5469 6.30488L43.9754 6.61597C43.9215 6.53926 43.7442 6.42002 43.5813 6.30078L43.5469 6.30488Z" fill="#689762"/>
<path d="M42.7226 7.6602C42.5722 7.55068 42.423 7.44329 42.2775 7.34167C42.1284 7.24552 41.9811 7.15802 41.8411 7.07812C41.7769 7.10592 41.8686 7.1764 42.0192 7.2762C42.0935 7.32754 42.1866 7.3801 42.2746 7.44952C42.364 7.51696 42.4557 7.59018 42.5375 7.66674C42.7963 7.85251 42.9771 7.96051 43.1382 8.04907C43.2977 8.14005 43.4322 8.21874 43.6071 8.33312C43.4653 8.2236 43.324 8.1039 43.1752 7.9915C43.0246 7.88137 42.8726 7.77018 42.7226 7.6602Z" fill="#689762"/>
<path d="M44.2637 9.10596C44.4771 9.28399 44.8323 9.63305 44.9103 9.64642C44.7704 9.4529 44.4264 9.20652 44.2031 9.01953C44.2251 9.04581 44.2449 9.0733 44.2637 9.10596Z" fill="#689762"/>
<path d="M44.0391 8.86328C44.0817 8.90627 44.1334 8.95867 44.2029 9.01518C44.1574 8.96186 44.1059 8.9125 44.0391 8.86328Z" fill="#689762"/>
<path d="M43.6641 8.57422C43.8123 8.70576 43.9391 8.79098 44.0386 8.86374C44.0035 8.82698 43.9755 8.79174 43.9788 8.7688L43.6641 8.57422Z" fill="#689762"/>
<path d="M42.8022 9.09951L42.5547 8.90234L42.7475 9.11424L42.8022 9.09951Z" fill="#689762"/>
<path d="M48.713 9.41847L48.7755 9.41954C48.6249 9.24561 48.4598 8.96004 48.3125 8.89062C48.7541 9.31351 48.5286 9.22055 48.713 9.41847Z" fill="#689762"/>
<path d="M45.9947 10.5138L45.8975 10.4059L45.7951 10.3032C45.6582 10.1665 45.5204 10.031 45.3829 9.89857C45.3137 9.83279 45.2449 9.76732 45.1768 9.70231C45.1082 9.6379 45.0409 9.57319 44.9686 9.51562L44.9375 9.51882C45.0216 9.59006 45.0994 9.66829 45.1786 9.74499L45.4154 9.97543L45.889 10.4363L45.9153 10.4307C45.9799 10.6167 46.295 10.854 46.563 11.1578C46.4396 11.0173 46.314 10.8741 46.1873 10.7298C46.1232 10.6581 46.059 10.5861 45.9947 10.5138Z" fill="#689762"/>
<path d="M50.9062 19.7539C50.9296 19.8289 50.9525 19.9035 50.9765 19.9818C50.9536 19.9 50.9301 19.8256 50.9062 19.7539Z" fill="#689762"/>
<path d="M48.6744 15.2205C48.7463 15.3233 48.8193 15.4237 48.8857 15.5263C48.949 15.6308 49.0117 15.7341 49.0736 15.8365C49.1963 16.042 49.3141 16.2451 49.4288 16.4471C49.5378 16.6523 49.6356 16.8609 49.7369 17.0675C49.7865 17.1712 49.8364 17.2748 49.8864 17.3788L49.9608 17.5352C49.9829 17.5886 50.005 17.6422 50.0273 17.696C50.1161 17.9108 50.2056 18.1277 50.2972 18.3492C50.3412 18.4604 50.3934 18.5696 50.4328 18.6856C50.4745 18.8006 50.5167 18.917 50.5596 19.035C50.6444 19.2712 50.7393 19.5112 50.8288 19.7631C50.9117 20.0173 50.9996 20.2797 51.0946 20.552L50.8388 19.7299C50.7433 19.4593 50.6416 19.1907 50.5435 18.9205C50.6181 19.0955 50.6939 19.2496 50.7698 19.4149C50.8076 19.4975 50.8456 19.5829 50.883 19.675C50.8916 19.6999 50.9001 19.7266 50.9089 19.7526C50.8987 19.7201 50.8888 19.6857 50.8783 19.6538C50.84 19.5496 50.8026 19.4477 50.7654 19.3467C50.6907 19.1445 50.6173 18.9458 50.5412 18.7399C50.5222 18.6882 50.503 18.6363 50.4837 18.5836C50.4619 18.5319 50.4398 18.4797 50.4174 18.4265C50.3725 18.3202 50.3264 18.2108 50.2785 18.0969C50.231 17.9826 50.1818 17.8637 50.1301 17.7392C50.0788 17.6141 50.0271 17.4823 49.9614 17.3483L49.9909 17.3562C49.9477 17.2406 49.8686 17.0592 49.7738 16.871C49.7263 16.777 49.6749 16.6813 49.6221 16.5916C49.5958 16.5467 49.569 16.5033 49.5422 16.4623C49.5145 16.4217 49.4847 16.3848 49.4566 16.3505C49.3729 16.17 49.434 16.2244 49.4684 16.2322C49.3022 15.96 49.1879 15.7406 49.095 15.5436C49.0722 15.4941 49.0503 15.4462 49.0288 15.3996C49.0059 15.3539 48.9835 15.3092 48.9614 15.2652C48.9176 15.1766 48.8749 15.0902 48.8313 15.0018L48.7134 14.8564C48.8097 14.9963 48.8287 15.0615 48.8555 15.1259C48.617 14.9044 48.369 14.3889 48.0958 14.0431C47.984 13.8077 47.8599 13.619 47.7154 13.4387C47.5645 13.263 47.3982 13.0918 47.2133 12.8793C47.178 12.8155 47.1127 12.7116 47.1722 12.7526C47.1057 12.6684 47.0445 12.5799 46.9737 12.4994L46.7656 12.2539C46.801 12.316 46.8993 12.4435 46.9637 12.5375C47.0277 12.632 47.0526 12.6968 46.9584 12.6214C47.1819 12.9375 47.4258 13.1925 47.5348 13.2598C47.6983 13.4966 47.5197 13.3389 47.512 13.3784C47.5601 13.4422 47.6107 13.504 47.657 13.5692L47.7936 13.7661C47.7937 13.727 47.8847 13.8375 47.947 13.9079C48.2382 14.4343 48.7415 15.0259 48.9872 15.5134C48.8172 15.2769 48.8145 15.3832 48.6744 15.2205Z" fill="#689762"/>
<path d="M49.1711 14.0547C49.152 14.0116 49.1342 13.9677 49.114 13.9253C49.0806 13.9063 49.1194 13.9693 49.1711 14.0547Z" fill="#689762"/>
<path d="M49.1741 14.0608C49.1782 14.0665 49.1748 14.0605 49.179 14.0658C49.1753 14.06 49.1719 14.0547 49.1719 14.0547L49.1741 14.0608Z" fill="#689762"/>
<path d="M49.1658 13.8343L48.9986 13.594L48.6641 13.1133L49.0162 13.6586C49.0742 13.7497 49.1348 13.8392 49.1906 13.9317L49.3532 14.2123C49.318 14.205 49.2979 14.2208 49.1797 14.061C49.2778 14.2184 49.459 14.4802 49.5642 14.6698C49.571 14.6344 49.6296 14.6788 49.7938 14.9154C49.8035 14.7743 49.2133 14.124 49.3237 14.0804C49.2708 13.9987 49.2227 13.9136 49.1658 13.8343Z" fill="#689762"/>
<path d="M49.5626 14.6719C49.5607 14.7091 49.5964 14.8045 49.6415 14.8902C49.6599 14.8645 49.6238 14.7803 49.5626 14.6719Z" fill="#689762"/>
<path d="M48.5199 14.4645C48.5048 14.3965 48.4322 14.2863 48.3464 14.1648C48.261 14.0431 48.1624 13.9101 48.0896 13.7993L48.0312 13.793C48.262 14.0223 48.3214 14.2326 48.459 14.453L48.5199 14.4645Z" fill="#689762"/>
<path d="M53.225 17.1047L53.1641 17.0781C53.3104 17.3579 53.4324 17.6485 53.5599 17.9373C53.4511 17.6587 53.3513 17.3762 53.225 17.1047Z" fill="#689762"/>
<path d="M50.2662 17.688C50.2373 17.6263 50.2049 17.5516 50.1715 17.4735C50.1376 17.3959 50.097 17.3175 50.0613 17.2441C49.9886 17.0978 49.9238 16.9768 49.8906 16.957C50.0082 17.1978 50.1367 17.4334 50.2385 17.6814L50.2662 17.688Z" fill="#689762"/>
<path d="M53.7224 19.5694L53.7509 19.5852L53.5854 19.08C53.5287 18.912 53.4787 18.7417 53.4119 18.5775L53.3828 18.5625C53.4493 18.7267 53.5016 18.8962 53.5571 19.0645L53.7224 19.5694Z" fill="#689762"/>
<path d="M55.496 23.9736C55.4848 23.8832 55.4762 23.7924 55.4628 23.7023L55.4182 23.4325C55.3897 23.3326 55.3528 23.1781 55.3359 23.2171C55.3778 23.3525 55.3932 23.4679 55.4119 23.5859C55.4329 23.7037 55.449 23.8252 55.496 23.9736Z" fill="#689762"/>
<path d="M51.6006 21.8497L51.4745 21.3885L51.4062 21.2227L51.6006 21.8497Z" fill="#689762"/>
<path d="M52.8287 22.3757L52.8552 22.3897L52.7734 21.9141L52.8287 22.3757Z" fill="#689762"/>
<path d="M53.8476 24.6675C53.8066 24.33 53.7771 23.9908 53.7137 23.6563L53.6875 23.6367C53.7509 23.9715 53.783 24.3107 53.823 24.6487L53.8476 24.6675Z" fill="#689762"/>
<path d="M55.6699 27.8878C55.7373 27.5349 55.6017 27.0489 55.6084 26.7578L55.5938 27.2819L55.6395 27.3238C55.6721 27.4742 55.6671 27.6768 55.6699 27.8878Z" fill="#689762"/>
<path d="M27.9974 24.8337C31.4952 24.8337 34.3307 21.9981 34.3307 18.5003C34.3307 15.0025 31.4952 12.167 27.9974 12.167C24.4996 12.167 21.6641 15.0025 21.6641 18.5003C21.6641 21.9981 24.4996 24.8337 27.9974 24.8337Z" stroke="#689762" stroke-linecap="round" stroke-linejoin="round"/>
<path d="M42.25 43.833C42.25 35.963 35.87 29.583 28 29.583C20.13 29.583 13.75 35.963 13.75 43.833" stroke="#689762" stroke-linecap="round" stroke-linejoin="round"/>
<line x1="49.5" y1="2.18552e-08" x2="49.5" y2="13" stroke="#689762"/>
<line x1="56" y1="6.5" x2="43" y2="6.5" stroke="#689762"/>
</svg>
