<svg xmlns="http://www.w3.org/2000/svg" width="28" height="28" viewBox="0 0 28 28" fill="none">
     <path d="M14 1.5C7.372 1.5 2 6.872 2 13.5c0 2.356.63 4.565 1.726 6.457L2 25l5.191-1.363C9.542 24.206 11.719 25 14 25c6.628 0 12-5.372 12-11.5S20.628 1.5 14 1.5z" stroke="#3C4839" stroke-width="1" fill="none" />
     <path fill="transparent" stroke="#3C4839" fill-rule="evenodd" clip-rule="evenodd" d="M11.1071 9.0617C10.8955 8.57918 10.6604 8.56747 10.4605 8.56747C10.2841 8.55575 10.0952 8.55575 9.89529 8.55575C9.70779 8.55575 9.39002 8.62606 9.11981 8.9204C8.84891 9.21404 8.10858 9.90818 8.10858 11.3309C8.10858 12.7544 9.14324 14.1302 9.28455 14.3184C9.42517 14.5066 11.2836 17.5168 14.2242 18.6818C16.6699 19.6461 17.1641 19.458 17.6935 19.3987C18.2222 19.3401 19.3989 18.7052 19.6457 18.0228C19.8807 17.3528 19.8807 16.7648 19.8104 16.6469C19.7401 16.5297 19.5395 16.4587 19.2576 16.3057C18.9632 16.1651 17.5522 15.4592 17.282 15.3648C17.0111 15.2711 16.8229 15.2242 16.6347 15.5061C16.4465 15.8005 15.8937 16.447 15.7179 16.6352C15.5525 16.8234 15.3767 16.8468 15.0941 16.7055C14.8005 16.5649 13.8713 16.2588 12.7656 15.2711C11.9067 14.5059 11.3304 13.554 11.154 13.272C10.9899 12.9777 11.1305 12.8247 11.2836 12.6834C11.4132 12.5545 11.5779 12.3428 11.7192 12.1781C11.8598 12.0127 11.9067 11.8838 12.0129 11.6956C12.1066 11.5074 12.0597 11.3309 11.9894 11.1903C11.9184 11.0607 11.3663 9.63797 11.1071 9.0617Z" stroke="#3C4839" stroke-linejoin="round" />
</svg>
          